<svg width="800" height="84" viewBox="0 0 800 84" fill="none" xmlns="http://www.w3.org/2000/svg">
<g clip-path="url(#clip0_1_2)">
<path d="M4.5 21.5H795.5" stroke="black" stroke-linecap="round"/>
<path d="M4.5 21.5V52.5" stroke="black" stroke-linecap="round"/>
<path d="M4.5 52.5H795.5" stroke="black" stroke-linecap="round"/>
<path d="M795.5 21.5V52.5" stroke="black" stroke-linecap="round"/>
<path d="M770.5 21.5V24.5" stroke="black" stroke-linecap="round"/>
<path d="M770.5 52.5V49.5" stroke="black" stroke-linecap="round"/>
<path d="M746.5 21.5V24.5" stroke="black" stroke-linecap="round"/>
<path d="M746.5 52.5V49.5" stroke="black" stroke-linecap="round"/>
<path d="M721.5 21.5V24.5" stroke="black" stroke-linecap="round"/>
<path d="M721.5 52.5V49.5" stroke="black" stroke-linecap="round"/>
<path d="M696.5 21.5V24.5" stroke="black" stroke-linecap="round"/>
<path d="M696.5 52.5V49.5" stroke="black" stroke-linecap="round"/>
<path d="M671.5 21.5V24.5" stroke="black" stroke-linecap="round"/>
<path d="M671.5 52.5V49.5" stroke="black" stroke-linecap="round"/>
<path d="M647.5 21.5V24.5" stroke="black" stroke-linecap="round"/>
<path d="M647.5 52.5V49.5" stroke="black" stroke-linecap="round"/>
<path d="M622.5 21.5V52.5" stroke="black" stroke-linecap="round"/>
<path d="M597.5 21.5V24.5" stroke="black" stroke-linecap="round"/>
<path d="M597.5 52.5V49.5" stroke="black" stroke-linecap="round"/>
<path d="M573.5 21.5V24.5" stroke="black" stroke-linecap="round"/>
<path d="M573.5 52.5V49.5" stroke="black" stroke-linecap="round"/>
<path d="M548.5 21.5V24.5" stroke="black" stroke-linecap="round"/>
<path d="M548.5 52.5V49.5" stroke="black" stroke-linecap="round"/>
<path d="M523.5 21.5V24.5" stroke="black" stroke-linecap="round"/>
<path d="M523.5 52.5V49.5" stroke="black" stroke-linecap="round"/>
<path d="M498.5 21.5V52.5" stroke="black" stroke-linecap="round"/>
<path d="M474.5 21.5V24.5" stroke="black" stroke-linecap="round"/>
<path d="M474.5 52.5V49.5" stroke="black" stroke-linecap="round"/>
<path d="M449.5 21.5V24.5" stroke="black" stroke-linecap="round"/>
<path d="M449.5 52.5V49.5" stroke="black" stroke-linecap="round"/>
<path d="M424.5 21.5V52.5" stroke="black" stroke-linecap="round"/>
<path d="M400.5 21.5V24.5" stroke="black" stroke-linecap="round"/>
<path d="M400.5 52.5V49.5" stroke="black" stroke-linecap="round"/>
<path d="M375.5 21.5V24.5" stroke="black" stroke-linecap="round"/>
<path d="M375.5 52.5V49.5" stroke="black" stroke-linecap="round"/>
<path d="M350.5 21.5V24.5" stroke="black" stroke-linecap="round"/>
<path d="M350.5 52.5V49.5" stroke="black" stroke-linecap="round"/>
<path d="M325.5 21.5V24.5" stroke="black" stroke-linecap="round"/>
<path d="M325.5 52.5V49.5" stroke="black" stroke-linecap="round"/>
<path d="M301.5 21.5V52.5" stroke="black" stroke-linecap="round"/>
<path d="M276.5 21.5V24.5" stroke="black" stroke-linecap="round"/>
<path d="M276.5 52.5V49.5" stroke="black" stroke-linecap="round"/>
<path d="M251.5 21.5V24.5" stroke="black" stroke-linecap="round"/>
<path d="M251.5 52.5V49.5" stroke="black" stroke-linecap="round"/>
<path d="M226.5 21.5V24.5" stroke="black" stroke-linecap="round"/>
<path d="M226.5 52.5V49.5" stroke="black" stroke-linecap="round"/>
<path d="M202.5 21.5V24.5" stroke="black" stroke-linecap="round"/>
<path d="M202.5 52.5V49.5" stroke="black" stroke-linecap="round"/>
<path d="M177.5 21.5V52.5" stroke="black" stroke-linecap="round"/>
<path d="M152.5 21.5V24.5" stroke="black" stroke-linecap="round"/>
<path d="M152.5 52.5V49.5" stroke="black" stroke-linecap="round"/>
<path d="M128.5 21.5V24.5" stroke="black" stroke-linecap="round"/>
<path d="M128.5 52.5V49.5" stroke="black" stroke-linecap="round"/>
<path d="M103.5 21.5V24.5" stroke="black" stroke-linecap="round"/>
<path d="M103.5 52.5V49.5" stroke="black" stroke-linecap="round"/>
<path d="M78.5 21.5V24.5" stroke="black" stroke-linecap="round"/>
<path d="M78.5 52.5V49.5" stroke="black" stroke-linecap="round"/>
<path d="M53.5 21.5V24.5" stroke="black" stroke-linecap="round"/>
<path d="M53.5 52.5V49.5" stroke="black" stroke-linecap="round"/>
<path d="M29.5 21.5V24.5" stroke="black" stroke-linecap="round"/>
<path d="M29.5 52.5V49.5" stroke="black" stroke-linecap="round"/>
<path d="M779.783 7.358C780.427 6.546 781.333 6.14 782.499 6.14C783.666 6.14 784.571 6.546 785.215 7.358C785.859 8.17 786.181 9.514 786.181 11.39C786.181 13.266 785.859 14.61 785.215 15.422C784.571 16.234 783.666 16.64 782.499 16.64C781.333 16.64 780.427 16.234 779.783 15.422C779.139 14.61 778.817 13.266 778.817 11.39C778.817 9.514 779.139 8.17 779.783 7.358ZM780.567 14.708C780.997 15.3893 781.641 15.73 782.499 15.73C783.358 15.73 783.997 15.3893 784.417 14.708C784.847 14.0173 785.061 12.9113 785.061 11.39C785.061 9.86867 784.847 8.76733 784.417 8.086C783.997 7.39533 783.358 7.05 782.499 7.05C781.641 7.05 780.997 7.39533 780.567 8.086C780.147 8.76733 779.937 9.86867 779.937 11.39C779.937 12.9113 780.147 14.0173 780.567 14.708Z" fill="black"/>
<path d="M634.541 10.508C633.823 10.508 633.23 10.7413 632.763 11.208C632.297 11.6747 632.063 12.272 632.063 13C632.063 13.868 632.283 14.5353 632.721 15.002C633.16 15.4687 633.767 15.702 634.541 15.702C635.335 15.702 635.951 15.4687 636.389 15.002C636.828 14.5353 637.047 13.868 637.047 13C637.047 12.2347 636.819 11.628 636.361 11.18C635.913 10.732 635.307 10.508 634.541 10.508ZM634.541 16.64C633.412 16.64 632.525 16.2993 631.881 15.618C631.247 14.9367 630.929 13.9567 630.929 12.678C630.929 10.7833 631.387 9.25733 632.301 8.1C633.225 6.94267 634.495 6.28933 636.109 6.14L636.305 7.078C634.159 7.32067 632.796 8.52933 632.217 10.704L632.231 10.718C632.875 9.99933 633.725 9.64 634.779 9.64C635.815 9.64 636.637 9.94333 637.243 10.55C637.859 11.1473 638.167 11.964 638.167 13C638.167 14.1107 637.836 14.9973 637.173 15.66C636.511 16.3133 635.633 16.64 634.541 16.64Z" fill="black"/>
<path d="M606.751 6.28H613.331V7.218C611.717 9.86867 610.368 12.9627 609.285 16.5H608.109C609.183 13.1213 610.564 10.0367 612.253 7.246V7.218H606.751V6.28Z" fill="black"/>
<path d="M506.186 16.5V7.624H506.158L503.4 10.172L502.966 9.262L506.186 6.28H507.306V16.5H506.186ZM514.868 16.5V7.624H514.84L512.082 10.172L511.648 9.262L514.868 6.28H515.988V16.5H514.868Z" fill="black"/>
<path d="M481.686 16.5V7.624H481.658L478.9 10.172L478.466 9.262L481.686 6.28H482.806V16.5H481.686ZM490.13 7.092C489.206 7.092 488.282 7.414 487.358 8.058L487.022 7.162C487.974 6.48067 489.057 6.14 490.27 6.14C491.269 6.14 492.043 6.39667 492.594 6.91C493.145 7.414 493.42 8.12333 493.42 9.038C493.42 9.95267 493.089 10.8767 492.426 11.81C491.763 12.7433 490.522 13.9847 488.702 15.534V15.562H493.462V16.5H487.162V15.562C489.15 13.9193 490.499 12.6407 491.208 11.726C491.917 10.802 492.272 9.934 492.272 9.122C492.272 8.45933 492.09 7.95533 491.726 7.61C491.362 7.26467 490.83 7.092 490.13 7.092Z" fill="black"/>
<path d="M432.186 16.5V7.624H432.158L429.4 10.172L428.966 9.262L432.186 6.28H433.306V16.5H432.186ZM441.61 13.21V7.918H441.582L437.858 13.182V13.21H441.61ZM442.716 13.21H444.452V14.12H442.716V16.5H441.61V14.12H436.71V13.21L441.61 6.28H442.716V13.21Z" fill="black"/>
<path d="M408.186 16.5V7.624H408.158L405.4 10.172L404.966 9.262L408.186 6.28H409.306V16.5H408.186ZM419.668 7.218H415.244L415.048 10.522H415.076C415.627 10.1953 416.247 10.032 416.938 10.032C417.937 10.032 418.711 10.3027 419.262 10.844C419.813 11.3853 420.088 12.1507 420.088 13.14C420.088 14.2787 419.766 15.1467 419.122 15.744C418.487 16.3413 417.554 16.64 416.322 16.64C415.37 16.64 414.493 16.416 413.69 15.968L413.97 15.044C414.754 15.4827 415.538 15.702 416.322 15.702C418.086 15.702 418.968 14.848 418.968 13.14C418.968 12.4213 418.777 11.8753 418.394 11.502C418.011 11.1193 417.461 10.928 416.742 10.928C416.005 10.928 415.393 11.1427 414.908 11.572H413.928L414.236 6.28H419.668V7.218Z" fill="black"/>
<path d="M309.186 16.5V7.624H309.158L306.4 10.172L305.966 9.262L309.186 6.28H310.306V16.5H309.186ZM317.798 6.14C318.937 6.14 319.823 6.48067 320.458 7.162C321.093 7.834 321.41 8.79067 321.41 10.032C321.41 11.9827 320.939 13.532 319.996 14.68C319.063 15.828 317.761 16.4813 316.09 16.64L315.894 15.702C317.033 15.5807 317.947 15.2213 318.638 14.624C319.329 14.0173 319.823 13.1633 320.122 12.062L320.108 12.048C319.455 12.776 318.605 13.14 317.56 13.14C316.524 13.14 315.698 12.8367 315.082 12.23C314.475 11.614 314.172 10.774 314.172 9.71C314.172 8.62733 314.503 7.764 315.166 7.12C315.829 6.46667 316.706 6.14 317.798 6.14ZM317.798 7.078C317.005 7.078 316.389 7.30667 315.95 7.764C315.511 8.22133 315.292 8.87 315.292 9.71C315.292 10.5127 315.516 11.1427 315.964 11.6C316.421 12.048 317.033 12.272 317.798 12.272C318.517 12.272 319.109 12.034 319.576 11.558C320.043 11.082 320.276 10.466 320.276 9.71C320.276 8.87933 320.057 8.23533 319.618 7.778C319.179 7.31133 318.573 7.078 317.798 7.078Z" fill="black"/>
<path d="M283.948 7.092C283.024 7.092 282.1 7.414 281.176 8.058L280.84 7.162C281.792 6.48067 282.875 6.14 284.088 6.14C285.087 6.14 285.862 6.39667 286.412 6.91C286.963 7.414 287.238 8.12333 287.238 9.038C287.238 9.95267 286.907 10.8767 286.244 11.81C285.582 12.7433 284.34 13.9847 282.52 15.534V15.562H287.28V16.5H280.98V15.562C282.968 13.9193 284.317 12.6407 285.026 11.726C285.736 10.802 286.09 9.934 286.09 9.122C286.09 8.45933 285.908 7.95533 285.544 7.61C285.18 7.26467 284.648 7.092 283.948 7.092ZM290.124 7.358C290.768 6.546 291.673 6.14 292.84 6.14C294.007 6.14 294.912 6.546 295.556 7.358C296.2 8.17 296.522 9.514 296.522 11.39C296.522 13.266 296.2 14.61 295.556 15.422C294.912 16.234 294.007 16.64 292.84 16.64C291.673 16.64 290.768 16.234 290.124 15.422C289.48 14.61 289.158 13.266 289.158 11.39C289.158 9.514 289.48 8.17 290.124 7.358ZM290.908 14.708C291.337 15.3893 291.981 15.73 292.84 15.73C293.699 15.73 294.338 15.3893 294.758 14.708C295.187 14.0173 295.402 12.9113 295.402 11.39C295.402 9.86867 295.187 8.76733 294.758 8.086C294.338 7.39533 293.699 7.05 292.84 7.05C291.981 7.05 291.337 7.39533 290.908 8.086C290.488 8.76733 290.278 9.86867 290.278 11.39C290.278 12.9113 290.488 14.0173 290.908 14.708Z" fill="black"/>
<path d="M184.948 7.092C184.024 7.092 183.1 7.414 182.176 8.058L181.84 7.162C182.792 6.48067 183.875 6.14 185.088 6.14C186.087 6.14 186.862 6.39667 187.412 6.91C187.963 7.414 188.238 8.12333 188.238 9.038C188.238 9.95267 187.907 10.8767 187.244 11.81C186.582 12.7433 185.34 13.9847 183.52 15.534V15.562H188.28V16.5H181.98V15.562C183.968 13.9193 185.317 12.6407 186.026 11.726C186.736 10.802 187.09 9.934 187.09 9.122C187.09 8.45933 186.908 7.95533 186.544 7.61C186.18 7.26467 185.648 7.092 184.948 7.092ZM194.61 13.21V7.918H194.582L190.858 13.182V13.21H194.61ZM195.716 13.21H197.452V14.12H195.716V16.5H194.61V14.12H189.71V13.21L194.61 6.28H195.716V13.21Z" fill="black"/>
<path d="M159.448 7.092C158.524 7.092 157.6 7.414 156.676 8.058L156.34 7.162C157.292 6.48067 158.375 6.14 159.588 6.14C160.587 6.14 161.362 6.39667 161.912 6.91C162.463 7.414 162.738 8.12333 162.738 9.038C162.738 9.95267 162.407 10.8767 161.744 11.81C161.082 12.7433 159.84 13.9847 158.02 15.534V15.562H162.78V16.5H156.48V15.562C158.468 13.9193 159.817 12.6407 160.526 11.726C161.236 10.802 161.59 9.934 161.59 9.122C161.59 8.45933 161.408 7.95533 161.044 7.61C160.68 7.26467 160.148 7.092 159.448 7.092ZM171.168 7.218H166.744L166.548 10.522H166.576C167.127 10.1953 167.747 10.032 168.438 10.032C169.437 10.032 170.211 10.3027 170.762 10.844C171.313 11.3853 171.588 12.1507 171.588 13.14C171.588 14.2787 171.266 15.1467 170.622 15.744C169.987 16.3413 169.054 16.64 167.822 16.64C166.87 16.64 165.993 16.416 165.19 15.968L165.47 15.044C166.254 15.4827 167.038 15.702 167.822 15.702C169.586 15.702 170.468 14.848 170.468 13.14C170.468 12.4213 170.277 11.8753 169.894 11.502C169.511 11.1193 168.961 10.928 168.242 10.928C167.505 10.928 166.893 11.1427 166.408 11.572H165.428L165.736 6.28H171.168V7.218Z" fill="black"/>
<path d="M9.00836 6.28H15.1404V7.218L11.7944 10.508V10.536H12.2144C13.2037 10.536 13.9597 10.774 14.4824 11.25C15.0144 11.726 15.2804 12.4167 15.2804 13.322C15.2804 14.386 14.963 15.2073 14.3284 15.786C13.703 16.3553 12.807 16.64 11.6404 16.64C10.6324 16.64 9.74569 16.3973 8.98036 15.912L9.31636 15.002C10.1004 15.4687 10.875 15.702 11.6404 15.702C12.4617 15.702 13.087 15.5013 13.5164 15.1C13.9457 14.6987 14.1604 14.106 14.1604 13.322C14.1604 12.6593 13.9364 12.1693 13.4884 11.852C13.0497 11.5253 12.345 11.362 11.3744 11.362H10.3524V10.494L13.6984 7.246V7.218H9.00836V6.28ZM20.868 16.5V7.624H20.84L18.082 10.172L17.648 9.262L20.868 6.28H21.988V16.5H20.868Z" fill="black"/>
<path d="M690.539 36.704C690.119 36.1813 689.541 35.92 688.803 35.92C688.066 35.92 687.483 36.1813 687.053 36.704C686.633 37.2173 686.423 37.936 686.423 38.86C686.423 39.784 686.633 40.5073 687.053 41.03C687.483 41.5433 688.066 41.8 688.803 41.8C689.541 41.8 690.119 41.5433 690.539 41.03C690.969 40.5073 691.183 39.784 691.183 38.86C691.183 37.936 690.969 37.2173 690.539 36.704ZM691.295 41.618C690.67 42.2993 689.839 42.64 688.803 42.64C687.767 42.64 686.937 42.2993 686.311 41.618C685.686 40.9367 685.373 40.0173 685.373 38.86C685.373 37.7027 685.686 36.7833 686.311 36.102C686.937 35.4207 687.767 35.08 688.803 35.08C689.839 35.08 690.67 35.4207 691.295 36.102C691.921 36.7833 692.233 37.7027 692.233 38.86C692.233 40.0173 691.921 40.9367 691.295 41.618ZM697.25 42.64C696.195 42.64 695.411 42.2153 694.898 41.366H694.87V45.58H693.848V35.22H694.828L694.842 36.452H694.87C695.383 35.5373 696.177 35.08 697.25 35.08C698.165 35.08 698.883 35.4067 699.406 36.06C699.929 36.704 700.19 37.6373 700.19 38.86C700.19 40.0547 699.919 40.9833 699.378 41.646C698.846 42.3087 698.137 42.64 697.25 42.64ZM699.182 38.86C699.182 37.908 698.991 37.18 698.608 36.676C698.235 36.172 697.707 35.92 697.026 35.92C696.382 35.92 695.859 36.172 695.458 36.676C695.066 37.18 694.87 37.8753 694.87 38.762V38.958C694.87 39.8633 695.071 40.5633 695.472 41.058C695.873 41.5527 696.391 41.8 697.026 41.8C697.689 41.8 698.211 41.548 698.594 41.044C698.986 40.5307 699.182 39.8027 699.182 38.86ZM705.202 35.934C704.381 35.934 703.741 36.1907 703.284 36.704C702.827 37.208 702.598 37.9267 702.598 38.86C702.598 39.756 702.836 40.47 703.312 41.002C703.797 41.534 704.427 41.8 705.202 41.8C705.855 41.8 706.481 41.6413 707.078 41.324L707.358 42.15C706.658 42.4767 705.925 42.64 705.16 42.64C704.077 42.64 703.2 42.2993 702.528 41.618C701.856 40.9273 701.52 40.008 701.52 38.86C701.52 37.6747 701.842 36.7507 702.486 36.088C703.13 35.416 704.021 35.08 705.16 35.08C705.925 35.08 706.658 35.2433 707.358 35.57L707.078 36.424C706.453 36.0973 705.827 35.934 705.202 35.934ZM713.987 36.704C713.567 36.1813 712.988 35.92 712.251 35.92C711.513 35.92 710.93 36.1813 710.501 36.704C710.081 37.2173 709.871 37.936 709.871 38.86C709.871 39.784 710.081 40.5073 710.501 41.03C710.93 41.5433 711.513 41.8 712.251 41.8C712.988 41.8 713.567 41.5433 713.987 41.03C714.416 40.5073 714.631 39.784 714.631 38.86C714.631 37.936 714.416 37.2173 713.987 36.704ZM714.743 41.618C714.117 42.2993 713.287 42.64 712.251 42.64C711.215 42.64 710.384 42.2993 709.759 41.618C709.133 40.9367 708.821 40.0173 708.821 38.86C708.821 37.7027 709.133 36.7833 709.759 36.102C710.384 35.4207 711.215 35.08 712.251 35.08C713.287 35.08 714.117 35.4207 714.743 36.102C715.368 36.7833 715.681 37.7027 715.681 38.86C715.681 40.0173 715.368 40.9367 714.743 41.618ZM718.594 36.69C718.211 37.194 718.02 37.9173 718.02 38.86C718.02 39.8027 718.216 40.5307 718.608 41.044C719 41.548 719.527 41.8 720.19 41.8C720.825 41.8 721.338 41.5527 721.73 41.058C722.131 40.5633 722.332 39.8633 722.332 38.958V38.762C722.332 37.8753 722.131 37.18 721.73 36.676C721.338 36.172 720.825 35.92 720.19 35.92C719.509 35.92 718.977 36.1767 718.594 36.69ZM717.012 38.86C717.012 37.6373 717.273 36.704 717.796 36.06C718.319 35.4067 719.037 35.08 719.952 35.08C721.007 35.08 721.791 35.5233 722.304 36.41H722.332V32H723.354V42.5H722.374L722.36 41.268H722.332C721.819 42.1827 721.025 42.64 719.952 42.64C719.056 42.64 718.342 42.3133 717.81 41.66C717.278 40.9973 717.012 40.064 717.012 38.86ZM726.086 39.252C726.104 40.0453 726.347 40.6707 726.814 41.128C727.28 41.5853 727.887 41.814 728.634 41.814C729.352 41.814 730.066 41.6273 730.776 41.254L731.056 42.052C730.272 42.444 729.432 42.64 728.536 42.64C727.49 42.64 726.646 42.2993 726.002 41.618C725.358 40.9367 725.036 40.0173 725.036 38.86C725.036 37.684 725.334 36.76 725.932 36.088C726.538 35.416 727.36 35.08 728.396 35.08C729.404 35.08 730.183 35.402 730.734 36.046C731.294 36.6807 731.574 37.5953 731.574 38.79C731.574 38.9113 731.564 39.0653 731.546 39.252H726.086ZM726.086 38.44H730.566C730.556 37.628 730.36 37.0027 729.978 36.564C729.595 36.1253 729.068 35.906 728.396 35.906C727.696 35.906 727.14 36.13 726.73 36.578C726.328 37.0167 726.114 37.6373 726.086 38.44Z" fill="black"/>
<path d="M554.968 35.22H555.962L555.99 36.774H556.018C556.839 35.6447 557.997 35.08 559.49 35.08V35.962C558.454 35.962 557.614 36.2467 556.97 36.816C556.335 37.3853 556.018 38.1227 556.018 39.028V42.5H554.968V35.22ZM562.2 36.69C561.818 37.194 561.626 37.9173 561.626 38.86C561.626 39.8027 561.822 40.5307 562.214 41.044C562.606 41.548 563.134 41.8 563.796 41.8C564.431 41.8 564.944 41.5527 565.336 41.058C565.738 40.5633 565.938 39.8633 565.938 38.958V38.762C565.938 37.8753 565.738 37.18 565.336 36.676C564.944 36.172 564.431 35.92 563.796 35.92C563.115 35.92 562.583 36.1767 562.2 36.69ZM560.618 38.86C560.618 37.6373 560.88 36.704 561.402 36.06C561.925 35.4067 562.644 35.08 563.558 35.08C564.613 35.08 565.397 35.5233 565.91 36.41H565.938V32H566.96V42.5H565.98L565.966 41.268H565.938C565.425 42.1827 564.632 42.64 563.558 42.64C562.662 42.64 561.948 42.3133 561.416 41.66C560.884 40.9973 560.618 40.064 560.618 38.86Z" fill="black"/>
<path d="M439.383 35.5H441.301V34.562C441.301 32.9473 442.076 32.14 443.625 32.14C444.055 32.14 444.493 32.21 444.941 32.35L444.717 33.19C444.372 33.05 444.041 32.98 443.723 32.98C443.219 32.98 442.86 33.1013 442.645 33.344C442.44 33.5773 442.337 33.9833 442.337 34.562V35.5H444.843V36.34H442.337V42.5H441.301V36.34H439.383V35.5ZM447.478 35.22V39.742C447.478 40.4887 447.6 41.0113 447.842 41.31C448.094 41.6087 448.51 41.758 449.088 41.758C449.63 41.758 450.12 41.4967 450.558 40.974C451.006 40.4513 451.23 39.8307 451.23 39.112V35.22H452.252V42.5H451.272L451.258 41.198H451.23C450.95 41.646 450.591 42.0007 450.152 42.262C449.723 42.514 449.256 42.64 448.752 42.64C447.968 42.64 447.39 42.4207 447.016 41.982C446.652 41.534 446.47 40.82 446.47 39.84V35.22H447.478ZM454.347 35.22H455.327L455.341 36.522H455.369C455.649 36.074 456.004 35.724 456.433 35.472C456.872 35.2107 457.343 35.08 457.847 35.08C458.668 35.08 459.275 35.3367 459.667 35.85C460.068 36.354 460.269 37.1567 460.269 38.258V42.5H459.261V38.342C459.261 37.4367 459.13 36.8113 458.869 36.466C458.608 36.1113 458.16 35.934 457.525 35.934C456.984 35.934 456.489 36.2047 456.041 36.746C455.593 37.278 455.369 37.8987 455.369 38.608V42.5H454.347V35.22ZM465.496 35.934C464.675 35.934 464.035 36.1907 463.578 36.704C463.121 37.208 462.892 37.9267 462.892 38.86C462.892 39.756 463.13 40.47 463.606 41.002C464.091 41.534 464.721 41.8 465.496 41.8C466.149 41.8 466.775 41.6413 467.372 41.324L467.652 42.15C466.952 42.4767 466.219 42.64 465.454 42.64C464.371 42.64 463.494 42.2993 462.822 41.618C462.15 40.9273 461.814 40.008 461.814 38.86C461.814 37.6747 462.136 36.7507 462.78 36.088C463.424 35.416 464.315 35.08 465.454 35.08C466.219 35.08 466.952 35.2433 467.652 35.57L467.372 36.424C466.747 36.0973 466.121 35.934 465.496 35.934ZM471.915 32.84V35.5H474.673V36.34H471.915V40.162C471.915 40.8153 472.003 41.254 472.181 41.478C472.358 41.6927 472.689 41.8 473.175 41.8C473.604 41.8 474.015 41.7207 474.407 41.562L474.575 42.388C474.099 42.556 473.585 42.64 473.035 42.64C472.241 42.64 471.681 42.472 471.355 42.136C471.028 41.7907 470.865 41.198 470.865 40.358V36.34H469.255V35.5H470.865V32.84H471.915ZM476.895 32.28H483.027V33.218L479.681 36.508V36.536H480.101C481.09 36.536 481.846 36.774 482.369 37.25C482.901 37.726 483.167 38.4167 483.167 39.322C483.167 40.386 482.85 41.2073 482.215 41.786C481.59 42.3553 480.694 42.64 479.527 42.64C478.519 42.64 477.632 42.3973 476.867 41.912L477.203 41.002C477.987 41.4687 478.762 41.702 479.527 41.702C480.348 41.702 480.974 41.5013 481.403 41.1C481.832 40.6987 482.047 40.106 482.047 39.322C482.047 38.6593 481.823 38.1693 481.375 37.852C480.936 37.5253 480.232 37.362 479.261 37.362H478.239V36.494L481.585 33.246V33.218H476.895V32.28Z" fill="black"/>
<path d="M352.701 35.22H353.695L353.723 36.774H353.751C354.573 35.6447 355.73 35.08 357.223 35.08V35.962C356.187 35.962 355.347 36.2467 354.703 36.816C354.069 37.3853 353.751 38.1227 353.751 39.028V42.5H352.701V35.22ZM361.18 35.08C362.066 35.08 362.888 35.2667 363.644 35.64L363.42 36.466C362.701 36.102 361.954 35.92 361.18 35.92C360.638 35.92 360.223 36.018 359.934 36.214C359.654 36.41 359.514 36.6853 359.514 37.04C359.514 37.376 359.635 37.642 359.878 37.838C360.13 38.034 360.582 38.188 361.236 38.3C362.188 38.4587 362.869 38.72 363.28 39.084C363.7 39.448 363.91 39.9473 363.91 40.582C363.91 41.2167 363.667 41.7207 363.182 42.094C362.706 42.458 362.038 42.64 361.18 42.64C360.181 42.64 359.285 42.4067 358.492 41.94L358.73 41.114C359.495 41.5713 360.312 41.8 361.18 41.8C361.721 41.8 362.136 41.6973 362.426 41.492C362.715 41.2773 362.86 40.974 362.86 40.582C362.86 40.2087 362.729 39.9193 362.468 39.714C362.216 39.5087 361.768 39.35 361.124 39.238C360.2 39.0793 359.528 38.8273 359.108 38.482C358.697 38.1273 358.492 37.6467 358.492 37.04C358.492 36.4427 358.725 35.9667 359.192 35.612C359.668 35.2573 360.33 35.08 361.18 35.08ZM369.035 42.5V33.624H369.007L366.249 36.172L365.815 35.262L369.035 32.28H370.155V42.5H369.035Z" fill="black"/>
<path d="M228.201 35.22H229.195L229.223 36.774H229.251C230.073 35.6447 231.23 35.08 232.723 35.08V35.962C231.687 35.962 230.847 36.2467 230.203 36.816C229.569 37.3853 229.251 38.1227 229.251 39.028V42.5H228.201V35.22ZM236.68 35.08C237.566 35.08 238.388 35.2667 239.144 35.64L238.92 36.466C238.201 36.102 237.454 35.92 236.68 35.92C236.138 35.92 235.723 36.018 235.434 36.214C235.154 36.41 235.014 36.6853 235.014 37.04C235.014 37.376 235.135 37.642 235.378 37.838C235.63 38.034 236.082 38.188 236.736 38.3C237.688 38.4587 238.369 38.72 238.78 39.084C239.2 39.448 239.41 39.9473 239.41 40.582C239.41 41.2167 239.167 41.7207 238.682 42.094C238.206 42.458 237.538 42.64 236.68 42.64C235.681 42.64 234.785 42.4067 233.992 41.94L234.23 41.114C234.995 41.5713 235.812 41.8 236.68 41.8C237.221 41.8 237.636 41.6973 237.926 41.492C238.215 41.2773 238.36 40.974 238.36 40.582C238.36 40.2087 238.229 39.9193 237.968 39.714C237.716 39.5087 237.268 39.35 236.624 39.238C235.7 39.0793 235.028 38.8273 234.608 38.482C234.197 38.1273 233.992 37.6467 233.992 37.04C233.992 36.4427 234.225 35.9667 234.692 35.612C235.168 35.2573 235.83 35.08 236.68 35.08ZM244.297 33.092C243.373 33.092 242.449 33.414 241.525 34.058L241.189 33.162C242.141 32.4807 243.224 32.14 244.437 32.14C245.436 32.14 246.21 32.3967 246.761 32.91C247.312 33.414 247.587 34.1233 247.587 35.038C247.587 35.9527 247.256 36.8767 246.593 37.81C245.93 38.7433 244.689 39.9847 242.869 41.534V41.562H247.629V42.5H241.329V41.562C243.317 39.9193 244.666 38.6407 245.375 37.726C246.084 36.802 246.439 35.934 246.439 35.122C246.439 34.4593 246.257 33.9553 245.893 33.61C245.529 33.2647 244.997 33.092 244.297 33.092Z" fill="black"/>
<path d="M67.8833 35.5H69.8013V34.562C69.8013 32.9473 70.5759 32.14 72.1253 32.14C72.5546 32.14 72.9933 32.21 73.4413 32.35L73.2173 33.19C72.8719 33.05 72.5406 32.98 72.2233 32.98C71.7193 32.98 71.3599 33.1013 71.1453 33.344C70.9399 33.5773 70.8373 33.9833 70.8373 34.562V35.5H73.3433V36.34H70.8373V42.5H69.8013V36.34H67.8833V35.5ZM75.9782 35.22V39.742C75.9782 40.4887 76.0996 41.0113 76.3422 41.31C76.5942 41.6087 77.0096 41.758 77.5882 41.758C78.1296 41.758 78.6196 41.4967 79.0582 40.974C79.5062 40.4513 79.7302 39.8307 79.7302 39.112V35.22H80.7522V42.5H79.7722L79.7582 41.198H79.7302C79.4502 41.646 79.0909 42.0007 78.6522 42.262C78.2229 42.514 77.7562 42.64 77.2522 42.64C76.4682 42.64 75.8896 42.4207 75.5162 41.982C75.1522 41.534 74.9702 40.82 74.9702 39.84V35.22H75.9782ZM82.8469 35.22H83.8269L83.8409 36.522H83.8689C84.1489 36.074 84.5035 35.724 84.9329 35.472C85.3715 35.2107 85.8429 35.08 86.3469 35.08C87.1682 35.08 87.7749 35.3367 88.1669 35.85C88.5682 36.354 88.7689 37.1567 88.7689 38.258V42.5H87.7609V38.342C87.7609 37.4367 87.6302 36.8113 87.3689 36.466C87.1075 36.1113 86.6595 35.934 86.0249 35.934C85.4835 35.934 84.9889 36.2047 84.5409 36.746C84.0929 37.278 83.8689 37.8987 83.8689 38.608V42.5H82.8469V35.22ZM93.9959 35.934C93.1746 35.934 92.5352 36.1907 92.0779 36.704C91.6206 37.208 91.3919 37.9267 91.3919 38.86C91.3919 39.756 91.6299 40.47 92.1059 41.002C92.5912 41.534 93.2212 41.8 93.9959 41.8C94.6492 41.8 95.2746 41.6413 95.8719 41.324L96.1519 42.15C95.4519 42.4767 94.7192 42.64 93.9539 42.64C92.8712 42.64 91.9939 42.2993 91.3219 41.618C90.6499 40.9273 90.3139 40.008 90.3139 38.86C90.3139 37.6747 90.6359 36.7507 91.2799 36.088C91.9239 35.416 92.8152 35.08 93.9539 35.08C94.7192 35.08 95.4519 35.2433 96.1519 35.57L95.8719 36.424C95.2466 36.0973 94.6212 35.934 93.9959 35.934ZM100.415 32.84V35.5H103.173V36.34H100.415V40.162C100.415 40.8153 100.503 41.254 100.681 41.478C100.858 41.6927 101.189 41.8 101.675 41.8C102.104 41.8 102.515 41.7207 102.907 41.562L103.075 42.388C102.599 42.556 102.085 42.64 101.535 42.64C100.741 42.64 100.181 42.472 99.8547 42.136C99.528 41.7907 99.3647 41.198 99.3647 40.358V36.34H97.7547V35.5H99.3647V32.84H100.415ZM105.297 32.28H111.877V33.218C110.262 35.8687 108.914 38.9627 107.831 42.5H106.655C107.728 39.1213 109.11 36.0367 110.799 33.246V33.218H105.297V32.28Z" fill="black"/>
<path d="M705.751 56.28H712.331V57.218C710.717 59.8687 709.368 62.9627 708.285 66.5H707.109C708.183 63.1213 709.564 60.0367 711.253 57.246V57.218H705.751V56.28Z" fill="black"/>
<path d="M685.433 71.05C684.789 71.05 684.29 71.1947 683.935 71.484C683.58 71.764 683.403 72.156 683.403 72.66C683.403 73.5653 684.066 74.2187 685.391 74.62C686.548 74.956 687.37 75.376 687.855 75.88C688.35 76.384 688.597 77.0373 688.597 77.84C688.597 78.7453 688.312 79.4407 687.743 79.926C687.183 80.402 686.38 80.64 685.335 80.64C684.178 80.64 683.151 80.346 682.255 79.758L682.591 78.834C683.403 79.4127 684.318 79.702 685.335 79.702C686.026 79.702 686.553 79.5433 686.917 79.226C687.29 78.9087 687.477 78.4467 687.477 77.84C687.477 77.28 687.318 76.8367 687.001 76.51C686.693 76.174 686.147 75.8847 685.363 75.642C683.319 75.0353 682.297 74.0413 682.297 72.66C682.297 71.8947 682.572 71.2833 683.123 70.826C683.683 70.3687 684.453 70.14 685.433 70.14C686.488 70.14 687.468 70.3593 688.373 70.798L688.093 71.666C687.281 71.2553 686.394 71.05 685.433 71.05ZM690.616 70.28L693.57 75.236H693.598L696.566 70.28H697.84L694.158 76.174V80.5H692.982V76.174L689.3 70.28H690.616ZM701.511 71.05C700.867 71.05 700.368 71.1947 700.013 71.484C699.658 71.764 699.481 72.156 699.481 72.66C699.481 73.5653 700.144 74.2187 701.469 74.62C702.626 74.956 703.448 75.376 703.933 75.88C704.428 76.384 704.675 77.0373 704.675 77.84C704.675 78.7453 704.39 79.4407 703.821 79.926C703.261 80.402 702.458 80.64 701.413 80.64C700.256 80.64 699.229 80.346 698.333 79.758L698.669 78.834C699.481 79.4127 700.396 79.702 701.413 79.702C702.104 79.702 702.631 79.5433 702.995 79.226C703.368 78.9087 703.555 78.4467 703.555 77.84C703.555 77.28 703.396 76.8367 703.079 76.51C702.771 76.174 702.225 75.8847 701.441 75.642C699.397 75.0353 698.375 74.0413 698.375 72.66C698.375 71.8947 698.65 71.2833 699.201 70.826C699.761 70.3687 700.531 70.14 701.511 70.14C702.566 70.14 703.546 70.3593 704.451 70.798L704.171 71.666C703.359 71.2553 702.472 71.05 701.511 71.05ZM706.085 70.28H713.547V71.232H710.383V80.5H709.263V71.232H706.085V70.28ZM716.702 71.218V74.55H721.28V75.446H716.702V79.562H721.56V80.5H715.582V70.28H721.56V71.218H716.702ZM723.785 80.5V70.28H724.919L728.559 76.44H728.587L732.227 70.28H733.403V80.5H732.283V72.156H732.255L729.091 77.462H728.055L724.891 72.156H724.863V80.5H723.785Z" fill="black"/>
<path d="M563.327 57.218H558.903L558.707 60.522H558.735C559.286 60.1953 559.907 60.032 560.597 60.032C561.596 60.032 562.371 60.3027 562.921 60.844C563.472 61.3853 563.747 62.1507 563.747 63.14C563.747 64.2787 563.425 65.1467 562.781 65.744C562.147 66.3413 561.213 66.64 559.981 66.64C559.029 66.64 558.152 66.416 557.349 65.968L557.629 65.044C558.413 65.4827 559.197 65.702 559.981 65.702C561.745 65.702 562.627 64.848 562.627 63.14C562.627 62.4213 562.436 61.8753 562.053 61.502C561.671 61.1193 561.12 60.928 560.401 60.928C559.664 60.928 559.053 61.1427 558.567 61.572H557.587L557.895 56.28H563.327V57.218Z" fill="black"/>
<path d="M557.783 71.358C558.427 70.546 559.333 70.14 560.499 70.14C561.666 70.14 562.571 70.546 563.215 71.358C563.859 72.17 564.181 73.514 564.181 75.39C564.181 77.266 563.859 78.61 563.215 79.422C562.571 80.234 561.666 80.64 560.499 80.64C559.333 80.64 558.427 80.234 557.783 79.422C557.139 78.61 556.817 77.266 556.817 75.39C556.817 73.514 557.139 72.17 557.783 71.358ZM558.567 78.708C558.997 79.3893 559.641 79.73 560.499 79.73C561.358 79.73 561.997 79.3893 562.417 78.708C562.847 78.0173 563.061 76.9113 563.061 75.39C563.061 73.8687 562.847 72.7673 562.417 72.086C561.997 71.3953 561.358 71.05 560.499 71.05C559.641 71.05 558.997 71.3953 558.567 72.086C558.147 72.7673 557.937 73.8687 557.937 75.39C557.937 76.9113 558.147 78.0173 558.567 78.708Z" fill="black"/>
<path d="M458.349 56.28H464.481V57.218L461.135 60.508V60.536H461.555C462.545 60.536 463.301 60.774 463.823 61.25C464.355 61.726 464.621 62.4167 464.621 63.322C464.621 64.386 464.304 65.2073 463.669 65.786C463.044 66.3553 462.148 66.64 460.981 66.64C459.973 66.64 459.087 66.3973 458.321 65.912L458.657 65.002C459.441 65.4687 460.216 65.702 460.981 65.702C461.803 65.702 462.428 65.5013 462.857 65.1C463.287 64.6987 463.501 64.106 463.501 63.322C463.501 62.6593 463.277 62.1693 462.829 61.852C462.391 61.5253 461.686 61.362 460.715 61.362H459.693V60.494L463.039 57.246V57.218H458.349V56.28Z" fill="black"/>
<path d="M447.084 70.364C448.054 70.2147 449.002 70.14 449.926 70.14C451.195 70.14 452.156 70.4107 452.81 70.952C453.472 71.484 453.804 72.2493 453.804 73.248C453.804 74.3307 453.472 75.152 452.81 75.712C452.147 76.272 451.186 76.552 449.926 76.552C449.31 76.552 448.736 76.524 448.204 76.468V80.5H447.084V70.364ZM448.204 75.544C448.745 75.6187 449.291 75.656 449.842 75.656C450.766 75.656 451.47 75.4553 451.956 75.054C452.45 74.6527 452.698 74.0787 452.698 73.332C452.698 72.5853 452.455 72.0207 451.97 71.638C451.494 71.246 450.784 71.05 449.842 71.05C449.328 71.05 448.782 71.0967 448.204 71.19V75.544ZM455.478 80.5V70.35C456.29 70.21 457.163 70.14 458.096 70.14C459.403 70.14 460.387 70.3827 461.05 70.868C461.722 71.344 462.058 72.0253 462.058 72.912C462.058 73.6213 461.867 74.214 461.484 74.69C461.101 75.166 460.56 75.4927 459.86 75.67V75.698C460.28 75.922 460.695 76.5287 461.106 77.518L462.338 80.5H461.176L459.972 77.546C459.692 76.874 459.426 76.4587 459.174 76.3C458.931 76.132 458.446 76.048 457.718 76.048H456.598V80.5H455.478ZM456.598 75.152H457.718C458.829 75.152 459.645 74.9747 460.168 74.62C460.691 74.256 460.952 73.7193 460.952 73.01C460.952 71.7033 459.967 71.05 457.998 71.05C457.503 71.05 457.037 71.092 456.598 71.176V75.152ZM464.58 80.5V70.28H465.798V80.5H464.58ZM469.093 70.28L472.257 79.394H472.285L475.449 70.28H476.611L472.887 80.5H471.627L467.889 70.28H469.093Z" fill="black"/>
<path d="M365.327 57.218H360.903L360.707 60.522H360.735C361.286 60.1953 361.907 60.032 362.597 60.032C363.596 60.032 364.371 60.3027 364.921 60.844C365.472 61.3853 365.747 62.1507 365.747 63.14C365.747 64.2787 365.425 65.1467 364.781 65.744C364.147 66.3413 363.213 66.64 361.981 66.64C361.029 66.64 360.152 66.416 359.349 65.968L359.629 65.044C360.413 65.4827 361.197 65.702 361.981 65.702C363.745 65.702 364.627 64.848 364.627 63.14C364.627 62.4213 364.436 61.8753 364.053 61.502C363.671 61.1193 363.12 60.928 362.401 60.928C361.664 60.928 361.053 61.1427 360.567 61.572H359.587L359.895 56.28H365.327V57.218Z" fill="black"/>
<path d="M344.716 73.22L346.984 79.87H347.012L349.266 73.22H350.386L347.698 80.5H346.256L343.568 73.22H344.716ZM354.431 73.08C355.448 73.08 356.176 73.29 356.615 73.71C357.053 74.13 357.273 74.8207 357.273 75.782V78.54C357.273 79.2027 357.343 79.856 357.483 80.5H356.503C356.428 80.136 356.381 79.7067 356.363 79.212H356.335C356.083 79.66 355.719 80.01 355.243 80.262C354.767 80.514 354.23 80.64 353.633 80.64C352.961 80.64 352.424 80.4533 352.023 80.08C351.621 79.6973 351.421 79.184 351.421 78.54C351.421 77.728 351.775 77.084 352.485 76.608C353.194 76.1227 354.202 75.88 355.509 75.88H356.251V75.81C356.251 75.1007 356.115 74.6107 355.845 74.34C355.583 74.06 355.112 73.92 354.431 73.92C353.553 73.92 352.737 74.1347 351.981 74.564L351.799 73.738C352.601 73.2993 353.479 73.08 354.431 73.08ZM352.429 78.498C352.429 78.918 352.559 79.2493 352.821 79.492C353.082 79.7253 353.432 79.842 353.871 79.842C354.515 79.842 355.07 79.6133 355.537 79.156C356.013 78.6893 356.251 78.12 356.251 77.448V76.664H355.509C354.529 76.664 353.768 76.832 353.227 77.168C352.695 77.4947 352.429 77.938 352.429 78.498ZM360.603 74.69C360.22 75.194 360.029 75.9173 360.029 76.86C360.029 77.8027 360.225 78.5307 360.617 79.044C361.009 79.548 361.536 79.8 362.199 79.8C362.833 79.8 363.347 79.5527 363.739 79.058C364.14 78.5633 364.341 77.8633 364.341 76.958V76.762C364.341 75.8753 364.14 75.18 363.739 74.676C363.347 74.172 362.833 73.92 362.199 73.92C361.517 73.92 360.985 74.1767 360.603 74.69ZM359.021 76.86C359.021 75.6373 359.282 74.704 359.805 74.06C360.327 73.4067 361.046 73.08 361.961 73.08C363.015 73.08 363.799 73.5233 364.313 74.41H364.341V70H365.363V80.5H364.383L364.369 79.268H364.341C363.827 80.1827 363.034 80.64 361.961 80.64C361.065 80.64 360.351 80.3133 359.819 79.66C359.287 78.9973 359.021 78.064 359.021 76.86ZM368.696 74.69C368.314 75.194 368.122 75.9173 368.122 76.86C368.122 77.8027 368.318 78.5307 368.71 79.044C369.102 79.548 369.63 79.8 370.292 79.8C370.927 79.8 371.44 79.5527 371.832 79.058C372.234 78.5633 372.434 77.8633 372.434 76.958V76.762C372.434 75.8753 372.234 75.18 371.832 74.676C371.44 74.172 370.927 73.92 370.292 73.92C369.611 73.92 369.079 74.1767 368.696 74.69ZM367.114 76.86C367.114 75.6373 367.376 74.704 367.898 74.06C368.421 73.4067 369.14 73.08 370.054 73.08C371.109 73.08 371.893 73.5233 372.406 74.41H372.434V70H373.456V80.5H372.476L372.462 79.268H372.434C371.921 80.1827 371.128 80.64 370.054 80.64C369.158 80.64 368.444 80.3133 367.912 79.66C367.38 78.9973 367.114 78.064 367.114 76.86ZM375.628 73.22H376.622L376.65 74.774H376.678C377.499 73.6447 378.657 73.08 380.15 73.08V73.962C379.114 73.962 378.274 74.2467 377.63 74.816C376.995 75.3853 376.678 76.1227 376.678 77.028V80.5H375.628V73.22Z" fill="black"/>
<path d="M241.327 57.218H236.903L236.707 60.522H236.735C237.286 60.1953 237.907 60.032 238.597 60.032C239.596 60.032 240.371 60.3027 240.921 60.844C241.472 61.3853 241.747 62.1507 241.747 63.14C241.747 64.2787 241.425 65.1467 240.781 65.744C240.147 66.3413 239.213 66.64 237.981 66.64C237.029 66.64 236.152 66.416 235.349 65.968L235.629 65.044C236.413 65.4827 237.197 65.702 237.981 65.702C239.745 65.702 240.627 64.848 240.627 63.14C240.627 62.4213 240.436 61.8753 240.053 61.502C239.671 61.1193 239.12 60.928 238.401 60.928C237.664 60.928 237.053 61.1427 236.567 61.572H235.587L235.895 56.28H241.327V57.218Z" fill="black"/>
<path d="M229.277 73.08C230.295 73.08 231.023 73.29 231.461 73.71C231.9 74.13 232.119 74.8207 232.119 75.782V78.54C232.119 79.2027 232.189 79.856 232.329 80.5H231.349C231.275 80.136 231.228 79.7067 231.209 79.212H231.181C230.929 79.66 230.565 80.01 230.089 80.262C229.613 80.514 229.077 80.64 228.479 80.64C227.807 80.64 227.271 80.4533 226.869 80.08C226.468 79.6973 226.267 79.184 226.267 78.54C226.267 77.728 226.622 77.084 227.331 76.608C228.041 76.1227 229.049 75.88 230.355 75.88H231.097V75.81C231.097 75.1007 230.962 74.6107 230.691 74.34C230.43 74.06 229.959 73.92 229.277 73.92C228.4 73.92 227.583 74.1347 226.827 74.564L226.645 73.738C227.448 73.2993 228.325 73.08 229.277 73.08ZM227.275 78.498C227.275 78.918 227.406 79.2493 227.667 79.492C227.929 79.7253 228.279 79.842 228.717 79.842C229.361 79.842 229.917 79.6133 230.383 79.156C230.859 78.6893 231.097 78.12 231.097 77.448V76.664H230.355C229.375 76.664 228.615 76.832 228.073 77.168C227.541 77.4947 227.275 77.938 227.275 78.498ZM236.559 73.08C237.445 73.08 238.267 73.2667 239.023 73.64L238.799 74.466C238.08 74.102 237.333 73.92 236.559 73.92C236.017 73.92 235.602 74.018 235.313 74.214C235.033 74.41 234.893 74.6853 234.893 75.04C234.893 75.376 235.014 75.642 235.257 75.838C235.509 76.034 235.961 76.188 236.615 76.3C237.567 76.4587 238.248 76.72 238.659 77.084C239.079 77.448 239.289 77.9473 239.289 78.582C239.289 79.2167 239.046 79.7207 238.561 80.094C238.085 80.458 237.417 80.64 236.559 80.64C235.56 80.64 234.664 80.4067 233.871 79.94L234.109 79.114C234.874 79.5713 235.691 79.8 236.559 79.8C237.1 79.8 237.515 79.6973 237.805 79.492C238.094 79.2773 238.239 78.974 238.239 78.582C238.239 78.2087 238.108 77.9193 237.847 77.714C237.595 77.5087 237.147 77.35 236.503 77.238C235.579 77.0793 234.907 76.8273 234.487 76.482C234.076 76.1273 233.871 75.6467 233.871 75.04C233.871 74.4427 234.104 73.9667 234.571 73.612C235.047 73.2573 235.709 73.08 236.559 73.08ZM241.656 71.54V70H242.734V71.54H241.656ZM241.656 80.5V73.22H242.734V80.5H241.656ZM246.551 74.69C246.168 75.194 245.977 75.9173 245.977 76.86C245.977 77.8027 246.173 78.5307 246.565 79.044C246.957 79.548 247.484 79.8 248.147 79.8C248.782 79.8 249.295 79.5527 249.687 79.058C250.088 78.5633 250.289 77.8633 250.289 76.958V76.762C250.289 75.8753 250.088 75.18 249.687 74.676C249.295 74.172 248.782 73.92 248.147 73.92C247.466 73.92 246.934 74.1767 246.551 74.69ZM244.969 76.86C244.969 75.6373 245.23 74.704 245.753 74.06C246.276 73.4067 246.994 73.08 247.909 73.08C248.964 73.08 249.748 73.5233 250.261 74.41H250.289V70H251.311V80.5H250.331L250.317 79.268H250.289C249.776 80.1827 248.982 80.64 247.909 80.64C247.013 80.64 246.299 80.3133 245.767 79.66C245.235 78.9973 244.969 78.064 244.969 76.86Z" fill="black"/>
<path d="M87.7512 56.28H94.3312V57.218C92.7165 59.8687 91.3678 62.9627 90.2852 66.5H89.1092C90.1825 63.1213 91.5638 60.0367 93.2532 57.246V57.218H87.7512V56.28Z" fill="black"/>
<path d="M51.5336 71.05C50.8896 71.05 50.3903 71.1947 50.0356 71.484C49.681 71.764 49.5036 72.156 49.5036 72.66C49.5036 73.5653 50.1663 74.2187 51.4916 74.62C52.649 74.956 53.4703 75.376 53.9556 75.88C54.4503 76.384 54.6976 77.0373 54.6976 77.84C54.6976 78.7453 54.413 79.4407 53.8436 79.926C53.2836 80.402 52.481 80.64 51.4356 80.64C50.2783 80.64 49.2516 80.346 48.3556 79.758L48.6916 78.834C49.5036 79.4127 50.4183 79.702 51.4356 79.702C52.1263 79.702 52.6536 79.5433 53.0176 79.226C53.391 78.9087 53.5776 78.4467 53.5776 77.84C53.5776 77.28 53.419 76.8367 53.1016 76.51C52.7936 76.174 52.2476 75.8847 51.4636 75.642C49.4196 75.0353 48.3976 74.0413 48.3976 72.66C48.3976 71.8947 48.673 71.2833 49.2236 70.826C49.7836 70.3687 50.5536 70.14 51.5336 70.14C52.5883 70.14 53.5683 70.3593 54.4736 70.798L54.1936 71.666C53.3816 71.2553 52.495 71.05 51.5336 71.05ZM62.569 71.218H57.851V74.69H62.289V75.586H57.851V80.5H56.731V70.28H62.569V71.218ZM65.8491 71.218V74.55H70.4271V75.446H65.8491V79.562H70.7071V80.5H64.7291V70.28H70.7071V71.218H65.8491ZM72.9322 80.5V70.28H74.0942L79.4142 78.68H79.4422V70.28H80.5342V80.5H79.3862L74.0662 72.1H74.0382V80.5H72.9322ZM87.4627 71.078C86.2307 71.078 85.246 71.47 84.5087 72.254C83.7807 73.0287 83.4167 74.074 83.4167 75.39C83.4167 76.706 83.79 77.756 84.5367 78.54C85.2927 79.3147 86.268 79.702 87.4627 79.702C88.4333 79.702 89.334 79.436 90.1647 78.904L90.5427 79.744C89.628 80.3413 88.5687 80.64 87.3647 80.64C85.8247 80.64 84.5927 80.164 83.6687 79.212C82.7447 78.26 82.2827 76.986 82.2827 75.39C82.2827 73.7753 82.74 72.4967 83.6547 71.554C84.5693 70.6113 85.806 70.14 87.3647 70.14C88.5687 70.14 89.628 70.4387 90.5427 71.036L90.1647 71.876C89.3433 71.344 88.4427 71.078 87.4627 71.078ZM93.767 71.218V74.55H98.345V75.446H93.767V79.562H98.625V80.5H92.647V70.28H98.625V71.218H93.767ZM100.99 80.5V78.54H102.292V80.5H100.99ZM103.774 70.28L106.938 79.394H106.966L110.13 70.28H111.292L107.568 80.5H106.308L102.57 70.28H103.774ZM112.977 80.5V70.28H114.111L117.751 76.44H117.779L121.419 70.28H122.595V80.5H121.475V72.156H121.447L118.283 77.462H117.247L114.083 72.156H114.055V80.5H112.977ZM124.267 80.5L128.005 70.28H129.265L132.989 80.5H131.799L130.763 77.518H126.451L125.429 80.5H124.267ZM126.759 76.622H130.455L128.621 71.288H128.593L126.759 76.622Z" fill="black"/>
</g>
<defs>
<clipPath id="clip0_1_2">
<rect width="800" height="84" fill="white"/>
</clipPath>
</defs>
</svg>
