<?xml version="1.0" encoding="UTF-8" standalone="no"?>
<svg
   version="1.0"
   width="1480"
   height="92"
   viewBox="0 0 1480 92"
   id="svg45"
   xmlns="http://www.w3.org/2000/svg"
   xmlns:svg="http://www.w3.org/2000/svg">
  <defs
     id="defs45" />
  <text
     fill="#1c1e21"
     font-size="18px"
     x="120"
     y="11"
     font-family="'M PLUS 1p', MPLUS1p-Regular, monospace"
     dominant-baseline="middle"
     text-anchor="middle"
     id="text1" />
  <path
     d="M 121.309,15.68 V 2.5399998 h 1.458 L 127.447,10.46 h 0.036 l 4.68,-7.9200002 h 1.512 V 15.68 h -1.44 V 4.9519998 h -0.036 L 128.131,11.774 h -1.332 l -4.068,-6.8220002 h -0.036 V 15.68 Z m 16.47001,-13.1400002 3.276,5.472 h 0.036 l 3.294,-5.472 h 1.62 l -4.032,6.48 4.122,6.6600002 h -1.692 l -3.348,-5.652 h -0.036 l -3.366,5.652 h -1.638 l 4.122,-6.6600002 -4.032,-6.48 z m 12.14999,0 V 14.456 h 6.426 v 1.224 h -7.92 V 2.5399998 Z m 10.47598,1.206 v 4.284 h 5.886 v 1.152 h -5.886 V 14.474 h 6.246 v 1.206 h -7.686 V 2.5399998 h 7.686 v 1.206 z M 169.53098,15.68 V 2.5399998 h 1.494 l 6.84,10.8000002 h 0.036 V 2.5399998 h 1.404 V 15.68 h -1.476 l -6.84,-10.8000002 h -0.036 V 15.68 Z m 12.74399,-4.644 V 9.8839998 h 5.346 V 11.036 Z m 12.38401,4.644 V 4.2679998 h -0.036 l -3.546,3.276 -0.558,-1.17 4.14,-3.834 h 1.44 V 15.68 Z"
     id="text2"
     style="font-size:18px;font-family:'M PLUS 1p', MPLUS1p-Regular, monospace;dominant-baseline:middle;text-anchor:middle;fill:#1c1e21"
     aria-label="MXLEN-1" />
  <text
     fill="#1c1e21"
     font-size="18px"
     x="200"
     y="11"
     font-family="'M PLUS 1p', MPLUS1p-Regular, monospace"
     dominant-baseline="middle"
     text-anchor="middle"
     id="text3" />
  <text
     fill="#1c1e21"
     font-size="18px"
     x="240"
     y="11"
     font-family="'M PLUS 1p', MPLUS1p-Regular, monospace"
     dominant-baseline="middle"
     text-anchor="middle"
     id="text4" />
  <text
     fill="#1c1e21"
     font-size="18px"
     x="280"
     y="11"
     font-family="'M PLUS 1p', MPLUS1p-Regular, monospace"
     dominant-baseline="middle"
     text-anchor="middle"
     id="text5" />
  <text
     fill="#1c1e21"
     font-size="18px"
     x="320"
     y="11"
     font-family="'M PLUS 1p', MPLUS1p-Regular, monospace"
     dominant-baseline="middle"
     text-anchor="middle"
     id="text6" />
  <text
     fill="#1c1e21"
     font-size="18px"
     x="360"
     y="11"
     font-family="'M PLUS 1p', MPLUS1p-Regular, monospace"
     dominant-baseline="middle"
     text-anchor="middle"
     id="text7" />
  <text
     fill="#1c1e21"
     font-size="18px"
     x="400"
     y="11"
     font-family="'M PLUS 1p', MPLUS1p-Regular, monospace"
     dominant-baseline="middle"
     text-anchor="middle"
     id="text8" />
  <text
     fill="#1c1e21"
     font-size="18px"
     x="440"
     y="11"
     font-family="'M PLUS 1p', MPLUS1p-Regular, monospace"
     dominant-baseline="middle"
     text-anchor="middle"
     id="text9" />
  <text
     fill="#1c1e21"
     font-size="18px"
     x="480"
     y="11"
     font-family="'M PLUS 1p', MPLUS1p-Regular, monospace"
     dominant-baseline="middle"
     text-anchor="middle"
     id="text10" />
  <text
     fill="#1c1e21"
     font-size="18px"
     x="520"
     y="11"
     font-family="'M PLUS 1p', MPLUS1p-Regular, monospace"
     dominant-baseline="middle"
     text-anchor="middle"
     id="text11" />
  <text
     fill="#1c1e21"
     font-size="18px"
     x="560"
     y="11"
     font-family="'M PLUS 1p', MPLUS1p-Regular, monospace"
     dominant-baseline="middle"
     text-anchor="middle"
     id="text12" />
  <text
     fill="#1c1e21"
     font-size="18px"
     x="600"
     y="11"
     font-family="'M PLUS 1p', MPLUS1p-Regular, monospace"
     dominant-baseline="middle"
     text-anchor="middle"
     id="text13" />
  <text
     fill="#1c1e21"
     font-size="18px"
     x="640"
     y="11"
     font-family="'M PLUS 1p', MPLUS1p-Regular, monospace"
     dominant-baseline="middle"
     text-anchor="middle"
     id="text14" />
  <text
     fill="#1c1e21"
     font-size="18px"
     x="680"
     y="11"
     font-family="'M PLUS 1p', MPLUS1p-Regular, monospace"
     dominant-baseline="middle"
     text-anchor="middle"
     id="text15" />
  <text
     fill="#1c1e21"
     font-size="18px"
     x="720"
     y="11"
     font-family="'M PLUS 1p', MPLUS1p-Regular, monospace"
     dominant-baseline="middle"
     text-anchor="middle"
     id="text16" />
  <text
     fill="#1c1e21"
     font-size="18px"
     x="760"
     y="11"
     font-family="'M PLUS 1p', MPLUS1p-Regular, monospace"
     dominant-baseline="middle"
     text-anchor="middle"
     id="text17" />
  <text
     fill="#1c1e21"
     font-size="18px"
     x="800"
     y="11"
     font-family="'M PLUS 1p', MPLUS1p-Regular, monospace"
     dominant-baseline="middle"
     text-anchor="middle"
     id="text18" />
  <text
     fill="#1c1e21"
     font-size="18px"
     x="840"
     y="11"
     font-family="'M PLUS 1p', MPLUS1p-Regular, monospace"
     dominant-baseline="middle"
     text-anchor="middle"
     id="text19" />
  <text
     fill="#1c1e21"
     font-size="18px"
     x="880"
     y="11"
     font-family="'M PLUS 1p', MPLUS1p-Regular, monospace"
     dominant-baseline="middle"
     text-anchor="middle"
     id="text20" />
  <text
     fill="#1c1e21"
     font-size="18px"
     x="920"
     y="11"
     font-family="'M PLUS 1p', MPLUS1p-Regular, monospace"
     dominant-baseline="middle"
     text-anchor="middle"
     id="text21" />
  <text
     fill="#1c1e21"
     font-size="18px"
     x="960"
     y="11"
     font-family="'M PLUS 1p', MPLUS1p-Regular, monospace"
     dominant-baseline="middle"
     text-anchor="middle"
     id="text22" />
  <text
     fill="#1c1e21"
     font-size="18px"
     x="1000"
     y="11"
     font-family="'M PLUS 1p', MPLUS1p-Regular, monospace"
     dominant-baseline="middle"
     text-anchor="middle"
     id="text23" />
  <path
     d="m 1039.73,3.5839998 q -1.782,0 -3.564,1.242 l -0.432,-1.152 q 1.836,-1.314 4.176,-1.314 1.926,0 2.988,0.99 1.062,0.972 1.062,2.736 0,1.764 -1.278,3.564 Q 1041.404,11.45 1037.894,14.438 v 0.036 h 6.12 v 1.206 h -8.1 v -1.206 q 3.834,-3.168 5.184,-4.9320002 1.368,-1.782 1.368,-3.348 0,-1.278 -0.702,-1.944 -0.684,-0.666 -2.034,-0.666 z"
     id="text24"
     style="font-size:18px;font-family:'M PLUS 1p', MPLUS1p-Regular, monospace;dominant-baseline:middle;text-anchor:middle;fill:#1c1e21"
     aria-label="2" />
  <path
     d="M 1080.018,15.68 V 4.2679998 h -0.036 l -3.546,3.276 -0.558,-1.17 4.14,-3.834 h 1.44 V 15.68 Z"
     id="text25"
     style="font-size:18px;font-family:'M PLUS 1p', MPLUS1p-Regular, monospace;dominant-baseline:middle;text-anchor:middle;fill:#1c1e21"
     aria-label="1" />
  <text
     fill="#1c1e21"
     font-size="18px"
     x="1120"
     y="11"
     font-family="'M PLUS 1p', MPLUS1p-Regular, monospace"
     dominant-baseline="middle"
     text-anchor="middle"
     id="text26" />
  <text
     fill="#1c1e21"
     font-size="18px"
     x="1160"
     y="11"
     font-family="'M PLUS 1p', MPLUS1p-Regular, monospace"
     dominant-baseline="middle"
     text-anchor="middle"
     id="text27" />
  <text
     fill="#1c1e21"
     font-size="18px"
     x="1200"
     y="11"
     font-family="'M PLUS 1p', MPLUS1p-Regular, monospace"
     dominant-baseline="middle"
     text-anchor="middle"
     id="text28" />
  <text
     fill="#1c1e21"
     font-size="18px"
     x="1240"
     y="11"
     font-family="'M PLUS 1p', MPLUS1p-Regular, monospace"
     dominant-baseline="middle"
     text-anchor="middle"
     id="text29" />
  <text
     fill="#1c1e21"
     font-size="18px"
     x="1280"
     y="11"
     font-family="'M PLUS 1p', MPLUS1p-Regular, monospace"
     dominant-baseline="middle"
     text-anchor="middle"
     id="text30" />
  <text
     fill="#1c1e21"
     font-size="18px"
     x="1320"
     y="11"
     font-family="'M PLUS 1p', MPLUS1p-Regular, monospace"
     dominant-baseline="middle"
     text-anchor="middle"
     id="text31" />
  <path
     d="m 1359.982,2.3599998 q 4.752,0 4.752,6.75 0,6.7500002 -4.752,6.7500002 -2.25,0 -3.492,-1.566 -1.242,-1.566 -1.242,-5.1840002 0,-3.618 1.242,-5.184 1.242,-1.566 3.492,-1.566 z M 1357.498,13.376 q 0.828,1.314 2.484,1.314 1.656,0 2.484,-1.314 0.828,-1.332 0.828,-4.2660002 0,-2.934 -0.828,-4.248 -0.828,-1.332 -2.484,-1.332 -1.656,0 -2.484,1.332 -0.81,1.314 -0.81,4.248 0,2.9340002 0.81,4.2660002 z"
     id="text32"
     style="font-size:18px;font-family:'M PLUS 1p', MPLUS1p-Regular, monospace;dominant-baseline:middle;text-anchor:middle;fill:#1c1e21"
     aria-label="0" />
  <line
     x1="100"
     y1="21"
     x2="580"
     y2="21"
     stroke="#1C1E21"
     stroke-width="1"
     id="line32" />
  <line
     x1="100"
     y1="56"
     x2="580"
     y2="56"
     stroke="#1C1E21"
     stroke-width="1"
     id="line33" />
  <line
     x1="100"
     y1="21"
     x2="100"
     y2="56"
     stroke="#1C1E21"
     stroke-width="1"
     id="line34" />
  <path
     d="m 422.17199,32.03 q -0.936,0 -1.746,0.162 v 4.338 h 1.206 q 3.924,0 3.924,-2.304 0,-1.116 -0.81,-1.656 -0.81,-0.54 -2.574,-0.54 z m 5.328,8.37 q 0,3.96 -5.148,3.96 -1.692,0 -3.366,-0.288 V 31.148 q 1.584,-0.288 3.186,-0.288 4.734,0 4.734,3.186 0,1.116 -0.72,1.908 -0.72,0.792 -1.98,1.062 v 0.036 q 1.584,0.234 2.43,1.116 0.864,0.882 0.864,2.232 z m -1.404,-0.126 q 0,-1.332 -1.062,-1.962 -1.044,-0.63 -3.402,-0.63 h -1.206 v 5.346 q 0.882,0.162 1.926,0.162 3.744,0 3.744,-2.916 z m 2.66401,3.906 4.806,-13.14 h 1.62 l 4.788,13.14 h -1.53 l -1.332,-3.834 h -5.544 l -1.314,3.834 z m 3.204,-4.986 h 4.752 l -2.358,-6.858 h -0.036 z M 445.23,32.03 q -1.242,0 -1.926,0.558 -0.684,0.54 -0.684,1.512 0,1.746 2.556,2.52 2.232,0.648 3.168,1.62 0.954,0.972 0.954,2.52 0,1.746 -1.098,2.682 -1.08,0.918 -3.096,0.918 -2.232,0 -3.96,-1.134 l 0.432,-1.188 q 1.566,1.116 3.528,1.116 1.332,0 2.034,-0.612 0.72,-0.612 0.72,-1.782 0,-1.08 -0.612,-1.71 -0.594,-0.648 -2.106,-1.116 -3.942,-1.17 -3.942,-3.834 0,-1.476 1.062,-2.358 1.08,-0.882 2.97,-0.882 2.034,0 3.78,0.846 l -0.36,1.116 q -1.566,-0.792 -3.42,-0.792 z m 8.118,0.216 v 4.284 h 5.886 v 1.152 h -5.886 v 5.292 h 6.246 v 1.206 h -7.686 V 31.04 h 7.686 v 1.206 z m 10.98,-0.846 v 14.22 h 3.546 v 1.08 h -4.86 V 30.32 h 4.86 v 1.08 z m 6.60598,12.78 V 31.04 h 1.458 l 4.68,7.92 h 0.036 l 4.68,-7.92 h 1.512 v 13.14 h -1.44 V 33.452 h -0.036 l -4.068,6.822 h -1.332 l -4.068,-6.822 h -0.036 V 44.18 Z m 16.47001,-13.14 3.276,5.472 h 0.036 l 3.294,-5.472 h 1.62 l -4.032,6.48 4.122,6.66 h -1.692 l -3.348,-5.652 h -0.036 l -3.366,5.652 h -1.638 l 4.122,-6.66 -4.032,-6.48 z m 12.14999,0 v 11.916 h 6.426 v 1.224 h -7.92 V 31.04 Z m 10.47598,1.206 v 4.284 h 5.886 v 1.152 h -5.886 v 5.292 h 6.246 v 1.206 h -7.686 V 31.04 h 7.686 v 1.206 z m 9.12601,11.934 V 31.04 h 1.494 l 6.84,10.8 h 0.036 v -10.8 h 1.404 v 13.14 h -1.476 l -6.84,-10.8 h -0.036 v 10.8 z m 12.74399,-4.644 v -1.152 h 5.346 v 1.152 z m 12.38401,4.644 V 32.768 h -0.036 l -3.546,3.276 -0.558,-1.17 4.14,-3.834 h 1.44 v 13.14 z m 7.992,-6.966 v -2.52 h 1.674 v 2.52 z m 0,6.966 v -2.52 h 1.674 v 2.52 z M 561.69,32.084 q -1.782,0 -3.564,1.242 l -0.432,-1.152 q 1.836,-1.314 4.176,-1.314 1.926,0 2.988,0.99 1.062,0.972 1.062,2.736 0,1.764 -1.278,3.564 -1.278,1.8 -4.788,4.788 v 0.036 h 6.12 v 1.206 h -8.1 v -1.206 q 3.834,-3.168 5.184,-4.932 1.368,-1.782 1.368,-3.348 0,-1.278 -0.702,-1.944 -0.684,-0.666 -2.034,-0.666 z M 572.616,31.4 h -3.546 v -1.08 h 4.86 V 46.7 h -4.86 v -1.08 h 3.546 z"
     id="text34"
     style="font-size:18px;font-family:'M PLUS 1p', MPLUS1p-Regular, monospace;dominant-baseline:middle;text-anchor:end;fill:#1c1e21"
     aria-label="BASE[MXLEN-1:2]" />
  <line
     x1="580"
     y1="21"
     x2="1060"
     y2="21"
     stroke="#1C1E21"
     stroke-width="1"
     id="line35" />
  <line
     x1="580"
     y1="56"
     x2="1060"
     y2="56"
     stroke="#1C1E21"
     stroke-width="1"
     id="line36" />
  <line
     x1="1060"
     y1="21"
     x2="1060"
     y2="56"
     stroke="#1C1E21"
     stroke-width="1"
     id="line37" />
  <path
     d="m 589.54883,45.204102 h -2.20899 q -1.125,-1.31836 -1.66992,-2.712891 -0.53906,-1.394531 -0.53906,-3.052734 0,-1.658204 0.53906,-3.052735 0.54492,-1.394531 1.66992,-2.71289 h 2.20899 v 0.169921 q -0.47461,0.427735 -0.90821,0.972657 -0.42773,0.539062 -0.79687,1.265625 -0.35156,0.697265 -0.57422,1.546875 -0.2168,0.849609 -0.2168,1.810547 0,1.001953 0.21094,1.816406 0.2168,0.814453 0.58008,1.541015 0.35156,0.691407 0.79102,1.253907 0.44531,0.568359 0.91406,0.984375 z m 14.12695,-11.138672 -2.34961,8.724609 h -2.49023 l -1.56446,-5.683594 -1.52343,5.683594 h -2.49024 L 590.9082,34.06543 h 2.34961 l 1.3418,6.005859 1.60547,-6.005859 h 2.24414 l 1.5293,6.005859 1.40625,-6.005859 z m 9.5625,8.724609 h -2.32617 l -0.60352,-1.763672 h -3.23437 l -0.60352,1.763672 h -2.26758 l 3.22266,-8.724609 h 2.58984 z m -3.47461,-3.363281 -1.07226,-3.128906 -1.07227,3.128906 z m 9.6211,-2.689453 q 0,-0.328125 -0.13477,-0.5625 -0.13477,-0.234375 -0.46289,-0.369141 -0.22852,-0.09375 -0.5332,-0.111328 -0.30469,-0.02344 -0.70899,-0.02344 h -0.81445 v 2.34961 h 0.6914 q 0.53907,0 0.90235,-0.05273 0.36328,-0.05273 0.60937,-0.240234 0.23438,-0.181641 0.33985,-0.398437 0.11133,-0.222657 0.11133,-0.591797 z m 3.50976,6.052734 h -2.74805 l -2.3789,-3.199219 h -1.03711 v 3.199219 h -2.23828 V 34.06543 h 3.77343 q 0.77344,0 1.33008,0.08789 0.55664,0.08789 1.04297,0.38086 0.49219,0.292968 0.7793,0.761718 0.29297,0.462891 0.29297,1.166016 0,0.966797 -0.45117,1.576172 -0.44532,0.609375 -1.27735,1.013672 z m 7.27734,0 h -6.29296 V 34.06543 h 2.25 v 7.037109 h 4.04296 z m 5.63086,-3.351562 q 0,1.658203 -0.54492,3.052734 -0.53906,1.394531 -1.66406,2.712891 h -2.20898 V 45.03418 q 0.46875,-0.416016 0.91406,-0.978516 0.44531,-0.5625 0.79101,-1.259766 0.36328,-0.726562 0.57422,-1.541015 0.2168,-0.814453 0.2168,-1.816406 0,-0.960938 -0.22266,-1.810547 -0.21679,-0.84961 -0.56836,-1.546875 -0.36914,-0.726563 -0.80273,-1.265625 -0.42774,-0.544922 -0.90234,-0.972657 v -0.169921 h 2.20898 q 1.125,1.318359 1.66406,2.71289 0.54492,1.394531 0.54492,3.052735 z"
     id="text37"
     style="font-weight:bold;dominant-baseline:middle;fill:#1c1e21"
     aria-label="(WARL)" />
  <line
     x1="1060"
     y1="21"
     x2="1220"
     y2="21"
     stroke="#1C1E21"
     stroke-width="1"
     id="line38" />
  <line
     x1="1060"
     y1="56"
     x2="1220"
     y2="56"
     stroke="#1C1E21"
     stroke-width="1"
     id="line39" />
  <line
     x1="1060"
     y1="21"
     x2="1060"
     y2="56"
     stroke="#1C1E21"
     stroke-width="1"
     id="line40" />
  <path
     d="M 1164.988,44.18 V 31.04 h 1.458 l 4.68,7.92 h 0.036 l 4.68,-7.92 h 1.512 v 13.14 h -1.44 V 33.452 h -0.036 l -4.068,6.822 h -1.332 l -4.068,-6.822 h -0.036 V 44.18 Z m 25.686,-1.656 q -1.746,1.836 -4.644,1.836 -2.898,0 -4.662,-1.836 -1.764,-1.854 -1.764,-4.914 0,-3.06 1.764,-4.896 1.764,-1.854 4.662,-1.854 2.898,0 4.644,1.854 1.764,1.836 1.764,4.896 0,3.06 -1.764,4.914 z m -4.644,0.63 q 2.232,0 3.582,-1.494 1.368,-1.512 1.368,-4.05 0,-2.538 -1.368,-4.032 -1.35,-1.512 -3.582,-1.512 -2.25,0 -3.618,1.512 -1.35,1.494 -1.35,4.032 0,2.538 1.35,4.05 1.368,1.494 3.618,1.494 z m 11.844,-11.088 q -0.936,0 -1.746,0.162 v 10.764 q 0.81,0.162 1.746,0.162 5.454,0 5.454,-5.724 0,-2.664 -1.386,-4.014 -1.386,-1.35 -4.068,-1.35 z m 6.84,5.364 q 0,3.402 -1.764,5.166 -1.764,1.764 -5.076,1.764 -1.602,0 -3.186,-0.288 V 31.148 q 1.62,-0.288 3.186,-0.288 3.294,0 5.058,1.71 1.782,1.692 1.782,4.86 z m 3.69,-5.184 v 4.284 h 5.886 v 1.152 h -5.886 v 5.292 h 6.246 v 1.206 h -7.686 V 31.04 h 7.686 v 1.206 z"
     id="text40"
     style="font-size:18px;font-family:'M PLUS 1p', MPLUS1p-Regular, monospace;dominant-baseline:middle;text-anchor:end;fill:#1c1e21"
     aria-label="MODE" />
  <line
     x1="1220"
     y1="21"
     x2="1380"
     y2="21"
     stroke="#1C1E21"
     stroke-width="1"
     id="line41" />
  <line
     x1="1220"
     y1="56"
     x2="1380"
     y2="56"
     stroke="#1C1E21"
     stroke-width="1"
     id="line42" />
  <line
     x1="1380"
     y1="21"
     x2="1380"
     y2="56"
     stroke="#1C1E21"
     stroke-width="1"
     id="line43" />
  <path
     d="m 1229.5488,45.204102 h -2.209 q -1.125,-1.31836 -1.6699,-2.712891 -0.539,-1.394531 -0.539,-3.052734 0,-1.658204 0.539,-3.052735 0.5449,-1.394531 1.6699,-2.71289 h 2.209 v 0.169921 q -0.4746,0.427735 -0.9082,0.972657 -0.4277,0.539062 -0.7968,1.265625 -0.3516,0.697265 -0.5743,1.546875 -0.2168,0.849609 -0.2168,1.810547 0,1.001953 0.211,1.816406 0.2168,0.814453 0.5801,1.541015 0.3515,0.691407 0.791,1.253907 0.4453,0.568359 0.914,0.984375 z m 14.127,-11.138672 -2.3496,8.724609 h -2.4903 l -1.5644,-5.683594 -1.5235,5.683594 h -2.4902 l -2.3496,-8.724609 h 2.3496 l 1.3418,6.005859 1.6055,-6.005859 h 2.2441 l 1.5293,6.005859 1.4063,-6.005859 z m 9.5625,8.724609 h -2.3262 l -0.6035,-1.763672 h -3.2344 l -0.6035,1.763672 h -2.2676 l 3.2227,-8.724609 h 2.5898 z m -3.4746,-3.363281 -1.0723,-3.128906 -1.0723,3.128906 z m 9.6211,-2.689453 q 0,-0.328125 -0.1348,-0.5625 -0.1348,-0.234375 -0.4629,-0.369141 -0.2285,-0.09375 -0.5332,-0.111328 -0.3047,-0.02344 -0.709,-0.02344 h -0.8144 v 2.34961 h 0.6914 q 0.539,0 0.9023,-0.05273 0.3633,-0.05273 0.6094,-0.240234 0.2344,-0.181641 0.3398,-0.398437 0.1114,-0.222657 0.1114,-0.591797 z m 3.5097,6.052734 h -2.748 l -2.3789,-3.199219 h -1.0371 v 3.199219 h -2.2383 V 34.06543 h 3.7734 q 0.7735,0 1.3301,0.08789 0.5566,0.08789 1.043,0.38086 0.4922,0.292968 0.7793,0.761718 0.2929,0.462891 0.2929,1.166016 0,0.966797 -0.4511,1.576172 -0.4453,0.609375 -1.2774,1.013672 z m 7.2774,0 h -6.293 V 34.06543 h 2.25 v 7.037109 h 4.043 z m 5.6308,-3.351562 q 0,1.658203 -0.5449,3.052734 -0.539,1.394531 -1.664,2.712891 h -2.209 V 45.03418 q 0.4687,-0.416016 0.914,-0.978516 0.4453,-0.5625 0.791,-1.259766 0.3633,-0.726562 0.5743,-1.541015 0.2168,-0.814453 0.2168,-1.816406 0,-0.960938 -0.2227,-1.810547 -0.2168,-0.84961 -0.5684,-1.546875 -0.3691,-0.726563 -0.8027,-1.265625 -0.4277,-0.544922 -0.9023,-0.972657 v -0.169921 h 2.209 q 1.125,1.318359 1.664,2.71289 0.5449,1.394531 0.5449,3.052735 z"
     id="text43"
     style="font-weight:bold;dominant-baseline:middle;fill:#1c1e21"
     aria-label="(WARL)" />
  <path
     d="M 541.309,79.18 V 66.04 h 1.458 l 4.68,7.92 h 0.036 l 4.68,-7.92 h 1.512 v 13.14 h -1.44 V 68.452 h -0.036 l -4.068,6.822 h -1.332 l -4.068,-6.822 h -0.036 V 79.18 Z m 16.47001,-13.14 3.276,5.472 h 0.036 l 3.294,-5.472 h 1.62 l -4.032,6.48 4.122,6.66 h -1.692 l -3.348,-5.652 h -0.036 l -3.366,5.652 h -1.638 l 4.122,-6.66 -4.032,-6.48 z m 12.14999,0 v 11.916 h 6.426 v 1.224 h -7.92 V 66.04 Z m 10.47598,1.206 v 4.284 h 5.886 v 1.152 h -5.886 v 5.292 h 6.246 v 1.206 h -7.686 V 66.04 h 7.686 v 1.206 z m 9.126,11.934 V 66.04 h 1.494 l 6.84,10.8 h 0.036 v -10.8 h 1.404 v 13.14 h -1.476 l -6.84,-10.8 h -0.036 v 10.8 z m 12.74399,-4.644 v -1.152 h 5.346 v 1.152 z m 12.09601,-7.452 q -1.782,0 -3.564,1.242 l -0.432,-1.152 q 1.836,-1.314 4.176,-1.314 1.926,0 2.988,0.99 1.062,0.972 1.062,2.736 0,1.764 -1.278,3.564 -1.278,1.8 -4.788,4.788 v 0.036 h 6.12 v 1.206 h -8.1 v -1.206 q 3.834,-3.168 5.184,-4.932 1.368,-1.782 1.368,-3.348 0,-1.278 -0.702,-1.944 -0.684,-0.666 -2.034,-0.666 z"
     id="text44"
     style="font-size:18px;font-family:'M PLUS 1p', MPLUS1p-Regular, monospace;dominant-baseline:middle;text-anchor:middle;fill:#1c1e21"
     aria-label="MXLEN-2" />
  <path
     d="m 1219.73,67.084 q -1.782,0 -3.564,1.242 l -0.432,-1.152 q 1.836,-1.314 4.176,-1.314 1.926,0 2.988,0.99 1.062,0.972 1.062,2.736 0,1.764 -1.278,3.564 -1.278,1.8 -4.788,4.788 v 0.036 h 6.12 v 1.206 h -8.1 v -1.206 q 3.834,-3.168 5.184,-4.932 1.368,-1.782 1.368,-3.348 0,-1.278 -0.702,-1.944 -0.684,-0.666 -2.034,-0.666 z"
     id="text45"
     style="font-size:18px;font-family:'M PLUS 1p', MPLUS1p-Regular, monospace;dominant-baseline:middle;text-anchor:middle;fill:#1c1e21"
     aria-label="2" />
</svg>
