<svg xmlns="http://www.w3.org/2000/svg" width="800" height="98" class="WaveDrom"><g fill="#1C1E21" font-family="'M PLUS 1p','MPLUS1p-Regular',monospace" font-size="14" text-anchor="middle"><g stroke="#1C1E21" stroke-linecap="round"><path d="M4.5 21.5h791M4.5 21.5v31M4.5 52.5h791M795.5 21.5v31M770.5 21.5v3M770.5 52.5v-3M746.5 21.5v3M746.5 52.5v-3M721.5 21.5v3M721.5 52.5v-3M696.5 21.5v3M696.5 52.5v-3M671.5 21.5v3M671.5 52.5v-3M647.5 21.5v3M647.5 52.5v-3M622.5 21.5v31M597.5 21.5v3M597.5 52.5v-3M573.5 21.5v3M573.5 52.5v-3M548.5 21.5v3M548.5 52.5v-3M523.5 21.5v3M523.5 52.5v-3M498.5 21.5v31M474.5 21.5v3M474.5 52.5v-3M449.5 21.5v3M449.5 52.5v-3M424.5 21.5v31M400.5 21.5v3M400.5 52.5v-3M375.5 21.5v3M375.5 52.5v-3M350.5 21.5v3M350.5 52.5v-3M325.5 21.5v3M325.5 52.5v-3M301.5 21.5v31M276.5 21.5v3M276.5 52.5v-3M251.5 21.5v3M251.5 52.5v-3M226.5 21.5v3M226.5 52.5v-3M202.5 21.5v3M202.5 52.5v-3M177.5 21.5v31M152.5 21.5v31M128.5 21.5v31M103.5 21.5v3M103.5 52.5v-3M78.5 21.5v3M78.5 52.5v-3M53.5 21.5v3M53.5 52.5v-3M29.5 21.5v3M29.5 52.5v-3"/></g><path d="M-.014-4.36q3.696 0 3.696 5.25T-.014 6.14q-1.75 0-2.716-1.218T-3.696.89t.966-4.032T-.014-4.36m-1.932 8.568Q-1.302 5.23-.014 5.23t1.932-1.022q.644-1.036.644-3.318t-.644-3.304Q1.274-3.45-.014-3.45t-1.932 1.036q-.63 1.022-.63 3.304t.63 3.318" aria-label="0" style="font-size:14px" transform="translate(782.5 10.5)"/><path d="M.042.008q-1.078 0-1.778.7t-.7 1.792q0 1.302.658 2.002t1.82.7q1.19 0 1.848-.7T2.548 2.5q0-1.148-.686-1.82Q1.19.008.042.008m0 6.132q-1.694 0-2.66-1.022-.952-1.022-.952-2.94 0-2.842 1.372-4.578Q-.812-4.136 1.61-4.36l.196.938q-3.22.364-4.088 3.626l.014.014Q-1.302-.86.28-.86q1.554 0 2.464.91.924.896.924 2.45 0 1.666-.994 2.66-.994.98-2.632.98" aria-label="6" style="font-size:14px" transform="translate(634.5 10.5)"/><path d="M-3.248-4.22h6.58v.938Q.882.736-.728 6H-1.89Q-.266.89 2.24-3.254v-.028h-5.488z" aria-label="7" style="font-size:14px" transform="translate(609.5 10.5)"/><path d="M-4.326 6v-8.876h-.028L-7.112-.328l-.434-.91 3.22-2.982h1.12V6Zm8.68 0v-8.876h-.028L1.568-.328l-.434-.91 3.22-2.982h1.12V6Z" aria-label="11" style="font-size:14px" transform="translate(510.5 10.5)"/><path d="M-4.326 6v-8.876h-.028L-7.112-.328l-.434-.91 3.22-2.982h1.12V6ZM4.13-3.408q-1.386 0-2.772.966l-.336-.896Q2.45-4.36 4.27-4.36q1.498 0 2.324.77.826.756.826 2.128T6.426 1.31 2.702 5.034v.028h4.76V6h-6.3v-.938q2.982-2.464 4.032-3.836Q6.258-.16 6.258-1.378q0-.994-.546-1.512-.532-.518-1.582-.518" aria-label="12" style="font-size:14px" transform="translate(486.5 10.5)"/><path d="M-4.326 6v-8.876h-.028L-7.112-.328l-.434-.91 3.22-2.982h1.12V6ZM5.11 2.71v-5.292h-.028L1.358 2.682v.028Zm1.106 0h1.736v.91H6.216V6H5.11V3.62H.21v-.91l4.9-6.93h1.106z" aria-label="14" style="font-size:14px" transform="translate(436.5 10.5)"/><path d="M-4.326 6v-8.876h-.028L-7.112-.328l-.434-.91 3.22-2.982h1.12V6ZM7.168-3.282H2.744L2.548.022h.028q.826-.49 1.862-.49 1.498 0 2.324.812t.826 2.296q0 1.708-.966 2.604-.952.896-2.8.896-1.428 0-2.632-.672l.28-.924q1.176.658 2.352.658 2.646 0 2.646-2.562 0-1.078-.574-1.638Q5.32.428 4.242.428q-1.106 0-1.834.644h-.98l.308-5.292h5.432z" aria-label="15" style="font-size:14px" transform="translate(412.5 10.5)"/><path d="M-4.326 6v-8.876h-.028L-7.112-.328l-.434-.91 3.22-2.982h1.12V6Zm8.61-10.36q1.708 0 2.66 1.022.966 1.008.966 2.87 0 2.926-1.414 4.648-1.4 1.722-3.906 1.96l-.196-.938q1.708-.182 2.744-1.078 1.036-.91 1.484-2.562l-.028-.014Q5.614 2.64 4.046 2.64q-1.554 0-2.464-.91Q.672.806.672-.79q0-1.624.98-2.59.994-.98 2.632-.98m0 .938q-1.19 0-1.848.686-.644.686-.644 1.946 0 1.204.672 1.89.672.672 1.82.672 1.078 0 1.778-.714t.7-1.848q0-1.246-.658-1.932-.658-.7-1.82-.7" aria-label="19" style="font-size:14px" transform="translate(313.5 10.5)"/><path d="M-4.55-3.408q-1.386 0-2.772.966l-.336-.896Q-6.23-4.36-4.41-4.36q1.498 0 2.324.77.826.756.826 2.128t-.994 2.772-3.724 3.724v.028h4.76V6h-6.3v-.938q2.982-2.464 4.032-3.836Q-2.422-.16-2.422-1.378q0-.994-.546-1.512-.532-.518-1.582-.518m8.876-.952q3.696 0 3.696 5.25T4.326 6.14q-1.75 0-2.716-1.218T.644.89t.966-4.032T4.326-4.36M2.394 4.208Q3.038 5.23 4.326 5.23t1.932-1.022q.644-1.036.644-3.318t-.644-3.304Q5.614-3.45 4.326-3.45T2.394-2.414q-.63 1.022-.63 3.304t.63 3.318" aria-label="20" style="font-size:14px" transform="translate(288.5 10.5)"/><path d="M-4.55-3.408q-1.386 0-2.772.966l-.336-.896Q-6.23-4.36-4.41-4.36q1.498 0 2.324.77.826.756.826 2.128t-.994 2.772-3.724 3.724v.028h4.76V6h-6.3v-.938q2.982-2.464 4.032-3.836Q-2.422-.16-2.422-1.378q0-.994-.546-1.512-.532-.518-1.582-.518M5.11 2.71v-5.292h-.028L1.358 2.682v.028Zm1.106 0h1.736v.91H6.216V6H5.11V3.62H.21v-.91l4.9-6.93h1.106z" aria-label="24" style="font-size:14px" transform="translate(189.5 10.5)"/><path d="M-4.55-3.408q-1.386 0-2.772.966l-.336-.896Q-6.23-4.36-4.41-4.36q1.498 0 2.324.77.826.756.826 2.128t-.994 2.772-3.724 3.724v.028h4.76V6h-6.3v-.938q2.982-2.464 4.032-3.836Q-2.422-.16-2.422-1.378q0-.994-.546-1.512-.532-.518-1.582-.518m11.718.126H2.744L2.548.022h.028q.826-.49 1.862-.49 1.498 0 2.324.812t.826 2.296q0 1.708-.966 2.604-.952.896-2.8.896-1.428 0-2.632-.672l.28-.924q1.176.658 2.352.658 2.646 0 2.646-2.562 0-1.078-.574-1.638Q5.32.428 4.242.428q-1.106 0-1.834.644h-.98l.308-5.292h5.432z" aria-label="25" style="font-size:14px" transform="translate(164.5 10.5)"/><path d="M-4.55-3.408q-1.386 0-2.772.966l-.336-.896Q-6.23-4.36-4.41-4.36q1.498 0 2.324.77.826.756.826 2.128t-.994 2.772-3.724 3.724v.028h4.76V6h-6.3v-.938q2.982-2.464 4.032-3.836Q-2.422-.16-2.422-1.378q0-.994-.546-1.512-.532-.518-1.582-.518M4.382.008q-1.078 0-1.778.7t-.7 1.792q0 1.302.658 2.002t1.82.7q1.19 0 1.848-.7T6.888 2.5q0-1.148-.686-1.82Q5.53.008 4.382.008m0 6.132q-1.694 0-2.66-1.022Q.77 4.096.77 2.178.77-.664 2.142-2.4 3.528-4.136 5.95-4.36l.196.938q-3.22.364-4.088 3.626l.014.014Q3.038-.86 4.62-.86q1.554 0 2.464.91.924.896.924 2.45 0 1.666-.994 2.66-.994.98-2.632.98" aria-label="26" style="font-size:14px" transform="translate(140.5 10.5)"/><path d="M-4.55-3.408q-1.386 0-2.772.966l-.336-.896Q-6.23-4.36-4.41-4.36q1.498 0 2.324.77.826.756.826 2.128t-.994 2.772-3.724 3.724v.028h4.76V6h-6.3v-.938q2.982-2.464 4.032-3.836Q-2.422-.16-2.422-1.378q0-.994-.546-1.512-.532-.518-1.582-.518m5.642-.812h6.58v.938Q5.222.736 3.612 6H2.45Q4.074.89 6.58-3.254v-.028H1.092Z" aria-label="27" style="font-size:14px" transform="translate(115.5 10.5)"/><path d="M-7.49-4.22h6.132v.938l-3.36 3.29v.028h.434q1.484 0 2.268.714.798.714.798 2.072 0 1.596-.952 2.464-.938.854-2.688.854-1.512 0-2.66-.728l.336-.91q1.176.7 2.324.7 1.232 0 1.876-.602t.644-1.778q0-.994-.672-1.47-.658-.49-2.114-.49h-1.022v-.868L-2.8-3.254v-.028h-4.69zM4.354 6v-8.876h-.028L1.568-.328l-.434-.91 3.22-2.982h1.12V6Z" aria-label="31" style="font-size:14px" transform="translate(16.5 10.5)"/><path d="M690.531 36.704q-.63-.784-1.736-.784t-1.75.784q-.63.77-.63 2.156t.63 2.17q.644.77 1.75.77t1.736-.77q.644-.784.644-2.17t-.644-2.156m.756 4.914q-.938 1.022-2.492 1.022t-2.492-1.022-.938-2.758.938-2.758 2.492-1.022 2.492 1.022.938 2.758-.938 2.758m5.95 1.022q-1.582 0-2.352-1.274h-.028v4.214h-1.022V35.22h.98l.014 1.232h.028q.77-1.372 2.38-1.372 1.372 0 2.156.98.784.966.784 2.8 0 1.792-.812 2.786-.798.994-2.128.994m1.932-3.78q0-1.428-.574-2.184-.56-.756-1.582-.756-.966 0-1.568.756-.588.756-.588 2.086v.196q0 1.358.602 2.1t1.554.742q.994 0 1.568-.756.588-.77.588-2.184m6.02-2.926q-1.232 0-1.918.77-.686.756-.686 2.156 0 1.344.714 2.142.728.798 1.89.798.98 0 1.876-.476l.28.826q-1.05.49-2.198.49-1.624 0-2.632-1.022-1.008-1.036-1.008-2.758 0-1.778.966-2.772.966-1.008 2.674-1.008 1.148 0 2.198.49l-.28.854q-.938-.49-1.876-.49m8.792.77q-.63-.784-1.736-.784t-1.75.784q-.63.77-.63 2.156t.63 2.17q.644.77 1.75.77t1.736-.77q.644-.784.644-2.17t-.644-2.156m.756 4.914q-.938 1.022-2.492 1.022t-2.492-1.022-.938-2.758.938-2.758 2.492-1.022 2.492 1.022.938 2.758-.938 2.758m3.85-4.928q-.574.756-.574 2.17t.588 2.184q.588.756 1.582.756.952 0 1.54-.742.602-.742.602-2.1v-.196q0-1.33-.602-2.086-.588-.756-1.54-.756-1.022 0-1.596.77m-1.582 2.17q0-1.834.784-2.8.784-.98 2.156-.98 1.582 0 2.352 1.33h.028V32h1.022v10.5h-.98l-.014-1.232h-.028q-.77 1.372-2.38 1.372-1.344 0-2.142-.98-.798-.994-.798-2.8m9.072.392q.028 1.19.728 1.876t1.82.686q1.078 0 2.142-.56l.28.798q-1.176.588-2.52.588-1.568 0-2.534-1.022t-.966-2.758q0-1.764.896-2.772.91-1.008 2.464-1.008 1.512 0 2.338.966.84.952.84 2.744 0 .182-.028.462zm0-.812h4.48q-.014-1.218-.588-1.876t-1.582-.658q-1.05 0-1.666.672-.602.658-.644 1.862" aria-label="opcode"/><path d="M554.473 35.22h.994l.028 1.554h.028q1.232-1.694 3.472-1.694v.882q-1.554 0-2.52.854-.952.854-.952 2.212V42.5h-1.05zm7.224 1.47q-.574.756-.574 2.17t.588 2.184q.588.756 1.582.756.952 0 1.54-.742.602-.742.602-2.1v-.196q0-1.33-.602-2.086-.588-.756-1.54-.756-1.022 0-1.596.77m-1.582 2.17q0-1.834.784-2.8.784-.98 2.156-.98 1.582 0 2.352 1.33h.028V32h1.022v10.5h-.98l-.014-1.232h-.028q-.77 1.372-2.38 1.372-1.344 0-2.142-.98-.798-.994-.798-2.8" aria-label="rd"/><path d="M439.366 35.5h1.918v-.938q0-2.422 2.324-2.422.644 0 1.316.21l-.224.84q-.518-.21-.994-.21-.756 0-1.078.364-.308.35-.308 1.218v.938h2.506v.84h-2.506v6.16h-1.036v-6.16h-1.918zm8.106-.28v4.522q0 1.12.364 1.568.378.448 1.246.448.812 0 1.47-.784.672-.784.672-1.862V35.22h1.022v7.28h-.98l-.014-1.302h-.028q-.42.672-1.078 1.064-.644.378-1.4.378-1.176 0-1.736-.658-.546-.672-.546-2.142v-4.62zm6.874 0h.98l.014 1.302h.028q.42-.672 1.064-1.05.658-.392 1.414-.392 1.232 0 1.82.77.602.756.602 2.408V42.5h-1.008v-4.158q0-1.358-.392-1.876-.392-.532-1.344-.532-.812 0-1.484.812-.672.798-.672 1.862V42.5h-1.022zm11.144.714q-1.232 0-1.918.77-.686.756-.686 2.156 0 1.344.714 2.142.728.798 1.89.798.98 0 1.876-.476l.28.826q-1.05.49-2.198.49-1.624 0-2.632-1.022-1.008-1.036-1.008-2.758 0-1.778.966-2.772.966-1.008 2.674-1.008 1.148 0 2.198.49l-.28.854q-.938-.49-1.876-.49m6.426-3.094v2.66h2.758v.84h-2.758v3.822q0 .98.266 1.316.266.322.994.322.644 0 1.232-.238l.168.826q-.714.252-1.54.252-1.19 0-1.68-.504-.49-.518-.49-1.778V36.34h-1.61v-.84h1.61v-2.66zm4.998-.56h6.132v.938l-3.36 3.29v.028h.434q1.484 0 2.268.714.798.714.798 2.072 0 1.596-.952 2.464-.938.854-2.688.854-1.512 0-2.66-.728l.336-.91q1.176.7 2.324.7 1.232 0 1.876-.602t.644-1.778q0-.994-.672-1.47-.658-.49-2.114-.49h-1.022v-.868l3.346-3.248v-.028h-4.69z" aria-label="funct3"/><path d="M352.7 35.22h.994l.028 1.554h.028q1.232-1.694 3.472-1.694v.882q-1.554 0-2.52.854-.952.854-.952 2.212V42.5h-1.05zm8.47-.14q1.33 0 2.464.56l-.224.826q-1.078-.546-2.24-.546-.812 0-1.246.294-.42.294-.42.826 0 .504.364.798.378.294 1.358.462 1.428.238 2.044.784.63.546.63 1.498t-.728 1.512q-.714.546-2.002.546-1.498 0-2.688-.7l.238-.826q1.148.686 2.45.686.812 0 1.246-.308.434-.322.434-.91 0-.56-.392-.868-.378-.308-1.344-.476-1.386-.238-2.016-.756-.616-.532-.616-1.442 0-.896.7-1.428.714-.532 1.988-.532m7.854 7.42v-8.876h-.028l-2.758 2.548-.434-.91 3.22-2.982h1.12V42.5Z" aria-label="rs1"/><path d="M228.7 35.22h.994l.028 1.554h.028q1.232-1.694 3.472-1.694v.882q-1.554 0-2.52.854-.952.854-.952 2.212V42.5h-1.05zm8.47-.14q1.33 0 2.464.56l-.224.826q-1.078-.546-2.24-.546-.812 0-1.246.294-.42.294-.42.826 0 .504.364.798.378.294 1.358.462 1.428.238 2.044.784.63.546.63 1.498t-.728 1.512q-.714.546-2.002.546-1.498 0-2.688-.7l.238-.826q1.148.686 2.45.686.812 0 1.246-.308.434-.322.434-.91 0-.56-.392-.868-.378-.308-1.344-.476-1.386-.238-2.016-.756-.616-.532-.616-1.442 0-.896.7-1.428.714-.532 1.988-.532m7.63-1.988q-1.386 0-2.772.966l-.336-.896q1.428-1.022 3.248-1.022 1.498 0 2.324.77.826.756.826 2.128t-.994 2.772-3.724 3.724v.028h4.76v.938h-6.3v-.938q2.982-2.464 4.032-3.836 1.064-1.386 1.064-2.604 0-.994-.546-1.512-.532-.518-1.582-.518" aria-label="rs2"/><path d="M160.23 35.22h.994l.028 1.554h.028q1.232-1.694 3.472-1.694v.882q-1.554 0-2.52.854-.952.854-.952 2.212V42.5h-1.05zm6.902 7.28V32h1.078v10.5Z" aria-label="rl"/><path d="M136.363 35.08q1.526 0 2.184.63t.658 2.072v2.758q0 .994.21 1.96h-.98q-.112-.546-.14-1.288h-.028q-.378.672-1.092 1.05t-1.61.378q-1.008 0-1.61-.56-.602-.574-.602-1.54 0-1.218 1.064-1.932 1.064-.728 3.024-.728h.742v-.07q0-1.064-.406-1.47-.392-.42-1.414-.42-1.316 0-2.45.644l-.182-.826q1.204-.658 2.632-.658m-2.002 5.418q0 .63.392.994.392.35 1.05.35.966 0 1.666-.686.714-.7.714-1.708v-.784h-.742q-1.47 0-2.282.504-.798.49-.798 1.33m9.534 2.142q-1.33 0-2.142-.994-.798-.994-.798-2.786 0-1.834.784-2.8.784-.98 2.156-.98 1.61 0 2.38 1.372h.028l.014-1.232h.98v10.36h-1.022v-4.214h-.028q-.77 1.274-2.352 1.274m-1.358-5.95q-.574.756-.574 2.17t.588 2.184q.588.756 1.582.756.952 0 1.54-.742.602-.742.602-2.1v-.196q0-1.33-.588-2.086t-1.554-.756q-1.022 0-1.596.77" aria-label="aq"/><path d="M43.366 35.5h1.918v-.938q0-2.422 2.324-2.422.644 0 1.316.21l-.224.84q-.518-.21-.994-.21-.756 0-1.078.364-.308.35-.308 1.218v.938h2.506v.84H46.32v6.16h-1.036v-6.16h-1.918zm8.106-.28v4.522q0 1.12.364 1.568.378.448 1.246.448.812 0 1.47-.784.672-.784.672-1.862V35.22h1.022v7.28h-.98l-.014-1.302h-.028q-.42.672-1.078 1.064-.644.378-1.4.378-1.176 0-1.736-.658-.546-.672-.546-2.142v-4.62zm6.874 0h.98l.014 1.302h.028q.42-.672 1.064-1.05.658-.392 1.414-.392 1.232 0 1.82.77.602.756.602 2.408V42.5H63.26v-4.158q0-1.358-.392-1.876-.392-.532-1.344-.532-.812 0-1.484.812-.672.798-.672 1.862V42.5h-1.022zm11.144.714q-1.232 0-1.918.77-.686.756-.686 2.156 0 1.344.714 2.142.728.798 1.89.798.98 0 1.876-.476l.28.826q-1.05.49-2.198.49-1.624 0-2.632-1.022-1.008-1.036-1.008-2.758 0-1.778.966-2.772.966-1.008 2.674-1.008 1.148 0 2.198.49l-.28.854q-.938-.49-1.876-.49m6.426-3.094v2.66h2.758v.84h-2.758v3.822q0 .98.266 1.316.266.322.994.322.644 0 1.232-.238l.168.826q-.714.252-1.54.252-1.19 0-1.68-.504-.49-.518-.49-1.778V36.34h-1.61v-.84h1.61v-2.66zm10.976.378h-4.424l-.196 3.304h.028q.826-.49 1.862-.49 1.498 0 2.324.812t.826 2.296q0 1.708-.966 2.604-.952.896-2.8.896-1.428 0-2.632-.672l.28-.924q1.176.658 2.352.658 2.646 0 2.646-2.562 0-1.078-.574-1.638-.574-.574-1.652-.574-1.106 0-1.834.644h-.98l.308-5.292h5.432z" aria-label="funct5"/><path d="M705.252 56.28h6.58v.938q-2.45 4.018-4.06 9.282h-1.162q1.624-5.11 4.13-9.254v-.028h-5.488z" aria-label="7"/><path d="m692.589 80.5 3.738-10.22h1.26l3.724 10.22h-1.19l-1.036-2.982h-4.312l-1.022 2.982zm2.492-3.878h3.696l-1.834-5.334h-.028zm7.91 3.878V70.28h1.134l3.64 6.16h.028l3.64-6.16h1.176V80.5h-1.12v-8.344h-.028l-3.164 5.306h-1.036l-3.164-5.306h-.028V80.5Zm19.978-1.288q-1.358 1.428-3.612 1.428t-3.626-1.428q-1.372-1.442-1.372-3.822t1.372-3.808q1.372-1.442 3.626-1.442t3.612 1.442q1.372 1.428 1.372 3.808t-1.372 3.822m-3.612.49q1.736 0 2.786-1.162 1.064-1.176 1.064-3.15t-1.064-3.136q-1.05-1.176-2.786-1.176-1.75 0-2.814 1.176-1.05 1.162-1.05 3.136t1.05 3.15q1.064 1.162 2.814 1.162M692.589 94.5l3.738-10.22h1.26l3.724 10.22h-1.19l-1.036-2.982h-4.312l-1.022 2.982zm2.492-3.878h3.696l-1.834-5.334h-.028zm7.91 3.878V84.28h1.134l3.64 6.16h.028l3.64-6.16h1.176V94.5h-1.12v-8.344h-.028l-3.164 5.306h-1.036l-3.164-5.306h-.028V94.5Zm19.978-1.288q-1.358 1.428-3.612 1.428t-3.626-1.428q-1.372-1.442-1.372-3.822t1.372-3.808q1.372-1.442 3.626-1.442t3.612 1.442q1.372 1.428 1.372 3.808t-1.372 3.822m-3.612.49q1.736 0 2.786-1.162 1.064-1.176 1.064-3.15t-1.064-3.136q-1.05-1.176-2.786-1.176-1.75 0-2.814 1.176-1.05 1.162-1.05 3.136t1.05 3.15q1.064 1.162 2.814 1.162" aria-label="AMO"/><path d="M563.328 57.218h-4.424l-.196 3.304h.028q.826-.49 1.862-.49 1.498 0 2.324.812t.826 2.296q0 1.708-.966 2.604-.952.896-2.8.896-1.428 0-2.632-.672l.28-.924q1.176.658 2.352.658 2.646 0 2.646-2.562 0-1.078-.574-1.638-.574-.574-1.652-.574-1.106 0-1.834.644h-.98l.308-5.292h5.432z" aria-label="5"/><path d="M547.879 74.69q-.574.756-.574 2.17t.588 2.184q.588.756 1.582.756.952 0 1.54-.742.602-.742.602-2.1v-.196q0-1.33-.602-2.086-.588-.756-1.54-.756-1.022 0-1.596.77m-1.582 2.17q0-1.834.784-2.8.784-.98 2.156-.98 1.582 0 2.352 1.33h.028V70h1.022v10.5h-.98l-.014-1.232h-.028q-.77 1.372-2.38 1.372-1.344 0-2.142-.98-.798-.994-.798-2.8m9.072.392q.028 1.19.728 1.876t1.82.686q1.078 0 2.142-.56l.28.798q-1.176.588-2.52.588-1.568 0-2.534-1.022t-.966-2.758q0-1.764.896-2.772.91-1.008 2.464-1.008 1.512 0 2.338.966.84.952.84 2.744 0 .182-.028.462zm0-.812h4.48q-.014-1.218-.588-1.876t-1.582-.658q-1.05 0-1.666.672-.602.658-.644 1.862m9.576-3.36q1.33 0 2.464.56l-.224.826q-1.078-.546-2.24-.546-.812 0-1.246.294-.42.294-.42.826 0 .504.364.798.378.294 1.358.462 1.428.238 2.044.784.63.546.63 1.498t-.728 1.512q-.714.546-2.002.546-1.498 0-2.688-.7l.238-.826q1.148.686 2.45.686.812 0 1.246-.308.434-.322.434-.91 0-.56-.392-.868-.378-.308-1.344-.476-1.386-.238-2.016-.756-.616-.532-.616-1.442 0-.896.7-1.428.714-.532 1.988-.532m6.58-2.24v2.66h2.758v.84h-2.758v3.822q0 .98.266 1.316.266.322.994.322.644 0 1.232-.238l.168.826q-.714.252-1.54.252-1.19 0-1.68-.504-.49-.518-.49-1.778V74.34h-1.61v-.84h1.61v-2.66zM547.879 88.69q-.574.756-.574 2.17t.588 2.184q.588.756 1.582.756.952 0 1.54-.742.602-.742.602-2.1v-.196q0-1.33-.602-2.086-.588-.756-1.54-.756-1.022 0-1.596.77m-1.582 2.17q0-1.834.784-2.8.784-.98 2.156-.98 1.582 0 2.352 1.33h.028V84h1.022v10.5h-.98l-.014-1.232h-.028q-.77 1.372-2.38 1.372-1.344 0-2.142-.98-.798-.994-.798-2.8m9.072.392q.028 1.19.728 1.876t1.82.686q1.078 0 2.142-.56l.28.798q-1.176.588-2.52.588-1.568 0-2.534-1.022t-.966-2.758q0-1.764.896-2.772.91-1.008 2.464-1.008 1.512 0 2.338.966.84.952.84 2.744 0 .182-.028.462zm0-.812h4.48q-.014-1.218-.588-1.876t-1.582-.658q-1.05 0-1.666.672-.602.658-.644 1.862m9.576-3.36q1.33 0 2.464.56l-.224.826q-1.078-.546-2.24-.546-.812 0-1.246.294-.42.294-.42.826 0 .504.364.798.378.294 1.358.462 1.428.238 2.044.784.63.546.63 1.498t-.728 1.512q-.714.546-2.002.546-1.498 0-2.688-.7l.238-.826q1.148.686 2.45.686.812 0 1.246-.308.434-.322.434-.91 0-.56-.392-.868-.378-.308-1.344-.476-1.386-.238-2.016-.756-.616-.532-.616-1.442 0-.896.7-1.428.714-.532 1.988-.532m6.58-2.24v2.66h2.758v.84h-2.758v3.822q0 .98.266 1.316.266.322.994.322.644 0 1.232-.238l.168.826q-.714.252-1.54.252-1.19 0-1.68-.504-.49-.518-.49-1.778V88.34h-1.61v-.84h1.61v-2.66z" aria-label="dest"/><path d="M458.35 56.28h6.132v.938l-3.36 3.29v.028h.434q1.484 0 2.268.714.798.714.798 2.072 0 1.596-.952 2.464-.938.854-2.688.854-1.512 0-2.66-.728l.336-.91q1.176.7 2.324.7 1.232 0 1.876-.602t.644-1.778q0-.994-.672-1.47-.658-.49-2.114-.49h-1.022v-.868l3.346-3.248v-.028h-4.69z" aria-label="3"/><path d="m443.818 73.22 1.61 6.356h.028l1.554-6.356h1.442l1.554 6.356h.028l1.61-6.356h1.106l-2.072 7.28h-1.4l-1.554-6.258h-.028l-1.554 6.258h-1.4l-2.072-7.28zm11.172-1.68V70h1.078v1.54zm0 8.96v-7.28h1.078v7.28Zm4.9-5.81q-.574.756-.574 2.17t.588 2.184q.588.756 1.582.756.952 0 1.54-.742.602-.742.602-2.1v-.196q0-1.33-.602-2.086-.588-.756-1.54-.756-1.022 0-1.596.77m-1.582 2.17q0-1.834.784-2.8.784-.98 2.156-.98 1.582 0 2.352 1.33h.028V70h1.022v10.5h-.98l-.014-1.232h-.028q-.77 1.372-2.38 1.372-1.344 0-2.142-.98-.798-.994-.798-2.8m10.822-6.02v2.66h2.758v.84h-2.758v3.822q0 .98.266 1.316.266.322.994.322.644 0 1.232-.238l.168.826q-.714.252-1.54.252-1.19 0-1.68-.504-.49-.518-.49-1.778V74.34h-1.61v-.84h1.61v-2.66Zm4.928-.84h1.022v4.466h.028q.924-1.386 2.45-1.386 1.232 0 1.82.77.602.756.602 2.408V80.5h-1.008v-4.158q0-1.358-.392-1.876-.392-.532-1.344-.532-.84 0-1.498.826-.658.812-.658 1.848V80.5h-1.022zM443.818 87.22l1.61 6.356h.028l1.554-6.356h1.442l1.554 6.356h.028l1.61-6.356h1.106l-2.072 7.28h-1.4l-1.554-6.258h-.028l-1.554 6.258h-1.4l-2.072-7.28zm11.172-1.68V84h1.078v1.54zm0 8.96v-7.28h1.078v7.28Zm4.9-5.81q-.574.756-.574 2.17t.588 2.184q.588.756 1.582.756.952 0 1.54-.742.602-.742.602-2.1v-.196q0-1.33-.602-2.086-.588-.756-1.54-.756-1.022 0-1.596.77m-1.582 2.17q0-1.834.784-2.8.784-.98 2.156-.98 1.582 0 2.352 1.33h.028V84h1.022v10.5h-.98l-.014-1.232h-.028q-.77 1.372-2.38 1.372-1.344 0-2.142-.98-.798-.994-.798-2.8m10.822-6.02v2.66h2.758v.84h-2.758v3.822q0 .98.266 1.316.266.322.994.322.644 0 1.232-.238l.168.826q-.714.252-1.54.252-1.19 0-1.68-.504-.49-.518-.49-1.778V88.34h-1.61v-.84h1.61v-2.66Zm4.928-.84h1.022v4.466h.028q.924-1.386 2.45-1.386 1.232 0 1.82.77.602.756.602 2.408V94.5h-1.008v-4.158q0-1.358-.392-1.876-.392-.532-1.344-.532-.84 0-1.498.826-.658.812-.658 1.848V94.5h-1.022z" aria-label="width"/><path d="M365.328 57.218h-4.424l-.196 3.304h.028q.826-.49 1.862-.49 1.498 0 2.324.812t.826 2.296q0 1.708-.966 2.604-.952.896-2.8.896-1.428 0-2.632-.672l.28-.924q1.176.658 2.352.658 2.646 0 2.646-2.562 0-1.078-.574-1.638-.574-.574-1.652-.574-1.106 0-1.834.644h-.98l.308-5.292h5.432z" aria-label="5"/><path d="M351.111 73.08q1.526 0 2.184.63t.658 2.072v2.758q0 .994.21 1.96h-.98q-.112-.546-.14-1.288h-.028q-.378.672-1.092 1.05t-1.61.378q-1.008 0-1.61-.56-.602-.574-.602-1.54 0-1.218 1.064-1.932 1.064-.728 3.024-.728h.742v-.07q0-1.064-.406-1.47-.392-.42-1.414-.42-1.316 0-2.45.644l-.182-.826q1.204-.658 2.632-.658m-2.002 5.418q0 .63.392.994.392.35 1.05.35.966 0 1.666-.686.714-.7.714-1.708v-.784h-.742q-1.47 0-2.282.504-.798.49-.798 1.33m8.176-3.808q-.574.756-.574 2.17t.588 2.184q.588.756 1.582.756.952 0 1.54-.742.602-.742.602-2.1v-.196q0-1.33-.602-2.086-.588-.756-1.54-.756-1.022 0-1.596.77m-1.582 2.17q0-1.834.784-2.8.784-.98 2.156-.98 1.582 0 2.352 1.33h.028V70h1.022v10.5h-.98l-.014-1.232h-.028q-.77 1.372-2.38 1.372-1.344 0-2.142-.98-.798-.994-.798-2.8m9.674-2.17q-.574.756-.574 2.17t.588 2.184q.588.756 1.582.756.952 0 1.54-.742.602-.742.602-2.1v-.196q0-1.33-.602-2.086-.588-.756-1.54-.756-1.022 0-1.596.77m-1.582 2.17q0-1.834.784-2.8.784-.98 2.156-.98 1.582 0 2.352 1.33h.028V70h1.022v10.5h-.98l-.014-1.232h-.028q-.77 1.372-2.38 1.372-1.344 0-2.142-.98-.798-.994-.798-2.8m8.512-3.64h.994l.028 1.554h.028q1.232-1.694 3.472-1.694v.882q-1.554 0-2.52.854-.952.854-.952 2.212V80.5h-1.05ZM351.111 87.08q1.526 0 2.184.63t.658 2.072v2.758q0 .994.21 1.96h-.98q-.112-.546-.14-1.288h-.028q-.378.672-1.092 1.05t-1.61.378q-1.008 0-1.61-.56-.602-.574-.602-1.54 0-1.218 1.064-1.932 1.064-.728 3.024-.728h.742v-.07q0-1.064-.406-1.47-.392-.42-1.414-.42-1.316 0-2.45.644l-.182-.826q1.204-.658 2.632-.658m-2.002 5.418q0 .63.392.994.392.35 1.05.35.966 0 1.666-.686.714-.7.714-1.708v-.784h-.742q-1.47 0-2.282.504-.798.49-.798 1.33m8.176-3.808q-.574.756-.574 2.17t.588 2.184q.588.756 1.582.756.952 0 1.54-.742.602-.742.602-2.1v-.196q0-1.33-.602-2.086-.588-.756-1.54-.756-1.022 0-1.596.77m-1.582 2.17q0-1.834.784-2.8.784-.98 2.156-.98 1.582 0 2.352 1.33h.028V84h1.022v10.5h-.98l-.014-1.232h-.028q-.77 1.372-2.38 1.372-1.344 0-2.142-.98-.798-.994-.798-2.8m9.674-2.17q-.574.756-.574 2.17t.588 2.184q.588.756 1.582.756.952 0 1.54-.742.602-.742.602-2.1v-.196q0-1.33-.602-2.086-.588-.756-1.54-.756-1.022 0-1.596.77m-1.582 2.17q0-1.834.784-2.8.784-.98 2.156-.98 1.582 0 2.352 1.33h.028V84h1.022v10.5h-.98l-.014-1.232h-.028q-.77 1.372-2.38 1.372-1.344 0-2.142-.98-.798-.994-.798-2.8m8.512-3.64h.994l.028 1.554h.028q1.232-1.694 3.472-1.694v.882q-1.554 0-2.52.854-.952.854-.952 2.212V94.5h-1.05Z" aria-label="addr"/><path d="M241.328 57.218h-4.424l-.196 3.304h.028q.826-.49 1.862-.49 1.498 0 2.324.812t.826 2.296q0 1.708-.966 2.604-.952.896-2.8.896-1.428 0-2.632-.672l.28-.924q1.176.658 2.352.658 2.646 0 2.646-2.562 0-1.078-.574-1.638-.574-.574-1.652-.574-1.106 0-1.834.644h-.98l.308-5.292h5.432z" aria-label="5"/><path d="M238.486 70.14q3.696 0 3.696 5.25t-3.696 5.25q-1.75 0-2.716-1.218t-.966-4.032.966-4.032 2.716-1.218m-1.932 8.568q.644 1.022 1.932 1.022t1.932-1.022q.644-1.036.644-3.318t-.644-3.304q-.644-1.036-1.932-1.036t-1.932 1.036q-.63 1.022-.63 3.304t.63 3.318" aria-label="0"/><path d="M231.794 87.08q1.33 0 2.464.56l-.224.826q-1.078-.546-2.24-.546-.812 0-1.246.294-.42.294-.42.826 0 .504.364.798.378.294 1.358.462 1.428.238 2.044.784.63.546.63 1.498t-.728 1.512q-.714.546-2.002.546-1.498 0-2.688-.7l.238-.826q1.148.686 2.45.686.812 0 1.246-.308.434-.322.434-.91 0-.56-.392-.868-.378-.308-1.344-.476-1.386-.238-2.016-.756-.616-.532-.616-1.442 0-.896.7-1.428.714-.532 1.988-.532m4.55.14h.994l.028 1.554h.028q1.232-1.694 3.472-1.694v.882q-1.554 0-2.52.854-.952.854-.952 2.212V94.5h-1.05zm9.254.714q-1.232 0-1.918.77-.686.756-.686 2.156 0 1.344.714 2.142.728.798 1.89.798.98 0 1.876-.476l.28.826q-1.05.49-2.198.49-1.624 0-2.632-1.022-1.008-1.036-1.008-2.758 0-1.778.966-2.772.966-1.008 2.674-1.008 1.148 0 2.198.49l-.28.854q-.938-.49-1.876-.49" aria-label="src"/><path d="M164.514 66.5v-8.876h-.028l-2.758 2.548-.434-.91 3.22-2.982h1.12V66.5Z" aria-label="1"/><path d="M-10.506-.24h.852l.024 1.332h.024Q-8.55-.36-6.63-.36v.756q-1.332 0-2.16.732-.816.732-.816 1.896V6h-.9zm5.916-1.44V-3h.924v1.32zm0 7.68V-.24h.924V6Zm3.204-6.24h.84L-.534.876h.024q.36-.576.912-.9Q.966-.36 1.614-.36q1.056 0 1.56.66.516.648.516 2.064V6h-.864V2.436q0-1.164-.336-1.608Q2.154.372 1.338.372q-.696 0-1.272.696-.576.684-.576 1.596V6h-.876Zm7.32 3q0 1.116.492 1.764.504.636 1.32.636.828 0 1.356-.624T9.63 2.82V2.7q0-1.08-.528-1.704Q8.574.36 7.746.36q-.852 0-1.332.624-.48.612-.48 1.776m-.864 0q0-1.5.66-2.304.66-.816 1.824-.816Q8.958-.36 9.63.804h.024L9.666-.24h.84v5.724q0 3.276-2.916 3.276-1.02 0-1.944-.384l.204-.708q.852.372 1.74.372 1.056 0 1.548-.588T9.63 5.52v-.768h-.024Q8.958 5.88 7.554 5.88q-1.092 0-1.788-.84-.696-.852-.696-2.28" aria-label="ring" style="font-size:12px" transform="translate(164.5 74.5)"/><path d="M-10.506-.24h.852l.024 1.332h.024Q-8.55-.36-6.63-.36v.756q-1.332 0-2.16.732-.816.732-.816 1.896V6h-.9zm5.916-1.44V-3h.924v1.32zm0 7.68V-.24h.924V6Zm3.204-6.24h.84L-.534.876h.024q.36-.576.912-.9Q.966-.36 1.614-.36q1.056 0 1.56.66.516.648.516 2.064V6h-.864V2.436q0-1.164-.336-1.608Q2.154.372 1.338.372q-.696 0-1.272.696-.576.684-.576 1.596V6h-.876Zm7.32 3q0 1.116.492 1.764.504.636 1.32.636.828 0 1.356-.624T9.63 2.82V2.7q0-1.08-.528-1.704Q8.574.36 7.746.36q-.852 0-1.332.624-.48.612-.48 1.776m-.864 0q0-1.5.66-2.304.66-.816 1.824-.816Q8.958-.36 9.63.804h.024L9.666-.24h.84v5.724q0 3.276-2.916 3.276-1.02 0-1.944-.384l.204-.708q.852.372 1.74.372 1.056 0 1.548-.588T9.63 5.52v-.768h-.024Q8.958 5.88 7.554 5.88q-1.092 0-1.788-.84-.696-.852-.696-2.28" aria-label="ring" style="font-size:12px" transform="translate(164.5 88.5)"/><path d="M140.514 66.5v-8.876h-.028l-2.758 2.548-.434-.91 3.22-2.982h1.12V66.5Z" aria-label="1"/><path d="M-7.89 1.032Q-8.43.36-9.378.36t-1.5.672q-.54.66-.54 1.848t.54 1.86q.552.66 1.5.66t1.488-.66q.552-.672.552-1.86t-.552-1.848m.648 4.212q-.804.876-2.136.876t-2.136-.876-.804-2.364.804-2.364 2.136-.876 2.136.876.804 2.364-.804 2.364M-5.058-.24h.852l.024 1.332h.024Q-3.102-.36-1.182-.36v.756q-1.332 0-2.16.732-.816.732-.816 1.896V6h-.9zm6.192 1.26q-.492.648-.492 1.86t.504 1.872q.504.648 1.356.648.816 0 1.32-.636.516-.636.516-1.8v-.168q0-1.14-.516-1.788Q3.318.36 2.502.36q-.876 0-1.368.66M-.222 2.88q0-1.572.672-2.4.672-.84 1.848-.84 1.356 0 2.016 1.14h.024V-3h.876v9h-.84l-.012-1.056h-.024q-.66 1.176-2.04 1.176-1.152 0-1.836-.84-.684-.852-.684-2.4m7.776.336q.024 1.02.624 1.608t1.56.588q.924 0 1.836-.48l.24.684q-1.008.504-2.16.504-1.344 0-2.172-.876T6.654 2.88q0-1.512.768-2.376.78-.864 2.112-.864 1.296 0 2.004.828.72.816.72 2.352 0 .156-.024.396zm0-.696h3.84q-.012-1.044-.504-1.608T9.534.348q-.9 0-1.428.576-.516.564-.552 1.596" aria-label="orde" style="font-size:12px" transform="translate(140.5 74.5)"/><path d="M-7.89 1.032Q-8.43.36-9.378.36t-1.5.672q-.54.66-.54 1.848t.54 1.86q.552.66 1.5.66t1.488-.66q.552-.672.552-1.86t-.552-1.848m.648 4.212q-.804.876-2.136.876t-2.136-.876-.804-2.364.804-2.364 2.136-.876 2.136.876.804 2.364-.804 2.364M-5.058-.24h.852l.024 1.332h.024Q-3.102-.36-1.182-.36v.756q-1.332 0-2.16.732-.816.732-.816 1.896V6h-.9zm6.192 1.26q-.492.648-.492 1.86t.504 1.872q.504.648 1.356.648.816 0 1.32-.636.516-.636.516-1.8v-.168q0-1.14-.516-1.788Q3.318.36 2.502.36q-.876 0-1.368.66M-.222 2.88q0-1.572.672-2.4.672-.84 1.848-.84 1.356 0 2.016 1.14h.024V-3h.876v9h-.84l-.012-1.056h-.024q-.66 1.176-2.04 1.176-1.152 0-1.836-.84-.684-.852-.684-2.4m7.776.336q.024 1.02.624 1.608t1.56.588q.924 0 1.836-.48l.24.684q-1.008.504-2.16.504-1.344 0-2.172-.876T6.654 2.88q0-1.512.768-2.376.78-.864 2.112-.864 1.296 0 2.004.828.72.816.72 2.352 0 .156-.024.396zm0-.696h3.84q-.012-1.044-.504-1.608T9.534.348q-.9 0-1.428.576-.516.564-.552 1.596" aria-label="orde" style="font-size:12px" transform="translate(140.5 88.5)"/><path d="M68.328 57.218h-4.424l-.196 3.304h.028q.826-.49 1.862-.49 1.498 0 2.324.812t.826 2.296q0 1.708-.966 2.604-.952.896-2.8.896-1.428 0-2.632-.672l.28-.924q1.176.658 2.352.658 2.646 0 2.646-2.562 0-1.078-.574-1.638-.574-.574-1.652-.574-1.106 0-1.834.644h-.98l.308-5.292h5.432z" aria-label="5"/><path d="M43.247 70.28v9.268h4.998v.952h-6.16V70.28Zm7.028 10.22V70.35q1.218-.21 2.618-.21 1.96 0 2.954.728 1.008.714 1.008 2.044 0 1.064-.574 1.778t-1.624.98v.028q.63.336 1.246 1.82l1.232 2.982h-1.162l-1.204-2.954q-.42-1.008-.798-1.246-.364-.252-1.456-.252h-1.12V80.5Zm1.12-5.348h1.12q1.666 0 2.45-.532.784-.546.784-1.61 0-1.96-2.954-1.96-.742 0-1.4.126zm7.7 5.348v-1.96h1.302v1.96Zm3.57-10.22 2.058 9.016h.028l2.1-9.016h1.456l2.1 9.016h.028l2.058-9.016h1.106L71.093 80.5h-1.414l-2.1-9.016h-.028L65.437 80.5h-1.4l-2.52-10.22zm17.192 0-4.83 10.78h-1.078l4.816-10.78Zm4.368.798q-.728 0-1.358.126v8.372q.63.126 1.358.126 4.242 0 4.242-4.452 0-2.072-1.078-3.122t-3.164-1.05m5.32 4.172q0 2.646-1.372 4.018t-3.948 1.372q-1.246 0-2.478-.224V70.364q1.26-.224 2.478-.224 2.562 0 3.934 1.33 1.386 1.316 1.386 3.78" aria-label="LR.W/D"/><path d="M44.612 85.05q-.966 0-1.498.434-.532.42-.532 1.176 0 1.358 1.988 1.96 1.736.504 2.464 1.26.742.756.742 1.96 0 1.358-.854 2.086-.84.714-2.408.714-1.736 0-3.08-.882l.336-.924q1.218.868 2.744.868 1.036 0 1.582-.476.56-.476.56-1.386 0-.84-.476-1.33-.462-.504-1.638-.868-3.066-.91-3.066-2.982 0-1.148.826-1.834.84-.686 2.31-.686 1.582 0 2.94.658l-.28.868q-1.218-.616-2.66-.616m9.604.028q-1.848 0-2.954 1.176-1.092 1.162-1.092 3.136t1.12 3.15q1.134 1.162 2.926 1.162 1.456 0 2.702-.798l.378.84q-1.372.896-3.178.896-2.31 0-3.696-1.428t-1.386-3.822q0-2.422 1.372-3.836t3.71-1.414q1.806 0 3.178.896l-.378.84q-1.246-.798-2.702-.798m5.18 9.422v-1.96h1.302v1.96Zm3.57-10.22 2.058 9.016h.028l2.1-9.016h1.456l2.1 9.016h.028l2.058-9.016H73.9L71.394 94.5H69.98l-2.1-9.016h-.028L65.738 94.5h-1.4l-2.52-10.22zm17.192 0-4.83 10.78H74.25l4.816-10.78Zm4.368.798q-.728 0-1.358.126v8.372q.63.126 1.358.126 4.242 0 4.242-4.452 0-2.072-1.078-3.122t-3.164-1.05m5.32 4.172q0 2.646-1.372 4.018t-3.948 1.372q-1.246 0-2.478-.224V84.364q1.26-.224 2.478-.224 2.562 0 3.934 1.33 1.386 1.316 1.386 3.78" aria-label="SC.W/D"/></g></svg>