<svg xmlns="http://www.w3.org/2000/svg" xmlns:xlink="http://www.w3.org/1999/xlink" width="364" height="277"><defs><path id="c" d="M.957 0h5.988v-1.11H2.188v-8.753H.956Zm0 0"/><path id="d" d="M1.441-8.312a.744.744 0 0 0 .746-.747.74.74 0 0 0-.746-.746.74.74 0 0 0-.742.746c0 .41.332.746.742.746M.848 0h1.191v-7.11H.848Zm0 0"/><path id="e" d="M3.082.137c.234 0 .488-.028.637-.047v-.965c-.102.008-.239.027-.383.027-.637 0-.969-.21-.969-.972v-4.305H3.72v-.984H2.367v-1.922h-1.23v1.922H.097v.984h1.04v4.313c0 1.359.64 1.949 1.945 1.949m0 0"/><path id="f" d="M.773 0h1.188v-4.457c0-.992.684-1.738 1.629-1.738.883 0 1.457.57 1.457 1.43V0h1.187v-4.52c0-.968.664-1.675 1.606-1.675.937 0 1.476.582 1.476 1.558V0h1.192v-4.91c0-1.414-.91-2.336-2.317-2.336-1 0-1.832.512-2.23 1.367h-.027c-.309-.867-1.024-1.367-1.997-1.367-.914 0-1.624.473-1.949 1.176h-.027v-1.04H.773Zm0 0"/><path id="g" d="M3.2.137c1.081 0 1.804-.485 2.187-1.149h.027V0h1.191v-7.11h-1.19v4.184c0 1.211-.731 2.008-1.852 2.008-1.094 0-1.633-.633-1.633-1.789v-4.402H.738v4.613C.738-.875 1.641.137 3.2.137m0 0"/><path id="h" d="M3.297.137c1.586 0 2.762-.875 2.762-2.121v-.004c0-1.012-.52-1.582-1.957-1.93l-1.13-.273c-.784-.192-1.105-.528-1.105-1.012v-.008c0-.629.531-1.043 1.395-1.043.883 0 1.406.457 1.504 1.149l.007.046h1.133l-.008-.09C5.813-6.335 4.82-7.245 3.262-7.245c-1.54 0-2.614.867-2.614 2.09v.008c0 1.027.653 1.648 1.993 1.968l1.125.274c.808.199 1.074.484 1.074 1v.004c0 .644-.574 1.047-1.54 1.047-.968 0-1.495-.418-1.64-1.13l-.012-.066H.457l.008.063C.609-.718 1.62.137 3.297.137m0 0"/><path id="j" d="M3.7.137c1.55 0 2.714-.93 2.945-2.106l.015-.07H5.488l-.02.062c-.202.61-.84 1.059-1.741 1.059-1.266 0-2.07-.852-2.098-2.316h5.117v-.438c0-2.133-1.18-3.574-3.121-3.574s-3.2 1.512-3.2 3.71v.009C.426-1.293 1.657.137 3.7.137m-.083-6.332c1.04 0 1.805.652 1.922 2.03H1.65c.128-1.323.937-2.03 1.968-2.03m0 0"/><path id="k" d="M.957 0h1.148v-7.621h.043L5.297 0h1.039l3.152-7.621h.043V0h1.149v-9.863H9.258L5.84-1.551h-.043L2.379-9.863H.957Zm0 0"/><path id="l" d="M.957 0h1.23v-3.52h2.286c1.851 0 3.164-1.308 3.164-3.18v-.015c0-1.87-1.313-3.148-3.164-3.148H.957Zm3.2-8.77c1.41 0 2.222.77 2.222 2.07v.013c0 1.3-.813 2.074-2.223 2.074H2.188V-8.77Zm0 0"/><path id="m" d="M.766-3.445H3.68v2.828h1.105v-2.828h2.918v-1.11H4.785v-2.828H3.68v2.828H.766Zm0 0"/><path id="n" d="M1.156 0h1.188v-6.125h1.449v-.984H2.332v-.868c0-.707.328-1.039.984-1.039.184 0 .368.004.512.028v-.965A5 5 0 0 0 3.105-10c-1.312 0-1.949.648-1.949 2.016v.875H.164v.984h.992Zm0 0"/><path id="o" d="M.773 0h1.188v-4.184c0-1.21.734-2.011 1.855-2.011 1.094 0 1.633.636 1.633 1.793V0h1.188v-4.613c0-1.621-.903-2.633-2.461-2.633-1.078 0-1.805.484-2.188 1.148h-.027v-1.011H.773Zm0 0"/><path id="p" d="M3.719.137c1.605 0 2.777-1.047 2.969-2.399l.003-.05H5.523l-.011.054c-.2.793-.82 1.34-1.793 1.34-1.23 0-2.078-.977-2.078-2.629v-.008c0-1.613.828-2.64 2.066-2.64 1.043 0 1.617.629 1.797 1.34l.012.054H6.68l-.008-.054C6.523-6.07 5.477-7.246 3.707-7.246 1.73-7.246.426-5.812.426-3.57v.007c0 2.262 1.277 3.7 3.293 3.7m0 0"/><path id="q" d="M1.504.098a.774.774 0 0 0 .781-.782.774.774 0 0 0-.781-.78.77.77 0 0 0-.777.78c0 .438.34.782.777.782m0 0"/><path id="r" d="M2.18 0h1.21l1.602-5.504h.028L6.625 0h1.21l1.981-7.11H8.641L7.219-1.327H7.19L5.578-7.11H4.43L2.824-1.33h-.027l-1.422-5.78H.191Zm0 0"/><path id="s" d="M.773 0h1.188v-4.39c0-1.079.601-1.723 1.527-1.723.285 0 .54.035.633.07v-1.156c-.094-.012-.273-.047-.476-.047-.801 0-1.415.52-1.657 1.34h-.027V-7.11H.773Zm0 0"/><path id="t" d="M.813-3.445h4.375v-1.11H.813Zm0 0"/><path id="u" d="M2.852.137c.949 0 1.804-.512 2.222-1.293h.028V0h1.187v-4.914c0-1.422-1.05-2.332-2.734-2.332-1.676 0-2.692.941-2.797 2.113l-.004.074h1.148l.012-.062c.137-.637.711-1.074 1.629-1.074.988 0 1.559.527 1.559 1.394v.598l-2.04.113C1.43-3.992.485-3.234.485-2.023v.011c0 1.293.954 2.149 2.368 2.149M1.703-2.012v-.011c0-.664.547-1.086 1.496-1.141l1.903-.117v.582c0 1.031-.864 1.804-1.985 1.804-.855 0-1.414-.433-1.414-1.117m0 0"/><path id="v" d="M3.445.137c1.02 0 1.813-.512 2.258-1.34h.027V0h1.188v-9.863H5.73v3.941h-.027c-.445-.82-1.273-1.324-2.277-1.324-1.785 0-3 1.441-3 3.684v.007c0 2.243 1.203 3.692 3.02 3.692M3.68-.918c-1.258 0-2.04-1.004-2.04-2.637v-.007c0-1.622.782-2.633 2.04-2.633 1.195 0 2.054 1.047 2.054 2.633v.007c0 1.594-.851 2.637-2.054 2.637m0 0"/><path id="w" d="M3.242 2.395h.996c-.984-1.145-1.73-3.852-1.73-6.133 0-2.285.746-4.985 1.73-6.125h-.996C1.906-8.168 1.301-6.172 1.301-3.738c0 2.433.605 4.441 1.941 6.133m0 0"/><path id="x" d="M3.719.137c1.96 0 3.289-1.422 3.289-3.692v-.015c0-2.27-1.332-3.676-3.297-3.676C1.75-7.246.426-5.832.426-3.57v.015C.426-1.293 1.742.137 3.719.137m.008-1.055c-1.258 0-2.086-.96-2.086-2.637v-.015c0-1.66.836-2.625 2.07-2.625 1.258 0 2.078.957 2.078 2.625v.015c0 1.668-.812 2.637-2.062 2.637m0 0"/><path id="y" d="M.773 2.395h1.188v-3.586h.027C2.434-.371 3.262.137 4.266.137c1.785 0 3-1.442 3-3.684v-.008c0-2.242-1.203-3.691-3.02-3.691-1.02 0-1.812.512-2.258 1.34h-.027V-7.11H.773ZM4.012-.918c-1.196 0-2.055-1.043-2.055-2.629v-.008c0-1.593.852-2.64 2.055-2.64 1.258 0 2.039 1.008 2.039 2.64v.008c0 1.617-.781 2.629-2.04 2.629m0 0"/><path id="z" d="M1.273 2.395c1.332-1.692 1.942-3.7 1.942-6.133 0-2.434-.61-4.43-1.942-6.125h-1c.985 1.14 1.73 3.84 1.73 6.125 0 2.281-.745 4.988-1.73 6.133Zm0 0"/><path id="A" d="M1.504-5.195a.774.774 0 0 0 .781-.782.77.77 0 0 0-.781-.777.767.767 0 0 0-.777.777c0 .438.34.782.777.782m0 5.293a.774.774 0 0 0 .781-.782.774.774 0 0 0-.781-.78.77.77 0 0 0-.777.78c0 .438.34.782.777.782m0 0"/><path id="B" d="M2.996 0h1.16l2.297-7.902h.027L8.777 0h1.164l2.684-9.863H11.34L9.352-1.766h-.028L7.09-9.863H5.844L3.609-1.766h-.027L1.594-9.863H.309Zm0 0"/><path id="C" d="M.219 0h1.32l1.715-2.707h.027L4.984 0h1.32L3.938-3.602l2.399-3.507H5.012L3.324-4.445h-.027L1.586-7.11H.262L2.64-3.555Zm0 0"/><path id="D" d="M.848-5.14h6.77v-1.11H.847Zm0 3.382h6.77v-1.105H.847Zm0 0"/><path id="E" d="M3.316 0h1.188v-9.863H3.3L.676-7.977v1.235L3.289-8.56h.027Zm0 0"/><path id="F" d="M1.457 2.395c1.285 0 1.906-.59 2.414-1.95l2.774-7.554h-1.25l-1.97 5.918h-.027L1.438-7.11H.163L2.804.008 2.66.41c-.289.809-.703 1-1.457 1-.144 0-.281-.023-.383-.043v.973c.153.027.403.055.637.055m0 0"/><path id="G" d="M.957 0h1.23v-3.902h2.36L6.66 0h1.442L5.816-4.094c1.23-.39 1.985-1.449 1.985-2.816v-.016c0-1.777-1.246-2.937-3.145-2.937H.957Zm1.23-4.992V-8.77h2.305c1.266 0 2.035.696 2.035 1.872v.015c0 1.207-.715 1.89-1.98 1.89Zm0 0"/><path id="H" d="M.8 0H7.31v-1.094h-4.82v-.027l2.343-2.406C6.645-5.38 7.145-6.195 7.145-7.273v-.016c0-1.543-1.305-2.738-3.09-2.738-1.84 0-3.317 1.261-3.317 2.972v.04H1.93v-.032c0-1.062.914-1.91 2.144-1.91 1.074 0 1.832.727 1.84 1.73v.016c0 .82-.309 1.352-1.64 2.738L.8-.848Zm0 0"/><path id="I" d="M4.238.164c2.27 0 3.63-1.96 3.63-5.094v-.011c0-3.133-1.36-5.086-3.63-5.086S.621-8.074.621-4.941v.011C.621-1.797 1.97.164 4.238.164m0-1.074C2.734-.91 1.86-2.453 1.86-4.93v-.011c0-2.477.875-4.008 2.38-4.008 1.503 0 2.394 1.531 2.394 4.008v.011c0 2.477-.89 4.02-2.395 4.02m0 0"/></defs><path fill="none" stroke="#34C759" stroke-miterlimit="10" stroke-width="2" d="M80.75 25.11v37.953"/><path fill="none" stroke="#5856D6" stroke-miterlimit="10" stroke-width="2" d="M82.75 25.11v37.953"/><path fill="#34C759" stroke="#34C759" stroke-miterlimit="10" stroke-width="2" d="m85.25 62.695-3.5 10-3.5-10Zm0 0"/><path fill="none" stroke="#FF3B30" stroke-miterlimit="10" stroke-width="2" d="M117.418 75.742c36.191-12.668 92.437-32.355 132.484-46.37"/><path fill="#FF3B30" stroke="#FF3B30" stroke-miterlimit="10" stroke-width="2" d="M248.578 26.129h10.594l-8.281 6.605Zm0 0"/><path fill="none" stroke="#007AFF" stroke-miterlimit="10" stroke-width="2" d="M121.621 88.227h123.594"/><path fill="#007AFF" stroke="#007AFF" stroke-miterlimit="10" stroke-width="2" d="m245.086 84.727 10 3.5-10 3.5Zm0 0"/><path fill="none" stroke="#FF9500" stroke-miterlimit="10" stroke-width="2" d="M296.75 25.11v37.953"/><path fill="none" stroke="#5856D6" stroke-miterlimit="10" stroke-width="2" d="M298.75 25.11v37.953"/><path fill="#FF9500" stroke="#FF9500" stroke-miterlimit="10" stroke-width="2" d="m301.25 62.695-3.5 10-3.5-10Zm0 0"/><path fill="none" stroke="#FF3B30" stroke-miterlimit="10" stroke-width="2" d="M297.75 100.707v37.953"/><path fill="#FF3B30" stroke="#FF3B30" stroke-miterlimit="10" stroke-width="2" d="m301.25 138.297-3.5 10-3.5-10Zm0 0"/><path fill="none" stroke="#5856D6" stroke-miterlimit="10" stroke-width="2" d="M297.75 176.309v37.953"/><path fill="#5856D6" stroke="#5856D6" stroke-miterlimit="10" stroke-width="2" d="m301.25 213.895-3.5 10-3.5-10Zm0 0"/><path fill="none" stroke="#FF9500" stroke-miterlimit="10" stroke-width="2" d="M285.828 226.906C250.645 189.965 146.938 81.07 102.426 34.332"/><path fill="#FF9500" stroke="#FF9500" stroke-miterlimit="10" stroke-width="2" d="m100.082 36.95-4.36-9.653 9.43 4.824Zm0 0"/><g fill="none" stroke="#FFF" stroke-linecap="round" stroke-linejoin="round" stroke-width="2"><use xlink:href="#c" x="8" y="269.352"/><use xlink:href="#d" x="15.5" y="269.352"/><use xlink:href="#e" x="18.5" y="269.352"/><use xlink:href="#f" x="23" y="269.352"/><use xlink:href="#g" x="34.25" y="269.352"/><use xlink:href="#h" x="41.75" y="269.352"/><use xlink:href="#i" x="48.5" y="269.352"/><use xlink:href="#e" x="51.5" y="269.352"/><use xlink:href="#j" x="55.25" y="269.352"/><use xlink:href="#h" x="62.75" y="269.352"/><use xlink:href="#e" x="69.5" y="269.352"/><use xlink:href="#i" x="74" y="269.352"/><use xlink:href="#k" x="77" y="269.352"/><use xlink:href="#l" x="89" y="269.352"/><use xlink:href="#m" x="97.25" y="269.352"/><use xlink:href="#n" x="105.5" y="269.352"/><use xlink:href="#j" x="109.25" y="269.352"/><use xlink:href="#o" x="116.75" y="269.352"/><use xlink:href="#p" x="124.25" y="269.352"/><use xlink:href="#j" x="131" y="269.352"/><use xlink:href="#q" x="138.5" y="269.352"/><use xlink:href="#r" x="140.75" y="269.352"/><use xlink:href="#q" x="149.75" y="269.352"/><use xlink:href="#r" x="152" y="269.352"/><use xlink:href="#m" x="161.75" y="269.352"/><use xlink:href="#n" x="170" y="269.352"/><use xlink:href="#s" x="174.5" y="269.352"/><use xlink:href="#d" x="179" y="269.352"/><use xlink:href="#t" x="182" y="269.352"/><use xlink:href="#s" x="188" y="269.352"/><use xlink:href="#n" x="192.5" y="269.352"/><use xlink:href="#d" x="197" y="269.352"/><use xlink:href="#t" x="200" y="269.352"/><use xlink:href="#u" x="206" y="269.352"/><use xlink:href="#v" x="212.75" y="269.352"/><use xlink:href="#v" x="220.25" y="269.352"/><use xlink:href="#s" x="227.75" y="269.352"/><use xlink:href="#i" x="232.25" y="269.352"/><use xlink:href="#w" x="235.25" y="269.352"/><use xlink:href="#x" x="239.75" y="269.352"/><use xlink:href="#g" x="247.25" y="269.352"/><use xlink:href="#e" x="254.75" y="269.352"/><use xlink:href="#p" x="258.5" y="269.352"/><use xlink:href="#x" x="265.25" y="269.352"/><use xlink:href="#f" x="272.75" y="269.352"/><use xlink:href="#j" x="284" y="269.352"/><use xlink:href="#i" x="291.5" y="269.352"/><use xlink:href="#y" x="294.5" y="269.352"/><use xlink:href="#j" x="302" y="269.352"/><use xlink:href="#s" x="309.5" y="269.352"/><use xlink:href="#f" x="314" y="269.352"/><use xlink:href="#d" x="325.25" y="269.352"/><use xlink:href="#e" x="328.25" y="269.352"/><use xlink:href="#e" x="332.75" y="269.352"/><use xlink:href="#j" x="336.5" y="269.352"/><use xlink:href="#v" x="344" y="269.352"/><use xlink:href="#z" x="351.5" y="269.352"/></g><g fill="#1C1E21"><use xlink:href="#c" x="8" y="269.352"/><use xlink:href="#d" x="15.5" y="269.352"/><use xlink:href="#e" x="18.5" y="269.352"/><use xlink:href="#f" x="23" y="269.352"/><use xlink:href="#g" x="34.25" y="269.352"/><use xlink:href="#h" x="41.75" y="269.352"/><use xlink:href="#i" x="48.5" y="269.352"/><use xlink:href="#e" x="51.5" y="269.352"/><use xlink:href="#j" x="55.25" y="269.352"/><use xlink:href="#h" x="62.75" y="269.352"/><use xlink:href="#e" x="69.5" y="269.352"/><use xlink:href="#i" x="74" y="269.352"/><use xlink:href="#k" x="77" y="269.352"/><use xlink:href="#l" x="89" y="269.352"/><use xlink:href="#m" x="97.25" y="269.352"/><use xlink:href="#n" x="105.5" y="269.352"/><use xlink:href="#j" x="109.25" y="269.352"/><use xlink:href="#o" x="116.75" y="269.352"/><use xlink:href="#p" x="124.25" y="269.352"/><use xlink:href="#j" x="131" y="269.352"/><use xlink:href="#q" x="138.5" y="269.352"/><use xlink:href="#r" x="140.75" y="269.352"/><use xlink:href="#q" x="149.75" y="269.352"/><use xlink:href="#r" x="152" y="269.352"/><use xlink:href="#m" x="161.75" y="269.352"/><use xlink:href="#n" x="170" y="269.352"/><use xlink:href="#s" x="174.5" y="269.352"/><use xlink:href="#d" x="179" y="269.352"/><use xlink:href="#t" x="182" y="269.352"/><use xlink:href="#s" x="188" y="269.352"/><use xlink:href="#n" x="192.5" y="269.352"/><use xlink:href="#d" x="197" y="269.352"/><use xlink:href="#t" x="200" y="269.352"/><use xlink:href="#u" x="206" y="269.352"/><use xlink:href="#v" x="212.75" y="269.352"/><use xlink:href="#v" x="220.25" y="269.352"/><use xlink:href="#s" x="227.75" y="269.352"/><use xlink:href="#i" x="232.25" y="269.352"/><use xlink:href="#w" x="235.25" y="269.352"/><use xlink:href="#x" x="239.75" y="269.352"/><use xlink:href="#g" x="247.25" y="269.352"/><use xlink:href="#e" x="254.75" y="269.352"/><use xlink:href="#p" x="258.5" y="269.352"/><use xlink:href="#x" x="265.25" y="269.352"/><use xlink:href="#f" x="272.75" y="269.352"/><use xlink:href="#j" x="284" y="269.352"/><use xlink:href="#i" x="291.5" y="269.352"/><use xlink:href="#y" x="294.5" y="269.352"/><use xlink:href="#j" x="302" y="269.352"/><use xlink:href="#s" x="309.5" y="269.352"/><use xlink:href="#f" x="314" y="269.352"/><use xlink:href="#d" x="325.25" y="269.352"/><use xlink:href="#e" x="328.25" y="269.352"/><use xlink:href="#e" x="332.75" y="269.352"/><use xlink:href="#j" x="336.5" y="269.352"/><use xlink:href="#v" x="344" y="269.352"/><use xlink:href="#z" x="351.5" y="269.352"/></g><g fill="none" stroke="#FFF" stroke-linecap="round" stroke-linejoin="round" stroke-width="2"><use xlink:href="#u" x="58.875" y="17.301"/><use xlink:href="#A" x="65.625" y="17.301"/><use xlink:href="#i" x="68.625" y="17.301"/><use xlink:href="#B" x="71.625" y="17.301"/><use xlink:href="#C" x="84.375" y="17.301"/><use xlink:href="#D" x="90.375" y="17.301"/><use xlink:href="#E" x="98.625" y="17.301"/></g><g fill="#1C1E21"><use xlink:href="#u" x="58.875" y="17.301"/><use xlink:href="#A" x="65.625" y="17.301"/><use xlink:href="#i" x="68.625" y="17.301"/><use xlink:href="#B" x="71.625" y="17.301"/><use xlink:href="#C" x="84.375" y="17.301"/><use xlink:href="#D" x="90.375" y="17.301"/><use xlink:href="#E" x="98.625" y="17.301"/></g><g fill="none" stroke="#FFF" stroke-linecap="round" stroke-linejoin="round" stroke-width="2"><use xlink:href="#p" x="58.5" y="92.898"/><use xlink:href="#A" x="65.25" y="92.898"/><use xlink:href="#i" x="68.25" y="92.898"/><use xlink:href="#B" x="71.25" y="92.898"/><use xlink:href="#F" x="84" y="92.898"/><use xlink:href="#D" x="90.75" y="92.898"/><use xlink:href="#E" x="99" y="92.898"/></g><g fill="#1C1E21"><use xlink:href="#p" x="58.5" y="92.898"/><use xlink:href="#A" x="65.25" y="92.898"/><use xlink:href="#i" x="68.25" y="92.898"/><use xlink:href="#B" x="71.25" y="92.898"/><use xlink:href="#F" x="84" y="92.898"/><use xlink:href="#D" x="90.75" y="92.898"/><use xlink:href="#E" x="99" y="92.898"/></g><g fill="none" stroke="#FFF" stroke-linecap="round" stroke-linejoin="round" stroke-width="2"><use xlink:href="#n" x="26.25" y="45.102"/><use xlink:href="#j" x="30" y="45.102"/><use xlink:href="#o" x="37.5" y="45.102"/><use xlink:href="#p" x="45" y="45.102"/><use xlink:href="#j" x="51.75" y="45.102"/></g><g fill="#34C759"><use xlink:href="#n" x="26.25" y="45.102"/><use xlink:href="#j" x="30" y="45.102"/><use xlink:href="#o" x="37.5" y="45.102"/><use xlink:href="#p" x="45" y="45.102"/><use xlink:href="#j" x="51.75" y="45.102"/></g><g fill="none" stroke="#FFF" stroke-linecap="round" stroke-linejoin="round" stroke-width="2"><use xlink:href="#y" x="59.25" y="45.102"/><use xlink:href="#y" x="66.75" y="45.102"/><use xlink:href="#x" x="74.25" y="45.102"/></g><g fill="#5856D6"><use xlink:href="#y" x="59.25" y="45.102"/><use xlink:href="#y" x="66.75" y="45.102"/><use xlink:href="#x" x="74.25" y="45.102"/></g><g fill="none" stroke="#FFF" stroke-linecap="round" stroke-linejoin="round" stroke-width="2"><use xlink:href="#v" x="276.375" y="17.301"/><use xlink:href="#A" x="283.875" y="17.301"/><use xlink:href="#i" x="286.875" y="17.301"/><use xlink:href="#G" x="289.875" y="17.301"/><use xlink:href="#F" x="298.125" y="17.301"/><use xlink:href="#D" x="304.875" y="17.301"/><use xlink:href="#E" x="313.125" y="17.301"/></g><g fill="#1C1E21"><use xlink:href="#v" x="276.375" y="17.301"/><use xlink:href="#A" x="283.875" y="17.301"/><use xlink:href="#i" x="286.875" y="17.301"/><use xlink:href="#G" x="289.875" y="17.301"/><use xlink:href="#F" x="298.125" y="17.301"/><use xlink:href="#D" x="304.875" y="17.301"/><use xlink:href="#E" x="313.125" y="17.301"/></g><g fill="none" stroke="#FFF" stroke-linecap="round" stroke-linejoin="round" stroke-width="2"><use xlink:href="#s" x="180.414" y="46.594"/><use xlink:href="#n" x="184.914" y="46.594"/></g><g fill="#FF3B30"><use xlink:href="#s" x="180.414" y="46.594"/><use xlink:href="#n" x="184.914" y="46.594"/></g><g fill="none" stroke="#FFF" stroke-linecap="round" stroke-linejoin="round" stroke-width="2"><use xlink:href="#j" x="273" y="92.898"/><use xlink:href="#A" x="280.5" y="92.898"/><use xlink:href="#i" x="283.5" y="92.898"/><use xlink:href="#B" x="286.5" y="92.898"/><use xlink:href="#F" x="299.25" y="92.898"/><use xlink:href="#D" x="306" y="92.898"/><use xlink:href="#H" x="314.25" y="92.898"/></g><g fill="#1C1E21"><use xlink:href="#j" x="273" y="92.898"/><use xlink:href="#A" x="280.5" y="92.898"/><use xlink:href="#i" x="283.5" y="92.898"/><use xlink:href="#B" x="286.5" y="92.898"/><use xlink:href="#F" x="299.25" y="92.898"/><use xlink:href="#D" x="306" y="92.898"/><use xlink:href="#H" x="314.25" y="92.898"/></g><g fill="none" stroke="#FFF" stroke-linecap="round" stroke-linejoin="round" stroke-width="2"><use xlink:href="#p" x="175.598" y="84.273"/><use xlink:href="#x" x="182.348" y="84.273"/></g><g fill="#007AFF"><use xlink:href="#p" x="175.598" y="84.273"/><use xlink:href="#x" x="182.348" y="84.273"/></g><g fill="none" stroke="#FFF" stroke-linecap="round" stroke-linejoin="round" stroke-width="2"><use xlink:href="#n" x="266.25" y="45.102"/><use xlink:href="#s" x="270.75" y="45.102"/></g><g fill="#FF9500"><use xlink:href="#n" x="266.25" y="45.102"/><use xlink:href="#s" x="270.75" y="45.102"/></g><g fill="none" stroke="#FFF" stroke-linecap="round" stroke-linejoin="round" stroke-width="2"><use xlink:href="#y" x="275.25" y="45.102"/><use xlink:href="#y" x="282.75" y="45.102"/><use xlink:href="#x" x="290.25" y="45.102"/></g><g fill="#5856D6"><use xlink:href="#y" x="275.25" y="45.102"/><use xlink:href="#y" x="282.75" y="45.102"/><use xlink:href="#x" x="290.25" y="45.102"/></g><g fill="none" stroke="#FFF" stroke-linecap="round" stroke-linejoin="round" stroke-width="2"><use xlink:href="#n" x="276.75" y="168.5"/><use xlink:href="#A" x="281.25" y="168.5"/><use xlink:href="#i" x="284.25" y="168.5"/><use xlink:href="#G" x="287.25" y="168.5"/><use xlink:href="#F" x="295.5" y="168.5"/><use xlink:href="#D" x="302.25" y="168.5"/><use xlink:href="#H" x="310.5" y="168.5"/></g><g fill="#1C1E21"><use xlink:href="#n" x="276.75" y="168.5"/><use xlink:href="#A" x="281.25" y="168.5"/><use xlink:href="#i" x="284.25" y="168.5"/><use xlink:href="#G" x="287.25" y="168.5"/><use xlink:href="#F" x="295.5" y="168.5"/><use xlink:href="#D" x="302.25" y="168.5"/><use xlink:href="#H" x="310.5" y="168.5"/></g><g fill="none" stroke="#FFF" stroke-linecap="round" stroke-linejoin="round" stroke-width="2"><use xlink:href="#s" x="288.75" y="121.699"/><use xlink:href="#n" x="293.25" y="121.699"/></g><g fill="#FF3B30"><use xlink:href="#s" x="288.75" y="121.699"/><use xlink:href="#n" x="293.25" y="121.699"/></g><g fill="none" stroke="#FFF" stroke-linecap="round" stroke-linejoin="round" stroke-width="2"><use xlink:href="#d" x="277.875" y="244.102"/><use xlink:href="#A" x="280.875" y="244.102"/><use xlink:href="#i" x="283.875" y="244.102"/><use xlink:href="#G" x="286.875" y="244.102"/><use xlink:href="#C" x="295.125" y="244.102"/><use xlink:href="#D" x="301.125" y="244.102"/><use xlink:href="#I" x="309.375" y="244.102"/></g><g fill="#1C1E21"><use xlink:href="#d" x="277.875" y="244.102"/><use xlink:href="#A" x="280.875" y="244.102"/><use xlink:href="#i" x="283.875" y="244.102"/><use xlink:href="#G" x="286.875" y="244.102"/><use xlink:href="#C" x="295.125" y="244.102"/><use xlink:href="#D" x="301.125" y="244.102"/><use xlink:href="#I" x="309.375" y="244.102"/></g><g fill="none" stroke="#FFF" stroke-linecap="round" stroke-linejoin="round" stroke-width="2"><use xlink:href="#u" x="249" y="196.301"/><use xlink:href="#v" x="255.75" y="196.301"/><use xlink:href="#v" x="263.25" y="196.301"/><use xlink:href="#s" x="270.75" y="196.301"/></g><g fill="#5856D6"><use xlink:href="#u" x="249" y="196.301"/><use xlink:href="#v" x="255.75" y="196.301"/><use xlink:href="#v" x="263.25" y="196.301"/><use xlink:href="#s" x="270.75" y="196.301"/></g><g fill="none" stroke="#FFF" stroke-linecap="round" stroke-linejoin="round" stroke-width="2"><use xlink:href="#y" x="275.25" y="196.301"/><use xlink:href="#y" x="282.75" y="196.301"/><use xlink:href="#x" x="290.25" y="196.301"/></g><g fill="#5856D6"><use xlink:href="#y" x="275.25" y="196.301"/><use xlink:href="#y" x="282.75" y="196.301"/><use xlink:href="#x" x="290.25" y="196.301"/></g><g fill="none" stroke="#FFF" stroke-linecap="round" stroke-linejoin="round" stroke-width="2"><use xlink:href="#n" x="180.621" y="121.941"/><use xlink:href="#s" x="185.121" y="121.941"/></g><g fill="#FF9500"><use xlink:href="#n" x="180.621" y="121.941"/><use xlink:href="#s" x="185.121" y="121.941"/></g></svg>