<?xml version="1.0" encoding="UTF-8" standalone="no"?>
<svg
   width="800"
   height="84"
   viewBox="0 0 800 84"
   class="WaveDrom"
   version="1.1"
   id="svg123"
   xmlns="http://www.w3.org/2000/svg"
   xmlns:svg="http://www.w3.org/2000/svg">
  <defs
     id="defs123" />
  <g
     transform="translate(0.5,0.5)"
     text-anchor="middle"
     font-size="14"
     fill="#1C1E21"
     font-family="'M PLUS 1p','MPLUS1p-Regular',monospace"
     font-weight="normal"
     id="g123">
    <g
       transform="translate(4,21)"
       id="g122">
      <g
         stroke="#1C1E21"
         stroke-width="1"
         stroke-linecap="round"
         id="g54">
        <line
           x2="791"
           id="line1" />
        <line
           y2="31"
           id="line2" />
        <line
           x2="791"
           y1="31"
           y2="31"
           id="line3" />
        <line
           x1="791"
           x2="791"
           y2="31"
           id="line4" />
        <line
           x1="766"
           x2="766"
           y2="3"
           id="line5" />
        <line
           x1="766"
           x2="766"
           y1="31"
           y2="28"
           id="line6" />
        <line
           x1="742"
           x2="742"
           y2="3"
           id="line7" />
        <line
           x1="742"
           x2="742"
           y1="31"
           y2="28"
           id="line8" />
        <line
           x1="717"
           x2="717"
           y2="3"
           id="line9" />
        <line
           x1="717"
           x2="717"
           y1="31"
           y2="28"
           id="line10" />
        <line
           x1="692"
           x2="692"
           y2="3"
           id="line11" />
        <line
           x1="692"
           x2="692"
           y1="31"
           y2="28"
           id="line12" />
        <line
           x1="667"
           x2="667"
           y2="3"
           id="line13" />
        <line
           x1="667"
           x2="667"
           y1="31"
           y2="28"
           id="line14" />
        <line
           x1="643"
           x2="643"
           y2="3"
           id="line15" />
        <line
           x1="643"
           x2="643"
           y1="31"
           y2="28"
           id="line16" />
        <line
           x1="618"
           x2="618"
           y2="31"
           id="line17" />
        <line
           x1="593"
           x2="593"
           y2="3"
           id="line18" />
        <line
           x1="593"
           x2="593"
           y1="31"
           y2="28"
           id="line19" />
        <line
           x1="569"
           x2="569"
           y2="3"
           id="line20" />
        <line
           x1="569"
           x2="569"
           y1="31"
           y2="28"
           id="line21" />
        <line
           x1="544"
           x2="544"
           y2="3"
           id="line22" />
        <line
           x1="544"
           x2="544"
           y1="31"
           y2="28"
           id="line23" />
        <line
           x1="519"
           x2="519"
           y2="3"
           id="line24" />
        <line
           x1="519"
           x2="519"
           y1="31"
           y2="28"
           id="line25" />
        <line
           x1="494"
           x2="494"
           y2="31"
           id="line26" />
        <line
           x1="470"
           x2="470"
           y2="3"
           id="line27" />
        <line
           x1="470"
           x2="470"
           y1="31"
           y2="28"
           id="line28" />
        <line
           x1="445"
           x2="445"
           y2="3"
           id="line29" />
        <line
           x1="445"
           x2="445"
           y1="31"
           y2="28"
           id="line30" />
        <line
           x1="420"
           x2="420"
           y2="31"
           id="line31" />
        <line
           x1="396"
           x2="396"
           y2="3"
           id="line32" />
        <line
           x1="396"
           x2="396"
           y1="31"
           y2="28"
           id="line33" />
        <line
           x1="371"
           x2="371"
           y2="3"
           id="line34" />
        <line
           x1="371"
           x2="371"
           y1="31"
           y2="28"
           id="line35" />
        <line
           x1="346"
           x2="346"
           y2="3"
           id="line36" />
        <line
           x1="346"
           x2="346"
           y1="31"
           y2="28"
           id="line37" />
        <line
           x1="321"
           x2="321"
           y2="3"
           id="line38" />
        <line
           x1="321"
           x2="321"
           y1="31"
           y2="28"
           id="line39" />
        <line
           x1="297"
           x2="297"
           y2="31"
           id="line40" />
        <line
           x1="272"
           x2="272"
           y2="31"
           id="line41" />
        <line
           x1="247"
           x2="247"
           y2="31"
           id="line42" />
        <line
           x1="222"
           x2="222"
           y2="31"
           id="line43" />
        <line
           x1="198"
           x2="198"
           y2="31"
           id="line44" />
        <line
           x1="173"
           x2="173"
           y2="31"
           id="line45" />
        <line
           x1="148"
           x2="148"
           y2="31"
           id="line46" />
        <line
           x1="124"
           x2="124"
           y2="31"
           id="line47" />
        <line
           x1="99"
           x2="99"
           y2="31"
           id="line48" />
        <line
           x1="74"
           x2="74"
           y2="3"
           id="line49" />
        <line
           x1="74"
           x2="74"
           y1="31"
           y2="28"
           id="line50" />
        <line
           x1="49"
           x2="49"
           y2="3"
           id="line51" />
        <line
           x1="49"
           x2="49"
           y1="31"
           y2="28"
           id="line52" />
        <line
           x1="25"
           x2="25"
           y2="3"
           id="line53" />
        <line
           x1="25"
           x2="25"
           y1="31"
           y2="28"
           id="line54" />
      </g>
      <g
         id="g121">
        <g
           id="g55" />
        <g
           transform="translate(12,-11)"
           id="g74">
          <g
             transform="translate(766)"
             id="g56">
            <path
               d="m -0.01400587,-4.36 q 3.69599997,0 3.69599997,5.25 0,5.25 -3.69599997,5.25 -1.75000003,0 -2.71600003,-1.218 -0.966,-1.218 -0.966,-4.032 0,-2.814 0.966,-4.032 0.966,-1.218 2.71600003,-1.218 z M -1.9460059,4.208 q 0.644,1.022 1.93200003,1.022 1.28799997,0 1.93199997,-1.022 0.644,-1.036 0.644,-3.318 0,-2.282 -0.644,-3.304 -0.644,-1.036 -1.93199997,-1.036 -1.28800003,0 -1.93200003,1.036 -0.63,1.022 -0.63,3.304 0,2.282 0.63,3.318 z"
               id="text55"
               style="font-size:14px"
               aria-label="0" />
          </g>
          <g
             transform="translate(618)"
             id="g57">
            <path
               d="m 0.04199413,0.008 q -1.07800003,0 -1.77800003,0.7 -0.7,0.7 -0.7,1.792 0,1.302 0.658,2.002 0.658,0.7 1.82000003,0.7 1.18999997,0 1.84799997,-0.7 0.658,-0.7 0.658,-2.002 0,-1.148 -0.686,-1.82 -0.672,-0.672 -1.81999997,-0.672 z m 0,6.132 q -1.69400003,0 -2.66000003,-1.022 -0.952,-1.022 -0.952,-2.94 0,-2.842 1.372,-4.578 1.38600003,-1.736 3.808,-1.96 l 0.196,0.938 q -3.22,0.364 -4.088,3.626 l 0.014,0.014 q 0.966,-1.078 2.54800003,-1.078 1.55399997,0 2.46399997,0.91 0.924,0.896 0.924,2.45 0,1.666 -0.994,2.66 -0.994,0.98 -2.63199997,0.98 z"
               id="text56"
               style="font-size:14px"
               aria-label="6" />
          </g>
          <g
             transform="translate(593)"
             id="g58">
            <path
               d="m -3.2480059,-4.22 h 6.58 v 0.938 Q 0.88199413,0.736 -0.72800587,6 H -1.8900059 q 1.62400003,-5.11 4.13,-9.254 v -0.028 h -5.488 z"
               id="text57"
               style="font-size:14px"
               aria-label="7" />
          </g>
          <g
             transform="translate(494)"
             id="g59">
            <path
               d="m -4.3260117,6 v -8.876 h -0.028 l -2.758,2.548 -0.434,-0.91 3.22,-2.982 h 1.12 V 6 Z M 4.354,6 V -2.876 H 4.326 l -2.758,2.548 -0.434,-0.91 3.22,-2.982 h 1.12 V 6 Z"
               id="text58"
               style="font-size:14px"
               aria-label="11" />
          </g>
          <g
             transform="translate(470)"
             id="g60">
            <path
               d="m -4.3260117,6 v -8.876 h -0.028 l -2.758,2.548 -0.434,-0.91 3.22,-2.982 h 1.12 V 6 Z M 4.13,-3.408 q -1.386,0 -2.772,0.966 L 1.022,-3.338 Q 2.45,-4.36 4.27,-4.36 q 1.498,0 2.324,0.77 0.826,0.756 0.826,2.128 0,1.372 -0.994,2.772 -0.994,1.4 -3.724,3.724 v 0.028 h 4.76 V 6 h -6.3 V 5.062 Q 4.144,2.598 5.194,1.226 6.258,-0.16 6.258,-1.378 6.258,-2.372 5.712,-2.89 5.18,-3.408 4.13,-3.408 Z"
               id="text59"
               style="font-size:14px"
               aria-label="12" />
          </g>
          <g
             transform="translate(420)"
             id="g61">
            <path
               d="m -4.3260117,6 v -8.876 h -0.028 l -2.758,2.548 -0.434,-0.91 3.22,-2.982 h 1.12 V 6 Z M 5.11,2.71 V -2.582 H 5.082 L 1.358,2.682 V 2.71 Z m 1.106,0 H 7.952 V 3.62 H 6.216 V 6 H 5.11 V 3.62 H 0.21 V 2.71 l 4.9,-6.93 h 1.106 z"
               id="text60"
               style="font-size:14px"
               aria-label="14" />
          </g>
          <g
             transform="translate(396)"
             id="g62">
            <path
               d="m -4.3260117,6 v -8.876 h -0.028 l -2.758,2.548 -0.434,-0.91 3.22,-2.982 h 1.12 V 6 Z M 7.168,-3.282 H 2.744 L 2.548,0.022 h 0.028 q 0.826,-0.49 1.862,-0.49 1.498,0 2.324,0.812 0.826,0.812 0.826,2.296 0,1.708 -0.966,2.604 Q 5.67,6.14 3.822,6.14 2.394,6.14 1.19,5.468 L 1.47,4.544 q 1.176,0.658 2.352,0.658 2.646,0 2.646,-2.562 0,-1.078 -0.574,-1.638 Q 5.32,0.428 4.242,0.428 3.136,0.428 2.408,1.072 H 1.428 L 1.736,-4.22 h 5.432 z"
               id="text61"
               style="font-size:14px"
               aria-label="15" />
          </g>
          <g
             transform="translate(297)"
             id="g63">
            <path
               d="m -4.3260117,6 v -8.876 h -0.028 l -2.758,2.548 -0.434,-0.91 3.22,-2.982 h 1.12 V 6 Z M 4.284,-4.36 q 1.708,0 2.66,1.022 0.966,1.008 0.966,2.87 0,2.926 -1.414,4.648 -1.4,1.722 -3.906,1.96 L 2.394,5.202 Q 4.102,5.02 5.138,4.124 6.174,3.214 6.622,1.562 L 6.594,1.548 Q 5.614,2.64 4.046,2.64 2.492,2.64 1.582,1.73 0.672,0.806 0.672,-0.79 q 0,-1.624 0.98,-2.59 0.994,-0.98 2.632,-0.98 z m 0,0.938 q -1.19,0 -1.848,0.686 -0.644,0.686 -0.644,1.946 0,1.204 0.672,1.89 0.672,0.672 1.82,0.672 1.078,0 1.778,-0.714 0.7,-0.714 0.7,-1.848 0,-1.246 -0.658,-1.932 -0.658,-0.7 -1.82,-0.7 z"
               id="text62"
               style="font-size:14px"
               aria-label="19" />
          </g>
          <g
             transform="translate(272)"
             id="g64">
            <path
               d="m -4.5500117,-3.408 q -1.386,0 -2.772,0.966 l -0.336,-0.896 q 1.428,-1.022 3.248,-1.022 1.498,0 2.324,0.77 0.826,0.756 0.826,2.128 0,1.372 -0.994,2.772 -0.994,1.4 -3.724,3.724 v 0.028 h 4.76 V 6 h -6.3 V 5.062 q 2.982,-2.464 4.032,-3.836 1.064,-1.386 1.064,-2.604 0,-0.994 -0.546,-1.512 -0.532,-0.518 -1.582,-0.518 z M 4.326,-4.36 q 3.696,0 3.696,5.25 0,5.25 -3.696,5.25 Q 2.576,6.14 1.61,4.922 0.644,3.704 0.644,0.89 0.644,-1.924 1.61,-3.142 2.576,-4.36 4.326,-4.36 Z M 2.394,4.208 Q 3.038,5.23 4.326,5.23 5.614,5.23 6.258,4.208 6.902,3.172 6.902,0.89 6.902,-1.392 6.258,-2.414 5.614,-3.45 4.326,-3.45 q -1.288,0 -1.932,1.036 -0.63,1.022 -0.63,3.304 0,2.282 0.63,3.318 z"
               id="text63"
               style="font-size:14px"
               aria-label="20" />
          </g>
          <g
             transform="translate(247)"
             id="g65">
            <path
               d="m -4.5500117,-3.408 q -1.386,0 -2.772,0.966 l -0.336,-0.896 q 1.428,-1.022 3.248,-1.022 1.498,0 2.324,0.77 0.826,0.756 0.826,2.128 0,1.372 -0.994,2.772 -0.994,1.4 -3.724,3.724 v 0.028 h 4.76 V 6 h -6.3 V 5.062 q 2.982,-2.464 4.032,-3.836 1.064,-1.386 1.064,-2.604 0,-0.994 -0.546,-1.512 -0.532,-0.518 -1.582,-0.518 z M 4.354,6 V -2.876 H 4.326 l -2.758,2.548 -0.434,-0.91 3.22,-2.982 h 1.12 V 6 Z"
               id="text64"
               style="font-size:14px"
               aria-label="21" />
          </g>
          <g
             transform="translate(222)"
             id="g66">
            <path
               d="m -4.5500117,-3.408 q -1.386,0 -2.772,0.966 l -0.336,-0.896 q 1.428,-1.022 3.248,-1.022 1.498,0 2.324,0.77 0.826,0.756 0.826,2.128 0,1.372 -0.994,2.772 -0.994,1.4 -3.724,3.724 v 0.028 h 4.76 V 6 h -6.3 V 5.062 q 2.982,-2.464 4.032,-3.836 1.064,-1.386 1.064,-2.604 0,-0.994 -0.546,-1.512 -0.532,-0.518 -1.582,-0.518 z m 8.6800117,0 q -1.386,0 -2.772,0.966 L 1.022,-3.338 Q 2.45,-4.36 4.27,-4.36 q 1.498,0 2.324,0.77 0.826,0.756 0.826,2.128 0,1.372 -0.994,2.772 -0.994,1.4 -3.724,3.724 v 0.028 h 4.76 V 6 h -6.3 V 5.062 Q 4.144,2.598 5.194,1.226 6.258,-0.16 6.258,-1.378 6.258,-2.372 5.712,-2.89 5.18,-3.408 4.13,-3.408 Z"
               id="text65"
               style="font-size:14px"
               aria-label="22" />
          </g>
          <g
             transform="translate(198)"
             id="g67">
            <path
               d="m -4.5500117,-3.408 q -1.386,0 -2.772,0.966 l -0.336,-0.896 q 1.428,-1.022 3.248,-1.022 1.498,0 2.324,0.77 0.826,0.756 0.826,2.128 0,1.372 -0.994,2.772 -0.994,1.4 -3.724,3.724 v 0.028 h 4.76 V 6 h -6.3 V 5.062 q 2.982,-2.464 4.032,-3.836 1.064,-1.386 1.064,-2.604 0,-0.994 -0.546,-1.512 -0.532,-0.518 -1.582,-0.518 z M 1.19,-4.22 h 6.132 v 0.938 l -3.36,3.29 v 0.028 h 0.434 q 1.484,0 2.268,0.714 0.798,0.714 0.798,2.072 0,1.596 -0.952,2.464 Q 5.572,6.14 3.822,6.14 2.31,6.14 1.162,5.412 l 0.336,-0.91 q 1.176,0.7 2.324,0.7 1.232,0 1.876,-0.602 Q 6.342,3.998 6.342,2.822 6.342,1.828 5.67,1.352 5.012,0.862 3.556,0.862 H 2.534 V -0.006 L 5.88,-3.254 V -3.282 H 1.19 Z"
               id="text66"
               style="font-size:14px"
               aria-label="23" />
          </g>
          <g
             transform="translate(173)"
             id="g68">
            <path
               d="m -4.5500117,-3.408 q -1.386,0 -2.772,0.966 l -0.336,-0.896 q 1.428,-1.022 3.248,-1.022 1.498,0 2.324,0.77 0.826,0.756 0.826,2.128 0,1.372 -0.994,2.772 -0.994,1.4 -3.724,3.724 v 0.028 h 4.76 V 6 h -6.3 V 5.062 q 2.982,-2.464 4.032,-3.836 1.064,-1.386 1.064,-2.604 0,-0.994 -0.546,-1.512 -0.532,-0.518 -1.582,-0.518 z M 5.11,2.71 V -2.582 H 5.082 L 1.358,2.682 V 2.71 Z m 1.106,0 H 7.952 V 3.62 H 6.216 V 6 H 5.11 V 3.62 H 0.21 V 2.71 l 4.9,-6.93 h 1.106 z"
               id="text67"
               style="font-size:14px"
               aria-label="24" />
          </g>
          <g
             transform="translate(148)"
             id="g69">
            <path
               d="m -4.5500117,-3.408 q -1.386,0 -2.772,0.966 l -0.336,-0.896 q 1.428,-1.022 3.248,-1.022 1.498,0 2.324,0.77 0.826,0.756 0.826,2.128 0,1.372 -0.994,2.772 -0.994,1.4 -3.724,3.724 v 0.028 h 4.76 V 6 h -6.3 V 5.062 q 2.982,-2.464 4.032,-3.836 1.064,-1.386 1.064,-2.604 0,-0.994 -0.546,-1.512 -0.532,-0.518 -1.582,-0.518 z M 7.168,-3.282 H 2.744 L 2.548,0.022 h 0.028 q 0.826,-0.49 1.862,-0.49 1.498,0 2.324,0.812 0.826,0.812 0.826,2.296 0,1.708 -0.966,2.604 Q 5.67,6.14 3.822,6.14 2.394,6.14 1.19,5.468 L 1.47,4.544 q 1.176,0.658 2.352,0.658 2.646,0 2.646,-2.562 0,-1.078 -0.574,-1.638 Q 5.32,0.428 4.242,0.428 3.136,0.428 2.408,1.072 H 1.428 L 1.736,-4.22 h 5.432 z"
               id="text68"
               style="font-size:14px"
               aria-label="25" />
          </g>
          <g
             transform="translate(124)"
             id="g70">
            <path
               d="m -4.5500117,-3.408 q -1.386,0 -2.772,0.966 l -0.336,-0.896 q 1.428,-1.022 3.248,-1.022 1.498,0 2.324,0.77 0.826,0.756 0.826,2.128 0,1.372 -0.994,2.772 -0.994,1.4 -3.724,3.724 v 0.028 h 4.76 V 6 h -6.3 V 5.062 q 2.982,-2.464 4.032,-3.836 1.064,-1.386 1.064,-2.604 0,-0.994 -0.546,-1.512 -0.532,-0.518 -1.582,-0.518 z M 4.382,0.008 q -1.078,0 -1.778,0.7 -0.7,0.7 -0.7,1.792 0,1.302 0.658,2.002 0.658,0.7 1.82,0.7 1.19,0 1.848,-0.7 Q 6.888,3.802 6.888,2.5 6.888,1.352 6.202,0.68 5.53,0.008 4.382,0.008 Z m 0,6.132 Q 2.688,6.14 1.722,5.118 0.77,4.096 0.77,2.178 0.77,-0.664 2.142,-2.4 3.528,-4.136 5.95,-4.36 l 0.196,0.938 Q 2.926,-3.058 2.058,0.204 L 2.072,0.218 Q 3.038,-0.86 4.62,-0.86 q 1.554,0 2.464,0.91 0.924,0.896 0.924,2.45 0,1.666 -0.994,2.66 Q 6.02,6.14 4.382,6.14 Z"
               id="text69"
               style="font-size:14px"
               aria-label="26" />
          </g>
          <g
             transform="translate(99)"
             id="g71">
            <path
               d="m -4.5500117,-3.408 q -1.386,0 -2.772,0.966 l -0.336,-0.896 q 1.428,-1.022 3.248,-1.022 1.498,0 2.324,0.77 0.826,0.756 0.826,2.128 0,1.372 -0.994,2.772 -0.994,1.4 -3.724,3.724 v 0.028 h 4.76 V 6 h -6.3 V 5.062 q 2.982,-2.464 4.032,-3.836 1.064,-1.386 1.064,-2.604 0,-0.994 -0.546,-1.512 -0.532,-0.518 -1.582,-0.518 z M 1.092,-4.22 h 6.58 v 0.938 Q 5.222,0.736 3.612,6 H 2.45 Q 4.074,0.89 6.58,-3.254 V -3.282 H 1.092 Z"
               id="text70"
               style="font-size:14px"
               aria-label="27" />
          </g>
          <g
             transform="translate(74)"
             id="g72">
            <path
               d="m -4.5500117,-3.408 q -1.386,0 -2.772,0.966 l -0.336,-0.896 q 1.428,-1.022 3.248,-1.022 1.498,0 2.324,0.77 0.826,0.756 0.826,2.128 0,1.372 -0.994,2.772 -0.994,1.4 -3.724,3.724 v 0.028 h 4.76 V 6 h -6.3 V 5.062 q 2.982,-2.464 4.032,-3.836 1.064,-1.386 1.064,-2.604 0,-0.994 -0.546,-1.512 -0.532,-0.518 -1.582,-0.518 z M 1.89,-3.688 q 0.896,-0.672 2.436,-0.672 1.54,0 2.422,0.672 0.896,0.672 0.896,1.778 0,1.694 -1.96,2.394 v 0.028 q 2.338,0.686 2.338,2.73 0,1.33 -0.994,2.114 Q 6.048,6.14 4.326,6.14 2.604,6.14 1.624,5.356 0.644,4.572 0.644,3.242 q 0,-0.896 0.602,-1.596 0.602,-0.7 1.722,-1.05 V 0.568 Q 2.03,0.218 1.512,-0.426 1.008,-1.07 1.008,-1.91 q 0,-1.106 0.882,-1.778 z M 4.326,0.12 q 1.078,-0.224 1.68,-0.728 0.602,-0.518 0.602,-1.204 0,-0.756 -0.602,-1.204 -0.602,-0.448 -1.68,-0.448 -1.064,0 -1.652,0.448 -0.574,0.434 -0.574,1.204 0,0.7 0.574,1.218 0.588,0.504 1.652,0.714 z M 4.284,1.002 Q 3.01,1.254 2.352,1.828 1.708,2.402 1.708,3.2 q 0,0.952 0.7,1.498 0.7,0.546 1.918,0.546 1.218,0 1.904,-0.546 0.686,-0.56 0.686,-1.498 0,-1.694 -2.632,-2.198 z"
               id="text71"
               style="font-size:14px"
               aria-label="28" />
          </g>
          <g
             transform="translate(0)"
             id="g73">
            <path
               d="m -7.4900117,-4.22 h 6.132 v 0.938 l -3.36,3.29 v 0.028 h 0.434 q 1.484,0 2.268,0.714 0.798,0.714 0.798,2.072 0,1.596 -0.952,2.464 -0.938,0.854 -2.688,0.854 -1.512,0 -2.66,-0.728 l 0.336,-0.91 q 1.176,0.7 2.324,0.7 1.232,0 1.876,-0.602 0.644,-0.602 0.644,-1.778 0,-0.994 -0.672,-1.47 -0.658,-0.49 -2.114,-0.49 h -1.022 v -0.868 l 3.346,-3.248 v -0.028 h -4.69 z M 4.354,6 V -2.876 H 4.326 l -2.758,2.548 -0.434,-0.91 3.22,-2.982 h 1.12 V 6 Z"
               id="text72"
               style="font-size:14px"
               aria-label="31" />
          </g>
        </g>
        <g
           transform="translate(12,15)"
           id="g88">
          <g
             transform="translate(692)"
             id="g75">
            <path
               d="m -17.968988,0.204 q -0.63,-0.784 -1.736,-0.784 -1.106,0 -1.75,0.784 -0.63,0.77 -0.63,2.156 0,1.386 0.63,2.17 0.644,0.77 1.75,0.77 1.106,0 1.736,-0.77 0.644,-0.784 0.644,-2.17 0,-1.386 -0.644,-2.156 z m 0.756,4.914 q -0.938,1.022 -2.492,1.022 -1.554,0 -2.492,-1.022 -0.938,-1.022 -0.938,-2.758 0,-1.736 0.938,-2.758 0.938,-1.022 2.492,-1.022 1.554,0 2.492,1.022 0.938,1.022 0.938,2.758 0,1.736 -0.938,2.758 z m 5.949995,1.022 q -1.582,0 -2.352,-1.274 h -0.028 V 9.08 h -1.022 V -1.28 h 0.98 l 0.014,1.232 h 0.028 q 0.77,-1.372 2.38,-1.372 1.3720005,0 2.1560005,0.98 0.784,0.966 0.784,2.8 0,1.792 -0.812,2.786 -0.798,0.994 -2.1280005,0.994 z m 1.9320005,-3.78 q 0,-1.428 -0.574,-2.184 -0.5600005,-0.756 -1.5820005,-0.756 -0.966,0 -1.568,0.756 -0.588,0.756 -0.588,2.086 v 0.196 q 0,1.358 0.602,2.1 0.602,0.742 1.554,0.742 0.994,0 1.5680005,-0.756 0.588,-0.77 0.588,-2.184 z M -3.31099,-0.566 q -1.232,0 -1.918,0.77 -0.686,0.756 -0.686,2.156 0,1.344 0.714,2.142 0.728,0.798 1.89,0.798 0.98,0 1.876,-0.476 l 0.28,0.826 q -1.05,0.49 -2.198,0.49 -1.624,0 -2.632,-1.022 -1.008,-1.036 -1.008,-2.758 0,-1.778 0.966,-2.772 0.966,-1.008 2.674,-1.008 1.148,0 2.198,0.49 l -0.28,0.854 q -0.938,-0.49 -1.876,-0.49 z m 8.7919911,0.77 q -0.63,-0.784 -1.736,-0.784 -1.106,0 -1.75,0.784 -0.63,0.77 -0.63,2.156 0,1.386 0.63,2.17 0.644,0.77 1.75,0.77 1.106,0 1.736,-0.77 0.644,-0.784 0.644,-2.17 0,-1.386 -0.644,-2.156 z m 0.756,4.914 q -0.938,1.022 -2.492,1.022 -1.554,0 -2.492,-1.022 Q 0.31500107,4.096 0.31500107,2.36 q 0,-1.736 0.93800003,-2.758 0.938,-1.022 2.492,-1.022 1.554,0 2.492,1.022 0.938,1.022 0.938,2.758 0,1.736 -0.938,2.758 z M 10.087,0.19 q -0.574,0.756 -0.574,2.17 0,1.414 0.588,2.184 0.588,0.756 1.582,0.756 0.952,0 1.54,-0.742 0.602,-0.742 0.602,-2.1 V 2.262 q 0,-1.33 -0.602,-2.086 -0.588,-0.756 -1.54,-0.756 -1.022,0 -1.596,0.77 z M 8.505,2.36 q 0,-1.834 0.784,-2.8 0.784,-0.98 2.156,-0.98 1.582,0 2.352,1.33 h 0.028 V -4.5 h 1.022 V 6 h -0.98 L 13.853,4.768 H 13.825 Q 13.055,6.14 11.445,6.14 10.101,6.14 9.303,5.16 8.505,4.166 8.505,2.36 Z m 9.071988,0.392 q 0.028,1.19 0.728,1.876 0.7,0.686 1.82,0.686 1.078,0 2.142,-0.56 l 0.28,0.798 q -1.176,0.588 -2.52,0.588 -1.568,0 -2.534,-1.022 -0.966,-1.022 -0.966,-2.758 0,-1.764 0.896,-2.772 0.91,-1.008 2.464,-1.008 1.512,0 2.338,0.966 0.84,0.952 0.84,2.744 0,0.182 -0.028,0.462 z m 0,-0.812 h 4.48 q -0.014,-1.218 -0.588,-1.876 -0.574,-0.658 -1.582,-0.658 -1.05,0 -1.666,0.672 -0.602,0.658 -0.644,1.862 z"
               id="text74"
               aria-label="opcode" />
          </g>
          <g
             transform="translate(544)"
             id="g76">
            <path
               d="m -6.0269844,-1.28 h 0.994 l 0.028,1.554 h 0.028 q 1.232,-1.694 3.472,-1.694 v 0.882 q -1.554,0 -2.52,0.854 -0.952,0.854 -0.952,2.212 V 6 h -1.05 z m 7.2239812,1.47 q -0.574,0.756 -0.574,2.17 0,1.414 0.588,2.184 0.588,0.756 1.582,0.756 0.952,0 1.54,-0.742 0.602,-0.742 0.602,-2.1 V 2.262 q 0,-1.33 -0.602,-2.086 -0.588,-0.756 -1.54,-0.756 -1.022,0 -1.596,0.77 z m -1.582,2.17 q 0,-1.834 0.784,-2.8 0.784,-0.98 2.156,-0.98 1.582,0 2.352,1.33 h 0.028 V -4.5 h 1.022 V 6 h -0.98 l -0.014,-1.232 h -0.028 q -0.77,1.372 -2.38,1.372 -1.344,0 -2.142,-0.98 -0.798,-0.994 -0.798,-2.8 z"
               id="text75"
               aria-label="rd" />
          </g>
          <g
             transform="translate(445)"
             id="g77">
            <path
               d="m -22.133996,-1 h 1.918 v -0.938 q 0,-2.422 2.324,-2.422 0.644,0 1.316,0.21 l -0.224,0.84 q -0.518,-0.21 -0.994,-0.21 -0.756,0 -1.078,0.364 -0.308,0.35 -0.308,1.218 V -1 h 2.506 v 0.84 h -2.506 V 6 h -1.036 v -6.16 h -1.918 z m 8.105982,-0.28 v 4.522 q 0,1.12 0.364,1.568 0.378,0.448 1.246,0.448 0.812,0 1.47,-0.784 0.672,-0.784 0.672,-1.862 V -1.28 h 1.0219999 V 6 h -0.9799999 l -0.014,-1.302 h -0.028 q -0.42,0.672 -1.078,1.064 -0.644,0.378 -1.4,0.378 -1.176,0 -1.736,-0.658 -0.546,-0.672 -0.546,-2.142 v -4.62 z m 6.8740078,0 h 0.98 l 0.014,1.302 h 0.028 q 0.42,-0.672 1.064,-1.05 0.658,-0.392 1.414,-0.392 1.232,0 1.82,0.77 0.602,0.756 0.602,2.408 V 6 h -1.008 V 1.842 q 0,-1.358 -0.392,-1.876 -0.392,-0.532 -1.344,-0.532 -0.812,0 -1.484,0.812 -0.672,0.798 -0.672,1.862 V 6 h -1.022 z m 11.1440111,0.714 q -1.232,0 -1.918,0.77 -0.686,0.756 -0.686,2.156 0,1.344 0.714,2.142 0.728,0.798 1.89,0.798 0.98,0 1.876,-0.476 l 0.28,0.826 q -1.05,0.49 -2.198,0.49 -1.624,0 -2.632,-1.022 Q 0.30800491,4.082 0.30800491,2.36 q 0,-1.778 0.96599999,-2.772 0.966,-1.008 2.674,-1.008 1.148,0 2.198,0.49 l -0.28,0.854 q -0.938,-0.49 -1.876,-0.49 z M 10.415996,-3.66 V -1 h 2.758 v 0.84 h -2.758 v 3.822 q 0,0.98 0.266,1.316 0.266,0.322 0.994,0.322 0.644,0 1.232,-0.238 l 0.168,0.826 q -0.714,0.252 -1.54,0.252 -1.19,0 -1.6800001,-0.504 -0.49,-0.518 -0.49,-1.778 V -0.16 h -1.61 V -1 h 1.61 v -2.66 z m 4.997988,-0.56 h 6.132 v 0.938 l -3.36,3.29 v 0.028 h 0.434 q 1.484,0 2.268,0.714 0.798,0.714 0.798,2.072 0,1.596 -0.952,2.464 -0.938,0.854 -2.688,0.854 -1.512,0 -2.66,-0.728 l 0.336,-0.91 q 1.176,0.7 2.324,0.7 1.232,0 1.876,-0.602 0.644,-0.602 0.644,-1.778 0,-0.994 -0.672,-1.47 -0.658,-0.49 -2.114,-0.49 h -1.022 v -0.868 l 3.346,-3.248 v -0.028 h -4.69 z"
               id="text76"
               aria-label="funct3" />
          </g>
          <g
             transform="translate(346)"
             id="g78">
            <path
               d="m -9.7999947,-1.28 h 0.994 l 0.028,1.554 h 0.028 q 1.232,-1.694 3.472,-1.694 v 0.882 q -1.554,0 -2.52,0.854 -0.952,0.854 -0.952,2.212 V 6 h -1.05 z m 8.4699812,-0.14 q 1.330000041748,0 2.464,0.56 l -0.22399996,0.826 q -1.078,-0.546 -2.24000004,-0.546 -0.812,0 -1.246,0.294 -0.42,0.294 -0.42,0.826 0,0.504 0.364,0.798 0.378,0.294 1.358,0.462 1.42800004,0.238 2.04400004,0.784 0.62999996,0.546 0.62999996,1.498 0,0.952 -0.72799996,1.512 -0.714,0.546 -2.00200004,0.546 -1.498,0 -2.688,-0.7 l 0.238,-0.826 q 1.148,0.686 2.45,0.686 0.81200004,0 1.24600004,-0.308 0.434,-0.322 0.434,-0.91 0,-0.56 -0.392,-0.868 -0.378,-0.308 -1.34400004,-0.476 -1.386,-0.238 -2.016,-0.756 -0.616,-0.532 -0.616,-1.442 0,-0.896 0.7,-1.428 0.714,-0.532 1.988,-0.532 z M 6.5239829,6 v -8.876 h -0.028 l -2.758,2.548 -0.434,-0.91 3.22,-2.982 h 1.12 V 6 Z"
               id="text77"
               aria-label="rs1" />
          </g>
          <g
             transform="translate(272)"
             id="g79">
            <path
               d="m -6.5939919,-3.45 q -0.966,0 -1.498,0.434 -0.532,0.42 -0.532,1.176 0,1.358 1.988,1.96 1.736,0.504 2.464,1.26 0.742,0.756 0.742,1.96 0,1.358 -0.854,2.086 -0.84,0.714 -2.408,0.714 -1.736,0 -3.08,-0.882 l 0.336,-0.924 q 1.218,0.868 2.744,0.868 1.036,0 1.582,-0.476 0.56,-0.476 0.56,-1.386 0,-0.84 -0.476,-1.33 -0.462,-0.504 -1.638,-0.868 -3.066,-0.91 -3.066,-2.982 0,-1.148 0.826,-1.834 0.84,-0.686 2.31,-0.686 1.582,0 2.94,0.658 l -0.28,0.868 q -1.218,-0.616 -2.66,-0.616 z m 5.64199617,-0.77 2.05800003,9.016 h 0.028 l 2.1,-9.016 h 1.456 l 2.1,9.016 h 0.028 l 2.058,-9.016 h 1.106 L 7.4760043,6 h -1.414 l -2.1,-9.016 h -0.028 L 1.8200043,6 H 0.42000427 L -2.0999957,-4.22 Z"
               id="text78"
               aria-label="SW" />
          </g>
          <g
             transform="translate(247)"
             id="g80">
            <path
               d="m -4.3330056,-3.45 q -0.966,0 -1.498,0.434 -0.532,0.42 -0.532,1.176 0,1.358 1.988,1.96 1.736,0.504 2.464,1.26 0.742,0.756 0.742,1.96 0,1.358 -0.854,2.086 -0.84,0.714 -2.408,0.714 -1.736,0 -3.08,-0.882 l 0.336,-0.924 q 1.218,0.868 2.744,0.868 1.036,0 1.582,-0.476 0.56,-0.476 0.56,-1.386 0,-0.84 -0.476,-1.33 -0.462,-0.504 -1.638,-0.868 -3.066,-0.91 -3.066,-2.982 0,-1.148 0.826,-1.834 0.84,-0.686 2.31,-0.686 1.582,0 2.94,0.658 l -0.28,0.868 q -1.218,-0.616 -2.66,-0.616 z M 0.8609938,6 V -4.15 q 1.218,-0.21 2.618,-0.21 1.96,0 2.954,0.728 1.008,0.714 1.008,2.044 0,1.064 -0.574,1.778 -0.574,0.714 -1.624,0.98 v 0.028 q 0.63,0.336 1.246,1.82 l 1.232,2.982 h -1.162 l -1.204,-2.954 q -0.42,-1.008 -0.798,-1.246 -0.364,-0.252 -1.456,-0.252 h -1.12 V 6 Z m 1.12,-5.348 h 1.12 q 1.666,0 2.45,-0.532 0.784,-0.546 0.784,-1.61 0,-1.96 -2.954,-1.96 -0.742,0 -1.4,0.126 z"
               id="text79"
               aria-label="SR" />
          </g>
          <g
             transform="translate(222)"
             id="g81">
            <path
               d="m -5.473993,-3.45 q -0.966,0 -1.498,0.434 -0.532,0.42 -0.532,1.176 0,1.358 1.988,1.96 1.736,0.504 2.464,1.26 0.742,0.756 0.742,1.96 0,1.358 -0.854,2.086 -0.84,0.714 -2.408,0.714 -1.736,0 -3.08,-0.882 l 0.336,-0.924 q 1.218,0.868 2.744,0.868 1.036,0 1.582,-0.476 0.56,-0.476 0.56,-1.386 0,-0.84 -0.476,-1.33 -0.462,-0.504 -1.638,-0.868 -3.066,-0.91 -3.066,-2.982 0,-1.148 0.826,-1.834 0.84,-0.686 2.31,-0.686 1.582,0 2.94,0.658 l -0.28,0.868 q -1.218,-0.616 -2.66,-0.616 z M 7.5600032,4.712 q -1.358,1.428 -3.612,1.428 -2.254,0 -3.626,-1.428 -1.372,-1.442 -1.372,-3.822 0,-2.38 1.372,-3.808 1.372,-1.442 3.626,-1.442 2.254,0 3.612,1.442 1.372,1.428 1.372,3.808 0,2.38 -1.372,3.822 z m -3.612,0.49 q 1.736,0 2.786,-1.162 1.064,-1.176 1.064,-3.15 0,-1.974 -1.064,-3.136 -1.05,-1.176 -2.786,-1.176 -1.75,0 -2.814,1.176 -1.05,1.162 -1.05,3.136 0,1.974 1.05,3.15 1.064,1.162 2.814,1.162 z"
               id="text80"
               aria-label="SO" />
          </g>
          <g
             transform="translate(198)"
             id="g82">
            <path
               d="m -2.2119957,-3.45 q -0.966,0 -1.498,0.434 -0.532,0.42 -0.532,1.176 0,1.358 1.988,1.96 1.73599997,0.504 2.46399997,1.26 0.742,0.756 0.742,1.96 0,1.358 -0.854,2.086 -0.84,0.714 -2.40799997,0.714 -1.736,0 -3.08,-0.882 l 0.336,-0.924 q 1.218,0.868 2.744,0.868 1.036,0 1.58199997,-0.476 0.56,-0.476 0.56,-1.386 0,-0.84 -0.476,-1.33 -0.46199997,-0.504 -1.63799997,-0.868 -3.066,-0.91 -3.066,-2.982 0,-1.148 0.826,-1.834 0.84,-0.686 2.31,-0.686 1.58199997,0 2.93999997,0.658 l -0.28,0.868 q -1.218,-0.616 -2.65999997,-0.616 z M 3.4020036,6 V -4.22 h 1.218 V 6 Z"
               id="text81"
               aria-label="SI" />
          </g>
          <g
             transform="translate(173)"
             id="g83">
            <path
               d="m -9.6109949,-4.136 q 1.456,-0.224 2.842,-0.224 1.904,0 2.884,0.812 0.994,0.798 0.994,2.296 0,1.624 -0.994,2.464 -0.994,0.84 -2.884,0.84 -0.924,0 -1.722,-0.084 V 6 h -1.12 z m 1.12,5.18 q 0.812,0.112 1.638,0.112 1.386,0 2.114,-0.602 0.742,-0.602 0.742,-1.722 0,-1.12 -0.728,-1.694 -0.714,-0.588 -2.128,-0.588 -0.77,0 -1.638,0.14 z M -0.76299274,-4.22 1.2950073,4.796 h 0.028 l 2.1,-9.016 h 1.456 l 2.1,9.016 h 0.028 l 2.058,-9.016 H 10.171007 L 7.6650073,6 h -1.414 l -2.1,-9.016 h -0.028 L 2.0090073,6 H 0.60900726 L -1.9109927,-4.22 Z"
               id="text82"
               aria-label="PW" />
          </g>
          <g
             transform="translate(148)"
             id="g84">
            <path
               d="m -7.3500085,-4.136 q 1.456,-0.224 2.842,-0.224 1.904,0 2.884,0.812 0.99399996,0.798 0.99399996,2.296 0,1.624 -0.99399996,2.464 -0.994,0.84 -2.884,0.84 -0.924,0 -1.722,-0.084 V 6 h -1.12 z m 1.12,5.18 q 0.812,0.112 1.638,0.112 1.386,0 2.114,-0.602 0.742,-0.602 0.742,-1.722 0,-1.12 -0.728,-1.694 -0.714,-0.588 -2.128,-0.588 -0.77,0 -1.638,0.14 z M 1.0499968,6 V -4.15 q 1.218,-0.21 2.618,-0.21 1.96,0 2.954,0.728 1.008,0.714 1.008,2.044 0,1.064 -0.574,1.778 -0.574,0.714 -1.624,0.98 v 0.028 q 0.63,0.336 1.246,1.82 l 1.232,2.982 h -1.162 l -1.204,-2.954 q -0.42,-1.008 -0.798,-1.246 -0.364,-0.252 -1.456,-0.252 h -1.12 V 6 Z m 1.12,-5.348 h 1.12 q 1.666,0 2.45,-0.532 0.784,-0.546 0.784,-1.61 0,-1.96 -2.954,-1.96 -0.742,0 -1.4,0.126 z"
               id="text83"
               aria-label="PR" />
          </g>
          <g
             transform="translate(124)"
             id="g85">
            <path
               d="m -8.5609975,-4.136 q 1.456,-0.224 2.842,-0.224 1.904,0 2.884,0.812 0.994,0.798 0.994,2.296 0,1.624 -0.994,2.464 -0.994,0.84 -2.884,0.84 -0.924,0 -1.722,-0.084 V 6 h -1.12 z m 1.12,5.18 q 0.812,0.112 1.638,0.112 1.386,0 2.114,-0.602 0.742,-0.602 0.742,-1.722 0,-1.12 -0.728,-1.694 -0.714,-0.588 -2.128,-0.588 -0.77,0 -1.638,0.14 z M 7.8190078,4.712 q -1.358,1.428 -3.612,1.428 -2.254,0 -3.626,-1.428 -1.372,-1.442 -1.372,-3.822 0,-2.38 1.372,-3.808 1.372,-1.442 3.626,-1.442 2.254,0 3.612,1.442 1.372,1.428 1.372,3.808 0,2.38 -1.372,3.822 z m -3.612,0.49 q 1.736,0 2.786,-1.162 1.064,-1.176 1.064,-3.15 0,-1.974 -1.064,-3.136 -1.05,-1.176 -2.786,-1.176 -1.75,0 -2.814,1.176 -1.05,1.162 -1.05,3.136 0,1.974 1.05,3.15 1.064,1.162 2.814,1.162 z"
               id="text84"
               aria-label="PO" />
          </g>
          <g
             transform="translate(99)"
             id="g86">
            <path
               d="m -5.2289987,-4.136 q 1.456,-0.224 2.842,-0.224 1.90399998,0 2.88399998,0.812 0.99400002,0.798 0.99400002,2.296 0,1.624 -0.99400002,2.464 -0.994,0.84 -2.88399998,0.84 -0.924,0 -1.722,-0.084 V 6 h -1.12 z m 1.12,5.18 q 0.812,0.112 1.638,0.112 1.386,0 2.11399998,-0.602 0.742,-0.602 0.742,-1.722 0,-1.12 -0.728,-1.694 -0.71399998,-0.588 -2.12799998,-0.588 -0.77,0 -1.638,0.14 z M 3.5910066,6 V -4.22 h 1.218 V 6 Z"
               id="text85"
               aria-label="PI" />
          </g>
          <g
             transform="translate(37)"
             id="g87">
            <path
               d="m -8.3089928,-1 h 1.918 v -0.938 q 0,-2.422 2.324,-2.422 0.644,0 1.316,0.21 l -0.224,0.84 q -0.518,-0.21 -0.994,-0.21 -0.756,0 -1.078,0.364 -0.308,0.35 -0.308,1.218 V -1 h 2.506 v 0.84 h -2.506 V 6 h -1.036 v -6.16 h -1.918 z m 7.1679814,-0.28 h 0.97999997 l 0.014,1.204 h 0.028 q 0.77,-1.344 1.91800003,-1.344 1.4,0 1.96,1.4 h 0.028 q 0.742,-1.4 2.114,-1.4 1.134,0 1.666,0.672 0.532,0.658 0.532,2.128 V 6 h -1.008 V 1.66 q 0,-1.274 -0.322,-1.75 -0.322,-0.49 -1.092,-0.49 -0.672,0 -1.176,0.672 -0.504,0.672 -0.504,1.638 V 6 h -1.008 V 1.66 q 0,-1.26 -0.336,-1.75 -0.322,-0.49 -1.092,-0.49 -0.63000003,0 -1.16200003,0.742 -0.518,0.728 -0.518,1.75 V 6 H -1.1410114 Z"
               id="text86"
               aria-label="fm" />
          </g>
        </g>
        <g
           transform="translate(12,39)"
           id="g120">
          <g
             id="g91">
            <g
               transform="translate(692)"
               id="g89">
              <path
                 d="m -3.2480059,-4.22 h 6.58 v 0.938 Q 0.88199413,0.736 -0.72800587,6 H -1.8900059 q 1.62400003,-5.11 4.13,-9.254 v -0.028 h -5.488 z"
                 id="text88"
                 aria-label="7" />
            </g>
            <g
               transform="translate(692,14)"
               id="g90">
              <path
                 d="M -34.859997,6 V -4.22 h 1.134 l 3.64,6.16 h 0.028 l 3.64,-6.16 h 1.176 V 6 h -1.12 v -8.344 h -0.028 l -3.164,5.306 h -1.036 l -3.164,-5.306 h -0.028 V 6 Z m 12.418005,0 V -4.22 h 1.218 V 6 Z M -15.596,-3.45 q -0.966,0 -1.498,0.434 -0.532,0.42 -0.532,1.176 0,1.358 1.988,1.96 1.736,0.504 2.464,1.26 0.742,0.756 0.742,1.96 0,1.358 -0.854,2.086 -0.84,0.714 -2.408,0.714 -1.736,0 -3.08,-0.882 l 0.336,-0.924 q 1.218,0.868 2.744,0.868 1.036,0 1.582,-0.476 0.56,-0.476 0.56,-1.386 0,-0.84 -0.476,-1.33 -0.462,-0.504 -1.638,-0.868 -3.066,-0.91 -3.066,-2.982 0,-1.148 0.826,-1.834 0.84,-0.686 2.31,-0.686 1.582,0 2.94,0.658 l -0.28,0.868 q -1.218,-0.616 -2.66,-0.616 z m 9.6039958,0.028 q -1.848,0 -2.954,1.176 -1.0919998,1.162 -1.0919998,3.136 0,1.974 1.1199998,3.15 1.134,1.162 2.926,1.162 1.456,0 2.702,-0.798 l 0.378,0.84 q -1.372,0.896 -3.178,0.896 -2.31,0 -3.696,-1.428 -1.3859998,-1.428 -1.3859998,-3.822 0,-2.422 1.3719998,-3.836 1.372,-1.414 3.71,-1.414 1.806,0 3.178,0.896 l -0.378,0.84 q -1.246,-0.798 -2.702,-0.798 z m 4.5499829,5.81 V 1.492 h 4.158 V 2.388 Z M 5.025989,6 V -4.22 h 1.134 l 3.64,6.16 h 0.028 l 3.64,-6.16 h 1.176 V 6 h -1.12 v -8.344 h -0.028 l -3.164,5.306 h -1.036 l -3.164,-5.306 h -0.028 V 6 Z M 18.143994,-3.282 V 0.05 h 4.578 v 0.896 h -4.578 v 4.116 h 4.858 V 6 h -5.978 V -4.22 h 5.978 v 0.938 z M 25.241992,6 V -4.22 h 1.134 l 3.64,6.16 h 0.028 l 3.64,-6.16 h 1.176 V 6 h -1.12 v -8.344 h -0.028 l -3.164,5.306 h -1.036 l -3.164,-5.306 h -0.028 V 6 Z"
                 id="text89"
                 aria-label="MISC-MEM" />
            </g>
          </g>
          <g
             id="g94">
            <g
               transform="translate(544)"
               id="g92">
              <path
                 d="m 2.8279941,-3.282 h -4.424 l -0.196,3.304 h 0.028 q 0.82600003,-0.49 1.86200003,-0.49 1.49799997,0 2.32399997,0.812 0.826,0.812 0.826,2.296 0,1.708 -0.966,2.604 -0.952,0.896 -2.79999997,0.896 -1.42800003,0 -2.63200003,-0.672 l 0.28,-0.924 q 1.176,0.658 2.35200003,0.658 2.64599997,0 2.64599997,-2.562 0,-1.078 -0.574,-1.638 -0.57399997,-0.574 -1.65199997,-0.574 -1.10600003,0 -1.83400003,0.644 h -0.98 l 0.308,-5.292 h 5.432 z"
                 id="text91"
                 aria-label="5" />
            </g>
            <g
               transform="translate(544,14)"
               id="g93">
              <path
                 d="m -0.01400587,-4.36 q 3.69599997,0 3.69599997,5.25 0,5.25 -3.69599997,5.25 -1.75000003,0 -2.71600003,-1.218 -0.966,-1.218 -0.966,-4.032 0,-2.814 0.966,-4.032 0.966,-1.218 2.71600003,-1.218 z M -1.9460059,4.208 q 0.644,1.022 1.93200003,1.022 1.28799997,0 1.93199997,-1.022 0.644,-1.036 0.644,-3.318 0,-2.282 -0.644,-3.304 -0.644,-1.036 -1.93199997,-1.036 -1.28800003,0 -1.93200003,1.036 -0.63,1.022 -0.63,3.304 0,2.282 0.63,3.318 z"
                 id="text92"
                 aria-label="0" />
            </g>
          </g>
          <g
             id="g97">
            <g
               transform="translate(445)"
               id="g95">
              <path
                 d="m -3.1500059,-4.22 h 6.132 v 0.938 l -3.35999997,3.29 v 0.028 h 0.434 q 1.48399997,0 2.26799997,0.714 0.798,0.714 0.798,2.072 0,1.596 -0.952,2.464 -0.938,0.854 -2.68799997,0.854 -1.51200003,0 -2.66000003,-0.728 l 0.336,-0.91 q 1.176,0.7 2.32400003,0.7 1.232,0 1.87599997,-0.602 0.644,-0.602 0.644,-1.778 0,-0.994 -0.672,-1.47 -0.65799997,-0.49 -2.11399997,-0.49 H -1.8060059 v -0.868 l 3.346,-3.248 v -0.028 h -4.69 z"
                 id="text94"
                 aria-label="3" />
            </g>
            <g
               transform="translate(445,14)"
               id="g96">
              <path
                 d="m -15.049995,-3.282 h -4.718 V 0.19 h 4.438 v 0.896 h -4.438 V 6 h -1.12 V -4.22 h 5.838 z m 3.290007,0 V 0.05 h 4.5779997 v 0.896 h -4.5779997 v 4.116 h 4.8579997 V 6 H -12.879988 V -4.22 h 5.9779997 v 0.938 z M -4.6619897,6 V -4.22 h 1.162 l 5.32,8.4 h 0.028 v -8.4 h 1.092 V 6 h -1.148 l -5.32,-8.4 h -0.028 V 6 Z M 9.8700011,-3.422 q -1.848,0 -2.954,1.176 -1.092,1.162 -1.092,3.136 0,1.974 1.12,3.15 1.134,1.162 2.926,1.162 1.4559999,0 2.7019999,-0.798 l 0.378,0.84 q -1.372,0.896 -3.1779999,0.896 -2.31,0 -3.696,-1.428 -1.386,-1.428 -1.386,-3.822 0,-2.422 1.372,-3.836 1.372,-1.414 3.71,-1.414 1.8059999,0 3.1779999,0.896 l -0.378,0.84 q -1.246,-0.798 -2.7019999,-0.798 z m 6.2999959,0.14 V 0.05 h 4.578 v 0.896 h -4.578 v 4.116 h 4.858 V 6 h -5.978 V -4.22 h 5.978 v 0.938 z"
                 id="text95"
                 aria-label="FENCE" />
            </g>
          </g>
          <g
             id="g100">
            <g
               transform="translate(346)"
               id="g98">
              <path
                 d="m 2.8279941,-3.282 h -4.424 l -0.196,3.304 h 0.028 q 0.82600003,-0.49 1.86200003,-0.49 1.49799997,0 2.32399997,0.812 0.826,0.812 0.826,2.296 0,1.708 -0.966,2.604 -0.952,0.896 -2.79999997,0.896 -1.42800003,0 -2.63200003,-0.672 l 0.28,-0.924 q 1.176,0.658 2.35200003,0.658 2.64599997,0 2.64599997,-2.562 0,-1.078 -0.574,-1.638 -0.57399997,-0.574 -1.65199997,-0.574 -1.10600003,0 -1.83400003,0.644 h -0.98 l 0.308,-5.292 h 5.432 z"
                 id="text97"
                 aria-label="5" />
            </g>
            <g
               transform="translate(346,14)"
               id="g99">
              <path
                 d="m -0.01400587,-4.36 q 3.69599997,0 3.69599997,5.25 0,5.25 -3.69599997,5.25 -1.75000003,0 -2.71600003,-1.218 -0.966,-1.218 -0.966,-4.032 0,-2.814 0.966,-4.032 0.966,-1.218 2.71600003,-1.218 z M -1.9460059,4.208 q 0.644,1.022 1.93200003,1.022 1.28799997,0 1.93199997,-1.022 0.644,-1.036 0.644,-3.318 0,-2.282 -0.644,-3.304 -0.644,-1.036 -1.93199997,-1.036 -1.28800003,0 -1.93200003,1.036 -0.63,1.022 -0.63,3.304 0,2.282 0.63,3.318 z"
                 id="text98"
                 aria-label="0" />
            </g>
          </g>
          <g
             id="g102">
            <g
               transform="translate(272)"
               id="g101">
              <path
                 d="m 0.01399413,6 v -8.876 h -0.028 l -2.75800003,2.548 -0.434,-0.91 3.22000003,-2.982 H 1.1339941 V 6 Z"
                 id="text100"
                 style="font-size:14px"
                 aria-label="1" />
            </g>
          </g>
          <g
             id="g104">
            <g
               transform="translate(247)"
               id="g103">
              <path
                 d="m 0.01399413,6 v -8.876 h -0.028 l -2.75800003,2.548 -0.434,-0.91 3.22000003,-2.982 H 1.1339941 V 6 Z"
                 id="text102"
                 style="font-size:14px"
                 aria-label="1" />
            </g>
          </g>
          <g
             id="g106">
            <g
               transform="translate(222)"
               id="g105">
              <path
                 d="m 0.01399413,6 v -8.876 h -0.028 l -2.75800003,2.548 -0.434,-0.91 3.22000003,-2.982 H 1.1339941 V 6 Z"
                 id="text104"
                 style="font-size:14px"
                 aria-label="1" />
            </g>
          </g>
          <g
             id="g108">
            <g
               transform="translate(198)"
               id="g107">
              <path
                 d="m 0.01399413,6 v -8.876 h -0.028 l -2.75800003,2.548 -0.434,-0.91 3.22000003,-2.982 H 1.1339941 V 6 Z"
                 id="text106"
                 style="font-size:14px"
                 aria-label="1" />
            </g>
          </g>
          <g
             id="g110">
            <g
               transform="translate(173)"
               id="g109">
              <path
                 d="m 0.01399413,6 v -8.876 h -0.028 l -2.75800003,2.548 -0.434,-0.91 3.22000003,-2.982 H 1.1339941 V 6 Z"
                 id="text108"
                 style="font-size:14px"
                 aria-label="1" />
            </g>
          </g>
          <g
             id="g112">
            <g
               transform="translate(148)"
               id="g111">
              <path
                 d="m 0.01399413,6 v -8.876 h -0.028 l -2.75800003,2.548 -0.434,-0.91 3.22000003,-2.982 H 1.1339941 V 6 Z"
                 id="text110"
                 style="font-size:14px"
                 aria-label="1" />
            </g>
          </g>
          <g
             id="g114">
            <g
               transform="translate(124)"
               id="g113">
              <path
                 d="m 0.01399413,6 v -8.876 h -0.028 l -2.75800003,2.548 -0.434,-0.91 3.22000003,-2.982 H 1.1339941 V 6 Z"
                 id="text112"
                 style="font-size:14px"
                 aria-label="1" />
            </g>
          </g>
          <g
             id="g116">
            <g
               transform="translate(99)"
               id="g115">
              <path
                 d="m 0.01399413,6 v -8.876 h -0.028 l -2.75800003,2.548 -0.434,-0.91 3.22000003,-2.982 H 1.1339941 V 6 Z"
                 id="text114"
                 style="font-size:14px"
                 aria-label="1" />
            </g>
          </g>
          <g
             id="g119">
            <g
               transform="translate(37)"
               id="g117">
              <path
                 d="m 0.76999413,2.71 v -5.292 h -0.028 L -2.9820059,2.682 V 2.71 Z m 1.10599997,0 h 1.736 v 0.91 h -1.736 V 6 H 0.76999413 V 3.62 H -4.1300059 V 2.71 L 0.76999413,-4.22 H 1.8759941 Z"
                 id="text116"
                 aria-label="4" />
            </g>
            <g
               transform="translate(37,14)"
               id="g118">
              <path
                 d="m -2.975006,-3.282 h -4.718 V 0.19 h 4.438 v 0.896 h -4.438 V 6 h -1.12 V -4.22 h 5.838 z M -0.80499893,6 V -4.22 h 1.134 L 3.9690011,1.94 h 0.028 l 3.64,-6.16 h 1.176 V 6 h -1.12 v -8.344 h -0.028 l -3.164,5.306 h -1.036 L 0.30100107,-2.344 h -0.028 V 6 Z"
                 id="text117"
                 aria-label="FM" />
            </g>
          </g>
        </g>
      </g>
    </g>
  </g>
</svg>
