<svg width="800" height="84" viewBox="0 0 800 84" fill="none" xmlns="http://www.w3.org/2000/svg">
<g clip-path="url(#clip0_1_2)">
<path d="M4.5 21.5H795.5" stroke="#1C1E21" stroke-linecap="round"/>
<path d="M4.5 21.5V52.5" stroke="#1C1E21" stroke-linecap="round"/>
<path d="M4.5 52.5H795.5" stroke="#1C1E21" stroke-linecap="round"/>
<path d="M795.5 21.5V52.5" stroke="#1C1E21" stroke-linecap="round"/>
<path d="M770.5 21.5V24.5" stroke="#1C1E21" stroke-linecap="round"/>
<path d="M770.5 52.5V49.5" stroke="#1C1E21" stroke-linecap="round"/>
<path d="M746.5 21.5V24.5" stroke="#1C1E21" stroke-linecap="round"/>
<path d="M746.5 52.5V49.5" stroke="#1C1E21" stroke-linecap="round"/>
<path d="M721.5 21.5V24.5" stroke="#1C1E21" stroke-linecap="round"/>
<path d="M721.5 52.5V49.5" stroke="#1C1E21" stroke-linecap="round"/>
<path d="M696.5 21.5V24.5" stroke="#1C1E21" stroke-linecap="round"/>
<path d="M696.5 52.5V49.5" stroke="#1C1E21" stroke-linecap="round"/>
<path d="M671.5 21.5V24.5" stroke="#1C1E21" stroke-linecap="round"/>
<path d="M671.5 52.5V49.5" stroke="#1C1E21" stroke-linecap="round"/>
<path d="M647.5 21.5V24.5" stroke="#1C1E21" stroke-linecap="round"/>
<path d="M647.5 52.5V49.5" stroke="#1C1E21" stroke-linecap="round"/>
<path d="M622.5 21.5V52.5" stroke="#1C1E21" stroke-linecap="round"/>
<path d="M597.5 21.5V24.5" stroke="#1C1E21" stroke-linecap="round"/>
<path d="M597.5 52.5V49.5" stroke="#1C1E21" stroke-linecap="round"/>
<path d="M573.5 21.5V24.5" stroke="#1C1E21" stroke-linecap="round"/>
<path d="M573.5 52.5V49.5" stroke="#1C1E21" stroke-linecap="round"/>
<path d="M548.5 21.5V24.5" stroke="#1C1E21" stroke-linecap="round"/>
<path d="M548.5 52.5V49.5" stroke="#1C1E21" stroke-linecap="round"/>
<path d="M523.5 21.5V24.5" stroke="#1C1E21" stroke-linecap="round"/>
<path d="M523.5 52.5V49.5" stroke="#1C1E21" stroke-linecap="round"/>
<path d="M498.5 21.5V52.5" stroke="#1C1E21" stroke-linecap="round"/>
<path d="M474.5 21.5V24.5" stroke="#1C1E21" stroke-linecap="round"/>
<path d="M474.5 52.5V49.5" stroke="#1C1E21" stroke-linecap="round"/>
<path d="M449.5 21.5V24.5" stroke="#1C1E21" stroke-linecap="round"/>
<path d="M449.5 52.5V49.5" stroke="#1C1E21" stroke-linecap="round"/>
<path d="M424.5 21.5V52.5" stroke="#1C1E21" stroke-linecap="round"/>
<path d="M400.5 21.5V24.5" stroke="#1C1E21" stroke-linecap="round"/>
<path d="M400.5 52.5V49.5" stroke="#1C1E21" stroke-linecap="round"/>
<path d="M375.5 21.5V24.5" stroke="#1C1E21" stroke-linecap="round"/>
<path d="M375.5 52.5V49.5" stroke="#1C1E21" stroke-linecap="round"/>
<path d="M350.5 21.5V24.5" stroke="#1C1E21" stroke-linecap="round"/>
<path d="M350.5 52.5V49.5" stroke="#1C1E21" stroke-linecap="round"/>
<path d="M325.5 21.5V24.5" stroke="#1C1E21" stroke-linecap="round"/>
<path d="M325.5 52.5V49.5" stroke="#1C1E21" stroke-linecap="round"/>
<path d="M301.5 21.5V52.5" stroke="#1C1E21" stroke-linecap="round"/>
<path d="M276.5 21.5V24.5" stroke="#1C1E21" stroke-linecap="round"/>
<path d="M276.5 52.5V49.5" stroke="#1C1E21" stroke-linecap="round"/>
<path d="M251.5 21.5V24.5" stroke="#1C1E21" stroke-linecap="round"/>
<path d="M251.5 52.5V49.5" stroke="#1C1E21" stroke-linecap="round"/>
<path d="M226.5 21.5V24.5" stroke="#1C1E21" stroke-linecap="round"/>
<path d="M226.5 52.5V49.5" stroke="#1C1E21" stroke-linecap="round"/>
<path d="M202.5 21.5V24.5" stroke="#1C1E21" stroke-linecap="round"/>
<path d="M202.5 52.5V49.5" stroke="#1C1E21" stroke-linecap="round"/>
<path d="M177.5 21.5V24.5" stroke="#1C1E21" stroke-linecap="round"/>
<path d="M177.5 52.5V49.5" stroke="#1C1E21" stroke-linecap="round"/>
<path d="M152.5 21.5V24.5" stroke="#1C1E21" stroke-linecap="round"/>
<path d="M152.5 52.5V49.5" stroke="#1C1E21" stroke-linecap="round"/>
<path d="M128.5 21.5V24.5" stroke="#1C1E21" stroke-linecap="round"/>
<path d="M128.5 52.5V49.5" stroke="#1C1E21" stroke-linecap="round"/>
<path d="M103.5 21.5V24.5" stroke="#1C1E21" stroke-linecap="round"/>
<path d="M103.5 52.5V49.5" stroke="#1C1E21" stroke-linecap="round"/>
<path d="M78.5 21.5V24.5" stroke="#1C1E21" stroke-linecap="round"/>
<path d="M78.5 52.5V49.5" stroke="#1C1E21" stroke-linecap="round"/>
<path d="M53.5 21.5V24.5" stroke="#1C1E21" stroke-linecap="round"/>
<path d="M53.5 52.5V49.5" stroke="#1C1E21" stroke-linecap="round"/>
<path d="M29.5 21.5V24.5" stroke="#1C1E21" stroke-linecap="round"/>
<path d="M29.5 52.5V49.5" stroke="#1C1E21" stroke-linecap="round"/>
<path d="M782.485 6.14C784.949 6.14 786.181 7.89 786.181 11.39C786.181 14.89 784.949 16.64 782.485 16.64C781.319 16.64 780.413 16.234 779.769 15.422C779.125 14.61 778.803 13.266 778.803 11.39C778.803 9.514 779.125 8.17 779.769 7.358C780.413 6.546 781.319 6.14 782.485 6.14ZM780.553 14.708C780.983 15.3893 781.627 15.73 782.485 15.73C783.344 15.73 783.988 15.3893 784.417 14.708C784.847 14.0173 785.061 12.9113 785.061 11.39C785.061 9.86867 784.847 8.76733 784.417 8.086C783.988 7.39533 783.344 7.05 782.485 7.05C781.627 7.05 780.983 7.39533 780.553 8.086C780.133 8.76733 779.923 9.86867 779.923 11.39C779.923 12.9113 780.133 14.0173 780.553 14.708Z" fill="#1C1E21"/>
<path d="M634.541 10.508C633.823 10.508 633.23 10.7413 632.763 11.208C632.297 11.6747 632.063 12.272 632.063 13C632.063 13.868 632.283 14.5353 632.721 15.002C633.16 15.4687 633.767 15.702 634.541 15.702C635.335 15.702 635.951 15.4687 636.389 15.002C636.828 14.5353 637.047 13.868 637.047 13C637.047 12.2347 636.819 11.628 636.361 11.18C635.913 10.732 635.307 10.508 634.541 10.508ZM634.541 16.64C633.412 16.64 632.525 16.2993 631.881 15.618C631.247 14.9367 630.929 13.9567 630.929 12.678C630.929 10.7833 631.387 9.25733 632.301 8.1C633.225 6.94267 634.495 6.28933 636.109 6.14L636.305 7.078C634.159 7.32067 632.796 8.52933 632.217 10.704L632.231 10.718C632.875 9.99933 633.725 9.64 634.779 9.64C635.815 9.64 636.637 9.94333 637.243 10.55C637.859 11.1473 638.167 11.964 638.167 13C638.167 14.1107 637.836 14.9973 637.173 15.66C636.511 16.3133 635.633 16.64 634.541 16.64Z" fill="#1C1E21"/>
<path d="M606.751 6.28H613.331V7.218C611.698 9.89667 610.345 12.9907 609.271 16.5H608.109C609.192 13.0933 610.569 10.0087 612.239 7.246V7.218H606.751V6.28Z" fill="#1C1E21"/>
<path d="M506.172 16.5V7.624H506.144L503.386 10.172L502.952 9.262L506.172 6.28H507.292V16.5H506.172ZM514.854 16.5V7.624H514.826L512.068 10.172L511.634 9.262L514.854 6.28H515.974V16.5H514.854Z" fill="#1C1E21"/>
<path d="M481.672 16.5V7.624H481.644L478.886 10.172L478.452 9.262L481.672 6.28H482.792V16.5H481.672ZM490.13 7.092C489.206 7.092 488.282 7.414 487.358 8.058L487.022 7.162C487.974 6.48067 489.057 6.14 490.27 6.14C491.269 6.14 492.043 6.39667 492.594 6.91C493.145 7.414 493.42 8.12333 493.42 9.038C493.42 9.95267 493.089 10.8767 492.426 11.81C491.763 12.7433 490.522 13.9847 488.702 15.534V15.562H493.462V16.5H487.162V15.562C489.15 13.9193 490.494 12.6407 491.194 11.726C491.903 10.802 492.258 9.934 492.258 9.122C492.258 8.45933 492.076 7.95533 491.712 7.61C491.357 7.26467 490.83 7.092 490.13 7.092Z" fill="#1C1E21"/>
<path d="M432.172 16.5V7.624H432.144L429.386 10.172L428.952 9.262L432.172 6.28H433.292V16.5H432.172ZM441.61 13.21V7.918H441.582L437.858 13.182V13.21H441.61ZM442.716 13.21H444.452V14.12H442.716V16.5H441.61V14.12H436.71V13.21L441.61 6.28H442.716V13.21Z" fill="#1C1E21"/>
<path d="M408.172 16.5V7.624H408.144L405.386 10.172L404.952 9.262L408.172 6.28H409.292V16.5H408.172ZM419.668 7.218H415.244L415.048 10.522H415.076C415.627 10.1953 416.247 10.032 416.938 10.032C417.937 10.032 418.711 10.3027 419.262 10.844C419.813 11.3853 420.088 12.1507 420.088 13.14C420.088 14.2787 419.766 15.1467 419.122 15.744C418.487 16.3413 417.554 16.64 416.322 16.64C415.37 16.64 414.493 16.416 413.69 15.968L413.97 15.044C414.754 15.4827 415.538 15.702 416.322 15.702C418.086 15.702 418.968 14.848 418.968 13.14C418.968 12.4213 418.777 11.8753 418.394 11.502C418.011 11.1193 417.461 10.928 416.742 10.928C416.005 10.928 415.393 11.1427 414.908 11.572H413.928L414.236 6.28H419.668V7.218Z" fill="#1C1E21"/>
<path d="M309.172 16.5V7.624H309.144L306.386 10.172L305.952 9.262L309.172 6.28H310.292V16.5H309.172ZM317.784 6.14C318.923 6.14 319.809 6.48067 320.444 7.162C321.088 7.834 321.41 8.79067 321.41 10.032C321.41 11.9827 320.939 13.532 319.996 14.68C319.063 15.828 317.761 16.4813 316.09 16.64L315.894 15.702C317.033 15.5807 317.947 15.2213 318.638 14.624C319.329 14.0173 319.823 13.1633 320.122 12.062L320.094 12.048C319.441 12.776 318.591 13.14 317.546 13.14C316.51 13.14 315.689 12.8367 315.082 12.23C314.475 11.614 314.172 10.774 314.172 9.71C314.172 8.62733 314.499 7.764 315.152 7.12C315.815 6.46667 316.692 6.14 317.784 6.14ZM317.784 7.078C316.991 7.078 316.375 7.30667 315.936 7.764C315.507 8.22133 315.292 8.87 315.292 9.71C315.292 10.5127 315.516 11.1427 315.964 11.6C316.412 12.048 317.019 12.272 317.784 12.272C318.503 12.272 319.095 12.034 319.562 11.558C320.029 11.082 320.262 10.466 320.262 9.71C320.262 8.87933 320.043 8.23533 319.604 7.778C319.165 7.31133 318.559 7.078 317.784 7.078Z" fill="#1C1E21"/>
<path d="M283.948 7.092C283.024 7.092 282.1 7.414 281.176 8.058L280.84 7.162C281.792 6.48067 282.875 6.14 284.088 6.14C285.087 6.14 285.862 6.39667 286.412 6.91C286.963 7.414 287.238 8.12333 287.238 9.038C287.238 9.95267 286.907 10.8767 286.244 11.81C285.582 12.7433 284.34 13.9847 282.52 15.534V15.562H287.28V16.5H280.98V15.562C282.968 13.9193 284.312 12.6407 285.012 11.726C285.722 10.802 286.076 9.934 286.076 9.122C286.076 8.45933 285.894 7.95533 285.53 7.61C285.176 7.26467 284.648 7.092 283.948 7.092ZM292.826 6.14C295.29 6.14 296.522 7.89 296.522 11.39C296.522 14.89 295.29 16.64 292.826 16.64C291.659 16.64 290.754 16.234 290.11 15.422C289.466 14.61 289.144 13.266 289.144 11.39C289.144 9.514 289.466 8.17 290.11 7.358C290.754 6.546 291.659 6.14 292.826 6.14ZM290.894 14.708C291.323 15.3893 291.967 15.73 292.826 15.73C293.685 15.73 294.329 15.3893 294.758 14.708C295.187 14.0173 295.402 12.9113 295.402 11.39C295.402 9.86867 295.187 8.76733 294.758 8.086C294.329 7.39533 293.685 7.05 292.826 7.05C291.967 7.05 291.323 7.39533 290.894 8.086C290.474 8.76733 290.264 9.86867 290.264 11.39C290.264 12.9113 290.474 14.0173 290.894 14.708Z" fill="#1C1E21"/>
<path d="M9.00836 6.28H15.1404V7.218L11.7804 10.508V10.536H12.2144C13.2037 10.536 13.9597 10.774 14.4824 11.25C15.0144 11.726 15.2804 12.4167 15.2804 13.322C15.2804 14.386 14.963 15.2073 14.3284 15.786C13.703 16.3553 12.807 16.64 11.6404 16.64C10.6324 16.64 9.74569 16.3973 8.98036 15.912L9.31636 15.002C10.1004 15.4687 10.875 15.702 11.6404 15.702C12.4617 15.702 13.087 15.5013 13.5164 15.1C13.9457 14.6987 14.1604 14.106 14.1604 13.322C14.1604 12.6593 13.9364 12.1693 13.4884 11.852C13.0497 11.5253 12.345 11.362 11.3744 11.362H10.3524V10.494L13.6984 7.246V7.218H9.00836V6.28ZM20.854 16.5V7.624H20.826L18.068 10.172L17.634 9.262L20.854 6.28H21.974V16.5H20.854Z" fill="#1C1E21"/>
<path d="M690.526 36.704C690.106 36.1813 689.527 35.92 688.79 35.92C688.052 35.92 687.469 36.1813 687.04 36.704C686.62 37.2173 686.41 37.936 686.41 38.86C686.41 39.784 686.62 40.5073 687.04 41.03C687.469 41.5433 688.052 41.8 688.79 41.8C689.527 41.8 690.106 41.5433 690.526 41.03C690.955 40.5073 691.17 39.784 691.17 38.86C691.17 37.936 690.955 37.2173 690.526 36.704ZM691.282 41.618C690.656 42.2993 689.826 42.64 688.79 42.64C687.754 42.64 686.923 42.2993 686.298 41.618C685.672 40.9367 685.36 40.0173 685.36 38.86C685.36 37.7027 685.672 36.7833 686.298 36.102C686.923 35.4207 687.754 35.08 688.79 35.08C689.826 35.08 690.656 35.4207 691.282 36.102C691.907 36.7833 692.22 37.7027 692.22 38.86C692.22 40.0173 691.907 40.9367 691.282 41.618ZM697.236 42.64C696.182 42.64 695.398 42.2153 694.884 41.366H694.856V45.58H693.834V35.22H694.814L694.828 36.452H694.856C695.37 35.5373 696.163 35.08 697.236 35.08C698.151 35.08 698.87 35.4067 699.392 36.06C699.915 36.704 700.176 37.6373 700.176 38.86C700.176 40.0547 699.906 40.9833 699.364 41.646C698.832 42.3087 698.123 42.64 697.236 42.64ZM699.168 38.86C699.168 37.908 698.977 37.18 698.594 36.676C698.221 36.172 697.694 35.92 697.012 35.92C696.368 35.92 695.846 36.172 695.444 36.676C695.052 37.18 694.856 37.8753 694.856 38.762V38.958C694.856 39.8633 695.057 40.5633 695.458 41.058C695.86 41.5527 696.378 41.8 697.012 41.8C697.675 41.8 698.198 41.548 698.58 41.044C698.972 40.5307 699.168 39.8027 699.168 38.86ZM705.188 35.934C704.367 35.934 703.728 36.1907 703.27 36.704C702.813 37.208 702.584 37.9267 702.584 38.86C702.584 39.756 702.822 40.47 703.298 41.002C703.784 41.534 704.414 41.8 705.188 41.8C705.842 41.8 706.467 41.6413 707.064 41.324L707.344 42.15C706.644 42.4767 705.912 42.64 705.146 42.64C704.064 42.64 703.186 42.2993 702.514 41.618C701.842 40.9273 701.506 40.008 701.506 38.86C701.506 37.6747 701.828 36.7507 702.472 36.088C703.116 35.416 704.008 35.08 705.146 35.08C705.912 35.08 706.644 35.2433 707.344 35.57L707.064 36.424C706.439 36.0973 705.814 35.934 705.188 35.934ZM713.987 36.704C713.567 36.1813 712.988 35.92 712.251 35.92C711.513 35.92 710.93 36.1813 710.501 36.704C710.081 37.2173 709.871 37.936 709.871 38.86C709.871 39.784 710.081 40.5073 710.501 41.03C710.93 41.5433 711.513 41.8 712.251 41.8C712.988 41.8 713.567 41.5433 713.987 41.03C714.416 40.5073 714.631 39.784 714.631 38.86C714.631 37.936 714.416 37.2173 713.987 36.704ZM714.743 41.618C714.117 42.2993 713.287 42.64 712.251 42.64C711.215 42.64 710.384 42.2993 709.759 41.618C709.133 40.9367 708.821 40.0173 708.821 38.86C708.821 37.7027 709.133 36.7833 709.759 36.102C710.384 35.4207 711.215 35.08 712.251 35.08C713.287 35.08 714.117 35.4207 714.743 36.102C715.368 36.7833 715.681 37.7027 715.681 38.86C715.681 40.0173 715.368 40.9367 714.743 41.618ZM718.594 36.69C718.211 37.194 718.02 37.9173 718.02 38.86C718.02 39.8027 718.216 40.5307 718.608 41.044C719 41.548 719.527 41.8 720.19 41.8C720.825 41.8 721.338 41.5527 721.73 41.058C722.131 40.5633 722.332 39.8633 722.332 38.958V38.762C722.332 37.8753 722.131 37.18 721.73 36.676C721.338 36.172 720.825 35.92 720.19 35.92C719.509 35.92 718.977 36.1767 718.594 36.69ZM717.012 38.86C717.012 37.6373 717.273 36.704 717.796 36.06C718.319 35.4067 719.037 35.08 719.952 35.08C721.007 35.08 721.791 35.5233 722.304 36.41H722.332V32H723.354V42.5H722.374L722.36 41.268H722.332C721.819 42.1827 721.025 42.64 719.952 42.64C719.056 42.64 718.342 42.3133 717.81 41.66C717.278 40.9973 717.012 40.064 717.012 38.86ZM726.086 39.252C726.104 40.0453 726.347 40.6707 726.814 41.128C727.28 41.5853 727.887 41.814 728.634 41.814C729.352 41.814 730.066 41.6273 730.776 41.254L731.056 42.052C730.272 42.444 729.432 42.64 728.536 42.64C727.49 42.64 726.646 42.2993 726.002 41.618C725.358 40.9367 725.036 40.0173 725.036 38.86C725.036 37.684 725.334 36.76 725.932 36.088C726.538 35.416 727.36 35.08 728.396 35.08C729.404 35.08 730.183 35.402 730.734 36.046C731.294 36.6807 731.574 37.5953 731.574 38.79C731.574 38.9113 731.564 39.0653 731.546 39.252H726.086ZM726.086 38.44H730.566C730.556 37.628 730.36 37.0027 729.978 36.564C729.595 36.1253 729.068 35.906 728.396 35.906C727.696 35.906 727.14 36.13 726.73 36.578C726.328 37.0167 726.114 37.6373 726.086 38.44Z" fill="#1C1E21"/>
<path d="M554.968 35.22H555.962L555.99 36.774H556.018C556.839 35.6447 557.997 35.08 559.49 35.08V35.962C558.454 35.962 557.614 36.2467 556.97 36.816C556.335 37.3853 556.018 38.1227 556.018 39.028V42.5H554.968V35.22ZM562.2 36.69C561.818 37.194 561.626 37.9173 561.626 38.86C561.626 39.8027 561.822 40.5307 562.214 41.044C562.606 41.548 563.134 41.8 563.796 41.8C564.431 41.8 564.944 41.5527 565.336 41.058C565.738 40.5633 565.938 39.8633 565.938 38.958V38.762C565.938 37.8753 565.738 37.18 565.336 36.676C564.944 36.172 564.431 35.92 563.796 35.92C563.115 35.92 562.583 36.1767 562.2 36.69ZM560.618 38.86C560.618 37.6373 560.88 36.704 561.402 36.06C561.925 35.4067 562.644 35.08 563.558 35.08C564.613 35.08 565.397 35.5233 565.91 36.41H565.938V32H566.96V42.5H565.98L565.966 41.268H565.938C565.425 42.1827 564.632 42.64 563.558 42.64C562.662 42.64 561.948 42.3133 561.416 41.66C560.884 40.9973 560.618 40.064 560.618 38.86Z" fill="#1C1E21"/>
<path d="M439.363 35.5H441.281V34.562C441.281 32.9473 442.055 32.14 443.605 32.14C444.034 32.14 444.473 32.21 444.921 32.35L444.697 33.19C444.351 33.05 444.02 32.98 443.703 32.98C443.199 32.98 442.839 33.1013 442.625 33.344C442.419 33.5773 442.317 33.9833 442.317 34.562V35.5H444.823V36.34H442.317V42.5H441.281V36.34H439.363V35.5ZM447.471 35.22V39.742C447.471 40.4887 447.593 41.0113 447.835 41.31C448.087 41.6087 448.503 41.758 449.081 41.758C449.623 41.758 450.113 41.4967 450.551 40.974C450.999 40.4513 451.223 39.8307 451.223 39.112V35.22H452.245V42.5H451.265L451.251 41.198H451.223C450.943 41.646 450.584 42.0007 450.145 42.262C449.716 42.514 449.249 42.64 448.745 42.64C447.961 42.64 447.383 42.4207 447.009 41.982C446.645 41.534 446.463 40.82 446.463 39.84V35.22H447.471ZM454.34 35.22H455.32L455.334 36.522H455.362C455.642 36.074 455.997 35.724 456.426 35.472C456.865 35.2107 457.336 35.08 457.84 35.08C458.661 35.08 459.268 35.3367 459.66 35.85C460.061 36.354 460.262 37.1567 460.262 38.258V42.5H459.254V38.342C459.254 37.4367 459.123 36.8113 458.862 36.466C458.601 36.1113 458.153 35.934 457.518 35.934C456.977 35.934 456.482 36.2047 456.034 36.746C455.586 37.278 455.362 37.8987 455.362 38.608V42.5H454.34V35.22ZM465.489 35.934C464.668 35.934 464.028 36.1907 463.571 36.704C463.114 37.208 462.885 37.9267 462.885 38.86C462.885 39.756 463.123 40.47 463.599 41.002C464.084 41.534 464.714 41.8 465.489 41.8C466.142 41.8 466.768 41.6413 467.365 41.324L467.645 42.15C466.945 42.4767 466.212 42.64 465.447 42.64C464.364 42.64 463.487 42.2993 462.815 41.618C462.143 40.9273 461.807 40.008 461.807 38.86C461.807 37.6747 462.129 36.7507 462.773 36.088C463.417 35.416 464.308 35.08 465.447 35.08C466.212 35.08 466.945 35.2433 467.645 35.57L467.365 36.424C466.74 36.0973 466.114 35.934 465.489 35.934ZM471.922 32.84V35.5H474.68V36.34H471.922V40.162C471.922 40.8153 472.01 41.254 472.188 41.478C472.365 41.6927 472.696 41.8 473.182 41.8C473.611 41.8 474.022 41.7207 474.414 41.562L474.582 42.388C474.106 42.556 473.592 42.64 473.042 42.64C472.248 42.64 471.688 42.472 471.362 42.136C471.035 41.7907 470.872 41.198 470.872 40.358V36.34H469.262V35.5H470.872V32.84H471.922ZM476.916 32.28H483.048V33.218L479.688 36.508V36.536H480.122C481.111 36.536 481.867 36.774 482.39 37.25C482.922 37.726 483.188 38.4167 483.188 39.322C483.188 40.386 482.87 41.2073 482.236 41.786C481.61 42.3553 480.714 42.64 479.548 42.64C478.54 42.64 477.653 42.3973 476.888 41.912L477.224 41.002C478.008 41.4687 478.782 41.702 479.548 41.702C480.369 41.702 480.994 41.5013 481.424 41.1C481.853 40.6987 482.068 40.106 482.068 39.322C482.068 38.6593 481.844 38.1693 481.396 37.852C480.957 37.5253 480.252 37.362 479.282 37.362H478.26V36.494L481.606 33.246V33.218H476.916V32.28Z" fill="#1C1E21"/>
<path d="M352.695 35.22H353.689L353.717 36.774H353.745C354.566 35.6447 355.723 35.08 357.217 35.08V35.962C356.181 35.962 355.341 36.2467 354.697 36.816C354.062 37.3853 353.745 38.1227 353.745 39.028V42.5H352.695V35.22ZM361.173 35.08C362.06 35.08 362.881 35.2667 363.637 35.64L363.413 36.466C362.694 36.102 361.948 35.92 361.173 35.92C360.632 35.92 360.216 36.018 359.927 36.214C359.647 36.41 359.507 36.6853 359.507 37.04C359.507 37.376 359.628 37.642 359.871 37.838C360.123 38.034 360.576 38.188 361.229 38.3C362.181 38.4587 362.862 38.72 363.273 39.084C363.693 39.448 363.903 39.9473 363.903 40.582C363.903 41.2167 363.66 41.7207 363.175 42.094C362.699 42.458 362.032 42.64 361.173 42.64C360.174 42.64 359.278 42.4067 358.485 41.94L358.723 41.114C359.488 41.5713 360.305 41.8 361.173 41.8C361.714 41.8 362.13 41.6973 362.419 41.492C362.708 41.2773 362.853 40.974 362.853 40.582C362.853 40.2087 362.722 39.9193 362.461 39.714C362.209 39.5087 361.761 39.35 361.117 39.238C360.193 39.0793 359.521 38.8273 359.101 38.482C358.69 38.1273 358.485 37.6467 358.485 37.04C358.485 36.4427 358.718 35.9667 359.185 35.612C359.661 35.2573 360.324 35.08 361.173 35.08ZM369.028 42.5V33.624H369L366.242 36.172L365.808 35.262L369.028 32.28H370.148V42.5H369.028Z" fill="#1C1E21"/>
<path d="M126.522 35.5H128.44V34.562C128.44 32.9473 129.215 32.14 130.764 32.14C131.193 32.14 131.632 32.21 132.08 32.35L131.856 33.19C131.511 33.05 131.179 32.98 130.862 32.98C130.358 32.98 129.999 33.1013 129.784 33.344C129.579 33.5773 129.476 33.9833 129.476 34.562V35.5H131.982V36.34H129.476V42.5H128.44V36.34H126.522V35.5ZM134.631 35.22V39.742C134.631 40.4887 134.752 41.0113 134.995 41.31C135.247 41.6087 135.662 41.758 136.241 41.758C136.782 41.758 137.272 41.4967 137.711 40.974C138.159 40.4513 138.383 39.8307 138.383 39.112V35.22H139.405V42.5H138.425L138.411 41.198H138.383C138.103 41.646 137.743 42.0007 137.305 42.262C136.875 42.514 136.409 42.64 135.905 42.64C135.121 42.64 134.542 42.4207 134.169 41.982C133.805 41.534 133.623 40.82 133.623 39.84V35.22H134.631ZM141.499 35.22H142.479L142.493 36.522H142.521C142.801 36.074 143.156 35.724 143.585 35.472C144.024 35.2107 144.495 35.08 144.999 35.08C145.821 35.08 146.427 35.3367 146.819 35.85C147.221 36.354 147.421 37.1567 147.421 38.258V42.5H146.413V38.342C146.413 37.4367 146.283 36.8113 146.021 36.466C145.76 36.1113 145.312 35.934 144.677 35.934C144.136 35.934 143.641 36.2047 143.193 36.746C142.745 37.278 142.521 37.8987 142.521 38.608V42.5H141.499V35.22ZM152.648 35.934C151.827 35.934 151.188 36.1907 150.73 36.704C150.273 37.208 150.044 37.9267 150.044 38.86C150.044 39.756 150.282 40.47 150.758 41.002C151.244 41.534 151.874 41.8 152.648 41.8C153.302 41.8 153.927 41.6413 154.524 41.324L154.804 42.15C154.104 42.4767 153.372 42.64 152.606 42.64C151.524 42.64 150.646 42.2993 149.974 41.618C149.302 40.9273 148.966 40.008 148.966 38.86C148.966 37.6747 149.288 36.7507 149.932 36.088C150.576 35.416 151.468 35.08 152.606 35.08C153.372 35.08 154.104 35.2433 154.804 35.57L154.524 36.424C153.899 36.0973 153.274 35.934 152.648 35.934ZM159.081 32.84V35.5H161.839V36.34H159.081V40.162C159.081 40.8153 159.169 41.254 159.347 41.478C159.524 41.6927 159.855 41.8 160.341 41.8C160.77 41.8 161.181 41.7207 161.573 41.562L161.741 42.388C161.265 42.556 160.751 42.64 160.201 42.64C159.407 42.64 158.847 42.472 158.521 42.136C158.194 41.7907 158.031 41.198 158.031 40.358V36.34H156.421V35.5H158.031V32.84H159.081ZM167.239 42.5V33.624H167.211L164.453 36.172L164.019 35.262L167.239 32.28H168.359V42.5H167.239ZM175.696 33.092C174.772 33.092 173.848 33.414 172.924 34.058L172.588 33.162C173.54 32.4807 174.623 32.14 175.836 32.14C176.835 32.14 177.61 32.3967 178.16 32.91C178.711 33.414 178.986 34.1233 178.986 35.038C178.986 35.9527 178.655 36.8767 177.992 37.81C177.33 38.7433 176.088 39.9847 174.268 41.534V41.562H179.028V42.5H172.728V41.562C174.716 39.9193 176.06 38.6407 176.76 37.726C177.47 36.802 177.824 35.934 177.824 35.122C177.824 34.4593 177.642 33.9553 177.278 33.61C176.924 33.2647 176.396 33.092 175.696 33.092Z" fill="#1C1E21"/>
<path d="M705.751 56.28H712.331V57.218C710.698 59.8967 709.345 62.9907 708.271 66.5H707.109C708.192 63.0933 709.569 60.0087 711.239 57.246V57.218H705.751V56.28Z" fill="#1C1E21"/>
<path d="M673.624 80.5V70.28H674.758L678.398 76.44H678.426L682.066 70.28H683.242V80.5H682.122V72.156H682.094L678.93 77.462H677.894L674.73 72.156H674.702V80.5H673.624ZM686.048 80.5V70.28H687.266V80.5H686.048ZM692.899 71.05C692.255 71.05 691.756 71.1947 691.401 71.484C691.046 71.764 690.869 72.156 690.869 72.66C690.869 73.5653 691.532 74.2187 692.857 74.62C694.014 74.956 694.836 75.376 695.321 75.88C695.816 76.384 696.063 77.0373 696.063 77.84C696.063 78.7453 695.778 79.4407 695.209 79.926C694.649 80.402 693.846 80.64 692.801 80.64C691.644 80.64 690.617 80.346 689.721 79.758L690.057 78.834C690.869 79.4127 691.784 79.702 692.801 79.702C693.492 79.702 694.019 79.5433 694.383 79.226C694.756 78.9087 694.943 78.4467 694.943 77.84C694.943 77.28 694.784 76.8367 694.467 76.51C694.159 76.174 693.613 75.8847 692.829 75.642C690.785 75.0353 689.763 74.0413 689.763 72.66C689.763 71.8947 690.038 71.2833 690.589 70.826C691.149 70.3687 691.919 70.14 692.899 70.14C693.954 70.14 694.934 70.3593 695.839 70.798L695.559 71.666C694.747 71.2553 693.86 71.05 692.899 71.05ZM702.51 71.078C701.278 71.078 700.293 71.47 699.556 72.254C698.828 73.0287 698.464 74.074 698.464 75.39C698.464 76.706 698.837 77.756 699.584 78.54C700.34 79.3147 701.315 79.702 702.51 79.702C703.48 79.702 704.381 79.436 705.212 78.904L705.59 79.744C704.675 80.3413 703.616 80.64 702.412 80.64C700.872 80.64 699.64 80.164 698.716 79.212C697.792 78.26 697.33 76.986 697.33 75.39C697.33 73.7753 697.787 72.4967 698.702 71.554C699.616 70.6113 700.853 70.14 702.412 70.14C703.616 70.14 704.675 70.4387 705.59 71.036L705.212 71.876C704.381 71.344 703.48 71.078 702.51 71.078ZM707.063 76.888V75.992H711.221V76.888H707.063ZM713.532 80.5V70.28H714.666L718.306 76.44H718.334L721.974 70.28H723.15V80.5H722.03V72.156H722.002L718.838 77.462H717.802L714.638 72.156H714.61V80.5H713.532ZM726.656 71.218V74.55H731.234V75.446H726.656V79.562H731.514V80.5H725.536V70.28H731.514V71.218H726.656ZM733.753 80.5V70.28H734.887L738.527 76.44H738.555L742.195 70.28H743.371V80.5H742.251V72.156H742.223L739.059 77.462H738.023L734.859 72.156H734.831V80.5H733.753Z" fill="#1C1E21"/>
<path d="M563.327 57.218H558.903L558.707 60.522H558.735C559.286 60.1953 559.907 60.032 560.597 60.032C561.596 60.032 562.371 60.3027 562.921 60.844C563.472 61.3853 563.747 62.1507 563.747 63.14C563.747 64.2787 563.425 65.1467 562.781 65.744C562.147 66.3413 561.213 66.64 559.981 66.64C559.029 66.64 558.152 66.416 557.349 65.968L557.629 65.044C558.413 65.4827 559.197 65.702 559.981 65.702C561.745 65.702 562.627 64.848 562.627 63.14C562.627 62.4213 562.436 61.8753 562.053 61.502C561.671 61.1193 561.12 60.928 560.401 60.928C559.664 60.928 559.053 61.1427 558.567 61.572H557.587L557.895 56.28H563.327V57.218Z" fill="#1C1E21"/>
<path d="M560.485 70.14C562.949 70.14 564.181 71.89 564.181 75.39C564.181 78.89 562.949 80.64 560.485 80.64C559.319 80.64 558.413 80.234 557.769 79.422C557.125 78.61 556.803 77.266 556.803 75.39C556.803 73.514 557.125 72.17 557.769 71.358C558.413 70.546 559.319 70.14 560.485 70.14ZM558.553 78.708C558.983 79.3893 559.627 79.73 560.485 79.73C561.344 79.73 561.988 79.3893 562.417 78.708C562.847 78.0173 563.061 76.9113 563.061 75.39C563.061 73.8687 562.847 72.7673 562.417 72.086C561.988 71.3953 561.344 71.05 560.485 71.05C559.627 71.05 558.983 71.3953 558.553 72.086C558.133 72.7673 557.923 73.8687 557.923 75.39C557.923 76.9113 558.133 78.0173 558.553 78.708Z" fill="#1C1E21"/>
<path d="M458.349 56.28H464.481V57.218L461.121 60.508V60.536H461.555C462.545 60.536 463.301 60.774 463.823 61.25C464.355 61.726 464.621 62.4167 464.621 63.322C464.621 64.386 464.304 65.2073 463.669 65.786C463.044 66.3553 462.148 66.64 460.981 66.64C459.973 66.64 459.087 66.3973 458.321 65.912L458.657 65.002C459.441 65.4687 460.216 65.702 460.981 65.702C461.803 65.702 462.428 65.5013 462.857 65.1C463.287 64.6987 463.501 64.106 463.501 63.322C463.501 62.6593 463.277 62.1693 462.829 61.852C462.391 61.5253 461.686 61.362 460.715 61.362H459.693V60.494L463.039 57.246V57.218H458.349V56.28Z" fill="#1C1E21"/>
<path d="M442.744 71.218H438.026V74.69H442.464V75.586H438.026V80.5H436.906V70.28H442.744V71.218ZM446.038 71.218V74.55H450.616V75.446H446.038V79.562H450.896V80.5H444.918V70.28H450.896V71.218H446.038ZM453.134 80.5V70.28H454.296L459.616 78.68H459.644V70.28H460.736V80.5H459.588L454.268 72.1H454.24V80.5H453.134ZM467.665 71.078C466.433 71.078 465.448 71.47 464.711 72.254C463.983 73.0287 463.619 74.074 463.619 75.39C463.619 76.706 463.992 77.756 464.739 78.54C465.495 79.3147 466.47 79.702 467.665 79.702C468.635 79.702 469.536 79.436 470.367 78.904L470.745 79.744C469.83 80.3413 468.771 80.64 467.567 80.64C466.027 80.64 464.795 80.164 463.871 79.212C462.947 78.26 462.485 76.986 462.485 75.39C462.485 73.7753 462.942 72.4967 463.857 71.554C464.771 70.6113 466.008 70.14 467.567 70.14C468.771 70.14 469.83 70.4387 470.745 71.036L470.367 71.876C469.536 71.344 468.635 71.078 467.665 71.078ZM473.969 71.218V74.55H478.547V75.446H473.969V79.562H478.827V80.5H472.849V70.28H478.827V71.218H473.969ZM481.206 80.5V78.54H482.508V80.5H481.206ZM485.451 80.5V70.28H486.669V80.5H485.451Z" fill="#1C1E21"/>
<path d="M365.327 57.218H360.903L360.707 60.522H360.735C361.286 60.1953 361.907 60.032 362.597 60.032C363.596 60.032 364.371 60.3027 364.921 60.844C365.472 61.3853 365.747 62.1507 365.747 63.14C365.747 64.2787 365.425 65.1467 364.781 65.744C364.147 66.3413 363.213 66.64 361.981 66.64C361.029 66.64 360.152 66.416 359.349 65.968L359.629 65.044C360.413 65.4827 361.197 65.702 361.981 65.702C363.745 65.702 364.627 64.848 364.627 63.14C364.627 62.4213 364.436 61.8753 364.053 61.502C363.671 61.1193 363.12 60.928 362.401 60.928C361.664 60.928 361.053 61.1427 360.567 61.572H359.587L359.895 56.28H365.327V57.218Z" fill="#1C1E21"/>
<path d="M362.485 70.14C364.949 70.14 366.181 71.89 366.181 75.39C366.181 78.89 364.949 80.64 362.485 80.64C361.319 80.64 360.413 80.234 359.769 79.422C359.125 78.61 358.803 77.266 358.803 75.39C358.803 73.514 359.125 72.17 359.769 71.358C360.413 70.546 361.319 70.14 362.485 70.14ZM360.553 78.708C360.983 79.3893 361.627 79.73 362.485 79.73C363.344 79.73 363.988 79.3893 364.417 78.708C364.847 78.0173 365.061 76.9113 365.061 75.39C365.061 73.8687 364.847 72.7673 364.417 72.086C363.988 71.3953 363.344 71.05 362.485 71.05C361.627 71.05 360.983 71.3953 360.553 72.086C360.133 72.7673 359.923 73.8687 359.923 75.39C359.923 76.9113 360.133 78.0173 360.553 78.708Z" fill="#1C1E21"/>
<path d="M147.672 66.5V57.624H147.644L144.886 60.172L144.452 59.262L147.672 56.28H148.792V66.5H147.672ZM156.13 57.092C155.206 57.092 154.282 57.414 153.358 58.058L153.022 57.162C153.974 56.4807 155.057 56.14 156.27 56.14C157.269 56.14 158.043 56.3967 158.594 56.91C159.145 57.414 159.42 58.1233 159.42 59.038C159.42 59.9527 159.089 60.8767 158.426 61.81C157.763 62.7433 156.522 63.9847 154.702 65.534V65.562H159.462V66.5H153.162V65.562C155.15 63.9193 156.494 62.6407 157.194 61.726C157.903 60.802 158.258 59.934 158.258 59.122C158.258 58.4593 158.076 57.9553 157.712 57.61C157.357 57.2647 156.83 57.092 156.13 57.092Z" fill="#1C1E21"/>
<path d="M152.485 70.14C154.949 70.14 156.181 71.89 156.181 75.39C156.181 78.89 154.949 80.64 152.485 80.64C151.319 80.64 150.413 80.234 149.769 79.422C149.125 78.61 148.803 77.266 148.803 75.39C148.803 73.514 149.125 72.17 149.769 71.358C150.413 70.546 151.319 70.14 152.485 70.14ZM150.553 78.708C150.983 79.3893 151.627 79.73 152.485 79.73C153.344 79.73 153.988 79.3893 154.417 78.708C154.847 78.0173 155.061 76.9113 155.061 75.39C155.061 73.8687 154.847 72.7673 154.417 72.086C153.988 71.3953 153.344 71.05 152.485 71.05C151.627 71.05 150.983 71.3953 150.553 72.086C150.133 72.7673 149.923 73.8687 149.923 75.39C149.923 76.9113 150.133 78.0173 150.553 78.708Z" fill="#1C1E21"/>
</g>
<defs>
<clipPath id="clip0_1_2">
<rect width="800" height="84" fill="white"/>
</clipPath>
</defs>
</svg>
