<svg xmlns="http://www.w3.org/2000/svg" xmlns:xlink="http://www.w3.org/1999/xlink" width="612" height="340"><defs><path id="c" d="M3.453 0h1.23v-8.758h3.11v-1.105H.343v1.105h3.11Zm0 0"/><path id="d" d="M3.7.137c1.55 0 2.714-.93 2.945-2.106l.015-.07H5.488l-.02.062c-.202.61-.84 1.059-1.741 1.059-1.266 0-2.07-.852-2.098-2.316h5.117v-.438c0-2.133-1.18-3.574-3.121-3.574s-3.2 1.512-3.2 3.71v.009C.426-1.293 1.657.137 3.7.137m-.083-6.332c1.04 0 1.805.652 1.922 2.03H1.65c.128-1.323.937-2.03 1.968-2.03m0 0"/><path id="e" d="M3.297.137c1.586 0 2.762-.875 2.762-2.121v-.004c0-1.012-.52-1.582-1.957-1.93l-1.13-.273c-.784-.192-1.105-.528-1.105-1.012v-.008c0-.629.531-1.043 1.395-1.043.883 0 1.406.457 1.504 1.149l.007.046h1.133l-.008-.09C5.813-6.335 4.82-7.245 3.262-7.245c-1.54 0-2.614.867-2.614 2.09v.008c0 1.027.653 1.648 1.993 1.968l1.125.274c.808.199 1.074.484 1.074 1v.004c0 .644-.574 1.047-1.54 1.047-.968 0-1.495-.418-1.64-1.13l-.012-.066H.457l.008.063C.609-.718 1.62.137 3.297.137m0 0"/><path id="f" d="M3.082.137c.234 0 .488-.028.637-.047v-.965c-.102.008-.239.027-.383.027-.637 0-.969-.21-.969-.972v-4.305H3.72v-.984H2.367v-1.922h-1.23v1.922H.097v.984h1.04v4.313c0 1.359.64 1.949 1.945 1.949m0 0"/><path id="h" d="M.957 0h1.23v-9.863H.958Zm0 0"/><path id="i" d="M4.184.164c2.257 0 3.644-1.11 3.644-2.86v-.003c0-1.504-.848-2.324-2.871-2.77l-1.094-.238c-1.285-.281-1.879-.79-1.879-1.594v-.008c0-.949.86-1.578 2.18-1.586 1.25 0 2.09.594 2.242 1.602l.012.094h1.23l-.003-.102c-.11-1.613-1.52-2.726-3.446-2.726-2.031 0-3.469 1.132-3.472 2.754v.007c0 1.442.902 2.309 2.828 2.735l1.093.238c1.356.3 1.922.785 1.922 1.652v.008c0 1.02-.894 1.66-2.316 1.66-1.43 0-2.387-.605-2.531-1.597l-.012-.098H.48l.003.098C.61-.883 2.051.164 4.184.164m0 0"/><path id="j" d="M.172 0h1.293l.996-2.824h3.973L7.43 0h1.293L5.059-9.863H3.844Zm4.266-8.387h.027L6.063-3.87H2.836Zm0 0"/><path id="k" d="M4.238.164c2.27 0 3.63-1.96 3.63-5.094v-.011c0-3.133-1.36-5.086-3.63-5.086S.621-8.074.621-4.941v.011C.621-1.797 1.97.164 4.238.164m0-1.074C2.734-.91 1.86-2.453 1.86-4.93v-.011c0-2.477.875-4.008 2.38-4.008 1.503 0 2.394 1.531 2.394 4.008v.011c0 2.477-.89 4.02-2.395 4.02m0 0"/><path id="l" d="M4.121.164c1.977 0 3.426-1.219 3.426-2.863v-.016c0-1.402-.977-2.297-2.414-2.418v-.027c1.23-.262 2.094-1.094 2.094-2.313v-.011c0-1.5-1.239-2.543-3.118-2.543-1.847 0-3.117 1.07-3.273 2.68l-.008.066h1.184l.004-.067c.105-1 .93-1.613 2.093-1.613 1.204 0 1.88.594 1.88 1.625v.016c0 .984-.821 1.707-1.997 1.707H2.81v1.039h1.238c1.383 0 2.25.676 2.25 1.886v.016c0 1.043-.883 1.77-2.176 1.77-1.312 0-2.2-.672-2.3-1.641l-.008-.07H.629l.008.082C.766-.973 2.086.164 4.12.164m0 0"/><path id="m" d="M.766-3.445H3.68v2.828h1.105v-2.828h2.918v-1.11H4.785v-2.828H3.68v2.828H.766Zm0 0"/><path id="n" d="M.957 0h1.148v-7.621h.043L5.297 0h1.039l3.152-7.621h.043V0h1.149v-9.863H9.258L5.84-1.551h-.043L2.379-9.863H.957Zm0 0"/><path id="o" d="M.957 0h1.23v-3.52h2.286c1.851 0 3.164-1.308 3.164-3.18v-.015c0-1.87-1.313-3.148-3.164-3.148H.957Zm3.2-8.77c1.41 0 2.222.77 2.222 2.07v.013c0 1.3-.813 2.074-2.223 2.074H2.188V-8.77Zm0 0"/><path id="p" d="M.957 0h5.988v-1.11H2.188v-8.753H.956Zm0 0"/><path id="q" d="M.957 0H7.07v-1.11H2.188V-4.5h4.628v-1.094H2.188v-3.164H7.07v-1.105H.957Zm0 0"/><path id="r" d="M.957 0h3.727C6.78 0 8.027-1.031 8.027-2.77v-.011c0-1.309-.863-2.266-2.285-2.43v-.027c1.02-.14 1.785-1.133 1.785-2.153v-.011c0-1.477-1.14-2.461-2.832-2.461H.957Zm3.461-8.777c1.187 0 1.863.53 1.863 1.504v.011c0 1.067-.793 1.649-2.246 1.649H2.187v-3.164Zm-.035 4.222c1.57 0 2.379.582 2.379 1.723v.016c0 1.132-.785 1.73-2.262 1.73H2.188v-3.469Zm0 0"/><path id="s" d="M1.504-5.195a.774.774 0 0 0 .781-.782.77.77 0 0 0-.781-.777.767.767 0 0 0-.777.777c0 .438.34.782.777.782m0 5.293a.774.774 0 0 0 .781-.782.774.774 0 0 0-.781-.78.77.77 0 0 0-.777.78c0 .438.34.782.777.782m0 0"/><path id="t" d="M.836 0h1.187v-9.863H.836Zm0 0"/><path id="u" d="M3.719.137c1.96 0 3.289-1.422 3.289-3.692v-.015c0-2.27-1.332-3.676-3.297-3.676C1.75-7.246.426-5.832.426-3.57v.015C.426-1.293 1.742.137 3.719.137m.008-1.055c-1.258 0-2.086-.96-2.086-2.637v-.015c0-1.66.836-2.625 2.07-2.625 1.258 0 2.078.957 2.078 2.625v.015c0 1.668-.812 2.637-2.062 2.637m0 0"/><path id="v" d="M2.18 0h1.21l1.602-5.504h.028L6.625 0h1.21l1.981-7.11H8.641L7.219-1.327H7.19L5.578-7.11H4.43L2.824-1.33h-.027l-1.422-5.78H.191Zm0 0"/><path id="w" d="M3.445.137c1.02 0 1.813-.512 2.258-1.34h.027V0h1.188v-9.863H5.73v3.941h-.027c-.445-.82-1.273-1.324-2.277-1.324-1.785 0-3 1.441-3 3.684v.007c0 2.243 1.203 3.692 3.02 3.692M3.68-.918c-1.258 0-2.04-1.004-2.04-2.637v-.007c0-1.622.782-2.633 2.04-2.633 1.195 0 2.054 1.047 2.054 2.633v.007c0 1.594-.851 2.637-2.054 2.637m0 0"/><path id="x" d="M3.242 2.395h.996c-.984-1.145-1.73-3.852-1.73-6.133 0-2.285.746-4.985 1.73-6.125h-.996C1.906-8.168 1.301-6.172 1.301-3.738c0 2.433.605 4.441 1.941 6.133m0 0"/><path id="y" d="M5.094.164c2.633 0 4.183-1.578 4.183-4.246v-.938H5.266v1.082h2.78v.176c0 1.657-1.202 2.79-2.952 2.79-2.012 0-3.262-1.532-3.262-4.012v-.008c0-2.434 1.23-3.903 3.262-3.903 1.386 0 2.343.72 2.8 1.97l.028.073h1.293L9.18-6.98c-.457-1.743-1.817-3.047-4.086-3.047-2.754 0-4.52 1.953-4.52 5.035v.008C.574-1.84 2.34.164 5.094.164m0 0"/><path id="z" d="M.773 0h1.188v-4.184c0-1.21.734-2.011 1.855-2.011 1.094 0 1.633.636 1.633 1.793V0h1.188v-4.613c0-1.621-.903-2.633-2.461-2.633-1.078 0-1.805.484-2.188 1.148h-.027v-1.011H.773Zm0 0"/><path id="A" d="M.773 0h1.188v-4.39c0-1.079.601-1.723 1.527-1.723.285 0 .54.035.633.07v-1.156c-.094-.012-.273-.047-.476-.047-.801 0-1.415.52-1.657 1.34h-.027V-7.11H.773Zm0 0"/><path id="B" d="M1.441-8.312a.744.744 0 0 0 .746-.747.74.74 0 0 0-.746-.746.74.74 0 0 0-.742.746c0 .41.332.746.742.746M.848 0h1.191v-7.11H.848Zm0 0"/><path id="C" d="M3.719.137c1.605 0 2.777-1.047 2.969-2.399l.003-.05H5.523l-.011.054c-.2.793-.82 1.34-1.793 1.34-1.23 0-2.078-.977-2.078-2.629v-.008c0-1.613.828-2.64 2.066-2.64 1.043 0 1.617.629 1.797 1.34l.012.054H6.68l-.008-.054C6.523-6.07 5.477-7.246 3.707-7.246 1.73-7.246.426-5.812.426-3.57v.007c0 2.262 1.277 3.7 3.293 3.7m0 0"/><path id="D" d="M.957 0h1.23v-3.902h2.36L6.66 0h1.442L5.816-4.094c1.23-.39 1.985-1.449 1.985-2.816v-.016c0-1.777-1.246-2.937-3.145-2.937H.957Zm1.23-4.992V-8.77h2.305c1.266 0 2.035.696 2.035 1.872v.015c0 1.207-.715 1.89-1.98 1.89Zm0 0"/><path id="E" d="M3.809 0h1.214L8.66-9.863H7.371L4.43-1.477h-.028L1.465-9.863H.172Zm0 0"/><path id="F" d="M.773 2.395h1.188v-3.586h.027C2.434-.371 3.262.137 4.266.137c1.785 0 3-1.442 3-3.684v-.008c0-2.242-1.203-3.691-3.02-3.691-1.02 0-1.812.512-2.258 1.34h-.027V-7.11H.773ZM4.012-.918c-1.196 0-2.055-1.043-2.055-2.629v-.008c0-1.593.852-2.64 2.055-2.64 1.258 0 2.039 1.008 2.039 2.64v.008c0 1.617-.781 2.629-2.04 2.629m0 0"/><path id="G" d="M2.852.137c.949 0 1.804-.512 2.222-1.293h.028V0h1.187v-4.914c0-1.422-1.05-2.332-2.734-2.332-1.676 0-2.692.941-2.797 2.113l-.004.074h1.148l.012-.062c.137-.637.711-1.074 1.629-1.074.988 0 1.559.527 1.559 1.394v.598l-2.04.113C1.43-3.992.485-3.234.485-2.023v.011c0 1.293.954 2.149 2.368 2.149M1.703-2.012v-.011c0-.664.547-1.086 1.496-1.141l1.903-.117v.582c0 1.031-.864 1.804-1.985 1.804-.855 0-1.414-.433-1.414-1.117m0 0"/><path id="H" d="M.773 0h1.188v-4.457c0-.992.684-1.738 1.629-1.738.883 0 1.457.57 1.457 1.43V0h1.187v-4.52c0-.968.664-1.675 1.606-1.675.937 0 1.476.582 1.476 1.558V0h1.192v-4.91c0-1.414-.91-2.336-2.317-2.336-1 0-1.832.512-2.23 1.367h-.027c-.309-.867-1.024-1.367-1.997-1.367-.914 0-1.624.473-1.949 1.176h-.027v-1.04H.773Zm0 0"/><path id="I" d="M1.273 2.395c1.332-1.692 1.942-3.7 1.942-6.133 0-2.434-.61-4.43-1.942-6.125h-1c.985 1.14 1.73 3.84 1.73 6.125 0 2.281-.745 4.988-1.73 6.133Zm0 0"/><path id="J" d="M.836 0h1.187v-4.148c0-1.211.73-2.047 1.832-2.047 1.11 0 1.766.761 1.766 2.047V0H6.81v-4.355c0-1.723-1.032-2.891-2.543-2.891-1.059 0-1.832.473-2.215 1.27h-.028v-3.887H.836Zm0 0"/><path id="K" d="M2.996 0h1.16l2.297-7.902h.027L8.777 0h1.164l2.684-9.863H11.34L9.352-1.766h-.028L7.09-9.863H5.844L3.609-1.766h-.027L1.594-9.863H.309Zm0 0"/><path id="L" d="M2.387-5.45h.832l-.067-1.585 1.297.828.426-.645-1.437-.757 1.437-.75-.426-.645-1.297.828.067-1.578h-.832l.066 1.578-1.297-.828-.426.645 1.45.757-1.45.766.426.64 1.297-.824Zm0 0"/><path id="M" d="M1.41 2.395h2.965v-.926H2.559V-8.934h1.816v-.93H1.41Zm0 0"/><path id="N" d="M.867 0H2.06v-2.68l.664-.636L5.359 0h1.383l-3.18-4.04 3.083-3.07H5.203L2.086-3.972h-.027v-5.89H.867Zm0 0"/><path id="O" d="M3.105 2.395V-9.863H.137v.93h1.82V1.468H.137v.926Zm0 0"/><path id="P" d="M7.617-4.64.847-7.235v1.082l5.778 2.16L.848-1.824v1.05l6.77-2.59Zm0 0"/><path id="Q" d="M3.316 0h1.188v-9.863H3.3L.676-7.977v1.235L3.289-8.56h.027Zm0 0"/><path id="R" d="M4.309.137c1.816 0 3.02-1.45 3.02-3.692v-.007c0-2.243-1.216-3.684-3-3.684-1.005 0-1.833.504-2.278 1.324h-.028v-3.941H.836V0h1.187v-1.203h.028c.445.828 1.238 1.34 2.258 1.34M4.074-.918c-1.203 0-2.058-1.043-2.058-2.637v-.007c0-1.586.863-2.633 2.058-2.633 1.258 0 2.04 1.011 2.04 2.633v.007c0 1.633-.782 2.637-2.04 2.637m0 0"/><path id="S" d="M.848-5.14h6.77v-1.11H.847Zm0 3.382h6.77v-1.105H.847Zm0 0"/><path id="T" d="M1.156 0h1.188v-6.125h1.449v-.984H2.332v-.868c0-.707.328-1.039.984-1.039.184 0 .368.004.512.028v-.965A5 5 0 0 0 3.105-10c-1.312 0-1.949.648-1.949 2.016v.875H.164v.984h.992Zm0 0"/><path id="U" d="M3.781 2.531c1.926 0 3.137-1.082 3.137-2.73v-6.91H5.73v1.203h-.027c-.437-.793-1.23-1.34-2.238-1.34-1.805 0-3.04 1.434-3.04 3.644v.004C.426-1.375 1.649.07 3.438.07c1.02 0 1.84-.508 2.266-1.293h.027v.907c0 1.101-.71 1.793-1.964 1.793-.97 0-1.645-.313-1.871-.829L1.867.59H.672l.012.058c.234 1.055 1.34 1.883 3.097 1.883M3.7-.984c-1.265 0-2.058-1-2.058-2.614v-.004c0-1.582.793-2.593 2.058-2.593 1.203 0 2.031 1.027 2.031 2.593v.004c0 1.582-.82 2.614-2.03 2.614m0 0"/></defs><path fill="none" stroke="#8E8E93" stroke-miterlimit="10" stroke-width="2" d="M126 71.027v43.633"/><path fill="#8E8E93" stroke="#8E8E93" stroke-miterlimit="10" stroke-width="2" d="m129.5 114.281-3.5 10-3.5-10Zm0 0"/><path fill="none" stroke="#007AFF" stroke-miterlimit="10" stroke-width="2" d="M135.719 72.95c10.933 12.081 26.629 32.038 32.617 51.847 14.812 46.887 14.812 63.969 0 110.86-4.598 15.116-14.965 30.542-24.363 42.183"/><path fill="none" stroke="#FF9500" stroke-miterlimit="10" stroke-width="2" d="M137.203 71.61c11.02 12.183 26.715 32.144 33.043 52.59 14.902 47.484 14.902 64.566 0 112.05-4.848 15.64-15.215 31.066-24.715 42.848"/><path fill="none" stroke="#AF52DE" stroke-miterlimit="10" stroke-width="2" d="M138.688 70.266c11.109 12.293 26.804 32.254 33.468 53.336 14.992 48.082 14.992 65.164 0 113.246-5.097 16.156-15.465 31.582-25.066 43.504"/><path fill="none" stroke="#FF3B30" stroke-miterlimit="10" stroke-width="2" d="M140.168 68.926c11.2 12.394 26.894 32.355 33.894 54.078 15.086 48.68 15.086 65.762 0 114.441-5.343 16.676-15.71 32.102-25.417 44.16"/><path fill="#007AFF" stroke="#007AFF" stroke-miterlimit="10" stroke-width="2" d="m149.07 281.883-9.16 5.328 3.836-9.875Zm0 0"/><path fill="none" stroke="#FF9500" stroke-miterlimit="10" stroke-width="2" d="M125 152.027v43.633"/><path fill="none" stroke="#AF52DE" stroke-miterlimit="10" stroke-width="2" d="M127 152.027v43.633"/><path fill="#FF9500" stroke="#FF9500" stroke-miterlimit="10" stroke-width="2" d="m129.5 195.281-3.5 10-3.5-10Zm0 0"/><path fill="none" stroke="#FF9500" stroke-miterlimit="10" stroke-width="2" d="M167.648 149.098c65.301 14.691 191.774 43.148 264.106 59.422"/><path fill="#FF9500" stroke="#FF9500" stroke-miterlimit="10" stroke-width="2" d="m432.23 205.04 8.989 5.608-10.524 1.22Zm0 0"/><path fill="none" stroke="#8E8E93" stroke-miterlimit="10" stroke-width="2" d="M126 233.027v43.633"/><path fill="#8E8E93" stroke="#8E8E93" stroke-miterlimit="10" stroke-width="2" d="m129.5 276.281-3.5 10-3.5-10Zm0 0"/><path fill="none" stroke="#8E8E93" stroke-miterlimit="10" stroke-width="2" d="M486 71.027v43.633"/><path fill="#8E8E93" stroke="#8E8E93" stroke-miterlimit="10" stroke-width="2" d="m489.5 114.281-3.5 10-3.5-10Zm0 0"/><path fill="none" stroke="#007AFF" stroke-miterlimit="10" stroke-width="2" d="M495.719 72.95c10.933 12.081 26.629 32.038 32.617 51.847 14.812 46.887 14.812 63.969 0 110.86-4.598 15.116-14.965 30.542-24.363 42.183"/><path fill="none" stroke="#FF9500" stroke-miterlimit="10" stroke-width="2" d="M497.203 71.61c11.02 12.183 26.715 32.144 33.043 52.59 14.902 47.484 14.902 64.566 0 112.05-4.848 15.64-15.215 31.066-24.715 42.848"/><path fill="none" stroke="#AF52DE" stroke-miterlimit="10" stroke-width="2" d="M498.688 70.266c11.109 12.293 26.804 32.254 33.468 53.336 14.992 48.082 14.992 65.164 0 113.246-5.097 16.156-15.465 31.582-25.066 43.504"/><path fill="none" stroke="#FF3B30" stroke-miterlimit="10" stroke-width="2" d="M500.168 68.926c11.2 12.394 26.894 32.355 33.894 54.078 15.086 48.68 15.086 65.762 0 114.441-5.343 16.676-15.71 32.102-25.417 44.16"/><path fill="#007AFF" stroke="#007AFF" stroke-miterlimit="10" stroke-width="2" d="m509.07 281.883-9.16 5.328 3.836-9.875Zm0 0"/><path fill="none" stroke="#FF9500" stroke-miterlimit="10" stroke-width="2" d="M444.352 149.098c-65.301 14.691-191.774 43.148-264.106 59.422"/><path fill="#FF9500" stroke="#FF9500" stroke-miterlimit="10" stroke-width="2" d="m181.305 211.867-10.524-1.219 8.989-5.609Zm0 0"/><path fill="none" stroke="#FF9500" stroke-miterlimit="10" stroke-width="2" d="M485 152.027v43.633"/><path fill="none" stroke="#AF52DE" stroke-miterlimit="10" stroke-width="2" d="M487 152.027v43.633"/><path fill="#FF9500" stroke="#FF9500" stroke-miterlimit="10" stroke-width="2" d="m489.5 195.281-3.5 10-3.5-10Zm0 0"/><path fill="none" stroke="#007AFF" stroke-miterlimit="10" stroke-width="2" d="M444.352 220.727H180.695"/><path fill="#007AFF" stroke="#007AFF" stroke-miterlimit="10" stroke-width="2" d="m180.855 224.227-10-3.5 10-3.5Zm0 0"/><path fill="none" stroke="#8E8E93" stroke-miterlimit="10" stroke-width="2" d="M486 233.027v43.633"/><path fill="#8E8E93" stroke="#8E8E93" stroke-miterlimit="10" stroke-width="2" d="m489.5 276.281-3.5 10-3.5-10Zm0 0"/><path fill="none" stroke="#007AFF" stroke-miterlimit="10" stroke-width="2" d="M468.523 287.516c-58.77-39.668-240.808-162.543-312.226-210.754"/><path fill="none" stroke="#FF9500" stroke-miterlimit="10" stroke-width="2" d="M467.402 289.172c-58.765-39.668-240.804-162.543-312.222-210.75"/><path fill="none" stroke="#FF3B30" stroke-miterlimit="10" stroke-width="2" d="M466.285 290.828C407.515 251.16 225.48 128.285 154.06 80.078"/><path fill="#007AFF" stroke="#007AFF" stroke-miterlimit="10" stroke-width="2" d="m153.543 81.54-6.332-8.497 10.246 2.691Zm0 0"/><g fill="none" stroke="#FFF" stroke-linecap="round" stroke-linejoin="round" stroke-width="2"><use xlink:href="#c" x="97.5" y="331.648"/><use xlink:href="#d" x="103.5" y="331.648"/><use xlink:href="#e" x="111" y="331.648"/><use xlink:href="#f" x="117.75" y="331.648"/><use xlink:href="#g" x="122.25" y="331.648"/><use xlink:href="#h" x="125.25" y="331.648"/><use xlink:href="#i" x="128.25" y="331.648"/><use xlink:href="#j" x="136.5" y="331.648"/><use xlink:href="#k" x="145.5" y="331.648"/><use xlink:href="#l" x="153.75" y="331.648"/><use xlink:href="#m" x="162" y="331.648"/><use xlink:href="#i" x="170.25" y="331.648"/><use xlink:href="#h" x="178.5" y="331.648"/><use xlink:href="#n" x="181.5" y="331.648"/><use xlink:href="#o" x="193.5" y="331.648"/><use xlink:href="#p" x="201.75" y="331.648"/><use xlink:href="#q" x="209.25" y="331.648"/><use xlink:href="#m" x="216.75" y="331.648"/><use xlink:href="#r" x="225" y="331.648"/><use xlink:href="#h" x="233.25" y="331.648"/><use xlink:href="#i" x="236.25" y="331.648"/><use xlink:href="#s" x="244.5" y="331.648"/><use xlink:href="#g" x="247.5" y="331.648"/><use xlink:href="#j" x="250.5" y="331.648"/><use xlink:href="#t" x="259.5" y="331.648"/><use xlink:href="#t" x="262.5" y="331.648"/><use xlink:href="#u" x="265.5" y="331.648"/><use xlink:href="#v" x="273" y="331.648"/><use xlink:href="#d" x="282.75" y="331.648"/><use xlink:href="#w" x="290.25" y="331.648"/><use xlink:href="#g" x="297.75" y="331.648"/><use xlink:href="#x" x="300.75" y="331.648"/><use xlink:href="#y" x="305.25" y="331.648"/><use xlink:href="#d" x="315" y="331.648"/><use xlink:href="#z" x="322.5" y="331.648"/><use xlink:href="#d" x="330" y="331.648"/><use xlink:href="#A" x="337.5" y="331.648"/><use xlink:href="#B" x="342" y="331.648"/><use xlink:href="#C" x="345" y="331.648"/><use xlink:href="#x" x="351.75" y="331.648"/><use xlink:href="#D" x="356.25" y="331.648"/><use xlink:href="#B" x="364.5" y="331.648"/><use xlink:href="#e" x="367.5" y="331.648"/><use xlink:href="#C" x="374.25" y="331.648"/><use xlink:href="#g" x="381" y="331.648"/><use xlink:href="#E" x="384" y="331.648"/><use xlink:href="#g" x="393" y="331.648"/><use xlink:href="#F" x="396" y="331.648"/><use xlink:href="#G" x="403.5" y="331.648"/><use xlink:href="#A" x="410.25" y="331.648"/><use xlink:href="#f" x="414.75" y="331.648"/><use xlink:href="#B" x="419.25" y="331.648"/><use xlink:href="#G" x="422.25" y="331.648"/><use xlink:href="#t" x="429" y="331.648"/><use xlink:href="#g" x="432" y="331.648"/><use xlink:href="#u" x="435" y="331.648"/><use xlink:href="#A" x="442.5" y="331.648"/><use xlink:href="#w" x="446.25" y="331.648"/><use xlink:href="#d" x="453.75" y="331.648"/><use xlink:href="#A" x="461.25" y="331.648"/><use xlink:href="#g" x="465.75" y="331.648"/><use xlink:href="#H" x="468.75" y="331.648"/><use xlink:href="#u" x="480" y="331.648"/><use xlink:href="#w" x="487.5" y="331.648"/><use xlink:href="#d" x="495" y="331.648"/><use xlink:href="#t" x="502.5" y="331.648"/><use xlink:href="#I" x="505.5" y="331.648"/><use xlink:href="#I" x="510" y="331.648"/></g><g fill="#1C1E21"><use xlink:href="#c" x="97.5" y="331.648"/><use xlink:href="#d" x="103.5" y="331.648"/><use xlink:href="#e" x="111" y="331.648"/><use xlink:href="#f" x="117.75" y="331.648"/><use xlink:href="#g" x="122.25" y="331.648"/><use xlink:href="#h" x="125.25" y="331.648"/><use xlink:href="#i" x="128.25" y="331.648"/><use xlink:href="#j" x="136.5" y="331.648"/><use xlink:href="#k" x="145.5" y="331.648"/><use xlink:href="#l" x="153.75" y="331.648"/><use xlink:href="#m" x="162" y="331.648"/><use xlink:href="#i" x="170.25" y="331.648"/><use xlink:href="#h" x="178.5" y="331.648"/><use xlink:href="#n" x="181.5" y="331.648"/><use xlink:href="#o" x="193.5" y="331.648"/><use xlink:href="#p" x="201.75" y="331.648"/><use xlink:href="#q" x="209.25" y="331.648"/><use xlink:href="#m" x="216.75" y="331.648"/><use xlink:href="#r" x="225" y="331.648"/><use xlink:href="#h" x="233.25" y="331.648"/><use xlink:href="#i" x="236.25" y="331.648"/><use xlink:href="#s" x="244.5" y="331.648"/><use xlink:href="#g" x="247.5" y="331.648"/><use xlink:href="#j" x="250.5" y="331.648"/><use xlink:href="#t" x="259.5" y="331.648"/><use xlink:href="#t" x="262.5" y="331.648"/><use xlink:href="#u" x="265.5" y="331.648"/><use xlink:href="#v" x="273" y="331.648"/><use xlink:href="#d" x="282.75" y="331.648"/><use xlink:href="#w" x="290.25" y="331.648"/><use xlink:href="#g" x="297.75" y="331.648"/><use xlink:href="#x" x="300.75" y="331.648"/><use xlink:href="#y" x="305.25" y="331.648"/><use xlink:href="#d" x="315" y="331.648"/><use xlink:href="#z" x="322.5" y="331.648"/><use xlink:href="#d" x="330" y="331.648"/><use xlink:href="#A" x="337.5" y="331.648"/><use xlink:href="#B" x="342" y="331.648"/><use xlink:href="#C" x="345" y="331.648"/><use xlink:href="#x" x="351.75" y="331.648"/><use xlink:href="#D" x="356.25" y="331.648"/><use xlink:href="#B" x="364.5" y="331.648"/><use xlink:href="#e" x="367.5" y="331.648"/><use xlink:href="#C" x="374.25" y="331.648"/><use xlink:href="#g" x="381" y="331.648"/><use xlink:href="#E" x="384" y="331.648"/><use xlink:href="#g" x="393" y="331.648"/><use xlink:href="#F" x="396" y="331.648"/><use xlink:href="#G" x="403.5" y="331.648"/><use xlink:href="#A" x="410.25" y="331.648"/><use xlink:href="#f" x="414.75" y="331.648"/><use xlink:href="#B" x="419.25" y="331.648"/><use xlink:href="#G" x="422.25" y="331.648"/><use xlink:href="#t" x="429" y="331.648"/><use xlink:href="#g" x="432" y="331.648"/><use xlink:href="#u" x="435" y="331.648"/><use xlink:href="#A" x="442.5" y="331.648"/><use xlink:href="#w" x="446.25" y="331.648"/><use xlink:href="#d" x="453.75" y="331.648"/><use xlink:href="#A" x="461.25" y="331.648"/><use xlink:href="#g" x="465.75" y="331.648"/><use xlink:href="#H" x="468.75" y="331.648"/><use xlink:href="#u" x="480" y="331.648"/><use xlink:href="#w" x="487.5" y="331.648"/><use xlink:href="#d" x="495" y="331.648"/><use xlink:href="#t" x="502.5" y="331.648"/><use xlink:href="#I" x="505.5" y="331.648"/><use xlink:href="#I" x="510" y="331.648"/></g><g fill="none" stroke="#FFF" stroke-linecap="round" stroke-linejoin="round" stroke-width="2"><use xlink:href="#c" x="99.75" y="14.801"/><use xlink:href="#J" x="108" y="14.801"/><use xlink:href="#A" x="115.5" y="14.801"/><use xlink:href="#d" x="119.25" y="14.801"/><use xlink:href="#G" x="126.75" y="14.801"/><use xlink:href="#w" x="133.5" y="14.801"/><use xlink:href="#g" x="141" y="14.801"/><use xlink:href="#k" x="144" y="14.801"/></g><g fill="#1C1E21"><use xlink:href="#c" x="99.75" y="14.801"/><use xlink:href="#J" x="108" y="14.801"/><use xlink:href="#A" x="115.5" y="14.801"/><use xlink:href="#d" x="119.25" y="14.801"/><use xlink:href="#G" x="126.75" y="14.801"/><use xlink:href="#w" x="133.5" y="14.801"/><use xlink:href="#g" x="141" y="14.801"/><use xlink:href="#k" x="144" y="14.801"/></g><g fill="none" stroke="#FFF" stroke-linecap="round" stroke-linejoin="round" stroke-width="2"><use xlink:href="#G" x="58.875" y="63.398"/><use xlink:href="#s" x="65.625" y="63.398"/><use xlink:href="#g" x="68.625" y="63.398"/><use xlink:href="#D" x="71.625" y="63.398"/><use xlink:href="#n" x="79.875" y="63.398"/><use xlink:href="#K" x="91.875" y="63.398"/><use xlink:href="#x" x="104.625" y="63.398"/><use xlink:href="#L" x="109.125" y="63.398"/><use xlink:href="#I" x="114.375" y="63.398"/><use xlink:href="#M" x="118.875" y="63.398"/><use xlink:href="#t" x="123.375" y="63.398"/><use xlink:href="#u" x="126.375" y="63.398"/><use xlink:href="#C" x="133.875" y="63.398"/><use xlink:href="#N" x="140.625" y="63.398"/><use xlink:href="#O" x="147.375" y="63.398"/><use xlink:href="#v" x="151.875" y="63.398"/><use xlink:href="#x" x="161.625" y="63.398"/><use xlink:href="#k" x="166.125" y="63.398"/><use xlink:href="#P" x="174.375" y="63.398"/><use xlink:href="#Q" x="182.625" y="63.398"/><use xlink:href="#I" x="188.625" y="63.398"/></g><g fill="#1C1E21"><use xlink:href="#G" x="58.875" y="63.398"/><use xlink:href="#s" x="65.625" y="63.398"/><use xlink:href="#g" x="68.625" y="63.398"/><use xlink:href="#D" x="71.625" y="63.398"/><use xlink:href="#n" x="79.875" y="63.398"/><use xlink:href="#K" x="91.875" y="63.398"/><use xlink:href="#x" x="104.625" y="63.398"/><use xlink:href="#L" x="109.125" y="63.398"/><use xlink:href="#I" x="114.375" y="63.398"/><use xlink:href="#M" x="118.875" y="63.398"/><use xlink:href="#t" x="123.375" y="63.398"/><use xlink:href="#u" x="126.375" y="63.398"/><use xlink:href="#C" x="133.875" y="63.398"/><use xlink:href="#N" x="140.625" y="63.398"/><use xlink:href="#O" x="147.375" y="63.398"/><use xlink:href="#v" x="151.875" y="63.398"/><use xlink:href="#x" x="161.625" y="63.398"/><use xlink:href="#k" x="166.125" y="63.398"/><use xlink:href="#P" x="174.375" y="63.398"/><use xlink:href="#Q" x="182.625" y="63.398"/><use xlink:href="#I" x="188.625" y="63.398"/></g><g fill="none" stroke="#FFF" stroke-linecap="round" stroke-linejoin="round" stroke-width="2"><use xlink:href="#R" x="99" y="144.398"/><use xlink:href="#s" x="106.5" y="144.398"/><use xlink:href="#g" x="109.5" y="144.398"/><use xlink:href="#D" x="112.5" y="144.398"/><use xlink:href="#M" x="120.75" y="144.398"/><use xlink:href="#G" x="125.25" y="144.398"/><use xlink:href="#O" x="132" y="144.398"/><use xlink:href="#S" x="136.5" y="144.398"/><use xlink:href="#k" x="144.75" y="144.398"/></g><g fill="#1C1E21"><use xlink:href="#R" x="99" y="144.398"/><use xlink:href="#s" x="106.5" y="144.398"/><use xlink:href="#g" x="109.5" y="144.398"/><use xlink:href="#D" x="112.5" y="144.398"/><use xlink:href="#M" x="120.75" y="144.398"/><use xlink:href="#G" x="125.25" y="144.398"/><use xlink:href="#O" x="132" y="144.398"/><use xlink:href="#S" x="136.5" y="144.398"/><use xlink:href="#k" x="144.75" y="144.398"/></g><g fill="none" stroke="#FFF" stroke-linecap="round" stroke-linejoin="round" stroke-width="2"><use xlink:href="#F" x="111" y="95.395"/><use xlink:href="#u" x="118.5" y="95.395"/></g><g fill="#8E8E93"><use xlink:href="#F" x="111" y="95.395"/><use xlink:href="#u" x="118.5" y="95.395"/></g><g fill="none" stroke="#FFF" stroke-linecap="round" stroke-linejoin="round" stroke-width="2"><use xlink:href="#w" x="58.5" y="306.398"/><use xlink:href="#s" x="66" y="306.398"/><use xlink:href="#g" x="69" y="306.398"/><use xlink:href="#D" x="72" y="306.398"/><use xlink:href="#n" x="80.25" y="306.398"/><use xlink:href="#K" x="92.25" y="306.398"/><use xlink:href="#x" x="105" y="306.398"/><use xlink:href="#L" x="109.5" y="306.398"/><use xlink:href="#I" x="114.75" y="306.398"/><use xlink:href="#M" x="119.25" y="306.398"/><use xlink:href="#t" x="123.75" y="306.398"/><use xlink:href="#u" x="126.75" y="306.398"/><use xlink:href="#C" x="134.25" y="306.398"/><use xlink:href="#N" x="141" y="306.398"/><use xlink:href="#O" x="147.75" y="306.398"/><use xlink:href="#v" x="152.25" y="306.398"/><use xlink:href="#x" x="162" y="306.398"/><use xlink:href="#Q" x="166.5" y="306.398"/><use xlink:href="#P" x="172.5" y="306.398"/><use xlink:href="#k" x="180.75" y="306.398"/><use xlink:href="#I" x="189" y="306.398"/></g><g fill="#1C1E21"><use xlink:href="#w" x="58.5" y="306.398"/><use xlink:href="#s" x="66" y="306.398"/><use xlink:href="#g" x="69" y="306.398"/><use xlink:href="#D" x="72" y="306.398"/><use xlink:href="#n" x="80.25" y="306.398"/><use xlink:href="#K" x="92.25" y="306.398"/><use xlink:href="#x" x="105" y="306.398"/><use xlink:href="#L" x="109.5" y="306.398"/><use xlink:href="#I" x="114.75" y="306.398"/><use xlink:href="#M" x="119.25" y="306.398"/><use xlink:href="#t" x="123.75" y="306.398"/><use xlink:href="#u" x="126.75" y="306.398"/><use xlink:href="#C" x="134.25" y="306.398"/><use xlink:href="#N" x="141" y="306.398"/><use xlink:href="#O" x="147.75" y="306.398"/><use xlink:href="#v" x="152.25" y="306.398"/><use xlink:href="#x" x="162" y="306.398"/><use xlink:href="#Q" x="166.5" y="306.398"/><use xlink:href="#P" x="172.5" y="306.398"/><use xlink:href="#k" x="180.75" y="306.398"/><use xlink:href="#I" x="189" y="306.398"/></g><g fill="none" stroke="#FFF" stroke-linecap="round" stroke-linejoin="round" stroke-width="2"><use xlink:href="#C" x="127.66" y="175.273"/><use xlink:href="#u" x="134.41" y="175.273"/></g><g fill="#007AFF"><use xlink:href="#C" x="127.66" y="175.273"/><use xlink:href="#u" x="134.41" y="175.273"/></g><g fill="none" stroke="#FFF" stroke-linecap="round" stroke-linejoin="round" stroke-width="2"><use xlink:href="#T" x="141.91" y="175.273"/><use xlink:href="#A" x="146.41" y="175.273"/></g><g fill="#FF9500"><use xlink:href="#T" x="141.91" y="175.273"/><use xlink:href="#A" x="146.41" y="175.273"/></g><g fill="none" stroke="#FFF" stroke-linecap="round" stroke-linejoin="round" stroke-width="2"><use xlink:href="#F" x="150.91" y="175.273"/><use xlink:href="#F" x="158.41" y="175.273"/><use xlink:href="#u" x="165.91" y="175.273"/></g><g fill="#AF52DE"><use xlink:href="#F" x="150.91" y="175.273"/><use xlink:href="#F" x="158.41" y="175.273"/><use xlink:href="#u" x="165.91" y="175.273"/></g><g fill="none" stroke="#FFF" stroke-linecap="round" stroke-linejoin="round" stroke-width="2"><use xlink:href="#A" x="173.41" y="175.273"/><use xlink:href="#T" x="177.91" y="175.273"/></g><g fill="#FF3B30"><use xlink:href="#A" x="173.41" y="175.273"/><use xlink:href="#T" x="177.91" y="175.273"/></g><g fill="none" stroke="#FFF" stroke-linecap="round" stroke-linejoin="round" stroke-width="2"><use xlink:href="#C" x="98.25" y="225.398"/><use xlink:href="#s" x="105" y="225.398"/><use xlink:href="#g" x="108" y="225.398"/><use xlink:href="#K" x="111" y="225.398"/><use xlink:href="#M" x="123.75" y="225.398"/><use xlink:href="#G" x="128.25" y="225.398"/><use xlink:href="#O" x="135" y="225.398"/><use xlink:href="#S" x="139.5" y="225.398"/><use xlink:href="#Q" x="147.75" y="225.398"/></g><g fill="#1C1E21"><use xlink:href="#C" x="98.25" y="225.398"/><use xlink:href="#s" x="105" y="225.398"/><use xlink:href="#g" x="108" y="225.398"/><use xlink:href="#K" x="111" y="225.398"/><use xlink:href="#M" x="123.75" y="225.398"/><use xlink:href="#G" x="128.25" y="225.398"/><use xlink:href="#O" x="135" y="225.398"/><use xlink:href="#S" x="139.5" y="225.398"/><use xlink:href="#Q" x="147.75" y="225.398"/></g><g fill="none" stroke="#FFF" stroke-linecap="round" stroke-linejoin="round" stroke-width="2"><use xlink:href="#w" x="69.75" y="175.395"/><use xlink:href="#G" x="77.25" y="175.395"/><use xlink:href="#f" x="84" y="175.395"/><use xlink:href="#G" x="87.75" y="175.395"/></g><g fill="#AF52DE"><use xlink:href="#w" x="69.75" y="175.395"/><use xlink:href="#G" x="77.25" y="175.395"/><use xlink:href="#f" x="84" y="175.395"/><use xlink:href="#G" x="87.75" y="175.395"/></g><g fill="none" stroke="#FFF" stroke-linecap="round" stroke-linejoin="round" stroke-width="2"><use xlink:href="#T" x="94.5" y="175.395"/><use xlink:href="#A" x="99" y="175.395"/></g><g fill="#FF9500"><use xlink:href="#T" x="94.5" y="175.395"/><use xlink:href="#A" x="99" y="175.395"/></g><g fill="none" stroke="#FFF" stroke-linecap="round" stroke-linejoin="round" stroke-width="2"><use xlink:href="#F" x="103.5" y="175.395"/><use xlink:href="#F" x="111" y="175.395"/><use xlink:href="#u" x="118.5" y="175.395"/></g><g fill="#AF52DE"><use xlink:href="#F" x="103.5" y="175.395"/><use xlink:href="#F" x="111" y="175.395"/><use xlink:href="#u" x="118.5" y="175.395"/></g><g fill="none" stroke="#FFF" stroke-linecap="round" stroke-linejoin="round" stroke-width="2"><use xlink:href="#U" x="457.875" y="225.398"/><use xlink:href="#s" x="465.375" y="225.398"/><use xlink:href="#g" x="468.375" y="225.398"/><use xlink:href="#K" x="471.375" y="225.398"/><use xlink:href="#M" x="484.125" y="225.398"/><use xlink:href="#G" x="488.625" y="225.398"/><use xlink:href="#O" x="495.375" y="225.398"/><use xlink:href="#S" x="499.875" y="225.398"/><use xlink:href="#Q" x="508.125" y="225.398"/></g><g fill="#1C1E21"><use xlink:href="#U" x="457.875" y="225.398"/><use xlink:href="#s" x="465.375" y="225.398"/><use xlink:href="#g" x="468.375" y="225.398"/><use xlink:href="#K" x="471.375" y="225.398"/><use xlink:href="#M" x="484.125" y="225.398"/><use xlink:href="#G" x="488.625" y="225.398"/><use xlink:href="#O" x="495.375" y="225.398"/><use xlink:href="#S" x="499.875" y="225.398"/><use xlink:href="#Q" x="508.125" y="225.398"/></g><g fill="none" stroke="#FFF" stroke-linecap="round" stroke-linejoin="round" stroke-width="2"><use xlink:href="#T" x="296.652" y="176.195"/><use xlink:href="#A" x="301.152" y="176.195"/></g><g fill="#FF9500"><use xlink:href="#T" x="296.652" y="176.195"/><use xlink:href="#A" x="301.152" y="176.195"/></g><g fill="none" stroke="#FFF" stroke-linecap="round" stroke-linejoin="round" stroke-width="2"><use xlink:href="#F" x="111" y="257.395"/><use xlink:href="#u" x="118.5" y="257.395"/></g><g fill="#8E8E93"><use xlink:href="#F" x="111" y="257.395"/><use xlink:href="#u" x="118.5" y="257.395"/></g><g fill="none" stroke="#FFF" stroke-linecap="round" stroke-linejoin="round" stroke-width="2"><use xlink:href="#c" x="460.875" y="14.801"/><use xlink:href="#J" x="469.125" y="14.801"/><use xlink:href="#A" x="476.625" y="14.801"/><use xlink:href="#d" x="480.375" y="14.801"/><use xlink:href="#G" x="487.875" y="14.801"/><use xlink:href="#w" x="494.625" y="14.801"/><use xlink:href="#g" x="502.125" y="14.801"/><use xlink:href="#Q" x="505.125" y="14.801"/></g><g fill="#1C1E21"><use xlink:href="#c" x="460.875" y="14.801"/><use xlink:href="#J" x="469.125" y="14.801"/><use xlink:href="#A" x="476.625" y="14.801"/><use xlink:href="#d" x="480.375" y="14.801"/><use xlink:href="#G" x="487.875" y="14.801"/><use xlink:href="#w" x="494.625" y="14.801"/><use xlink:href="#g" x="502.125" y="14.801"/><use xlink:href="#Q" x="505.125" y="14.801"/></g><g fill="none" stroke="#FFF" stroke-linecap="round" stroke-linejoin="round" stroke-width="2"><use xlink:href="#d" x="418.5" y="63.398"/><use xlink:href="#s" x="426" y="63.398"/><use xlink:href="#g" x="429" y="63.398"/><use xlink:href="#D" x="432" y="63.398"/><use xlink:href="#n" x="440.25" y="63.398"/><use xlink:href="#K" x="452.25" y="63.398"/><use xlink:href="#x" x="465" y="63.398"/><use xlink:href="#L" x="469.5" y="63.398"/><use xlink:href="#I" x="474.75" y="63.398"/><use xlink:href="#M" x="479.25" y="63.398"/><use xlink:href="#t" x="483.75" y="63.398"/><use xlink:href="#u" x="486.75" y="63.398"/><use xlink:href="#C" x="494.25" y="63.398"/><use xlink:href="#N" x="501" y="63.398"/><use xlink:href="#O" x="507.75" y="63.398"/><use xlink:href="#v" x="512.25" y="63.398"/><use xlink:href="#x" x="522" y="63.398"/><use xlink:href="#k" x="526.5" y="63.398"/><use xlink:href="#P" x="534.75" y="63.398"/><use xlink:href="#Q" x="543" y="63.398"/><use xlink:href="#I" x="549" y="63.398"/></g><g fill="#1C1E21"><use xlink:href="#d" x="418.5" y="63.398"/><use xlink:href="#s" x="426" y="63.398"/><use xlink:href="#g" x="429" y="63.398"/><use xlink:href="#D" x="432" y="63.398"/><use xlink:href="#n" x="440.25" y="63.398"/><use xlink:href="#K" x="452.25" y="63.398"/><use xlink:href="#x" x="465" y="63.398"/><use xlink:href="#L" x="469.5" y="63.398"/><use xlink:href="#I" x="474.75" y="63.398"/><use xlink:href="#M" x="479.25" y="63.398"/><use xlink:href="#t" x="483.75" y="63.398"/><use xlink:href="#u" x="486.75" y="63.398"/><use xlink:href="#C" x="494.25" y="63.398"/><use xlink:href="#N" x="501" y="63.398"/><use xlink:href="#O" x="507.75" y="63.398"/><use xlink:href="#v" x="512.25" y="63.398"/><use xlink:href="#x" x="522" y="63.398"/><use xlink:href="#k" x="526.5" y="63.398"/><use xlink:href="#P" x="534.75" y="63.398"/><use xlink:href="#Q" x="543" y="63.398"/><use xlink:href="#I" x="549" y="63.398"/></g><g fill="none" stroke="#FFF" stroke-linecap="round" stroke-linejoin="round" stroke-width="2"><use xlink:href="#T" x="460.5" y="144.398"/><use xlink:href="#s" x="465" y="144.398"/><use xlink:href="#g" x="468" y="144.398"/><use xlink:href="#D" x="471" y="144.398"/><use xlink:href="#M" x="479.25" y="144.398"/><use xlink:href="#G" x="483.75" y="144.398"/><use xlink:href="#O" x="490.5" y="144.398"/><use xlink:href="#S" x="495" y="144.398"/><use xlink:href="#k" x="503.25" y="144.398"/></g><g fill="#1C1E21"><use xlink:href="#T" x="460.5" y="144.398"/><use xlink:href="#s" x="465" y="144.398"/><use xlink:href="#g" x="468" y="144.398"/><use xlink:href="#D" x="471" y="144.398"/><use xlink:href="#M" x="479.25" y="144.398"/><use xlink:href="#G" x="483.75" y="144.398"/><use xlink:href="#O" x="490.5" y="144.398"/><use xlink:href="#S" x="495" y="144.398"/><use xlink:href="#k" x="503.25" y="144.398"/></g><g fill="none" stroke="#FFF" stroke-linecap="round" stroke-linejoin="round" stroke-width="2"><use xlink:href="#F" x="471" y="95.395"/><use xlink:href="#u" x="478.5" y="95.395"/></g><g fill="#8E8E93"><use xlink:href="#F" x="471" y="95.395"/><use xlink:href="#u" x="478.5" y="95.395"/></g><g fill="none" stroke="#FFF" stroke-linecap="round" stroke-linejoin="round" stroke-width="2"><use xlink:href="#J" x="418.5" y="306.398"/><use xlink:href="#s" x="426" y="306.398"/><use xlink:href="#g" x="429" y="306.398"/><use xlink:href="#D" x="432" y="306.398"/><use xlink:href="#n" x="440.25" y="306.398"/><use xlink:href="#K" x="452.25" y="306.398"/><use xlink:href="#x" x="465" y="306.398"/><use xlink:href="#L" x="469.5" y="306.398"/><use xlink:href="#I" x="474.75" y="306.398"/><use xlink:href="#M" x="479.25" y="306.398"/><use xlink:href="#t" x="483.75" y="306.398"/><use xlink:href="#u" x="486.75" y="306.398"/><use xlink:href="#C" x="494.25" y="306.398"/><use xlink:href="#N" x="501" y="306.398"/><use xlink:href="#O" x="507.75" y="306.398"/><use xlink:href="#v" x="512.25" y="306.398"/><use xlink:href="#x" x="522" y="306.398"/><use xlink:href="#Q" x="526.5" y="306.398"/><use xlink:href="#P" x="532.5" y="306.398"/><use xlink:href="#k" x="540.75" y="306.398"/><use xlink:href="#I" x="549" y="306.398"/></g><g fill="#1C1E21"><use xlink:href="#J" x="418.5" y="306.398"/><use xlink:href="#s" x="426" y="306.398"/><use xlink:href="#g" x="429" y="306.398"/><use xlink:href="#D" x="432" y="306.398"/><use xlink:href="#n" x="440.25" y="306.398"/><use xlink:href="#K" x="452.25" y="306.398"/><use xlink:href="#x" x="465" y="306.398"/><use xlink:href="#L" x="469.5" y="306.398"/><use xlink:href="#I" x="474.75" y="306.398"/><use xlink:href="#M" x="479.25" y="306.398"/><use xlink:href="#t" x="483.75" y="306.398"/><use xlink:href="#u" x="486.75" y="306.398"/><use xlink:href="#C" x="494.25" y="306.398"/><use xlink:href="#N" x="501" y="306.398"/><use xlink:href="#O" x="507.75" y="306.398"/><use xlink:href="#v" x="512.25" y="306.398"/><use xlink:href="#x" x="522" y="306.398"/><use xlink:href="#Q" x="526.5" y="306.398"/><use xlink:href="#P" x="532.5" y="306.398"/><use xlink:href="#k" x="540.75" y="306.398"/><use xlink:href="#I" x="549" y="306.398"/></g><g fill="none" stroke="#FFF" stroke-linecap="round" stroke-linejoin="round" stroke-width="2"><use xlink:href="#C" x="487.66" y="175.273"/><use xlink:href="#u" x="494.41" y="175.273"/></g><g fill="#007AFF"><use xlink:href="#C" x="487.66" y="175.273"/><use xlink:href="#u" x="494.41" y="175.273"/></g><g fill="none" stroke="#FFF" stroke-linecap="round" stroke-linejoin="round" stroke-width="2"><use xlink:href="#T" x="501.91" y="175.273"/><use xlink:href="#A" x="506.41" y="175.273"/></g><g fill="#FF9500"><use xlink:href="#T" x="501.91" y="175.273"/><use xlink:href="#A" x="506.41" y="175.273"/></g><g fill="none" stroke="#FFF" stroke-linecap="round" stroke-linejoin="round" stroke-width="2"><use xlink:href="#F" x="510.91" y="175.273"/><use xlink:href="#F" x="518.41" y="175.273"/><use xlink:href="#u" x="525.91" y="175.273"/></g><g fill="#AF52DE"><use xlink:href="#F" x="510.91" y="175.273"/><use xlink:href="#F" x="518.41" y="175.273"/><use xlink:href="#u" x="525.91" y="175.273"/></g><g fill="none" stroke="#FFF" stroke-linecap="round" stroke-linejoin="round" stroke-width="2"><use xlink:href="#A" x="533.41" y="175.273"/><use xlink:href="#T" x="537.91" y="175.273"/></g><g fill="#FF3B30"><use xlink:href="#A" x="533.41" y="175.273"/><use xlink:href="#T" x="537.91" y="175.273"/></g><g fill="none" stroke="#FFF" stroke-linecap="round" stroke-linejoin="round" stroke-width="2"><use xlink:href="#T" x="306.348" y="176.195"/><use xlink:href="#A" x="310.848" y="176.195"/></g><g fill="#FF9500"><use xlink:href="#T" x="306.348" y="176.195"/><use xlink:href="#A" x="310.848" y="176.195"/></g><g fill="none" stroke="#FFF" stroke-linecap="round" stroke-linejoin="round" stroke-width="2"><use xlink:href="#w" x="429.75" y="175.395"/><use xlink:href="#G" x="437.25" y="175.395"/><use xlink:href="#f" x="444" y="175.395"/><use xlink:href="#G" x="447.75" y="175.395"/></g><g fill="#AF52DE"><use xlink:href="#w" x="429.75" y="175.395"/><use xlink:href="#G" x="437.25" y="175.395"/><use xlink:href="#f" x="444" y="175.395"/><use xlink:href="#G" x="447.75" y="175.395"/></g><g fill="none" stroke="#FFF" stroke-linecap="round" stroke-linejoin="round" stroke-width="2"><use xlink:href="#T" x="454.5" y="175.395"/><use xlink:href="#A" x="459" y="175.395"/></g><g fill="#FF9500"><use xlink:href="#T" x="454.5" y="175.395"/><use xlink:href="#A" x="459" y="175.395"/></g><g fill="none" stroke="#FFF" stroke-linecap="round" stroke-linejoin="round" stroke-width="2"><use xlink:href="#F" x="463.5" y="175.395"/><use xlink:href="#F" x="471" y="175.395"/><use xlink:href="#u" x="478.5" y="175.395"/></g><g fill="#AF52DE"><use xlink:href="#F" x="463.5" y="175.395"/><use xlink:href="#F" x="471" y="175.395"/><use xlink:href="#u" x="478.5" y="175.395"/></g><g fill="none" stroke="#FFF" stroke-linecap="round" stroke-linejoin="round" stroke-width="2"><use xlink:href="#C" x="291.848" y="216.773"/><use xlink:href="#u" x="298.598" y="216.773"/></g><g fill="#007AFF"><use xlink:href="#C" x="291.848" y="216.773"/><use xlink:href="#u" x="298.598" y="216.773"/></g><g fill="none" stroke="#FFF" stroke-linecap="round" stroke-linejoin="round" stroke-width="2"><use xlink:href="#F" x="471" y="257.395"/><use xlink:href="#u" x="478.5" y="257.395"/></g><g fill="#8E8E93"><use xlink:href="#F" x="471" y="257.395"/><use xlink:href="#u" x="478.5" y="257.395"/></g><g fill="none" stroke="#FFF" stroke-linecap="round" stroke-linejoin="round" stroke-width="2"><use xlink:href="#C" x="274" y="192.695"/><use xlink:href="#u" x="280.75" y="192.695"/></g><g fill="#007AFF"><use xlink:href="#C" x="274" y="192.695"/><use xlink:href="#u" x="280.75" y="192.695"/></g><g fill="none" stroke="#FFF" stroke-linecap="round" stroke-linejoin="round" stroke-width="2"><use xlink:href="#T" x="288.25" y="192.695"/><use xlink:href="#A" x="292.75" y="192.695"/></g><g fill="#FF9500"><use xlink:href="#T" x="288.25" y="192.695"/><use xlink:href="#A" x="292.75" y="192.695"/></g><g fill="none" stroke="#FFF" stroke-linecap="round" stroke-linejoin="round" stroke-width="2"><use xlink:href="#A" x="297.25" y="192.695"/><use xlink:href="#T" x="301.75" y="192.695"/></g><g fill="#FF3B30"><use xlink:href="#A" x="297.25" y="192.695"/><use xlink:href="#T" x="301.75" y="192.695"/></g></svg>