<svg xmlns="http://www.w3.org/2000/svg" width="1680" height="122" version="1.0"><path d="M228.412 28.24V10.72h1.944l6.24 10.56h.048l6.24-10.56h2.016v17.52h-1.92V13.936h-.048l-5.424 9.096h-1.776l-5.424-9.096h-.048V28.24Zm21.96-17.52 4.368 7.296h.048l4.392-7.296h2.16l-5.376 8.64 5.496 8.88h-2.256l-4.464-7.536h-.048l-4.488 7.536h-2.184l5.496-8.88-5.376-8.64zm16.2 0v15.888h8.568v1.632h-10.56V10.72Zm13.968 1.608v5.712h7.848v1.536h-7.848v7.056h8.328v1.608H278.62V10.72h10.248v1.608zm12.168 15.912V10.72h1.992l9.12 14.4h.048v-14.4h1.872v17.52h-1.968l-9.12-14.4h-.048v14.4zm16.992-6.192v-1.536h7.128v1.536zm16.512 6.192V13.024h-.048l-4.728 4.368-.744-1.56 5.52-5.112h1.92v17.52z" aria-label="MXLEN-1" style="font-size:24px;font-family:&quot;M PLUS 1p&quot;,MPLUS1p-Regular,monospace;dominant-baseline:middle;text-anchor:middle;fill:#e3e3e3"/><path d="M366.04 28.24V10.72h1.944l6.24 10.56h.048l6.24-10.56h2.016v17.52h-1.92V13.936h-.048l-5.424 9.096h-1.776l-5.424-9.096h-.048V28.24ZM388 10.72l4.368 7.296h.048l4.392-7.296h2.16l-5.376 8.64 5.496 8.88h-2.256l-4.464-7.536h-.048l-4.488 7.536h-2.184l5.496-8.88-5.376-8.64zm16.2 0v15.888h8.568v1.632h-10.56V10.72Zm13.968 1.608v5.712h7.848v1.536h-7.848v7.056h8.328v1.608h-10.248V10.72h10.248v1.608zm12.168 15.912V10.72h1.992l9.12 14.4h.048v-14.4h1.872v17.52H441.4l-9.12-14.4h-.048v14.4zm16.992-6.192v-1.536h7.128v1.536zm16.128-9.936q-2.376 0-4.752 1.656l-.576-1.536q2.448-1.752 5.568-1.752 2.568 0 3.984 1.32 1.416 1.296 1.416 3.648t-1.704 4.752-6.384 6.384v.048h8.16v1.608h-10.8v-1.608q5.112-4.224 6.912-6.576 1.824-2.376 1.824-4.464 0-1.704-.936-2.592-.912-.888-2.712-.888" aria-label="MXLEN-2" style="font-size:24px;font-family:&quot;M PLUS 1p&quot;,MPLUS1p-Regular,monospace;dominant-baseline:middle;fill:#e3e3e3"/><path d="M1468.536 10.48q6.336 0 6.336 9t-6.336 9q-3 0-4.656-2.088t-1.656-6.912 1.656-6.912 4.656-2.088m-3.312 14.688q1.104 1.752 3.312 1.752t3.312-1.752q1.104-1.776 1.104-5.688t-1.104-5.664q-1.104-1.776-3.312-1.776t-3.312 1.776q-1.08 1.752-1.08 5.664t1.08 5.688" aria-label="0" style="font-size:24px;font-family:&quot;M PLUS 1p&quot;,MPLUS1p-Regular,monospace;dominant-baseline:middle;text-anchor:end;fill:#e3e3e3"/><path stroke="#E3E3E3" d="M200 41h160M200 81h160M360 41v40M200 41v40"/><path d="M229.264 68.24V50.72h2.088v17.52zm6.648-12.48h1.68l.024 2.232h.048q.72-1.152 1.824-1.8 1.128-.672 2.424-.672 2.112 0 3.12 1.32 1.032 1.296 1.032 4.128v7.272h-1.728v-7.128q0-2.328-.672-3.216-.672-.912-2.304-.912-1.392 0-2.544 1.392-1.152 1.368-1.152 3.192v6.672h-1.752zm17.112-4.08v4.56h4.728v1.44h-4.728v6.552q0 1.68.456 2.256.456.552 1.704.552 1.104 0 2.112-.408l.288 1.416q-1.224.432-2.64.432-2.04 0-2.88-.864-.84-.888-.84-3.048V57.68h-2.76v-1.44h2.76v-4.56zm9.048 10.992q.048 2.04 1.248 3.216t3.12 1.176q1.848 0 3.672-.96l.48 1.368q-2.016 1.008-4.32 1.008-2.688 0-4.344-1.752T260.272 62q0-3.024 1.536-4.752 1.56-1.728 4.224-1.728 2.592 0 4.008 1.656 1.44 1.632 1.44 4.704 0 .312-.048.792zm0-1.392h7.68q-.024-2.088-1.008-3.216t-2.712-1.128q-1.8 0-2.856 1.152-1.032 1.128-1.104 3.192m12.288-5.52h1.704l.048 2.664h.048q2.112-2.904 5.952-2.904v1.512q-2.664 0-4.32 1.464-1.632 1.464-1.632 3.792v5.952h-1.8zm10.872 0h1.704l.048 2.664h.048q2.112-2.904 5.952-2.904v1.512q-2.664 0-4.32 1.464-1.632 1.464-1.632 3.792v5.952h-1.8zm12.48 0v7.752q0 1.92.624 2.688.648.768 2.136.768 1.392 0 2.52-1.344 1.152-1.344 1.152-3.192V55.76h1.752v12.48h-1.68l-.024-2.232h-.048q-.72 1.152-1.848 1.824-1.104.648-2.4.648-2.016 0-2.976-1.128-.936-1.152-.936-3.672v-7.92zm17.616 12.72q-2.712 0-4.032-2.184h-.048v7.224h-1.752V55.76h1.68l.024 2.112h.048q1.32-2.352 4.08-2.352 2.352 0 3.696 1.68 1.344 1.656 1.344 4.8 0 3.072-1.392 4.776-1.368 1.704-3.648 1.704M318.64 62q0-2.448-.984-3.744-.96-1.296-2.712-1.296-1.656 0-2.688 1.296-1.008 1.296-1.008 3.576v.336q0 2.328 1.032 3.6t2.664 1.272q1.704 0 2.688-1.296 1.008-1.32 1.008-3.744m8.328-10.32v4.56h4.728v1.44h-4.728v6.552q0 1.68.456 2.256.456.552 1.704.552 1.104 0 2.112-.408l.288 1.416q-1.224.432-2.64.432-2.04 0-2.88-.864-.84-.888-.84-3.048V57.68h-2.76v-1.44h2.76v-4.56z" aria-label="Interrupt" style="font-size:24px;font-family:&quot;M PLUS 1p&quot;,MPLUS1p-Regular,monospace;dominant-baseline:middle;text-anchor:middle;fill:#e3e3e3"/><path stroke="#E3E3E3" d="M360 41h600M360 81h600M360 41v40"/><path d="M782.744 52.328v5.712h7.848v1.536h-7.848v7.056h8.328v1.608h-10.248V50.72h10.248v1.608zm13.272 3.432 3.264 4.968h.048l3.264-4.968h1.992l-4.248 6.144 4.368 6.336h-2.064l-3.384-5.184h-.048l-3.36 5.184h-2.016l4.392-6.336-4.272-6.144zm16.56 1.224q-2.112 0-3.288 1.32-1.176 1.296-1.176 3.696 0 2.304 1.224 3.672 1.248 1.368 3.24 1.368 1.68 0 3.216-.816l.48 1.416q-1.8.84-3.768.84-2.784 0-4.512-1.752-1.728-1.776-1.728-4.728 0-3.048 1.656-4.752 1.656-1.728 4.584-1.728 1.968 0 3.768.84l-.48 1.464q-1.608-.84-3.216-.84m8.016 5.688q.048 2.04 1.248 3.216t3.12 1.176q1.848 0 3.672-.96l.48 1.368q-2.016 1.008-4.32 1.008-2.688 0-4.344-1.752T818.792 62q0-3.024 1.536-4.752 1.56-1.728 4.224-1.728 2.592 0 4.008 1.656Q830 58.808 830 61.88q0 .312-.048.792zm0-1.392h7.68q-.024-2.088-1.008-3.216t-2.712-1.128q-1.8 0-2.856 1.152-1.032 1.128-1.104 3.192m18.12 7.2q-2.712 0-4.032-2.184h-.048v7.224h-1.752V55.76h1.68l.024 2.112h.048q1.32-2.352 4.08-2.352 2.352 0 3.696 1.68 1.344 1.656 1.344 4.8 0 3.072-1.392 4.776-1.368 1.704-3.648 1.704m3.312-6.48q0-2.448-.984-3.744-.96-1.296-2.712-1.296-1.656 0-2.688 1.296-1.008 1.296-1.008 3.576v.336q0 2.328 1.032 3.6t2.664 1.272q1.704 0 2.688-1.296 1.008-1.32 1.008-3.744m8.328-10.32v4.56h4.728v1.44h-4.728v6.552q0 1.68.456 2.256.456.552 1.704.552 1.104 0 2.112-.408l.288 1.416q-1.224.432-2.64.432-2.04 0-2.88-.864-.84-.888-.84-3.048V57.68h-2.76v-1.44h2.76v-4.56zm9.288 1.2v-2.64h1.848v2.64zm0 15.36V55.76h1.848v12.48Zm14.424-9.936q-1.08-1.344-2.976-1.344t-3 1.344q-1.08 1.32-1.08 3.696t1.08 3.72q1.104 1.32 3 1.32t2.976-1.32q1.104-1.344 1.104-3.72t-1.104-3.696m1.296 8.424q-1.608 1.752-4.272 1.752t-4.272-1.752T865.208 62t1.608-4.728 4.272-1.752 4.272 1.752T876.968 62t-1.608 4.728m4.368-10.968h1.68l.024 2.232h.048q.72-1.152 1.824-1.8 1.128-.672 2.424-.672 2.112 0 3.12 1.32 1.032 1.296 1.032 4.128v7.272h-1.728v-7.128q0-2.328-.672-3.216-.672-.912-2.304-.912-1.392 0-2.544 1.392-1.152 1.368-1.152 3.192v6.672h-1.752zm28.632-3.672q-3.168 0-5.064 2.016-1.872 1.992-1.872 5.376t1.92 5.4q1.944 1.992 5.016 1.992 2.496 0 4.632-1.368l.648 1.44q-2.352 1.536-5.448 1.536-3.96 0-6.336-2.448t-2.376-6.552q0-4.152 2.352-6.576t6.36-2.424q3.096 0 5.448 1.536l-.648 1.44q-2.136-1.368-4.632-1.368m16.416 6.216q-1.08-1.344-2.976-1.344t-3 1.344q-1.08 1.32-1.08 3.696t1.08 3.72q1.104 1.32 3 1.32t2.976-1.32q1.104-1.344 1.104-3.72t-1.104-3.696m1.296 8.424q-1.608 1.752-4.272 1.752t-4.272-1.752T915.92 62t1.608-4.728 4.272-1.752 4.272 1.752T927.68 62t-1.608 4.728m6.6-8.448q-.984 1.296-.984 3.72t1.008 3.744q1.008 1.296 2.712 1.296 1.632 0 2.64-1.272 1.032-1.272 1.032-3.6v-.336q0-2.28-1.032-3.576-1.008-1.296-2.64-1.296-1.752 0-2.736 1.32M929.96 62q0-3.144 1.344-4.8 1.344-1.68 3.696-1.68 2.712 0 4.032 2.28h.048v-7.56h1.752v18h-1.68l-.024-2.112h-.048q-1.32 2.352-4.08 2.352-2.304 0-3.672-1.68-1.368-1.704-1.368-4.8m15.552.672q.048 2.04 1.248 3.216t3.12 1.176q1.848 0 3.672-.96l.48 1.368q-2.016 1.008-4.32 1.008-2.688 0-4.344-1.752T943.712 62q0-3.024 1.536-4.752 1.56-1.728 4.224-1.728 2.592 0 4.008 1.656 1.44 1.632 1.44 4.704 0 .312-.048.792zm0-1.392h7.68q-.024-2.088-1.008-3.216t-2.712-1.128q-1.8 0-2.856 1.152-1.032 1.128-1.104 3.192" aria-label="Exception Code" style="font-size:24px;font-family:&quot;M PLUS 1p&quot;,MPLUS1p-Regular,monospace;dominant-baseline:middle;text-anchor:end;fill:#e3e3e3"/><path stroke="#E3E3E3" d="M960 41h520M960 81h520M1480 41v40"/><path d="M969.549 67.704h-2.21q-1.124-1.318-1.67-2.713-.538-1.394-.538-3.053 0-1.658.539-3.052.545-1.395 1.67-2.713h2.209v.17q-.475.428-.908.972-.428.54-.797 1.266-.352.697-.574 1.547-.217.85-.217 1.81 0 1.002.21 1.817.217.814.58 1.54.352.692.792 1.255.445.568.914.984zm14.127-11.139-2.35 8.725h-2.49l-1.565-5.684-1.523 5.684h-2.49l-2.35-8.725h2.35l1.342 6.006 1.605-6.006h2.244l1.53 6.006 1.406-6.006zm7.793 8.725h-6.293v-8.725h2.25v7.038h4.043zm6.246-6.053q0-.328-.135-.562t-.463-.37q-.228-.093-.533-.11-.305-.024-.709-.024h-.814v2.35h.69q.54 0 .903-.053.364-.053.61-.24.234-.182.34-.399.11-.223.11-.592m3.51 6.053h-2.748l-2.38-3.2h-1.036v3.2h-2.239v-8.725h3.774q.773 0 1.33.088.556.088 1.043.381.492.293.779.762.293.463.293 1.166 0 .967-.451 1.576-.445.61-1.278 1.014zm7.277 0h-6.293v-8.725h2.25v7.038h4.043zm5.63-3.352q0 1.659-.544 3.053-.54 1.395-1.664 2.713h-2.21v-.17q.47-.416.915-.978t.79-1.26q.364-.727.575-1.541.217-.815.217-1.817 0-.96-.223-1.81-.216-.85-.568-1.547-.37-.727-.803-1.266-.427-.544-.902-.972v-.17h2.209q1.125 1.318 1.664 2.713.545 1.394.545 3.052" aria-label="(WLRL)" style="font-weight:700;dominant-baseline:middle;fill:#e3e3e3"/><path d="M280.024 108.24V93.024h-.048l-4.728 4.368-.744-1.56 5.52-5.112h1.92v17.52z" aria-label="1" style="font-size:24px;font-family:&quot;M PLUS 1p&quot;,MPLUS1p-Regular,monospace;dominant-baseline:middle;text-anchor:middle;fill:#e3e3e3"/><path d="M868.412 108.24V90.72h1.944l6.24 10.56h.048l6.24-10.56h2.016v17.52h-1.92V93.936h-.048l-5.424 9.096h-1.776l-5.424-9.096h-.048v14.304zm21.96-17.52 4.368 7.296h.048l4.392-7.296h2.16l-5.376 8.64 5.496 8.88h-2.256l-4.464-7.536h-.048l-4.488 7.536h-2.184l5.496-8.88-5.376-8.64zm16.2 0v15.888h8.568v1.632h-10.56V90.72Zm13.968 1.608v5.712h7.848v1.536h-7.848v7.056h8.328v1.608H918.62V90.72h10.248v1.608zm12.168 15.912V90.72h1.992l9.12 14.4h.048v-14.4h1.872v17.52h-1.968l-9.12-14.4h-.048v14.4zm16.992-6.192v-1.536h7.128v1.536zm16.512 6.192V93.024h-.048l-4.728 4.368-.744-1.56 5.52-5.112h1.92v17.52z" aria-label="MXLEN-1" style="font-size:24px;font-family:&quot;M PLUS 1p&quot;,MPLUS1p-Regular,monospace;dominant-baseline:middle;text-anchor:middle;fill:#e3e3e3"/></svg>