<svg xmlns="http://www.w3.org/2000/svg" width="1480" height="107" version="1.0"><path d="M111.512 15.468q-1.848 0-3.048 1.2t-1.2 3.072q0 2.232 1.128 3.432t3.12 1.2q2.04 0 3.168-1.2t1.128-3.432q0-1.968-1.176-3.12-1.152-1.152-3.12-1.152m0 10.512q-2.904 0-4.56-1.752-1.632-1.752-1.632-5.04 0-4.872 2.352-7.848 2.376-2.976 6.528-3.36l.336 1.608q-5.52.624-7.008 6.216l.024.024q1.656-1.848 4.368-1.848 2.664 0 4.224 1.56 1.584 1.536 1.584 4.2 0 2.856-1.704 4.56-1.704 1.68-4.512 1.68m9.408-17.76h10.512v1.608l-5.76 5.64v.048h.744q2.544 0 3.888 1.224 1.368 1.224 1.368 3.552 0 2.736-1.632 4.224-1.608 1.464-4.608 1.464-2.592 0-4.56-1.248l.576-1.56q2.016 1.2 3.984 1.2 2.112 0 3.216-1.032t1.104-3.048q0-1.704-1.152-2.52-1.128-.84-3.624-.84h-1.752v-1.488l5.736-5.568v-.048h-8.04z" aria-label="63" style="font-size:24px;font-family:&quot;M PLUS 1p&quot;,MPLUS1p-Regular,monospace;dominant-baseline:middle;fill:#e3e3e3"/><path d="M1368.536 7.98q6.336 0 6.336 9t-6.336 9q-3 0-4.656-2.088t-1.656-6.912 1.656-6.912 4.656-2.088m-3.312 14.688q1.104 1.752 3.312 1.752t3.312-1.752q1.104-1.776 1.104-5.688t-1.104-5.664q-1.104-1.776-3.312-1.776t-3.312 1.776q-1.08 1.752-1.08 5.664t1.08 5.688" aria-label="0" style="font-size:24px;font-family:&quot;M PLUS 1p&quot;,MPLUS1p-Regular,monospace;dominant-baseline:middle;text-anchor:end;fill:#e3e3e3"/><path stroke="#E3E3E3" d="M100 36h720M100 71h720M100 36v35"/><path d="M548.208 44.54q-1.656 0-2.568.744-.912.72-.912 2.016 0 2.328 3.408 3.36 2.976.864 4.224 2.16 1.272 1.296 1.272 3.36 0 2.328-1.464 3.576-1.44 1.224-4.128 1.224-2.976 0-5.28-1.512l.576-1.584q2.088 1.488 4.704 1.488 1.776 0 2.712-.816.96-.816.96-2.376 0-1.44-.816-2.28-.792-.864-2.808-1.488-5.256-1.56-5.256-5.112 0-1.968 1.416-3.144 1.44-1.176 3.96-1.176 2.712 0 5.04 1.128l-.48 1.488q-2.088-1.056-4.56-1.056m8.928 3.72 3.72 10.272h.048l4.104-10.272h1.872l-7.44 17.76h-1.872l2.352-5.352-4.728-12.408zm12.384 0h1.68l.024 2.232h.048q.72-1.152 1.824-1.8 1.128-.672 2.424-.672 2.112 0 3.12 1.32 1.032 1.296 1.032 4.128v7.272h-1.728v-7.128q0-2.328-.672-3.216-.672-.912-2.304-.912-1.392 0-2.544 1.392-1.152 1.368-1.152 3.192v6.672h-1.752zm19.104 1.224q-2.112 0-3.288 1.32-1.176 1.296-1.176 3.696 0 2.304 1.224 3.672 1.248 1.368 3.24 1.368 1.68 0 3.216-.816l.48 1.416q-1.8.84-3.768.84-2.784 0-4.512-1.752-1.728-1.776-1.728-4.728 0-3.048 1.656-4.752 1.656-1.728 4.584-1.728 1.968 0 3.768.84l-.48 1.464q-1.608-.84-3.216-.84m7.176-6.744h1.752v7.656h.048q1.584-2.376 4.2-2.376 2.112 0 3.12 1.32 1.032 1.296 1.032 4.128v7.272h-1.728v-7.128q0-2.328-.672-3.216-.672-.912-2.304-.912-1.44 0-2.568 1.416-1.128 1.392-1.128 3.168v6.672H595.8zm13.632 5.52h1.704l.048 2.664h.048q2.112-2.904 5.952-2.904v1.512q-2.664 0-4.32 1.464-1.632 1.464-1.632 3.792v5.952h-1.8zm18.408 2.544q-1.08-1.344-2.976-1.344t-3 1.344q-1.08 1.32-1.08 3.696t1.08 3.72q1.104 1.32 3 1.32t2.976-1.32q1.104-1.344 1.104-3.72t-1.104-3.696m1.296 8.424q-1.608 1.752-4.272 1.752t-4.272-1.752-1.608-4.728 1.608-4.728 4.272-1.752 4.272 1.752 1.608 4.728-1.608 4.728m4.368-10.968h1.68l.024 2.232h.048q.72-1.152 1.824-1.8 1.128-.672 2.424-.672 2.112 0 3.12 1.32 1.032 1.296 1.032 4.128v7.272h-1.728v-7.128q0-2.328-.672-3.216-.672-.912-2.304-.912-1.392 0-2.544 1.392-1.152 1.368-1.152 3.192v6.672h-1.752zm21.648 2.544q-1.08-1.344-2.976-1.344t-3 1.344q-1.08 1.32-1.08 3.696t1.08 3.72q1.104 1.32 3 1.32t2.976-1.32q1.104-1.344 1.104-3.72t-1.104-3.696m1.296 8.424q-1.608 1.752-4.272 1.752t-4.272-1.752-1.608-4.728 1.608-4.728 4.272-1.752 4.272 1.752 1.608 4.728-1.608 4.728m5.976-10.968v7.752q0 1.92.624 2.688.648.768 2.136.768 1.392 0 2.52-1.344 1.152-1.344 1.152-3.192V48.26h1.752v12.48h-1.68l-.024-2.232h-.048q-.72 1.152-1.848 1.824-1.104.648-2.4.648-2.016 0-2.976-1.128-.936-1.152-.936-3.672v-7.92zm15.912-.24q2.28 0 4.224.96l-.384 1.416q-1.848-.936-3.84-.936-1.392 0-2.136.504-.72.504-.72 1.416 0 .864.624 1.368.648.504 2.328.792 2.448.408 3.504 1.344 1.08.936 1.08 2.568t-1.248 2.592q-1.224.936-3.432.936-2.568 0-4.608-1.2l.408-1.416q1.968 1.176 4.2 1.176 1.392 0 2.136-.528.744-.552.744-1.56 0-.96-.672-1.488-.648-.528-2.304-.816-2.376-.408-3.456-1.296-1.056-.912-1.056-2.472 0-1.536 1.2-2.448 1.224-.912 3.408-.912m16.92-3.192v5.712h7.848v1.536h-7.848v7.056h8.328v1.608h-10.248V43.22h10.248v1.608zm13.272 3.432 3.264 4.968h.048l3.264-4.968h1.992l-4.248 6.144 4.368 6.336h-2.064l-3.384-5.184h-.048l-3.36 5.184h-2.016l4.392-6.336-4.272-6.144zm16.56 1.224q-2.112 0-3.288 1.32-1.176 1.296-1.176 3.696 0 2.304 1.224 3.672 1.248 1.368 3.24 1.368 1.68 0 3.216-.816l.48 1.416q-1.8.84-3.768.84-2.784 0-4.512-1.752-1.728-1.776-1.728-4.728 0-3.048 1.656-4.752 1.656-1.728 4.584-1.728 1.968 0 3.768.84l-.48 1.464q-1.608-.84-3.216-.84m8.016 5.688q.048 2.04 1.248 3.216t3.12 1.176q1.848 0 3.672-.96l.48 1.368q-2.016 1.008-4.32 1.008-2.688 0-4.344-1.752t-1.656-4.728q0-3.024 1.536-4.752 1.56-1.728 4.224-1.728 2.592 0 4.008 1.656 1.44 1.632 1.44 4.704 0 .312-.048.792zm0-1.392h7.68q-.024-2.088-1.008-3.216t-2.712-1.128q-1.8 0-2.856 1.152-1.032 1.128-1.104 3.192m18.12 7.2q-2.712 0-4.032-2.184h-.048v7.224h-1.752V48.26h1.68l.024 2.112h.048q1.32-2.352 4.08-2.352 2.352 0 3.696 1.68 1.344 1.656 1.344 4.8 0 3.072-1.392 4.776-1.368 1.704-3.648 1.704m3.312-6.48q0-2.448-.984-3.744-.96-1.296-2.712-1.296-1.656 0-2.688 1.296-1.008 1.296-1.008 3.576v.336q0 2.328 1.032 3.6t2.664 1.272q1.704 0 2.688-1.296 1.008-1.32 1.008-3.744m8.328-10.32v4.56h4.728v1.44h-4.728v6.552q0 1.68.456 2.256.456.552 1.704.552 1.104 0 2.112-.408l.288 1.416q-1.224.432-2.64.432-2.04 0-2.88-.864-.84-.888-.84-3.048V50.18h-2.76v-1.44h2.76v-4.56zm9.288 1.2v-2.64H774v2.64zm0 15.36V48.26H774v12.48zm14.424-9.936q-1.08-1.344-2.976-1.344t-3 1.344q-1.08 1.32-1.08 3.696t1.08 3.72q1.104 1.32 3 1.32t2.976-1.32q1.104-1.344 1.104-3.72t-1.104-3.696m1.296 8.424q-1.608 1.752-4.272 1.752t-4.272-1.752-1.608-4.728 1.608-4.728 4.272-1.752 4.272 1.752 1.608 4.728-1.608 4.728m4.368-10.968h1.68l.024 2.232h.048q.72-1.152 1.824-1.8 1.128-.672 2.424-.672 2.112 0 3.12 1.32 1.032 1.296 1.032 4.128v7.272h-1.728v-7.128q0-2.328-.672-3.216-.672-.912-2.304-.912-1.392 0-2.544 1.392-1.152 1.368-1.152 3.192v6.672h-1.752zm17.76-.24q2.28 0 4.224.96l-.384 1.416q-1.848-.936-3.84-.936-1.392 0-2.136.504-.72.504-.72 1.416 0 .864.624 1.368.648.504 2.328.792 2.448.408 3.504 1.344 1.08.936 1.08 2.568t-1.248 2.592q-1.224.936-3.432.936-2.568 0-4.608-1.2l.408-1.416q1.968 1.176 4.2 1.176 1.392 0 2.136-.528.744-.552.744-1.56 0-.96-.672-1.488-.648-.528-2.304-.816-2.376-.408-3.456-1.296-1.056-.912-1.056-2.472 0-1.536 1.2-2.448 1.224-.912 3.408-.912" aria-label="Synchronous Exceptions" style="font-size:24px;font-family:&quot;M PLUS 1p&quot;,MPLUS1p-Regular,monospace;dominant-baseline:middle;text-anchor:end;fill:#e3e3e3"/><path stroke="#E3E3E3" d="M820 36h560M820 71h560M1380 36v35"/><path d="M829.549 60.204h-2.21q-1.124-1.318-1.67-2.713-.538-1.394-.538-3.053 0-1.658.539-3.052.545-1.395 1.67-2.713h2.209v.17q-.475.428-.908.972-.428.54-.797 1.266-.352.697-.574 1.547-.217.85-.217 1.81 0 1.002.21 1.817.217.814.58 1.54.352.692.792 1.255.445.568.914.984zm14.127-11.139-2.35 8.725h-2.49l-1.565-5.684-1.523 5.684h-2.49l-2.35-8.725h2.35l1.342 6.006 1.605-6.006h2.244l1.53 6.006 1.406-6.006zm9.562 8.725h-2.326l-.603-1.764h-3.235l-.603 1.764h-2.268l3.223-8.725h2.59zm-3.474-3.363-1.073-3.13-1.072 3.13zm9.62-2.69q0-.328-.134-.562-.135-.235-.463-.37-.228-.093-.533-.11-.305-.024-.71-.024h-.814v2.35h.692q.539 0 .902-.053.364-.053.61-.24.234-.182.34-.399.11-.223.11-.592m3.51 6.053h-2.748l-2.378-3.2h-1.038v3.2h-2.238v-8.725h3.774q.773 0 1.33.088.556.088 1.043.381.492.293.779.762.293.463.293 1.166 0 .967-.451 1.576-.446.61-1.278 1.014zm7.278 0h-6.293v-8.725h2.25v7.038h4.043zm5.63-3.352q0 1.659-.544 3.053-.54 1.395-1.664 2.713h-2.21v-.17q.47-.416.915-.978t.79-1.26q.364-.727.575-1.541.217-.815.217-1.817 0-.96-.223-1.81-.217-.85-.568-1.547-.37-.727-.803-1.266-.428-.544-.902-.972v-.17h2.209q1.125 1.318 1.664 2.713.545 1.394.545 3.052" aria-label="(WARL)" style="font-weight:700;dominant-baseline:middle;fill:#e3e3e3"/><path d="M732.632 85.468q-1.848 0-3.048 1.2t-1.2 3.072q0 2.232 1.128 3.432t3.12 1.2q2.04 0 3.168-1.2t1.128-3.432q0-1.968-1.176-3.12-1.152-1.152-3.12-1.152m0 10.512q-2.904 0-4.56-1.752-1.632-1.752-1.632-5.04 0-4.872 2.352-7.848 2.376-2.976 6.528-3.36l.336 1.608q-5.52.624-7.008 6.216l.024.024q1.656-1.848 4.368-1.848 2.664 0 4.224 1.56 1.584 1.536 1.584 4.2 0 2.856-1.704 4.56-1.704 1.68-4.512 1.68m16.128-5.88v-9.072h-.048l-6.384 9.024v.048Zm1.896 0h2.976v1.56h-2.976v4.08h-1.896v-4.08h-8.4V90.1l8.4-11.88h1.896z" aria-label="64" style="font-size:24px;font-family:&quot;M PLUS 1p&quot;,MPLUS1p-Regular,monospace;dominant-baseline:middle;text-anchor:middle;fill:#e3e3e3"/></svg>