<svg xmlns="http://www.w3.org/2000/svg" width="840" height="76" version="1.0"><path d="M116.601 10.86V3.886h-.022l-2.167 2.002-.341-.715 2.53-2.343h.88v8.03Zm9.031-7.293h-3.476l-.154 2.596h.022q.649-.385 1.463-.385 1.177 0 1.826.638t.649 1.804q0 1.342-.759 2.046-.748.704-2.2.704-1.122 0-2.068-.528l.22-.726q.924.517 1.848.517 2.079 0 2.079-2.013 0-.847-.451-1.287-.451-.451-1.298-.451-.869 0-1.441.506h-.77l.242-4.158h4.268z" aria-label="15" style="font-size:11px;font-family:&quot;M PLUS 1p&quot;,MPLUS1p-Regular,monospace;dominant-baseline:middle;text-anchor:middle;fill:#e3e3e3"/><path d="M156.601 10.86V3.886h-.022l-2.167 2.002-.341-.715 2.53-2.343h.88v8.03Zm7.414-2.585V4.117h-.022l-2.926 4.136v.022zm.869 0h1.364v.715h-1.364v1.87h-.869V8.99h-3.85v-.715l3.85-5.445h.869z" aria-label="14" style="font-size:11px;font-family:&quot;M PLUS 1p&quot;,MPLUS1p-Regular,monospace;dominant-baseline:middle;text-anchor:middle;fill:#e3e3e3"/><path d="M196.601 10.86V3.886h-.022l-2.167 2.002-.341-.715 2.53-2.343h.88v8.03Zm4.334-8.03h4.818v.737l-2.64 2.585v.022h.341q1.166 0 1.782.561.627.561.627 1.628 0 1.254-.748 1.936-.737.671-2.112.671-1.188 0-2.09-.572l.264-.715q.924.55 1.826.55.968 0 1.474-.473t.506-1.397q0-.781-.528-1.155-.517-.385-1.661-.385h-.803v-.682l2.629-2.552v-.022h-3.685z" aria-label="13" style="font-size:11px;font-family:&quot;M PLUS 1p&quot;,MPLUS1p-Regular,monospace;dominant-baseline:middle;text-anchor:middle;fill:#e3e3e3"/><path d="M236.601 10.86V3.886h-.022l-2.167 2.002-.341-.715 2.53-2.343h.88v8.03Zm6.644-7.392q-1.089 0-2.178.759l-.264-.704q1.122-.803 2.552-.803 1.177 0 1.826.605.649.594.649 1.672t-.781 2.178-2.926 2.926v.022h3.74v.737h-4.95v-.737q2.343-1.936 3.168-3.014.836-1.089.836-2.046 0-.781-.429-1.188-.418-.407-1.243-.407" aria-label="12" style="font-size:11px;font-family:&quot;M PLUS 1p&quot;,MPLUS1p-Regular,monospace;dominant-baseline:middle;text-anchor:middle;fill:#e3e3e3"/><path d="M276.601 10.86V3.886h-.022l-2.167 2.002-.341-.715 2.53-2.343h.88v8.03Zm6.82 0V3.886h-.022l-2.167 2.002-.341-.715 2.53-2.343h.88v8.03Z" aria-label="11" style="font-size:11px;font-family:&quot;M PLUS 1p&quot;,MPLUS1p-Regular,monospace;dominant-baseline:middle;text-anchor:middle;fill:#e3e3e3"/><path d="M316.601 10.86V3.886h-.022l-2.167 2.002-.341-.715 2.53-2.343h.88v8.03Zm6.798-8.14q2.904 0 2.904 4.125t-2.904 4.125q-1.375 0-2.134-.957t-.759-3.168.759-3.168 2.134-.957m-1.518 6.732q.506.803 1.518.803t1.518-.803q.506-.814.506-2.607t-.506-2.596q-.506-.814-1.518-.814t-1.518.814q-.495.803-.495 2.596t.495 2.607" aria-label="10" style="font-size:11px;font-family:&quot;M PLUS 1p&quot;,MPLUS1p-Regular,monospace;dominant-baseline:middle;text-anchor:middle;fill:#e3e3e3"/><path d="M359.956 2.72q1.342 0 2.09.803.759.792.759 2.255 0 2.299-1.111 3.652-1.1 1.353-3.069 1.54l-.154-.737q1.342-.143 2.156-.847.814-.715 1.166-2.013l-.022-.011q-.77.858-2.002.858-1.221 0-1.936-.715-.715-.726-.715-1.98 0-1.276.77-2.035.781-.77 2.068-.77m0 .737q-.935 0-1.452.539-.506.539-.506 1.529 0 .946.528 1.485.528.528 1.43.528.847 0 1.397-.561t.55-1.452q0-.979-.517-1.518-.517-.55-1.43-.55" aria-label="9" style="font-size:11px;font-family:&quot;M PLUS 1p&quot;,MPLUS1p-Regular,monospace;dominant-baseline:middle;text-anchor:middle;fill:#e3e3e3"/><path d="M398.075 3.248q.704-.528 1.914-.528t1.903.528q.704.528.704 1.397 0 1.331-1.54 1.881v.022q1.837.539 1.837 2.145 0 1.045-.781 1.661-.77.616-2.123.616t-2.123-.616-.77-1.661q0-.704.473-1.254t1.353-.825v-.022q-.737-.275-1.144-.781-.396-.506-.396-1.166 0-.869.693-1.397m1.914 2.992q.847-.176 1.32-.572.473-.407.473-.946 0-.594-.473-.946t-1.32-.352q-.836 0-1.298.352-.451.341-.451.946 0 .55.451.957.462.396 1.298.561m-.033.693q-1.001.198-1.518.649-.506.451-.506 1.078 0 .748.55 1.177t1.507.429 1.496-.429q.539-.44.539-1.177 0-1.331-2.068-1.727" aria-label="8" style="font-size:11px;font-family:&quot;M PLUS 1p&quot;,MPLUS1p-Regular,monospace;dominant-baseline:middle;text-anchor:middle;fill:#e3e3e3"/><path d="M437.448 2.83h5.17v.737q-1.925 3.157-3.19 7.293h-.913q1.276-4.015 3.245-7.271v-.022h-4.312z" aria-label="7" style="font-size:11px;font-family:&quot;M PLUS 1p&quot;,MPLUS1p-Regular,monospace;dominant-baseline:middle;text-anchor:middle;fill:#e3e3e3"/><path d="M480.033 6.152q-.847 0-1.397.55t-.55 1.408q0 1.023.517 1.573t1.43.55q.935 0 1.452-.55t.517-1.573q0-.902-.539-1.43-.528-.528-1.43-.528m0 4.818q-1.331 0-2.09-.803-.748-.803-.748-2.31 0-2.233 1.078-3.597 1.089-1.364 2.992-1.54l.154.737q-2.53.286-3.212 2.849l.011.011q.759-.847 2.002-.847 1.221 0 1.936.715.726.704.726 1.925 0 1.309-.781 2.09-.781.77-2.068.77" aria-label="6" style="font-size:11px;font-family:&quot;M PLUS 1p&quot;,MPLUS1p-Regular,monospace;dominant-baseline:middle;text-anchor:middle;fill:#e3e3e3"/><path d="M522.222 3.567h-3.476l-.154 2.596h.022q.649-.385 1.463-.385 1.177 0 1.826.638t.649 1.804q0 1.342-.759 2.046-.748.704-2.2.704-1.122 0-2.068-.528l.22-.726q.924.517 1.848.517 2.079 0 2.079-2.013 0-.847-.451-1.287-.451-.451-1.298-.451-.869 0-1.441.506h-.77l.242-4.158h4.268z" aria-label="5" style="font-size:11px;font-family:&quot;M PLUS 1p&quot;,MPLUS1p-Regular,monospace;dominant-baseline:middle;text-anchor:middle;fill:#e3e3e3"/><path d="M560.605 8.275V4.117h-.022l-2.926 4.136v.022zm.869 0h1.364v.715h-1.364v1.87h-.869V8.99h-3.85v-.715l3.85-5.445h.869z" aria-label="4" style="font-size:11px;font-family:&quot;M PLUS 1p&quot;,MPLUS1p-Regular,monospace;dominant-baseline:middle;text-anchor:middle;fill:#e3e3e3"/><path d="M597.525 2.83h4.818v.737l-2.64 2.585v.022h.341q1.166 0 1.782.561.627.561.627 1.628 0 1.254-.748 1.936-.737.671-2.112.671-1.188 0-2.09-.572l.264-.715q.924.55 1.826.55.968 0 1.474-.473t.506-1.397q0-.781-.528-1.155-.517-.385-1.661-.385h-.803v-.682l2.629-2.552v-.022h-3.685z" aria-label="3" style="font-size:11px;font-family:&quot;M PLUS 1p&quot;,MPLUS1p-Regular,monospace;dominant-baseline:middle;text-anchor:middle;fill:#e3e3e3"/><path d="M639.835 3.468q-1.089 0-2.178.759l-.264-.704q1.122-.803 2.552-.803 1.177 0 1.826.605.649.594.649 1.672t-.781 2.178-2.926 2.926v.022h3.74v.737h-4.95v-.737q2.343-1.936 3.168-3.014.836-1.089.836-2.046 0-.781-.429-1.188-.418-.407-1.243-.407" aria-label="2" style="font-size:11px;font-family:&quot;M PLUS 1p&quot;,MPLUS1p-Regular,monospace;dominant-baseline:middle;text-anchor:middle;fill:#e3e3e3"/><path d="M680.011 10.86V3.886h-.022l-2.167 2.002-.341-.715 2.53-2.343h.88v8.03Z" aria-label="1" style="font-size:11px;font-family:&quot;M PLUS 1p&quot;,MPLUS1p-Regular,monospace;dominant-baseline:middle;text-anchor:middle;fill:#e3e3e3"/><path d="M719.989 2.72q2.904 0 2.904 4.125t-2.904 4.125q-1.375 0-2.134-.957t-.759-3.168.759-3.168 2.134-.957m-1.518 6.732q.506.803 1.518.803t1.518-.803q.506-.814.506-2.607t-.506-2.596q-.506-.814-1.518-.814t-1.518.814q-.495.803-.495 2.596t.495 2.607" aria-label="0" style="font-size:11px;font-family:&quot;M PLUS 1p&quot;,MPLUS1p-Regular,monospace;dominant-baseline:middle;text-anchor:middle;fill:#e3e3e3"/><path stroke="#E3E3E3" d="M100 15h80M100 45h80M180 15v30M100 15v30"/><path d="M139.988 25.24q3.168 0 3.168 4.5t-3.168 4.5q-1.5 0-2.328-1.044t-.828-3.456.828-3.456 2.328-1.044m-1.656 7.344q.552.876 1.656.876t1.656-.876q.552-.888.552-2.844t-.552-2.832q-.552-.888-1.656-.888t-1.656.888q-.54.876-.54 2.832t.54 2.844" aria-label="0" style="font-size:12px;font-family:&quot;M PLUS 1p&quot;,MPLUS1p-Regular,monospace;dominant-baseline:middle;text-anchor:middle;fill:#e3e3e3"/><path stroke="#E3E3E3" d="M180 15h40M180 45h40M220 15v30M180 15v30"/><path d="M187.275 33.727h-4.6v-7.27h.968v6.41h3.632zm6.485-.527q-.269.117-.489.22-.214.102-.566.214-.298.093-.65.157-.346.068-.766.068-.791 0-1.44-.22-.645-.224-1.123-.698-.47-.464-.733-1.177-.264-.718-.264-1.665 0-.898.254-1.606t.733-1.197q.464-.473 1.118-.722.66-.25 1.46-.25.586 0 1.167.142.586.142 1.299.498v1.148h-.074q-.6-.503-1.19-.733-.592-.23-1.266-.23-.551 0-.996.182-.44.175-.786.551-.337.367-.527.928-.186.557-.186 1.29 0 .766.205 1.317.21.552.537.899.342.361.796.537.46.17.967.17.698 0 1.309-.238.61-.24 1.142-.718h.069zm6.787-5.908q.444.488.679 1.196.239.708.239 1.606t-.244 1.612q-.24.708-.674 1.181-.45.493-1.065.742-.61.25-1.396.25-.767 0-1.397-.254-.625-.254-1.064-.738-.44-.483-.679-1.186-.234-.703-.234-1.607 0-.888.234-1.592.235-.708.684-1.21.43-.479 1.064-.733.64-.254 1.392-.254.781 0 1.401.259.625.254 1.06.728m-.088 2.802q0-1.416-.635-2.182-.635-.772-1.733-.772-1.109 0-1.743.772-.63.766-.63 2.182 0 1.43.644 2.193.645.756 1.729.756t1.723-.756q.645-.762.645-2.193m7.183-2.778h-3.677v2.05h3.159v.86h-3.16v3.501h-.966v-7.27h4.644zm3.667 6.411h-2.872v-.742h.953v-5.786h-.953v-.742h2.872v.742h-.953v5.786h.953zm6.435 0h-4.79v-7.27h4.79v.859h-3.823v1.992h3.823v.86h-3.823v2.7h3.823z" aria-label="LCOFIE" style="font-size:10px;dominant-baseline:middle;text-anchor:middle;fill:#e3e3e3"/><path stroke="#E3E3E3" d="M220 15h40M220 45h40M260 15v30M220 15v30"/><path d="M239.988 25.24q3.168 0 3.168 4.5t-3.168 4.5q-1.5 0-2.328-1.044t-.828-3.456.828-3.456 2.328-1.044m-1.656 7.344q.552.876 1.656.876t1.656-.876q.552-.888.552-2.844t-.552-2.832q-.552-.888-1.656-.888t-1.656.888q-.54.876-.54 2.832t.54 2.844" aria-label="0" style="font-size:12px;font-family:&quot;M PLUS 1p&quot;,MPLUS1p-Regular,monospace;dominant-baseline:middle;text-anchor:middle;fill:#e3e3e3"/><path stroke="#E3E3E3" d="M260 15h40M260 45h40M300 15v30M260 15v30"/><path d="M266.932 34.12v-8.76h.972l3.12 5.28h.024l3.12-5.28h1.008v8.76h-.96v-7.152h-.024l-2.712 4.548h-.888l-2.712-4.548h-.024v7.152zm11.244-7.956v2.856h3.924v.768h-3.924v3.528h4.164v.804h-5.124v-8.76h5.124v.804zm6.444 7.956v-8.76h1.044v8.76zm4.404-7.956v2.856h3.924v.768h-3.924v3.528h4.164v.804h-5.124v-8.76h5.124v.804z" aria-label="MEIE" style="font-size:12px;font-family:&quot;M PLUS 1p&quot;,MPLUS1p-Regular,monospace;dominant-baseline:middle;text-anchor:middle;fill:#e3e3e3"/><path stroke="#E3E3E3" d="M300 15h40M300 45h40M340 15v30M300 15v30"/><path d="M319.988 25.24q3.168 0 3.168 4.5t-3.168 4.5q-1.5 0-2.328-1.044t-.828-3.456.828-3.456 2.328-1.044m-1.656 7.344q.552.876 1.656.876t1.656-.876q.552-.888.552-2.844t-.552-2.832q-.552-.888-1.656-.888t-1.656.888q-.54.876-.54 2.832t.54 2.844" aria-label="0" style="font-size:12px;font-family:&quot;M PLUS 1p&quot;,MPLUS1p-Regular,monospace;dominant-baseline:middle;text-anchor:middle;fill:#e3e3e3"/><path stroke="#E3E3E3" d="M340 15h40M340 45h40M380 15v30M340 15v30"/><path d="M351.06 26.02q-.828 0-1.284.372-.456.36-.456 1.008 0 1.164 1.704 1.68 1.488.432 2.112 1.08.636.648.636 1.68 0 1.164-.732 1.788-.72.612-2.064.612-1.488 0-2.64-.756l.288-.792q1.044.744 2.352.744.888 0 1.356-.408.48-.408.48-1.188 0-.72-.408-1.14-.396-.432-1.404-.744-2.628-.78-2.628-2.556 0-.984.708-1.572.72-.588 1.98-.588 1.356 0 2.52.564l-.24.744q-1.044-.528-2.28-.528m5.412.144v2.856h3.924v.768h-3.924v3.528h4.164v.804h-5.124v-8.76h5.124v.804zm6.444 7.956v-8.76h1.044v8.76zm4.404-7.956v2.856h3.924v.768h-3.924v3.528h4.164v.804h-5.124v-8.76h5.124v.804z" aria-label="SEIE" style="font-size:12px;font-family:&quot;M PLUS 1p&quot;,MPLUS1p-Regular,monospace;dominant-baseline:middle;text-anchor:middle;fill:#e3e3e3"/><path stroke="#E3E3E3" d="M380 15h40M380 45h40M420 15v30M380 15v30"/><path d="M399.988 25.24q3.168 0 3.168 4.5t-3.168 4.5q-1.5 0-2.328-1.044t-.828-3.456.828-3.456 2.328-1.044m-1.656 7.344q.552.876 1.656.876t1.656-.876q.552-.888.552-2.844t-.552-2.832q-.552-.888-1.656-.888t-1.656.888q-.54.876-.54 2.832t.54 2.844" aria-label="0" style="font-size:12px;font-family:&quot;M PLUS 1p&quot;,MPLUS1p-Regular,monospace;dominant-baseline:middle;text-anchor:middle;fill:#e3e3e3"/><path stroke="#E3E3E3" d="M420 15h40M420 45h40M460 15v30M420 15v30"/><path d="M426.536 34.12v-8.76h.972l3.12 5.28h.024l3.12-5.28h1.008v8.76h-.96v-7.152h-.024l-2.712 4.548h-.888l-2.712-4.548h-.024v7.152zm9.984-8.76h6.396v.816h-2.712v7.944h-.96v-7.944h-2.724zm8.496 8.76v-8.76h1.044v8.76zm4.404-7.956v2.856h3.924v.768h-3.924v3.528h4.164v.804h-5.124v-8.76h5.124v.804z" aria-label="MTIE" style="font-size:12px;font-family:&quot;M PLUS 1p&quot;,MPLUS1p-Regular,monospace;dominant-baseline:middle;text-anchor:middle;fill:#e3e3e3"/><path stroke="#E3E3E3" d="M460 15h40M460 45h40M500 15v30M460 15v30"/><path d="M479.988 25.24q3.168 0 3.168 4.5t-3.168 4.5q-1.5 0-2.328-1.044t-.828-3.456.828-3.456 2.328-1.044m-1.656 7.344q.552.876 1.656.876t1.656-.876q.552-.888.552-2.844t-.552-2.832q-.552-.888-1.656-.888t-1.656.888q-.54.876-.54 2.832t.54 2.844" aria-label="0" style="font-size:12px;font-family:&quot;M PLUS 1p&quot;,MPLUS1p-Regular,monospace;dominant-baseline:middle;text-anchor:middle;fill:#e3e3e3"/><path stroke="#E3E3E3" d="M500 15h40M500 45h40M540 15v30M500 15v30"/><path d="M510.784 26.02q-.828 0-1.284.372-.456.36-.456 1.008 0 1.164 1.704 1.68 1.488.432 2.112 1.08.636.648.636 1.68 0 1.164-.732 1.788-.72.612-2.064.612-1.488 0-2.64-.756l.288-.792q1.044.744 2.352.744.888 0 1.356-.408.48-.408.48-1.188 0-.72-.408-1.14-.396-.432-1.404-.744-2.628-.78-2.628-2.556 0-.984.708-1.572.72-.588 1.98-.588 1.356 0 2.52.564l-.24.744q-1.044-.528-2.28-.528m3.912-.66h6.396v.816h-2.712v7.944h-.96v-7.944h-2.724zm8.496 8.76v-8.76h1.044v8.76zm4.404-7.956v2.856h3.924v.768h-3.924v3.528h4.164v.804h-5.124v-8.76h5.124v.804z" aria-label="STIE" style="font-size:12px;font-family:&quot;M PLUS 1p&quot;,MPLUS1p-Regular,monospace;dominant-baseline:middle;text-anchor:middle;fill:#e3e3e3"/><path stroke="#E3E3E3" d="M540 15h40M540 45h40M580 15v30M540 15v30"/><path d="M559.988 25.24q3.168 0 3.168 4.5t-3.168 4.5q-1.5 0-2.328-1.044t-.828-3.456.828-3.456 2.328-1.044m-1.656 7.344q.552.876 1.656.876t1.656-.876q.552-.888.552-2.844t-.552-2.832q-.552-.888-1.656-.888t-1.656.888q-.54.876-.54 2.832t.54 2.844" aria-label="0" style="font-size:12px;font-family:&quot;M PLUS 1p&quot;,MPLUS1p-Regular,monospace;dominant-baseline:middle;text-anchor:middle;fill:#e3e3e3"/><path stroke="#E3E3E3" d="M580 15h40M580 45h40M620 15v30M580 15v30"/><path d="M587.016 34.12v-8.76h.972l3.12 5.28h.024l3.12-5.28h1.008v8.76h-.96v-7.152h-.024l-2.712 4.548h-.888l-2.712-4.548h-.024v7.152zm12.708-8.1q-.828 0-1.284.372-.456.36-.456 1.008 0 1.164 1.704 1.68 1.488.432 2.112 1.08.636.648.636 1.68 0 1.164-.732 1.788-.72.612-2.064.612-1.488 0-2.64-.756l.288-.792q1.044.744 2.352.744.888 0 1.356-.408.48-.408.48-1.188 0-.72-.408-1.14-.396-.432-1.404-.744-2.628-.78-2.628-2.556 0-.984.708-1.572.72-.588 1.98-.588 1.356 0 2.52.564l-.24.744q-1.044-.528-2.28-.528m4.812 8.1v-8.76h1.044v8.76zm4.404-7.956v2.856h3.924v.768h-3.924v3.528h4.164v.804h-5.124v-8.76h5.124v.804z" aria-label="MSIE" style="font-size:12px;font-family:&quot;M PLUS 1p&quot;,MPLUS1p-Regular,monospace;dominant-baseline:middle;text-anchor:middle;fill:#e3e3e3"/><path stroke="#E3E3E3" d="M620 15h40M620 45h40M660 15v30M620 15v30"/><path d="M639.988 25.24q3.168 0 3.168 4.5t-3.168 4.5q-1.5 0-2.328-1.044t-.828-3.456.828-3.456 2.328-1.044m-1.656 7.344q.552.876 1.656.876t1.656-.876q.552-.888.552-2.844t-.552-2.832q-.552-.888-1.656-.888t-1.656.888q-.54.876-.54 2.832t.54 2.844" aria-label="0" style="font-size:12px;font-family:&quot;M PLUS 1p&quot;,MPLUS1p-Regular,monospace;dominant-baseline:middle;text-anchor:middle;fill:#e3e3e3"/><path stroke="#E3E3E3" d="M660 15h40M660 45h40M700 15v30M660 15v30"/><path d="M671.264 26.02q-.828 0-1.284.372-.456.36-.456 1.008 0 1.164 1.704 1.68 1.488.432 2.112 1.08.636.648.636 1.68 0 1.164-.732 1.788-.72.612-2.064.612-1.488 0-2.64-.756l.288-.792q1.044.744 2.352.744.888 0 1.356-.408.48-.408.48-1.188 0-.72-.408-1.14-.396-.432-1.404-.744-2.628-.78-2.628-2.556 0-.984.708-1.572.72-.588 1.98-.588 1.356 0 2.52.564l-.24.744q-1.044-.528-2.28-.528m6.636 0q-.828 0-1.284.372-.456.36-.456 1.008 0 1.164 1.704 1.68 1.488.432 2.112 1.08.636.648.636 1.68 0 1.164-.732 1.788-.72.612-2.064.612-1.488 0-2.64-.756l.288-.792q1.044.744 2.352.744.888 0 1.356-.408.48-.408.48-1.188 0-.72-.408-1.14-.396-.432-1.404-.744-2.628-.78-2.628-2.556 0-.984.708-1.572.72-.588 1.98-.588 1.356 0 2.52.564l-.24.744q-1.044-.528-2.28-.528m4.812 8.1v-8.76h1.044v8.76zm4.404-7.956v2.856h3.924v.768h-3.924v3.528h4.164v.804h-5.124v-8.76h5.124v.804z" aria-label="SSIE" style="font-size:12px;font-family:&quot;M PLUS 1p&quot;,MPLUS1p-Regular,monospace;dominant-baseline:middle;text-anchor:middle;fill:#e3e3e3"/><path stroke="#E3E3E3" d="M700 15h40M700 45h40M740 15v30M700 15v30"/><path d="M719.988 25.24q3.168 0 3.168 4.5t-3.168 4.5q-1.5 0-2.328-1.044t-.828-3.456.828-3.456 2.328-1.044m-1.656 7.344q.552.876 1.656.876t1.656-.876q.552-.888.552-2.844t-.552-2.832q-.552-.888-1.656-.888t-1.656.888q-.54.876-.54 2.832t.54 2.844" aria-label="0" style="font-size:12px;font-family:&quot;M PLUS 1p&quot;,MPLUS1p-Regular,monospace;dominant-baseline:middle;text-anchor:middle;fill:#e3e3e3"/><path d="M139.82 56.056q-1.188 0-2.376.828l-.288-.768q1.224-.876 2.784-.876 1.284 0 1.992.66.708.648.708 1.824t-.852 2.376-3.192 3.192v.024h4.08v.804h-5.4v-.804q2.556-2.112 3.456-3.288.912-1.188.912-2.232 0-.852-.468-1.296-.456-.444-1.356-.444" aria-label="2" style="font-size:12px;font-family:&quot;M PLUS 1p&quot;,MPLUS1p-Regular,monospace;dominant-baseline:middle;text-anchor:middle;fill:#e3e3e3"/><path d="M200.012 64.12v-7.608h-.024l-2.364 2.184-.372-.78 2.76-2.556h.96v8.76zM240.012 64.12v-7.608h-.024l-2.364 2.184-.372-.78 2.76-2.556h.96v8.76zM280.012 64.12v-7.608h-.024l-2.364 2.184-.372-.78 2.76-2.556h.96v8.76zM320.012 64.12v-7.608h-.024l-2.364 2.184-.372-.78 2.76-2.556h.96v8.76zM360.012 64.12v-7.608h-.024l-2.364 2.184-.372-.78 2.76-2.556h.96v8.76zM400.012 64.12v-7.608h-.024l-2.364 2.184-.372-.78 2.76-2.556h.96v8.76zM440.012 64.12v-7.608h-.024l-2.364 2.184-.372-.78 2.76-2.556h.96v8.76zM480.012 64.12v-7.608h-.024l-2.364 2.184-.372-.78 2.76-2.556h.96v8.76zM520.012 64.12v-7.608h-.024l-2.364 2.184-.372-.78 2.76-2.556h.96v8.76zM560.012 64.12v-7.608h-.024l-2.364 2.184-.372-.78 2.76-2.556h.96v8.76zM600.012 64.12v-7.608h-.024l-2.364 2.184-.372-.78 2.76-2.556h.96v8.76zM640.012 64.12v-7.608h-.024l-2.364 2.184-.372-.78 2.76-2.556h.96v8.76zM680.012 64.12v-7.608h-.024l-2.364 2.184-.372-.78 2.76-2.556h.96v8.76zM720.012 64.12v-7.608h-.024l-2.364 2.184-.372-.78 2.76-2.556h.96v8.76z" aria-label="1" style="font-size:12px;font-family:&quot;M PLUS 1p&quot;,MPLUS1p-Regular,monospace;dominant-baseline:middle;text-anchor:middle;fill:#e3e3e3"/></svg>