<svg xmlns="http://www.w3.org/2000/svg" width="1480" height="122" version="1.0"><path d="M106.04 28.24V10.72h1.944l6.24 10.56h.048l6.24-10.56h2.016v17.52h-1.92V13.936h-.048l-5.424 9.096h-1.776l-5.424-9.096h-.048V28.24ZM128 10.72l4.368 7.296h.048l4.392-7.296h2.16l-5.376 8.64 5.496 8.88h-2.256l-4.464-7.536h-.048l-4.488 7.536h-2.184l5.496-8.88-5.376-8.64zm16.2 0v15.888h8.568v1.632h-10.56V10.72Zm13.968 1.608v5.712h7.848v1.536h-7.848v7.056h8.328v1.608h-10.248V10.72h10.248v1.608zm12.168 15.912V10.72h1.992l9.12 14.4h.048v-14.4h1.872v17.52H181.4l-9.12-14.4h-.048v14.4zm16.992-6.192v-1.536h7.128v1.536zm16.512 6.192V13.024h-.048l-4.728 4.368-.744-1.56 5.52-5.112h1.92v17.52z" aria-label="MXLEN-1" style="font-size:24px;font-family:&quot;M PLUS 1p&quot;,MPLUS1p-Regular,monospace;dominant-baseline:middle;fill:#e3e3e3"/><path d="M1368.536 10.48q6.336 0 6.336 9t-6.336 9q-3 0-4.656-2.088t-1.656-6.912 1.656-6.912 4.656-2.088m-3.312 14.688q1.104 1.752 3.312 1.752t3.312-1.752q1.104-1.776 1.104-5.688t-1.104-5.664q-1.104-1.776-3.312-1.776t-3.312 1.776q-1.08 1.752-1.08 5.664t1.08 5.688" aria-label="0" style="font-size:24px;font-family:&quot;M PLUS 1p&quot;,MPLUS1p-Regular,monospace;dominant-baseline:middle;text-anchor:end;fill:#e3e3e3"/><path stroke="#E3E3E3" d="M100 41h1280M100 81h1280M1380 41v40M100 41v40"/><path d="M689.456 55.76h1.68l.024 2.064h.048q1.32-2.304 3.288-2.304 2.4 0 3.36 2.4h.048q1.272-2.4 3.624-2.4 1.944 0 2.856 1.152.912 1.128.912 3.648v7.92h-1.728V60.8q0-2.184-.552-3-.552-.84-1.872-.84-1.152 0-2.016 1.152t-.864 2.808v7.32h-1.728V60.8q0-2.16-.576-3-.552-.84-1.872-.84-1.08 0-1.992 1.272-.888 1.248-.888 3v7.008h-1.752zm23.448-.24q2.28 0 4.224.96l-.384 1.416q-1.848-.936-3.84-.936-1.392 0-2.136.504-.72.504-.72 1.416 0 .864.624 1.368.648.504 2.328.792 2.448.408 3.504 1.344 1.08.936 1.08 2.568t-1.248 2.592q-1.224.936-3.432.936-2.568 0-4.608-1.2l.408-1.416q1.968 1.176 4.2 1.176 1.392 0 2.136-.528.744-.552.744-1.56 0-.96-.672-1.488-.648-.528-2.304-.816-2.376-.408-3.456-1.296-1.056-.912-1.056-2.472 0-1.536 1.2-2.448 1.224-.912 3.408-.912m13.272 1.464q-2.112 0-3.288 1.32-1.176 1.296-1.176 3.696 0 2.304 1.224 3.672 1.248 1.368 3.24 1.368 1.68 0 3.216-.816l.48 1.416q-1.8.84-3.768.84-2.784 0-4.512-1.752-1.728-1.776-1.728-4.728 0-3.048 1.656-4.752 1.656-1.728 4.584-1.728 1.968 0 3.768.84l-.48 1.464q-1.608-.84-3.216-.84m7.056-1.224h1.704l.048 2.664h.048q2.112-2.904 5.952-2.904v1.512q-2.664 0-4.32 1.464-1.632 1.464-1.632 3.792v5.952h-1.8zm14.712-.24q2.616 0 3.744 1.08t1.128 3.552v4.728q0 1.704.36 3.36h-1.68q-.192-.936-.24-2.208h-.048q-.648 1.152-1.872 1.8t-2.76.648q-1.728 0-2.76-.96-1.032-.984-1.032-2.64 0-2.088 1.824-3.312 1.824-1.248 5.184-1.248h1.272v-.12q0-1.824-.696-2.52-.672-.72-2.424-.72-2.256 0-4.2 1.104l-.312-1.416q2.064-1.128 4.512-1.128m-3.432 9.288q0 1.08.672 1.704.672.6 1.8.6 1.656 0 2.856-1.176 1.224-1.2 1.224-2.928v-1.344h-1.272q-2.52 0-3.912.864-1.368.84-1.368 2.28m15.264-13.128v4.56h4.728v1.44h-4.728v6.552q0 1.68.456 2.256.456.552 1.704.552 1.104 0 2.112-.408l.288 1.416q-1.224.432-2.64.432-2.04 0-2.88-.864-.84-.888-.84-3.048V57.68h-2.76v-1.44h2.76v-4.56zm13.56 5.304q-2.112 0-3.288 1.32-1.176 1.296-1.176 3.696 0 2.304 1.224 3.672 1.248 1.368 3.24 1.368 1.68 0 3.216-.816l.48 1.416q-1.8.84-3.768.84-2.784 0-4.512-1.752-1.728-1.776-1.728-4.728 0-3.048 1.656-4.752 1.656-1.728 4.584-1.728 1.968 0 3.768.84l-.48 1.464q-1.608-.84-3.216-.84m7.176-6.744h1.752v7.656h.048q1.584-2.376 4.2-2.376 2.112 0 3.12 1.32 1.032 1.296 1.032 4.128v7.272h-1.728v-7.128q0-2.328-.672-3.216-.672-.912-2.304-.912-1.44 0-2.568 1.416-1.128 1.392-1.128 3.168v6.672h-1.752z" aria-label="mscratch" style="font-size:24px;font-family:&quot;M PLUS 1p&quot;,MPLUS1p-Regular,monospace;dominant-baseline:middle;text-anchor:middle;fill:#e3e3e3"/><path d="M701.336 108.24V90.72h1.944l6.24 10.56h.048l6.24-10.56h2.016v17.52h-1.92V93.936h-.048l-5.424 9.096h-1.776l-5.424-9.096h-.048v14.304zm21.96-17.52 4.368 7.296h.048l4.392-7.296h2.16l-5.376 8.64 5.496 8.88h-2.256l-4.464-7.536h-.048l-4.488 7.536h-2.184l5.496-8.88-5.376-8.64zm16.2 0v15.888h8.568v1.632h-10.56V90.72Zm13.968 1.608v5.712h7.848v1.536h-7.848v7.056h8.328v1.608h-10.248V90.72h10.248v1.608zm12.168 15.912V90.72h1.992l9.12 14.4h.048v-14.4h1.872v17.52h-1.968l-9.12-14.4h-.048v14.4z" aria-label="MXLEN" style="font-size:24px;font-family:&quot;M PLUS 1p&quot;,MPLUS1p-Regular,monospace;dominant-baseline:middle;text-anchor:middle;fill:#e3e3e3"/></svg>