<?xml version="1.0" encoding="UTF-8" standalone="no"?>
<svg
   version="1.0"
   width="840"
   height="76"
   viewBox="0 0 840 76"
   id="svg90"
   xmlns="http://www.w3.org/2000/svg"
   xmlns:svg="http://www.w3.org/2000/svg">
  <defs
     id="defs90" />
  <path
     d="M 116.60099,10.86 V 3.8859999 h -0.022 l -2.167,2.002 -0.341,-0.715 2.53,-2.343 h 0.88 V 10.86 Z M 125.632,3.5669999 h -3.476 l -0.154,2.596 h 0.022 q 0.649,-0.385 1.463,-0.385 1.177,0 1.826,0.638 0.649,0.638 0.649,1.804 0,1.342 -0.759,2.0460001 -0.748,0.704 -2.2,0.704 -1.122,0 -2.068,-0.528 l 0.22,-0.7260001 q 0.924,0.5170001 1.848,0.5170001 2.079,0 2.079,-2.0130001 0,-0.847 -0.451,-1.287 -0.451,-0.451 -1.298,-0.451 -0.869,0 -1.441,0.506 h -0.77 l 0.242,-4.158 h 4.268 z"
     id="text1"
     style="font-size:11px;font-family:'M PLUS 1p', MPLUS1p-Regular, monospace;dominant-baseline:middle;text-anchor:middle;fill:#e3e3e3"
     aria-label="15" />
  <path
     d="M 156.60099,10.86 V 3.8859999 h -0.022 l -2.167,2.002 -0.341,-0.715 2.53,-2.343 h 0.88 V 10.86 Z M 164.015,8.2749999 v -4.158 h -0.022 l -2.926,4.136 v 0.022 z m 0.869,0 h 1.364 v 0.715 h -1.364 V 10.86 h -0.869 V 8.9899999 h -3.85 v -0.715 l 3.85,-5.445 h 0.869 z"
     id="text2"
     style="font-size:11px;font-family:'M PLUS 1p', MPLUS1p-Regular, monospace;dominant-baseline:middle;text-anchor:middle;fill:#e3e3e3"
     aria-label="14" />
  <path
     d="M 196.60099,10.86 V 3.8859999 h -0.022 l -2.167,2.002 -0.341,-0.715 2.53,-2.343 h 0.88 V 10.86 Z M 200.935,2.8299999 h 4.818 v 0.737 l -2.64,2.585 v 0.022 h 0.341 q 1.166,0 1.782,0.561 0.627,0.561 0.627,1.628 0,1.254 -0.748,1.9360001 -0.737,0.671 -2.112,0.671 -1.188,0 -2.09,-0.572 l 0.264,-0.7150001 q 0.924,0.5500001 1.826,0.5500001 0.968,0 1.474,-0.4730001 0.506,-0.473 0.506,-1.397 0,-0.781 -0.528,-1.155 -0.517,-0.385 -1.661,-0.385 h -0.803 v -0.682 l 2.629,-2.552 v -0.022 h -3.685 z"
     id="text3"
     style="font-size:11px;font-family:'M PLUS 1p', MPLUS1p-Regular, monospace;dominant-baseline:middle;text-anchor:middle;fill:#e3e3e3"
     aria-label="13" />
  <path
     d="M 236.60099,10.86 V 3.8859999 h -0.022 l -2.167,2.002 -0.341,-0.715 2.53,-2.343 h 0.88 V 10.86 Z M 243.245,3.4679999 q -1.089,0 -2.178,0.759 l -0.264,-0.704 q 1.122,-0.803 2.552,-0.803 1.177,0 1.826,0.605 0.649,0.594 0.649,1.672 0,1.078 -0.781,2.178 -0.781,1.1 -2.926,2.9260001 v 0.022 h 3.74 v 0.737 h -4.95 v -0.737 q 2.343,-1.9360001 3.168,-3.0140001 0.836,-1.089 0.836,-2.046 0,-0.781 -0.429,-1.188 -0.418,-0.407 -1.243,-0.407 z"
     id="text4"
     style="font-size:11px;font-family:'M PLUS 1p', MPLUS1p-Regular, monospace;dominant-baseline:middle;text-anchor:middle;fill:#e3e3e3"
     aria-label="12" />
  <path
     d="M 276.60099,10.86 V 3.8859999 h -0.022 l -2.167,2.002 -0.341,-0.715 2.53,-2.343 h 0.88 V 10.86 Z m 6.82001,0 V 3.8859999 h -0.022 l -2.167,2.002 -0.341,-0.715 2.53,-2.343 h 0.88 V 10.86 Z"
     id="text5"
     style="font-size:11px;font-family:'M PLUS 1p', MPLUS1p-Regular, monospace;dominant-baseline:middle;text-anchor:middle;fill:#e3e3e3"
     aria-label="11" />
  <path
     d="M 316.60099,10.86 V 3.8859999 h -0.022 l -2.167,2.002 -0.341,-0.715 2.53,-2.343 h 0.88 V 10.86 Z M 323.399,2.7199999 q 2.904,0 2.904,4.125 0,4.1250001 -2.904,4.1250001 -1.375,0 -2.134,-0.957 -0.759,-0.9570001 -0.759,-3.1680001 0,-2.211 0.759,-3.168 0.759,-0.957 2.134,-0.957 z m -1.518,6.732 q 0.506,0.8030001 1.518,0.8030001 1.012,0 1.518,-0.8030001 0.506,-0.814 0.506,-2.607 0,-1.793 -0.506,-2.596 -0.506,-0.814 -1.518,-0.814 -1.012,0 -1.518,0.814 -0.495,0.803 -0.495,2.596 0,1.793 0.495,2.607 z"
     id="text6"
     style="font-size:11px;font-family:'M PLUS 1p', MPLUS1p-Regular, monospace;dominant-baseline:middle;text-anchor:middle;fill:#e3e3e3"
     aria-label="10" />
  <path
     d="m 359.956,2.7199999 q 1.342,0 2.09,0.803 0.759,0.792 0.759,2.255 0,2.299 -1.111,3.652 Q 360.594,10.783 358.625,10.97 l -0.154,-0.737 q 1.342,-0.143 2.156,-0.8470001 0.814,-0.715 1.166,-2.013 l -0.022,-0.011 q -0.77,0.858 -2.002,0.858 -1.221,0 -1.936,-0.715 -0.715,-0.726 -0.715,-1.98 0,-1.276 0.77,-2.035 0.781,-0.77 2.068,-0.77 z m 0,0.737 q -0.935,0 -1.452,0.539 -0.506,0.539 -0.506,1.529 0,0.946 0.528,1.485 0.528,0.528 1.43,0.528 0.847,0 1.397,-0.561 0.55,-0.561 0.55,-1.452 0,-0.979 -0.517,-1.518 -0.517,-0.55 -1.43,-0.55 z"
     id="text7"
     style="font-size:11px;font-family:'M PLUS 1p', MPLUS1p-Regular, monospace;dominant-baseline:middle;text-anchor:middle;fill:#e3e3e3"
     aria-label="9" />
  <path
     d="m 398.075,3.2479999 q 0.704,-0.528 1.914,-0.528 1.21,0 1.903,0.528 0.704,0.528 0.704,1.397 0,1.331 -1.54,1.881 v 0.022 q 1.837,0.539 1.837,2.145 0,1.045 -0.781,1.6610001 -0.77,0.616 -2.123,0.616 -1.353,0 -2.123,-0.616 -0.77,-0.6160001 -0.77,-1.6610001 0,-0.704 0.473,-1.254 0.473,-0.55 1.353,-0.825 v -0.022 q -0.737,-0.275 -1.144,-0.781 -0.396,-0.506 -0.396,-1.166 0,-0.869 0.693,-1.397 z m 1.914,2.992 q 0.847,-0.176 1.32,-0.572 0.473,-0.407 0.473,-0.946 0,-0.594 -0.473,-0.946 -0.473,-0.352 -1.32,-0.352 -0.836,0 -1.298,0.352 -0.451,0.341 -0.451,0.946 0,0.55 0.451,0.957 0.462,0.396 1.298,0.561 z m -0.033,0.693 q -1.001,0.198 -1.518,0.649 -0.506,0.451 -0.506,1.078 0,0.748 0.55,1.177 0.55,0.4290001 1.507,0.4290001 0.957,0 1.496,-0.4290001 0.539,-0.44 0.539,-1.177 0,-1.331 -2.068,-1.727 z"
     id="text8"
     style="font-size:11px;font-family:'M PLUS 1p', MPLUS1p-Regular, monospace;dominant-baseline:middle;text-anchor:middle;fill:#e3e3e3"
     aria-label="8" />
  <path
     d="m 437.448,2.8299999 h 5.17 v 0.737 q -1.925,3.157 -3.19,7.2930001 h -0.913 q 1.276,-4.0150001 3.245,-7.2710001 v -0.022 h -4.312 z"
     id="text9"
     style="font-size:11px;font-family:'M PLUS 1p', MPLUS1p-Regular, monospace;dominant-baseline:middle;text-anchor:middle;fill:#e3e3e3"
     aria-label="7" />
  <path
     d="m 480.033,6.1519999 q -0.847,0 -1.397,0.55 -0.55,0.55 -0.55,1.408 0,1.023 0.517,1.573 0.517,0.5500001 1.43,0.5500001 0.935,0 1.452,-0.5500001 0.517,-0.55 0.517,-1.573 0,-0.902 -0.539,-1.43 -0.528,-0.528 -1.43,-0.528 z m 0,4.8180001 q -1.331,0 -2.09,-0.803 -0.748,-0.8030001 -0.748,-2.3100001 0,-2.233 1.078,-3.597 1.089,-1.364 2.992,-1.54 l 0.154,0.737 q -2.53,0.286 -3.212,2.849 l 0.011,0.011 q 0.759,-0.847 2.002,-0.847 1.221,0 1.936,0.715 0.726,0.704 0.726,1.925 0,1.309 -0.781,2.0900001 -0.781,0.77 -2.068,0.77 z"
     id="text10"
     style="font-size:11px;font-family:'M PLUS 1p', MPLUS1p-Regular, monospace;dominant-baseline:middle;text-anchor:middle;fill:#e3e3e3"
     aria-label="6" />
  <path
     d="m 522.222,3.5669999 h -3.476 l -0.154,2.596 h 0.022 q 0.649,-0.385 1.463,-0.385 1.177,0 1.826,0.638 0.649,0.638 0.649,1.804 0,1.342 -0.759,2.0460001 -0.748,0.704 -2.2,0.704 -1.122,0 -2.068,-0.528 l 0.22,-0.7260001 q 0.924,0.5170001 1.848,0.5170001 2.079,0 2.079,-2.0130001 0,-0.847 -0.451,-1.287 -0.451,-0.451 -1.298,-0.451 -0.869,0 -1.441,0.506 h -0.77 l 0.242,-4.158 h 4.268 z"
     id="text11"
     style="font-size:11px;font-family:'M PLUS 1p', MPLUS1p-Regular, monospace;dominant-baseline:middle;text-anchor:middle;fill:#e3e3e3"
     aria-label="5" />
  <path
     d="m 560.605,8.2749999 v -4.158 h -0.022 l -2.926,4.136 v 0.022 z m 0.869,0 h 1.364 v 0.715 h -1.364 V 10.86 h -0.869 V 8.9899999 h -3.85 v -0.715 l 3.85,-5.445 h 0.869 z"
     id="text12"
     style="font-size:11px;font-family:'M PLUS 1p', MPLUS1p-Regular, monospace;dominant-baseline:middle;text-anchor:middle;fill:#e3e3e3"
     aria-label="4" />
  <path
     d="m 597.525,2.8299999 h 4.818 v 0.737 l -2.64,2.585 v 0.022 h 0.341 q 1.166,0 1.782,0.561 0.627,0.561 0.627,1.628 0,1.254 -0.748,1.9360001 -0.737,0.671 -2.112,0.671 -1.188,0 -2.09,-0.572 l 0.264,-0.7150001 q 0.924,0.5500001 1.826,0.5500001 0.968,0 1.474,-0.4730001 0.506,-0.473 0.506,-1.397 0,-0.781 -0.528,-1.155 -0.517,-0.385 -1.661,-0.385 h -0.803 v -0.682 l 2.629,-2.552 v -0.022 h -3.685 z"
     id="text13"
     style="font-size:11px;font-family:'M PLUS 1p', MPLUS1p-Regular, monospace;dominant-baseline:middle;text-anchor:middle;fill:#e3e3e3"
     aria-label="3" />
  <path
     d="m 639.835,3.4679999 q -1.089,0 -2.178,0.759 l -0.264,-0.704 q 1.122,-0.803 2.552,-0.803 1.177,0 1.826,0.605 0.649,0.594 0.649,1.672 0,1.078 -0.781,2.178 -0.781,1.1 -2.926,2.9260001 v 0.022 h 3.74 v 0.737 h -4.95 v -0.737 q 2.343,-1.9360001 3.168,-3.0140001 0.836,-1.089 0.836,-2.046 0,-0.781 -0.429,-1.188 -0.418,-0.407 -1.243,-0.407 z"
     id="text14"
     style="font-size:11px;font-family:'M PLUS 1p', MPLUS1p-Regular, monospace;dominant-baseline:middle;text-anchor:middle;fill:#e3e3e3"
     aria-label="2" />
  <path
     d="M 680.011,10.86 V 3.8859999 h -0.022 l -2.167,2.002 -0.341,-0.715 2.53,-2.343 h 0.88 V 10.86 Z"
     id="text15"
     style="font-size:11px;font-family:'M PLUS 1p', MPLUS1p-Regular, monospace;dominant-baseline:middle;text-anchor:middle;fill:#e3e3e3"
     aria-label="1" />
  <path
     d="m 719.989,2.7199999 q 2.904,0 2.904,4.125 0,4.1250001 -2.904,4.1250001 -1.375,0 -2.134,-0.957 -0.759,-0.9570001 -0.759,-3.1680001 0,-2.211 0.759,-3.168 0.759,-0.957 2.134,-0.957 z m -1.518,6.732 q 0.506,0.8030001 1.518,0.8030001 1.012,0 1.518,-0.8030001 0.506,-0.814 0.506,-2.607 0,-1.793 -0.506,-2.596 -0.506,-0.814 -1.518,-0.814 -1.012,0 -1.518,0.814 -0.495,0.803 -0.495,2.596 0,1.793 0.495,2.607 z"
     id="text16"
     style="font-size:11px;font-family:'M PLUS 1p', MPLUS1p-Regular, monospace;dominant-baseline:middle;text-anchor:middle;fill:#e3e3e3"
     aria-label="0" />
  <line
     x1="100"
     y1="15"
     x2="180"
     y2="15"
     stroke="#E3E3E3"
     stroke-width="1"
     id="line16" />
  <line
     x1="100"
     y1="45"
     x2="180"
     y2="45"
     stroke="#E3E3E3"
     stroke-width="1"
     id="line17" />
  <line
     x1="180"
     y1="15"
     x2="180"
     y2="45"
     stroke="#E3E3E3"
     stroke-width="1"
     id="line18" />
  <line
     x1="100"
     y1="15"
     x2="100"
     y2="45"
     stroke="#E3E3E3"
     stroke-width="1"
     id="line19" />
  <path
     d="m 139.98799,25.24 q 3.168,0 3.168,4.5 0,4.5 -3.168,4.5 -1.5,0 -2.328,-1.044 -0.828,-1.044 -0.828,-3.456 0,-2.412 0.828,-3.456 0.828,-1.044 2.328,-1.044 z m -1.656,7.344 q 0.552,0.876 1.656,0.876 1.104,0 1.656,-0.876 0.552,-0.888 0.552,-2.844 0,-1.956 -0.552,-2.832 -0.552,-0.888 -1.656,-0.888 -1.104,0 -1.656,0.888 -0.54,0.876 -0.54,2.832 0,1.956 0.54,2.844 z"
     id="text19"
     style="font-size:12px;font-family:'M PLUS 1p', MPLUS1p-Regular, monospace;dominant-baseline:middle;text-anchor:middle;fill:#e3e3e3"
     aria-label="0" />
  <line
     x1="180"
     y1="15"
     x2="220"
     y2="15"
     stroke="#E3E3E3"
     stroke-width="1"
     id="line20" />
  <line
     x1="180"
     y1="45"
     x2="220"
     y2="45"
     stroke="#E3E3E3"
     stroke-width="1"
     id="line21" />
  <line
     x1="220"
     y1="15"
     x2="220"
     y2="45"
     stroke="#E3E3E3"
     stroke-width="1"
     id="line22" />
  <line
     x1="180"
     y1="15"
     x2="180"
     y2="45"
     stroke="#E3E3E3"
     stroke-width="1"
     id="line23" />
  <path
     d="m 187.42187,33.727051 h -4.5996 v -7.270508 h 0.96679 v 6.411133 h 3.63281 z m 6.48438,-0.527344 q -0.26855,0.117188 -0.48828,0.219727 -0.21485,0.102539 -0.56641,0.214843 -0.29785,0.09277 -0.64941,0.15625 -0.34668,0.06836 -0.7666,0.06836 -0.79102,0 -1.44043,-0.219727 -0.64453,-0.224609 -1.12305,-0.698242 -0.46875,-0.463867 -0.73242,-1.176758 -0.26367,-0.717773 -0.26367,-1.665039 0,-0.898437 0.2539,-1.606445 0.25391,-0.708008 0.73242,-1.196289 0.46387,-0.473633 1.11817,-0.722657 0.65918,-0.249023 1.45996,-0.249023 0.58594,0 1.16699,0.141602 0.58594,0.141601 1.29883,0.498046 v 1.147461 h -0.0732 q -0.60059,-0.502929 -1.19141,-0.732421 -0.59082,-0.229493 -1.26465,-0.229493 -0.55175,0 -0.99609,0.180664 -0.43945,0.175782 -0.78613,0.551758 -0.33692,0.366211 -0.52735,0.927735 -0.18554,0.55664 -0.18554,1.289062 0,0.766602 0.20507,1.318359 0.20996,0.551758 0.53711,0.898438 0.3418,0.361328 0.7959,0.537109 0.45899,0.170899 0.9668,0.170899 0.69824,0 1.30859,-0.239258 0.61035,-0.239258 1.14258,-0.717773 h 0.0684 z m 6.78711,-5.908203 q 0.44434,0.488281 0.67871,1.196289 0.23926,0.708008 0.23926,1.606445 0,0.898438 -0.24414,1.611328 -0.23926,0.708008 -0.67383,1.181641 -0.44922,0.493164 -1.06445,0.742188 -0.61036,0.249023 -1.39649,0.249023 -0.7666,0 -1.39648,-0.253906 -0.625,-0.253907 -1.06446,-0.737305 -0.43945,-0.483398 -0.67871,-1.186523 -0.23437,-0.703125 -0.23437,-1.606446 0,-0.888672 0.23437,-1.591797 0.23438,-0.708007 0.6836,-1.210937 0.42968,-0.478516 1.06445,-0.732422 0.63965,-0.253906 1.3916,-0.253906 0.78125,0 1.40137,0.258789 0.625,0.253906 1.05957,0.727539 z m -0.0879,2.802734 q 0,-1.416015 -0.63477,-2.182617 -0.63476,-0.771484 -1.7334,-0.771484 -1.10839,0 -1.74316,0.771484 -0.62988,0.766602 -0.62988,2.182617 0,1.430664 0.64453,2.192383 0.64453,0.756836 1.72851,0.756836 1.08399,0 1.72364,-0.756836 0.64453,-0.761719 0.64453,-2.192383 z m 7.18262,-2.77832 h -3.67676 v 2.050781 h 3.15918 v 0.859375 h -3.15918 v 3.500977 h -0.9668 v -7.270508 h 4.64356 z m 3.66699,6.411133 h -2.8711 v -0.742188 h 0.95215 V 27.19873 h -0.95215 v -0.742187 h 2.8711 v 0.742187 h -0.95215 v 5.786133 h 0.95215 z m 6.40137,-5.073242 q 0,0.483398 -0.1709,0.898437 -0.16602,0.410156 -0.46875,0.712891 -0.37598,0.375976 -0.88868,0.566406 -0.51269,0.185547 -1.29394,0.185547 h -0.9668 v 2.709961 h -0.96679 v -7.270508 h 1.97265 q 0.6543,0 1.1084,0.112305 0.4541,0.107422 0.80566,0.341797 0.41504,0.27832 0.63965,0.693359 0.2295,0.415039 0.2295,1.049805 z m -1.00586,0.02441 q 0,-0.375977 -0.13184,-0.654297 -0.13184,-0.278321 -0.40039,-0.454102 -0.23438,-0.151367 -0.53711,-0.214844 -0.29785,-0.06836 -0.75684,-0.06836 h -0.95703 v 2.905274 h 0.81543 q 0.58594,0 0.95215,-0.10254 0.36621,-0.107421 0.5957,-0.336914 0.2295,-0.234375 0.32227,-0.493164 0.0977,-0.258789 0.0977,-0.581054 z"
     id="text23"
     style="font-size:10px;dominant-baseline:middle;text-anchor:middle;fill:#e3e3e3"
     aria-label="LCOFIP" />
  <line
     x1="220"
     y1="15"
     x2="260"
     y2="15"
     stroke="#E3E3E3"
     stroke-width="1"
     id="line24" />
  <line
     x1="220"
     y1="45"
     x2="260"
     y2="45"
     stroke="#E3E3E3"
     stroke-width="1"
     id="line25" />
  <line
     x1="260"
     y1="15"
     x2="260"
     y2="45"
     stroke="#E3E3E3"
     stroke-width="1"
     id="line26" />
  <line
     x1="220"
     y1="15"
     x2="220"
     y2="45"
     stroke="#E3E3E3"
     stroke-width="1"
     id="line27" />
  <path
     d="m 239.98799,25.24 q 3.168,0 3.168,4.5 0,4.5 -3.168,4.5 -1.5,0 -2.328,-1.044 -0.828,-1.044 -0.828,-3.456 0,-2.412 0.828,-3.456 0.828,-1.044 2.328,-1.044 z m -1.656,7.344 q 0.552,0.876 1.656,0.876 1.104,0 1.656,-0.876 0.552,-0.888 0.552,-2.844 0,-1.956 -0.552,-2.832 -0.552,-0.888 -1.656,-0.888 -1.104,0 -1.656,0.888 -0.54,0.876 -0.54,2.832 0,1.956 0.54,2.844 z"
     id="text27"
     style="font-size:12px;font-family:'M PLUS 1p', MPLUS1p-Regular, monospace;dominant-baseline:middle;text-anchor:middle;fill:#e3e3e3"
     aria-label="0" />
  <line
     x1="260"
     y1="15"
     x2="300"
     y2="15"
     stroke="#E3E3E3"
     stroke-width="1"
     id="line28" />
  <line
     x1="260"
     y1="45"
     x2="300"
     y2="45"
     stroke="#E3E3E3"
     stroke-width="1"
     id="line29" />
  <line
     x1="300"
     y1="15"
     x2="300"
     y2="45"
     stroke="#E3E3E3"
     stroke-width="1"
     id="line30" />
  <line
     x1="260"
     y1="15"
     x2="260"
     y2="45"
     stroke="#E3E3E3"
     stroke-width="1"
     id="line31" />
  <path
     d="m 266.854,34.12 v -8.76 h 0.972 l 3.12,5.28 h 0.024 l 3.12,-5.28 h 1.008 v 8.76 h -0.96 v -7.152 h -0.024 l -2.712,4.548 h -0.888 l -2.712,-4.548 h -0.024 v 7.152 z m 11.244,-7.956 v 2.856 h 3.924 v 0.768 h -3.924 v 3.528 h 4.164 v 0.804 h -5.124 v -8.76 h 5.124 v 0.804 z m 6.444,7.956 v -8.76 h 1.044 v 8.76 z m 3.444,-8.688 q 1.248,-0.192 2.436,-0.192 1.632,0 2.472,0.696 0.852,0.684 0.852,1.968 0,1.392 -0.852,2.112 -0.852,0.72 -2.472,0.72 -0.792,0 -1.476,-0.072 v 3.456 h -0.96 z m 0.96,4.44 q 0.696,0.096 1.404,0.096 1.188,0 1.812,-0.516 0.636,-0.516 0.636,-1.476 0,-0.96 -0.624,-1.452 -0.612,-0.504 -1.824,-0.504 -0.66,0 -1.404,0.12 z"
     id="text31"
     style="font-size:12px;font-family:'M PLUS 1p', MPLUS1p-Regular, monospace;dominant-baseline:middle;text-anchor:middle;fill:#e3e3e3"
     aria-label="MEIP" />
  <line
     x1="300"
     y1="15"
     x2="340"
     y2="15"
     stroke="#E3E3E3"
     stroke-width="1"
     id="line32" />
  <line
     x1="300"
     y1="45"
     x2="340"
     y2="45"
     stroke="#E3E3E3"
     stroke-width="1"
     id="line33" />
  <line
     x1="340"
     y1="15"
     x2="340"
     y2="45"
     stroke="#E3E3E3"
     stroke-width="1"
     id="line34" />
  <line
     x1="300"
     y1="15"
     x2="300"
     y2="45"
     stroke="#E3E3E3"
     stroke-width="1"
     id="line35" />
  <path
     d="m 319.98799,25.24 q 3.168,0 3.168,4.5 0,4.5 -3.168,4.5 -1.5,0 -2.328,-1.044 -0.828,-1.044 -0.828,-3.456 0,-2.412 0.828,-3.456 0.828,-1.044 2.328,-1.044 z m -1.656,7.344 q 0.552,0.876 1.656,0.876 1.104,0 1.656,-0.876 0.552,-0.888 0.552,-2.844 0,-1.956 -0.552,-2.832 -0.552,-0.888 -1.656,-0.888 -1.104,0 -1.656,0.888 -0.54,0.876 -0.54,2.832 0,1.956 0.54,2.844 z"
     id="text35"
     style="font-size:12px;font-family:'M PLUS 1p', MPLUS1p-Regular, monospace;dominant-baseline:middle;text-anchor:middle;fill:#e3e3e3"
     aria-label="0" />
  <line
     x1="340"
     y1="15"
     x2="380"
     y2="15"
     stroke="#E3E3E3"
     stroke-width="1"
     id="line36" />
  <line
     x1="340"
     y1="45"
     x2="380"
     y2="45"
     stroke="#E3E3E3"
     stroke-width="1"
     id="line37" />
  <line
     x1="380"
     y1="15"
     x2="380"
     y2="45"
     stroke="#E3E3E3"
     stroke-width="1"
     id="line38" />
  <line
     x1="340"
     y1="15"
     x2="340"
     y2="45"
     stroke="#E3E3E3"
     stroke-width="1"
     id="line39" />
  <path
     d="m 350.982,26.02 q -0.828,0 -1.284,0.372 -0.456,0.36 -0.456,1.008 0,1.164 1.704,1.68 1.488,0.432 2.112,1.08 0.636,0.648 0.636,1.68 0,1.164 -0.732,1.788 -0.72,0.612 -2.064,0.612 -1.488,0 -2.64,-0.756 l 0.288,-0.792 q 1.044,0.744 2.352,0.744 0.888,0 1.356,-0.408 0.48,-0.408 0.48,-1.188 0,-0.72 -0.408,-1.14 -0.396,-0.432 -1.404,-0.744 -2.628,-0.78 -2.628,-2.556 0,-0.984 0.708,-1.572 0.72,-0.588 1.98,-0.588 1.356,0 2.52,0.564 l -0.24,0.744 q -1.044,-0.528 -2.28,-0.528 z m 5.412,0.144 v 2.856 h 3.924 v 0.768 h -3.924 v 3.528 h 4.164 v 0.804 h -5.124 v -8.76 h 5.124 v 0.804 z m 6.444,7.956 v -8.76 h 1.044 v 8.76 z m 3.44399,-8.688 q 1.248,-0.192 2.436,-0.192 1.632,0 2.472,0.696 0.852,0.684 0.852,1.968 0,1.392 -0.852,2.112 -0.852,0.72 -2.472,0.72 -0.792,0 -1.476,-0.072 v 3.456 h -0.96 z m 0.96,4.44 q 0.696,0.096 1.404,0.096 1.188,0 1.812,-0.516 0.636,-0.516 0.636,-1.476 0,-0.96 -0.624,-1.452 -0.612,-0.504 -1.824,-0.504 -0.66,0 -1.404,0.12 z"
     id="text39"
     style="font-size:12px;font-family:'M PLUS 1p', MPLUS1p-Regular, monospace;dominant-baseline:middle;text-anchor:middle;fill:#e3e3e3"
     aria-label="SEIP" />
  <line
     x1="380"
     y1="15"
     x2="420"
     y2="15"
     stroke="#E3E3E3"
     stroke-width="1"
     id="line40" />
  <line
     x1="380"
     y1="45"
     x2="420"
     y2="45"
     stroke="#E3E3E3"
     stroke-width="1"
     id="line41" />
  <line
     x1="420"
     y1="15"
     x2="420"
     y2="45"
     stroke="#E3E3E3"
     stroke-width="1"
     id="line42" />
  <line
     x1="380"
     y1="15"
     x2="380"
     y2="45"
     stroke="#E3E3E3"
     stroke-width="1"
     id="line43" />
  <path
     d="m 399.98799,25.24 q 3.168,0 3.168,4.5 0,4.5 -3.168,4.5 -1.5,0 -2.328,-1.044 -0.828,-1.044 -0.828,-3.456 0,-2.412 0.828,-3.456 0.828,-1.044 2.328,-1.044 z m -1.656,7.344 q 0.552,0.876 1.656,0.876 1.104,0 1.656,-0.876 0.552,-0.888 0.552,-2.844 0,-1.956 -0.552,-2.832 -0.552,-0.888 -1.656,-0.888 -1.104,0 -1.656,0.888 -0.54,0.876 -0.54,2.832 0,1.956 0.54,2.844 z"
     id="text43"
     style="font-size:12px;font-family:'M PLUS 1p', MPLUS1p-Regular, monospace;dominant-baseline:middle;text-anchor:middle;fill:#e3e3e3"
     aria-label="0" />
  <line
     x1="420"
     y1="15"
     x2="460"
     y2="15"
     stroke="#E3E3E3"
     stroke-width="1"
     id="line44" />
  <line
     x1="420"
     y1="45"
     x2="460"
     y2="45"
     stroke="#E3E3E3"
     stroke-width="1"
     id="line45" />
  <line
     x1="460"
     y1="15"
     x2="460"
     y2="45"
     stroke="#E3E3E3"
     stroke-width="1"
     id="line46" />
  <line
     x1="420"
     y1="15"
     x2="420"
     y2="45"
     stroke="#E3E3E3"
     stroke-width="1"
     id="line47" />
  <path
     d="m 426.458,34.12 v -8.76 h 0.972 l 3.12,5.28 h 0.024 l 3.12,-5.28 h 1.008 v 8.76 h -0.96 v -7.152 h -0.024 l -2.712,4.548 h -0.888 l -2.712,-4.548 h -0.024 v 7.152 z m 9.984,-8.76 h 6.396 v 0.816 h -2.712 v 7.944 h -0.96 v -7.944 h -2.724 z m 8.496,8.76 v -8.76 h 1.044 v 8.76 z m 3.444,-8.688 q 1.248,-0.192 2.436,-0.192 1.632,0 2.472,0.696 0.852,0.684 0.852,1.968 0,1.392 -0.852,2.112 -0.852,0.72 -2.472,0.72 -0.792,0 -1.476,-0.072 v 3.456 h -0.96 z m 0.96,4.44 q 0.696,0.096 1.404,0.096 1.188,0 1.812,-0.516 0.636,-0.516 0.636,-1.476 0,-0.96 -0.624,-1.452 -0.612,-0.504 -1.824,-0.504 -0.66,0 -1.404,0.12 z"
     id="text47"
     style="font-size:12px;font-family:'M PLUS 1p', MPLUS1p-Regular, monospace;dominant-baseline:middle;text-anchor:middle;fill:#e3e3e3"
     aria-label="MTIP" />
  <line
     x1="460"
     y1="15"
     x2="500"
     y2="15"
     stroke="#E3E3E3"
     stroke-width="1"
     id="line48" />
  <line
     x1="460"
     y1="45"
     x2="500"
     y2="45"
     stroke="#E3E3E3"
     stroke-width="1"
     id="line49" />
  <line
     x1="500"
     y1="15"
     x2="500"
     y2="45"
     stroke="#E3E3E3"
     stroke-width="1"
     id="line50" />
  <line
     x1="460"
     y1="15"
     x2="460"
     y2="45"
     stroke="#E3E3E3"
     stroke-width="1"
     id="line51" />
  <path
     d="m 479.98799,25.24 q 3.168,0 3.168,4.5 0,4.5 -3.168,4.5 -1.5,0 -2.328,-1.044 -0.828,-1.044 -0.828,-3.456 0,-2.412 0.828,-3.456 0.828,-1.044 2.328,-1.044 z m -1.656,7.344 q 0.552,0.876 1.656,0.876 1.104,0 1.656,-0.876 0.552,-0.888 0.552,-2.844 0,-1.956 -0.552,-2.832 -0.552,-0.888 -1.656,-0.888 -1.104,0 -1.656,0.888 -0.54,0.876 -0.54,2.832 0,1.956 0.54,2.844 z"
     id="text51"
     style="font-size:12px;font-family:'M PLUS 1p', MPLUS1p-Regular, monospace;dominant-baseline:middle;text-anchor:middle;fill:#e3e3e3"
     aria-label="0" />
  <line
     x1="500"
     y1="15"
     x2="540"
     y2="15"
     stroke="#E3E3E3"
     stroke-width="1"
     id="line52" />
  <line
     x1="500"
     y1="45"
     x2="540"
     y2="45"
     stroke="#E3E3E3"
     stroke-width="1"
     id="line53" />
  <line
     x1="540"
     y1="15"
     x2="540"
     y2="45"
     stroke="#E3E3E3"
     stroke-width="1"
     id="line54" />
  <line
     x1="500"
     y1="15"
     x2="500"
     y2="45"
     stroke="#E3E3E3"
     stroke-width="1"
     id="line55" />
  <path
     d="m 510.706,26.02 q -0.828,0 -1.284,0.372 -0.456,0.36 -0.456,1.008 0,1.164 1.704,1.68 1.488,0.432 2.112,1.08 0.636,0.648 0.636,1.68 0,1.164 -0.732,1.788 -0.72,0.612 -2.064,0.612 -1.488,0 -2.64,-0.756 l 0.288,-0.792 q 1.044,0.744 2.352,0.744 0.888,0 1.356,-0.408 0.48,-0.408 0.48,-1.188 0,-0.72 -0.408,-1.14 -0.396,-0.432 -1.404,-0.744 -2.628,-0.78 -2.628,-2.556 0,-0.984 0.708,-1.572 0.72,-0.588 1.98,-0.588 1.356,0 2.52,0.564 l -0.24,0.744 q -1.044,-0.528 -2.28,-0.528 z m 3.912,-0.66 h 6.396 v 0.816 h -2.712 v 7.944 h -0.96 v -7.944 h -2.724 z m 8.496,8.76 v -8.76 h 1.044 v 8.76 z m 3.44399,-8.688 q 1.248,-0.192 2.436,-0.192 1.632,0 2.472,0.696 0.852,0.684 0.852,1.968 0,1.392 -0.852,2.112 -0.852,0.72 -2.472,0.72 -0.792,0 -1.476,-0.072 v 3.456 h -0.96 z m 0.96,4.44 q 0.696,0.096 1.404,0.096 1.188,0 1.812,-0.516 0.636,-0.516 0.636,-1.476 0,-0.96 -0.624,-1.452 -0.612,-0.504 -1.824,-0.504 -0.66,0 -1.404,0.12 z"
     id="text55"
     style="font-size:12px;font-family:'M PLUS 1p', MPLUS1p-Regular, monospace;dominant-baseline:middle;text-anchor:middle;fill:#e3e3e3"
     aria-label="STIP" />
  <line
     x1="540"
     y1="15"
     x2="580"
     y2="15"
     stroke="#E3E3E3"
     stroke-width="1"
     id="line56" />
  <line
     x1="540"
     y1="45"
     x2="580"
     y2="45"
     stroke="#E3E3E3"
     stroke-width="1"
     id="line57" />
  <line
     x1="580"
     y1="15"
     x2="580"
     y2="45"
     stroke="#E3E3E3"
     stroke-width="1"
     id="line58" />
  <line
     x1="540"
     y1="15"
     x2="540"
     y2="45"
     stroke="#E3E3E3"
     stroke-width="1"
     id="line59" />
  <path
     d="m 559.98799,25.24 q 3.168,0 3.168,4.5 0,4.5 -3.168,4.5 -1.5,0 -2.328,-1.044 -0.828,-1.044 -0.828,-3.456 0,-2.412 0.828,-3.456 0.828,-1.044 2.328,-1.044 z m -1.656,7.344 q 0.552,0.876 1.656,0.876 1.104,0 1.656,-0.876 0.552,-0.888 0.552,-2.844 0,-1.956 -0.552,-2.832 -0.552,-0.888 -1.656,-0.888 -1.104,0 -1.656,0.888 -0.54,0.876 -0.54,2.832 0,1.956 0.54,2.844 z"
     id="text59"
     style="font-size:12px;font-family:'M PLUS 1p', MPLUS1p-Regular, monospace;dominant-baseline:middle;text-anchor:middle;fill:#e3e3e3"
     aria-label="0" />
  <line
     x1="580"
     y1="15"
     x2="620"
     y2="15"
     stroke="#E3E3E3"
     stroke-width="1"
     id="line60" />
  <line
     x1="580"
     y1="45"
     x2="620"
     y2="45"
     stroke="#E3E3E3"
     stroke-width="1"
     id="line61" />
  <line
     x1="620"
     y1="15"
     x2="620"
     y2="45"
     stroke="#E3E3E3"
     stroke-width="1"
     id="line62" />
  <line
     x1="580"
     y1="15"
     x2="580"
     y2="45"
     stroke="#E3E3E3"
     stroke-width="1"
     id="line63" />
  <path
     d="m 586.938,34.12 v -8.76 h 0.972 l 3.12,5.28 h 0.024 l 3.12,-5.28 h 1.008 v 8.76 h -0.96 v -7.152 h -0.024 l -2.712,4.548 h -0.888 l -2.712,-4.548 h -0.024 v 7.152 z m 12.708,-8.1 q -0.828,0 -1.284,0.372 -0.456,0.36 -0.456,1.008 0,1.164 1.704,1.68 1.488,0.432 2.112,1.08 0.636,0.648 0.636,1.68 0,1.164 -0.732,1.788 -0.72,0.612 -2.064,0.612 -1.488,0 -2.64,-0.756 l 0.288,-0.792 q 1.044,0.744 2.352,0.744 0.888,0 1.356,-0.408 0.48,-0.408 0.48,-1.188 0,-0.72 -0.408,-1.14 -0.396,-0.432 -1.404,-0.744 -2.628,-0.78 -2.628,-2.556 0,-0.984 0.708,-1.572 0.72,-0.588 1.98,-0.588 1.356,0 2.52,0.564 l -0.24,0.744 q -1.044,-0.528 -2.28,-0.528 z m 4.812,8.1 v -8.76 h 1.044 v 8.76 z m 3.444,-8.688 q 1.248,-0.192 2.436,-0.192 1.632,0 2.472,0.696 0.852,0.684 0.852,1.968 0,1.392 -0.852,2.112 -0.852,0.72 -2.472,0.72 -0.792,0 -1.476,-0.072 v 3.456 h -0.96 z m 0.96,4.44 q 0.696,0.096 1.404,0.096 1.188,0 1.812,-0.516 0.636,-0.516 0.636,-1.476 0,-0.96 -0.624,-1.452 -0.612,-0.504 -1.824,-0.504 -0.66,0 -1.404,0.12 z"
     id="text63"
     style="font-size:12px;font-family:'M PLUS 1p', MPLUS1p-Regular, monospace;dominant-baseline:middle;text-anchor:middle;fill:#e3e3e3"
     aria-label="MSIP" />
  <line
     x1="620"
     y1="15"
     x2="660"
     y2="15"
     stroke="#E3E3E3"
     stroke-width="1"
     id="line64" />
  <line
     x1="620"
     y1="45"
     x2="660"
     y2="45"
     stroke="#E3E3E3"
     stroke-width="1"
     id="line65" />
  <line
     x1="660"
     y1="15"
     x2="660"
     y2="45"
     stroke="#E3E3E3"
     stroke-width="1"
     id="line66" />
  <line
     x1="620"
     y1="15"
     x2="620"
     y2="45"
     stroke="#E3E3E3"
     stroke-width="1"
     id="line67" />
  <path
     d="m 639.98799,25.24 q 3.168,0 3.168,4.5 0,4.5 -3.168,4.5 -1.5,0 -2.328,-1.044 -0.828,-1.044 -0.828,-3.456 0,-2.412 0.828,-3.456 0.828,-1.044 2.328,-1.044 z m -1.656,7.344 q 0.552,0.876 1.656,0.876 1.104,0 1.656,-0.876 0.552,-0.888 0.552,-2.844 0,-1.956 -0.552,-2.832 -0.552,-0.888 -1.656,-0.888 -1.104,0 -1.656,0.888 -0.54,0.876 -0.54,2.832 0,1.956 0.54,2.844 z"
     id="text67"
     style="font-size:12px;font-family:'M PLUS 1p', MPLUS1p-Regular, monospace;dominant-baseline:middle;text-anchor:middle;fill:#e3e3e3"
     aria-label="0" />
  <line
     x1="660"
     y1="15"
     x2="700"
     y2="15"
     stroke="#E3E3E3"
     stroke-width="1"
     id="line68" />
  <line
     x1="660"
     y1="45"
     x2="700"
     y2="45"
     stroke="#E3E3E3"
     stroke-width="1"
     id="line69" />
  <line
     x1="700"
     y1="15"
     x2="700"
     y2="45"
     stroke="#E3E3E3"
     stroke-width="1"
     id="line70" />
  <line
     x1="660"
     y1="15"
     x2="660"
     y2="45"
     stroke="#E3E3E3"
     stroke-width="1"
     id="line71" />
  <path
     d="m 671.186,26.02 q -0.828,0 -1.284,0.372 -0.456,0.36 -0.456,1.008 0,1.164 1.704,1.68 1.488,0.432 2.112,1.08 0.636,0.648 0.636,1.68 0,1.164 -0.732,1.788 -0.72,0.612 -2.064,0.612 -1.488,0 -2.64,-0.756 l 0.288,-0.792 q 1.044,0.744 2.352,0.744 0.888,0 1.356,-0.408 0.48,-0.408 0.48,-1.188 0,-0.72 -0.408,-1.14 -0.396,-0.432 -1.404,-0.744 -2.628,-0.78 -2.628,-2.556 0,-0.984 0.708,-1.572 0.72,-0.588 1.98,-0.588 1.356,0 2.52,0.564 l -0.24,0.744 q -1.044,-0.528 -2.28,-0.528 z m 6.636,0 q -0.828,0 -1.284,0.372 -0.456,0.36 -0.456,1.008 0,1.164 1.704,1.68 1.488,0.432 2.112,1.08 0.636,0.648 0.636,1.68 0,1.164 -0.732,1.788 -0.72,0.612 -2.064,0.612 -1.488,0 -2.64,-0.756 l 0.288,-0.792 q 1.044,0.744 2.352,0.744 0.888,0 1.356,-0.408 0.48,-0.408 0.48,-1.188 0,-0.72 -0.408,-1.14 -0.396,-0.432 -1.404,-0.744 -2.628,-0.78 -2.628,-2.556 0,-0.984 0.708,-1.572 0.72,-0.588 1.98,-0.588 1.356,0 2.52,0.564 l -0.24,0.744 q -1.044,-0.528 -2.28,-0.528 z m 4.812,8.1 v -8.76 h 1.044 v 8.76 z m 3.44399,-8.688 q 1.248,-0.192 2.436,-0.192 1.632,0 2.472,0.696 0.852,0.684 0.852,1.968 0,1.392 -0.852,2.112 -0.852,0.72 -2.472,0.72 -0.792,0 -1.476,-0.072 v 3.456 h -0.96 z m 0.96,4.44 q 0.696,0.096 1.404,0.096 1.188,0 1.812,-0.516 0.636,-0.516 0.636,-1.476 0,-0.96 -0.624,-1.452 -0.612,-0.504 -1.824,-0.504 -0.66,0 -1.404,0.12 z"
     id="text71"
     style="font-size:12px;font-family:'M PLUS 1p', MPLUS1p-Regular, monospace;dominant-baseline:middle;text-anchor:middle;fill:#e3e3e3"
     aria-label="SSIP" />
  <line
     x1="700"
     y1="15"
     x2="740"
     y2="15"
     stroke="#E3E3E3"
     stroke-width="1"
     id="line72" />
  <line
     x1="700"
     y1="45"
     x2="740"
     y2="45"
     stroke="#E3E3E3"
     stroke-width="1"
     id="line73" />
  <line
     x1="740"
     y1="15"
     x2="740"
     y2="45"
     stroke="#E3E3E3"
     stroke-width="1"
     id="line74" />
  <line
     x1="700"
     y1="15"
     x2="700"
     y2="45"
     stroke="#E3E3E3"
     stroke-width="1"
     id="line75" />
  <path
     d="m 719.98799,25.24 q 3.168,0 3.168,4.5 0,4.5 -3.168,4.5 -1.5,0 -2.328,-1.044 -0.828,-1.044 -0.828,-3.456 0,-2.412 0.828,-3.456 0.828,-1.044 2.328,-1.044 z m -1.656,7.344 q 0.552,0.876 1.656,0.876 1.104,0 1.656,-0.876 0.552,-0.888 0.552,-2.844 0,-1.956 -0.552,-2.832 -0.552,-0.888 -1.656,-0.888 -1.104,0 -1.656,0.888 -0.54,0.876 -0.54,2.832 0,1.956 0.54,2.844 z"
     id="text75"
     style="font-size:12px;font-family:'M PLUS 1p', MPLUS1p-Regular, monospace;dominant-baseline:middle;text-anchor:middle;fill:#e3e3e3"
     aria-label="0" />
  <path
     d="m 139.81999,56.056 q -1.188,0 -2.376,0.828 l -0.288,-0.768 q 1.224,-0.876 2.784,-0.876 1.284,0 1.992,0.66 0.708,0.648 0.708,1.824 0,1.176 -0.852,2.376 -0.852,1.2 -3.192,3.192 v 0.024 h 4.08 v 0.804 h -5.4 v -0.804 q 2.556,-2.112 3.456,-3.288 0.912,-1.188 0.912,-2.232 0,-0.852 -0.468,-1.296 -0.456,-0.444 -1.356,-0.444 z"
     id="text76"
     style="font-size:12px;font-family:'M PLUS 1p', MPLUS1p-Regular, monospace;dominant-baseline:middle;text-anchor:middle;fill:#e3e3e3"
     aria-label="2" />
  <path
     d="m 200.01199,64.12 v -7.608 h -0.024 l -2.364,2.184 -0.372,-0.78 2.76,-2.556 h 0.96 v 8.76 z"
     id="text77"
     style="font-size:12px;font-family:'M PLUS 1p', MPLUS1p-Regular, monospace;dominant-baseline:middle;text-anchor:middle;fill:#e3e3e3"
     aria-label="1" />
  <path
     d="m 240.01199,64.12 v -7.608 h -0.024 l -2.364,2.184 -0.372,-0.78 2.76,-2.556 h 0.96 v 8.76 z"
     id="text78"
     style="font-size:12px;font-family:'M PLUS 1p', MPLUS1p-Regular, monospace;dominant-baseline:middle;text-anchor:middle;fill:#e3e3e3"
     aria-label="1" />
  <path
     d="m 280.01199,64.12 v -7.608 h -0.024 l -2.364,2.184 -0.372,-0.78 2.76,-2.556 h 0.96 v 8.76 z"
     id="text79"
     style="font-size:12px;font-family:'M PLUS 1p', MPLUS1p-Regular, monospace;dominant-baseline:middle;text-anchor:middle;fill:#e3e3e3"
     aria-label="1" />
  <path
     d="m 320.01199,64.12 v -7.608 h -0.024 l -2.364,2.184 -0.372,-0.78 2.76,-2.556 h 0.96 v 8.76 z"
     id="text80"
     style="font-size:12px;font-family:'M PLUS 1p', MPLUS1p-Regular, monospace;dominant-baseline:middle;text-anchor:middle;fill:#e3e3e3"
     aria-label="1" />
  <path
     d="m 360.01199,64.12 v -7.608 h -0.024 l -2.364,2.184 -0.372,-0.78 2.76,-2.556 h 0.96 v 8.76 z"
     id="text81"
     style="font-size:12px;font-family:'M PLUS 1p', MPLUS1p-Regular, monospace;dominant-baseline:middle;text-anchor:middle;fill:#e3e3e3"
     aria-label="1" />
  <path
     d="m 400.01199,64.12 v -7.608 h -0.024 l -2.364,2.184 -0.372,-0.78 2.76,-2.556 h 0.96 v 8.76 z"
     id="text82"
     style="font-size:12px;font-family:'M PLUS 1p', MPLUS1p-Regular, monospace;dominant-baseline:middle;text-anchor:middle;fill:#e3e3e3"
     aria-label="1" />
  <path
     d="m 440.01199,64.12 v -7.608 h -0.024 l -2.364,2.184 -0.372,-0.78 2.76,-2.556 h 0.96 v 8.76 z"
     id="text83"
     style="font-size:12px;font-family:'M PLUS 1p', MPLUS1p-Regular, monospace;dominant-baseline:middle;text-anchor:middle;fill:#e3e3e3"
     aria-label="1" />
  <path
     d="m 480.01199,64.12 v -7.608 h -0.024 l -2.364,2.184 -0.372,-0.78 2.76,-2.556 h 0.96 v 8.76 z"
     id="text84"
     style="font-size:12px;font-family:'M PLUS 1p', MPLUS1p-Regular, monospace;dominant-baseline:middle;text-anchor:middle;fill:#e3e3e3"
     aria-label="1" />
  <path
     d="m 520.01199,64.12 v -7.608 h -0.024 l -2.364,2.184 -0.372,-0.78 2.76,-2.556 h 0.96 v 8.76 z"
     id="text85"
     style="font-size:12px;font-family:'M PLUS 1p', MPLUS1p-Regular, monospace;dominant-baseline:middle;text-anchor:middle;fill:#e3e3e3"
     aria-label="1" />
  <path
     d="m 560.01199,64.12 v -7.608 h -0.024 l -2.364,2.184 -0.372,-0.78 2.76,-2.556 h 0.96 v 8.76 z"
     id="text86"
     style="font-size:12px;font-family:'M PLUS 1p', MPLUS1p-Regular, monospace;dominant-baseline:middle;text-anchor:middle;fill:#e3e3e3"
     aria-label="1" />
  <path
     d="m 600.01199,64.12 v -7.608 h -0.024 l -2.364,2.184 -0.372,-0.78 2.76,-2.556 h 0.96 v 8.76 z"
     id="text87"
     style="font-size:12px;font-family:'M PLUS 1p', MPLUS1p-Regular, monospace;dominant-baseline:middle;text-anchor:middle;fill:#e3e3e3"
     aria-label="1" />
  <path
     d="m 640.01199,64.12 v -7.608 h -0.024 l -2.364,2.184 -0.372,-0.78 2.76,-2.556 h 0.96 v 8.76 z"
     id="text88"
     style="font-size:12px;font-family:'M PLUS 1p', MPLUS1p-Regular, monospace;dominant-baseline:middle;text-anchor:middle;fill:#e3e3e3"
     aria-label="1" />
  <path
     d="m 680.01199,64.12 v -7.608 h -0.024 l -2.364,2.184 -0.372,-0.78 2.76,-2.556 h 0.96 v 8.76 z"
     id="text89"
     style="font-size:12px;font-family:'M PLUS 1p', MPLUS1p-Regular, monospace;dominant-baseline:middle;text-anchor:middle;fill:#e3e3e3"
     aria-label="1" />
  <path
     d="m 720.01199,64.12 v -7.608 h -0.024 l -2.364,2.184 -0.372,-0.78 2.76,-2.556 h 0.96 v 8.76 z"
     id="text90"
     style="font-size:12px;font-family:'M PLUS 1p', MPLUS1p-Regular, monospace;dominant-baseline:middle;text-anchor:middle;fill:#e3e3e3"
     aria-label="1" />
</svg>
