<?xml version="1.0" encoding="UTF-8" standalone="no"?>
<svg
   version="1.0"
   width="1480"
   height="122"
   viewBox="0 0 1480 122"
   id="svg6"
   xmlns="http://www.w3.org/2000/svg"
   xmlns:svg="http://www.w3.org/2000/svg">
  <defs
     id="defs6" />
  <path
     d="M 106.04,28.24 V 10.72 h 1.944 l 6.24,10.56 h 0.048 l 6.24,-10.56 h 2.016 v 17.52 h -1.92 V 13.936 h -0.048 l -5.424,9.096 h -1.776 l -5.424,-9.096 h -0.048 V 28.24 Z m 21.96001,-17.52 4.368,7.296 h 0.048 l 4.392,-7.296 h 2.16 l -5.376,8.64 5.496,8.88 h -2.256 l -4.464,-7.536 h -0.048 l -4.488,7.536 h -2.184 l 5.496,-8.88 -5.376,-8.64 z m 16.19999,0 v 15.888 h 8.568 v 1.632 h -10.56 V 10.72 Z m 13.96798,1.608 v 5.712 h 7.848 v 1.536 h -7.848 v 7.056 h 8.328 v 1.608 h -10.248 V 10.72 h 10.248 v 1.608 z M 170.33597,28.24 V 10.72 h 1.992 l 9.12,14.4 h 0.048 v -14.4 h 1.872 v 17.52 h -1.968 l -9.12,-14.4 h -0.048 v 14.4 z m 16.99199,-6.192 v -1.536 h 7.128 v 1.536 z m 16.51202,6.192 V 13.024 h -0.048 l -4.728,4.368 -0.744,-1.56 5.52,-5.112 h 1.92 v 17.52 z"
     id="text1"
     style="font-size:24px;font-family:'M PLUS 1p', MPLUS1p-Regular, monospace;dominant-baseline:middle;fill:#e3e3e3"
     aria-label="MXLEN-1" />
  <path
     d="m 1368.536,10.48 q 6.336,0 6.336,9 0,9 -6.336,9 -3,0 -4.656,-2.088 -1.656,-2.088 -1.656,-6.912 0,-4.824 1.656,-6.912 1.656,-2.088 4.656,-2.088 z m -3.312,14.688 q 1.104,1.752 3.312,1.752 2.208,0 3.312,-1.752 1.104,-1.776 1.104,-5.688 0,-3.912 -1.104,-5.664 -1.104,-1.776 -3.312,-1.776 -2.208,0 -3.312,1.776 -1.08,1.752 -1.08,5.664 0,3.912 1.08,5.688 z"
     id="text2"
     style="font-size:24px;font-family:'M PLUS 1p', MPLUS1p-Regular, monospace;dominant-baseline:middle;text-anchor:end;fill:#e3e3e3"
     aria-label="0" />
  <line
     x1="100"
     y1="41"
     x2="1380"
     y2="41"
     stroke="#E3E3E3"
     stroke-width="1"
     id="line2" />
  <line
     x1="100"
     y1="81"
     x2="1380"
     y2="81"
     stroke="#E3E3E3"
     stroke-width="1"
     id="line3" />
  <line
     x1="1380"
     y1="41"
     x2="1380"
     y2="81"
     stroke="#E3E3E3"
     stroke-width="1"
     id="line4" />
  <line
     x1="100"
     y1="41"
     x2="100"
     y2="81"
     stroke="#E3E3E3"
     stroke-width="1"
     id="line5" />
  <path
     d="m 689.45605,55.76 h 1.68 l 0.024,2.064 h 0.048 q 1.32,-2.304 3.288,-2.304 2.4,0 3.36,2.4 h 0.048 q 1.272,-2.4 3.624,-2.4 1.944,0 2.856,1.152 0.912,1.128 0.912,3.648 v 7.92 h -1.728 V 60.8 q 0,-2.184 -0.552,-3 -0.552,-0.84 -1.872,-0.84 -1.152,0 -2.016,1.152 -0.864,1.152 -0.864,2.808 v 7.32 h -1.728 V 60.8 q 0,-2.16 -0.576,-3 -0.552,-0.84 -1.872,-0.84 -1.08,0 -1.992,1.272 -0.888,1.248 -0.888,3 v 7.008 h -1.752 z m 23.44801,-0.24 q 2.28,0 4.224,0.96 l -0.384,1.416 q -1.848,-0.936 -3.84,-0.936 -1.392,0 -2.136,0.504 -0.72,0.504 -0.72,1.416 0,0.864 0.624,1.368 0.648,0.504 2.328,0.792 2.448,0.408 3.504,1.344 1.08,0.936 1.08,2.568 0,1.632 -1.248,2.592 -1.224,0.936 -3.432,0.936 -2.568,0 -4.608,-1.2 l 0.408,-1.416 q 1.968,1.176 4.2,1.176 1.392,0 2.136,-0.528 0.744,-0.552 0.744,-1.56 0,-0.96 -0.672,-1.488 -0.648,-0.528 -2.304,-0.816 -2.376,-0.408 -3.456,-1.296 -1.056,-0.912 -1.056,-2.472 0,-1.536 1.2,-2.448 1.224,-0.912 3.408,-0.912 z m 13.27199,1.464 q -2.112,0 -3.288,1.32 -1.176,1.296 -1.176,3.696 0,2.304 1.224,3.672 1.248,1.368 3.24,1.368 1.68,0 3.216,-0.816 l 0.48,1.416 q -1.8,0.84 -3.768,0.84 -2.784,0 -4.512,-1.752 -1.728,-1.776 -1.728,-4.728 0,-3.048 1.656,-4.752 1.656,-1.728 4.584,-1.728 1.968,0 3.768,0.84 l -0.48,1.464 q -1.608,-0.84 -3.216,-0.84 z m 7.05599,-1.224 h 1.704 l 0.048,2.664 h 0.048 q 2.112,-2.904 5.952,-2.904 v 1.512 q -2.664,0 -4.32,1.464 -1.632,1.464 -1.632,3.792 v 5.952 h -1.8 z M 747.944,55.52 q 2.616,0 3.744,1.08 1.128,1.08 1.128,3.552 v 4.728 q 0,1.704 0.36,3.36 h -1.68 q -0.192,-0.936 -0.24,-2.208 h -0.048 q -0.648,1.152 -1.872,1.8 -1.224,0.648 -2.76,0.648 -1.728,0 -2.76,-0.96 -1.032,-0.984 -1.032,-2.64 0,-2.088 1.824,-3.312 1.824,-1.248 5.184,-1.248 h 1.272 V 60.2 q 0,-1.824 -0.696,-2.52 -0.672,-0.72 -2.424,-0.72 -2.256,0 -4.2,1.104 l -0.312,-1.416 q 2.064,-1.128 4.512,-1.128 z m -3.432,9.288 q 0,1.08 0.672,1.704 0.672,0.6 1.8,0.6 1.656,0 2.856,-1.176 1.224,-1.2 1.224,-2.928 v -1.344 h -1.272 q -2.52,0 -3.912,0.864 -1.368,0.84 -1.368,2.28 z M 759.77599,51.68 v 4.56 h 4.728 v 1.44 h -4.728 v 6.552 q 0,1.68 0.456,2.256 0.456,0.552 1.704,0.552 1.104,0 2.112,-0.408 l 0.288,1.416 q -1.224,0.432 -2.64,0.432 -2.04,0 -2.88,-0.864 -0.84,-0.888 -0.84,-3.048 V 57.68 h -2.76 v -1.44 h 2.76 v -4.56 z m 13.55997,5.304 q -2.112,0 -3.288,1.32 -1.176,1.296 -1.176,3.696 0,2.304 1.224,3.672 1.248,1.368 3.24,1.368 1.68,0 3.216,-0.816 l 0.48,1.416 q -1.8,0.84 -3.768,0.84 -2.784,0 -4.512,-1.752 -1.728,-1.776 -1.728,-4.728 0,-3.048 1.656,-4.752 1.656,-1.728 4.584,-1.728 1.968,0 3.768,0.84 l -0.48,1.464 q -1.608,-0.84 -3.216,-0.84 z m 7.17599,-6.744 h 1.752 v 7.656 h 0.048 q 1.584,-2.376 4.2,-2.376 2.112,0 3.12,1.32 1.032,1.296 1.032,4.128 v 7.272 h -1.728 v -7.128 q 0,-2.328 -0.672,-3.216 -0.672,-0.912 -2.304,-0.912 -1.44,0 -2.568,1.416 -1.128,1.392 -1.128,3.168 v 6.672 h -1.752 z"
     id="text5"
     style="font-size:24px;font-family:'M PLUS 1p', MPLUS1p-Regular, monospace;dominant-baseline:middle;text-anchor:middle;fill:#e3e3e3"
     aria-label="mscratch" />
  <path
     d="M 701.33602,108.24 V 90.72 h 1.944 l 6.24,10.56 h 0.048 l 6.24,-10.56 h 2.016 v 17.52 h -1.92 V 93.936 h -0.048 l -5.424,9.096 h -1.776 l -5.424,-9.096 h -0.048 v 14.304 z m 21.96001,-17.52 4.368,7.296 h 0.048 l 4.392,-7.296 h 2.16 l -5.376,8.64 5.496,8.88 h -2.256 l -4.464,-7.536 h -0.048 l -4.488,7.536 h -2.184 l 5.496,-8.88 -5.376,-8.64 z m 16.19999,0 v 15.888 h 8.568 v 1.632 h -10.56 V 90.72 Z m 13.96798,1.608 v 5.712 h 7.848 v 1.536 h -7.848 v 7.056 h 8.328 v 1.608 H 751.544 V 90.72 h 10.248 v 1.608 z m 12.168,15.912 V 90.72 h 1.992 l 9.12,14.4 h 0.048 v -14.4 h 1.872 v 17.52 h -1.968 l -9.12,-14.4 h -0.048 v 14.4 z"
     id="text6"
     style="font-size:24px;font-family:'M PLUS 1p', MPLUS1p-Regular, monospace;dominant-baseline:middle;text-anchor:middle;fill:#e3e3e3"
     aria-label="MXLEN" />
</svg>
