<svg width="800" height="84" viewBox="0 0 800 84" fill="none" xmlns="http://www.w3.org/2000/svg">
<g clip-path="url(#clip0_2_846)">
<path d="M4 21.5H795" stroke="white" stroke-linecap="round"/>
<path d="M4 21.5V52.5" stroke="white" stroke-linecap="round"/>
<path d="M4 52.5H795" stroke="white" stroke-linecap="round"/>
<path d="M795 21.5V52.5" stroke="white" stroke-linecap="round"/>
<path d="M770 21.5V24.5" stroke="white" stroke-linecap="round"/>
<path d="M770 52.5V49.5" stroke="white" stroke-linecap="round"/>
<path d="M746 21.5V24.5" stroke="white" stroke-linecap="round"/>
<path d="M746 52.5V49.5" stroke="white" stroke-linecap="round"/>
<path d="M721 21.5V24.5" stroke="white" stroke-linecap="round"/>
<path d="M721 52.5V49.5" stroke="white" stroke-linecap="round"/>
<path d="M696 21.5V24.5" stroke="white" stroke-linecap="round"/>
<path d="M696 52.5V49.5" stroke="white" stroke-linecap="round"/>
<path d="M671 21.5V24.5" stroke="white" stroke-linecap="round"/>
<path d="M671 52.5V49.5" stroke="white" stroke-linecap="round"/>
<path d="M647 21.5V24.5" stroke="white" stroke-linecap="round"/>
<path d="M647 52.5V49.5" stroke="white" stroke-linecap="round"/>
<path d="M622 21.5V52.5" stroke="white" stroke-linecap="round"/>
<path d="M597 21.5V24.5" stroke="white" stroke-linecap="round"/>
<path d="M597 52.5V49.5" stroke="white" stroke-linecap="round"/>
<path d="M573 21.5V24.5" stroke="white" stroke-linecap="round"/>
<path d="M573 52.5V49.5" stroke="white" stroke-linecap="round"/>
<path d="M548 21.5V24.5" stroke="white" stroke-linecap="round"/>
<path d="M548 52.5V49.5" stroke="white" stroke-linecap="round"/>
<path d="M523 21.5V24.5" stroke="white" stroke-linecap="round"/>
<path d="M523 52.5V49.5" stroke="white" stroke-linecap="round"/>
<path d="M498 21.5V52.5" stroke="white" stroke-linecap="round"/>
<path d="M474 21.5V24.5" stroke="white" stroke-linecap="round"/>
<path d="M474 52.5V49.5" stroke="white" stroke-linecap="round"/>
<path d="M449 21.5V24.5" stroke="white" stroke-linecap="round"/>
<path d="M449 52.5V49.5" stroke="white" stroke-linecap="round"/>
<path d="M424 21.5V52.5" stroke="white" stroke-linecap="round"/>
<path d="M400 21.5V24.5" stroke="white" stroke-linecap="round"/>
<path d="M400 52.5V49.5" stroke="white" stroke-linecap="round"/>
<path d="M375 21.5V24.5" stroke="white" stroke-linecap="round"/>
<path d="M375 52.5V49.5" stroke="white" stroke-linecap="round"/>
<path d="M350 21.5V24.5" stroke="white" stroke-linecap="round"/>
<path d="M350 52.5V49.5" stroke="white" stroke-linecap="round"/>
<path d="M325 21.5V24.5" stroke="white" stroke-linecap="round"/>
<path d="M325 52.5V49.5" stroke="white" stroke-linecap="round"/>
<path d="M301 21.5V52.5" stroke="white" stroke-linecap="round"/>
<path d="M276 21.5V24.5" stroke="white" stroke-linecap="round"/>
<path d="M276 52.5V49.5" stroke="white" stroke-linecap="round"/>
<path d="M251 21.5V24.5" stroke="white" stroke-linecap="round"/>
<path d="M251 52.5V49.5" stroke="white" stroke-linecap="round"/>
<path d="M226 21.5V24.5" stroke="white" stroke-linecap="round"/>
<path d="M226 52.5V49.5" stroke="white" stroke-linecap="round"/>
<path d="M202 21.5V24.5" stroke="white" stroke-linecap="round"/>
<path d="M202 52.5V49.5" stroke="white" stroke-linecap="round"/>
<path d="M177 21.5V52.5" stroke="white" stroke-linecap="round"/>
<path d="M152 21.5V24.5" stroke="white" stroke-linecap="round"/>
<path d="M152 52.5V49.5" stroke="white" stroke-linecap="round"/>
<path d="M128 21.5V24.5" stroke="white" stroke-linecap="round"/>
<path d="M128 52.5V49.5" stroke="white" stroke-linecap="round"/>
<path d="M103 21.5V24.5" stroke="white" stroke-linecap="round"/>
<path d="M103 52.5V49.5" stroke="white" stroke-linecap="round"/>
<path d="M78 21.5V24.5" stroke="white" stroke-linecap="round"/>
<path d="M78 52.5V49.5" stroke="white" stroke-linecap="round"/>
<path d="M53 21.5V24.5" stroke="white" stroke-linecap="round"/>
<path d="M53 52.5V49.5" stroke="white" stroke-linecap="round"/>
<path d="M29 21.5V24.5" stroke="white" stroke-linecap="round"/>
<path d="M29 52.5V49.5" stroke="white" stroke-linecap="round"/>
<path d="M795 21.5H622V52.5H795V21.5Z" fill="black" fill-opacity="0.1"/>
<path d="M622 21.5H498V52.5H622V21.5Z" fill="#FF0000" fill-opacity="0.1"/>
<path d="M498 21.5H424V52.5H498V21.5Z" fill="black" fill-opacity="0.1"/>
<path d="M425 21.5H301V52.5H425V21.5Z" fill="#00FFD5" fill-opacity="0.1"/>
<path d="M301 21.5H177V52.5H301V21.5Z" fill="#00FFD5" fill-opacity="0.1"/>
<path d="M177 21.5H4V52.5H177V21.5Z" fill="black" fill-opacity="0.1"/>
<path d="M779.283 7.358C779.927 6.546 780.833 6.14 781.999 6.14C783.166 6.14 784.071 6.546 784.715 7.358C785.359 8.17 785.681 9.514 785.681 11.39C785.681 13.266 785.359 14.61 784.715 15.422C784.071 16.234 783.166 16.64 781.999 16.64C780.833 16.64 779.927 16.234 779.283 15.422C778.639 14.61 778.317 13.266 778.317 11.39C778.317 9.514 778.639 8.17 779.283 7.358ZM780.067 14.708C780.497 15.3893 781.141 15.73 781.999 15.73C782.858 15.73 783.497 15.3893 783.917 14.708C784.347 14.0173 784.561 12.9113 784.561 11.39C784.561 9.86867 784.347 8.76733 783.917 8.086C783.497 7.39533 782.858 7.05 781.999 7.05C781.141 7.05 780.497 7.39533 780.067 8.086C779.647 8.76733 779.437 9.86867 779.437 11.39C779.437 12.9113 779.647 14.0173 780.067 14.708Z" fill="white"/>
<path d="M634.041 10.508C633.323 10.508 632.73 10.7413 632.263 11.208C631.797 11.6747 631.563 12.272 631.563 13C631.563 13.868 631.783 14.5353 632.221 15.002C632.66 15.4687 633.267 15.702 634.041 15.702C634.835 15.702 635.451 15.4687 635.889 15.002C636.328 14.5353 636.547 13.868 636.547 13C636.547 12.2347 636.319 11.628 635.861 11.18C635.413 10.732 634.807 10.508 634.041 10.508ZM634.041 16.64C632.912 16.64 632.025 16.2993 631.381 15.618C630.747 14.9367 630.429 13.9567 630.429 12.678C630.429 10.7833 630.887 9.25733 631.801 8.1C632.725 6.94267 633.995 6.28933 635.609 6.14L635.805 7.078C633.659 7.32067 632.296 8.52933 631.717 10.704L631.731 10.718C632.375 9.99933 633.225 9.64 634.279 9.64C635.315 9.64 636.137 9.94333 636.743 10.55C637.359 11.1473 637.667 11.964 637.667 13C637.667 14.1107 637.336 14.9973 636.673 15.66C636.011 16.3133 635.133 16.64 634.041 16.64Z" fill="white"/>
<path d="M606.251 6.28H612.831V7.218C611.217 9.86867 609.868 12.9627 608.785 16.5H607.609C608.683 13.1213 610.064 10.0367 611.753 7.246V7.218H606.251V6.28Z" fill="white"/>
<path d="M505.686 16.5V7.624H505.658L502.9 10.172L502.466 9.262L505.686 6.28H506.806V16.5H505.686ZM514.368 16.5V7.624H514.34L511.582 10.172L511.148 9.262L514.368 6.28H515.488V16.5H514.368Z" fill="white"/>
<path d="M481.186 16.5V7.624H481.158L478.4 10.172L477.966 9.262L481.186 6.28H482.306V16.5H481.186ZM489.63 7.092C488.706 7.092 487.782 7.414 486.858 8.058L486.522 7.162C487.474 6.48067 488.557 6.14 489.77 6.14C490.769 6.14 491.543 6.39667 492.094 6.91C492.645 7.414 492.92 8.12333 492.92 9.038C492.92 9.95267 492.589 10.8767 491.926 11.81C491.263 12.7433 490.022 13.9847 488.202 15.534V15.562H492.962V16.5H486.662V15.562C488.65 13.9193 489.999 12.6407 490.708 11.726C491.417 10.802 491.772 9.934 491.772 9.122C491.772 8.45933 491.59 7.95533 491.226 7.61C490.862 7.26467 490.33 7.092 489.63 7.092Z" fill="white"/>
<path d="M431.686 16.5V7.624H431.658L428.9 10.172L428.466 9.262L431.686 6.28H432.806V16.5H431.686ZM441.11 13.21V7.918H441.082L437.358 13.182V13.21H441.11ZM442.216 13.21H443.952V14.12H442.216V16.5H441.11V14.12H436.21V13.21L441.11 6.28H442.216V13.21Z" fill="white"/>
<path d="M407.686 16.5V7.624H407.658L404.9 10.172L404.466 9.262L407.686 6.28H408.806V16.5H407.686ZM419.168 7.218H414.744L414.548 10.522H414.576C415.127 10.1953 415.747 10.032 416.438 10.032C417.437 10.032 418.211 10.3027 418.762 10.844C419.313 11.3853 419.588 12.1507 419.588 13.14C419.588 14.2787 419.266 15.1467 418.622 15.744C417.987 16.3413 417.054 16.64 415.822 16.64C414.87 16.64 413.993 16.416 413.19 15.968L413.47 15.044C414.254 15.4827 415.038 15.702 415.822 15.702C417.586 15.702 418.468 14.848 418.468 13.14C418.468 12.4213 418.277 11.8753 417.894 11.502C417.511 11.1193 416.961 10.928 416.242 10.928C415.505 10.928 414.893 11.1427 414.408 11.572H413.428L413.736 6.28H419.168V7.218Z" fill="white"/>
<path d="M308.686 16.5V7.624H308.658L305.9 10.172L305.466 9.262L308.686 6.28H309.806V16.5H308.686ZM317.298 6.14C318.437 6.14 319.323 6.48067 319.958 7.162C320.593 7.834 320.91 8.79067 320.91 10.032C320.91 11.9827 320.439 13.532 319.496 14.68C318.563 15.828 317.261 16.4813 315.59 16.64L315.394 15.702C316.533 15.5807 317.447 15.2213 318.138 14.624C318.829 14.0173 319.323 13.1633 319.622 12.062L319.608 12.048C318.955 12.776 318.105 13.14 317.06 13.14C316.024 13.14 315.198 12.8367 314.582 12.23C313.975 11.614 313.672 10.774 313.672 9.71C313.672 8.62733 314.003 7.764 314.666 7.12C315.329 6.46667 316.206 6.14 317.298 6.14ZM317.298 7.078C316.505 7.078 315.889 7.30667 315.45 7.764C315.011 8.22133 314.792 8.87 314.792 9.71C314.792 10.5127 315.016 11.1427 315.464 11.6C315.921 12.048 316.533 12.272 317.298 12.272C318.017 12.272 318.609 12.034 319.076 11.558C319.543 11.082 319.776 10.466 319.776 9.71C319.776 8.87933 319.557 8.23533 319.118 7.778C318.679 7.31133 318.073 7.078 317.298 7.078Z" fill="white"/>
<path d="M283.448 7.092C282.524 7.092 281.6 7.414 280.676 8.058L280.34 7.162C281.292 6.48067 282.375 6.14 283.588 6.14C284.587 6.14 285.362 6.39667 285.912 6.91C286.463 7.414 286.738 8.12333 286.738 9.038C286.738 9.95267 286.407 10.8767 285.744 11.81C285.082 12.7433 283.84 13.9847 282.02 15.534V15.562H286.78V16.5H280.48V15.562C282.468 13.9193 283.817 12.6407 284.526 11.726C285.236 10.802 285.59 9.934 285.59 9.122C285.59 8.45933 285.408 7.95533 285.044 7.61C284.68 7.26467 284.148 7.092 283.448 7.092ZM289.624 7.358C290.268 6.546 291.173 6.14 292.34 6.14C293.507 6.14 294.412 6.546 295.056 7.358C295.7 8.17 296.022 9.514 296.022 11.39C296.022 13.266 295.7 14.61 295.056 15.422C294.412 16.234 293.507 16.64 292.34 16.64C291.173 16.64 290.268 16.234 289.624 15.422C288.98 14.61 288.658 13.266 288.658 11.39C288.658 9.514 288.98 8.17 289.624 7.358ZM290.408 14.708C290.837 15.3893 291.481 15.73 292.34 15.73C293.199 15.73 293.838 15.3893 294.258 14.708C294.687 14.0173 294.902 12.9113 294.902 11.39C294.902 9.86867 294.687 8.76733 294.258 8.086C293.838 7.39533 293.199 7.05 292.34 7.05C291.481 7.05 290.837 7.39533 290.408 8.086C289.988 8.76733 289.778 9.86867 289.778 11.39C289.778 12.9113 289.988 14.0173 290.408 14.708Z" fill="white"/>
<path d="M184.448 7.092C183.524 7.092 182.6 7.414 181.676 8.058L181.34 7.162C182.292 6.48067 183.375 6.14 184.588 6.14C185.587 6.14 186.362 6.39667 186.912 6.91C187.463 7.414 187.738 8.12333 187.738 9.038C187.738 9.95267 187.407 10.8767 186.744 11.81C186.082 12.7433 184.84 13.9847 183.02 15.534V15.562H187.78V16.5H181.48V15.562C183.468 13.9193 184.817 12.6407 185.526 11.726C186.236 10.802 186.59 9.934 186.59 9.122C186.59 8.45933 186.408 7.95533 186.044 7.61C185.68 7.26467 185.148 7.092 184.448 7.092ZM194.11 13.21V7.918H194.082L190.358 13.182V13.21H194.11ZM195.216 13.21H196.952V14.12H195.216V16.5H194.11V14.12H189.21V13.21L194.11 6.28H195.216V13.21Z" fill="white"/>
<path d="M158.948 7.092C158.024 7.092 157.1 7.414 156.176 8.058L155.84 7.162C156.792 6.48067 157.875 6.14 159.088 6.14C160.087 6.14 160.862 6.39667 161.412 6.91C161.963 7.414 162.238 8.12333 162.238 9.038C162.238 9.95267 161.907 10.8767 161.244 11.81C160.582 12.7433 159.34 13.9847 157.52 15.534V15.562H162.28V16.5H155.98V15.562C157.968 13.9193 159.317 12.6407 160.026 11.726C160.736 10.802 161.09 9.934 161.09 9.122C161.09 8.45933 160.908 7.95533 160.544 7.61C160.18 7.26467 159.648 7.092 158.948 7.092ZM170.668 7.218H166.244L166.048 10.522H166.076C166.627 10.1953 167.247 10.032 167.938 10.032C168.937 10.032 169.711 10.3027 170.262 10.844C170.813 11.3853 171.088 12.1507 171.088 13.14C171.088 14.2787 170.766 15.1467 170.122 15.744C169.487 16.3413 168.554 16.64 167.322 16.64C166.37 16.64 165.493 16.416 164.69 15.968L164.97 15.044C165.754 15.4827 166.538 15.702 167.322 15.702C169.086 15.702 169.968 14.848 169.968 13.14C169.968 12.4213 169.777 11.8753 169.394 11.502C169.011 11.1193 168.461 10.928 167.742 10.928C167.005 10.928 166.393 11.1427 165.908 11.572H164.928L165.236 6.28H170.668V7.218Z" fill="white"/>
<path d="M8.50836 6.28H14.6404V7.218L11.2944 10.508V10.536H11.7144C12.7037 10.536 13.4597 10.774 13.9824 11.25C14.5144 11.726 14.7804 12.4167 14.7804 13.322C14.7804 14.386 14.463 15.2073 13.8284 15.786C13.203 16.3553 12.307 16.64 11.1404 16.64C10.1324 16.64 9.24569 16.3973 8.48036 15.912L8.81636 15.002C9.60036 15.4687 10.375 15.702 11.1404 15.702C11.9617 15.702 12.587 15.5013 13.0164 15.1C13.4457 14.6987 13.6604 14.106 13.6604 13.322C13.6604 12.6593 13.4364 12.1693 12.9884 11.852C12.5497 11.5253 11.845 11.362 10.8744 11.362H9.85236V10.494L13.1984 7.246V7.218H8.50836V6.28ZM20.368 16.5V7.624H20.34L17.582 10.172L17.148 9.262L20.368 6.28H21.488V16.5H20.368Z" fill="white"/>
<path d="M690.039 36.704C689.619 36.1813 689.041 35.92 688.303 35.92C687.566 35.92 686.983 36.1813 686.553 36.704C686.133 37.2173 685.923 37.936 685.923 38.86C685.923 39.784 686.133 40.5073 686.553 41.03C686.983 41.5433 687.566 41.8 688.303 41.8C689.041 41.8 689.619 41.5433 690.039 41.03C690.469 40.5073 690.683 39.784 690.683 38.86C690.683 37.936 690.469 37.2173 690.039 36.704ZM690.795 41.618C690.17 42.2993 689.339 42.64 688.303 42.64C687.267 42.64 686.437 42.2993 685.811 41.618C685.186 40.9367 684.873 40.0173 684.873 38.86C684.873 37.7027 685.186 36.7833 685.811 36.102C686.437 35.4207 687.267 35.08 688.303 35.08C689.339 35.08 690.17 35.4207 690.795 36.102C691.421 36.7833 691.733 37.7027 691.733 38.86C691.733 40.0173 691.421 40.9367 690.795 41.618ZM696.75 42.64C695.695 42.64 694.911 42.2153 694.398 41.366H694.37V45.58H693.348V35.22H694.328L694.342 36.452H694.37C694.883 35.5373 695.677 35.08 696.75 35.08C697.665 35.08 698.383 35.4067 698.906 36.06C699.429 36.704 699.69 37.6373 699.69 38.86C699.69 40.0547 699.419 40.9833 698.878 41.646C698.346 42.3087 697.637 42.64 696.75 42.64ZM698.682 38.86C698.682 37.908 698.491 37.18 698.108 36.676C697.735 36.172 697.207 35.92 696.526 35.92C695.882 35.92 695.359 36.172 694.958 36.676C694.566 37.18 694.37 37.8753 694.37 38.762V38.958C694.37 39.8633 694.571 40.5633 694.972 41.058C695.373 41.5527 695.891 41.8 696.526 41.8C697.189 41.8 697.711 41.548 698.094 41.044C698.486 40.5307 698.682 39.8027 698.682 38.86ZM704.702 35.934C703.881 35.934 703.241 36.1907 702.784 36.704C702.327 37.208 702.098 37.9267 702.098 38.86C702.098 39.756 702.336 40.47 702.812 41.002C703.297 41.534 703.927 41.8 704.702 41.8C705.355 41.8 705.981 41.6413 706.578 41.324L706.858 42.15C706.158 42.4767 705.425 42.64 704.66 42.64C703.577 42.64 702.7 42.2993 702.028 41.618C701.356 40.9273 701.02 40.008 701.02 38.86C701.02 37.6747 701.342 36.7507 701.986 36.088C702.63 35.416 703.521 35.08 704.66 35.08C705.425 35.08 706.158 35.2433 706.858 35.57L706.578 36.424C705.953 36.0973 705.327 35.934 704.702 35.934ZM713.487 36.704C713.067 36.1813 712.488 35.92 711.751 35.92C711.013 35.92 710.43 36.1813 710.001 36.704C709.581 37.2173 709.371 37.936 709.371 38.86C709.371 39.784 709.581 40.5073 710.001 41.03C710.43 41.5433 711.013 41.8 711.751 41.8C712.488 41.8 713.067 41.5433 713.487 41.03C713.916 40.5073 714.131 39.784 714.131 38.86C714.131 37.936 713.916 37.2173 713.487 36.704ZM714.243 41.618C713.617 42.2993 712.787 42.64 711.751 42.64C710.715 42.64 709.884 42.2993 709.259 41.618C708.633 40.9367 708.321 40.0173 708.321 38.86C708.321 37.7027 708.633 36.7833 709.259 36.102C709.884 35.4207 710.715 35.08 711.751 35.08C712.787 35.08 713.617 35.4207 714.243 36.102C714.868 36.7833 715.181 37.7027 715.181 38.86C715.181 40.0173 714.868 40.9367 714.243 41.618ZM718.094 36.69C717.711 37.194 717.52 37.9173 717.52 38.86C717.52 39.8027 717.716 40.5307 718.108 41.044C718.5 41.548 719.027 41.8 719.69 41.8C720.325 41.8 720.838 41.5527 721.23 41.058C721.631 40.5633 721.832 39.8633 721.832 38.958V38.762C721.832 37.8753 721.631 37.18 721.23 36.676C720.838 36.172 720.325 35.92 719.69 35.92C719.009 35.92 718.477 36.1767 718.094 36.69ZM716.512 38.86C716.512 37.6373 716.773 36.704 717.296 36.06C717.819 35.4067 718.537 35.08 719.452 35.08C720.507 35.08 721.291 35.5233 721.804 36.41H721.832V32H722.854V42.5H721.874L721.86 41.268H721.832C721.319 42.1827 720.525 42.64 719.452 42.64C718.556 42.64 717.842 42.3133 717.31 41.66C716.778 40.9973 716.512 40.064 716.512 38.86ZM725.586 39.252C725.604 40.0453 725.847 40.6707 726.314 41.128C726.78 41.5853 727.387 41.814 728.134 41.814C728.852 41.814 729.566 41.6273 730.276 41.254L730.556 42.052C729.772 42.444 728.932 42.64 728.036 42.64C726.99 42.64 726.146 42.2993 725.502 41.618C724.858 40.9367 724.536 40.0173 724.536 38.86C724.536 37.684 724.834 36.76 725.432 36.088C726.038 35.416 726.86 35.08 727.896 35.08C728.904 35.08 729.683 35.402 730.234 36.046C730.794 36.6807 731.074 37.5953 731.074 38.79C731.074 38.9113 731.064 39.0653 731.046 39.252H725.586ZM725.586 38.44H730.066C730.056 37.628 729.86 37.0027 729.478 36.564C729.095 36.1253 728.568 35.906 727.896 35.906C727.196 35.906 726.64 36.13 726.23 36.578C725.828 37.0167 725.614 37.6373 725.586 38.44Z" fill="white"/>
<path d="M554.468 35.22H555.462L555.49 36.774H555.518C556.339 35.6447 557.497 35.08 558.99 35.08V35.962C557.954 35.962 557.114 36.2467 556.47 36.816C555.835 37.3853 555.518 38.1227 555.518 39.028V42.5H554.468V35.22ZM561.7 36.69C561.318 37.194 561.126 37.9173 561.126 38.86C561.126 39.8027 561.322 40.5307 561.714 41.044C562.106 41.548 562.634 41.8 563.296 41.8C563.931 41.8 564.444 41.5527 564.836 41.058C565.238 40.5633 565.438 39.8633 565.438 38.958V38.762C565.438 37.8753 565.238 37.18 564.836 36.676C564.444 36.172 563.931 35.92 563.296 35.92C562.615 35.92 562.083 36.1767 561.7 36.69ZM560.118 38.86C560.118 37.6373 560.38 36.704 560.902 36.06C561.425 35.4067 562.144 35.08 563.058 35.08C564.113 35.08 564.897 35.5233 565.41 36.41H565.438V32H566.46V42.5H565.48L565.466 41.268H565.438C564.925 42.1827 564.132 42.64 563.058 42.64C562.162 42.64 561.448 42.3133 560.916 41.66C560.384 40.9973 560.118 40.064 560.118 38.86Z" fill="white"/>
<path d="M438.883 35.5H440.801V34.562C440.801 32.9473 441.576 32.14 443.125 32.14C443.555 32.14 443.993 32.21 444.441 32.35L444.217 33.19C443.872 33.05 443.541 32.98 443.223 32.98C442.719 32.98 442.36 33.1013 442.145 33.344C441.94 33.5773 441.837 33.9833 441.837 34.562V35.5H444.343V36.34H441.837V42.5H440.801V36.34H438.883V35.5ZM446.978 35.22V39.742C446.978 40.4887 447.1 41.0113 447.342 41.31C447.594 41.6087 448.01 41.758 448.588 41.758C449.13 41.758 449.62 41.4967 450.058 40.974C450.506 40.4513 450.73 39.8307 450.73 39.112V35.22H451.752V42.5H450.772L450.758 41.198H450.73C450.45 41.646 450.091 42.0007 449.652 42.262C449.223 42.514 448.756 42.64 448.252 42.64C447.468 42.64 446.89 42.4207 446.516 41.982C446.152 41.534 445.97 40.82 445.97 39.84V35.22H446.978ZM453.847 35.22H454.827L454.841 36.522H454.869C455.149 36.074 455.504 35.724 455.933 35.472C456.372 35.2107 456.843 35.08 457.347 35.08C458.168 35.08 458.775 35.3367 459.167 35.85C459.568 36.354 459.769 37.1567 459.769 38.258V42.5H458.761V38.342C458.761 37.4367 458.63 36.8113 458.369 36.466C458.108 36.1113 457.66 35.934 457.025 35.934C456.484 35.934 455.989 36.2047 455.541 36.746C455.093 37.278 454.869 37.8987 454.869 38.608V42.5H453.847V35.22ZM464.996 35.934C464.175 35.934 463.535 36.1907 463.078 36.704C462.621 37.208 462.392 37.9267 462.392 38.86C462.392 39.756 462.63 40.47 463.106 41.002C463.591 41.534 464.221 41.8 464.996 41.8C465.649 41.8 466.275 41.6413 466.872 41.324L467.152 42.15C466.452 42.4767 465.719 42.64 464.954 42.64C463.871 42.64 462.994 42.2993 462.322 41.618C461.65 40.9273 461.314 40.008 461.314 38.86C461.314 37.6747 461.636 36.7507 462.28 36.088C462.924 35.416 463.815 35.08 464.954 35.08C465.719 35.08 466.452 35.2433 467.152 35.57L466.872 36.424C466.247 36.0973 465.621 35.934 464.996 35.934ZM471.415 32.84V35.5H474.173V36.34H471.415V40.162C471.415 40.8153 471.503 41.254 471.681 41.478C471.858 41.6927 472.189 41.8 472.675 41.8C473.104 41.8 473.515 41.7207 473.907 41.562L474.075 42.388C473.599 42.556 473.085 42.64 472.535 42.64C471.741 42.64 471.181 42.472 470.855 42.136C470.528 41.7907 470.365 41.198 470.365 40.358V36.34H468.755V35.5H470.365V32.84H471.415ZM476.395 32.28H482.527V33.218L479.181 36.508V36.536H479.601C480.59 36.536 481.346 36.774 481.869 37.25C482.401 37.726 482.667 38.4167 482.667 39.322C482.667 40.386 482.35 41.2073 481.715 41.786C481.09 42.3553 480.194 42.64 479.027 42.64C478.019 42.64 477.132 42.3973 476.367 41.912L476.703 41.002C477.487 41.4687 478.262 41.702 479.027 41.702C479.848 41.702 480.474 41.5013 480.903 41.1C481.332 40.6987 481.547 40.106 481.547 39.322C481.547 38.6593 481.323 38.1693 480.875 37.852C480.436 37.5253 479.732 37.362 478.761 37.362H477.739V36.494L481.085 33.246V33.218H476.395V32.28Z" fill="white"/>
<path d="M352.201 35.22H353.195L353.223 36.774H353.251C354.073 35.6447 355.23 35.08 356.723 35.08V35.962C355.687 35.962 354.847 36.2467 354.203 36.816C353.569 37.3853 353.251 38.1227 353.251 39.028V42.5H352.201V35.22ZM360.68 35.08C361.566 35.08 362.388 35.2667 363.144 35.64L362.92 36.466C362.201 36.102 361.454 35.92 360.68 35.92C360.138 35.92 359.723 36.018 359.434 36.214C359.154 36.41 359.014 36.6853 359.014 37.04C359.014 37.376 359.135 37.642 359.378 37.838C359.63 38.034 360.082 38.188 360.736 38.3C361.688 38.4587 362.369 38.72 362.78 39.084C363.2 39.448 363.41 39.9473 363.41 40.582C363.41 41.2167 363.167 41.7207 362.682 42.094C362.206 42.458 361.538 42.64 360.68 42.64C359.681 42.64 358.785 42.4067 357.992 41.94L358.23 41.114C358.995 41.5713 359.812 41.8 360.68 41.8C361.221 41.8 361.636 41.6973 361.926 41.492C362.215 41.2773 362.36 40.974 362.36 40.582C362.36 40.2087 362.229 39.9193 361.968 39.714C361.716 39.5087 361.268 39.35 360.624 39.238C359.7 39.0793 359.028 38.8273 358.608 38.482C358.197 38.1273 357.992 37.6467 357.992 37.04C357.992 36.4427 358.225 35.9667 358.692 35.612C359.168 35.2573 359.83 35.08 360.68 35.08ZM368.535 42.5V33.624H368.507L365.749 36.172L365.315 35.262L368.535 32.28H369.655V42.5H368.535Z" fill="white"/>
<path d="M227.701 35.22H228.695L228.723 36.774H228.751C229.573 35.6447 230.73 35.08 232.223 35.08V35.962C231.187 35.962 230.347 36.2467 229.703 36.816C229.069 37.3853 228.751 38.1227 228.751 39.028V42.5H227.701V35.22ZM236.18 35.08C237.066 35.08 237.888 35.2667 238.644 35.64L238.42 36.466C237.701 36.102 236.954 35.92 236.18 35.92C235.638 35.92 235.223 36.018 234.934 36.214C234.654 36.41 234.514 36.6853 234.514 37.04C234.514 37.376 234.635 37.642 234.878 37.838C235.13 38.034 235.582 38.188 236.236 38.3C237.188 38.4587 237.869 38.72 238.28 39.084C238.7 39.448 238.91 39.9473 238.91 40.582C238.91 41.2167 238.667 41.7207 238.182 42.094C237.706 42.458 237.038 42.64 236.18 42.64C235.181 42.64 234.285 42.4067 233.492 41.94L233.73 41.114C234.495 41.5713 235.312 41.8 236.18 41.8C236.721 41.8 237.136 41.6973 237.426 41.492C237.715 41.2773 237.86 40.974 237.86 40.582C237.86 40.2087 237.729 39.9193 237.468 39.714C237.216 39.5087 236.768 39.35 236.124 39.238C235.2 39.0793 234.528 38.8273 234.108 38.482C233.697 38.1273 233.492 37.6467 233.492 37.04C233.492 36.4427 233.725 35.9667 234.192 35.612C234.668 35.2573 235.33 35.08 236.18 35.08ZM243.797 33.092C242.873 33.092 241.949 33.414 241.025 34.058L240.689 33.162C241.641 32.4807 242.724 32.14 243.937 32.14C244.936 32.14 245.71 32.3967 246.261 32.91C246.812 33.414 247.087 34.1233 247.087 35.038C247.087 35.9527 246.756 36.8767 246.093 37.81C245.43 38.7433 244.189 39.9847 242.369 41.534V41.562H247.129V42.5H240.829V41.562C242.817 39.9193 244.166 38.6407 244.875 37.726C245.584 36.802 245.939 35.934 245.939 35.122C245.939 34.4593 245.757 33.9553 245.393 33.61C245.029 33.2647 244.497 33.092 243.797 33.092Z" fill="white"/>
<path d="M67.3833 35.5H69.3013V34.562C69.3013 32.9473 70.0759 32.14 71.6253 32.14C72.0546 32.14 72.4933 32.21 72.9413 32.35L72.7173 33.19C72.3719 33.05 72.0406 32.98 71.7233 32.98C71.2193 32.98 70.8599 33.1013 70.6453 33.344C70.4399 33.5773 70.3373 33.9833 70.3373 34.562V35.5H72.8433V36.34H70.3373V42.5H69.3013V36.34H67.3833V35.5ZM75.4782 35.22V39.742C75.4782 40.4887 75.5996 41.0113 75.8422 41.31C76.0942 41.6087 76.5096 41.758 77.0882 41.758C77.6296 41.758 78.1196 41.4967 78.5582 40.974C79.0062 40.4513 79.2302 39.8307 79.2302 39.112V35.22H80.2522V42.5H79.2722L79.2582 41.198H79.2302C78.9502 41.646 78.5909 42.0007 78.1522 42.262C77.7229 42.514 77.2562 42.64 76.7522 42.64C75.9682 42.64 75.3896 42.4207 75.0162 41.982C74.6522 41.534 74.4702 40.82 74.4702 39.84V35.22H75.4782ZM82.3469 35.22H83.3269L83.3409 36.522H83.3689C83.6489 36.074 84.0035 35.724 84.4329 35.472C84.8715 35.2107 85.3429 35.08 85.8469 35.08C86.6682 35.08 87.2749 35.3367 87.6669 35.85C88.0682 36.354 88.2689 37.1567 88.2689 38.258V42.5H87.2609V38.342C87.2609 37.4367 87.1302 36.8113 86.8689 36.466C86.6075 36.1113 86.1595 35.934 85.5249 35.934C84.9835 35.934 84.4889 36.2047 84.0409 36.746C83.5929 37.278 83.3689 37.8987 83.3689 38.608V42.5H82.3469V35.22ZM93.4959 35.934C92.6746 35.934 92.0352 36.1907 91.5779 36.704C91.1206 37.208 90.8919 37.9267 90.8919 38.86C90.8919 39.756 91.1299 40.47 91.6059 41.002C92.0912 41.534 92.7212 41.8 93.4959 41.8C94.1492 41.8 94.7746 41.6413 95.3719 41.324L95.6519 42.15C94.9519 42.4767 94.2192 42.64 93.4539 42.64C92.3712 42.64 91.4939 42.2993 90.8219 41.618C90.1499 40.9273 89.8139 40.008 89.8139 38.86C89.8139 37.6747 90.1359 36.7507 90.7799 36.088C91.4239 35.416 92.3152 35.08 93.4539 35.08C94.2192 35.08 94.9519 35.2433 95.6519 35.57L95.3719 36.424C94.7466 36.0973 94.1212 35.934 93.4959 35.934ZM99.9147 32.84V35.5H102.673V36.34H99.9147V40.162C99.9147 40.8153 100.003 41.254 100.181 41.478C100.358 41.6927 100.689 41.8 101.175 41.8C101.604 41.8 102.015 41.7207 102.407 41.562L102.575 42.388C102.099 42.556 101.585 42.64 101.035 42.64C100.241 42.64 99.6814 42.472 99.3547 42.136C99.028 41.7907 98.8647 41.198 98.8647 40.358V36.34H97.2547V35.5H98.8647V32.84H99.9147ZM104.797 32.28H111.377V33.218C109.762 35.8687 108.414 38.9627 107.331 42.5H106.155C107.228 39.1213 108.61 36.0367 110.299 33.246V33.218H104.797V32.28Z" fill="white"/>
<path d="M705.251 56.28H711.831V57.218C710.217 59.8687 708.868 62.9627 707.785 66.5H706.609C707.683 63.1213 709.064 60.0367 710.753 57.246V57.218H705.251V56.28Z" fill="white"/>
<path d="M684.933 71.05C684.289 71.05 683.79 71.1947 683.435 71.484C683.08 71.764 682.903 72.156 682.903 72.66C682.903 73.5653 683.566 74.2187 684.891 74.62C686.048 74.956 686.87 75.376 687.355 75.88C687.85 76.384 688.097 77.0373 688.097 77.84C688.097 78.7453 687.812 79.4407 687.243 79.926C686.683 80.402 685.88 80.64 684.835 80.64C683.678 80.64 682.651 80.346 681.755 79.758L682.091 78.834C682.903 79.4127 683.818 79.702 684.835 79.702C685.526 79.702 686.053 79.5433 686.417 79.226C686.79 78.9087 686.977 78.4467 686.977 77.84C686.977 77.28 686.818 76.8367 686.501 76.51C686.193 76.174 685.647 75.8847 684.863 75.642C682.819 75.0353 681.797 74.0413 681.797 72.66C681.797 71.8947 682.072 71.2833 682.623 70.826C683.183 70.3687 683.953 70.14 684.933 70.14C685.988 70.14 686.968 70.3593 687.873 70.798L687.593 71.666C686.781 71.2553 685.894 71.05 684.933 71.05ZM690.116 70.28L693.07 75.236H693.098L696.066 70.28H697.34L693.658 76.174V80.5H692.482V76.174L688.8 70.28H690.116ZM701.011 71.05C700.367 71.05 699.868 71.1947 699.513 71.484C699.158 71.764 698.981 72.156 698.981 72.66C698.981 73.5653 699.644 74.2187 700.969 74.62C702.126 74.956 702.948 75.376 703.433 75.88C703.928 76.384 704.175 77.0373 704.175 77.84C704.175 78.7453 703.89 79.4407 703.321 79.926C702.761 80.402 701.958 80.64 700.913 80.64C699.756 80.64 698.729 80.346 697.833 79.758L698.169 78.834C698.981 79.4127 699.896 79.702 700.913 79.702C701.604 79.702 702.131 79.5433 702.495 79.226C702.868 78.9087 703.055 78.4467 703.055 77.84C703.055 77.28 702.896 76.8367 702.579 76.51C702.271 76.174 701.725 75.8847 700.941 75.642C698.897 75.0353 697.875 74.0413 697.875 72.66C697.875 71.8947 698.15 71.2833 698.701 70.826C699.261 70.3687 700.031 70.14 701.011 70.14C702.066 70.14 703.046 70.3593 703.951 70.798L703.671 71.666C702.859 71.2553 701.972 71.05 701.011 71.05ZM705.585 70.28H713.047V71.232H709.883V80.5H708.763V71.232H705.585V70.28ZM716.202 71.218V74.55H720.78V75.446H716.202V79.562H721.06V80.5H715.082V70.28H721.06V71.218H716.202ZM723.285 80.5V70.28H724.419L728.059 76.44H728.087L731.727 70.28H732.903V80.5H731.783V72.156H731.755L728.591 77.462H727.555L724.391 72.156H724.363V80.5H723.285Z" fill="white"/>
<path d="M562.827 57.218H558.403L558.207 60.522H558.235C558.786 60.1953 559.407 60.032 560.097 60.032C561.096 60.032 561.871 60.3027 562.421 60.844C562.972 61.3853 563.247 62.1507 563.247 63.14C563.247 64.2787 562.925 65.1467 562.281 65.744C561.647 66.3413 560.713 66.64 559.481 66.64C558.529 66.64 557.652 66.416 556.849 65.968L557.129 65.044C557.913 65.4827 558.697 65.702 559.481 65.702C561.245 65.702 562.127 64.848 562.127 63.14C562.127 62.4213 561.936 61.8753 561.553 61.502C561.171 61.1193 560.62 60.928 559.901 60.928C559.164 60.928 558.553 61.1427 558.067 61.572H557.087L557.395 56.28H562.827V57.218Z" fill="white"/>
<path d="M557.283 71.358C557.927 70.546 558.833 70.14 559.999 70.14C561.166 70.14 562.071 70.546 562.715 71.358C563.359 72.17 563.681 73.514 563.681 75.39C563.681 77.266 563.359 78.61 562.715 79.422C562.071 80.234 561.166 80.64 559.999 80.64C558.833 80.64 557.927 80.234 557.283 79.422C556.639 78.61 556.317 77.266 556.317 75.39C556.317 73.514 556.639 72.17 557.283 71.358ZM558.067 78.708C558.497 79.3893 559.141 79.73 559.999 79.73C560.858 79.73 561.497 79.3893 561.917 78.708C562.347 78.0173 562.561 76.9113 562.561 75.39C562.561 73.8687 562.347 72.7673 561.917 72.086C561.497 71.3953 560.858 71.05 559.999 71.05C559.141 71.05 558.497 71.3953 558.067 72.086C557.647 72.7673 557.437 73.8687 557.437 75.39C557.437 76.9113 557.647 78.0173 558.067 78.708Z" fill="white"/>
<path d="M457.849 56.28H463.981V57.218L460.635 60.508V60.536H461.055C462.045 60.536 462.801 60.774 463.323 61.25C463.855 61.726 464.121 62.4167 464.121 63.322C464.121 64.386 463.804 65.2073 463.169 65.786C462.544 66.3553 461.648 66.64 460.481 66.64C459.473 66.64 458.587 66.3973 457.821 65.912L458.157 65.002C458.941 65.4687 459.716 65.702 460.481 65.702C461.303 65.702 461.928 65.5013 462.357 65.1C462.787 64.6987 463.001 64.106 463.001 63.322C463.001 62.6593 462.777 62.1693 462.329 61.852C461.891 61.5253 461.186 61.362 460.215 61.362H459.193V60.494L462.539 57.246V57.218H457.849V56.28Z" fill="white"/>
<path d="M446.584 70.364C447.554 70.2147 448.502 70.14 449.426 70.14C450.695 70.14 451.656 70.4107 452.31 70.952C452.972 71.484 453.304 72.2493 453.304 73.248C453.304 74.3307 452.972 75.152 452.31 75.712C451.647 76.272 450.686 76.552 449.426 76.552C448.81 76.552 448.236 76.524 447.704 76.468V80.5H446.584V70.364ZM447.704 75.544C448.245 75.6187 448.791 75.656 449.342 75.656C450.266 75.656 450.97 75.4553 451.456 75.054C451.95 74.6527 452.198 74.0787 452.198 73.332C452.198 72.5853 451.955 72.0207 451.47 71.638C450.994 71.246 450.284 71.05 449.342 71.05C448.828 71.05 448.282 71.0967 447.704 71.19V75.544ZM454.978 80.5V70.35C455.79 70.21 456.663 70.14 457.596 70.14C458.903 70.14 459.887 70.3827 460.55 70.868C461.222 71.344 461.558 72.0253 461.558 72.912C461.558 73.6213 461.367 74.214 460.984 74.69C460.601 75.166 460.06 75.4927 459.36 75.67V75.698C459.78 75.922 460.195 76.5287 460.606 77.518L461.838 80.5H460.676L459.472 77.546C459.192 76.874 458.926 76.4587 458.674 76.3C458.431 76.132 457.946 76.048 457.218 76.048H456.098V80.5H454.978ZM456.098 75.152H457.218C458.329 75.152 459.145 74.9747 459.668 74.62C460.191 74.256 460.452 73.7193 460.452 73.01C460.452 71.7033 459.467 71.05 457.498 71.05C457.003 71.05 456.537 71.092 456.098 71.176V75.152ZM464.08 80.5V70.28H465.298V80.5H464.08ZM468.593 70.28L471.757 79.394H471.785L474.949 70.28H476.111L472.387 80.5H471.127L467.389 70.28H468.593Z" fill="white"/>
<path d="M364.827 57.218H360.403L360.207 60.522H360.235C360.786 60.1953 361.407 60.032 362.097 60.032C363.096 60.032 363.871 60.3027 364.421 60.844C364.972 61.3853 365.247 62.1507 365.247 63.14C365.247 64.2787 364.925 65.1467 364.281 65.744C363.647 66.3413 362.713 66.64 361.481 66.64C360.529 66.64 359.652 66.416 358.849 65.968L359.129 65.044C359.913 65.4827 360.697 65.702 361.481 65.702C363.245 65.702 364.127 64.848 364.127 63.14C364.127 62.4213 363.936 61.8753 363.553 61.502C363.171 61.1193 362.62 60.928 361.901 60.928C361.164 60.928 360.553 61.1427 360.067 61.572H359.087L359.395 56.28H364.827V57.218Z" fill="white"/>
<path d="M344.216 73.22L346.484 79.87H346.512L348.766 73.22H349.886L347.198 80.5H345.756L343.068 73.22H344.216ZM353.931 73.08C354.948 73.08 355.676 73.29 356.115 73.71C356.553 74.13 356.773 74.8207 356.773 75.782V78.54C356.773 79.2027 356.843 79.856 356.983 80.5H356.003C355.928 80.136 355.881 79.7067 355.863 79.212H355.835C355.583 79.66 355.219 80.01 354.743 80.262C354.267 80.514 353.73 80.64 353.133 80.64C352.461 80.64 351.924 80.4533 351.523 80.08C351.121 79.6973 350.921 79.184 350.921 78.54C350.921 77.728 351.275 77.084 351.985 76.608C352.694 76.1227 353.702 75.88 355.009 75.88H355.751V75.81C355.751 75.1007 355.615 74.6107 355.345 74.34C355.083 74.06 354.612 73.92 353.931 73.92C353.053 73.92 352.237 74.1347 351.481 74.564L351.299 73.738C352.101 73.2993 352.979 73.08 353.931 73.08ZM351.929 78.498C351.929 78.918 352.059 79.2493 352.321 79.492C352.582 79.7253 352.932 79.842 353.371 79.842C354.015 79.842 354.57 79.6133 355.037 79.156C355.513 78.6893 355.751 78.12 355.751 77.448V76.664H355.009C354.029 76.664 353.268 76.832 352.727 77.168C352.195 77.4947 351.929 77.938 351.929 78.498ZM360.103 74.69C359.72 75.194 359.529 75.9173 359.529 76.86C359.529 77.8027 359.725 78.5307 360.117 79.044C360.509 79.548 361.036 79.8 361.699 79.8C362.333 79.8 362.847 79.5527 363.239 79.058C363.64 78.5633 363.841 77.8633 363.841 76.958V76.762C363.841 75.8753 363.64 75.18 363.239 74.676C362.847 74.172 362.333 73.92 361.699 73.92C361.017 73.92 360.485 74.1767 360.103 74.69ZM358.521 76.86C358.521 75.6373 358.782 74.704 359.305 74.06C359.827 73.4067 360.546 73.08 361.461 73.08C362.515 73.08 363.299 73.5233 363.813 74.41H363.841V70H364.863V80.5H363.883L363.869 79.268H363.841C363.327 80.1827 362.534 80.64 361.461 80.64C360.565 80.64 359.851 80.3133 359.319 79.66C358.787 78.9973 358.521 78.064 358.521 76.86ZM368.196 74.69C367.814 75.194 367.622 75.9173 367.622 76.86C367.622 77.8027 367.818 78.5307 368.21 79.044C368.602 79.548 369.13 79.8 369.792 79.8C370.427 79.8 370.94 79.5527 371.332 79.058C371.734 78.5633 371.934 77.8633 371.934 76.958V76.762C371.934 75.8753 371.734 75.18 371.332 74.676C370.94 74.172 370.427 73.92 369.792 73.92C369.111 73.92 368.579 74.1767 368.196 74.69ZM366.614 76.86C366.614 75.6373 366.876 74.704 367.398 74.06C367.921 73.4067 368.64 73.08 369.554 73.08C370.609 73.08 371.393 73.5233 371.906 74.41H371.934V70H372.956V80.5H371.976L371.962 79.268H371.934C371.421 80.1827 370.628 80.64 369.554 80.64C368.658 80.64 367.944 80.3133 367.412 79.66C366.88 78.9973 366.614 78.064 366.614 76.86ZM375.128 73.22H376.122L376.15 74.774H376.178C376.999 73.6447 378.157 73.08 379.65 73.08V73.962C378.614 73.962 377.774 74.2467 377.13 74.816C376.495 75.3853 376.178 76.1227 376.178 77.028V80.5H375.128V73.22Z" fill="white"/>
<path d="M240.827 57.218H236.403L236.207 60.522H236.235C236.786 60.1953 237.407 60.032 238.097 60.032C239.096 60.032 239.871 60.3027 240.421 60.844C240.972 61.3853 241.247 62.1507 241.247 63.14C241.247 64.2787 240.925 65.1467 240.281 65.744C239.647 66.3413 238.713 66.64 237.481 66.64C236.529 66.64 235.652 66.416 234.849 65.968L235.129 65.044C235.913 65.4827 236.697 65.702 237.481 65.702C239.245 65.702 240.127 64.848 240.127 63.14C240.127 62.4213 239.936 61.8753 239.553 61.502C239.171 61.1193 238.62 60.928 237.901 60.928C237.164 60.928 236.553 61.1427 236.067 61.572H235.087L235.395 56.28H240.827V57.218Z" fill="white"/>
<path d="M228.777 73.08C229.795 73.08 230.523 73.29 230.961 73.71C231.4 74.13 231.619 74.8207 231.619 75.782V78.54C231.619 79.2027 231.689 79.856 231.829 80.5H230.849C230.775 80.136 230.728 79.7067 230.709 79.212H230.681C230.429 79.66 230.065 80.01 229.589 80.262C229.113 80.514 228.577 80.64 227.979 80.64C227.307 80.64 226.771 80.4533 226.369 80.08C225.968 79.6973 225.767 79.184 225.767 78.54C225.767 77.728 226.122 77.084 226.831 76.608C227.541 76.1227 228.549 75.88 229.855 75.88H230.597V75.81C230.597 75.1007 230.462 74.6107 230.191 74.34C229.93 74.06 229.459 73.92 228.777 73.92C227.9 73.92 227.083 74.1347 226.327 74.564L226.145 73.738C226.948 73.2993 227.825 73.08 228.777 73.08ZM226.775 78.498C226.775 78.918 226.906 79.2493 227.167 79.492C227.429 79.7253 227.779 79.842 228.217 79.842C228.861 79.842 229.417 79.6133 229.883 79.156C230.359 78.6893 230.597 78.12 230.597 77.448V76.664H229.855C228.875 76.664 228.115 76.832 227.573 77.168C227.041 77.4947 226.775 77.938 226.775 78.498ZM236.059 73.08C236.945 73.08 237.767 73.2667 238.523 73.64L238.299 74.466C237.58 74.102 236.833 73.92 236.059 73.92C235.517 73.92 235.102 74.018 234.813 74.214C234.533 74.41 234.393 74.6853 234.393 75.04C234.393 75.376 234.514 75.642 234.757 75.838C235.009 76.034 235.461 76.188 236.115 76.3C237.067 76.4587 237.748 76.72 238.159 77.084C238.579 77.448 238.789 77.9473 238.789 78.582C238.789 79.2167 238.546 79.7207 238.061 80.094C237.585 80.458 236.917 80.64 236.059 80.64C235.06 80.64 234.164 80.4067 233.371 79.94L233.609 79.114C234.374 79.5713 235.191 79.8 236.059 79.8C236.6 79.8 237.015 79.6973 237.305 79.492C237.594 79.2773 237.739 78.974 237.739 78.582C237.739 78.2087 237.608 77.9193 237.347 77.714C237.095 77.5087 236.647 77.35 236.003 77.238C235.079 77.0793 234.407 76.8273 233.987 76.482C233.576 76.1273 233.371 75.6467 233.371 75.04C233.371 74.4427 233.604 73.9667 234.071 73.612C234.547 73.2573 235.209 73.08 236.059 73.08ZM241.156 71.54V70H242.234V71.54H241.156ZM241.156 80.5V73.22H242.234V80.5H241.156ZM246.051 74.69C245.668 75.194 245.477 75.9173 245.477 76.86C245.477 77.8027 245.673 78.5307 246.065 79.044C246.457 79.548 246.984 79.8 247.647 79.8C248.282 79.8 248.795 79.5527 249.187 79.058C249.588 78.5633 249.789 77.8633 249.789 76.958V76.762C249.789 75.8753 249.588 75.18 249.187 74.676C248.795 74.172 248.282 73.92 247.647 73.92C246.966 73.92 246.434 74.1767 246.051 74.69ZM244.469 76.86C244.469 75.6373 244.73 74.704 245.253 74.06C245.776 73.4067 246.494 73.08 247.409 73.08C248.464 73.08 249.248 73.5233 249.761 74.41H249.789V70H250.811V80.5H249.831L249.817 79.268H249.789C249.276 80.1827 248.482 80.64 247.409 80.64C246.513 80.64 245.799 80.3133 245.267 79.66C244.735 78.9973 244.469 78.064 244.469 76.86Z" fill="white"/>
<path d="M87.2512 56.28H93.8312V57.218C92.2165 59.8687 90.8678 62.9627 89.7852 66.5H88.6092C89.6825 63.1213 91.0638 60.0367 92.7532 57.246V57.218H87.2512V56.28Z" fill="white"/>
<path d="M51.0336 71.05C50.3896 71.05 49.8903 71.1947 49.5356 71.484C49.181 71.764 49.0036 72.156 49.0036 72.66C49.0036 73.5653 49.6663 74.2187 50.9916 74.62C52.149 74.956 52.9703 75.376 53.4556 75.88C53.9503 76.384 54.1976 77.0373 54.1976 77.84C54.1976 78.7453 53.913 79.4407 53.3436 79.926C52.7836 80.402 51.981 80.64 50.9356 80.64C49.7783 80.64 48.7516 80.346 47.8556 79.758L48.1916 78.834C49.0036 79.4127 49.9183 79.702 50.9356 79.702C51.6263 79.702 52.1536 79.5433 52.5176 79.226C52.891 78.9087 53.0776 78.4467 53.0776 77.84C53.0776 77.28 52.919 76.8367 52.6016 76.51C52.2936 76.174 51.7476 75.8847 50.9636 75.642C48.9196 75.0353 47.8976 74.0413 47.8976 72.66C47.8976 71.8947 48.173 71.2833 48.7236 70.826C49.2836 70.3687 50.0536 70.14 51.0336 70.14C52.0883 70.14 53.0683 70.3593 53.9736 70.798L53.6936 71.666C52.8816 71.2553 51.995 71.05 51.0336 71.05ZM62.069 71.218H57.351V74.69H61.789V75.586H57.351V80.5H56.231V70.28H62.069V71.218ZM65.3491 71.218V74.55H69.9271V75.446H65.3491V79.562H70.2071V80.5H64.2291V70.28H70.2071V71.218H65.3491ZM72.4322 80.5V70.28H73.5942L78.9142 78.68H78.9422V70.28H80.0342V80.5H78.8862L73.5662 72.1H73.5382V80.5H72.4322ZM86.9627 71.078C85.7307 71.078 84.746 71.47 84.0087 72.254C83.2807 73.0287 82.9167 74.074 82.9167 75.39C82.9167 76.706 83.29 77.756 84.0367 78.54C84.7927 79.3147 85.768 79.702 86.9627 79.702C87.9333 79.702 88.834 79.436 89.6647 78.904L90.0427 79.744C89.128 80.3413 88.0687 80.64 86.8647 80.64C85.3247 80.64 84.0927 80.164 83.1687 79.212C82.2447 78.26 81.7827 76.986 81.7827 75.39C81.7827 73.7753 82.24 72.4967 83.1547 71.554C84.0693 70.6113 85.306 70.14 86.8647 70.14C88.0687 70.14 89.128 70.4387 90.0427 71.036L89.6647 71.876C88.8433 71.344 87.9427 71.078 86.9627 71.078ZM93.267 71.218V74.55H97.845V75.446H93.267V79.562H98.125V80.5H92.147V70.28H98.125V71.218H93.267ZM100.49 80.5V78.54H101.792V80.5H100.49ZM103.274 70.28L106.438 79.394H106.466L109.63 70.28H110.792L107.068 80.5H105.808L102.07 70.28H103.274ZM112.477 80.5V70.28H113.611L117.251 76.44H117.279L120.919 70.28H122.095V80.5H120.975V72.156H120.947L117.783 77.462H116.747L113.583 72.156H113.555V80.5H112.477ZM123.767 80.5L127.505 70.28H128.765L132.489 80.5H131.299L130.263 77.518H125.951L124.929 80.5H123.767ZM126.259 76.622H129.955L128.121 71.288H128.093L126.259 76.622Z" fill="white"/>
</g>
<defs>
<clipPath id="clip0_2_846">
<rect width="800" height="84" fill="white"/>
</clipPath>
</defs>
</svg>
