<svg width="800" height="84" viewBox="0 0 800 84" fill="none" xmlns="http://www.w3.org/2000/svg">
<g clip-path="url(#clip0_2_584)">
<path d="M4 21.5H795" stroke="white" stroke-linecap="round"/>
<path d="M4 21.5V52.5" stroke="white" stroke-linecap="round"/>
<path d="M4 52.5H795" stroke="white" stroke-linecap="round"/>
<path d="M795 21.5V52.5" stroke="white" stroke-linecap="round"/>
<path d="M770 21.5V24.5" stroke="white" stroke-linecap="round"/>
<path d="M770 52.5V49.5" stroke="white" stroke-linecap="round"/>
<path d="M746 21.5V24.5" stroke="white" stroke-linecap="round"/>
<path d="M746 52.5V49.5" stroke="white" stroke-linecap="round"/>
<path d="M721 21.5V24.5" stroke="white" stroke-linecap="round"/>
<path d="M721 52.5V49.5" stroke="white" stroke-linecap="round"/>
<path d="M696 21.5V24.5" stroke="white" stroke-linecap="round"/>
<path d="M696 52.5V49.5" stroke="white" stroke-linecap="round"/>
<path d="M671 21.5V24.5" stroke="white" stroke-linecap="round"/>
<path d="M671 52.5V49.5" stroke="white" stroke-linecap="round"/>
<path d="M647 21.5V24.5" stroke="white" stroke-linecap="round"/>
<path d="M647 52.5V49.5" stroke="white" stroke-linecap="round"/>
<path d="M622 21.5V52.5" stroke="white" stroke-linecap="round"/>
<path d="M597 21.5V24.5" stroke="white" stroke-linecap="round"/>
<path d="M597 52.5V49.5" stroke="white" stroke-linecap="round"/>
<path d="M573 21.5V24.5" stroke="white" stroke-linecap="round"/>
<path d="M573 52.5V49.5" stroke="white" stroke-linecap="round"/>
<path d="M548 21.5V24.5" stroke="white" stroke-linecap="round"/>
<path d="M548 52.5V49.5" stroke="white" stroke-linecap="round"/>
<path d="M523 21.5V24.5" stroke="white" stroke-linecap="round"/>
<path d="M523 52.5V49.5" stroke="white" stroke-linecap="round"/>
<path d="M498 21.5V52.5" stroke="white" stroke-linecap="round"/>
<path d="M474 21.5V24.5" stroke="white" stroke-linecap="round"/>
<path d="M474 52.5V49.5" stroke="white" stroke-linecap="round"/>
<path d="M449 21.5V24.5" stroke="white" stroke-linecap="round"/>
<path d="M449 52.5V49.5" stroke="white" stroke-linecap="round"/>
<path d="M424 21.5V52.5" stroke="white" stroke-linecap="round"/>
<path d="M400 21.5V24.5" stroke="white" stroke-linecap="round"/>
<path d="M400 52.5V49.5" stroke="white" stroke-linecap="round"/>
<path d="M375 21.5V24.5" stroke="white" stroke-linecap="round"/>
<path d="M375 52.5V49.5" stroke="white" stroke-linecap="round"/>
<path d="M350 21.5V24.5" stroke="white" stroke-linecap="round"/>
<path d="M350 52.5V49.5" stroke="white" stroke-linecap="round"/>
<path d="M325 21.5V24.5" stroke="white" stroke-linecap="round"/>
<path d="M325 52.5V49.5" stroke="white" stroke-linecap="round"/>
<path d="M301 21.5V52.5" stroke="white" stroke-linecap="round"/>
<path d="M276 21.5V24.5" stroke="white" stroke-linecap="round"/>
<path d="M276 52.5V49.5" stroke="white" stroke-linecap="round"/>
<path d="M251 21.5V24.5" stroke="white" stroke-linecap="round"/>
<path d="M251 52.5V49.5" stroke="white" stroke-linecap="round"/>
<path d="M226 21.5V24.5" stroke="white" stroke-linecap="round"/>
<path d="M226 52.5V49.5" stroke="white" stroke-linecap="round"/>
<path d="M202 21.5V24.5" stroke="white" stroke-linecap="round"/>
<path d="M202 52.5V49.5" stroke="white" stroke-linecap="round"/>
<path d="M177 21.5V24.5" stroke="white" stroke-linecap="round"/>
<path d="M177 52.5V49.5" stroke="white" stroke-linecap="round"/>
<path d="M152 21.5V24.5" stroke="white" stroke-linecap="round"/>
<path d="M152 52.5V49.5" stroke="white" stroke-linecap="round"/>
<path d="M128 21.5V24.5" stroke="white" stroke-linecap="round"/>
<path d="M128 52.5V49.5" stroke="white" stroke-linecap="round"/>
<path d="M103 21.5V24.5" stroke="white" stroke-linecap="round"/>
<path d="M103 52.5V49.5" stroke="white" stroke-linecap="round"/>
<path d="M78 21.5V24.5" stroke="white" stroke-linecap="round"/>
<path d="M78 52.5V49.5" stroke="white" stroke-linecap="round"/>
<path d="M53 21.5V24.5" stroke="white" stroke-linecap="round"/>
<path d="M53 52.5V49.5" stroke="white" stroke-linecap="round"/>
<path d="M29 21.5V24.5" stroke="white" stroke-linecap="round"/>
<path d="M29 52.5V49.5" stroke="white" stroke-linecap="round"/>
<path d="M795 21.5H622V52.5H795V21.5Z" fill="black" fill-opacity="0.1"/>
<path d="M622 21.5H498V52.5H622V21.5Z" fill="#FF0000" fill-opacity="0.1"/>
<path d="M498 21.5H424V52.5H498V21.5Z" fill="black" fill-opacity="0.1"/>
<path d="M425 21.5H301V52.5H425V21.5Z" fill="#00FFD5" fill-opacity="0.1"/>
<path d="M301 21.5H4V52.5H301V21.5Z" fill="black" fill-opacity="0.1"/>
<path d="M779.283 7.358C779.927 6.546 780.833 6.14 781.999 6.14C783.166 6.14 784.071 6.546 784.715 7.358C785.359 8.17 785.681 9.514 785.681 11.39C785.681 13.266 785.359 14.61 784.715 15.422C784.071 16.234 783.166 16.64 781.999 16.64C780.833 16.64 779.927 16.234 779.283 15.422C778.639 14.61 778.317 13.266 778.317 11.39C778.317 9.514 778.639 8.17 779.283 7.358ZM780.067 14.708C780.497 15.3893 781.141 15.73 781.999 15.73C782.858 15.73 783.497 15.3893 783.917 14.708C784.347 14.0173 784.561 12.9113 784.561 11.39C784.561 9.86867 784.347 8.76733 783.917 8.086C783.497 7.39533 782.858 7.05 781.999 7.05C781.141 7.05 780.497 7.39533 780.067 8.086C779.647 8.76733 779.437 9.86867 779.437 11.39C779.437 12.9113 779.647 14.0173 780.067 14.708Z" fill="white"/>
<path d="M634.041 10.508C633.323 10.508 632.73 10.7413 632.263 11.208C631.797 11.6747 631.563 12.272 631.563 13C631.563 13.868 631.783 14.5353 632.221 15.002C632.66 15.4687 633.267 15.702 634.041 15.702C634.835 15.702 635.451 15.4687 635.889 15.002C636.328 14.5353 636.547 13.868 636.547 13C636.547 12.2347 636.319 11.628 635.861 11.18C635.413 10.732 634.807 10.508 634.041 10.508ZM634.041 16.64C632.912 16.64 632.025 16.2993 631.381 15.618C630.747 14.9367 630.429 13.9567 630.429 12.678C630.429 10.7833 630.887 9.25733 631.801 8.1C632.725 6.94267 633.995 6.28933 635.609 6.14L635.805 7.078C633.659 7.32067 632.296 8.52933 631.717 10.704L631.731 10.718C632.375 9.99933 633.225 9.64 634.279 9.64C635.315 9.64 636.137 9.94333 636.743 10.55C637.359 11.1473 637.667 11.964 637.667 13C637.667 14.1107 637.336 14.9973 636.673 15.66C636.011 16.3133 635.133 16.64 634.041 16.64Z" fill="white"/>
<path d="M606.251 6.28H612.831V7.218C611.217 9.86867 609.868 12.9627 608.785 16.5H607.609C608.683 13.1213 610.064 10.0367 611.753 7.246V7.218H606.251V6.28Z" fill="white"/>
<path d="M505.686 16.5V7.624H505.658L502.9 10.172L502.466 9.262L505.686 6.28H506.806V16.5H505.686ZM514.368 16.5V7.624H514.34L511.582 10.172L511.148 9.262L514.368 6.28H515.488V16.5H514.368Z" fill="white"/>
<path d="M481.186 16.5V7.624H481.158L478.4 10.172L477.966 9.262L481.186 6.28H482.306V16.5H481.186ZM489.63 7.092C488.706 7.092 487.782 7.414 486.858 8.058L486.522 7.162C487.474 6.48067 488.557 6.14 489.77 6.14C490.769 6.14 491.543 6.39667 492.094 6.91C492.645 7.414 492.92 8.12333 492.92 9.038C492.92 9.95267 492.589 10.8767 491.926 11.81C491.263 12.7433 490.022 13.9847 488.202 15.534V15.562H492.962V16.5H486.662V15.562C488.65 13.9193 489.999 12.6407 490.708 11.726C491.417 10.802 491.772 9.934 491.772 9.122C491.772 8.45933 491.59 7.95533 491.226 7.61C490.862 7.26467 490.33 7.092 489.63 7.092Z" fill="white"/>
<path d="M431.686 16.5V7.624H431.658L428.9 10.172L428.466 9.262L431.686 6.28H432.806V16.5H431.686ZM441.11 13.21V7.918H441.082L437.358 13.182V13.21H441.11ZM442.216 13.21H443.952V14.12H442.216V16.5H441.11V14.12H436.21V13.21L441.11 6.28H442.216V13.21Z" fill="white"/>
<path d="M407.686 16.5V7.624H407.658L404.9 10.172L404.466 9.262L407.686 6.28H408.806V16.5H407.686ZM419.168 7.218H414.744L414.548 10.522H414.576C415.127 10.1953 415.747 10.032 416.438 10.032C417.437 10.032 418.211 10.3027 418.762 10.844C419.313 11.3853 419.588 12.1507 419.588 13.14C419.588 14.2787 419.266 15.1467 418.622 15.744C417.987 16.3413 417.054 16.64 415.822 16.64C414.87 16.64 413.993 16.416 413.19 15.968L413.47 15.044C414.254 15.4827 415.038 15.702 415.822 15.702C417.586 15.702 418.468 14.848 418.468 13.14C418.468 12.4213 418.277 11.8753 417.894 11.502C417.511 11.1193 416.961 10.928 416.242 10.928C415.505 10.928 414.893 11.1427 414.408 11.572H413.428L413.736 6.28H419.168V7.218Z" fill="white"/>
<path d="M308.686 16.5V7.624H308.658L305.9 10.172L305.466 9.262L308.686 6.28H309.806V16.5H308.686ZM317.298 6.14C318.437 6.14 319.323 6.48067 319.958 7.162C320.593 7.834 320.91 8.79067 320.91 10.032C320.91 11.9827 320.439 13.532 319.496 14.68C318.563 15.828 317.261 16.4813 315.59 16.64L315.394 15.702C316.533 15.5807 317.447 15.2213 318.138 14.624C318.829 14.0173 319.323 13.1633 319.622 12.062L319.608 12.048C318.955 12.776 318.105 13.14 317.06 13.14C316.024 13.14 315.198 12.8367 314.582 12.23C313.975 11.614 313.672 10.774 313.672 9.71C313.672 8.62733 314.003 7.764 314.666 7.12C315.329 6.46667 316.206 6.14 317.298 6.14ZM317.298 7.078C316.505 7.078 315.889 7.30667 315.45 7.764C315.011 8.22133 314.792 8.87 314.792 9.71C314.792 10.5127 315.016 11.1427 315.464 11.6C315.921 12.048 316.533 12.272 317.298 12.272C318.017 12.272 318.609 12.034 319.076 11.558C319.543 11.082 319.776 10.466 319.776 9.71C319.776 8.87933 319.557 8.23533 319.118 7.778C318.679 7.31133 318.073 7.078 317.298 7.078Z" fill="white"/>
<path d="M283.448 7.092C282.524 7.092 281.6 7.414 280.676 8.058L280.34 7.162C281.292 6.48067 282.375 6.14 283.588 6.14C284.587 6.14 285.362 6.39667 285.912 6.91C286.463 7.414 286.738 8.12333 286.738 9.038C286.738 9.95267 286.407 10.8767 285.744 11.81C285.082 12.7433 283.84 13.9847 282.02 15.534V15.562H286.78V16.5H280.48V15.562C282.468 13.9193 283.817 12.6407 284.526 11.726C285.236 10.802 285.59 9.934 285.59 9.122C285.59 8.45933 285.408 7.95533 285.044 7.61C284.68 7.26467 284.148 7.092 283.448 7.092ZM289.624 7.358C290.268 6.546 291.173 6.14 292.34 6.14C293.507 6.14 294.412 6.546 295.056 7.358C295.7 8.17 296.022 9.514 296.022 11.39C296.022 13.266 295.7 14.61 295.056 15.422C294.412 16.234 293.507 16.64 292.34 16.64C291.173 16.64 290.268 16.234 289.624 15.422C288.98 14.61 288.658 13.266 288.658 11.39C288.658 9.514 288.98 8.17 289.624 7.358ZM290.408 14.708C290.837 15.3893 291.481 15.73 292.34 15.73C293.199 15.73 293.838 15.3893 294.258 14.708C294.687 14.0173 294.902 12.9113 294.902 11.39C294.902 9.86867 294.687 8.76733 294.258 8.086C293.838 7.39533 293.199 7.05 292.34 7.05C291.481 7.05 290.837 7.39533 290.408 8.086C289.988 8.76733 289.778 9.86867 289.778 11.39C289.778 12.9113 289.988 14.0173 290.408 14.708Z" fill="white"/>
<path d="M8.50836 6.28H14.6404V7.218L11.2944 10.508V10.536H11.7144C12.7037 10.536 13.4597 10.774 13.9824 11.25C14.5144 11.726 14.7804 12.4167 14.7804 13.322C14.7804 14.386 14.463 15.2073 13.8284 15.786C13.203 16.3553 12.307 16.64 11.1404 16.64C10.1324 16.64 9.24569 16.3973 8.48036 15.912L8.81636 15.002C9.60036 15.4687 10.375 15.702 11.1404 15.702C11.9617 15.702 12.587 15.5013 13.0164 15.1C13.4457 14.6987 13.6604 14.106 13.6604 13.322C13.6604 12.6593 13.4364 12.1693 12.9884 11.852C12.5497 11.5253 11.845 11.362 10.8744 11.362H9.85236V10.494L13.1984 7.246V7.218H8.50836V6.28ZM20.368 16.5V7.624H20.34L17.582 10.172L17.148 9.262L20.368 6.28H21.488V16.5H20.368Z" fill="white"/>
<path d="M690.039 36.704C689.619 36.1813 689.041 35.92 688.303 35.92C687.566 35.92 686.983 36.1813 686.553 36.704C686.133 37.2173 685.923 37.936 685.923 38.86C685.923 39.784 686.133 40.5073 686.553 41.03C686.983 41.5433 687.566 41.8 688.303 41.8C689.041 41.8 689.619 41.5433 690.039 41.03C690.469 40.5073 690.683 39.784 690.683 38.86C690.683 37.936 690.469 37.2173 690.039 36.704ZM690.795 41.618C690.17 42.2993 689.339 42.64 688.303 42.64C687.267 42.64 686.437 42.2993 685.811 41.618C685.186 40.9367 684.873 40.0173 684.873 38.86C684.873 37.7027 685.186 36.7833 685.811 36.102C686.437 35.4207 687.267 35.08 688.303 35.08C689.339 35.08 690.17 35.4207 690.795 36.102C691.421 36.7833 691.733 37.7027 691.733 38.86C691.733 40.0173 691.421 40.9367 690.795 41.618ZM696.75 42.64C695.695 42.64 694.911 42.2153 694.398 41.366H694.37V45.58H693.348V35.22H694.328L694.342 36.452H694.37C694.883 35.5373 695.677 35.08 696.75 35.08C697.665 35.08 698.383 35.4067 698.906 36.06C699.429 36.704 699.69 37.6373 699.69 38.86C699.69 40.0547 699.419 40.9833 698.878 41.646C698.346 42.3087 697.637 42.64 696.75 42.64ZM698.682 38.86C698.682 37.908 698.491 37.18 698.108 36.676C697.735 36.172 697.207 35.92 696.526 35.92C695.882 35.92 695.359 36.172 694.958 36.676C694.566 37.18 694.37 37.8753 694.37 38.762V38.958C694.37 39.8633 694.571 40.5633 694.972 41.058C695.373 41.5527 695.891 41.8 696.526 41.8C697.189 41.8 697.711 41.548 698.094 41.044C698.486 40.5307 698.682 39.8027 698.682 38.86ZM704.702 35.934C703.881 35.934 703.241 36.1907 702.784 36.704C702.327 37.208 702.098 37.9267 702.098 38.86C702.098 39.756 702.336 40.47 702.812 41.002C703.297 41.534 703.927 41.8 704.702 41.8C705.355 41.8 705.981 41.6413 706.578 41.324L706.858 42.15C706.158 42.4767 705.425 42.64 704.66 42.64C703.577 42.64 702.7 42.2993 702.028 41.618C701.356 40.9273 701.02 40.008 701.02 38.86C701.02 37.6747 701.342 36.7507 701.986 36.088C702.63 35.416 703.521 35.08 704.66 35.08C705.425 35.08 706.158 35.2433 706.858 35.57L706.578 36.424C705.953 36.0973 705.327 35.934 704.702 35.934ZM713.487 36.704C713.067 36.1813 712.488 35.92 711.751 35.92C711.013 35.92 710.43 36.1813 710.001 36.704C709.581 37.2173 709.371 37.936 709.371 38.86C709.371 39.784 709.581 40.5073 710.001 41.03C710.43 41.5433 711.013 41.8 711.751 41.8C712.488 41.8 713.067 41.5433 713.487 41.03C713.916 40.5073 714.131 39.784 714.131 38.86C714.131 37.936 713.916 37.2173 713.487 36.704ZM714.243 41.618C713.617 42.2993 712.787 42.64 711.751 42.64C710.715 42.64 709.884 42.2993 709.259 41.618C708.633 40.9367 708.321 40.0173 708.321 38.86C708.321 37.7027 708.633 36.7833 709.259 36.102C709.884 35.4207 710.715 35.08 711.751 35.08C712.787 35.08 713.617 35.4207 714.243 36.102C714.868 36.7833 715.181 37.7027 715.181 38.86C715.181 40.0173 714.868 40.9367 714.243 41.618ZM718.094 36.69C717.711 37.194 717.52 37.9173 717.52 38.86C717.52 39.8027 717.716 40.5307 718.108 41.044C718.5 41.548 719.027 41.8 719.69 41.8C720.325 41.8 720.838 41.5527 721.23 41.058C721.631 40.5633 721.832 39.8633 721.832 38.958V38.762C721.832 37.8753 721.631 37.18 721.23 36.676C720.838 36.172 720.325 35.92 719.69 35.92C719.009 35.92 718.477 36.1767 718.094 36.69ZM716.512 38.86C716.512 37.6373 716.773 36.704 717.296 36.06C717.819 35.4067 718.537 35.08 719.452 35.08C720.507 35.08 721.291 35.5233 721.804 36.41H721.832V32H722.854V42.5H721.874L721.86 41.268H721.832C721.319 42.1827 720.525 42.64 719.452 42.64C718.556 42.64 717.842 42.3133 717.31 41.66C716.778 40.9973 716.512 40.064 716.512 38.86ZM725.586 39.252C725.604 40.0453 725.847 40.6707 726.314 41.128C726.78 41.5853 727.387 41.814 728.134 41.814C728.852 41.814 729.566 41.6273 730.276 41.254L730.556 42.052C729.772 42.444 728.932 42.64 728.036 42.64C726.99 42.64 726.146 42.2993 725.502 41.618C724.858 40.9367 724.536 40.0173 724.536 38.86C724.536 37.684 724.834 36.76 725.432 36.088C726.038 35.416 726.86 35.08 727.896 35.08C728.904 35.08 729.683 35.402 730.234 36.046C730.794 36.6807 731.074 37.5953 731.074 38.79C731.074 38.9113 731.064 39.0653 731.046 39.252H725.586ZM725.586 38.44H730.066C730.056 37.628 729.86 37.0027 729.478 36.564C729.095 36.1253 728.568 35.906 727.896 35.906C727.196 35.906 726.64 36.13 726.23 36.578C725.828 37.0167 725.614 37.6373 725.586 38.44Z" fill="white"/>
<path d="M554.468 35.22H555.462L555.49 36.774H555.518C556.339 35.6447 557.497 35.08 558.99 35.08V35.962C557.954 35.962 557.114 36.2467 556.47 36.816C555.835 37.3853 555.518 38.1227 555.518 39.028V42.5H554.468V35.22ZM561.7 36.69C561.318 37.194 561.126 37.9173 561.126 38.86C561.126 39.8027 561.322 40.5307 561.714 41.044C562.106 41.548 562.634 41.8 563.296 41.8C563.931 41.8 564.444 41.5527 564.836 41.058C565.238 40.5633 565.438 39.8633 565.438 38.958V38.762C565.438 37.8753 565.238 37.18 564.836 36.676C564.444 36.172 563.931 35.92 563.296 35.92C562.615 35.92 562.083 36.1767 561.7 36.69ZM560.118 38.86C560.118 37.6373 560.38 36.704 560.902 36.06C561.425 35.4067 562.144 35.08 563.058 35.08C564.113 35.08 564.897 35.5233 565.41 36.41H565.438V32H566.46V42.5H565.48L565.466 41.268H565.438C564.925 42.1827 564.132 42.64 563.058 42.64C562.162 42.64 561.448 42.3133 560.916 41.66C560.384 40.9973 560.118 40.064 560.118 38.86Z" fill="white"/>
<path d="M438.883 35.5H440.801V34.562C440.801 32.9473 441.576 32.14 443.125 32.14C443.555 32.14 443.993 32.21 444.441 32.35L444.217 33.19C443.872 33.05 443.541 32.98 443.223 32.98C442.719 32.98 442.36 33.1013 442.145 33.344C441.94 33.5773 441.837 33.9833 441.837 34.562V35.5H444.343V36.34H441.837V42.5H440.801V36.34H438.883V35.5ZM446.978 35.22V39.742C446.978 40.4887 447.1 41.0113 447.342 41.31C447.594 41.6087 448.01 41.758 448.588 41.758C449.13 41.758 449.62 41.4967 450.058 40.974C450.506 40.4513 450.73 39.8307 450.73 39.112V35.22H451.752V42.5H450.772L450.758 41.198H450.73C450.45 41.646 450.091 42.0007 449.652 42.262C449.223 42.514 448.756 42.64 448.252 42.64C447.468 42.64 446.89 42.4207 446.516 41.982C446.152 41.534 445.97 40.82 445.97 39.84V35.22H446.978ZM453.847 35.22H454.827L454.841 36.522H454.869C455.149 36.074 455.504 35.724 455.933 35.472C456.372 35.2107 456.843 35.08 457.347 35.08C458.168 35.08 458.775 35.3367 459.167 35.85C459.568 36.354 459.769 37.1567 459.769 38.258V42.5H458.761V38.342C458.761 37.4367 458.63 36.8113 458.369 36.466C458.108 36.1113 457.66 35.934 457.025 35.934C456.484 35.934 455.989 36.2047 455.541 36.746C455.093 37.278 454.869 37.8987 454.869 38.608V42.5H453.847V35.22ZM464.996 35.934C464.175 35.934 463.535 36.1907 463.078 36.704C462.621 37.208 462.392 37.9267 462.392 38.86C462.392 39.756 462.63 40.47 463.106 41.002C463.591 41.534 464.221 41.8 464.996 41.8C465.649 41.8 466.275 41.6413 466.872 41.324L467.152 42.15C466.452 42.4767 465.719 42.64 464.954 42.64C463.871 42.64 462.994 42.2993 462.322 41.618C461.65 40.9273 461.314 40.008 461.314 38.86C461.314 37.6747 461.636 36.7507 462.28 36.088C462.924 35.416 463.815 35.08 464.954 35.08C465.719 35.08 466.452 35.2433 467.152 35.57L466.872 36.424C466.247 36.0973 465.621 35.934 464.996 35.934ZM471.415 32.84V35.5H474.173V36.34H471.415V40.162C471.415 40.8153 471.503 41.254 471.681 41.478C471.858 41.6927 472.189 41.8 472.675 41.8C473.104 41.8 473.515 41.7207 473.907 41.562L474.075 42.388C473.599 42.556 473.085 42.64 472.535 42.64C471.741 42.64 471.181 42.472 470.855 42.136C470.528 41.7907 470.365 41.198 470.365 40.358V36.34H468.755V35.5H470.365V32.84H471.415ZM476.395 32.28H482.527V33.218L479.181 36.508V36.536H479.601C480.59 36.536 481.346 36.774 481.869 37.25C482.401 37.726 482.667 38.4167 482.667 39.322C482.667 40.386 482.35 41.2073 481.715 41.786C481.09 42.3553 480.194 42.64 479.027 42.64C478.019 42.64 477.132 42.3973 476.367 41.912L476.703 41.002C477.487 41.4687 478.262 41.702 479.027 41.702C479.848 41.702 480.474 41.5013 480.903 41.1C481.332 40.6987 481.547 40.106 481.547 39.322C481.547 38.6593 481.323 38.1693 480.875 37.852C480.436 37.5253 479.732 37.362 478.761 37.362H477.739V36.494L481.085 33.246V33.218H476.395V32.28Z" fill="white"/>
<path d="M352.201 35.22H353.195L353.223 36.774H353.251C354.073 35.6447 355.23 35.08 356.723 35.08V35.962C355.687 35.962 354.847 36.2467 354.203 36.816C353.569 37.3853 353.251 38.1227 353.251 39.028V42.5H352.201V35.22ZM360.68 35.08C361.566 35.08 362.388 35.2667 363.144 35.64L362.92 36.466C362.201 36.102 361.454 35.92 360.68 35.92C360.138 35.92 359.723 36.018 359.434 36.214C359.154 36.41 359.014 36.6853 359.014 37.04C359.014 37.376 359.135 37.642 359.378 37.838C359.63 38.034 360.082 38.188 360.736 38.3C361.688 38.4587 362.369 38.72 362.78 39.084C363.2 39.448 363.41 39.9473 363.41 40.582C363.41 41.2167 363.167 41.7207 362.682 42.094C362.206 42.458 361.538 42.64 360.68 42.64C359.681 42.64 358.785 42.4067 357.992 41.94L358.23 41.114C358.995 41.5713 359.812 41.8 360.68 41.8C361.221 41.8 361.636 41.6973 361.926 41.492C362.215 41.2773 362.36 40.974 362.36 40.582C362.36 40.2087 362.229 39.9193 361.968 39.714C361.716 39.5087 361.268 39.35 360.624 39.238C359.7 39.0793 359.028 38.8273 358.608 38.482C358.197 38.1273 357.992 37.6467 357.992 37.04C357.992 36.4427 358.225 35.9667 358.692 35.612C359.168 35.2573 359.83 35.08 360.68 35.08ZM368.535 42.5V33.624H368.507L365.749 36.172L365.315 35.262L368.535 32.28H369.655V42.5H368.535Z" fill="white"/>
<path d="M126.042 35.5H127.96V34.562C127.96 32.9473 128.735 32.14 130.284 32.14C130.714 32.14 131.152 32.21 131.6 32.35L131.376 33.19C131.031 33.05 130.7 32.98 130.382 32.98C129.878 32.98 129.519 33.1013 129.304 33.344C129.099 33.5773 128.996 33.9833 128.996 34.562V35.5H131.502V36.34H128.996V42.5H127.96V36.34H126.042V35.5ZM134.137 35.22V39.742C134.137 40.4887 134.259 41.0113 134.501 41.31C134.753 41.6087 135.169 41.758 135.747 41.758C136.289 41.758 136.779 41.4967 137.217 40.974C137.665 40.4513 137.889 39.8307 137.889 39.112V35.22H138.911V42.5H137.931L137.917 41.198H137.889C137.609 41.646 137.25 42.0007 136.811 42.262C136.382 42.514 135.915 42.64 135.411 42.64C134.627 42.64 134.049 42.4207 133.675 41.982C133.311 41.534 133.129 40.82 133.129 39.84V35.22H134.137ZM141.006 35.22H141.986L142 36.522H142.028C142.308 36.074 142.663 35.724 143.092 35.472C143.531 35.2107 144.002 35.08 144.506 35.08C145.327 35.08 145.934 35.3367 146.326 35.85C146.727 36.354 146.928 37.1567 146.928 38.258V42.5H145.92V38.342C145.92 37.4367 145.789 36.8113 145.528 36.466C145.267 36.1113 144.819 35.934 144.184 35.934C143.643 35.934 143.148 36.2047 142.7 36.746C142.252 37.278 142.028 37.8987 142.028 38.608V42.5H141.006V35.22ZM152.155 35.934C151.334 35.934 150.694 36.1907 150.237 36.704C149.78 37.208 149.551 37.9267 149.551 38.86C149.551 39.756 149.789 40.47 150.265 41.002C150.75 41.534 151.38 41.8 152.155 41.8C152.808 41.8 153.434 41.6413 154.031 41.324L154.311 42.15C153.611 42.4767 152.878 42.64 152.113 42.64C151.03 42.64 150.153 42.2993 149.481 41.618C148.809 40.9273 148.473 40.008 148.473 38.86C148.473 37.6747 148.795 36.7507 149.439 36.088C150.083 35.416 150.974 35.08 152.113 35.08C152.878 35.08 153.611 35.2433 154.311 35.57L154.031 36.424C153.406 36.0973 152.78 35.934 152.155 35.934ZM158.574 32.84V35.5H161.332V36.34H158.574V40.162C158.574 40.8153 158.663 41.254 158.84 41.478C159.017 41.6927 159.349 41.8 159.834 41.8C160.263 41.8 160.674 41.7207 161.066 41.562L161.234 42.388C160.758 42.556 160.245 42.64 159.694 42.64C158.901 42.64 158.341 42.472 158.014 42.136C157.687 41.7907 157.524 41.198 157.524 40.358V36.34H155.914V35.5H157.524V32.84H158.574ZM166.732 42.5V33.624H166.704L163.946 36.172L163.512 35.262L166.732 32.28H167.852V42.5H166.732ZM175.176 33.092C174.252 33.092 173.328 33.414 172.404 34.058L172.068 33.162C173.02 32.4807 174.103 32.14 175.316 32.14C176.315 32.14 177.089 32.3967 177.64 32.91C178.191 33.414 178.466 34.1233 178.466 35.038C178.466 35.9527 178.135 36.8767 177.472 37.81C176.809 38.7433 175.568 39.9847 173.748 41.534V41.562H178.508V42.5H172.208V41.562C174.196 39.9193 175.545 38.6407 176.254 37.726C176.963 36.802 177.318 35.934 177.318 35.122C177.318 34.4593 177.136 33.9553 176.772 33.61C176.408 33.2647 175.876 33.092 175.176 33.092Z" fill="white"/>
<path d="M705.251 56.28H711.831V57.218C710.217 59.8687 708.868 62.9627 707.785 66.5H706.609C707.683 63.1213 709.064 60.0367 710.753 57.246V57.218H705.251V56.28Z" fill="white"/>
<path d="M673.165 80.5V70.28H674.299L677.939 76.44H677.967L681.607 70.28H682.783V80.5H681.663V72.156H681.635L678.471 77.462H677.435L674.271 72.156H674.243V80.5H673.165ZM685.575 80.5V70.28H686.793V80.5H685.575ZM692.413 71.05C691.769 71.05 691.269 71.1947 690.915 71.484C690.56 71.764 690.383 72.156 690.383 72.66C690.383 73.5653 691.045 74.2187 692.371 74.62C693.528 74.956 694.349 75.376 694.835 75.88C695.329 76.384 695.577 77.0373 695.577 77.84C695.577 78.7453 695.292 79.4407 694.723 79.926C694.163 80.402 693.36 80.64 692.315 80.64C691.157 80.64 690.131 80.346 689.235 79.758L689.571 78.834C690.383 79.4127 691.297 79.702 692.315 79.702C693.005 79.702 693.533 79.5433 693.897 79.226C694.27 78.9087 694.457 78.4467 694.457 77.84C694.457 77.28 694.298 76.8367 693.981 76.51C693.673 76.174 693.127 75.8847 692.343 75.642C690.299 75.0353 689.277 74.0413 689.277 72.66C689.277 71.8947 689.552 71.2833 690.103 70.826C690.663 70.3687 691.433 70.14 692.413 70.14C693.467 70.14 694.447 70.3593 695.353 70.798L695.073 71.666C694.261 71.2553 693.374 71.05 692.413 71.05ZM702.023 71.078C700.791 71.078 699.807 71.47 699.069 72.254C698.341 73.0287 697.977 74.074 697.977 75.39C697.977 76.706 698.351 77.756 699.097 78.54C699.853 79.3147 700.829 79.702 702.023 79.702C702.994 79.702 703.895 79.436 704.725 78.904L705.103 79.744C704.189 80.3413 703.129 80.64 701.925 80.64C700.385 80.64 699.153 80.164 698.229 79.212C697.305 78.26 696.843 76.986 696.843 75.39C696.843 73.7753 697.301 72.4967 698.215 71.554C699.13 70.6113 700.367 70.14 701.925 70.14C703.129 70.14 704.189 70.4387 705.103 71.036L704.725 71.876C703.904 71.344 703.003 71.078 702.023 71.078ZM706.577 76.888V75.992H710.735V76.888H706.577ZM713.032 80.5V70.28H714.166L717.806 76.44H717.834L721.474 70.28H722.65V80.5H721.53V72.156H721.502L718.338 77.462H717.302L714.138 72.156H714.11V80.5H713.032ZM726.142 71.218V74.55H730.72V75.446H726.142V79.562H731V80.5H725.022V70.28H731V71.218H726.142ZM733.225 80.5V70.28H734.359L737.999 76.44H738.027L741.667 70.28H742.843V80.5H741.723V72.156H741.695L738.531 77.462H737.495L734.331 72.156H734.303V80.5H733.225Z" fill="white"/>
<path d="M562.827 57.218H558.403L558.207 60.522H558.235C558.786 60.1953 559.407 60.032 560.097 60.032C561.096 60.032 561.871 60.3027 562.421 60.844C562.972 61.3853 563.247 62.1507 563.247 63.14C563.247 64.2787 562.925 65.1467 562.281 65.744C561.647 66.3413 560.713 66.64 559.481 66.64C558.529 66.64 557.652 66.416 556.849 65.968L557.129 65.044C557.913 65.4827 558.697 65.702 559.481 65.702C561.245 65.702 562.127 64.848 562.127 63.14C562.127 62.4213 561.936 61.8753 561.553 61.502C561.171 61.1193 560.62 60.928 559.901 60.928C559.164 60.928 558.553 61.1427 558.067 61.572H557.087L557.395 56.28H562.827V57.218Z" fill="white"/>
<path d="M557.283 71.358C557.927 70.546 558.833 70.14 559.999 70.14C561.166 70.14 562.071 70.546 562.715 71.358C563.359 72.17 563.681 73.514 563.681 75.39C563.681 77.266 563.359 78.61 562.715 79.422C562.071 80.234 561.166 80.64 559.999 80.64C558.833 80.64 557.927 80.234 557.283 79.422C556.639 78.61 556.317 77.266 556.317 75.39C556.317 73.514 556.639 72.17 557.283 71.358ZM558.067 78.708C558.497 79.3893 559.141 79.73 559.999 79.73C560.858 79.73 561.497 79.3893 561.917 78.708C562.347 78.0173 562.561 76.9113 562.561 75.39C562.561 73.8687 562.347 72.7673 561.917 72.086C561.497 71.3953 560.858 71.05 559.999 71.05C559.141 71.05 558.497 71.3953 558.067 72.086C557.647 72.7673 557.437 73.8687 557.437 75.39C557.437 76.9113 557.647 78.0173 558.067 78.708Z" fill="white"/>
<path d="M457.849 56.28H463.981V57.218L460.635 60.508V60.536H461.055C462.045 60.536 462.801 60.774 463.323 61.25C463.855 61.726 464.121 62.4167 464.121 63.322C464.121 64.386 463.804 65.2073 463.169 65.786C462.544 66.3553 461.648 66.64 460.481 66.64C459.473 66.64 458.587 66.3973 457.821 65.912L458.157 65.002C458.941 65.4687 459.716 65.702 460.481 65.702C461.303 65.702 461.928 65.5013 462.357 65.1C462.787 64.6987 463.001 64.106 463.001 63.322C463.001 62.6593 462.777 62.1693 462.329 61.852C461.891 61.5253 461.186 61.362 460.215 61.362H459.193V60.494L462.539 57.246V57.218H457.849V56.28Z" fill="white"/>
<path d="M442.271 71.218H437.553V74.69H441.991V75.586H437.553V80.5H436.433V70.28H442.271V71.218ZM445.551 71.218V74.55H450.129V75.446H445.551V79.562H450.409V80.5H444.431V70.28H450.409V71.218H445.551ZM452.634 80.5V70.28H453.796L459.116 78.68H459.144V70.28H460.236V80.5H459.088L453.768 72.1H453.74V80.5H452.634ZM467.165 71.078C465.933 71.078 464.948 71.47 464.211 72.254C463.483 73.0287 463.119 74.074 463.119 75.39C463.119 76.706 463.492 77.756 464.239 78.54C464.995 79.3147 465.97 79.702 467.165 79.702C468.135 79.702 469.036 79.436 469.867 78.904L470.245 79.744C469.33 80.3413 468.271 80.64 467.067 80.64C465.527 80.64 464.295 80.164 463.371 79.212C462.447 78.26 461.985 76.986 461.985 75.39C461.985 73.7753 462.442 72.4967 463.357 71.554C464.271 70.6113 465.508 70.14 467.067 70.14C468.271 70.14 469.33 70.4387 470.245 71.036L469.867 71.876C469.045 71.344 468.145 71.078 467.165 71.078ZM473.469 71.218V74.55H478.047V75.446H473.469V79.562H478.327V80.5H472.349V70.28H478.327V71.218H473.469ZM480.692 80.5V78.54H481.994V80.5H480.692ZM484.937 80.5V70.28H486.155V80.5H484.937Z" fill="white"/>
<path d="M364.827 57.218H360.403L360.207 60.522H360.235C360.786 60.1953 361.407 60.032 362.097 60.032C363.096 60.032 363.871 60.3027 364.421 60.844C364.972 61.3853 365.247 62.1507 365.247 63.14C365.247 64.2787 364.925 65.1467 364.281 65.744C363.647 66.3413 362.713 66.64 361.481 66.64C360.529 66.64 359.652 66.416 358.849 65.968L359.129 65.044C359.913 65.4827 360.697 65.702 361.481 65.702C363.245 65.702 364.127 64.848 364.127 63.14C364.127 62.4213 363.936 61.8753 363.553 61.502C363.171 61.1193 362.62 60.928 361.901 60.928C361.164 60.928 360.553 61.1427 360.067 61.572H359.087L359.395 56.28H364.827V57.218Z" fill="white"/>
<path d="M359.283 71.358C359.927 70.546 360.833 70.14 361.999 70.14C363.166 70.14 364.071 70.546 364.715 71.358C365.359 72.17 365.681 73.514 365.681 75.39C365.681 77.266 365.359 78.61 364.715 79.422C364.071 80.234 363.166 80.64 361.999 80.64C360.833 80.64 359.927 80.234 359.283 79.422C358.639 78.61 358.317 77.266 358.317 75.39C358.317 73.514 358.639 72.17 359.283 71.358ZM360.067 78.708C360.497 79.3893 361.141 79.73 361.999 79.73C362.858 79.73 363.497 79.3893 363.917 78.708C364.347 78.0173 364.561 76.9113 364.561 75.39C364.561 73.8687 364.347 72.7673 363.917 72.086C363.497 71.3953 362.858 71.05 361.999 71.05C361.141 71.05 360.497 71.3953 360.067 72.086C359.647 72.7673 359.437 73.8687 359.437 75.39C359.437 76.9113 359.647 78.0173 360.067 78.708Z" fill="white"/>
<path d="M147.186 66.5V57.624H147.158L144.4 60.172L143.966 59.262L147.186 56.28H148.306V66.5H147.186ZM155.63 57.092C154.706 57.092 153.782 57.414 152.858 58.058L152.522 57.162C153.474 56.4807 154.557 56.14 155.77 56.14C156.769 56.14 157.543 56.3967 158.094 56.91C158.645 57.414 158.92 58.1233 158.92 59.038C158.92 59.9527 158.589 60.8767 157.926 61.81C157.263 62.7433 156.022 63.9847 154.202 65.534V65.562H158.962V66.5H152.662V65.562C154.65 63.9193 155.999 62.6407 156.708 61.726C157.417 60.802 157.772 59.934 157.772 59.122C157.772 58.4593 157.59 57.9553 157.226 57.61C156.862 57.2647 156.33 57.092 155.63 57.092Z" fill="white"/>
<path d="M149.283 71.358C149.927 70.546 150.833 70.14 151.999 70.14C153.166 70.14 154.071 70.546 154.715 71.358C155.359 72.17 155.681 73.514 155.681 75.39C155.681 77.266 155.359 78.61 154.715 79.422C154.071 80.234 153.166 80.64 151.999 80.64C150.833 80.64 149.927 80.234 149.283 79.422C148.639 78.61 148.317 77.266 148.317 75.39C148.317 73.514 148.639 72.17 149.283 71.358ZM150.067 78.708C150.497 79.3893 151.141 79.73 151.999 79.73C152.858 79.73 153.497 79.3893 153.917 78.708C154.347 78.0173 154.561 76.9113 154.561 75.39C154.561 73.8687 154.347 72.7673 153.917 72.086C153.497 71.3953 152.858 71.05 151.999 71.05C151.141 71.05 150.497 71.3953 150.067 72.086C149.647 72.7673 149.437 73.8687 149.437 75.39C149.437 76.9113 149.647 78.0173 150.067 78.708Z" fill="white"/>
</g>
<defs>
<clipPath id="clip0_2_584">
<rect width="800" height="84" fill="white"/>
</clipPath>
</defs>
</svg>
