<svg width="800" height="84" viewBox="0 0 800 84" fill="none" xmlns="http://www.w3.org/2000/svg">
<g clip-path="url(#clip0_2_3)">
<path d="M4.5 21.5H795.5" stroke="white" stroke-linecap="round"/>
<path d="M4.5 21.5V52.5" stroke="white" stroke-linecap="round"/>
<path d="M4.5 52.5H795.5" stroke="white" stroke-linecap="round"/>
<path d="M795.5 21.5V52.5" stroke="white" stroke-linecap="round"/>
<path d="M770.5 21.5V24.5" stroke="white" stroke-linecap="round"/>
<path d="M770.5 52.5V49.5" stroke="white" stroke-linecap="round"/>
<path d="M746.5 21.5V24.5" stroke="white" stroke-linecap="round"/>
<path d="M746.5 52.5V49.5" stroke="white" stroke-linecap="round"/>
<path d="M721.5 21.5V24.5" stroke="white" stroke-linecap="round"/>
<path d="M721.5 52.5V49.5" stroke="white" stroke-linecap="round"/>
<path d="M696.5 21.5V24.5" stroke="white" stroke-linecap="round"/>
<path d="M696.5 52.5V49.5" stroke="white" stroke-linecap="round"/>
<path d="M671.5 21.5V24.5" stroke="white" stroke-linecap="round"/>
<path d="M671.5 52.5V49.5" stroke="white" stroke-linecap="round"/>
<path d="M647.5 21.5V24.5" stroke="white" stroke-linecap="round"/>
<path d="M647.5 52.5V49.5" stroke="white" stroke-linecap="round"/>
<path d="M622.5 21.5V52.5" stroke="white" stroke-linecap="round"/>
<path d="M597.5 21.5V24.5" stroke="white" stroke-linecap="round"/>
<path d="M597.5 52.5V49.5" stroke="white" stroke-linecap="round"/>
<path d="M573.5 21.5V24.5" stroke="white" stroke-linecap="round"/>
<path d="M573.5 52.5V49.5" stroke="white" stroke-linecap="round"/>
<path d="M548.5 21.5V24.5" stroke="white" stroke-linecap="round"/>
<path d="M548.5 52.5V49.5" stroke="white" stroke-linecap="round"/>
<path d="M523.5 21.5V24.5" stroke="white" stroke-linecap="round"/>
<path d="M523.5 52.5V49.5" stroke="white" stroke-linecap="round"/>
<path d="M498.5 21.5V52.5" stroke="white" stroke-linecap="round"/>
<path d="M474.5 21.5V24.5" stroke="white" stroke-linecap="round"/>
<path d="M474.5 52.5V49.5" stroke="white" stroke-linecap="round"/>
<path d="M449.5 21.5V24.5" stroke="white" stroke-linecap="round"/>
<path d="M449.5 52.5V49.5" stroke="white" stroke-linecap="round"/>
<path d="M424.5 21.5V52.5" stroke="white" stroke-linecap="round"/>
<path d="M400.5 21.5V24.5" stroke="white" stroke-linecap="round"/>
<path d="M400.5 52.5V49.5" stroke="white" stroke-linecap="round"/>
<path d="M375.5 21.5V24.5" stroke="white" stroke-linecap="round"/>
<path d="M375.5 52.5V49.5" stroke="white" stroke-linecap="round"/>
<path d="M350.5 21.5V24.5" stroke="white" stroke-linecap="round"/>
<path d="M350.5 52.5V49.5" stroke="white" stroke-linecap="round"/>
<path d="M325.5 21.5V24.5" stroke="white" stroke-linecap="round"/>
<path d="M325.5 52.5V49.5" stroke="white" stroke-linecap="round"/>
<path d="M301.5 21.5V52.5" stroke="white" stroke-linecap="round"/>
<path d="M276.5 21.5V24.5" stroke="white" stroke-linecap="round"/>
<path d="M276.5 52.5V49.5" stroke="white" stroke-linecap="round"/>
<path d="M251.5 21.5V24.5" stroke="white" stroke-linecap="round"/>
<path d="M251.5 52.5V49.5" stroke="white" stroke-linecap="round"/>
<path d="M226.5 21.5V24.5" stroke="white" stroke-linecap="round"/>
<path d="M226.5 52.5V49.5" stroke="white" stroke-linecap="round"/>
<path d="M202.5 21.5V24.5" stroke="white" stroke-linecap="round"/>
<path d="M202.5 52.5V49.5" stroke="white" stroke-linecap="round"/>
<path d="M177.5 21.5V24.5" stroke="white" stroke-linecap="round"/>
<path d="M177.5 52.5V49.5" stroke="white" stroke-linecap="round"/>
<path d="M152.5 21.5V24.5" stroke="white" stroke-linecap="round"/>
<path d="M152.5 52.5V49.5" stroke="white" stroke-linecap="round"/>
<path d="M128.5 21.5V24.5" stroke="white" stroke-linecap="round"/>
<path d="M128.5 52.5V49.5" stroke="white" stroke-linecap="round"/>
<path d="M103.5 21.5V24.5" stroke="white" stroke-linecap="round"/>
<path d="M103.5 52.5V49.5" stroke="white" stroke-linecap="round"/>
<path d="M78.5 21.5V24.5" stroke="white" stroke-linecap="round"/>
<path d="M78.5 52.5V49.5" stroke="white" stroke-linecap="round"/>
<path d="M53.5 21.5V24.5" stroke="white" stroke-linecap="round"/>
<path d="M53.5 52.5V49.5" stroke="white" stroke-linecap="round"/>
<path d="M29.5 21.5V24.5" stroke="white" stroke-linecap="round"/>
<path d="M29.5 52.5V49.5" stroke="white" stroke-linecap="round"/>
<path d="M779.783 7.358C780.427 6.546 781.333 6.14 782.499 6.14C783.666 6.14 784.571 6.546 785.215 7.358C785.859 8.17 786.181 9.514 786.181 11.39C786.181 13.266 785.859 14.61 785.215 15.422C784.571 16.234 783.666 16.64 782.499 16.64C781.333 16.64 780.427 16.234 779.783 15.422C779.139 14.61 778.817 13.266 778.817 11.39C778.817 9.514 779.139 8.17 779.783 7.358ZM780.567 14.708C780.997 15.3893 781.641 15.73 782.499 15.73C783.358 15.73 783.997 15.3893 784.417 14.708C784.847 14.0173 785.061 12.9113 785.061 11.39C785.061 9.86867 784.847 8.76733 784.417 8.086C783.997 7.39533 783.358 7.05 782.499 7.05C781.641 7.05 780.997 7.39533 780.567 8.086C780.147 8.76733 779.937 9.86867 779.937 11.39C779.937 12.9113 780.147 14.0173 780.567 14.708Z" fill="white"/>
<path d="M634.541 10.508C633.823 10.508 633.23 10.7413 632.763 11.208C632.297 11.6747 632.063 12.272 632.063 13C632.063 13.868 632.283 14.5353 632.721 15.002C633.16 15.4687 633.767 15.702 634.541 15.702C635.335 15.702 635.951 15.4687 636.389 15.002C636.828 14.5353 637.047 13.868 637.047 13C637.047 12.2347 636.819 11.628 636.361 11.18C635.913 10.732 635.307 10.508 634.541 10.508ZM634.541 16.64C633.412 16.64 632.525 16.2993 631.881 15.618C631.247 14.9367 630.929 13.9567 630.929 12.678C630.929 10.7833 631.387 9.25733 632.301 8.1C633.225 6.94267 634.495 6.28933 636.109 6.14L636.305 7.078C634.159 7.32067 632.796 8.52933 632.217 10.704L632.231 10.718C632.875 9.99933 633.725 9.64 634.779 9.64C635.815 9.64 636.637 9.94333 637.243 10.55C637.859 11.1473 638.167 11.964 638.167 13C638.167 14.1107 637.836 14.9973 637.173 15.66C636.511 16.3133 635.633 16.64 634.541 16.64Z" fill="white"/>
<path d="M606.751 6.28H613.331V7.218C611.717 9.86867 610.368 12.9627 609.285 16.5H608.109C609.183 13.1213 610.564 10.0367 612.253 7.246V7.218H606.751V6.28Z" fill="white"/>
<path d="M506.186 16.5V7.624H506.158L503.4 10.172L502.966 9.262L506.186 6.28H507.306V16.5H506.186ZM514.868 16.5V7.624H514.84L512.082 10.172L511.648 9.262L514.868 6.28H515.988V16.5H514.868Z" fill="white"/>
<path d="M481.686 16.5V7.624H481.658L478.9 10.172L478.466 9.262L481.686 6.28H482.806V16.5H481.686ZM490.13 7.092C489.206 7.092 488.282 7.414 487.358 8.058L487.022 7.162C487.974 6.48067 489.057 6.14 490.27 6.14C491.269 6.14 492.043 6.39667 492.594 6.91C493.145 7.414 493.42 8.12333 493.42 9.038C493.42 9.95267 493.089 10.8767 492.426 11.81C491.763 12.7433 490.522 13.9847 488.702 15.534V15.562H493.462V16.5H487.162V15.562C489.15 13.9193 490.499 12.6407 491.208 11.726C491.917 10.802 492.272 9.934 492.272 9.122C492.272 8.45933 492.09 7.95533 491.726 7.61C491.362 7.26467 490.83 7.092 490.13 7.092Z" fill="white"/>
<path d="M432.186 16.5V7.624H432.158L429.4 10.172L428.966 9.262L432.186 6.28H433.306V16.5H432.186ZM441.61 13.21V7.918H441.582L437.858 13.182V13.21H441.61ZM442.716 13.21H444.452V14.12H442.716V16.5H441.61V14.12H436.71V13.21L441.61 6.28H442.716V13.21Z" fill="white"/>
<path d="M408.186 16.5V7.624H408.158L405.4 10.172L404.966 9.262L408.186 6.28H409.306V16.5H408.186ZM419.668 7.218H415.244L415.048 10.522H415.076C415.627 10.1953 416.247 10.032 416.938 10.032C417.937 10.032 418.711 10.3027 419.262 10.844C419.813 11.3853 420.088 12.1507 420.088 13.14C420.088 14.2787 419.766 15.1467 419.122 15.744C418.487 16.3413 417.554 16.64 416.322 16.64C415.37 16.64 414.493 16.416 413.69 15.968L413.97 15.044C414.754 15.4827 415.538 15.702 416.322 15.702C418.086 15.702 418.968 14.848 418.968 13.14C418.968 12.4213 418.777 11.8753 418.394 11.502C418.011 11.1193 417.461 10.928 416.742 10.928C416.005 10.928 415.393 11.1427 414.908 11.572H413.928L414.236 6.28H419.668V7.218Z" fill="white"/>
<path d="M309.186 16.5V7.624H309.158L306.4 10.172L305.966 9.262L309.186 6.28H310.306V16.5H309.186ZM317.798 6.14C318.937 6.14 319.823 6.48067 320.458 7.162C321.093 7.834 321.41 8.79067 321.41 10.032C321.41 11.9827 320.939 13.532 319.996 14.68C319.063 15.828 317.761 16.4813 316.09 16.64L315.894 15.702C317.033 15.5807 317.947 15.2213 318.638 14.624C319.329 14.0173 319.823 13.1633 320.122 12.062L320.108 12.048C319.455 12.776 318.605 13.14 317.56 13.14C316.524 13.14 315.698 12.8367 315.082 12.23C314.475 11.614 314.172 10.774 314.172 9.71C314.172 8.62733 314.503 7.764 315.166 7.12C315.829 6.46667 316.706 6.14 317.798 6.14ZM317.798 7.078C317.005 7.078 316.389 7.30667 315.95 7.764C315.511 8.22133 315.292 8.87 315.292 9.71C315.292 10.5127 315.516 11.1427 315.964 11.6C316.421 12.048 317.033 12.272 317.798 12.272C318.517 12.272 319.109 12.034 319.576 11.558C320.043 11.082 320.276 10.466 320.276 9.71C320.276 8.87933 320.057 8.23533 319.618 7.778C319.179 7.31133 318.573 7.078 317.798 7.078Z" fill="white"/>
<path d="M283.948 7.092C283.024 7.092 282.1 7.414 281.176 8.058L280.84 7.162C281.792 6.48067 282.875 6.14 284.088 6.14C285.087 6.14 285.862 6.39667 286.412 6.91C286.963 7.414 287.238 8.12333 287.238 9.038C287.238 9.95267 286.907 10.8767 286.244 11.81C285.582 12.7433 284.34 13.9847 282.52 15.534V15.562H287.28V16.5H280.98V15.562C282.968 13.9193 284.317 12.6407 285.026 11.726C285.736 10.802 286.09 9.934 286.09 9.122C286.09 8.45933 285.908 7.95533 285.544 7.61C285.18 7.26467 284.648 7.092 283.948 7.092ZM290.124 7.358C290.768 6.546 291.673 6.14 292.84 6.14C294.007 6.14 294.912 6.546 295.556 7.358C296.2 8.17 296.522 9.514 296.522 11.39C296.522 13.266 296.2 14.61 295.556 15.422C294.912 16.234 294.007 16.64 292.84 16.64C291.673 16.64 290.768 16.234 290.124 15.422C289.48 14.61 289.158 13.266 289.158 11.39C289.158 9.514 289.48 8.17 290.124 7.358ZM290.908 14.708C291.337 15.3893 291.981 15.73 292.84 15.73C293.699 15.73 294.338 15.3893 294.758 14.708C295.187 14.0173 295.402 12.9113 295.402 11.39C295.402 9.86867 295.187 8.76733 294.758 8.086C294.338 7.39533 293.699 7.05 292.84 7.05C291.981 7.05 291.337 7.39533 290.908 8.086C290.488 8.76733 290.278 9.86867 290.278 11.39C290.278 12.9113 290.488 14.0173 290.908 14.708Z" fill="white"/>
<path d="M9.00836 6.28H15.1404V7.218L11.7944 10.508V10.536H12.2144C13.2037 10.536 13.9597 10.774 14.4824 11.25C15.0144 11.726 15.2804 12.4167 15.2804 13.322C15.2804 14.386 14.963 15.2073 14.3284 15.786C13.703 16.3553 12.807 16.64 11.6404 16.64C10.6324 16.64 9.74569 16.3973 8.98036 15.912L9.31636 15.002C10.1004 15.4687 10.875 15.702 11.6404 15.702C12.4617 15.702 13.087 15.5013 13.5164 15.1C13.9457 14.6987 14.1604 14.106 14.1604 13.322C14.1604 12.6593 13.9364 12.1693 13.4884 11.852C13.0497 11.5253 12.345 11.362 11.3744 11.362H10.3524V10.494L13.6984 7.246V7.218H9.00836V6.28ZM20.868 16.5V7.624H20.84L18.082 10.172L17.648 9.262L20.868 6.28H21.988V16.5H20.868Z" fill="white"/>
<path d="M690.539 36.704C690.119 36.1813 689.541 35.92 688.803 35.92C688.066 35.92 687.483 36.1813 687.053 36.704C686.633 37.2173 686.423 37.936 686.423 38.86C686.423 39.784 686.633 40.5073 687.053 41.03C687.483 41.5433 688.066 41.8 688.803 41.8C689.541 41.8 690.119 41.5433 690.539 41.03C690.969 40.5073 691.183 39.784 691.183 38.86C691.183 37.936 690.969 37.2173 690.539 36.704ZM691.295 41.618C690.67 42.2993 689.839 42.64 688.803 42.64C687.767 42.64 686.937 42.2993 686.311 41.618C685.686 40.9367 685.373 40.0173 685.373 38.86C685.373 37.7027 685.686 36.7833 686.311 36.102C686.937 35.4207 687.767 35.08 688.803 35.08C689.839 35.08 690.67 35.4207 691.295 36.102C691.921 36.7833 692.233 37.7027 692.233 38.86C692.233 40.0173 691.921 40.9367 691.295 41.618ZM697.25 42.64C696.195 42.64 695.411 42.2153 694.898 41.366H694.87V45.58H693.848V35.22H694.828L694.842 36.452H694.87C695.383 35.5373 696.177 35.08 697.25 35.08C698.165 35.08 698.883 35.4067 699.406 36.06C699.929 36.704 700.19 37.6373 700.19 38.86C700.19 40.0547 699.919 40.9833 699.378 41.646C698.846 42.3087 698.137 42.64 697.25 42.64ZM699.182 38.86C699.182 37.908 698.991 37.18 698.608 36.676C698.235 36.172 697.707 35.92 697.026 35.92C696.382 35.92 695.859 36.172 695.458 36.676C695.066 37.18 694.87 37.8753 694.87 38.762V38.958C694.87 39.8633 695.071 40.5633 695.472 41.058C695.873 41.5527 696.391 41.8 697.026 41.8C697.689 41.8 698.211 41.548 698.594 41.044C698.986 40.5307 699.182 39.8027 699.182 38.86ZM705.202 35.934C704.381 35.934 703.741 36.1907 703.284 36.704C702.827 37.208 702.598 37.9267 702.598 38.86C702.598 39.756 702.836 40.47 703.312 41.002C703.797 41.534 704.427 41.8 705.202 41.8C705.855 41.8 706.481 41.6413 707.078 41.324L707.358 42.15C706.658 42.4767 705.925 42.64 705.16 42.64C704.077 42.64 703.2 42.2993 702.528 41.618C701.856 40.9273 701.52 40.008 701.52 38.86C701.52 37.6747 701.842 36.7507 702.486 36.088C703.13 35.416 704.021 35.08 705.16 35.08C705.925 35.08 706.658 35.2433 707.358 35.57L707.078 36.424C706.453 36.0973 705.827 35.934 705.202 35.934ZM713.987 36.704C713.567 36.1813 712.988 35.92 712.251 35.92C711.513 35.92 710.93 36.1813 710.501 36.704C710.081 37.2173 709.871 37.936 709.871 38.86C709.871 39.784 710.081 40.5073 710.501 41.03C710.93 41.5433 711.513 41.8 712.251 41.8C712.988 41.8 713.567 41.5433 713.987 41.03C714.416 40.5073 714.631 39.784 714.631 38.86C714.631 37.936 714.416 37.2173 713.987 36.704ZM714.743 41.618C714.117 42.2993 713.287 42.64 712.251 42.64C711.215 42.64 710.384 42.2993 709.759 41.618C709.133 40.9367 708.821 40.0173 708.821 38.86C708.821 37.7027 709.133 36.7833 709.759 36.102C710.384 35.4207 711.215 35.08 712.251 35.08C713.287 35.08 714.117 35.4207 714.743 36.102C715.368 36.7833 715.681 37.7027 715.681 38.86C715.681 40.0173 715.368 40.9367 714.743 41.618ZM718.594 36.69C718.211 37.194 718.02 37.9173 718.02 38.86C718.02 39.8027 718.216 40.5307 718.608 41.044C719 41.548 719.527 41.8 720.19 41.8C720.825 41.8 721.338 41.5527 721.73 41.058C722.131 40.5633 722.332 39.8633 722.332 38.958V38.762C722.332 37.8753 722.131 37.18 721.73 36.676C721.338 36.172 720.825 35.92 720.19 35.92C719.509 35.92 718.977 36.1767 718.594 36.69ZM717.012 38.86C717.012 37.6373 717.273 36.704 717.796 36.06C718.319 35.4067 719.037 35.08 719.952 35.08C721.007 35.08 721.791 35.5233 722.304 36.41H722.332V32H723.354V42.5H722.374L722.36 41.268H722.332C721.819 42.1827 721.025 42.64 719.952 42.64C719.056 42.64 718.342 42.3133 717.81 41.66C717.278 40.9973 717.012 40.064 717.012 38.86ZM726.086 39.252C726.104 40.0453 726.347 40.6707 726.814 41.128C727.28 41.5853 727.887 41.814 728.634 41.814C729.352 41.814 730.066 41.6273 730.776 41.254L731.056 42.052C730.272 42.444 729.432 42.64 728.536 42.64C727.49 42.64 726.646 42.2993 726.002 41.618C725.358 40.9367 725.036 40.0173 725.036 38.86C725.036 37.684 725.334 36.76 725.932 36.088C726.538 35.416 727.36 35.08 728.396 35.08C729.404 35.08 730.183 35.402 730.734 36.046C731.294 36.6807 731.574 37.5953 731.574 38.79C731.574 38.9113 731.564 39.0653 731.546 39.252H726.086ZM726.086 38.44H730.566C730.556 37.628 730.36 37.0027 729.978 36.564C729.595 36.1253 729.068 35.906 728.396 35.906C727.696 35.906 727.14 36.13 726.73 36.578C726.328 37.0167 726.114 37.6373 726.086 38.44Z" fill="white"/>
<path d="M554.968 35.22H555.962L555.99 36.774H556.018C556.839 35.6447 557.997 35.08 559.49 35.08V35.962C558.454 35.962 557.614 36.2467 556.97 36.816C556.335 37.3853 556.018 38.1227 556.018 39.028V42.5H554.968V35.22ZM562.2 36.69C561.818 37.194 561.626 37.9173 561.626 38.86C561.626 39.8027 561.822 40.5307 562.214 41.044C562.606 41.548 563.134 41.8 563.796 41.8C564.431 41.8 564.944 41.5527 565.336 41.058C565.738 40.5633 565.938 39.8633 565.938 38.958V38.762C565.938 37.8753 565.738 37.18 565.336 36.676C564.944 36.172 564.431 35.92 563.796 35.92C563.115 35.92 562.583 36.1767 562.2 36.69ZM560.618 38.86C560.618 37.6373 560.88 36.704 561.402 36.06C561.925 35.4067 562.644 35.08 563.558 35.08C564.613 35.08 565.397 35.5233 565.91 36.41H565.938V32H566.96V42.5H565.98L565.966 41.268H565.938C565.425 42.1827 564.632 42.64 563.558 42.64C562.662 42.64 561.948 42.3133 561.416 41.66C560.884 40.9973 560.618 40.064 560.618 38.86Z" fill="white"/>
<path d="M439.383 35.5H441.301V34.562C441.301 32.9473 442.076 32.14 443.625 32.14C444.055 32.14 444.493 32.21 444.941 32.35L444.717 33.19C444.372 33.05 444.041 32.98 443.723 32.98C443.219 32.98 442.86 33.1013 442.645 33.344C442.44 33.5773 442.337 33.9833 442.337 34.562V35.5H444.843V36.34H442.337V42.5H441.301V36.34H439.383V35.5ZM447.478 35.22V39.742C447.478 40.4887 447.6 41.0113 447.842 41.31C448.094 41.6087 448.51 41.758 449.088 41.758C449.63 41.758 450.12 41.4967 450.558 40.974C451.006 40.4513 451.23 39.8307 451.23 39.112V35.22H452.252V42.5H451.272L451.258 41.198H451.23C450.95 41.646 450.591 42.0007 450.152 42.262C449.723 42.514 449.256 42.64 448.752 42.64C447.968 42.64 447.39 42.4207 447.016 41.982C446.652 41.534 446.47 40.82 446.47 39.84V35.22H447.478ZM454.347 35.22H455.327L455.341 36.522H455.369C455.649 36.074 456.004 35.724 456.433 35.472C456.872 35.2107 457.343 35.08 457.847 35.08C458.668 35.08 459.275 35.3367 459.667 35.85C460.068 36.354 460.269 37.1567 460.269 38.258V42.5H459.261V38.342C459.261 37.4367 459.13 36.8113 458.869 36.466C458.608 36.1113 458.16 35.934 457.525 35.934C456.984 35.934 456.489 36.2047 456.041 36.746C455.593 37.278 455.369 37.8987 455.369 38.608V42.5H454.347V35.22ZM465.496 35.934C464.675 35.934 464.035 36.1907 463.578 36.704C463.121 37.208 462.892 37.9267 462.892 38.86C462.892 39.756 463.13 40.47 463.606 41.002C464.091 41.534 464.721 41.8 465.496 41.8C466.149 41.8 466.775 41.6413 467.372 41.324L467.652 42.15C466.952 42.4767 466.219 42.64 465.454 42.64C464.371 42.64 463.494 42.2993 462.822 41.618C462.15 40.9273 461.814 40.008 461.814 38.86C461.814 37.6747 462.136 36.7507 462.78 36.088C463.424 35.416 464.315 35.08 465.454 35.08C466.219 35.08 466.952 35.2433 467.652 35.57L467.372 36.424C466.747 36.0973 466.121 35.934 465.496 35.934ZM471.915 32.84V35.5H474.673V36.34H471.915V40.162C471.915 40.8153 472.003 41.254 472.181 41.478C472.358 41.6927 472.689 41.8 473.175 41.8C473.604 41.8 474.015 41.7207 474.407 41.562L474.575 42.388C474.099 42.556 473.585 42.64 473.035 42.64C472.241 42.64 471.681 42.472 471.355 42.136C471.028 41.7907 470.865 41.198 470.865 40.358V36.34H469.255V35.5H470.865V32.84H471.915ZM476.895 32.28H483.027V33.218L479.681 36.508V36.536H480.101C481.09 36.536 481.846 36.774 482.369 37.25C482.901 37.726 483.167 38.4167 483.167 39.322C483.167 40.386 482.85 41.2073 482.215 41.786C481.59 42.3553 480.694 42.64 479.527 42.64C478.519 42.64 477.632 42.3973 476.867 41.912L477.203 41.002C477.987 41.4687 478.762 41.702 479.527 41.702C480.348 41.702 480.974 41.5013 481.403 41.1C481.832 40.6987 482.047 40.106 482.047 39.322C482.047 38.6593 481.823 38.1693 481.375 37.852C480.936 37.5253 480.232 37.362 479.261 37.362H478.239V36.494L481.585 33.246V33.218H476.895V32.28Z" fill="white"/>
<path d="M352.701 35.22H353.695L353.723 36.774H353.751C354.573 35.6447 355.73 35.08 357.223 35.08V35.962C356.187 35.962 355.347 36.2467 354.703 36.816C354.069 37.3853 353.751 38.1227 353.751 39.028V42.5H352.701V35.22ZM361.18 35.08C362.066 35.08 362.888 35.2667 363.644 35.64L363.42 36.466C362.701 36.102 361.954 35.92 361.18 35.92C360.638 35.92 360.223 36.018 359.934 36.214C359.654 36.41 359.514 36.6853 359.514 37.04C359.514 37.376 359.635 37.642 359.878 37.838C360.13 38.034 360.582 38.188 361.236 38.3C362.188 38.4587 362.869 38.72 363.28 39.084C363.7 39.448 363.91 39.9473 363.91 40.582C363.91 41.2167 363.667 41.7207 363.182 42.094C362.706 42.458 362.038 42.64 361.18 42.64C360.181 42.64 359.285 42.4067 358.492 41.94L358.73 41.114C359.495 41.5713 360.312 41.8 361.18 41.8C361.721 41.8 362.136 41.6973 362.426 41.492C362.715 41.2773 362.86 40.974 362.86 40.582C362.86 40.2087 362.729 39.9193 362.468 39.714C362.216 39.5087 361.768 39.35 361.124 39.238C360.2 39.0793 359.528 38.8273 359.108 38.482C358.697 38.1273 358.492 37.6467 358.492 37.04C358.492 36.4427 358.725 35.9667 359.192 35.612C359.668 35.2573 360.33 35.08 361.18 35.08ZM369.035 42.5V33.624H369.007L366.249 36.172L365.815 35.262L369.035 32.28H370.155V42.5H369.035Z" fill="white"/>
<path d="M126.542 35.5H128.46V34.562C128.46 32.9473 129.235 32.14 130.784 32.14C131.214 32.14 131.652 32.21 132.1 32.35L131.876 33.19C131.531 33.05 131.2 32.98 130.882 32.98C130.378 32.98 130.019 33.1013 129.804 33.344C129.599 33.5773 129.496 33.9833 129.496 34.562V35.5H132.002V36.34H129.496V42.5H128.46V36.34H126.542V35.5ZM134.637 35.22V39.742C134.637 40.4887 134.759 41.0113 135.001 41.31C135.253 41.6087 135.669 41.758 136.247 41.758C136.789 41.758 137.279 41.4967 137.717 40.974C138.165 40.4513 138.389 39.8307 138.389 39.112V35.22H139.411V42.5H138.431L138.417 41.198H138.389C138.109 41.646 137.75 42.0007 137.311 42.262C136.882 42.514 136.415 42.64 135.911 42.64C135.127 42.64 134.549 42.4207 134.175 41.982C133.811 41.534 133.629 40.82 133.629 39.84V35.22H134.637ZM141.506 35.22H142.486L142.5 36.522H142.528C142.808 36.074 143.163 35.724 143.592 35.472C144.031 35.2107 144.502 35.08 145.006 35.08C145.827 35.08 146.434 35.3367 146.826 35.85C147.227 36.354 147.428 37.1567 147.428 38.258V42.5H146.42V38.342C146.42 37.4367 146.289 36.8113 146.028 36.466C145.767 36.1113 145.319 35.934 144.684 35.934C144.143 35.934 143.648 36.2047 143.2 36.746C142.752 37.278 142.528 37.8987 142.528 38.608V42.5H141.506V35.22ZM152.655 35.934C151.834 35.934 151.194 36.1907 150.737 36.704C150.28 37.208 150.051 37.9267 150.051 38.86C150.051 39.756 150.289 40.47 150.765 41.002C151.25 41.534 151.88 41.8 152.655 41.8C153.308 41.8 153.934 41.6413 154.531 41.324L154.811 42.15C154.111 42.4767 153.378 42.64 152.613 42.64C151.53 42.64 150.653 42.2993 149.981 41.618C149.309 40.9273 148.973 40.008 148.973 38.86C148.973 37.6747 149.295 36.7507 149.939 36.088C150.583 35.416 151.474 35.08 152.613 35.08C153.378 35.08 154.111 35.2433 154.811 35.57L154.531 36.424C153.906 36.0973 153.28 35.934 152.655 35.934ZM159.074 32.84V35.5H161.832V36.34H159.074V40.162C159.074 40.8153 159.163 41.254 159.34 41.478C159.517 41.6927 159.849 41.8 160.334 41.8C160.763 41.8 161.174 41.7207 161.566 41.562L161.734 42.388C161.258 42.556 160.745 42.64 160.194 42.64C159.401 42.64 158.841 42.472 158.514 42.136C158.187 41.7907 158.024 41.198 158.024 40.358V36.34H156.414V35.5H158.024V32.84H159.074ZM167.232 42.5V33.624H167.204L164.446 36.172L164.012 35.262L167.232 32.28H168.352V42.5H167.232ZM175.676 33.092C174.752 33.092 173.828 33.414 172.904 34.058L172.568 33.162C173.52 32.4807 174.603 32.14 175.816 32.14C176.815 32.14 177.589 32.3967 178.14 32.91C178.691 33.414 178.966 34.1233 178.966 35.038C178.966 35.9527 178.635 36.8767 177.972 37.81C177.309 38.7433 176.068 39.9847 174.248 41.534V41.562H179.008V42.5H172.708V41.562C174.696 39.9193 176.045 38.6407 176.754 37.726C177.463 36.802 177.818 35.934 177.818 35.122C177.818 34.4593 177.636 33.9553 177.272 33.61C176.908 33.2647 176.376 33.092 175.676 33.092Z" fill="white"/>
<path d="M705.751 56.28H712.331V57.218C710.717 59.8687 709.368 62.9627 708.285 66.5H707.109C708.183 63.1213 709.564 60.0367 711.253 57.246V57.218H705.751V56.28Z" fill="white"/>
<path d="M673.665 80.5V70.28H674.799L678.439 76.44H678.467L682.107 70.28H683.283V80.5H682.163V72.156H682.135L678.971 77.462H677.935L674.771 72.156H674.743V80.5H673.665ZM686.075 80.5V70.28H687.293V80.5H686.075ZM692.913 71.05C692.269 71.05 691.769 71.1947 691.415 71.484C691.06 71.764 690.883 72.156 690.883 72.66C690.883 73.5653 691.545 74.2187 692.871 74.62C694.028 74.956 694.849 75.376 695.335 75.88C695.829 76.384 696.077 77.0373 696.077 77.84C696.077 78.7453 695.792 79.4407 695.223 79.926C694.663 80.402 693.86 80.64 692.815 80.64C691.657 80.64 690.631 80.346 689.735 79.758L690.071 78.834C690.883 79.4127 691.797 79.702 692.815 79.702C693.505 79.702 694.033 79.5433 694.397 79.226C694.77 78.9087 694.957 78.4467 694.957 77.84C694.957 77.28 694.798 76.8367 694.481 76.51C694.173 76.174 693.627 75.8847 692.843 75.642C690.799 75.0353 689.777 74.0413 689.777 72.66C689.777 71.8947 690.052 71.2833 690.603 70.826C691.163 70.3687 691.933 70.14 692.913 70.14C693.967 70.14 694.947 70.3593 695.853 70.798L695.573 71.666C694.761 71.2553 693.874 71.05 692.913 71.05ZM702.523 71.078C701.291 71.078 700.307 71.47 699.569 72.254C698.841 73.0287 698.477 74.074 698.477 75.39C698.477 76.706 698.851 77.756 699.597 78.54C700.353 79.3147 701.329 79.702 702.523 79.702C703.494 79.702 704.395 79.436 705.225 78.904L705.603 79.744C704.689 80.3413 703.629 80.64 702.425 80.64C700.885 80.64 699.653 80.164 698.729 79.212C697.805 78.26 697.343 76.986 697.343 75.39C697.343 73.7753 697.801 72.4967 698.715 71.554C699.63 70.6113 700.867 70.14 702.425 70.14C703.629 70.14 704.689 70.4387 705.603 71.036L705.225 71.876C704.404 71.344 703.503 71.078 702.523 71.078ZM707.077 76.888V75.992H711.235V76.888H707.077ZM713.532 80.5V70.28H714.666L718.306 76.44H718.334L721.974 70.28H723.15V80.5H722.03V72.156H722.002L718.838 77.462H717.802L714.638 72.156H714.61V80.5H713.532ZM726.642 71.218V74.55H731.22V75.446H726.642V79.562H731.5V80.5H725.522V70.28H731.5V71.218H726.642ZM733.725 80.5V70.28H734.859L738.499 76.44H738.527L742.167 70.28H743.343V80.5H742.223V72.156H742.195L739.031 77.462H737.995L734.831 72.156H734.803V80.5H733.725Z" fill="white"/>
<path d="M563.327 57.218H558.903L558.707 60.522H558.735C559.286 60.1953 559.907 60.032 560.597 60.032C561.596 60.032 562.371 60.3027 562.921 60.844C563.472 61.3853 563.747 62.1507 563.747 63.14C563.747 64.2787 563.425 65.1467 562.781 65.744C562.147 66.3413 561.213 66.64 559.981 66.64C559.029 66.64 558.152 66.416 557.349 65.968L557.629 65.044C558.413 65.4827 559.197 65.702 559.981 65.702C561.745 65.702 562.627 64.848 562.627 63.14C562.627 62.4213 562.436 61.8753 562.053 61.502C561.671 61.1193 561.12 60.928 560.401 60.928C559.664 60.928 559.053 61.1427 558.567 61.572H557.587L557.895 56.28H563.327V57.218Z" fill="white"/>
<path d="M557.783 71.358C558.427 70.546 559.333 70.14 560.499 70.14C561.666 70.14 562.571 70.546 563.215 71.358C563.859 72.17 564.181 73.514 564.181 75.39C564.181 77.266 563.859 78.61 563.215 79.422C562.571 80.234 561.666 80.64 560.499 80.64C559.333 80.64 558.427 80.234 557.783 79.422C557.139 78.61 556.817 77.266 556.817 75.39C556.817 73.514 557.139 72.17 557.783 71.358ZM558.567 78.708C558.997 79.3893 559.641 79.73 560.499 79.73C561.358 79.73 561.997 79.3893 562.417 78.708C562.847 78.0173 563.061 76.9113 563.061 75.39C563.061 73.8687 562.847 72.7673 562.417 72.086C561.997 71.3953 561.358 71.05 560.499 71.05C559.641 71.05 558.997 71.3953 558.567 72.086C558.147 72.7673 557.937 73.8687 557.937 75.39C557.937 76.9113 558.147 78.0173 558.567 78.708Z" fill="white"/>
<path d="M458.349 56.28H464.481V57.218L461.135 60.508V60.536H461.555C462.545 60.536 463.301 60.774 463.823 61.25C464.355 61.726 464.621 62.4167 464.621 63.322C464.621 64.386 464.304 65.2073 463.669 65.786C463.044 66.3553 462.148 66.64 460.981 66.64C459.973 66.64 459.087 66.3973 458.321 65.912L458.657 65.002C459.441 65.4687 460.216 65.702 460.981 65.702C461.803 65.702 462.428 65.5013 462.857 65.1C463.287 64.6987 463.501 64.106 463.501 63.322C463.501 62.6593 463.277 62.1693 462.829 61.852C462.391 61.5253 461.686 61.362 460.715 61.362H459.693V60.494L463.039 57.246V57.218H458.349V56.28Z" fill="white"/>
<path d="M442.771 71.218H438.053V74.69H442.491V75.586H438.053V80.5H436.933V70.28H442.771V71.218ZM446.051 71.218V74.55H450.629V75.446H446.051V79.562H450.909V80.5H444.931V70.28H450.909V71.218H446.051ZM453.134 80.5V70.28H454.296L459.616 78.68H459.644V70.28H460.736V80.5H459.588L454.268 72.1H454.24V80.5H453.134ZM467.665 71.078C466.433 71.078 465.448 71.47 464.711 72.254C463.983 73.0287 463.619 74.074 463.619 75.39C463.619 76.706 463.992 77.756 464.739 78.54C465.495 79.3147 466.47 79.702 467.665 79.702C468.635 79.702 469.536 79.436 470.367 78.904L470.745 79.744C469.83 80.3413 468.771 80.64 467.567 80.64C466.027 80.64 464.795 80.164 463.871 79.212C462.947 78.26 462.485 76.986 462.485 75.39C462.485 73.7753 462.942 72.4967 463.857 71.554C464.771 70.6113 466.008 70.14 467.567 70.14C468.771 70.14 469.83 70.4387 470.745 71.036L470.367 71.876C469.545 71.344 468.645 71.078 467.665 71.078ZM473.969 71.218V74.55H478.547V75.446H473.969V79.562H478.827V80.5H472.849V70.28H478.827V71.218H473.969ZM481.192 80.5V78.54H482.494V80.5H481.192ZM485.437 80.5V70.28H486.655V80.5H485.437Z" fill="white"/>
<path d="M365.327 57.218H360.903L360.707 60.522H360.735C361.286 60.1953 361.907 60.032 362.597 60.032C363.596 60.032 364.371 60.3027 364.921 60.844C365.472 61.3853 365.747 62.1507 365.747 63.14C365.747 64.2787 365.425 65.1467 364.781 65.744C364.147 66.3413 363.213 66.64 361.981 66.64C361.029 66.64 360.152 66.416 359.349 65.968L359.629 65.044C360.413 65.4827 361.197 65.702 361.981 65.702C363.745 65.702 364.627 64.848 364.627 63.14C364.627 62.4213 364.436 61.8753 364.053 61.502C363.671 61.1193 363.12 60.928 362.401 60.928C361.664 60.928 361.053 61.1427 360.567 61.572H359.587L359.895 56.28H365.327V57.218Z" fill="white"/>
<path d="M359.783 71.358C360.427 70.546 361.333 70.14 362.499 70.14C363.666 70.14 364.571 70.546 365.215 71.358C365.859 72.17 366.181 73.514 366.181 75.39C366.181 77.266 365.859 78.61 365.215 79.422C364.571 80.234 363.666 80.64 362.499 80.64C361.333 80.64 360.427 80.234 359.783 79.422C359.139 78.61 358.817 77.266 358.817 75.39C358.817 73.514 359.139 72.17 359.783 71.358ZM360.567 78.708C360.997 79.3893 361.641 79.73 362.499 79.73C363.358 79.73 363.997 79.3893 364.417 78.708C364.847 78.0173 365.061 76.9113 365.061 75.39C365.061 73.8687 364.847 72.7673 364.417 72.086C363.997 71.3953 363.358 71.05 362.499 71.05C361.641 71.05 360.997 71.3953 360.567 72.086C360.147 72.7673 359.937 73.8687 359.937 75.39C359.937 76.9113 360.147 78.0173 360.567 78.708Z" fill="white"/>
<path d="M147.686 66.5V57.624H147.658L144.9 60.172L144.466 59.262L147.686 56.28H148.806V66.5H147.686ZM156.13 57.092C155.206 57.092 154.282 57.414 153.358 58.058L153.022 57.162C153.974 56.4807 155.057 56.14 156.27 56.14C157.269 56.14 158.043 56.3967 158.594 56.91C159.145 57.414 159.42 58.1233 159.42 59.038C159.42 59.9527 159.089 60.8767 158.426 61.81C157.763 62.7433 156.522 63.9847 154.702 65.534V65.562H159.462V66.5H153.162V65.562C155.15 63.9193 156.499 62.6407 157.208 61.726C157.917 60.802 158.272 59.934 158.272 59.122C158.272 58.4593 158.09 57.9553 157.726 57.61C157.362 57.2647 156.83 57.092 156.13 57.092Z" fill="white"/>
<path d="M149.783 71.358C150.427 70.546 151.333 70.14 152.499 70.14C153.666 70.14 154.571 70.546 155.215 71.358C155.859 72.17 156.181 73.514 156.181 75.39C156.181 77.266 155.859 78.61 155.215 79.422C154.571 80.234 153.666 80.64 152.499 80.64C151.333 80.64 150.427 80.234 149.783 79.422C149.139 78.61 148.817 77.266 148.817 75.39C148.817 73.514 149.139 72.17 149.783 71.358ZM150.567 78.708C150.997 79.3893 151.641 79.73 152.499 79.73C153.358 79.73 153.997 79.3893 154.417 78.708C154.847 78.0173 155.061 76.9113 155.061 75.39C155.061 73.8687 154.847 72.7673 154.417 72.086C153.997 71.3953 153.358 71.05 152.499 71.05C151.641 71.05 150.997 71.3953 150.567 72.086C150.147 72.7673 149.937 73.8687 149.937 75.39C149.937 76.9113 150.147 78.0173 150.567 78.708Z" fill="white"/>
</g>
<defs>
<clipPath id="clip0_2_3">
<rect width="800" height="84" fill="white"/>
</clipPath>
</defs>
</svg>
