<svg width="800" height="84" viewBox="0 0 800 84" fill="none" xmlns="http://www.w3.org/2000/svg">
<g clip-path="url(#clip0_2_3)">
<path d="M4.5 21.5H795.5" stroke="#E3E3E3" stroke-linecap="round"/>
<path d="M4.5 21.5V52.5" stroke="#E3E3E3" stroke-linecap="round"/>
<path d="M4.5 52.5H795.5" stroke="#E3E3E3" stroke-linecap="round"/>
<path d="M795.5 21.5V52.5" stroke="#E3E3E3" stroke-linecap="round"/>
<path d="M770.5 21.5V24.5" stroke="#E3E3E3" stroke-linecap="round"/>
<path d="M770.5 52.5V49.5" stroke="#E3E3E3" stroke-linecap="round"/>
<path d="M746.5 21.5V24.5" stroke="#E3E3E3" stroke-linecap="round"/>
<path d="M746.5 52.5V49.5" stroke="#E3E3E3" stroke-linecap="round"/>
<path d="M721.5 21.5V24.5" stroke="#E3E3E3" stroke-linecap="round"/>
<path d="M721.5 52.5V49.5" stroke="#E3E3E3" stroke-linecap="round"/>
<path d="M696.5 21.5V24.5" stroke="#E3E3E3" stroke-linecap="round"/>
<path d="M696.5 52.5V49.5" stroke="#E3E3E3" stroke-linecap="round"/>
<path d="M671.5 21.5V24.5" stroke="#E3E3E3" stroke-linecap="round"/>
<path d="M671.5 52.5V49.5" stroke="#E3E3E3" stroke-linecap="round"/>
<path d="M647.5 21.5V24.5" stroke="#E3E3E3" stroke-linecap="round"/>
<path d="M647.5 52.5V49.5" stroke="#E3E3E3" stroke-linecap="round"/>
<path d="M622.5 21.5V52.5" stroke="#E3E3E3" stroke-linecap="round"/>
<path d="M597.5 21.5V24.5" stroke="#E3E3E3" stroke-linecap="round"/>
<path d="M597.5 52.5V49.5" stroke="#E3E3E3" stroke-linecap="round"/>
<path d="M573.5 21.5V24.5" stroke="#E3E3E3" stroke-linecap="round"/>
<path d="M573.5 52.5V49.5" stroke="#E3E3E3" stroke-linecap="round"/>
<path d="M548.5 21.5V24.5" stroke="#E3E3E3" stroke-linecap="round"/>
<path d="M548.5 52.5V49.5" stroke="#E3E3E3" stroke-linecap="round"/>
<path d="M523.5 21.5V24.5" stroke="#E3E3E3" stroke-linecap="round"/>
<path d="M523.5 52.5V49.5" stroke="#E3E3E3" stroke-linecap="round"/>
<path d="M498.5 21.5V52.5" stroke="#E3E3E3" stroke-linecap="round"/>
<path d="M474.5 21.5V24.5" stroke="#E3E3E3" stroke-linecap="round"/>
<path d="M474.5 52.5V49.5" stroke="#E3E3E3" stroke-linecap="round"/>
<path d="M449.5 21.5V24.5" stroke="#E3E3E3" stroke-linecap="round"/>
<path d="M449.5 52.5V49.5" stroke="#E3E3E3" stroke-linecap="round"/>
<path d="M424.5 21.5V52.5" stroke="#E3E3E3" stroke-linecap="round"/>
<path d="M400.5 21.5V24.5" stroke="#E3E3E3" stroke-linecap="round"/>
<path d="M400.5 52.5V49.5" stroke="#E3E3E3" stroke-linecap="round"/>
<path d="M375.5 21.5V24.5" stroke="#E3E3E3" stroke-linecap="round"/>
<path d="M375.5 52.5V49.5" stroke="#E3E3E3" stroke-linecap="round"/>
<path d="M350.5 21.5V24.5" stroke="#E3E3E3" stroke-linecap="round"/>
<path d="M350.5 52.5V49.5" stroke="#E3E3E3" stroke-linecap="round"/>
<path d="M325.5 21.5V24.5" stroke="#E3E3E3" stroke-linecap="round"/>
<path d="M325.5 52.5V49.5" stroke="#E3E3E3" stroke-linecap="round"/>
<path d="M301.5 21.5V52.5" stroke="#E3E3E3" stroke-linecap="round"/>
<path d="M276.5 21.5V24.5" stroke="#E3E3E3" stroke-linecap="round"/>
<path d="M276.5 52.5V49.5" stroke="#E3E3E3" stroke-linecap="round"/>
<path d="M251.5 21.5V24.5" stroke="#E3E3E3" stroke-linecap="round"/>
<path d="M251.5 52.5V49.5" stroke="#E3E3E3" stroke-linecap="round"/>
<path d="M226.5 21.5V24.5" stroke="#E3E3E3" stroke-linecap="round"/>
<path d="M226.5 52.5V49.5" stroke="#E3E3E3" stroke-linecap="round"/>
<path d="M202.5 21.5V24.5" stroke="#E3E3E3" stroke-linecap="round"/>
<path d="M202.5 52.5V49.5" stroke="#E3E3E3" stroke-linecap="round"/>
<path d="M177.5 21.5V52.5" stroke="#E3E3E3" stroke-linecap="round"/>
<path d="M152.5 21.5V24.5" stroke="#E3E3E3" stroke-linecap="round"/>
<path d="M152.5 52.5V49.5" stroke="#E3E3E3" stroke-linecap="round"/>
<path d="M128.5 21.5V24.5" stroke="#E3E3E3" stroke-linecap="round"/>
<path d="M128.5 52.5V49.5" stroke="#E3E3E3" stroke-linecap="round"/>
<path d="M103.5 21.5V24.5" stroke="#E3E3E3" stroke-linecap="round"/>
<path d="M103.5 52.5V49.5" stroke="#E3E3E3" stroke-linecap="round"/>
<path d="M78.5 21.5V24.5" stroke="#E3E3E3" stroke-linecap="round"/>
<path d="M78.5 52.5V49.5" stroke="#E3E3E3" stroke-linecap="round"/>
<path d="M53.5 21.5V24.5" stroke="#E3E3E3" stroke-linecap="round"/>
<path d="M53.5 52.5V49.5" stroke="#E3E3E3" stroke-linecap="round"/>
<path d="M29.5 21.5V24.5" stroke="#E3E3E3" stroke-linecap="round"/>
<path d="M29.5 52.5V49.5" stroke="#E3E3E3" stroke-linecap="round"/>
<path d="M782.485 6.14C784.949 6.14 786.181 7.89 786.181 11.39C786.181 14.89 784.949 16.64 782.485 16.64C781.319 16.64 780.413 16.234 779.769 15.422C779.125 14.61 778.803 13.266 778.803 11.39C778.803 9.514 779.125 8.17 779.769 7.358C780.413 6.546 781.319 6.14 782.485 6.14ZM780.553 14.708C780.983 15.3893 781.627 15.73 782.485 15.73C783.344 15.73 783.988 15.3893 784.417 14.708C784.847 14.0173 785.061 12.9113 785.061 11.39C785.061 9.86867 784.847 8.76733 784.417 8.086C783.988 7.39533 783.344 7.05 782.485 7.05C781.627 7.05 780.983 7.39533 780.553 8.086C780.133 8.76733 779.923 9.86867 779.923 11.39C779.923 12.9113 780.133 14.0173 780.553 14.708Z" fill="#E3E3E3"/>
<path d="M634.541 10.508C633.823 10.508 633.23 10.7413 632.763 11.208C632.297 11.6747 632.063 12.272 632.063 13C632.063 13.868 632.283 14.5353 632.721 15.002C633.16 15.4687 633.767 15.702 634.541 15.702C635.335 15.702 635.951 15.4687 636.389 15.002C636.828 14.5353 637.047 13.868 637.047 13C637.047 12.2347 636.819 11.628 636.361 11.18C635.913 10.732 635.307 10.508 634.541 10.508ZM634.541 16.64C633.412 16.64 632.525 16.2993 631.881 15.618C631.247 14.9367 630.929 13.9567 630.929 12.678C630.929 10.7833 631.387 9.25733 632.301 8.1C633.225 6.94267 634.495 6.28933 636.109 6.14L636.305 7.078C634.159 7.32067 632.796 8.52933 632.217 10.704L632.231 10.718C632.875 9.99933 633.725 9.64 634.779 9.64C635.815 9.64 636.637 9.94333 637.243 10.55C637.859 11.1473 638.167 11.964 638.167 13C638.167 14.1107 637.836 14.9973 637.173 15.66C636.511 16.3133 635.633 16.64 634.541 16.64Z" fill="#E3E3E3"/>
<path d="M606.751 6.28H613.331V7.218C611.698 9.89667 610.345 12.9907 609.271 16.5H608.109C609.192 13.0933 610.569 10.0087 612.239 7.246V7.218H606.751V6.28Z" fill="#E3E3E3"/>
<path d="M506.172 16.5V7.624H506.144L503.386 10.172L502.952 9.262L506.172 6.28H507.292V16.5H506.172ZM514.854 16.5V7.624H514.826L512.068 10.172L511.634 9.262L514.854 6.28H515.974V16.5H514.854Z" fill="#E3E3E3"/>
<path d="M481.672 16.5V7.624H481.644L478.886 10.172L478.452 9.262L481.672 6.28H482.792V16.5H481.672ZM490.13 7.092C489.206 7.092 488.282 7.414 487.358 8.058L487.022 7.162C487.974 6.48067 489.057 6.14 490.27 6.14C491.269 6.14 492.043 6.39667 492.594 6.91C493.145 7.414 493.42 8.12333 493.42 9.038C493.42 9.95267 493.089 10.8767 492.426 11.81C491.763 12.7433 490.522 13.9847 488.702 15.534V15.562H493.462V16.5H487.162V15.562C489.15 13.9193 490.494 12.6407 491.194 11.726C491.903 10.802 492.258 9.934 492.258 9.122C492.258 8.45933 492.076 7.95533 491.712 7.61C491.357 7.26467 490.83 7.092 490.13 7.092Z" fill="#E3E3E3"/>
<path d="M432.172 16.5V7.624H432.144L429.386 10.172L428.952 9.262L432.172 6.28H433.292V16.5H432.172ZM441.61 13.21V7.918H441.582L437.858 13.182V13.21H441.61ZM442.716 13.21H444.452V14.12H442.716V16.5H441.61V14.12H436.71V13.21L441.61 6.28H442.716V13.21Z" fill="#E3E3E3"/>
<path d="M408.172 16.5V7.624H408.144L405.386 10.172L404.952 9.262L408.172 6.28H409.292V16.5H408.172ZM419.668 7.218H415.244L415.048 10.522H415.076C415.627 10.1953 416.247 10.032 416.938 10.032C417.937 10.032 418.711 10.3027 419.262 10.844C419.813 11.3853 420.088 12.1507 420.088 13.14C420.088 14.2787 419.766 15.1467 419.122 15.744C418.487 16.3413 417.554 16.64 416.322 16.64C415.37 16.64 414.493 16.416 413.69 15.968L413.97 15.044C414.754 15.4827 415.538 15.702 416.322 15.702C418.086 15.702 418.968 14.848 418.968 13.14C418.968 12.4213 418.777 11.8753 418.394 11.502C418.011 11.1193 417.461 10.928 416.742 10.928C416.005 10.928 415.393 11.1427 414.908 11.572H413.928L414.236 6.28H419.668V7.218Z" fill="#E3E3E3"/>
<path d="M309.172 16.5V7.624H309.144L306.386 10.172L305.952 9.262L309.172 6.28H310.292V16.5H309.172ZM317.784 6.14C318.923 6.14 319.809 6.48067 320.444 7.162C321.088 7.834 321.41 8.79067 321.41 10.032C321.41 11.9827 320.939 13.532 319.996 14.68C319.063 15.828 317.761 16.4813 316.09 16.64L315.894 15.702C317.033 15.5807 317.947 15.2213 318.638 14.624C319.329 14.0173 319.823 13.1633 320.122 12.062L320.094 12.048C319.441 12.776 318.591 13.14 317.546 13.14C316.51 13.14 315.689 12.8367 315.082 12.23C314.475 11.614 314.172 10.774 314.172 9.71C314.172 8.62733 314.499 7.764 315.152 7.12C315.815 6.46667 316.692 6.14 317.784 6.14ZM317.784 7.078C316.991 7.078 316.375 7.30667 315.936 7.764C315.507 8.22133 315.292 8.87 315.292 9.71C315.292 10.5127 315.516 11.1427 315.964 11.6C316.412 12.048 317.019 12.272 317.784 12.272C318.503 12.272 319.095 12.034 319.562 11.558C320.029 11.082 320.262 10.466 320.262 9.71C320.262 8.87933 320.043 8.23533 319.604 7.778C319.165 7.31133 318.559 7.078 317.784 7.078Z" fill="#E3E3E3"/>
<path d="M283.948 7.092C283.024 7.092 282.1 7.414 281.176 8.058L280.84 7.162C281.792 6.48067 282.875 6.14 284.088 6.14C285.087 6.14 285.862 6.39667 286.412 6.91C286.963 7.414 287.238 8.12333 287.238 9.038C287.238 9.95267 286.907 10.8767 286.244 11.81C285.582 12.7433 284.34 13.9847 282.52 15.534V15.562H287.28V16.5H280.98V15.562C282.968 13.9193 284.312 12.6407 285.012 11.726C285.722 10.802 286.076 9.934 286.076 9.122C286.076 8.45933 285.894 7.95533 285.53 7.61C285.176 7.26467 284.648 7.092 283.948 7.092ZM292.826 6.14C295.29 6.14 296.522 7.89 296.522 11.39C296.522 14.89 295.29 16.64 292.826 16.64C291.659 16.64 290.754 16.234 290.11 15.422C289.466 14.61 289.144 13.266 289.144 11.39C289.144 9.514 289.466 8.17 290.11 7.358C290.754 6.546 291.659 6.14 292.826 6.14ZM290.894 14.708C291.323 15.3893 291.967 15.73 292.826 15.73C293.685 15.73 294.329 15.3893 294.758 14.708C295.187 14.0173 295.402 12.9113 295.402 11.39C295.402 9.86867 295.187 8.76733 294.758 8.086C294.329 7.39533 293.685 7.05 292.826 7.05C291.967 7.05 291.323 7.39533 290.894 8.086C290.474 8.76733 290.264 9.86867 290.264 11.39C290.264 12.9113 290.474 14.0173 290.894 14.708Z" fill="#E3E3E3"/>
<path d="M184.948 7.092C184.024 7.092 183.1 7.414 182.176 8.058L181.84 7.162C182.792 6.48067 183.875 6.14 185.088 6.14C186.087 6.14 186.862 6.39667 187.412 6.91C187.963 7.414 188.238 8.12333 188.238 9.038C188.238 9.95267 187.907 10.8767 187.244 11.81C186.582 12.7433 185.34 13.9847 183.52 15.534V15.562H188.28V16.5H181.98V15.562C183.968 13.9193 185.312 12.6407 186.012 11.726C186.722 10.802 187.076 9.934 187.076 9.122C187.076 8.45933 186.894 7.95533 186.53 7.61C186.176 7.26467 185.648 7.092 184.948 7.092ZM194.61 13.21V7.918H194.582L190.858 13.182V13.21H194.61ZM195.716 13.21H197.452V14.12H195.716V16.5H194.61V14.12H189.71V13.21L194.61 6.28H195.716V13.21Z" fill="#E3E3E3"/>
<path d="M159.448 7.092C158.524 7.092 157.6 7.414 156.676 8.058L156.34 7.162C157.292 6.48067 158.375 6.14 159.588 6.14C160.587 6.14 161.362 6.39667 161.912 6.91C162.463 7.414 162.738 8.12333 162.738 9.038C162.738 9.95267 162.407 10.8767 161.744 11.81C161.082 12.7433 159.84 13.9847 158.02 15.534V15.562H162.78V16.5H156.48V15.562C158.468 13.9193 159.812 12.6407 160.512 11.726C161.222 10.802 161.576 9.934 161.576 9.122C161.576 8.45933 161.394 7.95533 161.03 7.61C160.676 7.26467 160.148 7.092 159.448 7.092ZM171.168 7.218H166.744L166.548 10.522H166.576C167.127 10.1953 167.747 10.032 168.438 10.032C169.437 10.032 170.211 10.3027 170.762 10.844C171.313 11.3853 171.588 12.1507 171.588 13.14C171.588 14.2787 171.266 15.1467 170.622 15.744C169.987 16.3413 169.054 16.64 167.822 16.64C166.87 16.64 165.993 16.416 165.19 15.968L165.47 15.044C166.254 15.4827 167.038 15.702 167.822 15.702C169.586 15.702 170.468 14.848 170.468 13.14C170.468 12.4213 170.277 11.8753 169.894 11.502C169.511 11.1193 168.961 10.928 168.242 10.928C167.505 10.928 166.893 11.1427 166.408 11.572H165.428L165.736 6.28H171.168V7.218Z" fill="#E3E3E3"/>
<path d="M9.00836 6.28H15.1404V7.218L11.7804 10.508V10.536H12.2144C13.2037 10.536 13.9597 10.774 14.4824 11.25C15.0144 11.726 15.2804 12.4167 15.2804 13.322C15.2804 14.386 14.963 15.2073 14.3284 15.786C13.703 16.3553 12.807 16.64 11.6404 16.64C10.6324 16.64 9.74569 16.3973 8.98036 15.912L9.31636 15.002C10.1004 15.4687 10.875 15.702 11.6404 15.702C12.4617 15.702 13.087 15.5013 13.5164 15.1C13.9457 14.6987 14.1604 14.106 14.1604 13.322C14.1604 12.6593 13.9364 12.1693 13.4884 11.852C13.0497 11.5253 12.345 11.362 11.3744 11.362H10.3524V10.494L13.6984 7.246V7.218H9.00836V6.28ZM20.854 16.5V7.624H20.826L18.068 10.172L17.634 9.262L20.854 6.28H21.974V16.5H20.854Z" fill="#E3E3E3"/>
<path d="M690.526 36.704C690.106 36.1813 689.527 35.92 688.79 35.92C688.052 35.92 687.469 36.1813 687.04 36.704C686.62 37.2173 686.41 37.936 686.41 38.86C686.41 39.784 686.62 40.5073 687.04 41.03C687.469 41.5433 688.052 41.8 688.79 41.8C689.527 41.8 690.106 41.5433 690.526 41.03C690.955 40.5073 691.17 39.784 691.17 38.86C691.17 37.936 690.955 37.2173 690.526 36.704ZM691.282 41.618C690.656 42.2993 689.826 42.64 688.79 42.64C687.754 42.64 686.923 42.2993 686.298 41.618C685.672 40.9367 685.36 40.0173 685.36 38.86C685.36 37.7027 685.672 36.7833 686.298 36.102C686.923 35.4207 687.754 35.08 688.79 35.08C689.826 35.08 690.656 35.4207 691.282 36.102C691.907 36.7833 692.22 37.7027 692.22 38.86C692.22 40.0173 691.907 40.9367 691.282 41.618ZM697.236 42.64C696.182 42.64 695.398 42.2153 694.884 41.366H694.856V45.58H693.834V35.22H694.814L694.828 36.452H694.856C695.37 35.5373 696.163 35.08 697.236 35.08C698.151 35.08 698.87 35.4067 699.392 36.06C699.915 36.704 700.176 37.6373 700.176 38.86C700.176 40.0547 699.906 40.9833 699.364 41.646C698.832 42.3087 698.123 42.64 697.236 42.64ZM699.168 38.86C699.168 37.908 698.977 37.18 698.594 36.676C698.221 36.172 697.694 35.92 697.012 35.92C696.368 35.92 695.846 36.172 695.444 36.676C695.052 37.18 694.856 37.8753 694.856 38.762V38.958C694.856 39.8633 695.057 40.5633 695.458 41.058C695.86 41.5527 696.378 41.8 697.012 41.8C697.675 41.8 698.198 41.548 698.58 41.044C698.972 40.5307 699.168 39.8027 699.168 38.86ZM705.188 35.934C704.367 35.934 703.728 36.1907 703.27 36.704C702.813 37.208 702.584 37.9267 702.584 38.86C702.584 39.756 702.822 40.47 703.298 41.002C703.784 41.534 704.414 41.8 705.188 41.8C705.842 41.8 706.467 41.6413 707.064 41.324L707.344 42.15C706.644 42.4767 705.912 42.64 705.146 42.64C704.064 42.64 703.186 42.2993 702.514 41.618C701.842 40.9273 701.506 40.008 701.506 38.86C701.506 37.6747 701.828 36.7507 702.472 36.088C703.116 35.416 704.008 35.08 705.146 35.08C705.912 35.08 706.644 35.2433 707.344 35.57L707.064 36.424C706.439 36.0973 705.814 35.934 705.188 35.934ZM713.987 36.704C713.567 36.1813 712.988 35.92 712.251 35.92C711.513 35.92 710.93 36.1813 710.501 36.704C710.081 37.2173 709.871 37.936 709.871 38.86C709.871 39.784 710.081 40.5073 710.501 41.03C710.93 41.5433 711.513 41.8 712.251 41.8C712.988 41.8 713.567 41.5433 713.987 41.03C714.416 40.5073 714.631 39.784 714.631 38.86C714.631 37.936 714.416 37.2173 713.987 36.704ZM714.743 41.618C714.117 42.2993 713.287 42.64 712.251 42.64C711.215 42.64 710.384 42.2993 709.759 41.618C709.133 40.9367 708.821 40.0173 708.821 38.86C708.821 37.7027 709.133 36.7833 709.759 36.102C710.384 35.4207 711.215 35.08 712.251 35.08C713.287 35.08 714.117 35.4207 714.743 36.102C715.368 36.7833 715.681 37.7027 715.681 38.86C715.681 40.0173 715.368 40.9367 714.743 41.618ZM718.594 36.69C718.211 37.194 718.02 37.9173 718.02 38.86C718.02 39.8027 718.216 40.5307 718.608 41.044C719 41.548 719.527 41.8 720.19 41.8C720.825 41.8 721.338 41.5527 721.73 41.058C722.131 40.5633 722.332 39.8633 722.332 38.958V38.762C722.332 37.8753 722.131 37.18 721.73 36.676C721.338 36.172 720.825 35.92 720.19 35.92C719.509 35.92 718.977 36.1767 718.594 36.69ZM717.012 38.86C717.012 37.6373 717.273 36.704 717.796 36.06C718.319 35.4067 719.037 35.08 719.952 35.08C721.007 35.08 721.791 35.5233 722.304 36.41H722.332V32H723.354V42.5H722.374L722.36 41.268H722.332C721.819 42.1827 721.025 42.64 719.952 42.64C719.056 42.64 718.342 42.3133 717.81 41.66C717.278 40.9973 717.012 40.064 717.012 38.86ZM726.086 39.252C726.104 40.0453 726.347 40.6707 726.814 41.128C727.28 41.5853 727.887 41.814 728.634 41.814C729.352 41.814 730.066 41.6273 730.776 41.254L731.056 42.052C730.272 42.444 729.432 42.64 728.536 42.64C727.49 42.64 726.646 42.2993 726.002 41.618C725.358 40.9367 725.036 40.0173 725.036 38.86C725.036 37.684 725.334 36.76 725.932 36.088C726.538 35.416 727.36 35.08 728.396 35.08C729.404 35.08 730.183 35.402 730.734 36.046C731.294 36.6807 731.574 37.5953 731.574 38.79C731.574 38.9113 731.564 39.0653 731.546 39.252H726.086ZM726.086 38.44H730.566C730.556 37.628 730.36 37.0027 729.978 36.564C729.595 36.1253 729.068 35.906 728.396 35.906C727.696 35.906 727.14 36.13 726.73 36.578C726.328 37.0167 726.114 37.6373 726.086 38.44Z" fill="#E3E3E3"/>
<path d="M554.968 35.22H555.962L555.99 36.774H556.018C556.839 35.6447 557.997 35.08 559.49 35.08V35.962C558.454 35.962 557.614 36.2467 556.97 36.816C556.335 37.3853 556.018 38.1227 556.018 39.028V42.5H554.968V35.22ZM562.2 36.69C561.818 37.194 561.626 37.9173 561.626 38.86C561.626 39.8027 561.822 40.5307 562.214 41.044C562.606 41.548 563.134 41.8 563.796 41.8C564.431 41.8 564.944 41.5527 565.336 41.058C565.738 40.5633 565.938 39.8633 565.938 38.958V38.762C565.938 37.8753 565.738 37.18 565.336 36.676C564.944 36.172 564.431 35.92 563.796 35.92C563.115 35.92 562.583 36.1767 562.2 36.69ZM560.618 38.86C560.618 37.6373 560.88 36.704 561.402 36.06C561.925 35.4067 562.644 35.08 563.558 35.08C564.613 35.08 565.397 35.5233 565.91 36.41H565.938V32H566.96V42.5H565.98L565.966 41.268H565.938C565.425 42.1827 564.632 42.64 563.558 42.64C562.662 42.64 561.948 42.3133 561.416 41.66C560.884 40.9973 560.618 40.064 560.618 38.86Z" fill="#E3E3E3"/>
<path d="M439.363 35.5H441.281V34.562C441.281 32.9473 442.055 32.14 443.605 32.14C444.034 32.14 444.473 32.21 444.921 32.35L444.697 33.19C444.351 33.05 444.02 32.98 443.703 32.98C443.199 32.98 442.839 33.1013 442.625 33.344C442.419 33.5773 442.317 33.9833 442.317 34.562V35.5H444.823V36.34H442.317V42.5H441.281V36.34H439.363V35.5ZM447.471 35.22V39.742C447.471 40.4887 447.593 41.0113 447.835 41.31C448.087 41.6087 448.503 41.758 449.081 41.758C449.623 41.758 450.113 41.4967 450.551 40.974C450.999 40.4513 451.223 39.8307 451.223 39.112V35.22H452.245V42.5H451.265L451.251 41.198H451.223C450.943 41.646 450.584 42.0007 450.145 42.262C449.716 42.514 449.249 42.64 448.745 42.64C447.961 42.64 447.383 42.4207 447.009 41.982C446.645 41.534 446.463 40.82 446.463 39.84V35.22H447.471ZM454.34 35.22H455.32L455.334 36.522H455.362C455.642 36.074 455.997 35.724 456.426 35.472C456.865 35.2107 457.336 35.08 457.84 35.08C458.661 35.08 459.268 35.3367 459.66 35.85C460.061 36.354 460.262 37.1567 460.262 38.258V42.5H459.254V38.342C459.254 37.4367 459.123 36.8113 458.862 36.466C458.601 36.1113 458.153 35.934 457.518 35.934C456.977 35.934 456.482 36.2047 456.034 36.746C455.586 37.278 455.362 37.8987 455.362 38.608V42.5H454.34V35.22ZM465.489 35.934C464.668 35.934 464.028 36.1907 463.571 36.704C463.114 37.208 462.885 37.9267 462.885 38.86C462.885 39.756 463.123 40.47 463.599 41.002C464.084 41.534 464.714 41.8 465.489 41.8C466.142 41.8 466.768 41.6413 467.365 41.324L467.645 42.15C466.945 42.4767 466.212 42.64 465.447 42.64C464.364 42.64 463.487 42.2993 462.815 41.618C462.143 40.9273 461.807 40.008 461.807 38.86C461.807 37.6747 462.129 36.7507 462.773 36.088C463.417 35.416 464.308 35.08 465.447 35.08C466.212 35.08 466.945 35.2433 467.645 35.57L467.365 36.424C466.74 36.0973 466.114 35.934 465.489 35.934ZM471.922 32.84V35.5H474.68V36.34H471.922V40.162C471.922 40.8153 472.01 41.254 472.188 41.478C472.365 41.6927 472.696 41.8 473.182 41.8C473.611 41.8 474.022 41.7207 474.414 41.562L474.582 42.388C474.106 42.556 473.592 42.64 473.042 42.64C472.248 42.64 471.688 42.472 471.362 42.136C471.035 41.7907 470.872 41.198 470.872 40.358V36.34H469.262V35.5H470.872V32.84H471.922ZM476.916 32.28H483.048V33.218L479.688 36.508V36.536H480.122C481.111 36.536 481.867 36.774 482.39 37.25C482.922 37.726 483.188 38.4167 483.188 39.322C483.188 40.386 482.87 41.2073 482.236 41.786C481.61 42.3553 480.714 42.64 479.548 42.64C478.54 42.64 477.653 42.3973 476.888 41.912L477.224 41.002C478.008 41.4687 478.782 41.702 479.548 41.702C480.369 41.702 480.994 41.5013 481.424 41.1C481.853 40.6987 482.068 40.106 482.068 39.322C482.068 38.6593 481.844 38.1693 481.396 37.852C480.957 37.5253 480.252 37.362 479.282 37.362H478.26V36.494L481.606 33.246V33.218H476.916V32.28Z" fill="#E3E3E3"/>
<path d="M352.695 35.22H353.689L353.717 36.774H353.745C354.566 35.6447 355.723 35.08 357.217 35.08V35.962C356.181 35.962 355.341 36.2467 354.697 36.816C354.062 37.3853 353.745 38.1227 353.745 39.028V42.5H352.695V35.22ZM361.173 35.08C362.06 35.08 362.881 35.2667 363.637 35.64L363.413 36.466C362.694 36.102 361.948 35.92 361.173 35.92C360.632 35.92 360.216 36.018 359.927 36.214C359.647 36.41 359.507 36.6853 359.507 37.04C359.507 37.376 359.628 37.642 359.871 37.838C360.123 38.034 360.576 38.188 361.229 38.3C362.181 38.4587 362.862 38.72 363.273 39.084C363.693 39.448 363.903 39.9473 363.903 40.582C363.903 41.2167 363.66 41.7207 363.175 42.094C362.699 42.458 362.032 42.64 361.173 42.64C360.174 42.64 359.278 42.4067 358.485 41.94L358.723 41.114C359.488 41.5713 360.305 41.8 361.173 41.8C361.714 41.8 362.13 41.6973 362.419 41.492C362.708 41.2773 362.853 40.974 362.853 40.582C362.853 40.2087 362.722 39.9193 362.461 39.714C362.209 39.5087 361.761 39.35 361.117 39.238C360.193 39.0793 359.521 38.8273 359.101 38.482C358.69 38.1273 358.485 37.6467 358.485 37.04C358.485 36.4427 358.718 35.9667 359.185 35.612C359.661 35.2573 360.324 35.08 361.173 35.08ZM369.028 42.5V33.624H369L366.242 36.172L365.808 35.262L369.028 32.28H370.148V42.5H369.028Z" fill="#E3E3E3"/>
<path d="M228.195 35.22H229.189L229.217 36.774H229.245C230.066 35.6447 231.223 35.08 232.717 35.08V35.962C231.681 35.962 230.841 36.2467 230.197 36.816C229.562 37.3853 229.245 38.1227 229.245 39.028V42.5H228.195V35.22ZM236.673 35.08C237.56 35.08 238.381 35.2667 239.137 35.64L238.913 36.466C238.194 36.102 237.448 35.92 236.673 35.92C236.132 35.92 235.716 36.018 235.427 36.214C235.147 36.41 235.007 36.6853 235.007 37.04C235.007 37.376 235.128 37.642 235.371 37.838C235.623 38.034 236.076 38.188 236.729 38.3C237.681 38.4587 238.362 38.72 238.773 39.084C239.193 39.448 239.403 39.9473 239.403 40.582C239.403 41.2167 239.16 41.7207 238.675 42.094C238.199 42.458 237.532 42.64 236.673 42.64C235.674 42.64 234.778 42.4067 233.985 41.94L234.223 41.114C234.988 41.5713 235.805 41.8 236.673 41.8C237.214 41.8 237.63 41.6973 237.919 41.492C238.208 41.2773 238.353 40.974 238.353 40.582C238.353 40.2087 238.222 39.9193 237.961 39.714C237.709 39.5087 237.261 39.35 236.617 39.238C235.693 39.0793 235.021 38.8273 234.601 38.482C234.19 38.1273 233.985 37.6467 233.985 37.04C233.985 36.4427 234.218 35.9667 234.685 35.612C235.161 35.2573 235.824 35.08 236.673 35.08ZM244.304 33.092C243.38 33.092 242.456 33.414 241.532 34.058L241.196 33.162C242.148 32.4807 243.23 32.14 244.444 32.14C245.442 32.14 246.217 32.3967 246.768 32.91C247.318 33.414 247.594 34.1233 247.594 35.038C247.594 35.9527 247.262 36.8767 246.6 37.81C245.937 38.7433 244.696 39.9847 242.876 41.534V41.562H247.636V42.5H241.336V41.562C243.324 39.9193 244.668 38.6407 245.368 37.726C246.077 36.802 246.432 35.934 246.432 35.122C246.432 34.4593 246.25 33.9553 245.886 33.61C245.531 33.2647 245.004 33.092 244.304 33.092Z" fill="#E3E3E3"/>
<path d="M67.8628 35.5H69.7808V34.562C69.7808 32.9473 70.5554 32.14 72.1048 32.14C72.5341 32.14 72.9728 32.21 73.4208 32.35L73.1968 33.19C72.8514 33.05 72.5201 32.98 72.2028 32.98C71.6988 32.98 71.3394 33.1013 71.1248 33.344C70.9194 33.5773 70.8168 33.9833 70.8168 34.562V35.5H73.3228V36.34H70.8168V42.5H69.7808V36.34H67.8628V35.5ZM75.9714 35.22V39.742C75.9714 40.4887 76.0927 41.0113 76.3354 41.31C76.5874 41.6087 77.0027 41.758 77.5814 41.758C78.1227 41.758 78.6127 41.4967 79.0514 40.974C79.4994 40.4513 79.7234 39.8307 79.7234 39.112V35.22H80.7454V42.5H79.7654L79.7514 41.198H79.7234C79.4434 41.646 79.0841 42.0007 78.6454 42.262C78.2161 42.514 77.7494 42.64 77.2454 42.64C76.4614 42.64 75.8827 42.4207 75.5094 41.982C75.1454 41.534 74.9634 40.82 74.9634 39.84V35.22H75.9714ZM82.84 35.22H83.82L83.834 36.522H83.862C84.142 36.074 84.4967 35.724 84.926 35.472C85.3647 35.2107 85.836 35.08 86.34 35.08C87.1614 35.08 87.768 35.3367 88.16 35.85C88.5614 36.354 88.762 37.1567 88.762 38.258V42.5H87.754V38.342C87.754 37.4367 87.6234 36.8113 87.362 36.466C87.1007 36.1113 86.6527 35.934 86.018 35.934C85.4767 35.934 84.982 36.2047 84.534 36.746C84.086 37.278 83.862 37.8987 83.862 38.608V42.5H82.84V35.22ZM93.9891 35.934C93.1677 35.934 92.5284 36.1907 92.0711 36.704C91.6137 37.208 91.3851 37.9267 91.3851 38.86C91.3851 39.756 91.6231 40.47 92.0991 41.002C92.5844 41.534 93.2144 41.8 93.9891 41.8C94.6424 41.8 95.2677 41.6413 95.8651 41.324L96.1451 42.15C95.4451 42.4767 94.7124 42.64 93.9471 42.64C92.8644 42.64 91.9871 42.2993 91.3151 41.618C90.6431 40.9273 90.3071 40.008 90.3071 38.86C90.3071 37.6747 90.6291 36.7507 91.2731 36.088C91.9171 35.416 92.8084 35.08 93.9471 35.08C94.7124 35.08 95.4451 35.2433 96.1451 35.57L95.8651 36.424C95.2397 36.0973 94.6144 35.934 93.9891 35.934ZM100.422 32.84V35.5H103.18V36.34H100.422V40.162C100.422 40.8153 100.51 41.254 100.688 41.478C100.865 41.6927 101.196 41.8 101.682 41.8C102.111 41.8 102.522 41.7207 102.914 41.562L103.082 42.388C102.606 42.556 102.092 42.64 101.542 42.64C100.748 42.64 100.188 42.472 99.8615 42.136C99.5349 41.7907 99.3715 41.198 99.3715 40.358V36.34H97.7615V35.5H99.3715V32.84H100.422ZM105.318 32.28H111.898V33.218C110.264 35.8967 108.911 38.9907 107.838 42.5H106.676C107.758 39.0933 109.135 36.0087 110.806 33.246V33.218H105.318V32.28Z" fill="#E3E3E3"/>
<path d="M705.751 56.28H712.331V57.218C710.698 59.8967 709.345 62.9907 708.271 66.5H707.109C708.192 63.0933 709.569 60.0087 711.239 57.246V57.218H705.751V56.28Z" fill="#E3E3E3"/>
<path d="M685.419 71.05C684.775 71.05 684.276 71.1947 683.921 71.484C683.567 71.764 683.389 72.156 683.389 72.66C683.389 73.5653 684.052 74.2187 685.377 74.62C686.535 74.956 687.356 75.376 687.841 75.88C688.336 76.384 688.583 77.0373 688.583 77.84C688.583 78.7453 688.299 79.4407 687.729 79.926C687.169 80.402 686.367 80.64 685.321 80.64C684.164 80.64 683.137 80.346 682.241 79.758L682.577 78.834C683.389 79.4127 684.304 79.702 685.321 79.702C686.012 79.702 686.539 79.5433 686.903 79.226C687.277 78.9087 687.463 78.4467 687.463 77.84C687.463 77.28 687.305 76.8367 686.987 76.51C686.679 76.174 686.133 75.8847 685.349 75.642C683.305 75.0353 682.283 74.0413 682.283 72.66C682.283 71.8947 682.559 71.2833 683.109 70.826C683.669 70.3687 684.439 70.14 685.419 70.14C686.474 70.14 687.454 70.3593 688.359 70.798L688.079 71.666C687.267 71.2553 686.381 71.05 685.419 71.05ZM690.602 70.28L693.556 75.236H693.584L696.552 70.28H697.826L694.144 76.174V80.5H692.968V76.174L689.286 70.28H690.602ZM701.497 71.05C700.853 71.05 700.354 71.1947 699.999 71.484C699.645 71.764 699.467 72.156 699.467 72.66C699.467 73.5653 700.13 74.2187 701.455 74.62C702.613 74.956 703.434 75.376 703.919 75.88C704.414 76.384 704.661 77.0373 704.661 77.84C704.661 78.7453 704.377 79.4407 703.807 79.926C703.247 80.402 702.445 80.64 701.399 80.64C700.242 80.64 699.215 80.346 698.319 79.758L698.655 78.834C699.467 79.4127 700.382 79.702 701.399 79.702C702.09 79.702 702.617 79.5433 702.981 79.226C703.355 78.9087 703.541 78.4467 703.541 77.84C703.541 77.28 703.383 76.8367 703.065 76.51C702.757 76.174 702.211 75.8847 701.427 75.642C699.383 75.0353 698.361 74.0413 698.361 72.66C698.361 71.8947 698.637 71.2833 699.187 70.826C699.747 70.3687 700.517 70.14 701.497 70.14C702.552 70.14 703.532 70.3593 704.437 70.798L704.157 71.666C703.345 71.2553 702.459 71.05 701.497 71.05ZM706.071 70.28H713.533V71.232H710.369V80.5H709.249V71.232H706.071V70.28ZM716.688 71.218V74.55H721.266V75.446H716.688V79.562H721.546V80.5H715.568V70.28H721.546V71.218H716.688ZM723.785 80.5V70.28H724.919L728.559 76.44H728.587L732.227 70.28H733.403V80.5H732.283V72.156H732.255L729.091 77.462H728.055L724.891 72.156H724.863V80.5H723.785Z" fill="#E3E3E3"/>
<path d="M563.327 57.218H558.903L558.707 60.522H558.735C559.286 60.1953 559.907 60.032 560.597 60.032C561.596 60.032 562.371 60.3027 562.921 60.844C563.472 61.3853 563.747 62.1507 563.747 63.14C563.747 64.2787 563.425 65.1467 562.781 65.744C562.147 66.3413 561.213 66.64 559.981 66.64C559.029 66.64 558.152 66.416 557.349 65.968L557.629 65.044C558.413 65.4827 559.197 65.702 559.981 65.702C561.745 65.702 562.627 64.848 562.627 63.14C562.627 62.4213 562.436 61.8753 562.053 61.502C561.671 61.1193 561.12 60.928 560.401 60.928C559.664 60.928 559.053 61.1427 558.567 61.572H557.587L557.895 56.28H563.327V57.218Z" fill="#E3E3E3"/>
<path d="M560.485 70.14C562.949 70.14 564.181 71.89 564.181 75.39C564.181 78.89 562.949 80.64 560.485 80.64C559.319 80.64 558.413 80.234 557.769 79.422C557.125 78.61 556.803 77.266 556.803 75.39C556.803 73.514 557.125 72.17 557.769 71.358C558.413 70.546 559.319 70.14 560.485 70.14ZM558.553 78.708C558.983 79.3893 559.627 79.73 560.485 79.73C561.344 79.73 561.988 79.3893 562.417 78.708C562.847 78.0173 563.061 76.9113 563.061 75.39C563.061 73.8687 562.847 72.7673 562.417 72.086C561.988 71.3953 561.344 71.05 560.485 71.05C559.627 71.05 558.983 71.3953 558.553 72.086C558.133 72.7673 557.923 73.8687 557.923 75.39C557.923 76.9113 558.133 78.0173 558.553 78.708Z" fill="#E3E3E3"/>
<path d="M458.349 56.28H464.481V57.218L461.121 60.508V60.536H461.555C462.545 60.536 463.301 60.774 463.823 61.25C464.355 61.726 464.621 62.4167 464.621 63.322C464.621 64.386 464.304 65.2073 463.669 65.786C463.044 66.3553 462.148 66.64 460.981 66.64C459.973 66.64 459.087 66.3973 458.321 65.912L458.657 65.002C459.441 65.4687 460.216 65.702 460.981 65.702C461.803 65.702 462.428 65.5013 462.857 65.1C463.287 64.6987 463.501 64.106 463.501 63.322C463.501 62.6593 463.277 62.1693 462.829 61.852C462.391 61.5253 461.686 61.362 460.715 61.362H459.693V60.494L463.039 57.246V57.218H458.349V56.28Z" fill="#E3E3E3"/>
<path d="M447.077 70.364C448.047 70.2147 448.995 70.14 449.919 70.14C451.188 70.14 452.149 70.4107 452.803 70.952C453.465 71.484 453.797 72.2493 453.797 73.248C453.797 74.3307 453.465 75.152 452.803 75.712C452.14 76.272 451.179 76.552 449.919 76.552C449.303 76.552 448.729 76.524 448.197 76.468V80.5H447.077V70.364ZM448.197 75.544C448.738 75.6187 449.284 75.656 449.835 75.656C450.759 75.656 451.463 75.4553 451.949 75.054C452.443 74.6527 452.691 74.0787 452.691 73.332C452.691 72.5853 452.448 72.0207 451.963 71.638C451.487 71.246 450.777 71.05 449.835 71.05C449.321 71.05 448.775 71.0967 448.197 71.19V75.544ZM455.471 80.5V70.35C456.283 70.21 457.156 70.14 458.089 70.14C459.396 70.14 460.381 70.3827 461.043 70.868C461.715 71.344 462.051 72.0253 462.051 72.912C462.051 73.6213 461.86 74.214 461.477 74.69C461.095 75.166 460.553 75.4927 459.853 75.67V75.698C460.273 75.922 460.689 76.5287 461.099 77.518L462.331 80.5H461.169L459.965 77.546C459.685 76.874 459.419 76.4587 459.167 76.3C458.925 76.132 458.439 76.048 457.711 76.048H456.591V80.5H455.471ZM456.591 75.152H457.711C458.822 75.152 459.639 74.9747 460.161 74.62C460.684 74.256 460.945 73.7193 460.945 73.01C460.945 71.7033 459.961 71.05 457.991 71.05C457.497 71.05 457.03 71.092 456.591 71.176V75.152ZM464.573 80.5V70.28H465.791V80.5H464.573ZM469.1 70.28L472.264 79.394H472.292L475.456 70.28H476.618L472.894 80.5H471.634L467.896 70.28H469.1Z" fill="#E3E3E3"/>
<path d="M365.327 57.218H360.903L360.707 60.522H360.735C361.286 60.1953 361.907 60.032 362.597 60.032C363.596 60.032 364.371 60.3027 364.921 60.844C365.472 61.3853 365.747 62.1507 365.747 63.14C365.747 64.2787 365.425 65.1467 364.781 65.744C364.147 66.3413 363.213 66.64 361.981 66.64C361.029 66.64 360.152 66.416 359.349 65.968L359.629 65.044C360.413 65.4827 361.197 65.702 361.981 65.702C363.745 65.702 364.627 64.848 364.627 63.14C364.627 62.4213 364.436 61.8753 364.053 61.502C363.671 61.1193 363.12 60.928 362.401 60.928C361.664 60.928 361.053 61.1427 360.567 61.572H359.587L359.895 56.28H365.327V57.218Z" fill="#E3E3E3"/>
<path d="M344.709 73.22L346.977 79.87H347.005L349.259 73.22H350.379L347.691 80.5H346.249L343.561 73.22H344.709ZM354.438 73.08C355.455 73.08 356.183 73.29 356.622 73.71C357.06 74.13 357.28 74.8207 357.28 75.782V78.54C357.28 79.2027 357.35 79.856 357.49 80.5H356.51C356.435 80.136 356.388 79.7067 356.37 79.212H356.342C356.09 79.66 355.726 80.01 355.25 80.262C354.774 80.514 354.237 80.64 353.64 80.64C352.968 80.64 352.431 80.4533 352.03 80.08C351.628 79.6973 351.428 79.184 351.428 78.54C351.428 77.728 351.782 77.084 352.492 76.608C353.201 76.1227 354.209 75.88 355.516 75.88H356.258V75.81C356.258 75.1007 356.122 74.6107 355.852 74.34C355.59 74.06 355.119 73.92 354.438 73.92C353.56 73.92 352.744 74.1347 351.988 74.564L351.806 73.738C352.608 73.2993 353.486 73.08 354.438 73.08ZM352.436 78.498C352.436 78.918 352.566 79.2493 352.828 79.492C353.089 79.7253 353.439 79.842 353.878 79.842C354.522 79.842 355.077 79.6133 355.544 79.156C356.02 78.6893 356.258 78.12 356.258 77.448V76.664H355.516C354.536 76.664 353.775 76.832 353.234 77.168C352.702 77.4947 352.436 77.938 352.436 78.498ZM360.609 74.69C360.227 75.194 360.035 75.9173 360.035 76.86C360.035 77.8027 360.231 78.5307 360.623 79.044C361.015 79.548 361.543 79.8 362.205 79.8C362.84 79.8 363.353 79.5527 363.745 79.058C364.147 78.5633 364.347 77.8633 364.347 76.958V76.762C364.347 75.8753 364.147 75.18 363.745 74.676C363.353 74.172 362.84 73.92 362.205 73.92C361.524 73.92 360.992 74.1767 360.609 74.69ZM359.027 76.86C359.027 75.6373 359.289 74.704 359.811 74.06C360.334 73.4067 361.053 73.08 361.967 73.08C363.022 73.08 363.806 73.5233 364.319 74.41H364.347V70H365.369V80.5H364.389L364.375 79.268H364.347C363.834 80.1827 363.041 80.64 361.967 80.64C361.071 80.64 360.357 80.3133 359.825 79.66C359.293 78.9973 359.027 78.064 359.027 76.86ZM368.703 74.69C368.321 75.194 368.129 75.9173 368.129 76.86C368.129 77.8027 368.325 78.5307 368.717 79.044C369.109 79.548 369.637 79.8 370.299 79.8C370.934 79.8 371.447 79.5527 371.839 79.058C372.241 78.5633 372.441 77.8633 372.441 76.958V76.762C372.441 75.8753 372.241 75.18 371.839 74.676C371.447 74.172 370.934 73.92 370.299 73.92C369.618 73.92 369.086 74.1767 368.703 74.69ZM367.121 76.86C367.121 75.6373 367.383 74.704 367.905 74.06C368.428 73.4067 369.147 73.08 370.061 73.08C371.116 73.08 371.9 73.5233 372.413 74.41H372.441V70H373.463V80.5H372.483L372.469 79.268H372.441C371.928 80.1827 371.135 80.64 370.061 80.64C369.165 80.64 368.451 80.3133 367.919 79.66C367.387 78.9973 367.121 78.064 367.121 76.86ZM375.635 73.22H376.629L376.657 74.774H376.685C377.506 73.6447 378.664 73.08 380.157 73.08V73.962C379.121 73.962 378.281 74.2467 377.637 74.816C377.002 75.3853 376.685 76.1227 376.685 77.028V80.5H375.635V73.22Z" fill="#E3E3E3"/>
<path d="M241.327 57.218H236.903L236.707 60.522H236.735C237.286 60.1953 237.907 60.032 238.597 60.032C239.596 60.032 240.371 60.3027 240.921 60.844C241.472 61.3853 241.747 62.1507 241.747 63.14C241.747 64.2787 241.425 65.1467 240.781 65.744C240.147 66.3413 239.213 66.64 237.981 66.64C237.029 66.64 236.152 66.416 235.349 65.968L235.629 65.044C236.413 65.4827 237.197 65.702 237.981 65.702C239.745 65.702 240.627 64.848 240.627 63.14C240.627 62.4213 240.436 61.8753 240.053 61.502C239.671 61.1193 239.12 60.928 238.401 60.928C237.664 60.928 237.053 61.1427 236.567 61.572H235.587L235.895 56.28H241.327V57.218Z" fill="#E3E3E3"/>
<path d="M229.271 73.08C230.288 73.08 231.016 73.29 231.455 73.71C231.893 74.13 232.113 74.8207 232.113 75.782V78.54C232.113 79.2027 232.183 79.856 232.323 80.5H231.343C231.268 80.136 231.221 79.7067 231.203 79.212H231.175C230.923 79.66 230.559 80.01 230.083 80.262C229.607 80.514 229.07 80.64 228.473 80.64C227.801 80.64 227.264 80.4533 226.863 80.08C226.461 79.6973 226.261 79.184 226.261 78.54C226.261 77.728 226.615 77.084 227.325 76.608C228.034 76.1227 229.042 75.88 230.349 75.88H231.091V75.81C231.091 75.1007 230.955 74.6107 230.685 74.34C230.423 74.06 229.952 73.92 229.271 73.92C228.393 73.92 227.577 74.1347 226.821 74.564L226.639 73.738C227.441 73.2993 228.319 73.08 229.271 73.08ZM227.269 78.498C227.269 78.918 227.399 79.2493 227.661 79.492C227.922 79.7253 228.272 79.842 228.711 79.842C229.355 79.842 229.91 79.6133 230.377 79.156C230.853 78.6893 231.091 78.12 231.091 77.448V76.664H230.349C229.369 76.664 228.608 76.832 228.067 77.168C227.535 77.4947 227.269 77.938 227.269 78.498ZM236.552 73.08C237.438 73.08 238.26 73.2667 239.016 73.64L238.792 74.466C238.073 74.102 237.326 73.92 236.552 73.92C236.01 73.92 235.595 74.018 235.306 74.214C235.026 74.41 234.886 74.6853 234.886 75.04C234.886 75.376 235.007 75.642 235.25 75.838C235.502 76.034 235.954 76.188 236.608 76.3C237.56 76.4587 238.241 76.72 238.652 77.084C239.072 77.448 239.282 77.9473 239.282 78.582C239.282 79.2167 239.039 79.7207 238.554 80.094C238.078 80.458 237.41 80.64 236.552 80.64C235.553 80.64 234.657 80.4067 233.864 79.94L234.102 79.114C234.867 79.5713 235.684 79.8 236.552 79.8C237.093 79.8 237.508 79.6973 237.798 79.492C238.087 79.2773 238.232 78.974 238.232 78.582C238.232 78.2087 238.101 77.9193 237.84 77.714C237.588 77.5087 237.14 77.35 236.496 77.238C235.572 77.0793 234.9 76.8273 234.48 76.482C234.069 76.1273 233.864 75.6467 233.864 75.04C233.864 74.4427 234.097 73.9667 234.564 73.612C235.04 73.2573 235.702 73.08 236.552 73.08ZM241.663 71.54V70H242.741V71.54H241.663ZM241.663 80.5V73.22H242.741V80.5H241.663ZM246.558 74.69C246.175 75.194 245.984 75.9173 245.984 76.86C245.984 77.8027 246.18 78.5307 246.572 79.044C246.964 79.548 247.491 79.8 248.154 79.8C248.788 79.8 249.302 79.5527 249.694 79.058C250.095 78.5633 250.296 77.8633 250.296 76.958V76.762C250.296 75.8753 250.095 75.18 249.694 74.676C249.302 74.172 248.788 73.92 248.154 73.92C247.472 73.92 246.94 74.1767 246.558 74.69ZM244.976 76.86C244.976 75.6373 245.237 74.704 245.76 74.06C246.282 73.4067 247.001 73.08 247.916 73.08C248.97 73.08 249.754 73.5233 250.268 74.41H250.296V70H251.318V80.5H250.338L250.324 79.268H250.296C249.782 80.1827 248.989 80.64 247.916 80.64C247.02 80.64 246.306 80.3133 245.774 79.66C245.242 78.9973 244.976 78.064 244.976 76.86Z" fill="#E3E3E3"/>
<path d="M87.7512 56.28H94.3312V57.218C92.6978 59.8967 91.3445 62.9907 90.2712 66.5H89.1092C90.1918 63.0933 91.5685 60.0087 93.2392 57.246V57.218H87.7512V56.28Z" fill="#E3E3E3"/>
<path d="M52.0063 71.05C51.3623 71.05 50.8629 71.1947 50.5083 71.484C50.1536 71.764 49.9763 72.156 49.9763 72.66C49.9763 73.5653 50.6389 74.2187 51.9643 74.62C53.1216 74.956 53.9429 75.376 54.4283 75.88C54.9229 76.384 55.1703 77.0373 55.1703 77.84C55.1703 78.7453 54.8856 79.4407 54.3163 79.926C53.7563 80.402 52.9536 80.64 51.9083 80.64C50.7509 80.64 49.7243 80.346 48.8283 79.758L49.1643 78.834C49.9763 79.4127 50.8909 79.702 51.9083 79.702C52.5989 79.702 53.1263 79.5433 53.4903 79.226C53.8636 78.9087 54.0503 78.4467 54.0503 77.84C54.0503 77.28 53.8916 76.8367 53.5743 76.51C53.2663 76.174 52.7203 75.8847 51.9363 75.642C49.8923 75.0353 48.8703 74.0413 48.8703 72.66C48.8703 71.8947 49.1456 71.2833 49.6963 70.826C50.2563 70.3687 51.0263 70.14 52.0063 70.14C53.0609 70.14 54.0409 70.3593 54.9463 70.798L54.6663 71.666C53.8543 71.2553 52.9676 71.05 52.0063 71.05ZM63.0417 71.218H58.3237V74.69H62.7617V75.586H58.3237V80.5H57.2037V70.28H63.0417V71.218ZM66.3354 71.218V74.55H70.9134V75.446H66.3354V79.562H71.1934V80.5H65.2154V70.28H71.1934V71.218H66.3354ZM73.4322 80.5V70.28H74.5942L79.9142 78.68H79.9422V70.28H81.0342V80.5H79.8862L74.5662 72.1H74.5382V80.5H73.4322ZM87.9627 71.078C86.7307 71.078 85.746 71.47 85.0087 72.254C84.2807 73.0287 83.9167 74.074 83.9167 75.39C83.9167 76.706 84.29 77.756 85.0367 78.54C85.7927 79.3147 86.768 79.702 87.9627 79.702C88.9333 79.702 89.834 79.436 90.6647 78.904L91.0427 79.744C90.128 80.3413 89.0687 80.64 87.8647 80.64C86.3247 80.64 85.0927 80.164 84.1687 79.212C83.2447 78.26 82.7827 76.986 82.7827 75.39C82.7827 73.7753 83.24 72.4967 84.1547 71.554C85.0693 70.6113 86.306 70.14 87.8647 70.14C89.0687 70.14 90.128 70.4387 91.0427 71.036L90.6647 71.876C89.834 71.344 88.9333 71.078 87.9627 71.078ZM94.267 71.218V74.55H98.845V75.446H94.267V79.562H99.125V80.5H93.147V70.28H99.125V71.218H94.267ZM101.504 80.5V78.54H102.806V80.5H101.504ZM104.288 70.28L107.452 79.394H107.48L110.644 70.28H111.806L108.082 80.5H106.822L103.084 70.28H104.288ZM113.491 80.5V70.28H114.625L118.265 76.44H118.293L121.933 70.28H123.109V80.5H121.989V72.156H121.961L118.797 77.462H117.761L114.597 72.156H114.569V80.5H113.491ZM124.795 80.5L128.533 70.28H129.793L133.517 80.5H132.327L131.291 77.518H126.979L125.957 80.5H124.795ZM127.287 76.622H130.983L129.149 71.288H129.121L127.287 76.622Z" fill="#E3E3E3"/>
</g>
<defs>
<clipPath id="clip0_2_3">
<rect width="800" height="84" fill="white"/>
</clipPath>
</defs>
</svg>
