<svg xmlns="http://www.w3.org/2000/svg" xmlns:xlink="http://www.w3.org/1999/xlink" width="351" height="213"><defs><path id="c" d="M.172 0h1.293l.996-2.824h3.973L7.43 0h1.293L5.059-9.863H3.844Zm4.266-8.387h.027L6.063-3.87H2.836Zm0 0"/><path id="e" d="M3.297.137c1.586 0 2.762-.875 2.762-2.121v-.004c0-1.012-.52-1.582-1.957-1.93l-1.13-.273c-.784-.192-1.105-.528-1.105-1.012v-.008c0-.629.531-1.043 1.395-1.043.883 0 1.406.457 1.504 1.149l.007.046h1.133l-.008-.09C5.813-6.335 4.82-7.245 3.262-7.245c-1.54 0-2.614.867-2.614 2.09v.008c0 1.027.653 1.648 1.993 1.968l1.125.274c.808.199 1.074.484 1.074 1v.004c0 .644-.574 1.047-1.54 1.047-.968 0-1.495-.418-1.64-1.13l-.012-.066H.457l.008.063C.609-.718 1.62.137 3.297.137m0 0"/><path id="f" d="M3.082.137c.234 0 .488-.028.637-.047v-.965c-.102.008-.239.027-.383.027-.637 0-.969-.21-.969-.972v-4.305H3.72v-.984H2.367v-1.922h-1.23v1.922H.097v.984h1.04v4.313c0 1.359.64 1.949 1.945 1.949m0 0"/><path id="g" d="M3.719.137c1.96 0 3.289-1.422 3.289-3.692v-.015c0-2.27-1.332-3.676-3.297-3.676C1.75-7.246.426-5.832.426-3.57v.015C.426-1.293 1.742.137 3.719.137m.008-1.055c-1.258 0-2.086-.96-2.086-2.637v-.015c0-1.66.836-2.625 2.07-2.625 1.258 0 2.078.957 2.078 2.625v.015c0 1.668-.812 2.637-2.062 2.637m0 0"/><path id="h" d="M.773 0h1.188v-4.39c0-1.079.601-1.723 1.527-1.723.285 0 .54.035.633.07v-1.156c-.094-.012-.273-.047-.476-.047-.801 0-1.415.52-1.657 1.34h-.027V-7.11H.773Zm0 0"/><path id="i" d="M3.7.137c1.55 0 2.714-.93 2.945-2.106l.015-.07H5.488l-.02.062c-.202.61-.84 1.059-1.741 1.059-1.266 0-2.07-.852-2.098-2.316h5.117v-.438c0-2.133-1.18-3.574-3.121-3.574s-3.2 1.512-3.2 3.71v.009C.426-1.293 1.657.137 3.7.137m-.083-6.332c1.04 0 1.805.652 1.922 2.03H1.65c.128-1.323.937-2.03 1.968-2.03m0 0"/><path id="j" d="M4.309.137c1.816 0 3.02-1.45 3.02-3.692v-.007c0-2.243-1.216-3.684-3-3.684-1.005 0-1.833.504-2.278 1.324h-.028v-3.941H.836V0h1.187v-1.203h.028c.445.828 1.238 1.34 2.258 1.34M4.074-.918c-1.203 0-2.058-1.043-2.058-2.637v-.007c0-1.586.863-2.633 2.058-2.633 1.258 0 2.04 1.011 2.04 2.633v.007c0 1.633-.782 2.637-2.04 2.637m0 0"/><path id="k" d="M3.2.137c1.081 0 1.804-.485 2.187-1.149h.027V0h1.191v-7.11h-1.19v4.184c0 1.211-.731 2.008-1.852 2.008-1.094 0-1.633-.633-1.633-1.789v-4.402H.738v4.613C.738-.875 1.641.137 3.2.137m0 0"/><path id="l" d="M1.156 0h1.188v-6.125h1.449v-.984H2.332v-.868c0-.707.328-1.039.984-1.039.184 0 .368.004.512.028v-.965A5 5 0 0 0 3.105-10c-1.312 0-1.949.648-1.949 2.016v.875H.164v.984h.992Zm0 0"/><path id="m" d="M2.18 0h1.21l1.602-5.504h.028L6.625 0h1.21l1.981-7.11H8.641L7.219-1.327H7.19L5.578-7.11H4.43L2.824-1.33h-.027l-1.422-5.78H.191Zm0 0"/><path id="n" d="M2.852.137c.949 0 1.804-.512 2.222-1.293h.028V0h1.187v-4.914c0-1.422-1.05-2.332-2.734-2.332-1.676 0-2.692.941-2.797 2.113l-.004.074h1.148l.012-.062c.137-.637.711-1.074 1.629-1.074.988 0 1.559.527 1.559 1.394v.598l-2.04.113C1.43-3.992.485-3.234.485-2.023v.011c0 1.293.954 2.149 2.368 2.149M1.703-2.012v-.011c0-.664.547-1.086 1.496-1.141l1.903-.117v.582c0 1.031-.864 1.804-1.985 1.804-.855 0-1.414-.433-1.414-1.117m0 0"/><path id="o" d="M3.445.137c1.02 0 1.813-.512 2.258-1.34h.027V0h1.188v-9.863H5.73v3.941h-.027c-.445-.82-1.273-1.324-2.277-1.324-1.785 0-3 1.441-3 3.684v.007c0 2.243 1.203 3.692 3.02 3.692M3.68-.918c-1.258 0-2.04-1.004-2.04-2.637v-.007c0-1.622.782-2.633 2.04-2.633 1.195 0 2.054 1.047 2.054 2.633v.007c0 1.594-.851 2.637-2.054 2.637m0 0"/><path id="p" d="M1.441-8.312a.744.744 0 0 0 .746-.747.74.74 0 0 0-.746-.746.74.74 0 0 0-.742.746c0 .41.332.746.742.746M.848 0h1.191v-7.11H.848Zm0 0"/><path id="q" d="M.773 0h1.188v-4.184c0-1.21.734-2.011 1.855-2.011 1.094 0 1.633.636 1.633 1.793V0h1.188v-4.613c0-1.621-.903-2.633-2.461-2.633-1.078 0-1.805.484-2.188 1.148h-.027v-1.011H.773Zm0 0"/><path id="r" d="M3.781 2.531c1.926 0 3.137-1.082 3.137-2.73v-6.91H5.73v1.203h-.027c-.437-.793-1.23-1.34-2.238-1.34-1.805 0-3.04 1.434-3.04 3.644v.004C.426-1.375 1.649.07 3.438.07c1.02 0 1.84-.508 2.266-1.293h.027v.907c0 1.101-.71 1.793-1.964 1.793-.97 0-1.645-.313-1.871-.829L1.867.59H.672l.012.058c.234 1.055 1.34 1.883 3.097 1.883M3.7-.984c-1.265 0-2.058-1-2.058-2.614v-.004c0-1.582.793-2.593 2.058-2.593 1.203 0 2.031 1.027 2.031 2.593v.004c0 1.582-.82 2.614-2.03 2.614m0 0"/><path id="s" d="M.836 0h1.187v-9.863H.836Zm0 0"/><path id="t" d="M.773 0h1.188v-4.457c0-.992.684-1.738 1.629-1.738.883 0 1.457.57 1.457 1.43V0h1.187v-4.52c0-.968.664-1.675 1.606-1.675.937 0 1.476.582 1.476 1.558V0h1.192v-4.91c0-1.414-.91-2.336-2.317-2.336-1 0-1.832.512-2.23 1.367h-.027c-.309-.867-1.024-1.367-1.997-1.367-.914 0-1.624.473-1.949 1.176h-.027v-1.04H.773Zm0 0"/><path id="u" d="M3.242 2.395h.996c-.984-1.145-1.73-3.852-1.73-6.133 0-2.285.746-4.985 1.73-6.125h-.996C1.906-8.168 1.301-6.172 1.301-3.738c0 2.433.605 4.441 1.941 6.133m0 0"/><path id="v" d="M3.719.137c1.605 0 2.777-1.047 2.969-2.399l.003-.05H5.523l-.011.054c-.2.793-.82 1.34-1.793 1.34-1.23 0-2.078-.977-2.078-2.629v-.008c0-1.613.828-2.64 2.066-2.64 1.043 0 1.617.629 1.797 1.34l.012.054H6.68l-.008-.054C6.523-6.07 5.477-7.246 3.707-7.246 1.73-7.246.426-5.812.426-3.57v.007c0 2.262 1.277 3.7 3.293 3.7m0 0"/><path id="w" d="M.773 2.395h1.188v-3.586h.027C2.434-.371 3.262.137 4.266.137c1.785 0 3-1.442 3-3.684v-.008c0-2.242-1.203-3.691-3.02-3.691-1.02 0-1.812.512-2.258 1.34h-.027V-7.11H.773ZM4.012-.918c-1.196 0-2.055-1.043-2.055-2.629v-.008c0-1.593.852-2.64 2.055-2.64 1.258 0 2.039 1.008 2.039 2.64v.008c0 1.617-.781 2.629-2.04 2.629m0 0"/><path id="x" d="M1.273 2.395c1.332-1.692 1.942-3.7 1.942-6.133 0-2.434-.61-4.43-1.942-6.125h-1c.985 1.14 1.73 3.84 1.73 6.125 0 2.281-.745 4.988-1.73 6.133Zm0 0"/><path id="y" d="M1.504.098a.774.774 0 0 0 .781-.782.774.774 0 0 0-.781-.78.77.77 0 0 0-.777.78c0 .438.34.782.777.782m0 0"/><path id="z" d="M1.504-5.195a.774.774 0 0 0 .781-.782.77.77 0 0 0-.781-.777.767.767 0 0 0-.777.777c0 .438.34.782.777.782m0 5.293a.774.774 0 0 0 .781-.782.774.774 0 0 0-.781-.78.77.77 0 0 0-.777.78c0 .438.34.782.777.782m0 0"/><path id="A" d="M2.996 0h1.16l2.297-7.902h.027L8.777 0h1.164l2.684-9.863H11.34L9.352-1.766h-.028L7.09-9.863H5.844L3.609-1.766h-.027L1.594-9.863H.309Zm0 0"/><path id="B" d="M.219 0h1.32l1.715-2.707h.027L4.984 0h1.32L3.938-3.602l2.399-3.507H5.012L3.324-4.445h-.027L1.586-7.11H.262L2.64-3.555Zm0 0"/><path id="C" d="M.848-5.14h6.77v-1.11H.847Zm0 3.382h6.77v-1.105H.847Zm0 0"/><path id="D" d="M3.316 0h1.188v-9.863H3.3L.676-7.977v1.235L3.289-8.56h.027Zm0 0"/><path id="E" d="M.957 0h1.23v-3.902h2.36L6.66 0h1.442L5.816-4.094c1.23-.39 1.985-1.449 1.985-2.816v-.016c0-1.777-1.246-2.937-3.145-2.937H.957Zm1.23-4.992V-8.77h2.305c1.266 0 2.035.696 2.035 1.872v.015c0 1.207-.715 1.89-1.98 1.89Zm0 0"/><path id="F" d="M1.457 2.395c1.285 0 1.906-.59 2.414-1.95l2.774-7.554h-1.25l-1.97 5.918h-.027L1.438-7.11H.163L2.804.008 2.66.41c-.289.809-.703 1-1.457 1-.144 0-.281-.023-.383-.043v.973c.153.027.403.055.637.055m0 0"/><path id="G" d="M4.238.164c2.27 0 3.63-1.96 3.63-5.094v-.011c0-3.133-1.36-5.086-3.63-5.086S.621-8.074.621-4.941v.011C.621-1.797 1.97.164 4.238.164m0-1.074C2.734-.91 1.86-2.453 1.86-4.93v-.011c0-2.477.875-4.008 2.38-4.008 1.503 0 2.394 1.531 2.394 4.008v.011c0 2.477-.89 4.02-2.395 4.02m0 0"/><path id="H" d="M.836 0h1.187v-4.148c0-1.211.73-2.047 1.832-2.047 1.11 0 1.766.761 1.766 2.047V0H6.81v-4.355c0-1.723-1.032-2.891-2.543-2.891-1.059 0-1.832.473-2.215 1.27h-.028v-3.887H.836Zm0 0"/></defs><path fill="none" stroke="#FF3B30" stroke-miterlimit="10" stroke-width="2" d="M75.375 24.926v43.633"/><path fill="#FF3B30" stroke="#FF3B30" stroke-miterlimit="10" stroke-width="2" d="m78.875 68.18-3.5 10-3.5-10Zm0 0"/><path fill="none" stroke="#34C759" stroke-miterlimit="10" stroke-width="2" d="M74.375 105.926v43.633"/><path fill="none" stroke="#5856D6" stroke-miterlimit="10" stroke-width="2" d="M76.375 105.926v43.633"/><path fill="#34C759" stroke="#34C759" stroke-miterlimit="10" stroke-width="2" d="m78.875 149.18-3.5 10-3.5-10Zm0 0"/><path fill="none" stroke="#FF9500" stroke-miterlimit="10" stroke-width="2" d="M91.965 162.184c37.144-27.86 127.273-95.457 172.539-129.403"/><path fill="#FF9500" stroke="#FF9500" stroke-miterlimit="10" stroke-width="2" d="m262.207 30.125 10.098-3.2-5.899 8.802Zm0 0"/><path fill="none" stroke="#FF3B30" stroke-miterlimit="10" stroke-width="2" d="M291.375 24.926v43.633"/><path fill="#FF3B30" stroke="#FF3B30" stroke-miterlimit="10" stroke-width="2" d="m294.875 68.18-3.5 10-3.5-10Zm0 0"/><path fill="none" stroke="#34C759" stroke-miterlimit="10" stroke-width="2" d="M290.375 105.926v43.633"/><path fill="none" stroke="#5856D6" stroke-miterlimit="10" stroke-width="2" d="M292.375 105.926v43.633"/><path fill="#34C759" stroke="#34C759" stroke-miterlimit="10" stroke-width="2" d="m294.875 149.18-3.5 10-3.5-10Zm0 0"/><path fill="none" stroke="#FF9500" stroke-miterlimit="10" stroke-width="2" d="M274.785 162.184c-37.144-27.86-127.273-95.457-172.539-129.403"/><path fill="#FF9500" stroke="#FF9500" stroke-miterlimit="10" stroke-width="2" d="m100.344 35.727-5.899-8.801 10.098 3.199Zm0 0"/><g fill="none" stroke="#FFF" stroke-linecap="round" stroke-linejoin="round" stroke-width="2"><use xlink:href="#c" x="8" y="204.551"/><use xlink:href="#d" x="17" y="204.551"/><use xlink:href="#e" x="20" y="204.551"/><use xlink:href="#f" x="26.75" y="204.551"/><use xlink:href="#g" x="30.5" y="204.551"/><use xlink:href="#h" x="38" y="204.551"/><use xlink:href="#i" x="41.75" y="204.551"/><use xlink:href="#d" x="49.25" y="204.551"/><use xlink:href="#j" x="52.25" y="204.551"/><use xlink:href="#k" x="59.75" y="204.551"/><use xlink:href="#l" x="67.25" y="204.551"/><use xlink:href="#l" x="71.75" y="204.551"/><use xlink:href="#i" x="75.5" y="204.551"/><use xlink:href="#h" x="83" y="204.551"/><use xlink:href="#d" x="87.5" y="204.551"/><use xlink:href="#l" x="90.5" y="204.551"/><use xlink:href="#g" x="94.25" y="204.551"/><use xlink:href="#h" x="101.75" y="204.551"/><use xlink:href="#m" x="106.25" y="204.551"/><use xlink:href="#n" x="116" y="204.551"/><use xlink:href="#h" x="122.75" y="204.551"/><use xlink:href="#o" x="126.5" y="204.551"/><use xlink:href="#p" x="134" y="204.551"/><use xlink:href="#q" x="137" y="204.551"/><use xlink:href="#r" x="144.5" y="204.551"/><use xlink:href="#d" x="152" y="204.551"/><use xlink:href="#s" x="155" y="204.551"/><use xlink:href="#p" x="158" y="204.551"/><use xlink:href="#f" x="161" y="204.551"/><use xlink:href="#t" x="165.5" y="204.551"/><use xlink:href="#k" x="176.75" y="204.551"/><use xlink:href="#e" x="184.25" y="204.551"/><use xlink:href="#d" x="191" y="204.551"/><use xlink:href="#f" x="194" y="204.551"/><use xlink:href="#i" x="197.75" y="204.551"/><use xlink:href="#e" x="205.25" y="204.551"/><use xlink:href="#f" x="212" y="204.551"/><use xlink:href="#d" x="216.5" y="204.551"/><use xlink:href="#u" x="219.5" y="204.551"/><use xlink:href="#g" x="224" y="204.551"/><use xlink:href="#k" x="231.5" y="204.551"/><use xlink:href="#f" x="239" y="204.551"/><use xlink:href="#v" x="242.75" y="204.551"/><use xlink:href="#g" x="249.5" y="204.551"/><use xlink:href="#t" x="257" y="204.551"/><use xlink:href="#i" x="268.25" y="204.551"/><use xlink:href="#d" x="275.75" y="204.551"/><use xlink:href="#w" x="278.75" y="204.551"/><use xlink:href="#i" x="286.25" y="204.551"/><use xlink:href="#h" x="293.75" y="204.551"/><use xlink:href="#t" x="298.25" y="204.551"/><use xlink:href="#p" x="309.5" y="204.551"/><use xlink:href="#f" x="312.5" y="204.551"/><use xlink:href="#f" x="317" y="204.551"/><use xlink:href="#i" x="320.75" y="204.551"/><use xlink:href="#o" x="328.25" y="204.551"/><use xlink:href="#x" x="335.75" y="204.551"/><use xlink:href="#y" x="340.25" y="204.551"/></g><g fill="#1C1E21"><use xlink:href="#c" x="8" y="204.551"/><use xlink:href="#d" x="17" y="204.551"/><use xlink:href="#e" x="20" y="204.551"/><use xlink:href="#f" x="26.75" y="204.551"/><use xlink:href="#g" x="30.5" y="204.551"/><use xlink:href="#h" x="38" y="204.551"/><use xlink:href="#i" x="41.75" y="204.551"/><use xlink:href="#d" x="49.25" y="204.551"/><use xlink:href="#j" x="52.25" y="204.551"/><use xlink:href="#k" x="59.75" y="204.551"/><use xlink:href="#l" x="67.25" y="204.551"/><use xlink:href="#l" x="71.75" y="204.551"/><use xlink:href="#i" x="75.5" y="204.551"/><use xlink:href="#h" x="83" y="204.551"/><use xlink:href="#d" x="87.5" y="204.551"/><use xlink:href="#l" x="90.5" y="204.551"/><use xlink:href="#g" x="94.25" y="204.551"/><use xlink:href="#h" x="101.75" y="204.551"/><use xlink:href="#m" x="106.25" y="204.551"/><use xlink:href="#n" x="116" y="204.551"/><use xlink:href="#h" x="122.75" y="204.551"/><use xlink:href="#o" x="126.5" y="204.551"/><use xlink:href="#p" x="134" y="204.551"/><use xlink:href="#q" x="137" y="204.551"/><use xlink:href="#r" x="144.5" y="204.551"/><use xlink:href="#d" x="152" y="204.551"/><use xlink:href="#s" x="155" y="204.551"/><use xlink:href="#p" x="158" y="204.551"/><use xlink:href="#f" x="161" y="204.551"/><use xlink:href="#t" x="165.5" y="204.551"/><use xlink:href="#k" x="176.75" y="204.551"/><use xlink:href="#e" x="184.25" y="204.551"/><use xlink:href="#d" x="191" y="204.551"/><use xlink:href="#f" x="194" y="204.551"/><use xlink:href="#i" x="197.75" y="204.551"/><use xlink:href="#e" x="205.25" y="204.551"/><use xlink:href="#f" x="212" y="204.551"/><use xlink:href="#d" x="216.5" y="204.551"/><use xlink:href="#u" x="219.5" y="204.551"/><use xlink:href="#g" x="224" y="204.551"/><use xlink:href="#k" x="231.5" y="204.551"/><use xlink:href="#f" x="239" y="204.551"/><use xlink:href="#v" x="242.75" y="204.551"/><use xlink:href="#g" x="249.5" y="204.551"/><use xlink:href="#t" x="257" y="204.551"/><use xlink:href="#i" x="268.25" y="204.551"/><use xlink:href="#d" x="275.75" y="204.551"/><use xlink:href="#w" x="278.75" y="204.551"/><use xlink:href="#i" x="286.25" y="204.551"/><use xlink:href="#h" x="293.75" y="204.551"/><use xlink:href="#t" x="298.25" y="204.551"/><use xlink:href="#p" x="309.5" y="204.551"/><use xlink:href="#f" x="312.5" y="204.551"/><use xlink:href="#f" x="317" y="204.551"/><use xlink:href="#i" x="320.75" y="204.551"/><use xlink:href="#o" x="328.25" y="204.551"/><use xlink:href="#x" x="335.75" y="204.551"/><use xlink:href="#y" x="340.25" y="204.551"/></g><g fill="none" stroke="#FFF" stroke-linecap="round" stroke-linejoin="round" stroke-width="2"><use xlink:href="#n" x="52.5" y="17.301"/><use xlink:href="#z" x="59.25" y="17.301"/><use xlink:href="#d" x="62.25" y="17.301"/><use xlink:href="#A" x="65.25" y="17.301"/><use xlink:href="#B" x="78" y="17.301"/><use xlink:href="#C" x="84" y="17.301"/><use xlink:href="#D" x="92.25" y="17.301"/></g><g fill="#1C1E21"><use xlink:href="#n" x="52.5" y="17.301"/><use xlink:href="#z" x="59.25" y="17.301"/><use xlink:href="#d" x="62.25" y="17.301"/><use xlink:href="#A" x="65.25" y="17.301"/><use xlink:href="#B" x="78" y="17.301"/><use xlink:href="#C" x="84" y="17.301"/><use xlink:href="#D" x="92.25" y="17.301"/></g><g fill="none" stroke="#FFF" stroke-linecap="round" stroke-linejoin="round" stroke-width="2"><use xlink:href="#j" x="54.375" y="98.301"/><use xlink:href="#z" x="61.875" y="98.301"/><use xlink:href="#d" x="64.875" y="98.301"/><use xlink:href="#E" x="67.875" y="98.301"/><use xlink:href="#B" x="76.125" y="98.301"/><use xlink:href="#C" x="82.125" y="98.301"/><use xlink:href="#D" x="90.375" y="98.301"/></g><g fill="#1C1E21"><use xlink:href="#j" x="54.375" y="98.301"/><use xlink:href="#z" x="61.875" y="98.301"/><use xlink:href="#d" x="64.875" y="98.301"/><use xlink:href="#E" x="67.875" y="98.301"/><use xlink:href="#B" x="76.125" y="98.301"/><use xlink:href="#C" x="82.125" y="98.301"/><use xlink:href="#D" x="90.375" y="98.301"/></g><g fill="none" stroke="#FFF" stroke-linecap="round" stroke-linejoin="round" stroke-width="2"><use xlink:href="#h" x="66.375" y="49.297"/><use xlink:href="#l" x="70.875" y="49.297"/></g><g fill="#FF3B30"><use xlink:href="#h" x="66.375" y="49.297"/><use xlink:href="#l" x="70.875" y="49.297"/></g><g fill="none" stroke="#FFF" stroke-linecap="round" stroke-linejoin="round" stroke-width="2"><use xlink:href="#o" x="52.875" y="179.301"/><use xlink:href="#z" x="60.375" y="179.301"/><use xlink:href="#d" x="63.375" y="179.301"/><use xlink:href="#E" x="66.375" y="179.301"/><use xlink:href="#F" x="74.625" y="179.301"/><use xlink:href="#C" x="81.375" y="179.301"/><use xlink:href="#G" x="89.625" y="179.301"/></g><g fill="#1C1E21"><use xlink:href="#o" x="52.875" y="179.301"/><use xlink:href="#z" x="60.375" y="179.301"/><use xlink:href="#d" x="63.375" y="179.301"/><use xlink:href="#E" x="66.375" y="179.301"/><use xlink:href="#F" x="74.625" y="179.301"/><use xlink:href="#C" x="81.375" y="179.301"/><use xlink:href="#G" x="89.625" y="179.301"/></g><g fill="none" stroke="#FFF" stroke-linecap="round" stroke-linejoin="round" stroke-width="2"><use xlink:href="#l" x="19.875" y="129.297"/><use xlink:href="#i" x="23.625" y="129.297"/><use xlink:href="#q" x="31.125" y="129.297"/><use xlink:href="#v" x="38.625" y="129.297"/><use xlink:href="#i" x="45.375" y="129.297"/></g><g fill="#34C759"><use xlink:href="#l" x="19.875" y="129.297"/><use xlink:href="#i" x="23.625" y="129.297"/><use xlink:href="#q" x="31.125" y="129.297"/><use xlink:href="#v" x="38.625" y="129.297"/><use xlink:href="#i" x="45.375" y="129.297"/></g><g fill="none" stroke="#FFF" stroke-linecap="round" stroke-linejoin="round" stroke-width="2"><use xlink:href="#w" x="52.875" y="129.297"/><use xlink:href="#w" x="60.375" y="129.297"/><use xlink:href="#g" x="67.875" y="129.297"/></g><g fill="#5856D6"><use xlink:href="#w" x="52.875" y="129.297"/><use xlink:href="#w" x="60.375" y="129.297"/><use xlink:href="#g" x="67.875" y="129.297"/></g><g fill="none" stroke="#FFF" stroke-linecap="round" stroke-linejoin="round" stroke-width="2"><use xlink:href="#i" x="267.75" y="17.301"/><use xlink:href="#z" x="275.25" y="17.301"/><use xlink:href="#d" x="278.25" y="17.301"/><use xlink:href="#A" x="281.25" y="17.301"/><use xlink:href="#F" x="294" y="17.301"/><use xlink:href="#C" x="300.75" y="17.301"/><use xlink:href="#D" x="309" y="17.301"/></g><g fill="#1C1E21"><use xlink:href="#i" x="267.75" y="17.301"/><use xlink:href="#z" x="275.25" y="17.301"/><use xlink:href="#d" x="278.25" y="17.301"/><use xlink:href="#A" x="281.25" y="17.301"/><use xlink:href="#F" x="294" y="17.301"/><use xlink:href="#C" x="300.75" y="17.301"/><use xlink:href="#D" x="309" y="17.301"/></g><g fill="none" stroke="#FFF" stroke-linecap="round" stroke-linejoin="round" stroke-width="2"><use xlink:href="#l" x="174.285" y="89.742"/><use xlink:href="#h" x="178.785" y="89.742"/></g><g fill="#FF9500"><use xlink:href="#l" x="174.285" y="89.742"/><use xlink:href="#h" x="178.785" y="89.742"/></g><g fill="none" stroke="#FFF" stroke-linecap="round" stroke-linejoin="round" stroke-width="2"><use xlink:href="#l" x="271.5" y="98.301"/><use xlink:href="#z" x="276" y="98.301"/><use xlink:href="#d" x="279" y="98.301"/><use xlink:href="#E" x="282" y="98.301"/><use xlink:href="#F" x="290.25" y="98.301"/><use xlink:href="#C" x="297" y="98.301"/><use xlink:href="#D" x="305.25" y="98.301"/></g><g fill="#1C1E21"><use xlink:href="#l" x="271.5" y="98.301"/><use xlink:href="#z" x="276" y="98.301"/><use xlink:href="#d" x="279" y="98.301"/><use xlink:href="#E" x="282" y="98.301"/><use xlink:href="#F" x="290.25" y="98.301"/><use xlink:href="#C" x="297" y="98.301"/><use xlink:href="#D" x="305.25" y="98.301"/></g><g fill="none" stroke="#FFF" stroke-linecap="round" stroke-linejoin="round" stroke-width="2"><use xlink:href="#h" x="282.375" y="49.297"/><use xlink:href="#l" x="286.875" y="49.297"/></g><g fill="#FF3B30"><use xlink:href="#h" x="282.375" y="49.297"/><use xlink:href="#l" x="286.875" y="49.297"/></g><g fill="none" stroke="#FFF" stroke-linecap="round" stroke-linejoin="round" stroke-width="2"><use xlink:href="#H" x="269.25" y="179.301"/><use xlink:href="#z" x="276.75" y="179.301"/><use xlink:href="#d" x="279.75" y="179.301"/><use xlink:href="#E" x="282.75" y="179.301"/><use xlink:href="#B" x="291" y="179.301"/><use xlink:href="#C" x="297" y="179.301"/><use xlink:href="#G" x="305.25" y="179.301"/></g><g fill="#1C1E21"><use xlink:href="#H" x="269.25" y="179.301"/><use xlink:href="#z" x="276.75" y="179.301"/><use xlink:href="#d" x="279.75" y="179.301"/><use xlink:href="#E" x="282.75" y="179.301"/><use xlink:href="#B" x="291" y="179.301"/><use xlink:href="#C" x="297" y="179.301"/><use xlink:href="#G" x="305.25" y="179.301"/></g><g fill="none" stroke="#FFF" stroke-linecap="round" stroke-linejoin="round" stroke-width="2"><use xlink:href="#l" x="235.875" y="129.297"/><use xlink:href="#i" x="239.625" y="129.297"/><use xlink:href="#q" x="247.125" y="129.297"/><use xlink:href="#v" x="254.625" y="129.297"/><use xlink:href="#i" x="261.375" y="129.297"/></g><g fill="#34C759"><use xlink:href="#l" x="235.875" y="129.297"/><use xlink:href="#i" x="239.625" y="129.297"/><use xlink:href="#q" x="247.125" y="129.297"/><use xlink:href="#v" x="254.625" y="129.297"/><use xlink:href="#i" x="261.375" y="129.297"/></g><g fill="none" stroke="#FFF" stroke-linecap="round" stroke-linejoin="round" stroke-width="2"><use xlink:href="#w" x="268.875" y="129.297"/><use xlink:href="#w" x="276.375" y="129.297"/><use xlink:href="#g" x="283.875" y="129.297"/></g><g fill="#5856D6"><use xlink:href="#w" x="268.875" y="129.297"/><use xlink:href="#w" x="276.375" y="129.297"/><use xlink:href="#g" x="283.875" y="129.297"/></g><g fill="none" stroke="#FFF" stroke-linecap="round" stroke-linejoin="round" stroke-width="2"><use xlink:href="#l" x="174.465" y="106.992"/><use xlink:href="#h" x="178.965" y="106.992"/></g><g fill="#FF9500"><use xlink:href="#l" x="174.465" y="106.992"/><use xlink:href="#h" x="178.965" y="106.992"/></g></svg>