<svg width="800" height="98" viewBox="0 0 800 98" fill="none" xmlns="http://www.w3.org/2000/svg">
<g clip-path="url(#clip0_1_172)">
<path d="M4.5 21.5H795.5" stroke="#E3E3E3" stroke-linecap="round"/>
<path d="M4.5 21.5V52.5" stroke="#E3E3E3" stroke-linecap="round"/>
<path d="M4.5 52.5H795.5" stroke="#E3E3E3" stroke-linecap="round"/>
<path d="M795.5 21.5V52.5" stroke="#E3E3E3" stroke-linecap="round"/>
<path d="M770.5 21.5V24.5" stroke="#E3E3E3" stroke-linecap="round"/>
<path d="M770.5 52.5V49.5" stroke="#E3E3E3" stroke-linecap="round"/>
<path d="M746.5 21.5V24.5" stroke="#E3E3E3" stroke-linecap="round"/>
<path d="M746.5 52.5V49.5" stroke="#E3E3E3" stroke-linecap="round"/>
<path d="M721.5 21.5V24.5" stroke="#E3E3E3" stroke-linecap="round"/>
<path d="M721.5 52.5V49.5" stroke="#E3E3E3" stroke-linecap="round"/>
<path d="M696.5 21.5V24.5" stroke="#E3E3E3" stroke-linecap="round"/>
<path d="M696.5 52.5V49.5" stroke="#E3E3E3" stroke-linecap="round"/>
<path d="M671.5 21.5V24.5" stroke="#E3E3E3" stroke-linecap="round"/>
<path d="M671.5 52.5V49.5" stroke="#E3E3E3" stroke-linecap="round"/>
<path d="M647.5 21.5V24.5" stroke="#E3E3E3" stroke-linecap="round"/>
<path d="M647.5 52.5V49.5" stroke="#E3E3E3" stroke-linecap="round"/>
<path d="M622.5 21.5V52.5" stroke="#E3E3E3" stroke-linecap="round"/>
<path d="M597.5 21.5V24.5" stroke="#E3E3E3" stroke-linecap="round"/>
<path d="M597.5 52.5V49.5" stroke="#E3E3E3" stroke-linecap="round"/>
<path d="M573.5 21.5V24.5" stroke="#E3E3E3" stroke-linecap="round"/>
<path d="M573.5 52.5V49.5" stroke="#E3E3E3" stroke-linecap="round"/>
<path d="M548.5 21.5V24.5" stroke="#E3E3E3" stroke-linecap="round"/>
<path d="M548.5 52.5V49.5" stroke="#E3E3E3" stroke-linecap="round"/>
<path d="M523.5 21.5V24.5" stroke="#E3E3E3" stroke-linecap="round"/>
<path d="M523.5 52.5V49.5" stroke="#E3E3E3" stroke-linecap="round"/>
<path d="M498.5 21.5V52.5" stroke="#E3E3E3" stroke-linecap="round"/>
<path d="M474.5 21.5V24.5" stroke="#E3E3E3" stroke-linecap="round"/>
<path d="M474.5 52.5V49.5" stroke="#E3E3E3" stroke-linecap="round"/>
<path d="M449.5 21.5V24.5" stroke="#E3E3E3" stroke-linecap="round"/>
<path d="M449.5 52.5V49.5" stroke="#E3E3E3" stroke-linecap="round"/>
<path d="M424.5 21.5V52.5" stroke="#E3E3E3" stroke-linecap="round"/>
<path d="M400.5 21.5V24.5" stroke="#E3E3E3" stroke-linecap="round"/>
<path d="M400.5 52.5V49.5" stroke="#E3E3E3" stroke-linecap="round"/>
<path d="M375.5 21.5V24.5" stroke="#E3E3E3" stroke-linecap="round"/>
<path d="M375.5 52.5V49.5" stroke="#E3E3E3" stroke-linecap="round"/>
<path d="M350.5 21.5V24.5" stroke="#E3E3E3" stroke-linecap="round"/>
<path d="M350.5 52.5V49.5" stroke="#E3E3E3" stroke-linecap="round"/>
<path d="M325.5 21.5V24.5" stroke="#E3E3E3" stroke-linecap="round"/>
<path d="M325.5 52.5V49.5" stroke="#E3E3E3" stroke-linecap="round"/>
<path d="M301.5 21.5V52.5" stroke="#E3E3E3" stroke-linecap="round"/>
<path d="M276.5 21.5V24.5" stroke="#E3E3E3" stroke-linecap="round"/>
<path d="M276.5 52.5V49.5" stroke="#E3E3E3" stroke-linecap="round"/>
<path d="M251.5 21.5V24.5" stroke="#E3E3E3" stroke-linecap="round"/>
<path d="M251.5 52.5V49.5" stroke="#E3E3E3" stroke-linecap="round"/>
<path d="M226.5 21.5V24.5" stroke="#E3E3E3" stroke-linecap="round"/>
<path d="M226.5 52.5V49.5" stroke="#E3E3E3" stroke-linecap="round"/>
<path d="M202.5 21.5V24.5" stroke="#E3E3E3" stroke-linecap="round"/>
<path d="M202.5 52.5V49.5" stroke="#E3E3E3" stroke-linecap="round"/>
<path d="M177.5 21.5V52.5" stroke="#E3E3E3" stroke-linecap="round"/>
<path d="M152.5 21.5V52.5" stroke="#E3E3E3" stroke-linecap="round"/>
<path d="M128.5 21.5V52.5" stroke="#E3E3E3" stroke-linecap="round"/>
<path d="M103.5 21.5V24.5" stroke="#E3E3E3" stroke-linecap="round"/>
<path d="M103.5 52.5V49.5" stroke="#E3E3E3" stroke-linecap="round"/>
<path d="M78.5 21.5V24.5" stroke="#E3E3E3" stroke-linecap="round"/>
<path d="M78.5 52.5V49.5" stroke="#E3E3E3" stroke-linecap="round"/>
<path d="M53.5 21.5V24.5" stroke="#E3E3E3" stroke-linecap="round"/>
<path d="M53.5 52.5V49.5" stroke="#E3E3E3" stroke-linecap="round"/>
<path d="M29.5 21.5V24.5" stroke="#E3E3E3" stroke-linecap="round"/>
<path d="M29.5 52.5V49.5" stroke="#E3E3E3" stroke-linecap="round"/>
<path d="M782.485 6.14C784.949 6.14 786.181 7.89 786.181 11.39C786.181 14.89 784.949 16.64 782.485 16.64C781.319 16.64 780.413 16.234 779.769 15.422C779.125 14.61 778.803 13.266 778.803 11.39C778.803 9.514 779.125 8.17 779.769 7.358C780.413 6.546 781.319 6.14 782.485 6.14ZM780.553 14.708C780.983 15.3893 781.627 15.73 782.485 15.73C783.344 15.73 783.988 15.3893 784.417 14.708C784.847 14.0173 785.061 12.9113 785.061 11.39C785.061 9.86867 784.847 8.76733 784.417 8.086C783.988 7.39533 783.344 7.05 782.485 7.05C781.627 7.05 780.983 7.39533 780.553 8.086C780.133 8.76733 779.923 9.86867 779.923 11.39C779.923 12.9113 780.133 14.0173 780.553 14.708Z" fill="#E3E3E3"/>
<path d="M634.541 10.508C633.823 10.508 633.23 10.7413 632.763 11.208C632.297 11.6747 632.063 12.272 632.063 13C632.063 13.868 632.283 14.5353 632.721 15.002C633.16 15.4687 633.767 15.702 634.541 15.702C635.335 15.702 635.951 15.4687 636.389 15.002C636.828 14.5353 637.047 13.868 637.047 13C637.047 12.2347 636.819 11.628 636.361 11.18C635.913 10.732 635.307 10.508 634.541 10.508ZM634.541 16.64C633.412 16.64 632.525 16.2993 631.881 15.618C631.247 14.9367 630.929 13.9567 630.929 12.678C630.929 10.7833 631.387 9.25733 632.301 8.1C633.225 6.94267 634.495 6.28933 636.109 6.14L636.305 7.078C634.159 7.32067 632.796 8.52933 632.217 10.704L632.231 10.718C632.875 9.99933 633.725 9.64 634.779 9.64C635.815 9.64 636.637 9.94333 637.243 10.55C637.859 11.1473 638.167 11.964 638.167 13C638.167 14.1107 637.836 14.9973 637.173 15.66C636.511 16.3133 635.633 16.64 634.541 16.64Z" fill="#E3E3E3"/>
<path d="M606.751 6.28H613.331V7.218C611.698 9.89667 610.345 12.9907 609.271 16.5H608.109C609.192 13.0933 610.569 10.0087 612.239 7.246V7.218H606.751V6.28Z" fill="#E3E3E3"/>
<path d="M506.172 16.5V7.624H506.144L503.386 10.172L502.952 9.262L506.172 6.28H507.292V16.5H506.172ZM514.854 16.5V7.624H514.826L512.068 10.172L511.634 9.262L514.854 6.28H515.974V16.5H514.854Z" fill="#E3E3E3"/>
<path d="M481.672 16.5V7.624H481.644L478.886 10.172L478.452 9.262L481.672 6.28H482.792V16.5H481.672ZM490.13 7.092C489.206 7.092 488.282 7.414 487.358 8.058L487.022 7.162C487.974 6.48067 489.057 6.14 490.27 6.14C491.269 6.14 492.043 6.39667 492.594 6.91C493.145 7.414 493.42 8.12333 493.42 9.038C493.42 9.95267 493.089 10.8767 492.426 11.81C491.763 12.7433 490.522 13.9847 488.702 15.534V15.562H493.462V16.5H487.162V15.562C489.15 13.9193 490.494 12.6407 491.194 11.726C491.903 10.802 492.258 9.934 492.258 9.122C492.258 8.45933 492.076 7.95533 491.712 7.61C491.357 7.26467 490.83 7.092 490.13 7.092Z" fill="#E3E3E3"/>
<path d="M432.172 16.5V7.624H432.144L429.386 10.172L428.952 9.262L432.172 6.28H433.292V16.5H432.172ZM441.61 13.21V7.918H441.582L437.858 13.182V13.21H441.61ZM442.716 13.21H444.452V14.12H442.716V16.5H441.61V14.12H436.71V13.21L441.61 6.28H442.716V13.21Z" fill="#E3E3E3"/>
<path d="M408.172 16.5V7.624H408.144L405.386 10.172L404.952 9.262L408.172 6.28H409.292V16.5H408.172ZM419.668 7.218H415.244L415.048 10.522H415.076C415.627 10.1953 416.247 10.032 416.938 10.032C417.937 10.032 418.711 10.3027 419.262 10.844C419.813 11.3853 420.088 12.1507 420.088 13.14C420.088 14.2787 419.766 15.1467 419.122 15.744C418.487 16.3413 417.554 16.64 416.322 16.64C415.37 16.64 414.493 16.416 413.69 15.968L413.97 15.044C414.754 15.4827 415.538 15.702 416.322 15.702C418.086 15.702 418.968 14.848 418.968 13.14C418.968 12.4213 418.777 11.8753 418.394 11.502C418.011 11.1193 417.461 10.928 416.742 10.928C416.005 10.928 415.393 11.1427 414.908 11.572H413.928L414.236 6.28H419.668V7.218Z" fill="#E3E3E3"/>
<path d="M309.172 16.5V7.624H309.144L306.386 10.172L305.952 9.262L309.172 6.28H310.292V16.5H309.172ZM317.784 6.14C318.923 6.14 319.809 6.48067 320.444 7.162C321.088 7.834 321.41 8.79067 321.41 10.032C321.41 11.9827 320.939 13.532 319.996 14.68C319.063 15.828 317.761 16.4813 316.09 16.64L315.894 15.702C317.033 15.5807 317.947 15.2213 318.638 14.624C319.329 14.0173 319.823 13.1633 320.122 12.062L320.094 12.048C319.441 12.776 318.591 13.14 317.546 13.14C316.51 13.14 315.689 12.8367 315.082 12.23C314.475 11.614 314.172 10.774 314.172 9.71C314.172 8.62733 314.499 7.764 315.152 7.12C315.815 6.46667 316.692 6.14 317.784 6.14ZM317.784 7.078C316.991 7.078 316.375 7.30667 315.936 7.764C315.507 8.22133 315.292 8.87 315.292 9.71C315.292 10.5127 315.516 11.1427 315.964 11.6C316.412 12.048 317.019 12.272 317.784 12.272C318.503 12.272 319.095 12.034 319.562 11.558C320.029 11.082 320.262 10.466 320.262 9.71C320.262 8.87933 320.043 8.23533 319.604 7.778C319.165 7.31133 318.559 7.078 317.784 7.078Z" fill="#E3E3E3"/>
<path d="M283.948 7.092C283.024 7.092 282.1 7.414 281.176 8.058L280.84 7.162C281.792 6.48067 282.875 6.14 284.088 6.14C285.087 6.14 285.862 6.39667 286.412 6.91C286.963 7.414 287.238 8.12333 287.238 9.038C287.238 9.95267 286.907 10.8767 286.244 11.81C285.582 12.7433 284.34 13.9847 282.52 15.534V15.562H287.28V16.5H280.98V15.562C282.968 13.9193 284.312 12.6407 285.012 11.726C285.722 10.802 286.076 9.934 286.076 9.122C286.076 8.45933 285.894 7.95533 285.53 7.61C285.176 7.26467 284.648 7.092 283.948 7.092ZM292.826 6.14C295.29 6.14 296.522 7.89 296.522 11.39C296.522 14.89 295.29 16.64 292.826 16.64C291.659 16.64 290.754 16.234 290.11 15.422C289.466 14.61 289.144 13.266 289.144 11.39C289.144 9.514 289.466 8.17 290.11 7.358C290.754 6.546 291.659 6.14 292.826 6.14ZM290.894 14.708C291.323 15.3893 291.967 15.73 292.826 15.73C293.685 15.73 294.329 15.3893 294.758 14.708C295.187 14.0173 295.402 12.9113 295.402 11.39C295.402 9.86867 295.187 8.76733 294.758 8.086C294.329 7.39533 293.685 7.05 292.826 7.05C291.967 7.05 291.323 7.39533 290.894 8.086C290.474 8.76733 290.264 9.86867 290.264 11.39C290.264 12.9113 290.474 14.0173 290.894 14.708Z" fill="#E3E3E3"/>
<path d="M184.948 7.092C184.024 7.092 183.1 7.414 182.176 8.058L181.84 7.162C182.792 6.48067 183.875 6.14 185.088 6.14C186.087 6.14 186.862 6.39667 187.412 6.91C187.963 7.414 188.238 8.12333 188.238 9.038C188.238 9.95267 187.907 10.8767 187.244 11.81C186.582 12.7433 185.34 13.9847 183.52 15.534V15.562H188.28V16.5H181.98V15.562C183.968 13.9193 185.312 12.6407 186.012 11.726C186.722 10.802 187.076 9.934 187.076 9.122C187.076 8.45933 186.894 7.95533 186.53 7.61C186.176 7.26467 185.648 7.092 184.948 7.092ZM194.61 13.21V7.918H194.582L190.858 13.182V13.21H194.61ZM195.716 13.21H197.452V14.12H195.716V16.5H194.61V14.12H189.71V13.21L194.61 6.28H195.716V13.21Z" fill="#E3E3E3"/>
<path d="M159.448 7.092C158.524 7.092 157.6 7.414 156.676 8.058L156.34 7.162C157.292 6.48067 158.375 6.14 159.588 6.14C160.587 6.14 161.362 6.39667 161.912 6.91C162.463 7.414 162.738 8.12333 162.738 9.038C162.738 9.95267 162.407 10.8767 161.744 11.81C161.082 12.7433 159.84 13.9847 158.02 15.534V15.562H162.78V16.5H156.48V15.562C158.468 13.9193 159.812 12.6407 160.512 11.726C161.222 10.802 161.576 9.934 161.576 9.122C161.576 8.45933 161.394 7.95533 161.03 7.61C160.676 7.26467 160.148 7.092 159.448 7.092ZM171.168 7.218H166.744L166.548 10.522H166.576C167.127 10.1953 167.747 10.032 168.438 10.032C169.437 10.032 170.211 10.3027 170.762 10.844C171.313 11.3853 171.588 12.1507 171.588 13.14C171.588 14.2787 171.266 15.1467 170.622 15.744C169.987 16.3413 169.054 16.64 167.822 16.64C166.87 16.64 165.993 16.416 165.19 15.968L165.47 15.044C166.254 15.4827 167.038 15.702 167.822 15.702C169.586 15.702 170.468 14.848 170.468 13.14C170.468 12.4213 170.277 11.8753 169.894 11.502C169.511 11.1193 168.961 10.928 168.242 10.928C167.505 10.928 166.893 11.1427 166.408 11.572H165.428L165.736 6.28H171.168V7.218Z" fill="#E3E3E3"/>
<path d="M135.948 7.092C135.024 7.092 134.1 7.414 133.176 8.058L132.84 7.162C133.792 6.48067 134.875 6.14 136.088 6.14C137.087 6.14 137.862 6.39667 138.412 6.91C138.963 7.414 139.238 8.12333 139.238 9.038C139.238 9.95267 138.907 10.8767 138.244 11.81C137.582 12.7433 136.34 13.9847 134.52 15.534V15.562H139.28V16.5H132.98V15.562C134.968 13.9193 136.312 12.6407 137.012 11.726C137.722 10.802 138.076 9.934 138.076 9.122C138.076 8.45933 137.894 7.95533 137.53 7.61C137.176 7.26467 136.648 7.092 135.948 7.092ZM144.882 10.508C144.163 10.508 143.571 10.7413 143.104 11.208C142.637 11.6747 142.404 12.272 142.404 13C142.404 13.868 142.623 14.5353 143.062 15.002C143.501 15.4687 144.107 15.702 144.882 15.702C145.675 15.702 146.291 15.4687 146.73 15.002C147.169 14.5353 147.388 13.868 147.388 13C147.388 12.2347 147.159 11.628 146.702 11.18C146.254 10.732 145.647 10.508 144.882 10.508ZM144.882 16.64C143.753 16.64 142.866 16.2993 142.222 15.618C141.587 14.9367 141.27 13.9567 141.27 12.678C141.27 10.7833 141.727 9.25733 142.642 8.1C143.566 6.94267 144.835 6.28933 146.45 6.14L146.646 7.078C144.499 7.32067 143.137 8.52933 142.558 10.704L142.572 10.718C143.216 9.99933 144.065 9.64 145.12 9.64C146.156 9.64 146.977 9.94333 147.584 10.55C148.2 11.1473 148.508 11.964 148.508 13C148.508 14.1107 148.177 14.9973 147.514 15.66C146.851 16.3133 145.974 16.64 144.882 16.64Z" fill="#E3E3E3"/>
<path d="M110.448 7.092C109.524 7.092 108.6 7.414 107.676 8.058L107.34 7.162C108.292 6.48067 109.375 6.14 110.588 6.14C111.587 6.14 112.362 6.39667 112.912 6.91C113.463 7.414 113.738 8.12333 113.738 9.038C113.738 9.95267 113.407 10.8767 112.744 11.81C112.082 12.7433 110.84 13.9847 109.02 15.534V15.562H113.78V16.5H107.48V15.562C109.468 13.9193 110.812 12.6407 111.512 11.726C112.222 10.802 112.576 9.934 112.576 9.122C112.576 8.45933 112.394 7.95533 112.03 7.61C111.676 7.26467 111.148 7.092 110.448 7.092ZM116.092 6.28H122.672V7.218C121.039 9.89667 119.685 12.9907 118.612 16.5H117.45C118.533 13.0933 119.909 10.0087 121.58 7.246V7.218H116.092V6.28Z" fill="#E3E3E3"/>
<path d="M9.00836 6.28H15.1404V7.218L11.7804 10.508V10.536H12.2144C13.2037 10.536 13.9597 10.774 14.4824 11.25C15.0144 11.726 15.2804 12.4167 15.2804 13.322C15.2804 14.386 14.963 15.2073 14.3284 15.786C13.703 16.3553 12.807 16.64 11.6404 16.64C10.6324 16.64 9.74569 16.3973 8.98036 15.912L9.31636 15.002C10.1004 15.4687 10.875 15.702 11.6404 15.702C12.4617 15.702 13.087 15.5013 13.5164 15.1C13.9457 14.6987 14.1604 14.106 14.1604 13.322C14.1604 12.6593 13.9364 12.1693 13.4884 11.852C13.0497 11.5253 12.345 11.362 11.3744 11.362H10.3524V10.494L13.6984 7.246V7.218H9.00836V6.28ZM20.854 16.5V7.624H20.826L18.068 10.172L17.634 9.262L20.854 6.28H21.974V16.5H20.854Z" fill="#E3E3E3"/>
<path d="M690.526 36.704C690.106 36.1813 689.527 35.92 688.79 35.92C688.052 35.92 687.469 36.1813 687.04 36.704C686.62 37.2173 686.41 37.936 686.41 38.86C686.41 39.784 686.62 40.5073 687.04 41.03C687.469 41.5433 688.052 41.8 688.79 41.8C689.527 41.8 690.106 41.5433 690.526 41.03C690.955 40.5073 691.17 39.784 691.17 38.86C691.17 37.936 690.955 37.2173 690.526 36.704ZM691.282 41.618C690.656 42.2993 689.826 42.64 688.79 42.64C687.754 42.64 686.923 42.2993 686.298 41.618C685.672 40.9367 685.36 40.0173 685.36 38.86C685.36 37.7027 685.672 36.7833 686.298 36.102C686.923 35.4207 687.754 35.08 688.79 35.08C689.826 35.08 690.656 35.4207 691.282 36.102C691.907 36.7833 692.22 37.7027 692.22 38.86C692.22 40.0173 691.907 40.9367 691.282 41.618ZM697.236 42.64C696.182 42.64 695.398 42.2153 694.884 41.366H694.856V45.58H693.834V35.22H694.814L694.828 36.452H694.856C695.37 35.5373 696.163 35.08 697.236 35.08C698.151 35.08 698.87 35.4067 699.392 36.06C699.915 36.704 700.176 37.6373 700.176 38.86C700.176 40.0547 699.906 40.9833 699.364 41.646C698.832 42.3087 698.123 42.64 697.236 42.64ZM699.168 38.86C699.168 37.908 698.977 37.18 698.594 36.676C698.221 36.172 697.694 35.92 697.012 35.92C696.368 35.92 695.846 36.172 695.444 36.676C695.052 37.18 694.856 37.8753 694.856 38.762V38.958C694.856 39.8633 695.057 40.5633 695.458 41.058C695.86 41.5527 696.378 41.8 697.012 41.8C697.675 41.8 698.198 41.548 698.58 41.044C698.972 40.5307 699.168 39.8027 699.168 38.86ZM705.188 35.934C704.367 35.934 703.728 36.1907 703.27 36.704C702.813 37.208 702.584 37.9267 702.584 38.86C702.584 39.756 702.822 40.47 703.298 41.002C703.784 41.534 704.414 41.8 705.188 41.8C705.842 41.8 706.467 41.6413 707.064 41.324L707.344 42.15C706.644 42.4767 705.912 42.64 705.146 42.64C704.064 42.64 703.186 42.2993 702.514 41.618C701.842 40.9273 701.506 40.008 701.506 38.86C701.506 37.6747 701.828 36.7507 702.472 36.088C703.116 35.416 704.008 35.08 705.146 35.08C705.912 35.08 706.644 35.2433 707.344 35.57L707.064 36.424C706.439 36.0973 705.814 35.934 705.188 35.934ZM713.987 36.704C713.567 36.1813 712.988 35.92 712.251 35.92C711.513 35.92 710.93 36.1813 710.501 36.704C710.081 37.2173 709.871 37.936 709.871 38.86C709.871 39.784 710.081 40.5073 710.501 41.03C710.93 41.5433 711.513 41.8 712.251 41.8C712.988 41.8 713.567 41.5433 713.987 41.03C714.416 40.5073 714.631 39.784 714.631 38.86C714.631 37.936 714.416 37.2173 713.987 36.704ZM714.743 41.618C714.117 42.2993 713.287 42.64 712.251 42.64C711.215 42.64 710.384 42.2993 709.759 41.618C709.133 40.9367 708.821 40.0173 708.821 38.86C708.821 37.7027 709.133 36.7833 709.759 36.102C710.384 35.4207 711.215 35.08 712.251 35.08C713.287 35.08 714.117 35.4207 714.743 36.102C715.368 36.7833 715.681 37.7027 715.681 38.86C715.681 40.0173 715.368 40.9367 714.743 41.618ZM718.594 36.69C718.211 37.194 718.02 37.9173 718.02 38.86C718.02 39.8027 718.216 40.5307 718.608 41.044C719 41.548 719.527 41.8 720.19 41.8C720.825 41.8 721.338 41.5527 721.73 41.058C722.131 40.5633 722.332 39.8633 722.332 38.958V38.762C722.332 37.8753 722.131 37.18 721.73 36.676C721.338 36.172 720.825 35.92 720.19 35.92C719.509 35.92 718.977 36.1767 718.594 36.69ZM717.012 38.86C717.012 37.6373 717.273 36.704 717.796 36.06C718.319 35.4067 719.037 35.08 719.952 35.08C721.007 35.08 721.791 35.5233 722.304 36.41H722.332V32H723.354V42.5H722.374L722.36 41.268H722.332C721.819 42.1827 721.025 42.64 719.952 42.64C719.056 42.64 718.342 42.3133 717.81 41.66C717.278 40.9973 717.012 40.064 717.012 38.86ZM726.086 39.252C726.104 40.0453 726.347 40.6707 726.814 41.128C727.28 41.5853 727.887 41.814 728.634 41.814C729.352 41.814 730.066 41.6273 730.776 41.254L731.056 42.052C730.272 42.444 729.432 42.64 728.536 42.64C727.49 42.64 726.646 42.2993 726.002 41.618C725.358 40.9367 725.036 40.0173 725.036 38.86C725.036 37.684 725.334 36.76 725.932 36.088C726.538 35.416 727.36 35.08 728.396 35.08C729.404 35.08 730.183 35.402 730.734 36.046C731.294 36.6807 731.574 37.5953 731.574 38.79C731.574 38.9113 731.564 39.0653 731.546 39.252H726.086ZM726.086 38.44H730.566C730.556 37.628 730.36 37.0027 729.978 36.564C729.595 36.1253 729.068 35.906 728.396 35.906C727.696 35.906 727.14 36.13 726.73 36.578C726.328 37.0167 726.114 37.6373 726.086 38.44Z" fill="#E3E3E3"/>
<path d="M554.968 35.22H555.962L555.99 36.774H556.018C556.839 35.6447 557.997 35.08 559.49 35.08V35.962C558.454 35.962 557.614 36.2467 556.97 36.816C556.335 37.3853 556.018 38.1227 556.018 39.028V42.5H554.968V35.22ZM562.2 36.69C561.818 37.194 561.626 37.9173 561.626 38.86C561.626 39.8027 561.822 40.5307 562.214 41.044C562.606 41.548 563.134 41.8 563.796 41.8C564.431 41.8 564.944 41.5527 565.336 41.058C565.738 40.5633 565.938 39.8633 565.938 38.958V38.762C565.938 37.8753 565.738 37.18 565.336 36.676C564.944 36.172 564.431 35.92 563.796 35.92C563.115 35.92 562.583 36.1767 562.2 36.69ZM560.618 38.86C560.618 37.6373 560.88 36.704 561.402 36.06C561.925 35.4067 562.644 35.08 563.558 35.08C564.613 35.08 565.397 35.5233 565.91 36.41H565.938V32H566.96V42.5H565.98L565.966 41.268H565.938C565.425 42.1827 564.632 42.64 563.558 42.64C562.662 42.64 561.948 42.3133 561.416 41.66C560.884 40.9973 560.618 40.064 560.618 38.86Z" fill="#E3E3E3"/>
<path d="M439.363 35.5H441.281V34.562C441.281 32.9473 442.055 32.14 443.605 32.14C444.034 32.14 444.473 32.21 444.921 32.35L444.697 33.19C444.351 33.05 444.02 32.98 443.703 32.98C443.199 32.98 442.839 33.1013 442.625 33.344C442.419 33.5773 442.317 33.9833 442.317 34.562V35.5H444.823V36.34H442.317V42.5H441.281V36.34H439.363V35.5ZM447.471 35.22V39.742C447.471 40.4887 447.593 41.0113 447.835 41.31C448.087 41.6087 448.503 41.758 449.081 41.758C449.623 41.758 450.113 41.4967 450.551 40.974C450.999 40.4513 451.223 39.8307 451.223 39.112V35.22H452.245V42.5H451.265L451.251 41.198H451.223C450.943 41.646 450.584 42.0007 450.145 42.262C449.716 42.514 449.249 42.64 448.745 42.64C447.961 42.64 447.383 42.4207 447.009 41.982C446.645 41.534 446.463 40.82 446.463 39.84V35.22H447.471ZM454.34 35.22H455.32L455.334 36.522H455.362C455.642 36.074 455.997 35.724 456.426 35.472C456.865 35.2107 457.336 35.08 457.84 35.08C458.661 35.08 459.268 35.3367 459.66 35.85C460.061 36.354 460.262 37.1567 460.262 38.258V42.5H459.254V38.342C459.254 37.4367 459.123 36.8113 458.862 36.466C458.601 36.1113 458.153 35.934 457.518 35.934C456.977 35.934 456.482 36.2047 456.034 36.746C455.586 37.278 455.362 37.8987 455.362 38.608V42.5H454.34V35.22ZM465.489 35.934C464.668 35.934 464.028 36.1907 463.571 36.704C463.114 37.208 462.885 37.9267 462.885 38.86C462.885 39.756 463.123 40.47 463.599 41.002C464.084 41.534 464.714 41.8 465.489 41.8C466.142 41.8 466.768 41.6413 467.365 41.324L467.645 42.15C466.945 42.4767 466.212 42.64 465.447 42.64C464.364 42.64 463.487 42.2993 462.815 41.618C462.143 40.9273 461.807 40.008 461.807 38.86C461.807 37.6747 462.129 36.7507 462.773 36.088C463.417 35.416 464.308 35.08 465.447 35.08C466.212 35.08 466.945 35.2433 467.645 35.57L467.365 36.424C466.74 36.0973 466.114 35.934 465.489 35.934ZM471.922 32.84V35.5H474.68V36.34H471.922V40.162C471.922 40.8153 472.01 41.254 472.188 41.478C472.365 41.6927 472.696 41.8 473.182 41.8C473.611 41.8 474.022 41.7207 474.414 41.562L474.582 42.388C474.106 42.556 473.592 42.64 473.042 42.64C472.248 42.64 471.688 42.472 471.362 42.136C471.035 41.7907 470.872 41.198 470.872 40.358V36.34H469.262V35.5H470.872V32.84H471.922ZM476.916 32.28H483.048V33.218L479.688 36.508V36.536H480.122C481.111 36.536 481.867 36.774 482.39 37.25C482.922 37.726 483.188 38.4167 483.188 39.322C483.188 40.386 482.87 41.2073 482.236 41.786C481.61 42.3553 480.714 42.64 479.548 42.64C478.54 42.64 477.653 42.3973 476.888 41.912L477.224 41.002C478.008 41.4687 478.782 41.702 479.548 41.702C480.369 41.702 480.994 41.5013 481.424 41.1C481.853 40.6987 482.068 40.106 482.068 39.322C482.068 38.6593 481.844 38.1693 481.396 37.852C480.957 37.5253 480.252 37.362 479.282 37.362H478.26V36.494L481.606 33.246V33.218H476.916V32.28Z" fill="#E3E3E3"/>
<path d="M352.695 35.22H353.689L353.717 36.774H353.745C354.566 35.6447 355.723 35.08 357.217 35.08V35.962C356.181 35.962 355.341 36.2467 354.697 36.816C354.062 37.3853 353.745 38.1227 353.745 39.028V42.5H352.695V35.22ZM361.173 35.08C362.06 35.08 362.881 35.2667 363.637 35.64L363.413 36.466C362.694 36.102 361.948 35.92 361.173 35.92C360.632 35.92 360.216 36.018 359.927 36.214C359.647 36.41 359.507 36.6853 359.507 37.04C359.507 37.376 359.628 37.642 359.871 37.838C360.123 38.034 360.576 38.188 361.229 38.3C362.181 38.4587 362.862 38.72 363.273 39.084C363.693 39.448 363.903 39.9473 363.903 40.582C363.903 41.2167 363.66 41.7207 363.175 42.094C362.699 42.458 362.032 42.64 361.173 42.64C360.174 42.64 359.278 42.4067 358.485 41.94L358.723 41.114C359.488 41.5713 360.305 41.8 361.173 41.8C361.714 41.8 362.13 41.6973 362.419 41.492C362.708 41.2773 362.853 40.974 362.853 40.582C362.853 40.2087 362.722 39.9193 362.461 39.714C362.209 39.5087 361.761 39.35 361.117 39.238C360.193 39.0793 359.521 38.8273 359.101 38.482C358.69 38.1273 358.485 37.6467 358.485 37.04C358.485 36.4427 358.718 35.9667 359.185 35.612C359.661 35.2573 360.324 35.08 361.173 35.08ZM369.028 42.5V33.624H369L366.242 36.172L365.808 35.262L369.028 32.28H370.148V42.5H369.028Z" fill="#E3E3E3"/>
<path d="M228.195 35.22H229.189L229.217 36.774H229.245C230.066 35.6447 231.223 35.08 232.717 35.08V35.962C231.681 35.962 230.841 36.2467 230.197 36.816C229.562 37.3853 229.245 38.1227 229.245 39.028V42.5H228.195V35.22ZM236.673 35.08C237.56 35.08 238.381 35.2667 239.137 35.64L238.913 36.466C238.194 36.102 237.448 35.92 236.673 35.92C236.132 35.92 235.716 36.018 235.427 36.214C235.147 36.41 235.007 36.6853 235.007 37.04C235.007 37.376 235.128 37.642 235.371 37.838C235.623 38.034 236.076 38.188 236.729 38.3C237.681 38.4587 238.362 38.72 238.773 39.084C239.193 39.448 239.403 39.9473 239.403 40.582C239.403 41.2167 239.16 41.7207 238.675 42.094C238.199 42.458 237.532 42.64 236.673 42.64C235.674 42.64 234.778 42.4067 233.985 41.94L234.223 41.114C234.988 41.5713 235.805 41.8 236.673 41.8C237.214 41.8 237.63 41.6973 237.919 41.492C238.208 41.2773 238.353 40.974 238.353 40.582C238.353 40.2087 238.222 39.9193 237.961 39.714C237.709 39.5087 237.261 39.35 236.617 39.238C235.693 39.0793 235.021 38.8273 234.601 38.482C234.19 38.1273 233.985 37.6467 233.985 37.04C233.985 36.4427 234.218 35.9667 234.685 35.612C235.161 35.2573 235.824 35.08 236.673 35.08ZM244.304 33.092C243.38 33.092 242.456 33.414 241.532 34.058L241.196 33.162C242.148 32.4807 243.23 32.14 244.444 32.14C245.442 32.14 246.217 32.3967 246.768 32.91C247.318 33.414 247.594 34.1233 247.594 35.038C247.594 35.9527 247.262 36.8767 246.6 37.81C245.937 38.7433 244.696 39.9847 242.876 41.534V41.562H247.636V42.5H241.336V41.562C243.324 39.9193 244.668 38.6407 245.368 37.726C246.077 36.802 246.432 35.934 246.432 35.122C246.432 34.4593 246.25 33.9553 245.886 33.61C245.531 33.2647 245.004 33.092 244.304 33.092Z" fill="#E3E3E3"/>
<path d="M160.232 35.22H161.226L161.254 36.774H161.282C162.103 35.6447 163.26 35.08 164.754 35.08V35.962C163.718 35.962 162.878 36.2467 162.234 36.816C161.599 37.3853 161.282 38.1227 161.282 39.028V42.5H160.232V35.22ZM167.135 42.5V32H168.213V42.5H167.135Z" fill="#E3E3E3"/>
<path d="M135.862 35.08C136.88 35.08 137.608 35.29 138.046 35.71C138.485 36.13 138.704 36.8207 138.704 37.782V40.54C138.704 41.2027 138.774 41.856 138.914 42.5H137.934C137.86 42.136 137.813 41.7067 137.794 41.212H137.766C137.514 41.66 137.15 42.01 136.674 42.262C136.198 42.514 135.662 42.64 135.064 42.64C134.392 42.64 133.856 42.4533 133.454 42.08C133.053 41.6973 132.852 41.184 132.852 40.54C132.852 39.728 133.207 39.084 133.916 38.608C134.626 38.1227 135.634 37.88 136.94 37.88H137.682V37.81C137.682 37.1007 137.547 36.6107 137.276 36.34C137.015 36.06 136.544 35.92 135.862 35.92C134.985 35.92 134.168 36.1347 133.412 36.564L133.23 35.738C134.033 35.2993 134.91 35.08 135.862 35.08ZM133.86 40.498C133.86 40.918 133.991 41.2493 134.252 41.492C134.514 41.7253 134.864 41.842 135.302 41.842C135.946 41.842 136.502 41.6133 136.968 41.156C137.444 40.6893 137.682 40.12 137.682 39.448V38.664H136.94C135.96 38.664 135.2 38.832 134.658 39.168C134.126 39.4947 133.86 39.938 133.86 40.498ZM143.392 42.64C142.506 42.64 141.792 42.3087 141.25 41.646C140.718 40.9833 140.452 40.0547 140.452 38.86C140.452 37.6373 140.714 36.704 141.236 36.06C141.759 35.4067 142.478 35.08 143.392 35.08C144.466 35.08 145.259 35.5373 145.772 36.452H145.8L145.814 35.22H146.794V45.58H145.772V41.366H145.744C145.231 42.2153 144.447 42.64 143.392 42.64ZM142.034 36.69C141.652 37.194 141.46 37.9173 141.46 38.86C141.46 39.8027 141.656 40.5307 142.048 41.044C142.44 41.548 142.968 41.8 143.63 41.8C144.265 41.8 144.778 41.5527 145.17 41.058C145.572 40.5633 145.772 39.8633 145.772 38.958V38.762C145.772 37.8753 145.576 37.18 145.184 36.676C144.792 36.172 144.274 35.92 143.63 35.92C142.949 35.92 142.417 36.1767 142.034 36.69Z" fill="#E3E3E3"/>
<path d="M42.8628 35.5H44.7808V34.562C44.7808 32.9473 45.5554 32.14 47.1048 32.14C47.5341 32.14 47.9728 32.21 48.4208 32.35L48.1968 33.19C47.8514 33.05 47.5201 32.98 47.2028 32.98C46.6988 32.98 46.3394 33.1013 46.1248 33.344C45.9194 33.5773 45.8168 33.9833 45.8168 34.562V35.5H48.3228V36.34H45.8168V42.5H44.7808V36.34H42.8628V35.5ZM50.9714 35.22V39.742C50.9714 40.4887 51.0927 41.0113 51.3354 41.31C51.5874 41.6087 52.0027 41.758 52.5814 41.758C53.1227 41.758 53.6127 41.4967 54.0514 40.974C54.4994 40.4513 54.7234 39.8307 54.7234 39.112V35.22H55.7454V42.5H54.7654L54.7514 41.198H54.7234C54.4434 41.646 54.0841 42.0007 53.6454 42.262C53.2161 42.514 52.7494 42.64 52.2454 42.64C51.4614 42.64 50.8827 42.4207 50.5094 41.982C50.1454 41.534 49.9634 40.82 49.9634 39.84V35.22H50.9714ZM57.84 35.22H58.82L58.834 36.522H58.862C59.142 36.074 59.4967 35.724 59.926 35.472C60.3647 35.2107 60.836 35.08 61.34 35.08C62.1614 35.08 62.768 35.3367 63.16 35.85C63.5614 36.354 63.762 37.1567 63.762 38.258V42.5H62.754V38.342C62.754 37.4367 62.6234 36.8113 62.362 36.466C62.1007 36.1113 61.6527 35.934 61.018 35.934C60.4767 35.934 59.982 36.2047 59.534 36.746C59.086 37.278 58.862 37.8987 58.862 38.608V42.5H57.84V35.22ZM68.9891 35.934C68.1677 35.934 67.5284 36.1907 67.0711 36.704C66.6137 37.208 66.3851 37.9267 66.3851 38.86C66.3851 39.756 66.6231 40.47 67.0991 41.002C67.5844 41.534 68.2144 41.8 68.9891 41.8C69.6424 41.8 70.2677 41.6413 70.8651 41.324L71.1451 42.15C70.4451 42.4767 69.7124 42.64 68.9471 42.64C67.8644 42.64 66.9871 42.2993 66.3151 41.618C65.6431 40.9273 65.3071 40.008 65.3071 38.86C65.3071 37.6747 65.6291 36.7507 66.2731 36.088C66.9171 35.416 67.8084 35.08 68.9471 35.08C69.7124 35.08 70.4451 35.2433 71.1451 35.57L70.8651 36.424C70.2397 36.0973 69.6144 35.934 68.9891 35.934ZM75.4215 32.84V35.5H78.1795V36.34H75.4215V40.162C75.4215 40.8153 75.5102 41.254 75.6875 41.478C75.8649 41.6927 76.1962 41.8 76.6815 41.8C77.1109 41.8 77.5215 41.7207 77.9135 41.562L78.0815 42.388C77.6055 42.556 77.0922 42.64 76.5415 42.64C75.7482 42.64 75.1882 42.472 74.8615 42.136C74.5349 41.7907 74.3715 41.198 74.3715 40.358V36.34H72.7615V35.5H74.3715V32.84H75.4215ZM86.3936 33.218H81.9696L81.7736 36.522H81.8016C82.3523 36.1953 82.9729 36.032 83.6636 36.032C84.6623 36.032 85.4369 36.3027 85.9876 36.844C86.5383 37.3853 86.8136 38.1507 86.8136 39.14C86.8136 40.2787 86.4916 41.1467 85.8476 41.744C85.2129 42.3413 84.2796 42.64 83.0476 42.64C82.0956 42.64 81.2183 42.416 80.4156 41.968L80.6956 41.044C81.4796 41.4827 82.2636 41.702 83.0476 41.702C84.8116 41.702 85.6936 40.848 85.6936 39.14C85.6936 38.4213 85.5023 37.8753 85.1196 37.502C84.7369 37.1193 84.1863 36.928 83.4676 36.928C82.7303 36.928 82.1189 37.1427 81.6336 37.572H80.6536L80.9616 32.28H86.3936V33.218Z" fill="#E3E3E3"/>
<path d="M705.751 56.28H712.331V57.218C710.698 59.8967 709.345 62.9907 708.271 66.5H707.109C708.192 63.0933 709.569 60.0087 711.239 57.246V57.218H705.751V56.28Z" fill="#E3E3E3"/>
<path d="M692.584 80.5L696.322 70.28H697.582L701.306 80.5H700.116L699.08 77.518H694.768L693.746 80.5H692.584ZM695.076 76.622H698.772L696.938 71.288H696.91L695.076 76.622ZM702.991 80.5V70.28H704.125L707.765 76.44H707.793L711.433 70.28H712.609V80.5H711.489V72.156H711.461L708.297 77.462H707.261L704.097 72.156H704.069V80.5H702.991ZM722.975 79.212C722.069 80.164 720.865 80.64 719.363 80.64C717.86 80.64 716.651 80.164 715.737 79.212C714.822 78.2507 714.365 76.9767 714.365 75.39C714.365 73.8033 714.822 72.534 715.737 71.582C716.651 70.6207 717.86 70.14 719.363 70.14C720.865 70.14 722.069 70.6207 722.975 71.582C723.889 72.534 724.347 73.8033 724.347 75.39C724.347 76.9767 723.889 78.2507 722.975 79.212ZM719.363 79.702C720.52 79.702 721.449 79.3147 722.149 78.54C722.858 77.756 723.213 76.706 723.213 75.39C723.213 74.074 722.858 73.0287 722.149 72.254C721.449 71.47 720.52 71.078 719.363 71.078C718.196 71.078 717.258 71.47 716.549 72.254C715.849 73.0287 715.499 74.074 715.499 75.39C715.499 76.706 715.849 77.756 716.549 78.54C717.258 79.3147 718.196 79.702 719.363 79.702Z" fill="#E3E3E3"/>
<path d="M692.584 94.5L696.322 84.28H697.582L701.306 94.5H700.116L699.08 91.518H694.768L693.746 94.5H692.584ZM695.076 90.622H698.772L696.938 85.288H696.91L695.076 90.622ZM702.991 94.5V84.28H704.125L707.765 90.44H707.793L711.433 84.28H712.609V94.5H711.489V86.156H711.461L708.297 91.462H707.261L704.097 86.156H704.069V94.5H702.991ZM722.975 93.212C722.069 94.164 720.865 94.64 719.363 94.64C717.86 94.64 716.651 94.164 715.737 93.212C714.822 92.2507 714.365 90.9767 714.365 89.39C714.365 87.8033 714.822 86.534 715.737 85.582C716.651 84.6207 717.86 84.14 719.363 84.14C720.865 84.14 722.069 84.6207 722.975 85.582C723.889 86.534 724.347 87.8033 724.347 89.39C724.347 90.9767 723.889 92.2507 722.975 93.212ZM719.363 93.702C720.52 93.702 721.449 93.3147 722.149 92.54C722.858 91.756 723.213 90.706 723.213 89.39C723.213 88.074 722.858 87.0287 722.149 86.254C721.449 85.47 720.52 85.078 719.363 85.078C718.196 85.078 717.258 85.47 716.549 86.254C715.849 87.0287 715.499 88.074 715.499 89.39C715.499 90.706 715.849 91.756 716.549 92.54C717.258 93.3147 718.196 93.702 719.363 93.702Z" fill="#E3E3E3"/>
<path d="M563.327 57.218H558.903L558.707 60.522H558.735C559.286 60.1953 559.907 60.032 560.597 60.032C561.596 60.032 562.371 60.3027 562.921 60.844C563.472 61.3853 563.747 62.1507 563.747 63.14C563.747 64.2787 563.425 65.1467 562.781 65.744C562.147 66.3413 561.213 66.64 559.981 66.64C559.029 66.64 558.152 66.416 557.349 65.968L557.629 65.044C558.413 65.4827 559.197 65.702 559.981 65.702C561.745 65.702 562.627 64.848 562.627 63.14C562.627 62.4213 562.436 61.8753 562.053 61.502C561.671 61.1193 561.12 60.928 560.401 60.928C559.664 60.928 559.053 61.1427 558.567 61.572H557.587L557.895 56.28H563.327V57.218Z" fill="#E3E3E3"/>
<path d="M547.878 74.69C547.495 75.194 547.304 75.9173 547.304 76.86C547.304 77.8027 547.5 78.5307 547.892 79.044C548.284 79.548 548.811 79.8 549.474 79.8C550.109 79.8 550.622 79.5527 551.014 79.058C551.415 78.5633 551.616 77.8633 551.616 76.958V76.762C551.616 75.8753 551.415 75.18 551.014 74.676C550.622 74.172 550.109 73.92 549.474 73.92C548.793 73.92 548.261 74.1767 547.878 74.69ZM546.296 76.86C546.296 75.6373 546.557 74.704 547.08 74.06C547.603 73.4067 548.321 73.08 549.236 73.08C550.291 73.08 551.075 73.5233 551.588 74.41H551.616V70H552.638V80.5H551.658L551.644 79.268H551.616C551.103 80.1827 550.309 80.64 549.236 80.64C548.34 80.64 547.626 80.3133 547.094 79.66C546.562 78.9973 546.296 78.064 546.296 76.86ZM555.37 77.252C555.388 78.0453 555.631 78.6707 556.098 79.128C556.564 79.5853 557.171 79.814 557.918 79.814C558.636 79.814 559.35 79.6273 560.06 79.254L560.34 80.052C559.556 80.444 558.716 80.64 557.82 80.64C556.774 80.64 555.93 80.2993 555.286 79.618C554.642 78.9367 554.32 78.0173 554.32 76.86C554.32 75.684 554.618 74.76 555.216 74.088C555.822 73.416 556.644 73.08 557.68 73.08C558.688 73.08 559.467 73.402 560.018 74.046C560.578 74.6807 560.858 75.5953 560.858 76.79C560.858 76.9113 560.848 77.0653 560.83 77.252H555.37ZM555.37 76.44H559.85C559.84 75.628 559.644 75.0027 559.262 74.564C558.879 74.1253 558.352 73.906 557.68 73.906C556.98 73.906 556.424 74.13 556.014 74.578C555.612 75.0167 555.398 75.6373 555.37 76.44ZM564.942 73.08C565.829 73.08 566.65 73.2667 567.406 73.64L567.182 74.466C566.464 74.102 565.717 73.92 564.942 73.92C564.401 73.92 563.986 74.018 563.696 74.214C563.416 74.41 563.276 74.6853 563.276 75.04C563.276 75.376 563.398 75.642 563.64 75.838C563.892 76.034 564.345 76.188 564.998 76.3C565.95 76.4587 566.632 76.72 567.042 77.084C567.462 77.448 567.672 77.9473 567.672 78.582C567.672 79.2167 567.43 79.7207 566.944 80.094C566.468 80.458 565.801 80.64 564.942 80.64C563.944 80.64 563.048 80.4067 562.254 79.94L562.492 79.114C563.258 79.5713 564.074 79.8 564.942 79.8C565.484 79.8 565.899 79.6973 566.188 79.492C566.478 79.2773 566.622 78.974 566.622 78.582C566.622 78.2087 566.492 77.9193 566.23 77.714C565.978 77.5087 565.53 77.35 564.886 77.238C563.962 77.0793 563.29 76.8273 562.87 76.482C562.46 76.1273 562.254 75.6467 562.254 75.04C562.254 74.4427 562.488 73.9667 562.954 73.612C563.43 73.2573 564.093 73.08 564.942 73.08ZM571.53 70.84V73.5H574.288V74.34H571.53V78.162C571.53 78.8153 571.619 79.254 571.796 79.478C571.973 79.6927 572.305 79.8 572.79 79.8C573.219 79.8 573.63 79.7207 574.022 79.562L574.19 80.388C573.714 80.556 573.201 80.64 572.65 80.64C571.857 80.64 571.297 80.472 570.97 80.136C570.643 79.7907 570.48 79.198 570.48 78.358V74.34H568.87V73.5H570.48V70.84H571.53Z" fill="#E3E3E3"/>
<path d="M547.878 88.69C547.495 89.194 547.304 89.9173 547.304 90.86C547.304 91.8027 547.5 92.5307 547.892 93.044C548.284 93.548 548.811 93.8 549.474 93.8C550.109 93.8 550.622 93.5527 551.014 93.058C551.415 92.5633 551.616 91.8633 551.616 90.958V90.762C551.616 89.8753 551.415 89.18 551.014 88.676C550.622 88.172 550.109 87.92 549.474 87.92C548.793 87.92 548.261 88.1767 547.878 88.69ZM546.296 90.86C546.296 89.6373 546.557 88.704 547.08 88.06C547.603 87.4067 548.321 87.08 549.236 87.08C550.291 87.08 551.075 87.5233 551.588 88.41H551.616V84H552.638V94.5H551.658L551.644 93.268H551.616C551.103 94.1827 550.309 94.64 549.236 94.64C548.34 94.64 547.626 94.3133 547.094 93.66C546.562 92.9973 546.296 92.064 546.296 90.86ZM555.37 91.252C555.388 92.0453 555.631 92.6707 556.098 93.128C556.564 93.5853 557.171 93.814 557.918 93.814C558.636 93.814 559.35 93.6273 560.06 93.254L560.34 94.052C559.556 94.444 558.716 94.64 557.82 94.64C556.774 94.64 555.93 94.2993 555.286 93.618C554.642 92.9367 554.32 92.0173 554.32 90.86C554.32 89.684 554.618 88.76 555.216 88.088C555.822 87.416 556.644 87.08 557.68 87.08C558.688 87.08 559.467 87.402 560.018 88.046C560.578 88.6807 560.858 89.5953 560.858 90.79C560.858 90.9113 560.848 91.0653 560.83 91.252H555.37ZM555.37 90.44H559.85C559.84 89.628 559.644 89.0027 559.262 88.564C558.879 88.1253 558.352 87.906 557.68 87.906C556.98 87.906 556.424 88.13 556.014 88.578C555.612 89.0167 555.398 89.6373 555.37 90.44ZM564.942 87.08C565.829 87.08 566.65 87.2667 567.406 87.64L567.182 88.466C566.464 88.102 565.717 87.92 564.942 87.92C564.401 87.92 563.986 88.018 563.696 88.214C563.416 88.41 563.276 88.6853 563.276 89.04C563.276 89.376 563.398 89.642 563.64 89.838C563.892 90.034 564.345 90.188 564.998 90.3C565.95 90.4587 566.632 90.72 567.042 91.084C567.462 91.448 567.672 91.9473 567.672 92.582C567.672 93.2167 567.43 93.7207 566.944 94.094C566.468 94.458 565.801 94.64 564.942 94.64C563.944 94.64 563.048 94.4067 562.254 93.94L562.492 93.114C563.258 93.5713 564.074 93.8 564.942 93.8C565.484 93.8 565.899 93.6973 566.188 93.492C566.478 93.2773 566.622 92.974 566.622 92.582C566.622 92.2087 566.492 91.9193 566.23 91.714C565.978 91.5087 565.53 91.35 564.886 91.238C563.962 91.0793 563.29 90.8273 562.87 90.482C562.46 90.1273 562.254 89.6467 562.254 89.04C562.254 88.4427 562.488 87.9667 562.954 87.612C563.43 87.2573 564.093 87.08 564.942 87.08ZM571.53 84.84V87.5H574.288V88.34H571.53V92.162C571.53 92.8153 571.619 93.254 571.796 93.478C571.973 93.6927 572.305 93.8 572.79 93.8C573.219 93.8 573.63 93.7207 574.022 93.562L574.19 94.388C573.714 94.556 573.201 94.64 572.65 94.64C571.857 94.64 571.297 94.472 570.97 94.136C570.643 93.7907 570.48 93.198 570.48 92.358V88.34H568.87V87.5H570.48V84.84H571.53Z" fill="#E3E3E3"/>
<path d="M458.349 56.28H464.481V57.218L461.121 60.508V60.536H461.555C462.545 60.536 463.301 60.774 463.823 61.25C464.355 61.726 464.621 62.4167 464.621 63.322C464.621 64.386 464.304 65.2073 463.669 65.786C463.044 66.3553 462.148 66.64 460.981 66.64C459.973 66.64 459.087 66.3973 458.321 65.912L458.657 65.002C459.441 65.4687 460.216 65.702 460.981 65.702C461.803 65.702 462.428 65.5013 462.857 65.1C463.287 64.6987 463.501 64.106 463.501 63.322C463.501 62.6593 463.277 62.1693 462.829 61.852C462.391 61.5253 461.686 61.362 460.715 61.362H459.693V60.494L463.039 57.246V57.218H458.349V56.28Z" fill="#E3E3E3"/>
<path d="M443.823 73.22L445.433 79.576H445.461L447.015 73.22H448.457L450.011 79.576H450.039L451.649 73.22H452.755L450.683 80.5H449.283L447.729 74.242H447.701L446.147 80.5H444.747L442.675 73.22H443.823ZM454.989 71.54V70H456.067V71.54H454.989ZM454.989 80.5V73.22H456.067V80.5H454.989ZM459.884 74.69C459.501 75.194 459.31 75.9173 459.31 76.86C459.31 77.8027 459.506 78.5307 459.898 79.044C460.29 79.548 460.817 79.8 461.48 79.8C462.115 79.8 462.628 79.5527 463.02 79.058C463.421 78.5633 463.622 77.8633 463.622 76.958V76.762C463.622 75.8753 463.421 75.18 463.02 74.676C462.628 74.172 462.115 73.92 461.48 73.92C460.799 73.92 460.267 74.1767 459.884 74.69ZM458.302 76.86C458.302 75.6373 458.563 74.704 459.086 74.06C459.609 73.4067 460.327 73.08 461.242 73.08C462.297 73.08 463.081 73.5233 463.594 74.41H463.622V70H464.644V80.5H463.664L463.65 79.268H463.622C463.109 80.1827 462.315 80.64 461.242 80.64C460.346 80.64 459.632 80.3133 459.1 79.66C458.568 78.9973 458.302 78.064 458.302 76.86ZM469.126 70.84V73.5H471.884V74.34H469.126V78.162C469.126 78.8153 469.214 79.254 469.392 79.478C469.569 79.6927 469.9 79.8 470.386 79.8C470.815 79.8 471.226 79.7207 471.618 79.562L471.786 80.388C471.31 80.556 470.796 80.64 470.246 80.64C469.452 80.64 468.892 80.472 468.566 80.136C468.239 79.7907 468.076 79.198 468.076 78.358V74.34H466.466V73.5H468.076V70.84H469.126ZM474.05 70H475.072V74.466H475.1C475.716 73.542 476.532 73.08 477.55 73.08C478.371 73.08 478.978 73.3367 479.37 73.85C479.771 74.354 479.972 75.1567 479.972 76.258V80.5H478.964V76.342C478.964 75.4367 478.833 74.8113 478.572 74.466C478.31 74.1113 477.862 73.934 477.228 73.934C476.668 73.934 476.168 74.2093 475.73 74.76C475.291 75.3013 475.072 75.9173 475.072 76.608V80.5H474.05V70Z" fill="#E3E3E3"/>
<path d="M443.823 87.22L445.433 93.576H445.461L447.015 87.22H448.457L450.011 93.576H450.039L451.649 87.22H452.755L450.683 94.5H449.283L447.729 88.242H447.701L446.147 94.5H444.747L442.675 87.22H443.823ZM454.989 85.54V84H456.067V85.54H454.989ZM454.989 94.5V87.22H456.067V94.5H454.989ZM459.884 88.69C459.501 89.194 459.31 89.9173 459.31 90.86C459.31 91.8027 459.506 92.5307 459.898 93.044C460.29 93.548 460.817 93.8 461.48 93.8C462.115 93.8 462.628 93.5527 463.02 93.058C463.421 92.5633 463.622 91.8633 463.622 90.958V90.762C463.622 89.8753 463.421 89.18 463.02 88.676C462.628 88.172 462.115 87.92 461.48 87.92C460.799 87.92 460.267 88.1767 459.884 88.69ZM458.302 90.86C458.302 89.6373 458.563 88.704 459.086 88.06C459.609 87.4067 460.327 87.08 461.242 87.08C462.297 87.08 463.081 87.5233 463.594 88.41H463.622V84H464.644V94.5H463.664L463.65 93.268H463.622C463.109 94.1827 462.315 94.64 461.242 94.64C460.346 94.64 459.632 94.3133 459.1 93.66C458.568 92.9973 458.302 92.064 458.302 90.86ZM469.126 84.84V87.5H471.884V88.34H469.126V92.162C469.126 92.8153 469.214 93.254 469.392 93.478C469.569 93.6927 469.9 93.8 470.386 93.8C470.815 93.8 471.226 93.7207 471.618 93.562L471.786 94.388C471.31 94.556 470.796 94.64 470.246 94.64C469.452 94.64 468.892 94.472 468.566 94.136C468.239 93.7907 468.076 93.198 468.076 92.358V88.34H466.466V87.5H468.076V84.84H469.126ZM474.05 84H475.072V88.466H475.1C475.716 87.542 476.532 87.08 477.55 87.08C478.371 87.08 478.978 87.3367 479.37 87.85C479.771 88.354 479.972 89.1567 479.972 90.258V94.5H478.964V90.342C478.964 89.4367 478.833 88.8113 478.572 88.466C478.31 88.1113 477.862 87.934 477.228 87.934C476.668 87.934 476.168 88.2093 475.73 88.76C475.291 89.3013 475.072 89.9173 475.072 90.608V94.5H474.05V84Z" fill="#E3E3E3"/>
<path d="M365.327 57.218H360.903L360.707 60.522H360.735C361.286 60.1953 361.907 60.032 362.597 60.032C363.596 60.032 364.371 60.3027 364.921 60.844C365.472 61.3853 365.747 62.1507 365.747 63.14C365.747 64.2787 365.425 65.1467 364.781 65.744C364.147 66.3413 363.213 66.64 361.981 66.64C361.029 66.64 360.152 66.416 359.349 65.968L359.629 65.044C360.413 65.4827 361.197 65.702 361.981 65.702C363.745 65.702 364.627 64.848 364.627 63.14C364.627 62.4213 364.436 61.8753 364.053 61.502C363.671 61.1193 363.12 60.928 362.401 60.928C361.664 60.928 361.053 61.1427 360.567 61.572H359.587L359.895 56.28H365.327V57.218Z" fill="#E3E3E3"/>
<path d="M351.109 73.08C352.127 73.08 352.855 73.29 353.293 73.71C353.732 74.13 353.951 74.8207 353.951 75.782V78.54C353.951 79.2027 354.021 79.856 354.161 80.5H353.181C353.107 80.136 353.06 79.7067 353.041 79.212H353.013C352.761 79.66 352.397 80.01 351.921 80.262C351.445 80.514 350.909 80.64 350.311 80.64C349.639 80.64 349.103 80.4533 348.701 80.08C348.3 79.6973 348.099 79.184 348.099 78.54C348.099 77.728 348.454 77.084 349.163 76.608C349.873 76.1227 350.881 75.88 352.187 75.88H352.929V75.81C352.929 75.1007 352.794 74.6107 352.523 74.34C352.262 74.06 351.791 73.92 351.109 73.92C350.232 73.92 349.415 74.1347 348.659 74.564L348.477 73.738C349.28 73.2993 350.157 73.08 351.109 73.08ZM349.107 78.498C349.107 78.918 349.238 79.2493 349.499 79.492C349.761 79.7253 350.111 79.842 350.549 79.842C351.193 79.842 351.749 79.6133 352.215 79.156C352.691 78.6893 352.929 78.12 352.929 77.448V76.664H352.187C351.207 76.664 350.447 76.832 349.905 77.168C349.373 77.4947 349.107 77.938 349.107 78.498ZM357.281 74.69C356.899 75.194 356.707 75.9173 356.707 76.86C356.707 77.8027 356.903 78.5307 357.295 79.044C357.687 79.548 358.215 79.8 358.877 79.8C359.512 79.8 360.025 79.5527 360.417 79.058C360.819 78.5633 361.019 77.8633 361.019 76.958V76.762C361.019 75.8753 360.819 75.18 360.417 74.676C360.025 74.172 359.512 73.92 358.877 73.92C358.196 73.92 357.664 74.1767 357.281 74.69ZM355.699 76.86C355.699 75.6373 355.961 74.704 356.483 74.06C357.006 73.4067 357.725 73.08 358.639 73.08C359.694 73.08 360.478 73.5233 360.991 74.41H361.019V70H362.041V80.5H361.061L361.047 79.268H361.019C360.506 80.1827 359.713 80.64 358.639 80.64C357.743 80.64 357.029 80.3133 356.497 79.66C355.965 78.9973 355.699 78.064 355.699 76.86ZM365.375 74.69C364.992 75.194 364.801 75.9173 364.801 76.86C364.801 77.8027 364.997 78.5307 365.389 79.044C365.781 79.548 366.308 79.8 366.971 79.8C367.606 79.8 368.119 79.5527 368.511 79.058C368.912 78.5633 369.113 77.8633 369.113 76.958V76.762C369.113 75.8753 368.912 75.18 368.511 74.676C368.119 74.172 367.606 73.92 366.971 73.92C366.29 73.92 365.758 74.1767 365.375 74.69ZM363.793 76.86C363.793 75.6373 364.054 74.704 364.577 74.06C365.1 73.4067 365.818 73.08 366.733 73.08C367.788 73.08 368.572 73.5233 369.085 74.41H369.113V70H370.135V80.5H369.155L369.141 79.268H369.113C368.6 80.1827 367.806 80.64 366.733 80.64C365.837 80.64 365.123 80.3133 364.591 79.66C364.059 78.9973 363.793 78.064 363.793 76.86ZM372.307 73.22H373.301L373.329 74.774H373.357C374.178 73.6447 375.336 73.08 376.829 73.08V73.962C375.793 73.962 374.953 74.2467 374.309 74.816C373.674 75.3853 373.357 76.1227 373.357 77.028V80.5H372.307V73.22Z" fill="#E3E3E3"/>
<path d="M351.109 87.08C352.127 87.08 352.855 87.29 353.293 87.71C353.732 88.13 353.951 88.8207 353.951 89.782V92.54C353.951 93.2027 354.021 93.856 354.161 94.5H353.181C353.107 94.136 353.06 93.7067 353.041 93.212H353.013C352.761 93.66 352.397 94.01 351.921 94.262C351.445 94.514 350.909 94.64 350.311 94.64C349.639 94.64 349.103 94.4533 348.701 94.08C348.3 93.6973 348.099 93.184 348.099 92.54C348.099 91.728 348.454 91.084 349.163 90.608C349.873 90.1227 350.881 89.88 352.187 89.88H352.929V89.81C352.929 89.1007 352.794 88.6107 352.523 88.34C352.262 88.06 351.791 87.92 351.109 87.92C350.232 87.92 349.415 88.1347 348.659 88.564L348.477 87.738C349.28 87.2993 350.157 87.08 351.109 87.08ZM349.107 92.498C349.107 92.918 349.238 93.2493 349.499 93.492C349.761 93.7253 350.111 93.842 350.549 93.842C351.193 93.842 351.749 93.6133 352.215 93.156C352.691 92.6893 352.929 92.12 352.929 91.448V90.664H352.187C351.207 90.664 350.447 90.832 349.905 91.168C349.373 91.4947 349.107 91.938 349.107 92.498ZM357.281 88.69C356.899 89.194 356.707 89.9173 356.707 90.86C356.707 91.8027 356.903 92.5307 357.295 93.044C357.687 93.548 358.215 93.8 358.877 93.8C359.512 93.8 360.025 93.5527 360.417 93.058C360.819 92.5633 361.019 91.8633 361.019 90.958V90.762C361.019 89.8753 360.819 89.18 360.417 88.676C360.025 88.172 359.512 87.92 358.877 87.92C358.196 87.92 357.664 88.1767 357.281 88.69ZM355.699 90.86C355.699 89.6373 355.961 88.704 356.483 88.06C357.006 87.4067 357.725 87.08 358.639 87.08C359.694 87.08 360.478 87.5233 360.991 88.41H361.019V84H362.041V94.5H361.061L361.047 93.268H361.019C360.506 94.1827 359.713 94.64 358.639 94.64C357.743 94.64 357.029 94.3133 356.497 93.66C355.965 92.9973 355.699 92.064 355.699 90.86ZM365.375 88.69C364.992 89.194 364.801 89.9173 364.801 90.86C364.801 91.8027 364.997 92.5307 365.389 93.044C365.781 93.548 366.308 93.8 366.971 93.8C367.606 93.8 368.119 93.5527 368.511 93.058C368.912 92.5633 369.113 91.8633 369.113 90.958V90.762C369.113 89.8753 368.912 89.18 368.511 88.676C368.119 88.172 367.606 87.92 366.971 87.92C366.29 87.92 365.758 88.1767 365.375 88.69ZM363.793 90.86C363.793 89.6373 364.054 88.704 364.577 88.06C365.1 87.4067 365.818 87.08 366.733 87.08C367.788 87.08 368.572 87.5233 369.085 88.41H369.113V84H370.135V94.5H369.155L369.141 93.268H369.113C368.6 94.1827 367.806 94.64 366.733 94.64C365.837 94.64 365.123 94.3133 364.591 93.66C364.059 92.9973 363.793 92.064 363.793 90.86ZM372.307 87.22H373.301L373.329 88.774H373.357C374.178 87.6447 375.336 87.08 376.829 87.08V87.962C375.793 87.962 374.953 88.2467 374.309 88.816C373.674 89.3853 373.357 90.1227 373.357 91.028V94.5H372.307V87.22Z" fill="#E3E3E3"/>
<path d="M241.327 57.218H236.903L236.707 60.522H236.735C237.286 60.1953 237.907 60.032 238.597 60.032C239.596 60.032 240.371 60.3027 240.921 60.844C241.472 61.3853 241.747 62.1507 241.747 63.14C241.747 64.2787 241.425 65.1467 240.781 65.744C240.147 66.3413 239.213 66.64 237.981 66.64C237.029 66.64 236.152 66.416 235.349 65.968L235.629 65.044C236.413 65.4827 237.197 65.702 237.981 65.702C239.745 65.702 240.627 64.848 240.627 63.14C240.627 62.4213 240.436 61.8753 240.053 61.502C239.671 61.1193 239.12 60.928 238.401 60.928C237.664 60.928 237.053 61.1427 236.567 61.572H235.587L235.895 56.28H241.327V57.218Z" fill="#E3E3E3"/>
<path d="M238.485 70.14C240.949 70.14 242.181 71.89 242.181 75.39C242.181 78.89 240.949 80.64 238.485 80.64C237.319 80.64 236.413 80.234 235.769 79.422C235.125 78.61 234.803 77.266 234.803 75.39C234.803 73.514 235.125 72.17 235.769 71.358C236.413 70.546 237.319 70.14 238.485 70.14ZM236.553 78.708C236.983 79.3893 237.627 79.73 238.485 79.73C239.344 79.73 239.988 79.3893 240.417 78.708C240.847 78.0173 241.061 76.9113 241.061 75.39C241.061 73.8687 240.847 72.7673 240.417 72.086C239.988 71.3953 239.344 71.05 238.485 71.05C237.627 71.05 236.983 71.3953 236.553 72.086C236.133 72.7673 235.923 73.8687 235.923 75.39C235.923 76.9113 236.133 78.0173 236.553 78.708Z" fill="#E3E3E3"/>
<path d="M231.786 87.08C232.673 87.08 233.494 87.2667 234.25 87.64L234.026 88.466C233.307 88.102 232.561 87.92 231.786 87.92C231.245 87.92 230.829 88.018 230.54 88.214C230.26 88.41 230.12 88.6853 230.12 89.04C230.12 89.376 230.241 89.642 230.484 89.838C230.736 90.034 231.189 90.188 231.842 90.3C232.794 90.4587 233.475 90.72 233.886 91.084C234.306 91.448 234.516 91.9473 234.516 92.582C234.516 93.2167 234.273 93.7207 233.788 94.094C233.312 94.458 232.645 94.64 231.786 94.64C230.787 94.64 229.891 94.4067 229.098 93.94L229.336 93.114C230.101 93.5713 230.918 93.8 231.786 93.8C232.327 93.8 232.743 93.6973 233.032 93.492C233.321 93.2773 233.466 92.974 233.466 92.582C233.466 92.2087 233.335 91.9193 233.074 91.714C232.822 91.5087 232.374 91.35 231.73 91.238C230.806 91.0793 230.134 90.8273 229.714 90.482C229.303 90.1273 229.098 89.6467 229.098 89.04C229.098 88.4427 229.331 87.9667 229.798 87.612C230.274 87.2573 230.937 87.08 231.786 87.08ZM236.337 87.22H237.331L237.359 88.774H237.387C238.208 87.6447 239.366 87.08 240.859 87.08V87.962C239.823 87.962 238.983 88.2467 238.339 88.816C237.704 89.3853 237.387 90.1227 237.387 91.028V94.5H236.337V87.22ZM245.599 87.934C244.778 87.934 244.139 88.1907 243.681 88.704C243.224 89.208 242.995 89.9267 242.995 90.86C242.995 91.756 243.233 92.47 243.709 93.002C244.195 93.534 244.825 93.8 245.599 93.8C246.253 93.8 246.878 93.6413 247.475 93.324L247.755 94.15C247.055 94.4767 246.323 94.64 245.557 94.64C244.475 94.64 243.597 94.2993 242.925 93.618C242.253 92.9273 241.917 92.008 241.917 90.86C241.917 89.6747 242.239 88.7507 242.883 88.088C243.527 87.416 244.419 87.08 245.557 87.08C246.323 87.08 247.055 87.2433 247.755 87.57L247.475 88.424C246.85 88.0973 246.225 87.934 245.599 87.934Z" fill="#E3E3E3"/>
<path d="M164.513 66.5V57.624H164.485L161.727 60.172L161.293 59.262L164.513 56.28H165.633V66.5H164.513Z" fill="#E3E3E3"/>
<path d="M140.513 66.5V57.624H140.485L137.727 60.172L137.293 59.262L140.513 56.28H141.633V66.5H140.513Z" fill="#E3E3E3"/>
<path d="M129.98 74.704C129.56 74.1813 128.981 73.92 128.244 73.92C127.507 73.92 126.923 74.1813 126.494 74.704C126.074 75.2173 125.864 75.936 125.864 76.86C125.864 77.784 126.074 78.5073 126.494 79.03C126.923 79.5433 127.507 79.8 128.244 79.8C128.981 79.8 129.56 79.5433 129.98 79.03C130.409 78.5073 130.624 77.784 130.624 76.86C130.624 75.936 130.409 75.2173 129.98 74.704ZM130.736 79.618C130.111 80.2993 129.28 80.64 128.244 80.64C127.208 80.64 126.377 80.2993 125.752 79.618C125.127 78.9367 124.814 78.0173 124.814 76.86C124.814 75.7027 125.127 74.7833 125.752 74.102C126.377 73.4207 127.208 73.08 128.244 73.08C129.28 73.08 130.111 73.4207 130.736 74.102C131.361 74.7833 131.674 75.7027 131.674 76.86C131.674 78.0173 131.361 78.9367 130.736 79.618ZM133.288 73.22H134.282L134.31 74.774H134.338C135.16 73.6447 136.317 73.08 137.81 73.08V73.962C136.774 73.962 135.934 74.2467 135.29 74.816C134.656 75.3853 134.338 76.1227 134.338 77.028V80.5H133.288V73.22ZM140.521 74.69C140.138 75.194 139.947 75.9173 139.947 76.86C139.947 77.8027 140.143 78.5307 140.535 79.044C140.927 79.548 141.454 79.8 142.117 79.8C142.751 79.8 143.265 79.5527 143.657 79.058C144.058 78.5633 144.259 77.8633 144.259 76.958V76.762C144.259 75.8753 144.058 75.18 143.657 74.676C143.265 74.172 142.751 73.92 142.117 73.92C141.435 73.92 140.903 74.1767 140.521 74.69ZM138.939 76.86C138.939 75.6373 139.2 74.704 139.723 74.06C140.245 73.4067 140.964 73.08 141.879 73.08C142.933 73.08 143.717 73.5233 144.231 74.41H144.259V70H145.281V80.5H144.301L144.287 79.268H144.259C143.745 80.1827 142.952 80.64 141.879 80.64C140.983 80.64 140.269 80.3133 139.737 79.66C139.205 78.9973 138.939 78.064 138.939 76.86ZM148.012 77.252C148.031 78.0453 148.274 78.6707 148.74 79.128C149.207 79.5853 149.814 79.814 150.56 79.814C151.279 79.814 151.993 79.6273 152.702 79.254L152.982 80.052C152.198 80.444 151.358 80.64 150.462 80.64C149.417 80.64 148.572 80.2993 147.928 79.618C147.284 78.9367 146.962 78.0173 146.962 76.86C146.962 75.684 147.261 74.76 147.858 74.088C148.465 73.416 149.286 73.08 150.322 73.08C151.33 73.08 152.11 73.402 152.66 74.046C153.22 74.6807 153.5 75.5953 153.5 76.79C153.5 76.9113 153.491 77.0653 153.472 77.252H148.012ZM148.012 76.44H152.492C152.483 75.628 152.287 75.0027 151.904 74.564C151.522 74.1253 150.994 73.906 150.322 73.906C149.622 73.906 149.067 74.13 148.656 74.578C148.255 75.0167 148.04 75.6373 148.012 76.44ZM155.177 73.22H156.171L156.199 74.774H156.227C157.048 73.6447 158.206 73.08 159.699 73.08V73.962C158.663 73.962 157.823 74.2467 157.179 74.816C156.544 75.3853 156.227 76.1227 156.227 77.028V80.5H155.177V73.22ZM162.081 71.54V70H163.159V71.54H162.081ZM162.081 80.5V73.22H163.159V80.5H162.081ZM165.814 73.22H166.794L166.808 74.522H166.836C167.116 74.074 167.47 73.724 167.9 73.472C168.338 73.2107 168.81 73.08 169.314 73.08C170.135 73.08 170.742 73.3367 171.134 73.85C171.535 74.354 171.736 75.1567 171.736 76.258V80.5H170.728V76.342C170.728 75.4367 170.597 74.8113 170.336 74.466C170.074 74.1113 169.626 73.934 168.992 73.934C168.45 73.934 167.956 74.2047 167.508 74.746C167.06 75.278 166.836 75.8987 166.836 76.608V80.5H165.814V73.22ZM174.359 76.72C174.359 77.588 174.55 78.274 174.933 78.778C175.325 79.2727 175.838 79.52 176.473 79.52C177.117 79.52 177.644 79.2773 178.055 78.792C178.465 78.3067 178.671 77.6393 178.671 76.79V76.65C178.671 75.81 178.465 75.1473 178.055 74.662C177.644 74.1673 177.117 73.92 176.473 73.92C175.81 73.92 175.292 74.1627 174.919 74.648C174.545 75.124 174.359 75.8147 174.359 76.72ZM173.351 76.72C173.351 75.5533 173.607 74.6573 174.121 74.032C174.634 73.3973 175.343 73.08 176.249 73.08C177.341 73.08 178.148 73.5327 178.671 74.438H178.699L178.713 73.22H179.693V79.898C179.693 82.446 178.559 83.72 176.291 83.72C175.497 83.72 174.741 83.5707 174.023 83.272L174.261 82.446C174.923 82.7353 175.6 82.88 176.291 82.88C177.112 82.88 177.714 82.6513 178.097 82.194C178.479 81.7367 178.671 80.9853 178.671 79.94V79.044H178.643C178.139 79.9213 177.341 80.36 176.249 80.36C175.399 80.36 174.704 80.0333 174.163 79.38C173.621 78.7173 173.351 77.8307 173.351 76.72Z" fill="#E3E3E3"/>
<path d="M129.98 88.704C129.56 88.1813 128.981 87.92 128.244 87.92C127.507 87.92 126.923 88.1813 126.494 88.704C126.074 89.2173 125.864 89.936 125.864 90.86C125.864 91.784 126.074 92.5073 126.494 93.03C126.923 93.5433 127.507 93.8 128.244 93.8C128.981 93.8 129.56 93.5433 129.98 93.03C130.409 92.5073 130.624 91.784 130.624 90.86C130.624 89.936 130.409 89.2173 129.98 88.704ZM130.736 93.618C130.111 94.2993 129.28 94.64 128.244 94.64C127.208 94.64 126.377 94.2993 125.752 93.618C125.127 92.9367 124.814 92.0173 124.814 90.86C124.814 89.7027 125.127 88.7833 125.752 88.102C126.377 87.4207 127.208 87.08 128.244 87.08C129.28 87.08 130.111 87.4207 130.736 88.102C131.361 88.7833 131.674 89.7027 131.674 90.86C131.674 92.0173 131.361 92.9367 130.736 93.618ZM133.288 87.22H134.282L134.31 88.774H134.338C135.16 87.6447 136.317 87.08 137.81 87.08V87.962C136.774 87.962 135.934 88.2467 135.29 88.816C134.656 89.3853 134.338 90.1227 134.338 91.028V94.5H133.288V87.22ZM140.521 88.69C140.138 89.194 139.947 89.9173 139.947 90.86C139.947 91.8027 140.143 92.5307 140.535 93.044C140.927 93.548 141.454 93.8 142.117 93.8C142.751 93.8 143.265 93.5527 143.657 93.058C144.058 92.5633 144.259 91.8633 144.259 90.958V90.762C144.259 89.8753 144.058 89.18 143.657 88.676C143.265 88.172 142.751 87.92 142.117 87.92C141.435 87.92 140.903 88.1767 140.521 88.69ZM138.939 90.86C138.939 89.6373 139.2 88.704 139.723 88.06C140.245 87.4067 140.964 87.08 141.879 87.08C142.933 87.08 143.717 87.5233 144.231 88.41H144.259V84H145.281V94.5H144.301L144.287 93.268H144.259C143.745 94.1827 142.952 94.64 141.879 94.64C140.983 94.64 140.269 94.3133 139.737 93.66C139.205 92.9973 138.939 92.064 138.939 90.86ZM148.012 91.252C148.031 92.0453 148.274 92.6707 148.74 93.128C149.207 93.5853 149.814 93.814 150.56 93.814C151.279 93.814 151.993 93.6273 152.702 93.254L152.982 94.052C152.198 94.444 151.358 94.64 150.462 94.64C149.417 94.64 148.572 94.2993 147.928 93.618C147.284 92.9367 146.962 92.0173 146.962 90.86C146.962 89.684 147.261 88.76 147.858 88.088C148.465 87.416 149.286 87.08 150.322 87.08C151.33 87.08 152.11 87.402 152.66 88.046C153.22 88.6807 153.5 89.5953 153.5 90.79C153.5 90.9113 153.491 91.0653 153.472 91.252H148.012ZM148.012 90.44H152.492C152.483 89.628 152.287 89.0027 151.904 88.564C151.522 88.1253 150.994 87.906 150.322 87.906C149.622 87.906 149.067 88.13 148.656 88.578C148.255 89.0167 148.04 89.6373 148.012 90.44ZM155.177 87.22H156.171L156.199 88.774H156.227C157.048 87.6447 158.206 87.08 159.699 87.08V87.962C158.663 87.962 157.823 88.2467 157.179 88.816C156.544 89.3853 156.227 90.1227 156.227 91.028V94.5H155.177V87.22ZM162.081 85.54V84H163.159V85.54H162.081ZM162.081 94.5V87.22H163.159V94.5H162.081ZM165.814 87.22H166.794L166.808 88.522H166.836C167.116 88.074 167.47 87.724 167.9 87.472C168.338 87.2107 168.81 87.08 169.314 87.08C170.135 87.08 170.742 87.3367 171.134 87.85C171.535 88.354 171.736 89.1567 171.736 90.258V94.5H170.728V90.342C170.728 89.4367 170.597 88.8113 170.336 88.466C170.074 88.1113 169.626 87.934 168.992 87.934C168.45 87.934 167.956 88.2047 167.508 88.746C167.06 89.278 166.836 89.8987 166.836 90.608V94.5H165.814V87.22ZM174.359 90.72C174.359 91.588 174.55 92.274 174.933 92.778C175.325 93.2727 175.838 93.52 176.473 93.52C177.117 93.52 177.644 93.2773 178.055 92.792C178.465 92.3067 178.671 91.6393 178.671 90.79V90.65C178.671 89.81 178.465 89.1473 178.055 88.662C177.644 88.1673 177.117 87.92 176.473 87.92C175.81 87.92 175.292 88.1627 174.919 88.648C174.545 89.124 174.359 89.8147 174.359 90.72ZM173.351 90.72C173.351 89.5533 173.607 88.6573 174.121 88.032C174.634 87.3973 175.343 87.08 176.249 87.08C177.341 87.08 178.148 87.5327 178.671 88.438H178.699L178.713 87.22H179.693V93.898C179.693 96.446 178.559 97.72 176.291 97.72C175.497 97.72 174.741 97.5707 174.023 97.272L174.261 96.446C174.923 96.7353 175.6 96.88 176.291 96.88C177.112 96.88 177.714 96.6513 178.097 96.194C178.479 95.7367 178.671 94.9853 178.671 93.94V93.044H178.643C178.139 93.9213 177.341 94.36 176.249 94.36C175.399 94.36 174.704 94.0333 174.163 93.38C173.621 92.7173 173.351 91.8307 173.351 90.72Z" fill="#E3E3E3"/>
<path d="M68.3272 57.218H63.9032L63.7072 60.522H63.7352C64.2858 60.1953 64.9065 60.032 65.5972 60.032C66.5958 60.032 67.3705 60.3027 67.9212 60.844C68.4718 61.3853 68.7472 62.1507 68.7472 63.14C68.7472 64.2787 68.4252 65.1467 67.7812 65.744C67.1465 66.3413 66.2132 66.64 64.9812 66.64C64.0292 66.64 63.1518 66.416 62.3492 65.968L62.6292 65.044C63.4132 65.4827 64.1972 65.702 64.9812 65.702C66.7452 65.702 67.6272 64.848 67.6272 63.14C67.6272 62.4213 67.4358 61.8753 67.0532 61.502C66.6705 61.1193 66.1198 60.928 65.4012 60.928C64.6638 60.928 64.0525 61.1427 63.5672 61.572H62.5872L62.8952 56.28H68.3272V57.218Z" fill="#E3E3E3"/>
<path d="M43.2426 70.28V79.548H48.2406V80.5H42.0806V70.28H43.2426ZM50.2701 80.5V70.35C51.0821 70.21 51.9547 70.14 52.8881 70.14C54.1947 70.14 55.1794 70.3827 55.8421 70.868C56.5141 71.344 56.8501 72.0253 56.8501 72.912C56.8501 73.6213 56.6587 74.214 56.2761 74.69C55.8934 75.166 55.3521 75.4927 54.6521 75.67V75.698C55.0721 75.922 55.4874 76.5287 55.8981 77.518L57.1301 80.5H55.9681L54.7641 77.546C54.4841 76.874 54.2181 76.4587 53.9661 76.3C53.7234 76.132 53.2381 76.048 52.5101 76.048H51.3901V80.5H50.2701ZM51.3901 75.152H52.5101C53.6207 75.152 54.4374 74.9747 54.9601 74.62C55.4827 74.256 55.7441 73.7193 55.7441 73.01C55.7441 71.7033 54.7594 71.05 52.7901 71.05C52.2954 71.05 51.8287 71.092 51.3901 71.176V75.152ZM59.0917 80.5V78.54H60.3937V80.5H59.0917ZM62.6706 70.28L64.7286 79.296H64.7566L66.8566 70.28H68.3126L70.4126 79.296H70.4406L72.4986 70.28H73.6046L71.0986 80.5H69.6846L67.5846 71.484H67.5566L65.4426 80.5H64.0426L61.5226 70.28H62.6706ZM79.8687 70.28L75.0387 81.06H73.9607L78.7767 70.28H79.8687ZM84.2344 71.078C83.7491 71.078 83.2964 71.12 82.8764 71.204V79.576C83.2964 79.66 83.7491 79.702 84.2344 79.702C87.0624 79.702 88.4764 78.218 88.4764 75.25C88.4764 73.8687 88.1171 72.828 87.3984 72.128C86.6797 71.428 85.6251 71.078 84.2344 71.078ZM89.5544 75.25C89.5544 77.014 89.0971 78.3533 88.1824 79.268C87.2677 80.1827 85.9517 80.64 84.2344 80.64C83.4037 80.64 82.5777 80.5653 81.7564 80.416V70.364C82.5964 70.2147 83.4224 70.14 84.2344 70.14C85.9424 70.14 87.2537 70.5833 88.1684 71.47C89.0924 72.3473 89.5544 73.6073 89.5544 75.25Z" fill="#E3E3E3"/>
<path d="M44.601 85.05C43.957 85.05 43.4577 85.1947 43.103 85.484C42.7483 85.764 42.571 86.156 42.571 86.66C42.571 87.5653 43.2337 88.2187 44.559 88.62C45.7163 88.956 46.5377 89.376 47.023 89.88C47.5177 90.384 47.765 91.0373 47.765 91.84C47.765 92.7453 47.4803 93.4407 46.911 93.926C46.351 94.402 45.5483 94.64 44.503 94.64C43.3457 94.64 42.319 94.346 41.423 93.758L41.759 92.834C42.571 93.4127 43.4857 93.702 44.503 93.702C45.1937 93.702 45.721 93.5433 46.085 93.226C46.4583 92.9087 46.645 92.4467 46.645 91.84C46.645 91.28 46.4863 90.8367 46.169 90.51C45.861 90.174 45.315 89.8847 44.531 89.642C42.487 89.0353 41.465 88.0413 41.465 86.66C41.465 85.8947 41.7403 85.2833 42.291 84.826C42.851 84.3687 43.621 84.14 44.601 84.14C45.6557 84.14 46.6357 84.3593 47.541 84.798L47.261 85.666C46.449 85.2553 45.5623 85.05 44.601 85.05ZM54.2117 85.078C52.9797 85.078 51.995 85.47 51.2577 86.254C50.5297 87.0287 50.1657 88.074 50.1657 89.39C50.1657 90.706 50.539 91.756 51.2857 92.54C52.0417 93.3147 53.017 93.702 54.2117 93.702C55.1823 93.702 56.083 93.436 56.9137 92.904L57.2917 93.744C56.377 94.3413 55.3177 94.64 54.1137 94.64C52.5737 94.64 51.3417 94.164 50.4177 93.212C49.4937 92.26 49.0317 90.986 49.0317 89.39C49.0317 87.7753 49.489 86.4967 50.4037 85.554C51.3183 84.6113 52.555 84.14 54.1137 84.14C55.3177 84.14 56.377 84.4387 57.2917 85.036L56.9137 85.876C56.083 85.344 55.1823 85.078 54.2117 85.078ZM59.3993 94.5V92.54H60.7013V94.5H59.3993ZM62.9782 84.28L65.0362 93.296H65.0642L67.1642 84.28H68.6202L70.7202 93.296H70.7482L72.8062 84.28H73.9122L71.4062 94.5H69.9922L67.8922 85.484H67.8642L65.7502 94.5H64.3502L61.8302 84.28H62.9782ZM80.1763 84.28L75.3463 95.06H74.2683L79.0843 84.28H80.1763ZM84.542 85.078C84.0567 85.078 83.604 85.12 83.184 85.204V93.576C83.604 93.66 84.0567 93.702 84.542 93.702C87.37 93.702 88.784 92.218 88.784 89.25C88.784 87.8687 88.4247 86.828 87.706 86.128C86.9874 85.428 85.9327 85.078 84.542 85.078ZM89.862 89.25C89.862 91.014 89.4047 92.3533 88.49 93.268C87.5754 94.1827 86.2594 94.64 84.542 94.64C83.7114 94.64 82.8854 94.5653 82.064 94.416V84.364C82.904 84.2147 83.73 84.14 84.542 84.14C86.25 84.14 87.5614 84.5833 88.476 85.47C89.4 86.3473 89.862 87.6073 89.862 89.25Z" fill="#E3E3E3"/>
</g>
<defs>
<clipPath id="clip0_1_172">
<rect width="800" height="98" fill="white"/>
</clipPath>
</defs>
</svg>
