<?xml version="1.0" encoding="UTF-8" standalone="no"?>
<!DOCTYPE svg PUBLIC "-//W3C//DTD SVG 1.1//EN"
 "http://www.w3.org/Graphics/SVG/1.1/DTD/svg11.dtd">
<!-- Generated by graphviz version 12.2.1 (20241206.2353)
 -->
<!-- Title: MemoryLayout Pages: 1 -->
<svg width="208pt" height="1196pt"
 viewBox="0.00 0.00 208.00 1196.00" xmlns="http://www.w3.org/2000/svg" xmlns:xlink="http://www.w3.org/1999/xlink">
<g id="graph0" class="graph" transform="scale(1 1) rotate(0) translate(4 1192)">
<title>MemoryLayout</title>
<polygon fill="white" stroke="none" points="-4,4 -4,-1192 204,-1192 204,4 -4,4"/>
<!-- node_head -->
<g id="node1" class="node">
<title>node_head</title>
<polygon fill="none" stroke="#ff2d55" points="0,-1156.38 0,-1183.62 100,-1183.62 100,-1156.38 0,-1156.38"/>
<text text-anchor="start" x="5" y="-1165.33" font-family="SF Mono,monospace" font-size="14.00">0x80218e20</text>
<polygon fill="none" stroke="#34c759" points="100,-1156.38 100,-1183.62 200,-1183.62 200,-1156.38 100,-1156.38"/>
<text text-anchor="start" x="105" y="-1165.33" font-family="SF Mono,monospace" font-size="14.00">0x80218dc0</text>
</g>
<!-- node1 -->
<g id="node2" class="node">
<title>node1</title>
<polygon fill="none" stroke="#ff2d55" points="0,-1084.38 0,-1111.62 100,-1111.62 100,-1084.38 0,-1084.38"/>
<text text-anchor="start" x="5" y="-1093.33" font-family="SF Mono,monospace" font-size="14.00">0x80218dc0</text>
<polygon fill="none" stroke="#34c759" points="100,-1084.38 100,-1111.62 200,-1111.62 200,-1084.38 100,-1084.38"/>
<text text-anchor="start" x="105" y="-1093.33" font-family="SF Mono,monospace" font-size="14.00">0x80218db8</text>
</g>
<!-- node_head&#45;&gt;node1 -->
<!-- node_head&#45;&gt;node1 -->
<g id="edge17" class="edge">
<title>node_head:next&#45;&gt;node1:addr</title>
<path fill="none" stroke="black" d="M150,-1155.38C150,-1155.38 85.87,-1127.96 60.33,-1117.04"/>
<polygon fill="black" stroke="black" points="61.96,-1113.93 51.39,-1113.22 59.21,-1120.37 61.96,-1113.93"/>
</g>
<!-- node2 -->
<g id="node3" class="node">
<title>node2</title>
<polygon fill="none" stroke="#ff2d55" points="0,-1012.38 0,-1039.62 100,-1039.62 100,-1012.38 0,-1012.38"/>
<text text-anchor="start" x="5" y="-1021.33" font-family="SF Mono,monospace" font-size="14.00">0x80218db8</text>
<polygon fill="none" stroke="#34c759" points="100,-1012.38 100,-1039.62 200,-1039.62 200,-1012.38 100,-1012.38"/>
<text text-anchor="start" x="105" y="-1021.33" font-family="SF Mono,monospace" font-size="14.00">0x80218db0</text>
</g>
<!-- node1&#45;&gt;node2 -->
<!-- node1&#45;&gt;node2 -->
<g id="edge18" class="edge">
<title>node1:val&#45;&gt;node2:addr</title>
<path fill="none" stroke="black" d="M150,-1083.38C150,-1083.38 85.87,-1055.96 60.33,-1045.04"/>
<polygon fill="black" stroke="black" points="61.96,-1041.93 51.39,-1041.22 59.21,-1048.37 61.96,-1041.93"/>
</g>
<!-- node3 -->
<g id="node4" class="node">
<title>node3</title>
<polygon fill="none" stroke="#ff2d55" points="0,-940.38 0,-967.62 100,-967.62 100,-940.38 0,-940.38"/>
<text text-anchor="start" x="5" y="-949.33" font-family="SF Mono,monospace" font-size="14.00">0x80218db0</text>
<polygon fill="none" stroke="#34c759" points="100,-940.38 100,-967.62 200,-967.62 200,-940.38 100,-940.38"/>
<text text-anchor="start" x="105" y="-949.33" font-family="SF Mono,monospace" font-size="14.00">0x80218da8</text>
</g>
<!-- node2&#45;&gt;node3 -->
<!-- node2&#45;&gt;node3 -->
<g id="edge19" class="edge">
<title>node2:val&#45;&gt;node3:addr</title>
<path fill="none" stroke="black" d="M150,-1011.38C150,-1011.38 85.87,-983.96 60.33,-973.04"/>
<polygon fill="black" stroke="black" points="61.96,-969.93 51.39,-969.22 59.21,-976.37 61.96,-969.93"/>
</g>
<!-- node4 -->
<g id="node5" class="node">
<title>node4</title>
<polygon fill="none" stroke="#ff2d55" points="0,-868.38 0,-895.62 100,-895.62 100,-868.38 0,-868.38"/>
<text text-anchor="start" x="5" y="-877.33" font-family="SF Mono,monospace" font-size="14.00">0x80218da8</text>
<polygon fill="none" stroke="#34c759" points="100,-868.38 100,-895.62 200,-895.62 200,-868.38 100,-868.38"/>
<text text-anchor="start" x="105" y="-877.33" font-family="SF Mono,monospace" font-size="14.00">0x80218da0</text>
</g>
<!-- node3&#45;&gt;node4 -->
<!-- node3&#45;&gt;node4 -->
<g id="edge20" class="edge">
<title>node3:val&#45;&gt;node4:addr</title>
<path fill="none" stroke="black" d="M150,-939.38C150,-939.38 85.87,-911.96 60.33,-901.04"/>
<polygon fill="black" stroke="black" points="61.96,-897.93 51.39,-897.22 59.21,-904.37 61.96,-897.93"/>
</g>
<!-- node5 -->
<g id="node6" class="node">
<title>node5</title>
<polygon fill="none" stroke="#ff2d55" points="0,-796.38 0,-823.62 100,-823.62 100,-796.38 0,-796.38"/>
<text text-anchor="start" x="5" y="-805.33" font-family="SF Mono,monospace" font-size="14.00">0x80218da0</text>
<polygon fill="none" stroke="#34c759" points="100,-796.38 100,-823.62 200,-823.62 200,-796.38 100,-796.38"/>
<text text-anchor="start" x="105" y="-805.33" font-family="SF Mono,monospace" font-size="14.00">0x80218d98</text>
</g>
<!-- node4&#45;&gt;node5 -->
<!-- node4&#45;&gt;node5 -->
<g id="edge21" class="edge">
<title>node4:val&#45;&gt;node5:addr</title>
<path fill="none" stroke="black" d="M150,-867.38C150,-867.38 85.87,-839.96 60.33,-829.04"/>
<polygon fill="black" stroke="black" points="61.96,-825.93 51.39,-825.22 59.21,-832.37 61.96,-825.93"/>
</g>
<!-- node6 -->
<g id="node7" class="node">
<title>node6</title>
<polygon fill="none" stroke="#ff2d55" points="0,-724.38 0,-751.62 100,-751.62 100,-724.38 0,-724.38"/>
<text text-anchor="start" x="5" y="-733.33" font-family="SF Mono,monospace" font-size="14.00">0x80218d98</text>
<polygon fill="none" stroke="#34c759" points="100,-724.38 100,-751.62 200,-751.62 200,-724.38 100,-724.38"/>
<text text-anchor="start" x="105" y="-733.33" font-family="SF Mono,monospace" font-size="14.00">0x80218d90</text>
</g>
<!-- node5&#45;&gt;node6 -->
<!-- node5&#45;&gt;node6 -->
<g id="edge22" class="edge">
<title>node5:val&#45;&gt;node6:addr</title>
<path fill="none" stroke="black" d="M150,-795.38C150,-795.38 85.87,-767.96 60.33,-757.04"/>
<polygon fill="black" stroke="black" points="61.96,-753.93 51.39,-753.22 59.21,-760.37 61.96,-753.93"/>
</g>
<!-- node7 -->
<g id="node8" class="node">
<title>node7</title>
<polygon fill="none" stroke="#ff2d55" points="0,-652.38 0,-679.62 100,-679.62 100,-652.38 0,-652.38"/>
<text text-anchor="start" x="5" y="-661.33" font-family="SF Mono,monospace" font-size="14.00">0x80218d90</text>
<polygon fill="none" stroke="#34c759" points="100,-652.38 100,-679.62 200,-679.62 200,-652.38 100,-652.38"/>
<text text-anchor="start" x="105" y="-661.33" font-family="SF Mono,monospace" font-size="14.00">0x80218d88</text>
</g>
<!-- node6&#45;&gt;node7 -->
<!-- node6&#45;&gt;node7 -->
<g id="edge23" class="edge">
<title>node6:val&#45;&gt;node7:addr</title>
<path fill="none" stroke="black" d="M150,-723.38C150,-723.38 85.87,-695.96 60.33,-685.04"/>
<polygon fill="black" stroke="black" points="61.96,-681.93 51.39,-681.22 59.21,-688.37 61.96,-681.93"/>
</g>
<!-- node8 -->
<g id="node9" class="node">
<title>node8</title>
<polygon fill="none" stroke="#ff2d55" points="0,-580.38 0,-607.62 100,-607.62 100,-580.38 0,-580.38"/>
<text text-anchor="start" x="5" y="-589.33" font-family="SF Mono,monospace" font-size="14.00">0x80218d88</text>
<polygon fill="none" stroke="#34c759" points="100,-580.38 100,-607.62 200,-607.62 200,-580.38 100,-580.38"/>
<text text-anchor="start" x="105" y="-589.33" font-family="SF Mono,monospace" font-size="14.00">0x80218d80</text>
</g>
<!-- node7&#45;&gt;node8 -->
<!-- node7&#45;&gt;node8 -->
<g id="edge24" class="edge">
<title>node7:val&#45;&gt;node8:addr</title>
<path fill="none" stroke="black" d="M150,-651.38C150,-651.38 85.87,-623.96 60.33,-613.04"/>
<polygon fill="black" stroke="black" points="61.96,-609.93 51.39,-609.22 59.21,-616.37 61.96,-609.93"/>
</g>
<!-- node9 -->
<g id="node10" class="node">
<title>node9</title>
<polygon fill="none" stroke="#ff2d55" points="0,-508.38 0,-535.62 100,-535.62 100,-508.38 0,-508.38"/>
<text text-anchor="start" x="5" y="-517.33" font-family="SF Mono,monospace" font-size="14.00">0x80218d80</text>
<polygon fill="none" stroke="#34c759" points="100,-508.38 100,-535.62 200,-535.62 200,-508.38 100,-508.38"/>
<text text-anchor="start" x="105" y="-517.33" font-family="SF Mono,monospace" font-size="14.00">0x80218d78</text>
</g>
<!-- node8&#45;&gt;node9 -->
<!-- node8&#45;&gt;node9 -->
<g id="edge25" class="edge">
<title>node8:val&#45;&gt;node9:addr</title>
<path fill="none" stroke="black" d="M150,-579.38C150,-579.38 85.87,-551.96 60.33,-541.04"/>
<polygon fill="black" stroke="black" points="61.96,-537.93 51.39,-537.22 59.21,-544.37 61.96,-537.93"/>
</g>
<!-- node10 -->
<g id="node11" class="node">
<title>node10</title>
<polygon fill="none" stroke="#ff2d55" points="0,-436.38 0,-463.62 100,-463.62 100,-436.38 0,-436.38"/>
<text text-anchor="start" x="5" y="-445.32" font-family="SF Mono,monospace" font-size="14.00">0x80218d78</text>
<polygon fill="none" stroke="#34c759" points="100,-436.38 100,-463.62 200,-463.62 200,-436.38 100,-436.38"/>
<text text-anchor="start" x="105" y="-445.32" font-family="SF Mono,monospace" font-size="14.00">0x80218d70</text>
</g>
<!-- node9&#45;&gt;node10 -->
<!-- node9&#45;&gt;node10 -->
<g id="edge26" class="edge">
<title>node9:val&#45;&gt;node10:addr</title>
<path fill="none" stroke="black" d="M150,-507.38C150,-507.38 85.87,-479.96 60.33,-469.04"/>
<polygon fill="black" stroke="black" points="61.96,-465.93 51.39,-465.22 59.21,-472.37 61.96,-465.93"/>
</g>
<!-- node11 -->
<g id="node12" class="node">
<title>node11</title>
<polygon fill="none" stroke="#ff2d55" points="0,-364.38 0,-391.62 100,-391.62 100,-364.38 0,-364.38"/>
<text text-anchor="start" x="5" y="-373.32" font-family="SF Mono,monospace" font-size="14.00">0x80218d70</text>
<polygon fill="none" stroke="#34c759" points="100,-364.38 100,-391.62 200,-391.62 200,-364.38 100,-364.38"/>
<text text-anchor="start" x="105" y="-373.32" font-family="SF Mono,monospace" font-size="14.00">0x80218d68</text>
</g>
<!-- node10&#45;&gt;node11 -->
<!-- node10&#45;&gt;node11 -->
<g id="edge27" class="edge">
<title>node10:val&#45;&gt;node11:addr</title>
<path fill="none" stroke="black" d="M150,-435.38C150,-435.38 85.87,-407.96 60.33,-397.04"/>
<polygon fill="black" stroke="black" points="61.96,-393.93 51.39,-393.22 59.21,-400.37 61.96,-393.93"/>
</g>
<!-- node12 -->
<g id="node13" class="node">
<title>node12</title>
<polygon fill="none" stroke="#ff2d55" points="0,-292.38 0,-319.62 100,-319.62 100,-292.38 0,-292.38"/>
<text text-anchor="start" x="5" y="-301.32" font-family="SF Mono,monospace" font-size="14.00">0x80218d68</text>
<polygon fill="none" stroke="#34c759" points="100,-292.38 100,-319.62 200,-319.62 200,-292.38 100,-292.38"/>
<text text-anchor="start" x="105" y="-301.32" font-family="SF Mono,monospace" font-size="14.00">0x80218d60</text>
</g>
<!-- node11&#45;&gt;node12 -->
<!-- node11&#45;&gt;node12 -->
<g id="edge28" class="edge">
<title>node11:val&#45;&gt;node12:addr</title>
<path fill="none" stroke="black" d="M150,-363.38C150,-363.38 85.87,-335.96 60.33,-325.04"/>
<polygon fill="black" stroke="black" points="61.96,-321.93 51.39,-321.22 59.21,-328.37 61.96,-321.93"/>
</g>
<!-- node13 -->
<g id="node14" class="node">
<title>node13</title>
<polygon fill="none" stroke="#ff2d55" points="0,-220.38 0,-247.62 100,-247.62 100,-220.38 0,-220.38"/>
<text text-anchor="start" x="5" y="-229.32" font-family="SF Mono,monospace" font-size="14.00">0x80218d60</text>
<polygon fill="none" stroke="#34c759" points="100,-220.38 100,-247.62 200,-247.62 200,-220.38 100,-220.38"/>
<text text-anchor="start" x="105" y="-229.32" font-family="SF Mono,monospace" font-size="14.00">0x80218d58</text>
</g>
<!-- node12&#45;&gt;node13 -->
<!-- node12&#45;&gt;node13 -->
<g id="edge29" class="edge">
<title>node12:val&#45;&gt;node13:addr</title>
<path fill="none" stroke="black" d="M150,-291.38C150,-291.38 85.87,-263.96 60.33,-253.04"/>
<polygon fill="black" stroke="black" points="61.96,-249.93 51.39,-249.22 59.21,-256.37 61.96,-249.93"/>
</g>
<!-- node14 -->
<g id="node15" class="node">
<title>node14</title>
<polygon fill="none" stroke="#ff2d55" points="0,-148.38 0,-175.62 100,-175.62 100,-148.38 0,-148.38"/>
<text text-anchor="start" x="5" y="-157.32" font-family="SF Mono,monospace" font-size="14.00">0x80218d58</text>
<polygon fill="none" stroke="#34c759" points="100,-148.38 100,-175.62 200,-175.62 200,-148.38 100,-148.38"/>
<text text-anchor="start" x="105" y="-157.32" font-family="SF Mono,monospace" font-size="14.00">0x80218d50</text>
</g>
<!-- node13&#45;&gt;node14 -->
<!-- node13&#45;&gt;node14 -->
<g id="edge30" class="edge">
<title>node13:val&#45;&gt;node14:addr</title>
<path fill="none" stroke="black" d="M150,-219.38C150,-219.38 85.87,-191.96 60.33,-181.04"/>
<polygon fill="black" stroke="black" points="61.96,-177.93 51.39,-177.22 59.21,-184.37 61.96,-177.93"/>
</g>
<!-- node15 -->
<g id="node16" class="node">
<title>node15</title>
<polygon fill="none" stroke="#ff2d55" points="0,-76.38 0,-103.62 100,-103.62 100,-76.38 0,-76.38"/>
<text text-anchor="start" x="5" y="-85.33" font-family="SF Mono,monospace" font-size="14.00">0x80218d50</text>
<polygon fill="none" stroke="#34c759" points="100,-76.38 100,-103.62 200,-103.62 200,-76.38 100,-76.38"/>
<text text-anchor="start" x="105" y="-85.33" font-family="SF Mono,monospace" font-size="14.00">0x80218d48</text>
</g>
<!-- node14&#45;&gt;node15 -->
<!-- node14&#45;&gt;node15 -->
<g id="edge31" class="edge">
<title>node14:val&#45;&gt;node15:addr</title>
<path fill="none" stroke="black" d="M150,-147.38C150,-147.38 85.87,-119.96 60.33,-109.04"/>
<polygon fill="black" stroke="black" points="61.96,-105.93 51.39,-105.22 59.21,-112.37 61.96,-105.93"/>
</g>
<!-- node16 -->
<g id="node17" class="node">
<title>node16</title>
<polygon fill="none" stroke="#ff2d55" points="0,-4.38 0,-31.62 100,-31.62 100,-4.38 0,-4.38"/>
<text text-anchor="start" x="5" y="-13.32" font-family="SF Mono,monospace" font-size="14.00">0x80218d48</text>
<polygon fill="none" stroke="#34c759" points="100,-4.38 100,-31.62 200,-31.62 200,-4.38 100,-4.38"/>
<text text-anchor="start" x="105" y="-13.32" font-family="SF Mono,monospace" font-size="14.00">0x00000000</text>
</g>
<!-- node15&#45;&gt;node16 -->
<!-- node15&#45;&gt;node16 -->
<g id="edge32" class="edge">
<title>node15:val&#45;&gt;node16:addr</title>
<path fill="none" stroke="black" d="M150,-75.38C150,-75.38 85.87,-47.96 60.33,-37.04"/>
<polygon fill="black" stroke="black" points="61.96,-33.93 51.39,-33.22 59.21,-40.37 61.96,-33.93"/>
</g>
</g>
</svg>
