<?xml version="1.0" encoding="UTF-8" standalone="no"?>
<svg
   version="1.0"
   width="1680"
   height="122"
   viewBox="0 0 1680 122"
   id="svg14"
   xmlns="http://www.w3.org/2000/svg"
   xmlns:svg="http://www.w3.org/2000/svg">
  <defs
     id="defs14" />
  <path
     d="M 228.412,28.24 V 10.72 h 1.944 l 6.24,10.56 h 0.048 l 6.24,-10.56 h 2.016 v 17.52 h -1.92 V 13.936 h -0.048 l -5.424,9.096 h -1.776 l -5.424,-9.096 H 230.26 V 28.24 Z m 21.96001,-17.52 4.368,7.296 h 0.048 l 4.392,-7.296 h 2.16 l -5.376,8.64 5.496,8.88 h -2.256 l -4.464,-7.536 h -0.048 l -4.488,7.536 h -2.184 l 5.496,-8.88 -5.376,-8.64 z m 16.19999,0 v 15.888 h 8.568 V 28.24 H 264.58 V 10.72 Z m 13.96798,1.608 v 5.712 h 7.848 v 1.536 h -7.848 v 7.056 h 8.328 v 1.608 h -10.248 V 10.72 h 10.248 v 1.608 z m 12.168,15.912 V 10.72 h 1.992 l 9.12,14.4 h 0.048 v -14.4 h 1.872 v 17.52 h -1.968 l -9.12,-14.4 h -0.048 v 14.4 z m 16.99198,-6.192 v -1.536 h 7.128 v 1.536 z m 16.51202,6.192 V 13.024 h -0.048 l -4.728,4.368 -0.744,-1.56 5.52,-5.112 h 1.92 v 17.52 z"
     id="text1"
     style="font-size:24px;font-family:'M PLUS 1p', MPLUS1p-Regular, monospace;dominant-baseline:middle;text-anchor:middle;fill:#e3e3e3"
     aria-label="MXLEN-1" />
  <path
     d="M 366.04,28.24 V 10.72 h 1.944 l 6.24,10.56 h 0.048 l 6.24,-10.56 h 2.016 v 17.52 h -1.92 V 13.936 h -0.048 l -5.424,9.096 h -1.776 l -5.424,-9.096 h -0.048 V 28.24 Z m 21.96001,-17.52 4.368,7.296 h 0.048 l 4.392,-7.296 h 2.16 l -5.376,8.64 5.496,8.88 h -2.256 l -4.464,-7.536 h -0.048 l -4.488,7.536 h -2.184 l 5.496,-8.88 -5.376,-8.64 z m 16.19999,0 v 15.888 h 8.568 v 1.632 h -10.56 V 10.72 Z m 13.96798,1.608 v 5.712 h 7.848 v 1.536 h -7.848 v 7.056 h 8.328 v 1.608 h -10.248 V 10.72 h 10.248 v 1.608 z M 430.33597,28.24 V 10.72 h 1.992 l 9.12,14.4 h 0.048 v -14.4 h 1.872 v 17.52 h -1.968 l -9.12,-14.4 h -0.048 v 14.4 z m 16.99199,-6.192 v -1.536 h 7.128 v 1.536 z m 16.12802,-9.936 q -2.376,0 -4.752,1.656 l -0.576,-1.536 q 2.448,-1.752 5.568,-1.752 2.568,0 3.984,1.32 1.416,1.296 1.416,3.648 0,2.352 -1.704,4.752 -1.704,2.4 -6.384,6.384 v 0.048 h 8.16 v 1.608 h -10.8 v -1.608 q 5.112,-4.224 6.912,-6.576 1.824,-2.376 1.824,-4.464 0,-1.704 -0.936,-2.592 -0.912,-0.888 -2.712,-0.888 z"
     id="text2"
     style="font-size:24px;font-family:'M PLUS 1p', MPLUS1p-Regular, monospace;dominant-baseline:middle;fill:#e3e3e3"
     aria-label="MXLEN-2" />
  <path
     d="m 1468.536,10.48 q 6.336,0 6.336,9 0,9 -6.336,9 -3,0 -4.656,-2.088 -1.656,-2.088 -1.656,-6.912 0,-4.824 1.656,-6.912 1.656,-2.088 4.656,-2.088 z m -3.312,14.688 q 1.104,1.752 3.312,1.752 2.208,0 3.312,-1.752 1.104,-1.776 1.104,-5.688 0,-3.912 -1.104,-5.664 -1.104,-1.776 -3.312,-1.776 -2.208,0 -3.312,1.776 -1.08,1.752 -1.08,5.664 0,3.912 1.08,5.688 z"
     id="text3"
     style="font-size:24px;font-family:'M PLUS 1p', MPLUS1p-Regular, monospace;dominant-baseline:middle;text-anchor:end;fill:#e3e3e3"
     aria-label="0" />
  <line
     x1="200"
     y1="41"
     x2="360"
     y2="41"
     stroke="#E3E3E3"
     stroke-width="1"
     id="line3" />
  <line
     x1="200"
     y1="81"
     x2="360"
     y2="81"
     stroke="#E3E3E3"
     stroke-width="1"
     id="line4" />
  <line
     x1="360"
     y1="41"
     x2="360"
     y2="81"
     stroke="#E3E3E3"
     stroke-width="1"
     id="line5" />
  <line
     x1="200"
     y1="41"
     x2="200"
     y2="81"
     stroke="#E3E3E3"
     stroke-width="1"
     id="line6" />
  <path
     d="M 229.26404,68.24 V 50.72 h 2.088 v 17.52 z m 6.64799,-12.48 h 1.68 l 0.024,2.232 h 0.048 q 0.72,-1.152 1.824,-1.8 1.128,-0.672 2.424,-0.672 2.112,0 3.12,1.32 1.032,1.296 1.032,4.128 v 7.272 h -1.728 v -7.128 q 0,-2.328 -0.672,-3.216 -0.672,-0.912 -2.304,-0.912 -1.392,0 -2.544,1.392 -1.152,1.368 -1.152,3.192 v 6.672 h -1.752 z m 17.11201,-4.08 v 4.56 h 4.728 v 1.44 h -4.728 v 6.552 q 0,1.68 0.456,2.256 0.456,0.552 1.704,0.552 1.104,0 2.112,-0.408 l 0.288,1.416 q -1.224,0.432 -2.64,0.432 -2.04,0 -2.88,-0.864 -0.84,-0.888 -0.84,-3.048 V 57.68 h -2.76 v -1.44 h 2.76 v -4.56 z m 9.04797,10.992 q 0.048,2.04 1.248,3.216 1.2,1.176 3.12,1.176 1.848,0 3.672,-0.96 l 0.48,1.368 q -2.016,1.008 -4.32,1.008 -2.688,0 -4.344,-1.752 -1.656,-1.752 -1.656,-4.728 0,-3.024 1.536,-4.752 1.56,-1.728 4.224,-1.728 2.592,0 4.008,1.656 1.44,1.632 1.44,4.704 0,0.312 -0.048,0.792 z m 0,-1.392 h 7.68 q -0.024,-2.088 -1.008,-3.216 -0.984,-1.128 -2.712,-1.128 -1.8,0 -2.856,1.152 -1.032,1.128 -1.104,3.192 z m 12.288,-5.52 h 1.704 l 0.048,2.664 h 0.048 q 2.112,-2.904 5.952,-2.904 v 1.512 q -2.664,0 -4.32,1.464 -1.632,1.464 -1.632,3.792 v 5.952 h -1.8 z m 10.87198,0 h 1.704 l 0.048,2.664 h 0.048 q 2.112,-2.904 5.952,-2.904 v 1.512 q -2.664,0 -4.32,1.464 -1.632,1.464 -1.632,3.792 v 5.952 h -1.8 z m 12.47998,0 v 7.752 q 0,1.92 0.624,2.688 0.648,0.768 2.136,0.768 1.392,0 2.52,-1.344 1.152,-1.344 1.152,-3.192 V 55.76 h 1.752 v 12.48 h -1.68 l -0.024,-2.232 h -0.048 q -0.72,1.152 -1.848,1.824 -1.104,0.648 -2.4,0.648 -2.016,0 -2.976,-1.128 -0.936,-1.152 -0.936,-3.672 v -7.92 z m 17.61601,12.72 q -2.712,0 -4.032,-2.184 h -0.048 v 7.224 h -1.752 V 55.76 h 1.68 l 0.024,2.112 h 0.048 q 1.32,-2.352 4.08,-2.352 2.352,0 3.696,1.68 1.344,1.656 1.344,4.8 0,3.072 -1.392,4.776 -1.368,1.704 -3.648,1.704 z m 3.312,-6.48 q 0,-2.448 -0.984,-3.744 -0.96,-1.296 -2.712,-1.296 -1.656,0 -2.688,1.296 -1.008,1.296 -1.008,3.576 v 0.336 q 0,2.328 1.032,3.6 1.032,1.272 2.664,1.272 1.704,0 2.688,-1.296 1.008,-1.32 1.008,-3.744 z m 8.328,-10.32 v 4.56 h 4.728 v 1.44 h -4.728 v 6.552 q 0,1.68 0.456,2.256 0.456,0.552 1.704,0.552 1.104,0 2.112,-0.408 l 0.288,1.416 q -1.224,0.432 -2.64,0.432 -2.04,0 -2.88,-0.864 -0.84,-0.888 -0.84,-3.048 V 57.68 h -2.76 v -1.44 h 2.76 v -4.56 z"
     id="text6"
     style="font-size:24px;font-family:'M PLUS 1p', MPLUS1p-Regular, monospace;dominant-baseline:middle;text-anchor:middle;fill:#e3e3e3"
     aria-label="Interrupt" />
  <line
     x1="360"
     y1="41"
     x2="960"
     y2="41"
     stroke="#E3E3E3"
     stroke-width="1"
     id="line7" />
  <line
     x1="360"
     y1="81"
     x2="960"
     y2="81"
     stroke="#E3E3E3"
     stroke-width="1"
     id="line8" />
  <line
     x1="360"
     y1="41"
     x2="360"
     y2="81"
     stroke="#E3E3E3"
     stroke-width="1"
     id="line9" />
  <path
     d="m 782.74407,52.328 v 5.712 h 7.848 v 1.536 h -7.848 v 7.056 h 8.328 v 1.608 h -10.248 V 50.72 h 10.248 v 1.608 z m 13.27199,3.432 3.264,4.968 h 0.048 l 3.264,-4.968 h 1.992 l -4.248,6.144 4.368,6.336 h -2.064 l -3.384,-5.184 h -0.048 l -3.36,5.184 h -2.016 l 4.392,-6.336 -4.272,-6.144 z m 16.56,1.224 q -2.112,0 -3.288,1.32 -1.176,1.296 -1.176,3.696 0,2.304 1.224,3.672 1.248,1.368 3.24,1.368 1.68,0 3.216,-0.816 l 0.48,1.416 q -1.8,0.84 -3.768,0.84 -2.784,0 -4.512,-1.752 -1.728,-1.776 -1.728,-4.728 0,-3.048 1.656,-4.752 1.656,-1.728 4.584,-1.728 1.968,0 3.768,0.84 l -0.48,1.464 q -1.608,-0.84 -3.216,-0.84 z m 8.01599,5.688 q 0.048,2.04 1.248,3.216 1.2,1.176 3.12,1.176 1.848,0 3.672,-0.96 l 0.48,1.368 q -2.016,1.008 -4.32,1.008 -2.688,0 -4.344,-1.752 -1.656,-1.752 -1.656,-4.728 0,-3.024 1.536,-4.752 1.56,-1.728 4.224,-1.728 2.592,0 4.008,1.656 1.44,1.632 1.44,4.704 0,0.312 -0.048,0.792 z m 0,-1.392 h 7.68 q -0.024,-2.088 -1.008,-3.216 -0.984,-1.128 -2.712,-1.128 -1.8,0 -2.856,1.152 -1.032,1.128 -1.104,3.192 z m 18.12,7.2 q -2.712,0 -4.032,-2.184 h -0.048 v 7.224 h -1.752 V 55.76 h 1.68 l 0.024,2.112 h 0.048 q 1.32,-2.352 4.08,-2.352 2.352,0 3.696,1.68 1.344,1.656 1.344,4.8 0,3.072 -1.392,4.776 -1.368,1.704 -3.648,1.704 z m 3.312,-6.48 q 0,-2.448 -0.984,-3.744 -0.96,-1.296 -2.712,-1.296 -1.656,0 -2.688,1.296 -1.008,1.296 -1.008,3.576 v 0.336 q 0,2.328 1.032,3.6 1.032,1.272 2.664,1.272 1.704,0 2.688,-1.296 1.008,-1.32 1.008,-3.744 z m 8.32799,-10.32 v 4.56 h 4.728 v 1.44 h -4.728 v 6.552 q 0,1.68 0.456,2.256 0.456,0.552 1.704,0.552 1.104,0 2.112,-0.408 l 0.288,1.416 q -1.224,0.432 -2.64,0.432 -2.04,0 -2.88,-0.864 -0.84,-0.888 -0.84,-3.048 V 57.68 h -2.76 v -1.44 h 2.76 v -4.56 z m 9.28798,1.2 v -2.64 h 1.848 v 2.64 z m 0,15.36 V 55.76 h 1.848 V 68.24 Z M 874.064,58.304 q -1.08,-1.344 -2.976,-1.344 -1.896,0 -3,1.344 -1.08,1.32 -1.08,3.696 0,2.376 1.08,3.72 1.104,1.32 3,1.32 1.896,0 2.976,-1.32 1.104,-1.344 1.104,-3.72 0,-2.376 -1.104,-3.696 z m 1.296,8.424 q -1.608,1.752 -4.272,1.752 -2.664,0 -4.272,-1.752 -1.608,-1.752 -1.608,-4.728 0,-2.976 1.608,-4.728 1.608,-1.752 4.272,-1.752 2.664,0 4.272,1.752 1.608,1.752 1.608,4.728 0,2.976 -1.608,4.728 z m 4.36799,-10.968 h 1.68 l 0.024,2.232 h 0.048 q 0.72,-1.152 1.824,-1.8 1.128,-0.672 2.424,-0.672 2.112,0 3.12,1.32 1.032,1.296 1.032,4.128 v 7.272 h -1.728 v -7.128 q 0,-2.328 -0.672,-3.216 -0.672,-0.912 -2.304,-0.912 -1.392,0 -2.544,1.392 -1.152,1.368 -1.152,3.192 v 6.672 h -1.752 z m 28.63204,-3.672 q -3.168,0 -5.064,2.016 -1.872,1.992 -1.872,5.376 0,3.384 1.92,5.4 1.944,1.992 5.016,1.992 2.496,0 4.632,-1.368 l 0.648,1.44 q -2.352,1.536 -5.448,1.536 -3.96,0 -6.336,-2.448 -2.376,-2.448 -2.376,-6.552 0,-4.152 2.352,-6.576 2.352,-2.424 6.36,-2.424 3.096,0 5.448,1.536 l -0.648,1.44 q -2.136,-1.368 -4.632,-1.368 z m 16.41599,6.216 q -1.08,-1.344 -2.976,-1.344 -1.896,0 -3,1.344 -1.08,1.32 -1.08,3.696 0,2.376 1.08,3.72 1.104,1.32 3,1.32 1.896,0 2.976,-1.32 1.104,-1.344 1.104,-3.72 0,-2.376 -1.104,-3.696 z m 1.296,8.424 q -1.608,1.752 -4.272,1.752 -2.664,0 -4.272,-1.752 -1.608,-1.752 -1.608,-4.728 0,-2.976 1.608,-4.728 1.608,-1.752 4.272,-1.752 2.664,0 4.272,1.752 1.608,1.752 1.608,4.728 0,2.976 -1.608,4.728 z m 6.6,-8.448 q -0.984,1.296 -0.984,3.72 0,2.424 1.008,3.744 1.008,1.296 2.712,1.296 1.632,0 2.64,-1.272 1.032,-1.272 1.032,-3.6 v -0.336 q 0,-2.28 -1.032,-3.576 -1.008,-1.296 -2.64,-1.296 -1.752,0 -2.736,1.32 z m -2.712,3.72 q 0,-3.144 1.344,-4.8 1.344,-1.68 3.696,-1.68 2.712,0 4.032,2.28 h 0.048 v -7.56 h 1.752 v 18 h -1.68 l -0.024,-2.112 h -0.048 q -1.32,2.352 -4.08,2.352 -2.304,0 -3.672,-1.68 -1.368,-1.704 -1.368,-4.8 z m 15.55198,0.672 q 0.048,2.04 1.248,3.216 1.2,1.176 3.12,1.176 1.848,0 3.672,-0.96 l 0.48,1.368 q -2.016,1.008 -4.32,1.008 -2.688,0 -4.344,-1.752 -1.656,-1.752 -1.656,-4.728 0,-3.024 1.536,-4.752 1.56,-1.728 4.224,-1.728 2.592,0 4.008,1.656 1.44,1.632 1.44,4.704 0,0.312 -0.048,0.792 z m 0,-1.392 h 7.68 q -0.024,-2.088 -1.008,-3.216 -0.984,-1.128 -2.712,-1.128 -1.8,0 -2.856,1.152 -1.032,1.128 -1.104,3.192 z"
     id="text9"
     style="font-size:24px;font-family:'M PLUS 1p', MPLUS1p-Regular, monospace;dominant-baseline:middle;text-anchor:end;fill:#e3e3e3"
     aria-label="Exception Code" />
  <line
     x1="960"
     y1="41"
     x2="1480"
     y2="41"
     stroke="#E3E3E3"
     stroke-width="1"
     id="line10" />
  <line
     x1="960"
     y1="81"
     x2="1480"
     y2="81"
     stroke="#E3E3E3"
     stroke-width="1"
     id="line11" />
  <line
     x1="1480"
     y1="41"
     x2="1480"
     y2="81"
     stroke="#E3E3E3"
     stroke-width="1"
     id="line12" />
  <path
     d="m 969.54883,67.704102 h -2.20899 q -1.125,-1.31836 -1.66992,-2.712891 -0.53906,-1.394531 -0.53906,-3.052734 0,-1.658204 0.53906,-3.052735 0.54492,-1.394531 1.66992,-2.71289 h 2.20899 v 0.169921 q -0.47461,0.427735 -0.90821,0.972657 -0.42773,0.539062 -0.79687,1.265625 -0.35156,0.697265 -0.57422,1.546875 -0.2168,0.849609 -0.2168,1.810547 0,1.001953 0.21094,1.816406 0.2168,0.814453 0.58008,1.541015 0.35156,0.691407 0.79102,1.253907 0.44531,0.568359 0.91406,0.984375 z m 14.12695,-11.138672 -2.34961,8.724609 h -2.49023 l -1.56446,-5.683594 -1.52343,5.683594 h -2.49024 L 970.9082,56.56543 h 2.34961 l 1.3418,6.005859 1.60547,-6.005859 h 2.24414 l 1.5293,6.005859 1.40625,-6.005859 z m 7.79297,8.724609 h -6.29297 V 56.56543 h 2.25 v 7.037109 h 4.04297 z m 6.24609,-6.052734 q 0,-0.328125 -0.13476,-0.5625 -0.13477,-0.234375 -0.46289,-0.369141 -0.22852,-0.09375 -0.53321,-0.111328 -0.30468,-0.02344 -0.70898,-0.02344 h -0.81445 v 2.34961 h 0.6914 q 0.53907,0 0.90235,-0.05273 0.36328,-0.05273 0.60937,-0.240234 0.23438,-0.181641 0.33985,-0.398437 0.11132,-0.222657 0.11132,-0.591797 z m 3.50976,6.052734 h -2.74804 l -2.3789,-3.199219 h -1.03711 v 3.199219 h -2.23828 V 56.56543 h 3.77343 q 0.77344,0 1.33008,0.08789 0.55664,0.08789 1.04297,0.38086 0.49219,0.292968 0.7793,0.761718 0.29295,0.462891 0.29295,1.166016 0,0.966797 -0.45116,1.576172 -0.44531,0.609375 -1.27734,1.013672 z m 7.2774,0 h -6.293 V 56.56543 h 2.25 v 7.037109 h 4.043 z m 5.6308,-3.351562 q 0,1.658203 -0.5449,3.052734 -0.5391,1.394531 -1.6641,2.712891 h -2.209 V 67.53418 q 0.4688,-0.416016 0.9141,-0.978516 0.4453,-0.5625 0.791,-1.259766 0.3633,-0.726562 0.5742,-1.541015 0.2168,-0.814453 0.2168,-1.816406 0,-0.960938 -0.2226,-1.810547 -0.2168,-0.84961 -0.5684,-1.546875 -0.3691,-0.726563 -0.8027,-1.265625 -0.4277,-0.544922 -0.9024,-0.972657 v -0.169921 h 2.209 q 1.125,1.318359 1.6641,2.71289 0.5449,1.394531 0.5449,3.052735 z"
     id="text12"
     style="font-weight:bold;dominant-baseline:middle;fill:#e3e3e3"
     aria-label="(WLRL)" />
  <path
     d="M 280.02399,108.24 V 93.024 h -0.048 l -4.728,4.368 -0.744,-1.56 5.52,-5.112 h 1.92 v 17.52 z"
     id="text13"
     style="font-size:24px;font-family:'M PLUS 1p', MPLUS1p-Regular, monospace;dominant-baseline:middle;text-anchor:middle;fill:#e3e3e3"
     aria-label="1" />
  <path
     d="M 868.412,108.24 V 90.72 h 1.944 l 6.24,10.56 h 0.048 l 6.24,-10.56 h 2.016 v 17.52 h -1.92 V 93.936 h -0.048 l -5.424,9.096 h -1.776 l -5.424,-9.096 h -0.048 v 14.304 z m 21.96001,-17.52 4.368,7.296 h 0.048 l 4.392,-7.296 h 2.16 l -5.376,8.64 5.496,8.88 h -2.256 l -4.464,-7.536 h -0.048 l -4.488,7.536 h -2.184 l 5.496,-8.88 -5.376,-8.64 z m 16.19999,0 v 15.888 h 8.568 v 1.632 H 904.58 V 90.72 Z m 13.96798,1.608 v 5.712 h 7.848 v 1.536 h -7.848 v 7.056 h 8.328 v 1.608 h -10.248 V 90.72 h 10.248 v 1.608 z m 12.168,15.912 V 90.72 h 1.992 l 9.12,14.4 h 0.048 v -14.4 h 1.872 v 17.52 h -1.968 l -9.12,-14.4 h -0.048 v 14.4 z m 16.99198,-6.192 v -1.536 h 7.128 v 1.536 z m 16.51202,6.192 V 93.024 h -0.048 l -4.728,4.368 -0.744,-1.56 5.52,-5.112 h 1.92 v 17.52 z"
     id="text14"
     style="font-size:24px;font-family:'M PLUS 1p', MPLUS1p-Regular, monospace;dominant-baseline:middle;text-anchor:middle;fill:#e3e3e3"
     aria-label="MXLEN-1" />
</svg>
