<?xml version="1.0" encoding="UTF-8" standalone="no"?>
<svg
   version="1.0"
   width="800"
   height="92"
   viewBox="0 0 800 92"
   id="svg14"
   xmlns="http://www.w3.org/2000/svg"
   xmlns:svg="http://www.w3.org/2000/svg">
  <defs
     id="defs14" />
  <path
     d="m 38.206001,20.12 v -8.76 h 0.972 l 3.12,5.28 h 0.024 l 3.12,-5.28 h 1.008 v 8.76 h -0.96 v -7.152 h -0.024 l -2.712,4.548 h -0.888 l -2.712,-4.548 h -0.024 v 7.152 z m 10.980004,-8.76 2.184,3.648 h 0.024 l 2.196,-3.648 h 1.08 l -2.688,4.32 2.748,4.44 h -1.128 l -2.232,-3.768 h -0.024 l -2.244,3.768 h -1.092 l 2.748,-4.44 -2.688,-4.32 z m 8.099995,0 v 7.944 h 4.284 v 0.816 h -5.28 v -8.76 z m 6.983989,0.804 v 2.856 h 3.924 v 0.768 h -3.924 v 3.528 h 4.164 v 0.804 h -5.124 v -8.76 h 5.124 v 0.804 z m 6.083999,7.956 v -8.76 h 0.996 l 4.56,7.2 h 0.024 v -7.2 h 0.936 v 8.76 h -0.984 l -4.56,-7.2 h -0.024 v 7.2 z m 8.495992,-3.096 v -0.768 h 3.564 v 0.768 z m 8.256009,3.096 v -7.608 h -0.024 l -2.364,2.184 -0.372,-0.78 2.76,-2.556 h 0.96 v 8.76 z"
     id="text1"
     style="font-size:12px;font-family:'M PLUS 1p', MPLUS1p-Regular, monospace;dominant-baseline:middle;text-anchor:middle;fill:#e3e3e3"
     aria-label="MXLEN-1" />
  <path
     d="m 117.02,20.12 v -8.76 h 0.972 l 3.12,5.28 h 0.024 l 3.12,-5.28 h 1.008 v 8.76 h -0.96 v -7.152 h -0.024 l -2.712,4.548 h -0.888 l -2.712,-4.548 h -0.024 v 7.152 z m 10.98,-8.76 2.184,3.648 h 0.024 l 2.196,-3.648 h 1.08 l -2.688,4.32 2.748,4.44 h -1.128 l -2.232,-3.768 h -0.024 l -2.244,3.768 h -1.092 l 2.748,-4.44 -2.688,-4.32 z m 8.1,0 v 7.944 h 4.284 v 0.816 h -5.28 v -8.76 z m 6.98399,0.804 v 2.856 h 3.924 v 0.768 h -3.924 v 3.528 h 4.164 v 0.804 h -5.124 v -8.76 h 5.124 v 0.804 z m 6.084,7.956 v -8.76 h 0.996 l 4.56,7.2 h 0.024 v -7.2 h 0.936 v 8.76 h -0.984 l -4.56,-7.2 h -0.024 v 7.2 z m 8.49599,-3.096 v -0.768 h 3.564 v 0.768 z m 8.06401,-4.968 q -1.188,0 -2.376,0.828 l -0.288,-0.768 q 1.224,-0.876 2.784,-0.876 1.284,0 1.992,0.66 0.708,0.648 0.708,1.824 0,1.176 -0.852,2.376 -0.852,1.2 -3.192,3.192 v 0.024 h 4.08 v 0.804 h -5.4 v -0.804 q 2.556,-2.112 3.456,-3.288 0.912,-1.188 0.912,-2.232 0,-0.852 -0.468,-1.296 -0.456,-0.444 -1.356,-0.444 z"
     id="text2"
     style="font-size:12px;font-family:'M PLUS 1p', MPLUS1p-Regular, monospace;dominant-baseline:middle;fill:#e3e3e3"
     aria-label="MXLEN-2" />
  <path
     d="m 776.26799,11.24 q 3.168,0 3.168,4.5 0,4.5 -3.168,4.5 -1.5,0 -2.328,-1.044 -0.828,-1.044 -0.828,-3.456 0,-2.412 0.828,-3.456 0.828,-1.044 2.328,-1.044 z m -1.656,7.344 q 0.552,0.876 1.656,0.876 1.104,0 1.656,-0.876 0.552,-0.888 0.552,-2.844 0,-1.956 -0.552,-2.832 -0.552,-0.888 -1.656,-0.888 -1.104,0 -1.656,0.888 -0.54,0.876 -0.54,2.832 0,1.956 0.54,2.844 z"
     id="text3"
     style="font-size:12px;font-family:'M PLUS 1p', MPLUS1p-Regular, monospace;dominant-baseline:middle;text-anchor:end;fill:#e3e3e3"
     aria-label="0" />
  <line
     x1="16"
     y1="31"
     x2="112"
     y2="31"
     stroke="#E3E3E3"
     stroke-width="1"
     id="line3" />
  <line
     x1="16"
     y1="61"
     x2="112"
     y2="61"
     stroke="#E3E3E3"
     stroke-width="1"
     id="line4" />
  <line
     x1="112"
     y1="31"
     x2="112"
     y2="61"
     stroke="#E3E3E3"
     stroke-width="1"
     id="line5" />
  <line
     x1="16"
     y1="31"
     x2="16"
     y2="61"
     stroke="#E3E3E3"
     stroke-width="1"
     id="line6" />
  <path
     d="m 38.632022,50.12 v -8.76 h 1.044 v 8.76 z m 3.323993,-6.24 h 0.84 l 0.012,1.116 h 0.024 q 0.36,-0.576 0.912,-0.9 0.564,-0.336 1.212,-0.336 1.056,0 1.56,0.66 0.516,0.648 0.516,2.064 v 3.636 h -0.864 v -3.564 q 0,-1.164 -0.336,-1.608 -0.336,-0.456 -1.152,-0.456 -0.696,0 -1.272,0.696 -0.576,0.684 -0.576,1.596 v 3.336 h -0.876 z m 8.556004,-2.04 v 2.28 h 2.364 v 0.72 h -2.364 v 3.276 q 0,0.84 0.228,1.128 0.228,0.276 0.852,0.276 0.552,0 1.056,-0.204 l 0.144,0.708 q -0.612,0.216 -1.32,0.216 -1.02,0 -1.44,-0.432 -0.42,-0.444 -0.42,-1.524 V 44.84 h -1.38 v -0.72 h 1.38 v -2.28 z m 4.523987,5.496 q 0.024,1.02 0.624,1.608 0.6,0.588 1.56,0.588 0.924,0 1.836,-0.48 l 0.24,0.684 q -1.008,0.504 -2.16,0.504 -1.344,0 -2.172,-0.876 -0.828,-0.876 -0.828,-2.364 0,-1.512 0.768,-2.376 0.78,-0.864 2.112,-0.864 1.296,0 2.004,0.828 0.72,0.816 0.72,2.352 0,0.156 -0.024,0.396 z m 0,-0.696 h 3.84 q -0.012,-1.044 -0.504,-1.608 -0.492,-0.564 -1.356,-0.564 -0.9,0 -1.428,0.576 -0.516,0.564 -0.552,1.596 z m 6.144,-2.76 h 0.852 l 0.024,1.332 h 0.024 q 1.056,-1.452 2.976,-1.452 v 0.756 q -1.332,0 -2.16,0.732 -0.816,0.732 -0.816,1.896 v 2.976 h -0.9 z m 5.43599,0 h 0.852 l 0.024,1.332 h 0.024 q 1.056,-1.452 2.976,-1.452 v 0.756 q -1.332,0 -2.16,0.732 -0.816,0.732 -0.816,1.896 v 2.976 h -0.9 z m 6.239989,0 v 3.876 q 0,0.96 0.312,1.344 0.324,0.384 1.068,0.384 0.696,0 1.26,-0.672 0.576,-0.672 0.576,-1.596 V 43.88 h 0.876 v 6.24 h -0.84 l -0.012,-1.116 h -0.024 q -0.36,0.576 -0.924,0.912 -0.552,0.324 -1.2,0.324 -1.008,0 -1.488,-0.564 -0.468,-0.576 -0.468,-1.836 v -3.96 z m 8.808007,6.36 q -1.356,0 -2.016,-1.092 h -0.024 v 3.612 h -0.876 v -8.88 h 0.84 l 0.012,1.056 h 0.024 q 0.66,-1.176 2.04,-1.176 1.176,0 1.848,0.84 0.672,0.828 0.672,2.4 0,1.536 -0.696,2.388 -0.684,0.852 -1.824,0.852 z m 1.656,-3.24 q 0,-1.224 -0.492,-1.872 -0.48,-0.648 -1.356,-0.648 -0.828,0 -1.344,0.648 -0.504,0.648 -0.504,1.788 v 0.168 q 0,1.164 0.516,1.8 0.516,0.636 1.332,0.636 0.852,0 1.344,-0.648 0.504,-0.66 0.504,-1.872 z m 4.163997,-5.16 v 2.28 h 2.364 v 0.72 h -2.364 v 3.276 q 0,0.84 0.228,1.128 0.228,0.276 0.852,0.276 0.552,0 1.056,-0.204 l 0.144,0.708 q -0.612,0.216 -1.32,0.216 -1.02,0 -1.44,-0.432 -0.42,-0.444 -0.42,-1.524 V 44.84 h -1.38 v -0.72 h 1.38 v -2.28 z"
     id="text6"
     style="font-size:12px;font-family:'M PLUS 1p', MPLUS1p-Regular, monospace;dominant-baseline:middle;text-anchor:middle;fill:#e3e3e3"
     aria-label="Interrupt" />
  <line
     x1="112"
     y1="31"
     x2="472"
     y2="31"
     stroke="#E3E3E3"
     stroke-width="1"
     id="line7" />
  <line
     x1="112"
     y1="61"
     x2="472"
     y2="61"
     stroke="#E3E3E3"
     stroke-width="1"
     id="line8" />
  <line
     x1="112"
     y1="31"
     x2="112"
     y2="61"
     stroke="#E3E3E3"
     stroke-width="1"
     id="line9" />
  <path
     d="m 381.37204,42.164 v 2.856 h 3.924 v 0.768 h -3.924 v 3.528 h 4.164 v 0.804 h -5.124 v -8.76 h 5.124 v 0.804 z m 6.63599,1.716 1.632,2.484 h 0.024 l 1.632,-2.484 h 0.996 l -2.124,3.072 2.184,3.168 h -1.032 l -1.692,-2.592 h -0.024 l -1.68,2.592 h -1.008 l 2.196,-3.168 -2.136,-3.072 z m 8.28,0.612 q -1.056,0 -1.644,0.66 -0.588,0.648 -0.588,1.848 0,1.152 0.612,1.836 0.624,0.684 1.62,0.684 0.84,0 1.608,-0.408 l 0.24,0.708 q -0.9,0.42 -1.884,0.42 -1.392,0 -2.256,-0.876 -0.864,-0.888 -0.864,-2.364 0,-1.524 0.828,-2.376 0.828,-0.864 2.292,-0.864 0.984,0 1.884,0.42 l -0.24,0.732 q -0.804,-0.42 -1.608,-0.42 z m 4.00799,2.844 q 0.024,1.02 0.624,1.608 0.6,0.588 1.56,0.588 0.924,0 1.836,-0.48 l 0.24,0.684 q -1.008,0.504 -2.16,0.504 -1.344,0 -2.172,-0.876 -0.828,-0.876 -0.828,-2.364 0,-1.512 0.768,-2.376 0.78,-0.864 2.112,-0.864 1.296,0 2.004,0.828 0.72,0.816 0.72,2.352 0,0.156 -0.024,0.396 z m 0,-0.696 h 3.84 q -0.012,-1.044 -0.504,-1.608 -0.492,-0.564 -1.356,-0.564 -0.9,0 -1.428,0.576 -0.516,0.564 -0.552,1.596 z m 9.06,3.6 q -1.356,0 -2.016,-1.092 h -0.024 v 3.612 h -0.876 v -8.88 h 0.84 l 0.012,1.056 h 0.024 q 0.66,-1.176 2.04,-1.176 1.176,0 1.848,0.84 0.672,0.828 0.672,2.4 0,1.536 -0.696,2.388 -0.684,0.852 -1.824,0.852 z m 1.656,-3.24 q 0,-1.224 -0.492,-1.872 -0.48,-0.648 -1.356,-0.648 -0.828,0 -1.344,0.648 -0.504,0.648 -0.504,1.788 v 0.168 q 0,1.164 0.516,1.8 0.516,0.636 1.332,0.636 0.852,0 1.344,-0.648 0.504,-0.66 0.504,-1.872 z m 4.164,-5.16 v 2.28 h 2.364 v 0.72 h -2.364 v 3.276 q 0,0.84 0.228,1.128 0.228,0.276 0.852,0.276 0.552,0 1.056,-0.204 l 0.144,0.708 q -0.612,0.216 -1.32,0.216 -1.02,0 -1.44,-0.432 -0.42,-0.444 -0.42,-1.524 V 44.84 h -1.38 v -0.72 h 1.38 v -2.28 z m 4.64399,0.6 v -1.32 h 0.924 v 1.32 z m 0,7.68 v -6.24 h 0.924 v 6.24 z m 7.21199,-4.968 q -0.54,-0.672 -1.488,-0.672 -0.948,0 -1.5,0.672 -0.54,0.66 -0.54,1.848 0,1.188 0.54,1.86 0.552,0.66 1.5,0.66 0.948,0 1.488,-0.66 0.552,-0.672 0.552,-1.86 0,-1.188 -0.552,-1.848 z m 0.648,4.212 q -0.804,0.876 -2.136,0.876 -1.332,0 -2.136,-0.876 -0.804,-0.876 -0.804,-2.364 0,-1.488 0.804,-2.364 0.804,-0.876 2.136,-0.876 1.332,0 2.136,0.876 0.804,0.876 0.804,2.364 0,1.488 -0.804,2.364 z m 2.184,-5.484 h 0.84 l 0.012,1.116 h 0.024 q 0.36,-0.576 0.912,-0.9 0.564,-0.336 1.212,-0.336 1.056,0 1.56,0.66 0.516,0.648 0.516,2.064 v 3.636 h -0.864 v -3.564 q 0,-1.164 -0.336,-1.608 -0.336,-0.456 -1.152,-0.456 -0.696,0 -1.272,0.696 -0.576,0.684 -0.576,1.596 v 3.336 h -0.876 z m 14.31602,-1.836 q -1.584,0 -2.532,1.008 -0.936,0.996 -0.936,2.688 0,1.692 0.96,2.7 0.972,0.996 2.508,0.996 1.248,0 2.316,-0.684 l 0.324,0.72 q -1.176,0.768 -2.724,0.768 -1.98,0 -3.168,-1.224 -1.188,-1.224 -1.188,-3.276 0,-2.076 1.176,-3.288 1.176,-1.212 3.18,-1.212 1.548,0 2.724,0.768 l -0.324,0.72 q -1.068,-0.684 -2.316,-0.684 z m 8.20799,3.108 q -0.54,-0.672 -1.488,-0.672 -0.948,0 -1.5,0.672 -0.54,0.66 -0.54,1.848 0,1.188 0.54,1.86 0.552,0.66 1.5,0.66 0.948,0 1.488,-0.66 0.552,-0.672 0.552,-1.86 0,-1.188 -0.552,-1.848 z m 0.648,4.212 q -0.804,0.876 -2.136,0.876 -1.332,0 -2.136,-0.876 -0.804,-0.876 -0.804,-2.364 0,-1.488 0.804,-2.364 0.804,-0.876 2.136,-0.876 1.332,0 2.136,0.876 0.804,0.876 0.804,2.364 0,1.488 -0.804,2.364 z m 3.3,-4.224 q -0.492,0.648 -0.492,1.86 0,1.212 0.504,1.872 0.504,0.648 1.356,0.648 0.816,0 1.32,-0.636 0.516,-0.636 0.516,-1.8 v -0.168 q 0,-1.14 -0.516,-1.788 -0.504,-0.648 -1.32,-0.648 -0.876,0 -1.368,0.66 z m -1.356,1.86 q 0,-1.572 0.672,-2.4 0.672,-0.84 1.848,-0.84 1.356,0 2.016,1.14 h 0.024 v -3.78 h 0.876 v 9 h -0.84 l -0.012,-1.056 h -0.024 q -0.66,1.176 -2.04,1.176 -1.152,0 -1.836,-0.84 -0.684,-0.852 -0.684,-2.4 z m 7.77599,0.336 q 0.024,1.02 0.624,1.608 0.6,0.588 1.56,0.588 0.924,0 1.836,-0.48 l 0.24,0.684 q -1.008,0.504 -2.16,0.504 -1.344,0 -2.172,-0.876 -0.828,-0.876 -0.828,-2.364 0,-1.512 0.768,-2.376 0.78,-0.864 2.112,-0.864 1.296,0 2.004,0.828 0.72,0.816 0.72,2.352 0,0.156 -0.024,0.396 z m 0,-0.696 h 3.84 q -0.012,-1.044 -0.504,-1.608 -0.492,-0.564 -1.356,-0.564 -0.9,0 -1.428,0.576 -0.516,0.564 -0.552,1.596 z"
     id="text9"
     style="font-size:12px;font-family:'M PLUS 1p', MPLUS1p-Regular, monospace;dominant-baseline:middle;text-anchor:end;fill:#e3e3e3"
     aria-label="Exception Code" />
  <line
     x1="472"
     y1="31"
     x2="784"
     y2="31"
     stroke="#E3E3E3"
     stroke-width="1"
     id="line10" />
  <line
     x1="472"
     y1="61"
     x2="784"
     y2="61"
     stroke="#E3E3E3"
     stroke-width="1"
     id="line11" />
  <line
     x1="784"
     y1="31"
     x2="784"
     y2="61"
     stroke="#E3E3E3"
     stroke-width="1"
     id="line12" />
  <path
     d="m 481.54883,52.704102 h -2.20899 q -1.125,-1.31836 -1.66992,-2.712891 -0.53906,-1.394531 -0.53906,-3.052734 0,-1.658204 0.53906,-3.052735 0.54492,-1.394531 1.66992,-2.71289 h 2.20899 v 0.169921 q -0.47461,0.427735 -0.90821,0.972657 -0.42773,0.539062 -0.79687,1.265625 -0.35156,0.697265 -0.57422,1.546875 -0.2168,0.849609 -0.2168,1.810547 0,1.001953 0.21094,1.816406 0.2168,0.814453 0.58008,1.541015 0.35156,0.691407 0.79102,1.253907 0.44531,0.568359 0.91406,0.984375 z m 14.12695,-11.138672 -2.34961,8.724609 h -2.49023 l -1.56446,-5.683594 -1.52343,5.683594 h -2.49024 L 482.9082,41.56543 h 2.34961 l 1.3418,6.005859 1.60547,-6.005859 h 2.24414 l 1.5293,6.005859 1.40625,-6.005859 z m 7.79297,8.724609 h -6.29297 V 41.56543 h 2.25 v 7.037109 h 4.04297 z m 6.24609,-6.052734 q 0,-0.328125 -0.13476,-0.5625 -0.13477,-0.234375 -0.46289,-0.369141 -0.22852,-0.09375 -0.53321,-0.111328 -0.30468,-0.02344 -0.70898,-0.02344 h -0.81445 v 2.34961 h 0.6914 q 0.53907,0 0.90235,-0.05273 0.36328,-0.05273 0.60937,-0.240234 0.23438,-0.181641 0.33985,-0.398437 0.11132,-0.222657 0.11132,-0.591797 z m 3.50977,6.052734 h -2.74805 l -2.3789,-3.199219 h -1.03711 v 3.199219 h -2.23828 V 41.56543 h 3.77343 q 0.77344,0 1.33008,0.08789 0.55664,0.08789 1.04297,0.38086 0.49219,0.292968 0.7793,0.761718 0.29297,0.462891 0.29297,1.166016 0,0.966797 -0.45118,1.576172 -0.44531,0.609375 -1.27734,1.013672 z m 7.27734,0 h -6.29297 V 41.56543 h 2.25 v 7.037109 h 4.04297 z m 5.63086,-3.351562 q 0,1.658203 -0.54492,3.052734 -0.53906,1.394531 -1.66406,2.712891 h -2.20899 V 52.53418 q 0.46875,-0.416016 0.91407,-0.978516 0.44531,-0.5625 0.79101,-1.259766 0.36328,-0.726562 0.57422,-1.541015 0.2168,-0.814453 0.2168,-1.816406 0,-0.960938 -0.22266,-1.810547 -0.2168,-0.84961 -0.56836,-1.546875 -0.36914,-0.726563 -0.80273,-1.265625 -0.42774,-0.544922 -0.90235,-0.972657 v -0.169921 h 2.20899 q 1.125,1.318359 1.66406,2.71289 0.54492,1.394531 0.54492,3.052735 z"
     id="text12"
     style="font-weight:bold;dominant-baseline:middle;fill:#e3e3e3"
     aria-label="(WLRL)" />
  <path
     d="m 64.011995,80.12 v -7.608 h -0.024 l -2.364,2.184 -0.372,-0.78 2.76,-2.556 h 0.96 v 8.76 z"
     id="text13"
     style="font-size:12px;font-family:'M PLUS 1p', MPLUS1p-Regular, monospace;dominant-baseline:middle;text-anchor:middle;fill:#e3e3e3"
     aria-label="1" />
  <path
     d="m 422.206,80.12 v -8.76 h 0.972 l 3.12,5.28 h 0.024 l 3.12,-5.28 h 1.008 v 8.76 h -0.96 v -7.152 h -0.024 l -2.712,4.548 h -0.888 l -2.712,-4.548 h -0.024 v 7.152 z m 10.98001,-8.76 2.184,3.648 h 0.024 l 2.196,-3.648 h 1.08 l -2.688,4.32 2.748,4.44 h -1.128 l -2.232,-3.768 h -0.024 l -2.244,3.768 h -1.092 l 2.748,-4.44 -2.688,-4.32 z m 8.09999,0 v 7.944 h 4.284 v 0.816 h -5.28 v -8.76 z m 6.98399,0.804 v 2.856 h 3.924 v 0.768 h -3.924 v 3.528 h 4.164 v 0.804 h -5.124 v -8.76 h 5.124 v 0.804 z m 6.084,7.956 v -8.76 h 0.996 l 4.56,7.2 h 0.024 v -7.2 h 0.936 v 8.76 h -0.984 l -4.56,-7.2 h -0.024 v 7.2 z m 8.49599,-3.096 v -0.768 h 3.564 v 0.768 z m 8.25601,3.096 v -7.608 h -0.024 l -2.364,2.184 -0.372,-0.78 2.76,-2.556 h 0.96 v 8.76 z"
     id="text14"
     style="font-size:12px;font-family:'M PLUS 1p', MPLUS1p-Regular, monospace;dominant-baseline:middle;text-anchor:middle;fill:#e3e3e3"
     aria-label="MXLEN-1" />
</svg>
