<?xml version="1.0" encoding="UTF-8" standalone="no"?>
<svg
   version="1.0"
   width="800"
   height="92"
   viewBox="0 0 800 92"
   id="svg8"
   xmlns="http://www.w3.org/2000/svg"
   xmlns:svg="http://www.w3.org/2000/svg">
  <defs
     id="defs8" />
  <path
     d="m 23.756,14.984 q -0.924,0 -1.524,0.6 -0.6,0.6 -0.6,1.536 0,1.116 0.564,1.716 0.564,0.6 1.56,0.6 1.02,0 1.584,-0.6 0.564,-0.6 0.564,-1.716 0,-0.984 -0.588,-1.56 -0.576,-0.576 -1.56,-0.576 z m 0,5.256 q -1.452,0 -2.28,-0.876 -0.816,-0.876 -0.816,-2.52 0,-2.436 1.176,-3.924 1.188,-1.488 3.264,-1.68 l 0.168,0.804 q -2.76,0.312 -3.504,3.108 l 0.012,0.012 q 0.828,-0.924 2.184,-0.924 1.332,0 2.112,0.78 0.792,0.768 0.792,2.1 0,1.428 -0.852,2.28 -0.852,0.84 -2.256,0.84 z m 4.70401,-8.88 h 5.256 v 0.804 l -2.88,2.82 v 0.024 h 0.372 q 1.272,0 1.944,0.612 0.684,0.612 0.684,1.776 0,1.368 -0.816,2.112 -0.804,0.732 -2.304,0.732 -1.296,0 -2.28,-0.624 l 0.288,-0.78 q 1.008,0.6 1.992,0.6 1.056,0 1.608,-0.516 0.552,-0.516 0.552,-1.524 0,-0.852 -0.576,-1.26 -0.564,-0.42 -1.812,-0.42 h -0.876 v -0.744 l 2.868,-2.784 v -0.024 h -4.02 z"
     id="text1"
     style="font-size:12px;font-family:'M PLUS 1p', MPLUS1p-Regular, monospace;dominant-baseline:middle;fill:#e3e3e3"
     aria-label="63" />
  <path
     d="m 776.26799,11.24 q 3.168,0 3.168,4.5 0,4.5 -3.168,4.5 -1.5,0 -2.328,-1.044 -0.828,-1.044 -0.828,-3.456 0,-2.412 0.828,-3.456 0.828,-1.044 2.328,-1.044 z m -1.656,7.344 q 0.552,0.876 1.656,0.876 1.104,0 1.656,-0.876 0.552,-0.888 0.552,-2.844 0,-1.956 -0.552,-2.832 -0.552,-0.888 -1.656,-0.888 -1.104,0 -1.656,0.888 -0.54,0.876 -0.54,2.832 0,1.956 0.54,2.844 z"
     id="text2"
     style="font-size:12px;font-family:'M PLUS 1p', MPLUS1p-Regular, monospace;dominant-baseline:middle;text-anchor:end;fill:#e3e3e3"
     aria-label="0" />
  <line
     x1="16"
     y1="31"
     x2="448"
     y2="31"
     stroke="#E3E3E3"
     stroke-width="1"
     id="line2" />
  <line
     x1="16"
     y1="61"
     x2="448"
     y2="61"
     stroke="#E3E3E3"
     stroke-width="1"
     id="line3" />
  <line
     x1="16"
     y1="31"
     x2="16"
     y2="61"
     stroke="#E3E3E3"
     stroke-width="1"
     id="line4" />
  <path
     d="m 310.10405,42.02 q -0.828,0 -1.284,0.372 -0.456,0.36 -0.456,1.008 0,1.164 1.704,1.68 1.488,0.432 2.112,1.08 0.636,0.648 0.636,1.68 0,1.164 -0.732,1.788 -0.72,0.612 -2.064,0.612 -1.488,0 -2.64,-0.756 l 0.288,-0.792 q 1.044,0.744 2.352,0.744 0.888,0 1.356,-0.408 0.48,-0.408 0.48,-1.188 0,-0.72 -0.408,-1.14 -0.396,-0.432 -1.404,-0.744 -2.628,-0.78 -2.628,-2.556 0,-0.984 0.708,-1.572 0.72,-0.588 1.98,-0.588 1.356,0 2.52,0.564 l -0.24,0.744 q -1.044,-0.528 -2.28,-0.528 z m 4.46399,1.86 1.86,5.136 h 0.024 l 2.052,-5.136 h 0.936 l -3.72,8.88 h -0.936 l 1.176,-2.676 -2.364,-6.204 z m 6.19199,0 h 0.84 l 0.012,1.116 h 0.024 q 0.36,-0.576 0.912,-0.9 0.564,-0.336 1.212,-0.336 1.056,0 1.56,0.66 0.516,0.648 0.516,2.064 v 3.636 h -0.864 v -3.564 q 0,-1.164 -0.336,-1.608 -0.336,-0.456 -1.152,-0.456 -0.696,0 -1.272,0.696 -0.576,0.684 -0.576,1.596 v 3.336 h -0.876 z m 9.55201,0.612 q -1.056,0 -1.644,0.66 -0.588,0.648 -0.588,1.848 0,1.152 0.612,1.836 0.624,0.684 1.62,0.684 0.84,0 1.608,-0.408 l 0.24,0.708 q -0.9,0.42 -1.884,0.42 -1.392,0 -2.256,-0.876 -0.864,-0.888 -0.864,-2.364 0,-1.524 0.828,-2.376 0.828,-0.864 2.292,-0.864 0.984,0 1.884,0.42 l -0.24,0.732 q -0.804,-0.42 -1.608,-0.42 z m 3.58799,-3.372 h 0.876 v 3.828 h 0.024 q 0.792,-1.188 2.1,-1.188 1.056,0 1.56,0.66 0.516,0.648 0.516,2.064 v 3.636 h -0.864 v -3.564 q 0,-1.164 -0.336,-1.608 -0.336,-0.456 -1.152,-0.456 -0.72,0 -1.284,0.708 -0.564,0.696 -0.564,1.584 v 3.336 h -0.876 z m 6.816,2.76 h 0.852 l 0.024,1.332 h 0.024 q 1.056,-1.452 2.976,-1.452 v 0.756 q -1.332,0 -2.16,0.732 -0.816,0.732 -0.816,1.896 v 2.976 h -0.9 z m 9.20399,1.272 q -0.54,-0.672 -1.488,-0.672 -0.948,0 -1.5,0.672 -0.54,0.66 -0.54,1.848 0,1.188 0.54,1.86 0.552,0.66 1.5,0.66 0.948,0 1.488,-0.66 0.552,-0.672 0.552,-1.86 0,-1.188 -0.552,-1.848 z m 0.648,4.212 q -0.804,0.876 -2.136,0.876 -1.332,0 -2.136,-0.876 -0.804,-0.876 -0.804,-2.364 0,-1.488 0.804,-2.364 0.804,-0.876 2.136,-0.876 1.332,0 2.136,0.876 0.804,0.876 0.804,2.364 0,1.488 -0.804,2.364 z m 2.18399,-5.484 h 0.84 l 0.012,1.116 h 0.024 q 0.36,-0.576 0.912,-0.9 0.564,-0.336 1.212,-0.336 1.056,0 1.56,0.66 0.516,0.648 0.516,2.064 v 3.636 h -0.864 v -3.564 q 0,-1.164 -0.336,-1.608 -0.336,-0.456 -1.152,-0.456 -0.696,0 -1.272,0.696 -0.576,0.684 -0.576,1.596 v 3.336 h -0.876 z m 10.82401,1.272 q -0.54,-0.672 -1.488,-0.672 -0.948,0 -1.5,0.672 -0.54,0.66 -0.54,1.848 0,1.188 0.54,1.86 0.552,0.66 1.5,0.66 0.948,0 1.488,-0.66 0.552,-0.672 0.552,-1.86 0,-1.188 -0.552,-1.848 z m 0.648,4.212 q -0.804,0.876 -2.136,0.876 -1.332,0 -2.136,-0.876 -0.804,-0.876 -0.804,-2.364 0,-1.488 0.804,-2.364 0.804,-0.876 2.136,-0.876 1.332,0 2.136,0.876 0.804,0.876 0.804,2.364 0,1.488 -0.804,2.364 z m 2.988,-5.484 v 3.876 q 0,0.96 0.312,1.344 0.324,0.384 1.068,0.384 0.696,0 1.26,-0.672 0.576,-0.672 0.576,-1.596 V 43.88 h 0.876 v 6.24 h -0.84 l -0.012,-1.116 h -0.024 q -0.36,0.576 -0.924,0.912 -0.552,0.324 -1.2,0.324 -1.008,0 -1.488,-0.564 -0.468,-0.576 -0.468,-1.836 v -3.96 z m 7.95601,-0.12 q 1.14,0 2.112,0.48 l -0.192,0.708 q -0.924,-0.468 -1.92,-0.468 -0.696,0 -1.068,0.252 -0.36,0.252 -0.36,0.708 0,0.432 0.312,0.684 0.324,0.252 1.164,0.396 1.224,0.204 1.752,0.672 0.54,0.468 0.54,1.284 0,0.816 -0.624,1.296 -0.612,0.468 -1.716,0.468 -1.284,0 -2.304,-0.6 l 0.204,-0.708 q 0.984,0.588 2.1,0.588 0.696,0 1.068,-0.264 0.372,-0.276 0.372,-0.78 0,-0.48 -0.336,-0.744 -0.324,-0.264 -1.152,-0.408 -1.188,-0.204 -1.728,-0.648 -0.528,-0.456 -0.528,-1.236 0,-0.768 0.6,-1.224 0.612,-0.456 1.704,-0.456 z m 8.46,-1.596 v 2.856 h 3.924 v 0.768 h -3.924 v 3.528 h 4.164 v 0.804 h -5.124 v -8.76 h 5.124 v 0.804 z m 6.636,1.716 1.632,2.484 h 0.024 l 1.632,-2.484 h 0.996 l -2.124,3.072 2.184,3.168 h -1.032 l -1.692,-2.592 h -0.024 l -1.68,2.592 h -1.008 l 2.196,-3.168 -2.136,-3.072 z m 8.28,0.612 q -1.056,0 -1.644,0.66 -0.588,0.648 -0.588,1.848 0,1.152 0.612,1.836 0.624,0.684 1.62,0.684 0.84,0 1.608,-0.408 l 0.24,0.708 q -0.9,0.42 -1.884,0.42 -1.392,0 -2.256,-0.876 -0.864,-0.888 -0.864,-2.364 0,-1.524 0.828,-2.376 0.828,-0.864 2.292,-0.864 0.984,0 1.884,0.42 l -0.24,0.732 q -0.804,-0.42 -1.608,-0.42 z m 4.00799,2.844 q 0.024,1.02 0.624,1.608 0.6,0.588 1.56,0.588 0.924,0 1.836,-0.48 l 0.24,0.684 q -1.008,0.504 -2.16,0.504 -1.344,0 -2.172,-0.876 -0.828,-0.876 -0.828,-2.364 0,-1.512 0.768,-2.376 0.78,-0.864 2.112,-0.864 1.296,0 2.004,0.828 0.72,0.816 0.72,2.352 0,0.156 -0.024,0.396 z m 0,-0.696 h 3.84 q -0.012,-1.044 -0.504,-1.608 -0.492,-0.564 -1.356,-0.564 -0.9,0 -1.428,0.576 -0.516,0.564 -0.552,1.596 z m 9.06,3.6 q -1.356,0 -2.016,-1.092 h -0.024 v 3.612 h -0.876 v -8.88 h 0.84 l 0.012,1.056 h 0.024 q 0.66,-1.176 2.04,-1.176 1.176,0 1.848,0.84 0.672,0.828 0.672,2.4 0,1.536 -0.696,2.388 -0.684,0.852 -1.824,0.852 z m 1.656,-3.24 q 0,-1.224 -0.492,-1.872 -0.48,-0.648 -1.356,-0.648 -0.828,0 -1.344,0.648 -0.504,0.648 -0.504,1.788 v 0.168 q 0,1.164 0.516,1.8 0.516,0.636 1.332,0.636 0.852,0 1.344,-0.648 0.504,-0.66 0.504,-1.872 z m 4.164,-5.16 v 2.28 h 2.364 v 0.72 h -2.364 v 3.276 q 0,0.84 0.228,1.128 0.228,0.276 0.852,0.276 0.552,0 1.056,-0.204 l 0.144,0.708 q -0.612,0.216 -1.32,0.216 -1.02,0 -1.44,-0.432 -0.42,-0.444 -0.42,-1.524 V 44.84 h -1.38 v -0.72 h 1.38 v -2.28 z m 4.64399,0.6 v -1.32 h 0.924 v 1.32 z m 0,7.68 v -6.24 h 0.924 v 6.24 z m 7.21199,-4.968 q -0.54,-0.672 -1.488,-0.672 -0.948,0 -1.5,0.672 -0.54,0.66 -0.54,1.848 0,1.188 0.54,1.86 0.552,0.66 1.5,0.66 0.948,0 1.488,-0.66 0.552,-0.672 0.552,-1.86 0,-1.188 -0.552,-1.848 z m 0.648,4.212 q -0.804,0.876 -2.136,0.876 -1.332,0 -2.136,-0.876 -0.804,-0.876 -0.804,-2.364 0,-1.488 0.804,-2.364 0.804,-0.876 2.136,-0.876 1.332,0 2.136,0.876 0.804,0.876 0.804,2.364 0,1.488 -0.804,2.364 z m 2.18399,-5.484 h 0.84 l 0.012,1.116 h 0.024 q 0.36,-0.576 0.912,-0.9 0.564,-0.336 1.212,-0.336 1.056,0 1.56,0.66 0.516,0.648 0.516,2.064 v 3.636 h -0.864 v -3.564 q 0,-1.164 -0.336,-1.608 -0.336,-0.456 -1.152,-0.456 -0.696,0 -1.272,0.696 -0.576,0.684 -0.576,1.596 v 3.336 h -0.876 z M 441,43.76 q 1.14,0 2.112,0.48 l -0.192,0.708 Q 441.996,44.48 441,44.48 q -0.696,0 -1.068,0.252 -0.36,0.252 -0.36,0.708 0,0.432 0.312,0.684 0.324,0.252 1.164,0.396 1.224,0.204 1.752,0.672 0.54,0.468 0.54,1.284 0,0.816 -0.624,1.296 -0.612,0.468 -1.716,0.468 -1.284,0 -2.304,-0.6 l 0.204,-0.708 q 0.984,0.588 2.1,0.588 0.696,0 1.068,-0.264 0.372,-0.276 0.372,-0.78 0,-0.48 -0.336,-0.744 -0.324,-0.264 -1.152,-0.408 -1.188,-0.204 -1.728,-0.648 -0.528,-0.456 -0.528,-1.236 0,-0.768 0.6,-1.224 0.612,-0.456 1.704,-0.456 z"
     id="text4"
     style="font-size:12px;font-family:'M PLUS 1p', MPLUS1p-Regular, monospace;dominant-baseline:middle;text-anchor:end;fill:#e3e3e3"
     aria-label="Synchronous Exceptions" />
  <line
     x1="448"
     y1="31"
     x2="784"
     y2="31"
     stroke="#E3E3E3"
     stroke-width="1"
     id="line5" />
  <line
     x1="448"
     y1="61"
     x2="784"
     y2="61"
     stroke="#E3E3E3"
     stroke-width="1"
     id="line6" />
  <line
     x1="784"
     y1="31"
     x2="784"
     y2="61"
     stroke="#E3E3E3"
     stroke-width="1"
     id="line7" />
  <path
     d="m 457.54883,52.704102 h -2.20899 q -1.125,-1.31836 -1.66992,-2.712891 -0.53906,-1.394531 -0.53906,-3.052734 0,-1.658204 0.53906,-3.052735 0.54492,-1.394531 1.66992,-2.71289 h 2.20899 v 0.169921 q -0.47461,0.427735 -0.90821,0.972657 -0.42773,0.539062 -0.79687,1.265625 -0.35156,0.697265 -0.57422,1.546875 -0.2168,0.849609 -0.2168,1.810547 0,1.001953 0.21094,1.816406 0.2168,0.814453 0.58008,1.541015 0.35156,0.691407 0.79102,1.253907 0.44531,0.568359 0.91406,0.984375 z m 14.12695,-11.138672 -2.34961,8.724609 h -2.49023 l -1.56446,-5.683594 -1.52343,5.683594 h -2.49024 L 458.9082,41.56543 h 2.34961 l 1.3418,6.005859 1.60547,-6.005859 h 2.24414 l 1.5293,6.005859 1.40625,-6.005859 z m 9.5625,8.724609 h -2.32617 l -0.60352,-1.763672 h -3.23437 l -0.60352,1.763672 h -2.26758 l 3.22266,-8.724609 h 2.58984 z m -3.47461,-3.363281 -1.07226,-3.128906 -1.07227,3.128906 z m 9.6211,-2.689453 q 0,-0.328125 -0.13477,-0.5625 -0.13477,-0.234375 -0.46289,-0.369141 -0.22852,-0.09375 -0.5332,-0.111328 -0.30469,-0.02344 -0.70899,-0.02344 h -0.81445 v 2.34961 h 0.6914 q 0.53907,0 0.90235,-0.05273 0.36328,-0.05273 0.60937,-0.240234 0.23438,-0.181641 0.33985,-0.398437 0.11133,-0.222657 0.11133,-0.591797 z m 3.50976,6.052734 h -2.74805 l -2.3789,-3.199219 h -1.03711 v 3.199219 h -2.23828 V 41.56543 h 3.77343 q 0.77344,0 1.33008,0.08789 0.55664,0.08789 1.04297,0.38086 0.49219,0.292968 0.7793,0.761718 0.29297,0.462891 0.29297,1.166016 0,0.966797 -0.45117,1.576172 -0.44532,0.609375 -1.27735,1.013672 z m 7.27734,0 h -6.29296 V 41.56543 h 2.25 v 7.037109 h 4.04296 z m 5.63086,-3.351562 q 0,1.658203 -0.54492,3.052734 -0.53906,1.394531 -1.66406,2.712891 h -2.20898 V 52.53418 q 0.46875,-0.416016 0.91406,-0.978516 0.44531,-0.5625 0.79101,-1.259766 0.36328,-0.726562 0.57422,-1.541015 0.2168,-0.814453 0.2168,-1.816406 0,-0.960938 -0.22266,-1.810547 -0.21679,-0.84961 -0.56836,-1.546875 -0.36914,-0.726563 -0.80273,-1.265625 -0.42774,-0.544922 -0.90234,-0.972657 v -0.169921 h 2.20898 q 1.125,1.318359 1.66406,2.71289 0.54492,1.394531 0.54492,3.052735 z"
     id="text7"
     style="font-weight:bold;dominant-baseline:middle;fill:#e3e3e3"
     aria-label="(WARL)" />
  <path
     d="m 396.31599,74.984 q -0.924,0 -1.524,0.6 -0.6,0.6 -0.6,1.536 0,1.116 0.564,1.716 0.564,0.6 1.56,0.6 1.02,0 1.584,-0.6 0.564,-0.6 0.564,-1.716 0,-0.984 -0.588,-1.56 -0.576,-0.576 -1.56,-0.576 z m 0,5.256 q -1.452,0 -2.28,-0.876 -0.816,-0.876 -0.816,-2.52 0,-2.436 1.176,-3.924 1.188,-1.488 3.264,-1.68 l 0.168,0.804 q -2.76,0.312 -3.504,3.108 l 0.012,0.012 q 0.828,-0.924 2.184,-0.924 1.332,0 2.112,0.78 0.792,0.768 0.792,2.1 0,1.428 -0.852,2.28 -0.852,0.84 -2.256,0.84 z M 404.38,77.3 v -4.536 h -0.024 l -3.192,4.512 V 77.3 Z m 0.948,0 h 1.488 v 0.78 h -1.488 v 2.04 h -0.948 v -2.04 h -4.2 V 77.3 l 4.2,-5.94 h 0.948 z"
     id="text8"
     style="font-size:12px;font-family:'M PLUS 1p', MPLUS1p-Regular, monospace;dominant-baseline:middle;text-anchor:middle;fill:#e3e3e3"
     aria-label="64" />
</svg>
