<?xml version="1.0" encoding="UTF-8" standalone="no"?>
<svg
   version="1.0"
   width="800"
   height="92"
   viewBox="0 0 800 92"
   id="svg6"
   xmlns="http://www.w3.org/2000/svg"
   xmlns:svg="http://www.w3.org/2000/svg">
  <defs
     id="defs6" />
  <path
     d="m 21.02,20.12 v -8.76 h 0.972 l 3.12,5.28 h 0.024 l 3.12,-5.28 h 1.008 v 8.76 h -0.96 V 12.968 H 28.28 l -2.712,4.548 H 24.68 l -2.712,-4.548 h -0.024 v 7.152 z m 10.980004,-8.76 2.184,3.648 h 0.024 l 2.196,-3.648 h 1.08 l -2.688,4.32 2.748,4.44 h -1.128 l -2.232,-3.768 h -0.024 l -2.244,3.768 h -1.092 l 2.748,-4.44 -2.688,-4.32 z m 8.099996,0 v 7.944 h 4.284 v 0.816 h -5.28 v -8.76 z m 6.983989,0.804 v 2.856 h 3.924 v 0.768 h -3.924 v 3.528 h 4.164 v 0.804 h -5.124 v -8.76 h 5.124 v 0.804 z m 6.083998,7.956 v -8.76 h 0.996 l 4.56,7.2 h 0.024 v -7.2 h 0.936 v 8.76 h -0.984 l -4.56,-7.2 h -0.024 v 7.2 z m 8.495992,-3.096 v -0.768 h 3.564 v 0.768 z m 8.256009,3.096 v -7.608 h -0.024 l -2.364,2.184 -0.372,-0.78 2.76,-2.556 h 0.96 v 8.76 z"
     id="text1"
     style="font-size:12px;font-family:'M PLUS 1p', MPLUS1p-Regular, monospace;dominant-baseline:middle;fill:#e3e3e3"
     aria-label="MXLEN-1" />
  <path
     d="m 776.26799,11.24 q 3.168,0 3.168,4.5 0,4.5 -3.168,4.5 -1.5,0 -2.328,-1.044 -0.828,-1.044 -0.828,-3.456 0,-2.412 0.828,-3.456 0.828,-1.044 2.328,-1.044 z m -1.656,7.344 q 0.552,0.876 1.656,0.876 1.104,0 1.656,-0.876 0.552,-0.888 0.552,-2.844 0,-1.956 -0.552,-2.832 -0.552,-0.888 -1.656,-0.888 -1.104,0 -1.656,0.888 -0.54,0.876 -0.54,2.832 0,1.956 0.54,2.844 z"
     id="text2"
     style="font-size:12px;font-family:'M PLUS 1p', MPLUS1p-Regular, monospace;dominant-baseline:middle;text-anchor:end;fill:#e3e3e3"
     aria-label="0" />
  <line
     x1="16"
     y1="31"
     x2="784"
     y2="31"
     stroke="#E3E3E3"
     stroke-width="1"
     id="line2" />
  <line
     x1="16"
     y1="61"
     x2="784"
     y2="61"
     stroke="#E3E3E3"
     stroke-width="1"
     id="line3" />
  <line
     x1="784"
     y1="31"
     x2="784"
     y2="61"
     stroke="#E3E3E3"
     stroke-width="1"
     id="line4" />
  <line
     x1="16"
     y1="31"
     x2="16"
     y2="61"
     stroke="#E3E3E3"
     stroke-width="1"
     id="line5" />
  <path
     d="m 386.128,43.88 h 0.84 l 0.012,1.032 h 0.024 q 0.66,-1.152 1.644,-1.152 1.2,0 1.68,1.2 h 0.024 q 0.636,-1.2 1.812,-1.2 0.972,0 1.428,0.576 0.456,0.564 0.456,1.824 v 3.96 h -0.864 V 46.4 q 0,-1.092 -0.276,-1.5 -0.276,-0.42 -0.936,-0.42 -0.576,0 -1.008,0.576 -0.432,0.576 -0.432,1.404 v 3.66 h -0.864 V 46.4 q 0,-1.08 -0.288,-1.5 -0.276,-0.42 -0.936,-0.42 -0.54,0 -0.996,0.636 -0.444,0.624 -0.444,1.5 v 3.504 h -0.876 z m 10.14,3.456 q 0.024,1.02 0.624,1.608 0.6,0.588 1.56,0.588 0.924,0 1.836,-0.48 l 0.24,0.684 q -1.008,0.504 -2.16,0.504 -1.344,0 -2.172,-0.876 -0.828,-0.876 -0.828,-2.364 0,-1.512 0.768,-2.376 0.78,-0.864 2.112,-0.864 1.296,0 2.004,0.828 0.72,0.816 0.72,2.352 0,0.156 -0.024,0.396 z m 0,-0.696 h 3.84 q -0.012,-1.044 -0.504,-1.608 -0.492,-0.564 -1.356,-0.564 -0.9,0 -1.428,0.576 -0.516,0.564 -0.552,1.596 z m 9.06,3.6 q -1.356,0 -2.016,-1.092 h -0.024 v 3.612 h -0.876 v -8.88 h 0.84 l 0.012,1.056 h 0.024 q 0.66,-1.176 2.04,-1.176 1.176,0 1.848,0.84 0.672,0.828 0.672,2.4 0,1.536 -0.696,2.388 -0.684,0.852 -1.824,0.852 z M 406.984,47 q 0,-1.224 -0.492,-1.872 -0.48,-0.648 -1.356,-0.648 -0.828,0 -1.344,0.648 -0.504,0.648 -0.504,1.788 v 0.168 q 0,1.164 0.516,1.8 0.516,0.636 1.332,0.636 0.852,0 1.344,-0.648 0.504,-0.66 0.504,-1.872 z m 5.16001,-2.508 q -1.056,0 -1.644,0.66 -0.588,0.648 -0.588,1.848 0,1.152 0.612,1.836 0.624,0.684 1.62,0.684 0.84,0 1.608,-0.408 l 0.24,0.708 q -0.9,0.42 -1.884,0.42 -1.392,0 -2.256,-0.876 -0.864,-0.888 -0.864,-2.364 0,-1.524 0.828,-2.376 0.828,-0.864 2.292,-0.864 0.984,0 1.884,0.42 l -0.24,0.732 q -0.804,-0.42 -1.608,-0.42 z"
     id="text5"
     style="font-size:12px;font-family:'M PLUS 1p', MPLUS1p-Regular, monospace;dominant-baseline:middle;text-anchor:middle;fill:#e3e3e3"
     aria-label="mepc" />
  <path
     d="m 380.66801,80.12 v -8.76 h 0.972 l 3.12,5.28 h 0.024 l 3.12,-5.28 h 1.008 v 8.76 h -0.96 v -7.152 h -0.024 l -2.712,4.548 h -0.888 l -2.712,-4.548 h -0.024 v 7.152 z m 10.98,-8.76 2.184,3.648 h 0.024 l 2.196,-3.648 h 1.08 l -2.688,4.32 2.748,4.44 h -1.128 l -2.232,-3.768 h -0.024 l -2.244,3.768 h -1.092 l 2.748,-4.44 -2.688,-4.32 z m 8.1,0 v 7.944 h 4.284 v 0.816 h -5.28 v -8.76 z m 6.98399,0.804 v 2.856 h 3.924 v 0.768 h -3.924 v 3.528 h 4.164 v 0.804 h -5.124 v -8.76 h 5.124 v 0.804 z m 6.084,7.956 v -8.76 h 0.996 l 4.56,7.2 h 0.024 v -7.2 h 0.936 v 8.76 h -0.984 l -4.56,-7.2 h -0.024 v 7.2 z"
     id="text6"
     style="font-size:12px;font-family:'M PLUS 1p', MPLUS1p-Regular, monospace;dominant-baseline:middle;text-anchor:middle;fill:#e3e3e3"
     aria-label="MXLEN" />
</svg>
