<?xml version="1.0" encoding="UTF-8" standalone="no"?>
<svg
   version="1.0"
   width="1480"
   height="122"
   viewBox="0 0 1480 122"
   id="svg6"
   xmlns="http://www.w3.org/2000/svg"
   xmlns:svg="http://www.w3.org/2000/svg">
  <defs
     id="defs6" />
  <path
     d="M 106.04,28.24 V 10.72 h 1.944 l 6.24,10.56 h 0.048 l 6.24,-10.56 h 2.016 v 17.52 h -1.92 V 13.936 h -0.048 l -5.424,9.096 h -1.776 l -5.424,-9.096 h -0.048 V 28.24 Z m 21.96001,-17.52 4.368,7.296 h 0.048 l 4.392,-7.296 h 2.16 l -5.376,8.64 5.496,8.88 h -2.256 l -4.464,-7.536 h -0.048 l -4.488,7.536 h -2.184 l 5.496,-8.88 -5.376,-8.64 z m 16.19999,0 v 15.888 h 8.568 v 1.632 h -10.56 V 10.72 Z m 13.96798,1.608 v 5.712 h 7.848 v 1.536 h -7.848 v 7.056 h 8.328 v 1.608 h -10.248 V 10.72 h 10.248 v 1.608 z M 170.33597,28.24 V 10.72 h 1.992 l 9.12,14.4 h 0.048 v -14.4 h 1.872 v 17.52 h -1.968 l -9.12,-14.4 h -0.048 v 14.4 z m 16.99199,-6.192 v -1.536 h 7.128 v 1.536 z m 16.51202,6.192 V 13.024 h -0.048 l -4.728,4.368 -0.744,-1.56 5.52,-5.112 h 1.92 v 17.52 z"
     id="text1"
     style="font-size:24px;font-family:'M PLUS 1p', MPLUS1p-Regular, monospace;dominant-baseline:middle;fill:#e3e3e3"
     aria-label="MXLEN-1" />
  <path
     d="m 1368.536,10.48 q 6.336,0 6.336,9 0,9 -6.336,9 -3,0 -4.656,-2.088 -1.656,-2.088 -1.656,-6.912 0,-4.824 1.656,-6.912 1.656,-2.088 4.656,-2.088 z m -3.312,14.688 q 1.104,1.752 3.312,1.752 2.208,0 3.312,-1.752 1.104,-1.776 1.104,-5.688 0,-3.912 -1.104,-5.664 -1.104,-1.776 -3.312,-1.776 -2.208,0 -3.312,1.776 -1.08,1.752 -1.08,5.664 0,3.912 1.08,5.688 z"
     id="text2"
     style="font-size:24px;font-family:'M PLUS 1p', MPLUS1p-Regular, monospace;dominant-baseline:middle;text-anchor:end;fill:#e3e3e3"
     aria-label="0" />
  <line
     x1="100"
     y1="41"
     x2="1380"
     y2="41"
     stroke="#E3E3E3"
     stroke-width="1"
     id="line2" />
  <line
     x1="100"
     y1="81"
     x2="1380"
     y2="81"
     stroke="#E3E3E3"
     stroke-width="1"
     id="line3" />
  <line
     x1="1380"
     y1="41"
     x2="1380"
     y2="81"
     stroke="#E3E3E3"
     stroke-width="1"
     id="line4" />
  <line
     x1="100"
     y1="41"
     x2="100"
     y2="81"
     stroke="#E3E3E3"
     stroke-width="1"
     id="line5" />
  <path
     d="m 712.256,55.76 h 1.68 l 0.024,2.064 h 0.048 q 1.32,-2.304 3.288,-2.304 2.4,0 3.36,2.4 h 0.048 q 1.272,-2.4 3.624,-2.4 1.944,0 2.856,1.152 0.912,1.128 0.912,3.648 v 7.92 h -1.728 V 60.8 q 0,-2.184 -0.552,-3 -0.552,-0.84 -1.872,-0.84 -1.152,0 -2.016,1.152 -0.864,1.152 -0.864,2.808 v 7.32 h -1.728 V 60.8 q 0,-2.16 -0.576,-3 -0.552,-0.84 -1.872,-0.84 -1.08,0 -1.992,1.272 -0.888,1.248 -0.888,3 v 7.008 h -1.752 z m 20.28001,6.912 q 0.048,2.04 1.248,3.216 1.2,1.176 3.12,1.176 1.848,0 3.672,-0.96 l 0.48,1.368 q -2.016,1.008 -4.32,1.008 -2.688,0 -4.344,-1.752 -1.656,-1.752 -1.656,-4.728 0,-3.024 1.536,-4.752 1.56,-1.728 4.224,-1.728 2.592,0 4.008,1.656 1.44,1.632 1.44,4.704 0,0.312 -0.048,0.792 z m 0,-1.392 h 7.68 q -0.024,-2.088 -1.008,-3.216 -0.984,-1.128 -2.712,-1.128 -1.8,0 -2.856,1.152 -1.032,1.128 -1.104,3.192 z m 18.12,7.2 q -2.712,0 -4.032,-2.184 h -0.048 v 7.224 h -1.752 V 55.76 h 1.68 l 0.024,2.112 h 0.048 q 1.32,-2.352 4.08,-2.352 2.352,0 3.696,1.68 1.344,1.656 1.344,4.8 0,3.072 -1.392,4.776 -1.368,1.704 -3.648,1.704 z m 3.312,-6.48 q 0,-2.448 -0.984,-3.744 -0.96,-1.296 -2.712,-1.296 -1.656,0 -2.688,1.296 -1.008,1.296 -1.008,3.576 v 0.336 q 0,2.328 1.032,3.6 1.032,1.272 2.664,1.272 1.704,0 2.688,-1.296 1.008,-1.32 1.008,-3.744 z m 10.32,-5.016 q -2.112,0 -3.288,1.32 -1.176,1.296 -1.176,3.696 0,2.304 1.224,3.672 1.248,1.368 3.24,1.368 1.68,0 3.216,-0.816 l 0.48,1.416 q -1.8,0.84 -3.768,0.84 -2.784,0 -4.512,-1.752 -1.728,-1.776 -1.728,-4.728 0,-3.048 1.656,-4.752 1.656,-1.728 4.584,-1.728 1.968,0 3.768,0.84 l -0.48,1.464 q -1.608,-0.84 -3.216,-0.84 z"
     id="text5"
     style="font-size:24px;font-family:'M PLUS 1p', MPLUS1p-Regular, monospace;dominant-baseline:middle;text-anchor:middle;fill:#e3e3e3"
     aria-label="mepc" />
  <path
     d="M 701.33602,108.24 V 90.72 h 1.944 l 6.24,10.56 h 0.048 l 6.24,-10.56 h 2.016 v 17.52 h -1.92 V 93.936 h -0.048 l -5.424,9.096 h -1.776 l -5.424,-9.096 h -0.048 v 14.304 z m 21.96001,-17.52 4.368,7.296 h 0.048 l 4.392,-7.296 h 2.16 l -5.376,8.64 5.496,8.88 h -2.256 l -4.464,-7.536 h -0.048 l -4.488,7.536 h -2.184 l 5.496,-8.88 -5.376,-8.64 z m 16.19999,0 v 15.888 h 8.568 v 1.632 h -10.56 V 90.72 Z m 13.96798,1.608 v 5.712 h 7.848 v 1.536 h -7.848 v 7.056 h 8.328 v 1.608 H 751.544 V 90.72 h 10.248 v 1.608 z m 12.168,15.912 V 90.72 h 1.992 l 9.12,14.4 h 0.048 v -14.4 h 1.872 v 17.52 h -1.968 l -9.12,-14.4 h -0.048 v 14.4 z"
     id="text6"
     style="font-size:24px;font-family:'M PLUS 1p', MPLUS1p-Regular, monospace;dominant-baseline:middle;text-anchor:middle;fill:#e3e3e3"
     aria-label="MXLEN" />
</svg>
