<?xml version="1.0" encoding="UTF-8" standalone="no"?>
<svg
   version="1.0"
   width="1480"
   height="122"
   viewBox="0 0 1480 122"
   id="svg8"
   xmlns="http://www.w3.org/2000/svg"
   xmlns:svg="http://www.w3.org/2000/svg">
  <defs
     id="defs8" />
  <path
     d="M 106.04,28.24 V 10.72 h 1.944 l 6.24,10.56 h 0.048 l 6.24,-10.56 h 2.016 v 17.52 h -1.92 V 13.936 h -0.048 l -5.424,9.096 h -1.776 l -5.424,-9.096 h -0.048 V 28.24 Z m 21.96001,-17.52 4.368,7.296 h 0.048 l 4.392,-7.296 h 2.16 l -5.376,8.64 5.496,8.88 h -2.256 l -4.464,-7.536 h -0.048 l -4.488,7.536 h -2.184 l 5.496,-8.88 -5.376,-8.64 z m 16.19999,0 v 15.888 h 8.568 v 1.632 h -10.56 V 10.72 Z m 13.96798,1.608 v 5.712 h 7.848 v 1.536 h -7.848 v 7.056 h 8.328 v 1.608 h -10.248 V 10.72 h 10.248 v 1.608 z M 170.33597,28.24 V 10.72 h 1.992 l 9.12,14.4 h 0.048 v -14.4 h 1.872 v 17.52 h -1.968 l -9.12,-14.4 h -0.048 v 14.4 z m 16.99199,-6.192 v -1.536 h 7.128 v 1.536 z m 16.51202,6.192 V 13.024 h -0.048 l -4.728,4.368 -0.744,-1.56 5.52,-5.112 h 1.92 v 17.52 z"
     id="text1"
     style="font-size:24px;font-family:'M PLUS 1p', MPLUS1p-Regular, monospace;dominant-baseline:middle;fill:#e3e3e3"
     aria-label="MXLEN-1" />
  <path
     d="m 1368.536,10.48 q 6.336,0 6.336,9 0,9 -6.336,9 -3,0 -4.656,-2.088 -1.656,-2.088 -1.656,-6.912 0,-4.824 1.656,-6.912 1.656,-2.088 4.656,-2.088 z m -3.312,14.688 q 1.104,1.752 3.312,1.752 2.208,0 3.312,-1.752 1.104,-1.776 1.104,-5.688 0,-3.912 -1.104,-5.664 -1.104,-1.776 -3.312,-1.776 -2.208,0 -3.312,1.776 -1.08,1.752 -1.08,5.664 0,3.912 1.08,5.688 z"
     id="text2"
     style="font-size:24px;font-family:'M PLUS 1p', MPLUS1p-Regular, monospace;dominant-baseline:middle;text-anchor:end;fill:#e3e3e3"
     aria-label="0" />
  <line
     x1="100"
     y1="41"
     x2="780"
     y2="41"
     stroke="#E3E3E3"
     stroke-width="1"
     id="line2" />
  <line
     x1="100"
     y1="81"
     x2="780"
     y2="81"
     stroke="#E3E3E3"
     stroke-width="1"
     id="line3" />
  <line
     x1="100"
     y1="41"
     x2="100"
     y2="81"
     stroke="#E3E3E3"
     stroke-width="1"
     id="line4" />
  <path
     d="M 660.0801,68.24 V 50.72 h 2.088 v 17.52 z m 6.64799,-12.48 h 1.68 l 0.024,2.232 h 0.048 q 0.72,-1.152 1.824,-1.8 1.128,-0.672 2.424,-0.672 2.112,0 3.12,1.32 1.032,1.296 1.032,4.128 v 7.272 h -1.728 v -7.128 q 0,-2.328 -0.672,-3.216 -0.672,-0.912 -2.304,-0.912 -1.392,0 -2.544,1.392 -1.152,1.368 -1.152,3.192 v 6.672 h -1.752 z m 17.112,-4.08 v 4.56 h 4.728 v 1.44 h -4.728 v 6.552 q 0,1.68 0.456,2.256 0.456,0.552 1.704,0.552 1.104,0 2.112,-0.408 l 0.288,1.416 q -1.224,0.432 -2.64,0.432 -2.04,0 -2.88,-0.864 -0.84,-0.888 -0.84,-3.048 V 57.68 h -2.76 v -1.44 h 2.76 v -4.56 z m 9.04798,10.992 q 0.048,2.04 1.248,3.216 1.2,1.176 3.12,1.176 1.848,0 3.672,-0.96 l 0.48,1.368 q -2.016,1.008 -4.32,1.008 -2.688,0 -4.344,-1.752 -1.656,-1.752 -1.656,-4.728 0,-3.024 1.536,-4.752 1.56,-1.728 4.224,-1.728 2.592,0 4.008,1.656 1.44,1.632 1.44,4.704 0,0.312 -0.048,0.792 z m 0,-1.392 h 7.68 q -0.024,-2.088 -1.008,-3.216 -0.984,-1.128 -2.712,-1.128 -1.8,0 -2.856,1.152 -1.032,1.128 -1.104,3.192 z m 12.288,-5.52 h 1.704 l 0.048,2.664 h 0.048 q 2.112,-2.904 5.952,-2.904 v 1.512 q -2.664,0 -4.32,1.464 -1.632,1.464 -1.632,3.792 v 5.952 h -1.8 z m 10.87198,0 h 1.704 l 0.048,2.664 h 0.048 q 2.112,-2.904 5.952,-2.904 v 1.512 q -2.664,0 -4.32,1.464 -1.632,1.464 -1.632,3.792 v 5.952 h -1.8 z m 12.47998,0 v 7.752 q 0,1.92 0.624,2.688 0.648,0.768 2.136,0.768 1.392,0 2.52,-1.344 1.152,-1.344 1.152,-3.192 V 55.76 h 1.752 v 12.48 h -1.68 l -0.024,-2.232 h -0.048 q -0.72,1.152 -1.848,1.824 -1.104,0.648 -2.4,0.648 -2.016,0 -2.976,-1.128 -0.936,-1.152 -0.936,-3.672 v -7.92 z m 17.61601,12.72 q -2.712,0 -4.032,-2.184 h -0.048 v 7.224 h -1.752 V 55.76 h 1.68 l 0.024,2.112 h 0.048 q 1.32,-2.352 4.08,-2.352 2.352,0 3.696,1.68 1.344,1.656 1.344,4.8 0,3.072 -1.392,4.776 -1.368,1.704 -3.648,1.704 z m 3.312,-6.48 q 0,-2.448 -0.984,-3.744 -0.96,-1.296 -2.712,-1.296 -1.656,0 -2.688,1.296 -1.008,1.296 -1.008,3.576 v 0.336 q 0,2.328 1.032,3.6 1.032,1.272 2.664,1.272 1.704,0 2.688,-1.296 1.008,-1.32 1.008,-3.744 z m 8.32799,-10.32 v 4.56 h 4.728 v 1.44 h -4.728 v 6.552 q 0,1.68 0.456,2.256 0.456,0.552 1.704,0.552 1.104,0 2.112,-0.408 l 0.288,1.416 q -1.224,0.432 -2.64,0.432 -2.04,0 -2.88,-0.864 -0.84,-0.888 -0.84,-3.048 V 57.68 h -2.76 v -1.44 h 2.76 v -4.56 z m 12.21598,3.84 q 2.28,0 4.224,0.96 l -0.384,1.416 q -1.848,-0.936 -3.84,-0.936 -1.392,0 -2.136,0.504 -0.72,0.504 -0.72,1.416 0,0.864 0.624,1.368 0.648,0.504 2.328,0.792 2.448,0.408 3.504,1.344 1.08,0.936 1.08,2.568 0,1.632 -1.248,2.592 -1.224,0.936 -3.432,0.936 -2.568,0 -4.608,-1.2 l 0.408,-1.416 q 1.968,1.176 4.2,1.176 1.392,0 2.136,-0.528 0.744,-0.552 0.744,-1.56 0,-0.96 -0.672,-1.488 -0.648,-0.528 -2.304,-0.816 -2.376,-0.408 -3.456,-1.296 -1.056,-0.912 -1.056,-2.472 0,-1.536 1.2,-2.448 1.224,-0.912 3.408,-0.912 z"
     id="text4"
     style="font-size:24px;font-family:'M PLUS 1p', MPLUS1p-Regular, monospace;dominant-baseline:middle;text-anchor:end;fill:#e3e3e3"
     aria-label="Interrupts" />
  <line
     x1="780"
     y1="41"
     x2="1380"
     y2="41"
     stroke="#E3E3E3"
     stroke-width="1"
     id="line5" />
  <line
     x1="780"
     y1="81"
     x2="1380"
     y2="81"
     stroke="#E3E3E3"
     stroke-width="1"
     id="line6" />
  <line
     x1="1380"
     y1="41"
     x2="1380"
     y2="81"
     stroke="#E3E3E3"
     stroke-width="1"
     id="line7" />
  <path
     d="m 789.54883,67.704102 h -2.20899 q -1.125,-1.31836 -1.66992,-2.712891 -0.53906,-1.394531 -0.53906,-3.052734 0,-1.658204 0.53906,-3.052735 0.54492,-1.394531 1.66992,-2.71289 h 2.20899 v 0.169921 q -0.47461,0.427735 -0.90821,0.972657 -0.42773,0.539062 -0.79687,1.265625 -0.35156,0.697265 -0.57422,1.546875 -0.2168,0.849609 -0.2168,1.810547 0,1.001953 0.21094,1.816406 0.2168,0.814453 0.58008,1.541015 0.35156,0.691407 0.79102,1.253907 0.44531,0.568359 0.91406,0.984375 z m 14.12695,-11.138672 -2.34961,8.724609 h -2.49023 l -1.56446,-5.683594 -1.52343,5.683594 h -2.49024 L 790.9082,56.56543 h 2.34961 l 1.3418,6.005859 1.60547,-6.005859 h 2.24414 l 1.5293,6.005859 1.40625,-6.005859 z m 9.5625,8.724609 h -2.32617 l -0.60352,-1.763672 h -3.23437 l -0.60352,1.763672 h -2.26758 l 3.22266,-8.724609 h 2.58984 z m -3.47461,-3.363281 -1.07226,-3.128906 -1.07227,3.128906 z m 9.6211,-2.689453 q 0,-0.328125 -0.13477,-0.5625 -0.13477,-0.234375 -0.46289,-0.369141 -0.22852,-0.09375 -0.5332,-0.111328 -0.30469,-0.02344 -0.70899,-0.02344 h -0.81445 v 2.34961 h 0.6914 q 0.53907,0 0.90235,-0.05273 0.36328,-0.05273 0.60937,-0.240234 0.23438,-0.181641 0.33985,-0.398437 0.11133,-0.222657 0.11133,-0.591797 z m 3.50976,6.052734 h -2.74805 l -2.3789,-3.199219 h -1.03711 v 3.199219 h -2.23828 V 56.56543 h 3.77343 q 0.77344,0 1.33008,0.08789 0.55664,0.08789 1.04297,0.38086 0.49219,0.292968 0.7793,0.761718 0.29297,0.462891 0.29297,1.166016 0,0.966797 -0.45117,1.576172 -0.44532,0.609375 -1.27735,1.013672 z m 7.27734,0 h -6.29296 V 56.56543 h 2.25 v 7.037109 h 4.04296 z m 5.63086,-3.351562 q 0,1.658203 -0.54492,3.052734 -0.53906,1.394531 -1.66406,2.712891 h -2.20898 V 67.53418 q 0.46875,-0.416016 0.91406,-0.978516 0.44531,-0.5625 0.79101,-1.259766 0.36328,-0.726562 0.57422,-1.541015 0.2168,-0.814453 0.2168,-1.816406 0,-0.960938 -0.22266,-1.810547 -0.21679,-0.84961 -0.56836,-1.546875 -0.36914,-0.726563 -0.80273,-1.265625 -0.42774,-0.544922 -0.90234,-0.972657 v -0.169921 h 2.20898 q 1.125,1.318359 1.66406,2.71289 0.54492,1.394531 0.54492,3.052735 z"
     id="text7"
     style="font-weight:bold;dominant-baseline:middle;fill:#e3e3e3"
     aria-label="(WARL)" />
  <path
     d="M 701.33602,108.24 V 90.72 h 1.944 l 6.24,10.56 h 0.048 l 6.24,-10.56 h 2.016 v 17.52 h -1.92 V 93.936 h -0.048 l -5.424,9.096 h -1.776 l -5.424,-9.096 h -0.048 v 14.304 z m 21.96001,-17.52 4.368,7.296 h 0.048 l 4.392,-7.296 h 2.16 l -5.376,8.64 5.496,8.88 h -2.256 l -4.464,-7.536 h -0.048 l -4.488,7.536 h -2.184 l 5.496,-8.88 -5.376,-8.64 z m 16.19999,0 v 15.888 h 8.568 v 1.632 h -10.56 V 90.72 Z m 13.96798,1.608 v 5.712 h 7.848 v 1.536 h -7.848 v 7.056 h 8.328 v 1.608 H 751.544 V 90.72 h 10.248 v 1.608 z m 12.168,15.912 V 90.72 h 1.992 l 9.12,14.4 h 0.048 v -14.4 h 1.872 v 17.52 h -1.968 l -9.12,-14.4 h -0.048 v 14.4 z"
     id="text8"
     style="font-size:24px;font-family:'M PLUS 1p', MPLUS1p-Regular, monospace;dominant-baseline:middle;text-anchor:middle;fill:#e3e3e3"
     aria-label="MXLEN" />
</svg>
