<?xml version="1.0" encoding="UTF-8" standalone="no"?>
<svg
   version="1.0"
   width="800"
   height="92"
   viewBox="0 0 800 92"
   id="svg6"
   xmlns="http://www.w3.org/2000/svg"
   xmlns:svg="http://www.w3.org/2000/svg">
  <defs
     id="defs6" />
  <path
     d="m 21.02,20.12 v -8.76 h 0.972 l 3.12,5.28 h 0.024 l 3.12,-5.28 h 1.008 v 8.76 h -0.96 V 12.968 H 28.28 l -2.712,4.548 H 24.68 l -2.712,-4.548 h -0.024 v 7.152 z m 10.980004,-8.76 2.184,3.648 h 0.024 l 2.196,-3.648 h 1.08 l -2.688,4.32 2.748,4.44 h -1.128 l -2.232,-3.768 h -0.024 l -2.244,3.768 h -1.092 l 2.748,-4.44 -2.688,-4.32 z m 8.099996,0 v 7.944 h 4.284 v 0.816 h -5.28 v -8.76 z m 6.983989,0.804 v 2.856 h 3.924 v 0.768 h -3.924 v 3.528 h 4.164 v 0.804 h -5.124 v -8.76 h 5.124 v 0.804 z m 6.083998,7.956 v -8.76 h 0.996 l 4.56,7.2 h 0.024 v -7.2 h 0.936 v 8.76 h -0.984 l -4.56,-7.2 h -0.024 v 7.2 z m 8.495992,-3.096 v -0.768 h 3.564 v 0.768 z m 8.256009,3.096 v -7.608 h -0.024 l -2.364,2.184 -0.372,-0.78 2.76,-2.556 h 0.96 v 8.76 z"
     id="text1"
     style="font-size:12px;font-family:'M PLUS 1p', MPLUS1p-Regular, monospace;dominant-baseline:middle;fill:#e3e3e3"
     aria-label="MXLEN-1" />
  <path
     d="m 776.26799,11.24 q 3.168,0 3.168,4.5 0,4.5 -3.168,4.5 -1.5,0 -2.328,-1.044 -0.828,-1.044 -0.828,-3.456 0,-2.412 0.828,-3.456 0.828,-1.044 2.328,-1.044 z m -1.656,7.344 q 0.552,0.876 1.656,0.876 1.104,0 1.656,-0.876 0.552,-0.888 0.552,-2.844 0,-1.956 -0.552,-2.832 -0.552,-0.888 -1.656,-0.888 -1.104,0 -1.656,0.888 -0.54,0.876 -0.54,2.832 0,1.956 0.54,2.844 z"
     id="text2"
     style="font-size:12px;font-family:'M PLUS 1p', MPLUS1p-Regular, monospace;dominant-baseline:middle;text-anchor:end;fill:#e3e3e3"
     aria-label="0" />
  <line
     x1="16"
     y1="31"
     x2="784"
     y2="31"
     stroke="#E3E3E3"
     stroke-width="1"
     id="line2" />
  <line
     x1="16"
     y1="61"
     x2="784"
     y2="61"
     stroke="#E3E3E3"
     stroke-width="1"
     id="line3" />
  <line
     x1="784"
     y1="31"
     x2="784"
     y2="61"
     stroke="#E3E3E3"
     stroke-width="1"
     id="line4" />
  <line
     x1="16"
     y1="31"
     x2="16"
     y2="61"
     stroke="#E3E3E3"
     stroke-width="1"
     id="line5" />
  <path
     d="m 374.72803,43.88 h 0.84 l 0.012,1.032 h 0.024 q 0.66,-1.152 1.644,-1.152 1.2,0 1.68,1.2 h 0.024 q 0.636,-1.2 1.812,-1.2 0.972,0 1.428,0.576 0.456,0.564 0.456,1.824 v 3.96 h -0.864 V 46.4 q 0,-1.092 -0.276,-1.5 -0.276,-0.42 -0.936,-0.42 -0.576,0 -1.008,0.576 -0.432,0.576 -0.432,1.404 v 3.66 h -0.864 V 46.4 q 0,-1.08 -0.288,-1.5 -0.276,-0.42 -0.936,-0.42 -0.54,0 -0.996,0.636 -0.444,0.624 -0.444,1.5 v 3.504 h -0.876 z m 11.724,-0.12 q 1.14,0 2.112,0.48 l -0.192,0.708 q -0.924,-0.468 -1.92,-0.468 -0.696,0 -1.068,0.252 -0.36,0.252 -0.36,0.708 0,0.432 0.312,0.684 0.324,0.252 1.164,0.396 1.224,0.204 1.752,0.672 0.54,0.468 0.54,1.284 0,0.816 -0.624,1.296 -0.612,0.468 -1.716,0.468 -1.284,0 -2.304,-0.6 l 0.204,-0.708 q 0.984,0.588 2.1,0.588 0.696,0 1.068,-0.264 0.372,-0.276 0.372,-0.78 0,-0.48 -0.336,-0.744 -0.324,-0.264 -1.152,-0.408 -1.188,-0.204 -1.728,-0.648 -0.528,-0.456 -0.528,-1.236 0,-0.768 0.6,-1.224 0.612,-0.456 1.704,-0.456 z m 6.636,0.732 q -1.056,0 -1.644,0.66 -0.588,0.648 -0.588,1.848 0,1.152 0.612,1.836 0.624,0.684 1.62,0.684 0.84,0 1.608,-0.408 l 0.24,0.708 q -0.9,0.42 -1.884,0.42 -1.392,0 -2.256,-0.876 -0.864,-0.888 -0.864,-2.364 0,-1.524 0.828,-2.376 0.828,-0.864 2.292,-0.864 0.984,0 1.884,0.42 l -0.24,0.732 q -0.804,-0.42 -1.608,-0.42 z m 3.52799,-0.612 h 0.852 l 0.024,1.332 h 0.024 q 1.056,-1.452 2.976,-1.452 v 0.756 q -1.332,0 -2.16,0.732 -0.816,0.732 -0.816,1.896 v 2.976 h -0.9 z m 7.35598,-0.12 q 1.308,0 1.872,0.54 0.564,0.54 0.564,1.776 v 2.364 q 0,0.852 0.18,1.68 h -0.84 q -0.096,-0.468 -0.12,-1.104 h -0.024 q -0.324,0.576 -0.936,0.9 -0.612,0.324 -1.38,0.324 -0.864,0 -1.38,-0.48 -0.516,-0.492 -0.516,-1.32 0,-1.044 0.912,-1.656 0.912,-0.624 2.592,-0.624 h 0.636 V 46.1 q 0,-0.912 -0.348,-1.26 -0.336,-0.36 -1.212,-0.36 -1.128,0 -2.1,0.552 l -0.156,-0.708 q 1.032,-0.564 2.256,-0.564 z m -1.716,4.644 q 0,0.54 0.336,0.852 0.336,0.3 0.9,0.3 0.828,0 1.428,-0.588 0.612,-0.6 0.612,-1.464 v -0.672 h -0.636 q -1.26,0 -1.956,0.432 -0.684,0.42 -0.684,1.14 z m 7.632,-6.564 v 2.28 h 2.364 v 0.72 h -2.364 v 3.276 q 0,0.84 0.228,1.128 0.228,0.276 0.852,0.276 0.552,0 1.056,-0.204 l 0.144,0.708 q -0.612,0.216 -1.32,0.216 -1.02,0 -1.44,-0.432 -0.42,-0.444 -0.42,-1.524 V 44.84 h -1.38 v -0.72 h 1.38 v -2.28 z m 6.77998,2.652 q -1.056,0 -1.644,0.66 -0.588,0.648 -0.588,1.848 0,1.152 0.612,1.836 0.624,0.684 1.62,0.684 0.84,0 1.608,-0.408 l 0.24,0.708 q -0.9,0.42 -1.884,0.42 -1.392,0 -2.256,-0.876 -0.864,-0.888 -0.864,-2.364 0,-1.524 0.828,-2.376 0.828,-0.864 2.292,-0.864 0.984,0 1.884,0.42 l -0.24,0.732 q -0.804,-0.42 -1.608,-0.42 z m 3.58799,-3.372 h 0.876 v 3.828 h 0.024 q 0.792,-1.188 2.1,-1.188 1.056,0 1.56,0.66 0.516,0.648 0.516,2.064 v 3.636 h -0.864 v -3.564 q 0,-1.164 -0.336,-1.608 -0.336,-0.456 -1.152,-0.456 -0.72,0 -1.284,0.708 -0.564,0.696 -0.564,1.584 v 3.336 h -0.876 z"
     id="text5"
     style="font-size:12px;font-family:'M PLUS 1p', MPLUS1p-Regular, monospace;dominant-baseline:middle;text-anchor:middle;fill:#e3e3e3"
     aria-label="mscratch" />
  <path
     d="m 380.66801,80.12 v -8.76 h 0.972 l 3.12,5.28 h 0.024 l 3.12,-5.28 h 1.008 v 8.76 h -0.96 v -7.152 h -0.024 l -2.712,4.548 h -0.888 l -2.712,-4.548 h -0.024 v 7.152 z m 10.98,-8.76 2.184,3.648 h 0.024 l 2.196,-3.648 h 1.08 l -2.688,4.32 2.748,4.44 h -1.128 l -2.232,-3.768 h -0.024 l -2.244,3.768 h -1.092 l 2.748,-4.44 -2.688,-4.32 z m 8.1,0 v 7.944 h 4.284 v 0.816 h -5.28 v -8.76 z m 6.98399,0.804 v 2.856 h 3.924 v 0.768 h -3.924 v 3.528 h 4.164 v 0.804 h -5.124 v -8.76 h 5.124 v 0.804 z m 6.084,7.956 v -8.76 h 0.996 l 4.56,7.2 h 0.024 v -7.2 h 0.936 v 8.76 h -0.984 l -4.56,-7.2 h -0.024 v 7.2 z"
     id="text6"
     style="font-size:12px;font-family:'M PLUS 1p', MPLUS1p-Regular, monospace;dominant-baseline:middle;text-anchor:middle;fill:#e3e3e3"
     aria-label="MXLEN" />
</svg>
