<?xml version="1.0" encoding="UTF-8" standalone="no"?>
<svg
   version="1.0"
   width="1680"
   height="108"
   viewBox="0 0 1680 108"
   id="svg36"
   xmlns="http://www.w3.org/2000/svg"
   xmlns:svg="http://www.w3.org/2000/svg">
  <defs
     id="defs36" />
  <text
     fill="#e3e3e3"
     font-size="24px"
     x="220"
     y="14"
     font-family="'M PLUS 1p', MPLUS1p-Regular, monospace"
     dominant-baseline="middle"
     text-anchor="middle"
     id="text1" />
  <path
     d="M 208.412,20.24 V 2.7199998 h 1.944 L 216.596,13.28 h 0.048 l 6.24,-10.5600002 H 224.9 V 20.24 h -1.92 V 5.9359998 h -0.048 L 217.508,15.032 h -1.776 L 210.308,5.9359998 H 210.26 V 20.24 Z m 21.96001,-17.5200002 4.368,7.2960002 h 0.048 l 4.392,-7.2960002 h 2.16 l -5.376,8.6400002 5.496,8.88 h -2.256 l -4.464,-7.536 h -0.048 l -4.488,7.536 h -2.184 l 5.496,-8.88 -5.376,-8.6400002 z m 16.19999,0 V 18.608 h 8.568 V 20.24 H 244.58 V 2.7199998 Z m 13.96798,1.608 V 10.04 h 7.848 v 1.536 h -7.848 v 7.056 h 8.328 v 1.608 h -10.248 V 2.7199998 h 10.248 v 1.608 z M 272.70798,20.24 V 2.7199998 h 1.992 l 9.12,14.4000002 h 0.048 V 2.7199998 h 1.872 V 20.24 h -1.968 l -9.12,-14.4000002 h -0.048 V 20.24 Z m 16.99198,-6.192 v -1.536 h 7.128 v 1.536 z m 16.51202,6.192 V 5.0239998 h -0.048 l -4.728,4.368 -0.744,-1.56 5.52,-5.112 h 1.92 V 20.24 Z"
     id="text2"
     style="font-size:24px;font-family:'M PLUS 1p', MPLUS1p-Regular, monospace;dominant-baseline:middle;text-anchor:middle;fill:#e3e3e3"
     aria-label="MXLEN-1" />
  <text
     fill="#e3e3e3"
     font-size="24px"
     x="300"
     y="14"
     font-family="'M PLUS 1p', MPLUS1p-Regular, monospace"
     dominant-baseline="middle"
     text-anchor="middle"
     id="text3" />
  <text
     fill="#e3e3e3"
     font-size="24px"
     x="340"
     y="14"
     font-family="'M PLUS 1p', MPLUS1p-Regular, monospace"
     dominant-baseline="middle"
     text-anchor="middle"
     id="text4" />
  <text
     fill="#e3e3e3"
     font-size="24px"
     x="380"
     y="14"
     font-family="'M PLUS 1p', MPLUS1p-Regular, monospace"
     dominant-baseline="middle"
     text-anchor="middle"
     id="text5" />
  <text
     fill="#e3e3e3"
     font-size="24px"
     x="420"
     y="14"
     font-family="'M PLUS 1p', MPLUS1p-Regular, monospace"
     dominant-baseline="middle"
     text-anchor="middle"
     id="text6" />
  <text
     fill="#e3e3e3"
     font-size="24px"
     x="460"
     y="14"
     font-family="'M PLUS 1p', MPLUS1p-Regular, monospace"
     dominant-baseline="middle"
     text-anchor="middle"
     id="text7" />
  <text
     fill="#e3e3e3"
     font-size="24px"
     x="500"
     y="14"
     font-family="'M PLUS 1p', MPLUS1p-Regular, monospace"
     dominant-baseline="middle"
     text-anchor="middle"
     id="text8" />
  <text
     fill="#e3e3e3"
     font-size="24px"
     x="540"
     y="14"
     font-family="'M PLUS 1p', MPLUS1p-Regular, monospace"
     dominant-baseline="middle"
     text-anchor="middle"
     id="text9" />
  <text
     fill="#e3e3e3"
     font-size="24px"
     x="580"
     y="14"
     font-family="'M PLUS 1p', MPLUS1p-Regular, monospace"
     dominant-baseline="middle"
     text-anchor="middle"
     id="text10" />
  <text
     fill="#e3e3e3"
     font-size="24px"
     x="620"
     y="14"
     font-family="'M PLUS 1p', MPLUS1p-Regular, monospace"
     dominant-baseline="middle"
     text-anchor="middle"
     id="text11" />
  <text
     fill="#e3e3e3"
     font-size="24px"
     x="660"
     y="14"
     font-family="'M PLUS 1p', MPLUS1p-Regular, monospace"
     dominant-baseline="middle"
     text-anchor="middle"
     id="text12" />
  <text
     fill="#e3e3e3"
     font-size="24px"
     x="700"
     y="14"
     font-family="'M PLUS 1p', MPLUS1p-Regular, monospace"
     dominant-baseline="middle"
     text-anchor="middle"
     id="text13" />
  <text
     fill="#e3e3e3"
     font-size="24px"
     x="740"
     y="14"
     font-family="'M PLUS 1p', MPLUS1p-Regular, monospace"
     dominant-baseline="middle"
     text-anchor="middle"
     id="text14" />
  <text
     fill="#e3e3e3"
     font-size="24px"
     x="780"
     y="14"
     font-family="'M PLUS 1p', MPLUS1p-Regular, monospace"
     dominant-baseline="middle"
     text-anchor="middle"
     id="text15" />
  <text
     fill="#e3e3e3"
     font-size="24px"
     x="820"
     y="14"
     font-family="'M PLUS 1p', MPLUS1p-Regular, monospace"
     dominant-baseline="middle"
     text-anchor="middle"
     id="text16" />
  <text
     fill="#e3e3e3"
     font-size="24px"
     x="860"
     y="14"
     font-family="'M PLUS 1p', MPLUS1p-Regular, monospace"
     dominant-baseline="middle"
     text-anchor="middle"
     id="text17" />
  <text
     fill="#e3e3e3"
     font-size="24px"
     x="900"
     y="14"
     font-family="'M PLUS 1p', MPLUS1p-Regular, monospace"
     dominant-baseline="middle"
     text-anchor="middle"
     id="text18" />
  <text
     fill="#e3e3e3"
     font-size="24px"
     x="940"
     y="14"
     font-family="'M PLUS 1p', MPLUS1p-Regular, monospace"
     dominant-baseline="middle"
     text-anchor="middle"
     id="text19" />
  <text
     fill="#e3e3e3"
     font-size="24px"
     x="980"
     y="14"
     font-family="'M PLUS 1p', MPLUS1p-Regular, monospace"
     dominant-baseline="middle"
     text-anchor="middle"
     id="text20" />
  <text
     fill="#e3e3e3"
     font-size="24px"
     x="1020"
     y="14"
     font-family="'M PLUS 1p', MPLUS1p-Regular, monospace"
     dominant-baseline="middle"
     text-anchor="middle"
     id="text21" />
  <text
     fill="#e3e3e3"
     font-size="24px"
     x="1060"
     y="14"
     font-family="'M PLUS 1p', MPLUS1p-Regular, monospace"
     dominant-baseline="middle"
     text-anchor="middle"
     id="text22" />
  <text
     fill="#e3e3e3"
     font-size="24px"
     x="1100"
     y="14"
     font-family="'M PLUS 1p', MPLUS1p-Regular, monospace"
     dominant-baseline="middle"
     text-anchor="middle"
     id="text23" />
  <text
     fill="#e3e3e3"
     font-size="24px"
     x="1140"
     y="14"
     font-family="'M PLUS 1p', MPLUS1p-Regular, monospace"
     dominant-baseline="middle"
     text-anchor="middle"
     id="text24" />
  <text
     fill="#e3e3e3"
     font-size="24px"
     x="1180"
     y="14"
     font-family="'M PLUS 1p', MPLUS1p-Regular, monospace"
     dominant-baseline="middle"
     text-anchor="middle"
     id="text25" />
  <text
     fill="#e3e3e3"
     font-size="24px"
     x="1220"
     y="14"
     font-family="'M PLUS 1p', MPLUS1p-Regular, monospace"
     dominant-baseline="middle"
     text-anchor="middle"
     id="text26" />
  <text
     fill="#e3e3e3"
     font-size="24px"
     x="1260"
     y="14"
     font-family="'M PLUS 1p', MPLUS1p-Regular, monospace"
     dominant-baseline="middle"
     text-anchor="middle"
     id="text27" />
  <text
     fill="#e3e3e3"
     font-size="24px"
     x="1300"
     y="14"
     font-family="'M PLUS 1p', MPLUS1p-Regular, monospace"
     dominant-baseline="middle"
     text-anchor="middle"
     id="text28" />
  <text
     fill="#e3e3e3"
     font-size="24px"
     x="1340"
     y="14"
     font-family="'M PLUS 1p', MPLUS1p-Regular, monospace"
     dominant-baseline="middle"
     text-anchor="middle"
     id="text29" />
  <text
     fill="#e3e3e3"
     font-size="24px"
     x="1380"
     y="14"
     font-family="'M PLUS 1p', MPLUS1p-Regular, monospace"
     dominant-baseline="middle"
     text-anchor="middle"
     id="text30" />
  <text
     fill="#e3e3e3"
     font-size="24px"
     x="1420"
     y="14"
     font-family="'M PLUS 1p', MPLUS1p-Regular, monospace"
     dominant-baseline="middle"
     text-anchor="middle"
     id="text31" />
  <path
     d="m 1459.976,2.4799998 q 6.336,0 6.336,9.0000002 0,9 -6.336,9 -3,0 -4.656,-2.088 -1.656,-2.088 -1.656,-6.912 0,-4.8240002 1.656,-6.9120002 1.656,-2.088 4.656,-2.088 z M 1456.664,17.168 q 1.104,1.752 3.312,1.752 2.208,0 3.312,-1.752 1.104,-1.776 1.104,-5.688 0,-3.9120002 -1.104,-5.6640002 -1.104,-1.776 -3.312,-1.776 -2.208,0 -3.312,1.776 -1.08,1.752 -1.08,5.6640002 0,3.912 1.08,5.688 z"
     id="text32"
     style="font-size:24px;font-family:'M PLUS 1p', MPLUS1p-Regular, monospace;dominant-baseline:middle;text-anchor:middle;fill:#e3e3e3"
     aria-label="0" />
  <line
     x1="200"
     y1="27"
     x2="1480"
     y2="27"
     stroke="#E3E3E3"
     stroke-width="1"
     id="line32" />
  <line
     x1="200"
     y1="67"
     x2="1480"
     y2="67"
     stroke="#E3E3E3"
     stroke-width="1"
     id="line33" />
  <line
     x1="1480"
     y1="27"
     x2="1480"
     y2="67"
     stroke="#E3E3E3"
     stroke-width="1"
     id="line34" />
  <line
     x1="200"
     y1="27"
     x2="200"
     y2="67"
     stroke="#E3E3E3"
     stroke-width="1"
     id="line35" />
  <path
     d="m 809.41203,41.76 h 1.68 l 0.024,2.064 h 0.048 q 1.32,-2.304 3.288,-2.304 2.4,0 3.36,2.4 h 0.048 q 1.272,-2.4 3.624,-2.4 1.944,0 2.856,1.152 0.912,1.128 0.912,3.648 v 7.92 h -1.728 V 46.8 q 0,-2.184 -0.552,-3 -0.552,-0.84 -1.872,-0.84 -1.152,0 -2.016,1.152 -0.864,1.152 -0.864,2.808 v 7.32 h -1.728 V 46.8 q 0,-2.16 -0.576,-3 -0.552,-0.84 -1.872,-0.84 -1.08,0 -1.992,1.272 -0.888,1.248 -0.888,3 v 7.008 h -1.752 z m 22.8,-4.08 v 4.56 h 4.728 v 1.44 h -4.728 v 6.552 q 0,1.68 0.456,2.256 0.456,0.552 1.704,0.552 1.104,0 2.112,-0.408 l 0.288,1.416 q -1.224,0.432 -2.64,0.432 -2.04,0 -2.88,-0.864 -0.84,-0.888 -0.84,-3.048 V 43.68 h -2.76 v -1.44 h 2.76 v -4.56 z m 9.33598,4.08 3.888,11.4 h 0.048 l 3.864,-11.4 h 1.92 l -4.608,12.48 h -2.472 l -4.608,-12.48 z m 16.67997,-0.24 q 2.616,0 3.744,1.08 1.128,1.08 1.128,3.552 v 4.728 q 0,1.704 0.36,3.36 h -1.68 q -0.192,-0.936 -0.24,-2.208 h -0.048 q -0.648,1.152 -1.872,1.8 -1.224,0.648 -2.76,0.648 -1.728,0 -2.76,-0.96 -1.032,-0.984 -1.032,-2.64 0,-2.088 1.824,-3.312 1.824,-1.248 5.184,-1.248 h 1.272 V 46.2 q 0,-1.824 -0.696,-2.52 -0.672,-0.72 -2.424,-0.72 -2.256,0 -4.2,1.104 l -0.312,-1.416 q 2.064,-1.128 4.512,-1.128 z m -3.432,9.288 q 0,1.08 0.672,1.704 0.672,0.6 1.8,0.6 1.656,0 2.856,-1.176 1.224,-1.2 1.224,-2.928 v -1.344 h -1.272 q -2.52,0 -3.912,0.864 -1.368,0.84 -1.368,2.28 z m 12.98401,3.432 v -18 h 1.848 v 18 z"
     id="text35"
     style="font-size:24px;font-family:'M PLUS 1p', MPLUS1p-Regular, monospace;dominant-baseline:middle;text-anchor:middle;fill:#e3e3e3"
     aria-label="mtval" />
  <path
     d="M 801.33602,94.24 V 76.72 h 1.944 l 6.24,10.56 h 0.048 l 6.24,-10.56 h 2.016 v 17.52 h -1.92 V 79.936 h -0.048 l -5.424,9.096 h -1.776 l -5.424,-9.096 h -0.048 V 94.24 Z m 21.96001,-17.52 4.368,7.296 h 0.048 l 4.392,-7.296 h 2.16 l -5.376,8.64 5.496,8.88 h -2.256 l -4.464,-7.536 h -0.048 l -4.488,7.536 h -2.184 l 5.496,-8.88 -5.376,-8.64 z m 16.19999,0 v 15.888 h 8.568 v 1.632 h -10.56 V 76.72 Z m 13.96798,1.608 v 5.712 h 7.848 v 1.536 h -7.848 v 7.056 h 8.328 V 94.24 H 851.544 V 76.72 h 10.248 v 1.608 z M 865.632,94.24 V 76.72 h 1.992 l 9.12,14.4 h 0.048 v -14.4 h 1.872 v 17.52 h -1.968 l -9.12,-14.4 h -0.048 v 14.4 z"
     id="text36"
     style="font-size:24px;font-family:'M PLUS 1p', MPLUS1p-Regular, monospace;dominant-baseline:middle;text-anchor:middle;fill:#e3e3e3"
     aria-label="MXLEN" />
</svg>
