<?xml version="1.0" encoding="UTF-8" standalone="no"?>
<svg
   version="1.0"
   width="800"
   height="88"
   viewBox="0 0 800 88"
   id="svg36"
   xmlns="http://www.w3.org/2000/svg"
   xmlns:svg="http://www.w3.org/2000/svg">
  <defs
     id="defs36" />
  <text
     fill="#e3e3e3"
     font-size="12px"
     x="28"
     y="14"
     font-family="'M PLUS 1p', MPLUS1p-Regular, monospace"
     dominant-baseline="middle"
     text-anchor="middle"
     id="text1" />
  <path
     d="M 26.206001,17.12 V 8.3599999 h 0.972 l 3.12,5.2800001 h 0.024 l 3.12,-5.2800001 h 1.008 V 17.12 h -0.96 V 9.9679999 h -0.024 l -2.712,4.5480001 h -0.888 l -2.712,-4.5480001 h -0.024 V 17.12 Z m 10.980004,-8.7600001 2.184,3.6480001 h 0.024 l 2.196,-3.6480001 h 1.08 l -2.688,4.3200001 2.748,4.44 h -1.128 l -2.232,-3.768 h -0.024 l -2.244,3.768 h -1.092 l 2.748,-4.44 -2.688,-4.3200001 z m 8.099995,0 V 16.304 H 49.57 V 17.12 H 44.29 V 8.3599999 Z m 6.983989,0.804 V 12.02 h 3.924 v 0.768 h -3.924 v 3.528 h 4.164 v 0.804 h -5.124 V 8.3599999 h 5.124 v 0.804 z M 58.353988,17.12 V 8.3599999 h 0.996 l 4.56,7.2000001 h 0.024 V 8.3599999 h 0.936 V 17.12 h -0.984 l -4.56,-7.2000001 h -0.024 V 17.12 Z m 8.495992,-3.096 v -0.768 h 3.564 v 0.768 z m 8.256009,3.096 V 9.5119999 h -0.024 l -2.364,2.1840001 -0.372,-0.78 2.76,-2.5560001 h 0.96 V 17.12 Z"
     id="text2"
     style="font-size:12px;font-family:'M PLUS 1p', MPLUS1p-Regular, monospace;dominant-baseline:middle;text-anchor:middle;fill:#e3e3e3"
     aria-label="MXLEN-1" />
  <text
     fill="#e3e3e3"
     font-size="12px"
     x="76"
     y="14"
     font-family="'M PLUS 1p', MPLUS1p-Regular, monospace"
     dominant-baseline="middle"
     text-anchor="middle"
     id="text3" />
  <text
     fill="#e3e3e3"
     font-size="12px"
     x="100"
     y="14"
     font-family="'M PLUS 1p', MPLUS1p-Regular, monospace"
     dominant-baseline="middle"
     text-anchor="middle"
     id="text4" />
  <text
     fill="#e3e3e3"
     font-size="12px"
     x="124"
     y="14"
     font-family="'M PLUS 1p', MPLUS1p-Regular, monospace"
     dominant-baseline="middle"
     text-anchor="middle"
     id="text5" />
  <text
     fill="#e3e3e3"
     font-size="12px"
     x="148"
     y="14"
     font-family="'M PLUS 1p', MPLUS1p-Regular, monospace"
     dominant-baseline="middle"
     text-anchor="middle"
     id="text6" />
  <text
     fill="#e3e3e3"
     font-size="12px"
     x="172"
     y="14"
     font-family="'M PLUS 1p', MPLUS1p-Regular, monospace"
     dominant-baseline="middle"
     text-anchor="middle"
     id="text7" />
  <text
     fill="#e3e3e3"
     font-size="12px"
     x="196"
     y="14"
     font-family="'M PLUS 1p', MPLUS1p-Regular, monospace"
     dominant-baseline="middle"
     text-anchor="middle"
     id="text8" />
  <text
     fill="#e3e3e3"
     font-size="12px"
     x="220"
     y="14"
     font-family="'M PLUS 1p', MPLUS1p-Regular, monospace"
     dominant-baseline="middle"
     text-anchor="middle"
     id="text9" />
  <text
     fill="#e3e3e3"
     font-size="12px"
     x="244"
     y="14"
     font-family="'M PLUS 1p', MPLUS1p-Regular, monospace"
     dominant-baseline="middle"
     text-anchor="middle"
     id="text10" />
  <text
     fill="#e3e3e3"
     font-size="12px"
     x="268"
     y="14"
     font-family="'M PLUS 1p', MPLUS1p-Regular, monospace"
     dominant-baseline="middle"
     text-anchor="middle"
     id="text11" />
  <text
     fill="#e3e3e3"
     font-size="12px"
     x="292"
     y="14"
     font-family="'M PLUS 1p', MPLUS1p-Regular, monospace"
     dominant-baseline="middle"
     text-anchor="middle"
     id="text12" />
  <text
     fill="#e3e3e3"
     font-size="12px"
     x="316"
     y="14"
     font-family="'M PLUS 1p', MPLUS1p-Regular, monospace"
     dominant-baseline="middle"
     text-anchor="middle"
     id="text13" />
  <text
     fill="#e3e3e3"
     font-size="12px"
     x="340"
     y="14"
     font-family="'M PLUS 1p', MPLUS1p-Regular, monospace"
     dominant-baseline="middle"
     text-anchor="middle"
     id="text14" />
  <text
     fill="#e3e3e3"
     font-size="12px"
     x="364"
     y="14"
     font-family="'M PLUS 1p', MPLUS1p-Regular, monospace"
     dominant-baseline="middle"
     text-anchor="middle"
     id="text15" />
  <text
     fill="#e3e3e3"
     font-size="12px"
     x="388"
     y="14"
     font-family="'M PLUS 1p', MPLUS1p-Regular, monospace"
     dominant-baseline="middle"
     text-anchor="middle"
     id="text16" />
  <text
     fill="#e3e3e3"
     font-size="12px"
     x="412"
     y="14"
     font-family="'M PLUS 1p', MPLUS1p-Regular, monospace"
     dominant-baseline="middle"
     text-anchor="middle"
     id="text17" />
  <text
     fill="#e3e3e3"
     font-size="12px"
     x="436"
     y="14"
     font-family="'M PLUS 1p', MPLUS1p-Regular, monospace"
     dominant-baseline="middle"
     text-anchor="middle"
     id="text18" />
  <text
     fill="#e3e3e3"
     font-size="12px"
     x="460"
     y="14"
     font-family="'M PLUS 1p', MPLUS1p-Regular, monospace"
     dominant-baseline="middle"
     text-anchor="middle"
     id="text19" />
  <text
     fill="#e3e3e3"
     font-size="12px"
     x="484"
     y="14"
     font-family="'M PLUS 1p', MPLUS1p-Regular, monospace"
     dominant-baseline="middle"
     text-anchor="middle"
     id="text20" />
  <text
     fill="#e3e3e3"
     font-size="12px"
     x="508"
     y="14"
     font-family="'M PLUS 1p', MPLUS1p-Regular, monospace"
     dominant-baseline="middle"
     text-anchor="middle"
     id="text21" />
  <text
     fill="#e3e3e3"
     font-size="12px"
     x="532"
     y="14"
     font-family="'M PLUS 1p', MPLUS1p-Regular, monospace"
     dominant-baseline="middle"
     text-anchor="middle"
     id="text22" />
  <text
     fill="#e3e3e3"
     font-size="12px"
     x="556"
     y="14"
     font-family="'M PLUS 1p', MPLUS1p-Regular, monospace"
     dominant-baseline="middle"
     text-anchor="middle"
     id="text23" />
  <text
     fill="#e3e3e3"
     font-size="12px"
     x="580"
     y="14"
     font-family="'M PLUS 1p', MPLUS1p-Regular, monospace"
     dominant-baseline="middle"
     text-anchor="middle"
     id="text24" />
  <text
     fill="#e3e3e3"
     font-size="12px"
     x="604"
     y="14"
     font-family="'M PLUS 1p', MPLUS1p-Regular, monospace"
     dominant-baseline="middle"
     text-anchor="middle"
     id="text25" />
  <text
     fill="#e3e3e3"
     font-size="12px"
     x="628"
     y="14"
     font-family="'M PLUS 1p', MPLUS1p-Regular, monospace"
     dominant-baseline="middle"
     text-anchor="middle"
     id="text26" />
  <text
     fill="#e3e3e3"
     font-size="12px"
     x="652"
     y="14"
     font-family="'M PLUS 1p', MPLUS1p-Regular, monospace"
     dominant-baseline="middle"
     text-anchor="middle"
     id="text27" />
  <text
     fill="#e3e3e3"
     font-size="12px"
     x="676"
     y="14"
     font-family="'M PLUS 1p', MPLUS1p-Regular, monospace"
     dominant-baseline="middle"
     text-anchor="middle"
     id="text28" />
  <text
     fill="#e3e3e3"
     font-size="12px"
     x="700"
     y="14"
     font-family="'M PLUS 1p', MPLUS1p-Regular, monospace"
     dominant-baseline="middle"
     text-anchor="middle"
     id="text29" />
  <text
     fill="#e3e3e3"
     font-size="12px"
     x="724"
     y="14"
     font-family="'M PLUS 1p', MPLUS1p-Regular, monospace"
     dominant-baseline="middle"
     text-anchor="middle"
     id="text30" />
  <text
     fill="#e3e3e3"
     font-size="12px"
     x="748"
     y="14"
     font-family="'M PLUS 1p', MPLUS1p-Regular, monospace"
     dominant-baseline="middle"
     text-anchor="middle"
     id="text31" />
  <path
     d="m 771.98799,8.2399999 q 3.168,0 3.168,4.5000001 0,4.5 -3.168,4.5 -1.5,0 -2.328,-1.044 -0.828,-1.044 -0.828,-3.456 0,-2.412 0.828,-3.4560001 0.828,-1.044 2.328,-1.044 z m -1.656,7.3440001 q 0.552,0.876 1.656,0.876 1.104,0 1.656,-0.876 0.552,-0.888 0.552,-2.844 0,-1.956 -0.552,-2.8320001 -0.552,-0.888 -1.656,-0.888 -1.104,0 -1.656,0.888 -0.54,0.8760001 -0.54,2.8320001 0,1.956 0.54,2.844 z"
     id="text32"
     style="font-size:12px;font-family:'M PLUS 1p', MPLUS1p-Regular, monospace;dominant-baseline:middle;text-anchor:middle;fill:#e3e3e3"
     aria-label="0" />
  <line
     x1="16"
     y1="27"
     x2="784"
     y2="27"
     stroke="#E3E3E3"
     stroke-width="1"
     id="line32" />
  <line
     x1="16"
     y1="57"
     x2="784"
     y2="57"
     stroke="#E3E3E3"
     stroke-width="1"
     id="line33" />
  <line
     x1="784"
     y1="27"
     x2="784"
     y2="57"
     stroke="#E3E3E3"
     stroke-width="1"
     id="line34" />
  <line
     x1="16"
     y1="27"
     x2="16"
     y2="57"
     stroke="#E3E3E3"
     stroke-width="1"
     id="line35" />
  <path
     d="m 384.70602,39.88 h 0.84 l 0.012,1.032 h 0.024 q 0.66,-1.152 1.644,-1.152 1.2,0 1.68,1.2 h 0.024 q 0.636,-1.2 1.812,-1.2 0.972,0 1.428,0.576 0.456,0.564 0.456,1.824 v 3.96 h -0.864 V 42.4 q 0,-1.092 -0.276,-1.5 -0.276,-0.42 -0.936,-0.42 -0.576,0 -1.008,0.576 -0.432,0.576 -0.432,1.404 v 3.66 h -0.864 V 42.4 q 0,-1.08 -0.288,-1.5 -0.276,-0.42 -0.936,-0.42 -0.54,0 -0.996,0.636 -0.444,0.624 -0.444,1.5 v 3.504 h -0.876 z m 11.39999,-2.04 v 2.28 h 2.364 v 0.72 h -2.364 v 3.276 q 0,0.84 0.228,1.128 0.228,0.276 0.852,0.276 0.552,0 1.056,-0.204 l 0.144,0.708 q -0.612,0.216 -1.32,0.216 -1.02,0 -1.44,-0.432 -0.42,-0.444 -0.42,-1.524 V 40.84 h -1.38 v -0.72 h 1.38 v -2.28 z m 4.66799,2.04 1.944,5.7 h 0.024 l 1.932,-5.7 h 0.96 l -2.304,6.24 h -1.236 l -2.304,-6.24 z m 8.33999,-0.12 q 1.308,0 1.872,0.54 0.564,0.54 0.564,1.776 v 2.364 q 0,0.852 0.18,1.68 h -0.84 q -0.096,-0.468 -0.12,-1.104 h -0.024 q -0.324,0.576 -0.936,0.9 -0.612,0.324 -1.38,0.324 -0.864,0 -1.38,-0.48 -0.516,-0.492 -0.516,-1.32 0,-1.044 0.912,-1.656 0.912,-0.624 2.592,-0.624 h 0.636 V 42.1 q 0,-0.912 -0.348,-1.26 -0.336,-0.36 -1.212,-0.36 -1.128,0 -2.1,0.552 l -0.156,-0.708 q 1.032,-0.564 2.256,-0.564 z m -1.716,4.644 q 0,0.54 0.336,0.852 0.336,0.3 0.9,0.3 0.828,0 1.428,-0.588 0.612,-0.6 0.612,-1.464 v -0.672 h -0.636 q -1.26,0 -1.956,0.432 -0.684,0.42 -0.684,1.14 z m 6.492,1.716 v -9 h 0.924 v 9 z"
     id="text35"
     style="font-size:12px;font-family:'M PLUS 1p', MPLUS1p-Regular, monospace;dominant-baseline:middle;text-anchor:middle;fill:#e3e3e3"
     aria-label="mtval" />
  <path
     d="m 380.66801,76.12 v -8.76 h 0.972 l 3.12,5.28 h 0.024 l 3.12,-5.28 h 1.008 v 8.76 h -0.96 v -7.152 h -0.024 l -2.712,4.548 h -0.888 l -2.712,-4.548 h -0.024 v 7.152 z m 10.98,-8.76 2.184,3.648 h 0.024 l 2.196,-3.648 h 1.08 l -2.688,4.32 2.748,4.44 h -1.128 l -2.232,-3.768 h -0.024 l -2.244,3.768 h -1.092 l 2.748,-4.44 -2.688,-4.32 z m 8.1,0 v 7.944 h 4.284 v 0.816 h -5.28 v -8.76 z m 6.98399,0.804 v 2.856 h 3.924 v 0.768 h -3.924 v 3.528 h 4.164 v 0.804 h -5.124 v -8.76 h 5.124 v 0.804 z m 6.084,7.956 v -8.76 h 0.996 l 4.56,7.2 h 0.024 v -7.2 h 0.936 v 8.76 h -0.984 l -4.56,-7.2 h -0.024 v 7.2 z"
     id="text36"
     style="font-size:12px;font-family:'M PLUS 1p', MPLUS1p-Regular, monospace;dominant-baseline:middle;text-anchor:middle;fill:#e3e3e3"
     aria-label="MXLEN" />
</svg>
