<?xml version="1.0" encoding="UTF-8" standalone="no"?>
<svg
   version="1.0"
   width="800"
   height="82"
   viewBox="0 0 800 82"
   id="svg45"
   xmlns="http://www.w3.org/2000/svg"
   xmlns:svg="http://www.w3.org/2000/svg">
  <defs
     id="defs45" />
  <text
     fill="#e3e3e3"
     font-size="9px"
     x="28"
     y="11"
     font-family="'M PLUS 1p', MPLUS1p-Regular, monospace"
     dominant-baseline="middle"
     text-anchor="middle"
     id="text1" />
  <path
     d="M 32.654501,13.34 V 6.7699999 h 0.729 l 2.34,3.9600001 h 0.018 l 2.34,-3.9600001 h 0.756 V 13.34 h -0.72 V 7.9759999 h -0.018 l -2.034,3.4110001 h -0.666 l -2.034,-3.4110001 h -0.018 V 13.34 Z m 8.235003,-6.5700001 1.638,2.736 h 0.018 l 1.647,-2.736 h 0.81 l -2.016,3.2400001 2.061,3.33 h -0.846 l -1.674,-2.826 h -0.018 l -1.683,2.826 h -0.819 l 2.061,-3.33 -2.016,-3.2400001 z m 6.074996,0 V 12.728 h 3.213 v 0.612 h -3.96 V 6.7699999 Z m 5.237992,0.603 v 2.142 h 2.943 V 10.091 h -2.943 v 2.646 h 3.123 v 0.603 h -3.843 V 6.7699999 h 3.843 v 0.603 z M 56.765491,13.34 V 6.7699999 h 0.747 l 3.42,5.4000001 h 0.018 V 6.7699999 h 0.702 V 13.34 h -0.738 l -3.42,-5.4000001 h -0.018 V 13.34 Z m 6.371994,-2.322 v -0.576 h 2.673 v 0.576 z m 6.192007,2.322 V 7.6339999 h -0.018 l -1.773,1.638 -0.279,-0.585 2.07,-1.917 h 0.72 V 13.34 Z"
     id="text2"
     style="font-size:9px;font-family:'M PLUS 1p', MPLUS1p-Regular, monospace;dominant-baseline:middle;text-anchor:middle;fill:#e3e3e3"
     aria-label="MXLEN-1" />
  <text
     fill="#e3e3e3"
     font-size="9px"
     x="76"
     y="11"
     font-family="'M PLUS 1p', MPLUS1p-Regular, monospace"
     dominant-baseline="middle"
     text-anchor="middle"
     id="text3" />
  <text
     fill="#e3e3e3"
     font-size="9px"
     x="100"
     y="11"
     font-family="'M PLUS 1p', MPLUS1p-Regular, monospace"
     dominant-baseline="middle"
     text-anchor="middle"
     id="text4" />
  <text
     fill="#e3e3e3"
     font-size="9px"
     x="124"
     y="11"
     font-family="'M PLUS 1p', MPLUS1p-Regular, monospace"
     dominant-baseline="middle"
     text-anchor="middle"
     id="text5" />
  <text
     fill="#e3e3e3"
     font-size="9px"
     x="148"
     y="11"
     font-family="'M PLUS 1p', MPLUS1p-Regular, monospace"
     dominant-baseline="middle"
     text-anchor="middle"
     id="text6" />
  <text
     fill="#e3e3e3"
     font-size="9px"
     x="172"
     y="11"
     font-family="'M PLUS 1p', MPLUS1p-Regular, monospace"
     dominant-baseline="middle"
     text-anchor="middle"
     id="text7" />
  <text
     fill="#e3e3e3"
     font-size="9px"
     x="196"
     y="11"
     font-family="'M PLUS 1p', MPLUS1p-Regular, monospace"
     dominant-baseline="middle"
     text-anchor="middle"
     id="text8" />
  <text
     fill="#e3e3e3"
     font-size="9px"
     x="220"
     y="11"
     font-family="'M PLUS 1p', MPLUS1p-Regular, monospace"
     dominant-baseline="middle"
     text-anchor="middle"
     id="text9" />
  <text
     fill="#e3e3e3"
     font-size="9px"
     x="244"
     y="11"
     font-family="'M PLUS 1p', MPLUS1p-Regular, monospace"
     dominant-baseline="middle"
     text-anchor="middle"
     id="text10" />
  <text
     fill="#e3e3e3"
     font-size="9px"
     x="268"
     y="11"
     font-family="'M PLUS 1p', MPLUS1p-Regular, monospace"
     dominant-baseline="middle"
     text-anchor="middle"
     id="text11" />
  <text
     fill="#e3e3e3"
     font-size="9px"
     x="292"
     y="11"
     font-family="'M PLUS 1p', MPLUS1p-Regular, monospace"
     dominant-baseline="middle"
     text-anchor="middle"
     id="text12" />
  <text
     fill="#e3e3e3"
     font-size="9px"
     x="316"
     y="11"
     font-family="'M PLUS 1p', MPLUS1p-Regular, monospace"
     dominant-baseline="middle"
     text-anchor="middle"
     id="text13" />
  <text
     fill="#e3e3e3"
     font-size="9px"
     x="340"
     y="11"
     font-family="'M PLUS 1p', MPLUS1p-Regular, monospace"
     dominant-baseline="middle"
     text-anchor="middle"
     id="text14" />
  <text
     fill="#e3e3e3"
     font-size="9px"
     x="364"
     y="11"
     font-family="'M PLUS 1p', MPLUS1p-Regular, monospace"
     dominant-baseline="middle"
     text-anchor="middle"
     id="text15" />
  <text
     fill="#e3e3e3"
     font-size="9px"
     x="388"
     y="11"
     font-family="'M PLUS 1p', MPLUS1p-Regular, monospace"
     dominant-baseline="middle"
     text-anchor="middle"
     id="text16" />
  <text
     fill="#e3e3e3"
     font-size="9px"
     x="412"
     y="11"
     font-family="'M PLUS 1p', MPLUS1p-Regular, monospace"
     dominant-baseline="middle"
     text-anchor="middle"
     id="text17" />
  <text
     fill="#e3e3e3"
     font-size="9px"
     x="436"
     y="11"
     font-family="'M PLUS 1p', MPLUS1p-Regular, monospace"
     dominant-baseline="middle"
     text-anchor="middle"
     id="text18" />
  <text
     fill="#e3e3e3"
     font-size="9px"
     x="460"
     y="11"
     font-family="'M PLUS 1p', MPLUS1p-Regular, monospace"
     dominant-baseline="middle"
     text-anchor="middle"
     id="text19" />
  <text
     fill="#e3e3e3"
     font-size="9px"
     x="484"
     y="11"
     font-family="'M PLUS 1p', MPLUS1p-Regular, monospace"
     dominant-baseline="middle"
     text-anchor="middle"
     id="text20" />
  <text
     fill="#e3e3e3"
     font-size="9px"
     x="508"
     y="11"
     font-family="'M PLUS 1p', MPLUS1p-Regular, monospace"
     dominant-baseline="middle"
     text-anchor="middle"
     id="text21" />
  <text
     fill="#e3e3e3"
     font-size="9px"
     x="532"
     y="11"
     font-family="'M PLUS 1p', MPLUS1p-Regular, monospace"
     dominant-baseline="middle"
     text-anchor="middle"
     id="text22" />
  <text
     fill="#e3e3e3"
     font-size="9px"
     x="556"
     y="11"
     font-family="'M PLUS 1p', MPLUS1p-Regular, monospace"
     dominant-baseline="middle"
     text-anchor="middle"
     id="text23" />
  <path
     d="m 579.865,7.2919999 q -0.891,0 -1.782,0.621 l -0.216,-0.576 q 0.918,-0.657 2.088,-0.657 0.963,0 1.494,0.495 0.531,0.486 0.531,1.368 0,0.882 -0.639,1.7820001 -0.639,0.9 -2.394,2.394 v 0.018 h 3.06 v 0.603 h -4.05 v -0.603 q 1.917,-1.584 2.592,-2.466 0.684,-0.8910001 0.684,-1.6740001 0,-0.639 -0.351,-0.972 -0.342,-0.333 -1.017,-0.333 z"
     id="text24"
     style="font-size:9px;font-family:'M PLUS 1p', MPLUS1p-Regular, monospace;dominant-baseline:middle;text-anchor:middle;fill:#e3e3e3"
     aria-label="2" />
  <path
     d="M 604.009,13.34 V 7.6339999 h -0.018 l -1.773,1.638 -0.279,-0.585 2.07,-1.917 h 0.72 V 13.34 Z"
     id="text25"
     style="font-size:9px;font-family:'M PLUS 1p', MPLUS1p-Regular, monospace;dominant-baseline:middle;text-anchor:middle;fill:#e3e3e3"
     aria-label="1" />
  <text
     fill="#e3e3e3"
     font-size="9px"
     x="628"
     y="11"
     font-family="'M PLUS 1p', MPLUS1p-Regular, monospace"
     dominant-baseline="middle"
     text-anchor="middle"
     id="text26" />
  <text
     fill="#e3e3e3"
     font-size="9px"
     x="652"
     y="11"
     font-family="'M PLUS 1p', MPLUS1p-Regular, monospace"
     dominant-baseline="middle"
     text-anchor="middle"
     id="text27" />
  <text
     fill="#e3e3e3"
     font-size="9px"
     x="676"
     y="11"
     font-family="'M PLUS 1p', MPLUS1p-Regular, monospace"
     dominant-baseline="middle"
     text-anchor="middle"
     id="text28" />
  <text
     fill="#e3e3e3"
     font-size="9px"
     x="700"
     y="11"
     font-family="'M PLUS 1p', MPLUS1p-Regular, monospace"
     dominant-baseline="middle"
     text-anchor="middle"
     id="text29" />
  <text
     fill="#e3e3e3"
     font-size="9px"
     x="724"
     y="11"
     font-family="'M PLUS 1p', MPLUS1p-Regular, monospace"
     dominant-baseline="middle"
     text-anchor="middle"
     id="text30" />
  <text
     fill="#e3e3e3"
     font-size="9px"
     x="748"
     y="11"
     font-family="'M PLUS 1p', MPLUS1p-Regular, monospace"
     dominant-baseline="middle"
     text-anchor="middle"
     id="text31" />
  <path
     d="m 771.991,6.6799999 q 2.376,0 2.376,3.3750001 0,3.375 -2.376,3.375 -1.125,0 -1.746,-0.783 -0.621,-0.783 -0.621,-2.592 0,-1.8090001 0.621,-2.5920001 0.621,-0.783 1.746,-0.783 z M 770.749,12.188 q 0.414,0.657 1.242,0.657 0.828,0 1.242,-0.657 0.414,-0.666 0.414,-2.133 0,-1.4670001 -0.414,-2.1240001 -0.414,-0.666 -1.242,-0.666 -0.828,0 -1.242,0.666 -0.405,0.657 -0.405,2.1240001 0,1.467 0.405,2.133 z"
     id="text32"
     style="font-size:9px;font-family:'M PLUS 1p', MPLUS1p-Regular, monospace;dominant-baseline:middle;text-anchor:middle;fill:#e3e3e3"
     aria-label="0" />
  <line
     x1="16"
     y1="21"
     x2="304"
     y2="21"
     stroke="#E3E3E3"
     stroke-width="1"
     id="line32" />
  <line
     x1="16"
     y1="51"
     x2="304"
     y2="51"
     stroke="#E3E3E3"
     stroke-width="1"
     id="line33" />
  <line
     x1="16"
     y1="21"
     x2="16"
     y2="51"
     stroke="#E3E3E3"
     stroke-width="1"
     id="line34" />
  <path
     d="m 197.44799,32.02 q -0.624,0 -1.164,0.108 v 2.892 h 0.804 q 2.616,0 2.616,-1.536 0,-0.744 -0.54,-1.104 -0.54,-0.36 -1.716,-0.36 z m 3.552,5.58 q 0,2.64 -3.432,2.64 -1.128,0 -2.244,-0.192 v -8.616 q 1.056,-0.192 2.124,-0.192 3.156,0 3.156,2.124 0,0.744 -0.48,1.272 -0.48,0.528 -1.32,0.708 v 0.024 q 1.056,0.156 1.62,0.744 0.576,0.588 0.576,1.488 z m -0.936,-0.084 q 0,-0.888 -0.708,-1.308 -0.696,-0.42 -2.268,-0.42 h -0.804 v 3.564 q 0.588,0.108 1.284,0.108 2.496,0 2.496,-1.944 z m 1.77601,2.604 3.204,-8.76 h 1.08 l 3.192,8.76 h -1.02 l -0.888,-2.556 h -3.696 l -0.876,2.556 z m 2.136,-3.324 h 3.168 l -1.572,-4.572 h -0.024 z m 8.844,-4.776 q -0.828,0 -1.284,0.372 -0.456,0.36 -0.456,1.008 0,1.164 1.704,1.68 1.488,0.432 2.112,1.08 0.636,0.648 0.636,1.68 0,1.164 -0.732,1.788 -0.72,0.612 -2.064,0.612 -1.488,0 -2.64,-0.756 l 0.288,-0.792 q 1.044,0.744 2.352,0.744 0.888,0 1.356,-0.408 0.48,-0.408 0.48,-1.188 0,-0.72 -0.408,-1.14 -0.396,-0.432 -1.404,-0.744 -2.628,-0.78 -2.628,-2.556 0,-0.984 0.708,-1.572 0.72,-0.588 1.98,-0.588 1.356,0 2.52,0.564 l -0.24,0.744 q -1.044,-0.528 -2.28,-0.528 z m 5.412,0.144 v 2.856 h 3.924 v 0.768 h -3.924 v 3.528 h 4.164 v 0.804 h -5.124 v -8.76 h 5.124 v 0.804 z m 7.32,-0.564 v 9.48 h 2.364 v 0.72 h -3.24 V 30.88 h 3.24 v 0.72 z m 4.40399,8.52 v -8.76 h 0.972 l 3.12,5.28 h 0.024 l 3.12,-5.28 h 1.008 v 8.76 h -0.96 v -7.152 h -0.024 l -2.712,4.548 h -0.888 l -2.712,-4.548 h -0.024 v 7.152 z m 10.98,-8.76 2.184,3.648 h 0.024 l 2.196,-3.648 h 1.08 l -2.688,4.32 2.748,4.44 h -1.128 l -2.232,-3.768 h -0.024 l -2.244,3.768 h -1.092 l 2.748,-4.44 -2.688,-4.32 z m 8.1,0 v 7.944 h 4.284 v 0.816 h -5.28 v -8.76 z m 6.98399,0.804 v 2.856 h 3.924 v 0.768 h -3.924 v 3.528 h 4.164 v 0.804 h -5.124 v -8.76 h 5.124 v 0.804 z m 6.084,7.956 v -8.76 h 0.996 l 4.56,7.2 h 0.024 v -7.2 h 0.936 v 8.76 h -0.984 l -4.56,-7.2 h -0.024 v 7.2 z m 8.49599,-3.096 v -0.768 h 3.564 v 0.768 z m 8.25601,3.096 v -7.608 h -0.024 l -2.364,2.184 -0.372,-0.78 2.76,-2.556 h 0.96 v 8.76 z m 5.32801,-4.644 v -1.68 h 1.116 v 1.68 z m 0,4.644 v -1.68 h 1.116 v 1.68 z M 290.46,32.056 q -1.188,0 -2.376,0.828 l -0.288,-0.768 q 1.224,-0.876 2.784,-0.876 1.284,0 1.992,0.66 0.708,0.648 0.708,1.824 0,1.176 -0.852,2.376 -0.852,1.2 -3.192,3.192 v 0.024 h 4.08 v 0.804 h -5.4 v -0.804 q 2.556,-2.112 3.456,-3.288 0.912,-1.188 0.912,-2.232 0,-0.852 -0.468,-1.296 -0.456,-0.444 -1.356,-0.444 z m 7.28401,-0.456 h -2.364 v -0.72 h 3.24 V 41.8 h -3.24 v -0.72 h 2.364 z"
     id="text34"
     style="font-size:12px;font-family:'M PLUS 1p', MPLUS1p-Regular, monospace;dominant-baseline:middle;text-anchor:end;fill:#e3e3e3"
     aria-label="BASE[MXLEN-1:2]" />
  <line
     x1="304"
     y1="21"
     x2="592"
     y2="21"
     stroke="#E3E3E3"
     stroke-width="1"
     id="line35" />
  <line
     x1="304"
     y1="51"
     x2="592"
     y2="51"
     stroke="#E3E3E3"
     stroke-width="1"
     id="line36" />
  <line
     x1="592"
     y1="21"
     x2="592"
     y2="51"
     stroke="#E3E3E3"
     stroke-width="1"
     id="line37" />
  <path
     d="m 313.54883,42.704102 h -2.20899 q -1.125,-1.31836 -1.66992,-2.712891 -0.53906,-1.394531 -0.53906,-3.052734 0,-1.658204 0.53906,-3.052735 0.54492,-1.394531 1.66992,-2.71289 h 2.20899 v 0.169921 q -0.47461,0.427735 -0.90821,0.972657 -0.42773,0.539062 -0.79687,1.265625 -0.35156,0.697265 -0.57422,1.546875 -0.2168,0.849609 -0.2168,1.810547 0,1.001953 0.21094,1.816406 0.2168,0.814453 0.58008,1.541015 0.35156,0.691407 0.79102,1.253907 0.44531,0.568359 0.91406,0.984375 z m 14.12695,-11.138672 -2.34961,8.724609 h -2.49023 l -1.56446,-5.683594 -1.52343,5.683594 h -2.49024 L 314.9082,31.56543 h 2.34961 l 1.3418,6.005859 1.60547,-6.005859 h 2.24414 l 1.5293,6.005859 1.40625,-6.005859 z m 9.5625,8.724609 h -2.32617 l -0.60352,-1.763672 h -3.23437 l -0.60352,1.763672 h -2.26758 l 3.22266,-8.724609 h 2.58984 z m -3.47461,-3.363281 -1.07226,-3.128906 -1.07227,3.128906 z m 9.6211,-2.689453 q 0,-0.328125 -0.13477,-0.5625 -0.13477,-0.234375 -0.46289,-0.369141 -0.22852,-0.09375 -0.5332,-0.111328 -0.30469,-0.02344 -0.70899,-0.02344 h -0.81445 v 2.34961 h 0.6914 q 0.53907,0 0.90235,-0.05273 0.36328,-0.05273 0.60937,-0.240234 0.23438,-0.181641 0.33985,-0.398437 0.11133,-0.222657 0.11133,-0.591797 z m 3.50976,6.052734 h -2.74805 l -2.3789,-3.199219 h -1.03711 v 3.199219 h -2.23828 V 31.56543 h 3.77343 q 0.77344,0 1.33008,0.08789 0.55664,0.08789 1.04297,0.38086 0.49219,0.292968 0.7793,0.761718 0.29297,0.462891 0.29297,1.166016 0,0.966797 -0.45117,1.576172 -0.44532,0.609375 -1.27735,1.013672 z m 7.27734,0 h -6.29296 V 31.56543 h 2.25 v 7.037109 h 4.04296 z m 5.63086,-3.351562 q 0,1.658203 -0.54492,3.052734 -0.53906,1.394531 -1.66406,2.712891 h -2.20898 V 42.53418 q 0.46875,-0.416016 0.91406,-0.978516 0.44531,-0.5625 0.79101,-1.259766 0.36328,-0.726562 0.57422,-1.541015 0.2168,-0.814453 0.2168,-1.816406 0,-0.960938 -0.22266,-1.810547 -0.21679,-0.84961 -0.56836,-1.546875 -0.36914,-0.726563 -0.80273,-1.265625 -0.42774,-0.544922 -0.90234,-0.972657 v -0.169921 h 2.20898 q 1.125,1.318359 1.66406,2.71289 0.54492,1.394531 0.54492,3.052735 z"
     id="text37"
     style="font-weight:bold;dominant-baseline:middle;fill:#e3e3e3"
     aria-label="(WARL)" />
  <line
     x1="592"
     y1="21"
     x2="688"
     y2="21"
     stroke="#E3E3E3"
     stroke-width="1"
     id="line38" />
  <line
     x1="592"
     y1="51"
     x2="688"
     y2="51"
     stroke="#E3E3E3"
     stroke-width="1"
     id="line39" />
  <line
     x1="592"
     y1="21"
     x2="592"
     y2="51"
     stroke="#E3E3E3"
     stroke-width="1"
     id="line40" />
  <path
     d="m 649.99202,40.12 v -8.76 h 0.972 l 3.12,5.28 h 0.024 l 3.12,-5.28 h 1.008 v 8.76 h -0.96 v -7.152 h -0.024 l -2.712,4.548 h -0.888 l -2.712,-4.548 h -0.024 v 7.152 z m 17.124,-1.104 q -1.164,1.224 -3.096,1.224 -1.932,0 -3.108,-1.224 -1.176,-1.236 -1.176,-3.276 0,-2.04 1.176,-3.264 1.176,-1.236 3.108,-1.236 1.932,0 3.096,1.236 1.176,1.224 1.176,3.264 0,2.04 -1.176,3.276 z m -3.096,0.42 q 1.488,0 2.388,-0.996 0.912,-1.008 0.912,-2.7 0,-1.692 -0.912,-2.688 -0.9,-1.008 -2.388,-1.008 -1.5,0 -2.412,1.008 -0.9,0.996 -0.9,2.688 0,1.692 0.9,2.7 0.912,0.996 2.412,0.996 z m 7.89599,-7.392 q -0.624,0 -1.164,0.108 v 7.176 q 0.54,0.108 1.164,0.108 3.636,0 3.636,-3.816 0,-1.776 -0.924,-2.676 -0.924,-0.9 -2.712,-0.9 z m 4.56,3.576 q 0,2.268 -1.176,3.444 -1.176,1.176 -3.384,1.176 -1.068,0 -2.124,-0.192 v -8.616 q 1.08,-0.192 2.124,-0.192 2.196,0 3.372,1.14 1.188,1.128 1.188,3.24 z m 2.45999,-3.456 v 2.856 h 3.924 v 0.768 h -3.924 v 3.528 h 4.164 v 0.804 h -5.124 v -8.76 h 5.124 v 0.804 z"
     id="text40"
     style="font-size:12px;font-family:'M PLUS 1p', MPLUS1p-Regular, monospace;dominant-baseline:middle;text-anchor:end;fill:#e3e3e3"
     aria-label="MODE" />
  <line
     x1="688"
     y1="21"
     x2="784"
     y2="21"
     stroke="#E3E3E3"
     stroke-width="1"
     id="line41" />
  <line
     x1="688"
     y1="51"
     x2="784"
     y2="51"
     stroke="#E3E3E3"
     stroke-width="1"
     id="line42" />
  <line
     x1="784"
     y1="21"
     x2="784"
     y2="51"
     stroke="#E3E3E3"
     stroke-width="1"
     id="line43" />
  <path
     d="m 697.54883,42.704102 h -2.20899 q -1.125,-1.31836 -1.66992,-2.712891 -0.53906,-1.394531 -0.53906,-3.052734 0,-1.658204 0.53906,-3.052735 0.54492,-1.394531 1.66992,-2.71289 h 2.20899 v 0.169921 q -0.47461,0.427735 -0.90821,0.972657 -0.42773,0.539062 -0.79687,1.265625 -0.35156,0.697265 -0.57422,1.546875 -0.2168,0.849609 -0.2168,1.810547 0,1.001953 0.21094,1.816406 0.2168,0.814453 0.58008,1.541015 0.35156,0.691407 0.79102,1.253907 0.44531,0.568359 0.91406,0.984375 z m 14.12695,-11.138672 -2.34961,8.724609 h -2.49023 l -1.56446,-5.683594 -1.52343,5.683594 h -2.49024 L 698.9082,31.56543 h 2.34961 l 1.3418,6.005859 1.60547,-6.005859 h 2.24414 l 1.5293,6.005859 1.40625,-6.005859 z m 9.5625,8.724609 h -2.32617 l -0.60352,-1.763672 h -3.23437 l -0.60352,1.763672 h -2.26758 l 3.22266,-8.724609 h 2.58984 z m -3.47461,-3.363281 -1.07226,-3.128906 -1.07227,3.128906 z m 9.6211,-2.689453 q 0,-0.328125 -0.13477,-0.5625 -0.13477,-0.234375 -0.46289,-0.369141 -0.22852,-0.09375 -0.5332,-0.111328 -0.30469,-0.02344 -0.70899,-0.02344 h -0.81445 v 2.34961 h 0.6914 q 0.53907,0 0.90235,-0.05273 0.36328,-0.05273 0.60937,-0.240234 0.23438,-0.181641 0.33985,-0.398437 0.11133,-0.222657 0.11133,-0.591797 z m 3.50976,6.052734 h -2.74805 l -2.3789,-3.199219 h -1.03711 v 3.199219 h -2.23828 V 31.56543 h 3.77343 q 0.77344,0 1.33008,0.08789 0.55664,0.08789 1.04297,0.38086 0.49219,0.292968 0.7793,0.761718 0.29297,0.462891 0.29297,1.166016 0,0.966797 -0.45117,1.576172 -0.44532,0.609375 -1.27735,1.013672 z m 7.27734,0 h -6.29296 V 31.56543 h 2.25 v 7.037109 h 4.04296 z m 5.63086,-3.351562 q 0,1.658203 -0.54492,3.052734 -0.53906,1.394531 -1.66406,2.712891 h -2.20898 V 42.53418 q 0.46875,-0.416016 0.91406,-0.978516 0.44531,-0.5625 0.79101,-1.259766 0.36328,-0.726562 0.57422,-1.541015 0.2168,-0.814453 0.2168,-1.816406 0,-0.960938 -0.22266,-1.810547 -0.21679,-0.84961 -0.56836,-1.546875 -0.36914,-0.726563 -0.80273,-1.265625 -0.42774,-0.544922 -0.90234,-0.972657 v -0.169921 h 2.20898 q 1.125,1.318359 1.66406,2.71289 0.54492,1.394531 0.54492,3.052735 z"
     id="text43"
     style="font-weight:bold;dominant-baseline:middle;fill:#e3e3e3"
     aria-label="(WARL)" />
  <path
     d="m 278.206,70.12 v -8.76 h 0.972 l 3.12,5.28 h 0.024 l 3.12,-5.28 h 1.008 v 8.76 h -0.96 v -7.152 h -0.024 l -2.712,4.548 h -0.888 l -2.712,-4.548 h -0.024 v 7.152 z m 10.98001,-8.76 2.184,3.648 h 0.024 l 2.196,-3.648 h 1.08 l -2.688,4.32 2.748,4.44 h -1.128 l -2.232,-3.768 h -0.024 l -2.244,3.768 h -1.092 l 2.748,-4.44 -2.688,-4.32 z m 8.09999,0 v 7.944 h 4.284 v 0.816 h -5.28 v -8.76 z m 6.98399,0.804 v 2.856 h 3.924 v 0.768 h -3.924 v 3.528 h 4.164 v 0.804 h -5.124 v -8.76 h 5.124 v 0.804 z m 6.084,7.956 v -8.76 h 0.996 l 4.56,7.2 h 0.024 v -7.2 h 0.936 v 8.76 h -0.984 l -4.56,-7.2 h -0.024 v 7.2 z m 8.49599,-3.096 v -0.768 h 3.564 v 0.768 z m 8.06401,-4.968 q -1.188,0 -2.376,0.828 l -0.288,-0.768 q 1.224,-0.876 2.784,-0.876 1.284,0 1.992,0.66 0.708,0.648 0.708,1.824 0,1.176 -0.852,2.376 -0.852,1.2 -3.192,3.192 v 0.024 h 4.08 v 0.804 h -5.4 v -0.804 q 2.556,-2.112 3.456,-3.288 0.912,-1.188 0.912,-2.232 0,-0.852 -0.468,-1.296 -0.456,-0.444 -1.356,-0.444 z"
     id="text44"
     style="font-size:12px;font-family:'M PLUS 1p', MPLUS1p-Regular, monospace;dominant-baseline:middle;text-anchor:middle;fill:#e3e3e3"
     aria-label="MXLEN-2" />
  <path
     d="m 687.81999,62.056 q -1.188,0 -2.376,0.828 l -0.288,-0.768 q 1.224,-0.876 2.784,-0.876 1.284,0 1.992,0.66 0.708,0.648 0.708,1.824 0,1.176 -0.852,2.376 -0.852,1.2 -3.192,3.192 v 0.024 h 4.08 v 0.804 h -5.4 v -0.804 q 2.556,-2.112 3.456,-3.288 0.912,-1.188 0.912,-2.232 0,-0.852 -0.468,-1.296 -0.456,-0.444 -1.356,-0.444 z"
     id="text45"
     style="font-size:12px;font-family:'M PLUS 1p', MPLUS1p-Regular, monospace;dominant-baseline:middle;text-anchor:middle;fill:#e3e3e3"
     aria-label="2" />
</svg>
