<svg width="800" height="98" viewBox="0 0 800 98" fill="none" xmlns="http://www.w3.org/2000/svg">
<g clip-path="url(#clip0_1_133)">
<path d="M4 21.5H795" stroke="black" stroke-linecap="round"/>
<path d="M4 21.5V52.5" stroke="black" stroke-linecap="round"/>
<path d="M4 52.5H795" stroke="black" stroke-linecap="round"/>
<path d="M795 21.5V52.5" stroke="black" stroke-linecap="round"/>
<path d="M770 21.5V24.5" stroke="black" stroke-linecap="round"/>
<path d="M770 52.5V49.5" stroke="black" stroke-linecap="round"/>
<path d="M746 21.5V24.5" stroke="black" stroke-linecap="round"/>
<path d="M746 52.5V49.5" stroke="black" stroke-linecap="round"/>
<path d="M721 21.5V24.5" stroke="black" stroke-linecap="round"/>
<path d="M721 52.5V49.5" stroke="black" stroke-linecap="round"/>
<path d="M696 21.5V24.5" stroke="black" stroke-linecap="round"/>
<path d="M696 52.5V49.5" stroke="black" stroke-linecap="round"/>
<path d="M671 21.5V24.5" stroke="black" stroke-linecap="round"/>
<path d="M671 52.5V49.5" stroke="black" stroke-linecap="round"/>
<path d="M647 21.5V24.5" stroke="black" stroke-linecap="round"/>
<path d="M647 52.5V49.5" stroke="black" stroke-linecap="round"/>
<path d="M622 21.5V52.5" stroke="black" stroke-linecap="round"/>
<path d="M597 21.5V24.5" stroke="black" stroke-linecap="round"/>
<path d="M597 52.5V49.5" stroke="black" stroke-linecap="round"/>
<path d="M573 21.5V24.5" stroke="black" stroke-linecap="round"/>
<path d="M573 52.5V49.5" stroke="black" stroke-linecap="round"/>
<path d="M548 21.5V24.5" stroke="black" stroke-linecap="round"/>
<path d="M548 52.5V49.5" stroke="black" stroke-linecap="round"/>
<path d="M523 21.5V24.5" stroke="black" stroke-linecap="round"/>
<path d="M523 52.5V49.5" stroke="black" stroke-linecap="round"/>
<path d="M498 21.5V52.5" stroke="black" stroke-linecap="round"/>
<path d="M474 21.5V24.5" stroke="black" stroke-linecap="round"/>
<path d="M474 52.5V49.5" stroke="black" stroke-linecap="round"/>
<path d="M449 21.5V24.5" stroke="black" stroke-linecap="round"/>
<path d="M449 52.5V49.5" stroke="black" stroke-linecap="round"/>
<path d="M424 21.5V52.5" stroke="black" stroke-linecap="round"/>
<path d="M400 21.5V24.5" stroke="black" stroke-linecap="round"/>
<path d="M400 52.5V49.5" stroke="black" stroke-linecap="round"/>
<path d="M375 21.5V24.5" stroke="black" stroke-linecap="round"/>
<path d="M375 52.5V49.5" stroke="black" stroke-linecap="round"/>
<path d="M350 21.5V24.5" stroke="black" stroke-linecap="round"/>
<path d="M350 52.5V49.5" stroke="black" stroke-linecap="round"/>
<path d="M325 21.5V24.5" stroke="black" stroke-linecap="round"/>
<path d="M325 52.5V49.5" stroke="black" stroke-linecap="round"/>
<path d="M301 21.5V52.5" stroke="black" stroke-linecap="round"/>
<path d="M276 21.5V24.5" stroke="black" stroke-linecap="round"/>
<path d="M276 52.5V49.5" stroke="black" stroke-linecap="round"/>
<path d="M251 21.5V24.5" stroke="black" stroke-linecap="round"/>
<path d="M251 52.5V49.5" stroke="black" stroke-linecap="round"/>
<path d="M226 21.5V24.5" stroke="black" stroke-linecap="round"/>
<path d="M226 52.5V49.5" stroke="black" stroke-linecap="round"/>
<path d="M202 21.5V24.5" stroke="black" stroke-linecap="round"/>
<path d="M202 52.5V49.5" stroke="black" stroke-linecap="round"/>
<path d="M177 21.5V52.5" stroke="black" stroke-linecap="round"/>
<path d="M152 21.5V52.5" stroke="black" stroke-linecap="round"/>
<path d="M128 21.5V52.5" stroke="black" stroke-linecap="round"/>
<path d="M103 21.5V24.5" stroke="black" stroke-linecap="round"/>
<path d="M103 52.5V49.5" stroke="black" stroke-linecap="round"/>
<path d="M78 21.5V24.5" stroke="black" stroke-linecap="round"/>
<path d="M78 52.5V49.5" stroke="black" stroke-linecap="round"/>
<path d="M53 21.5V24.5" stroke="black" stroke-linecap="round"/>
<path d="M53 52.5V49.5" stroke="black" stroke-linecap="round"/>
<path d="M29 21.5V24.5" stroke="black" stroke-linecap="round"/>
<path d="M29 52.5V49.5" stroke="black" stroke-linecap="round"/>
<path d="M795 21.5H622V52.5H795V21.5Z" fill="black" fill-opacity="0.1"/>
<path d="M622 21.5H498V52.5H622V21.5Z" fill="#FF0000" fill-opacity="0.1"/>
<path d="M498 21.5H424V52.5H498V21.5Z" fill="black" fill-opacity="0.1"/>
<path d="M425 21.5H301V52.5H425V21.5Z" fill="#00FFD5" fill-opacity="0.1"/>
<path d="M301 21.5H177V52.5H301V21.5Z" fill="#00FFD5" fill-opacity="0.1"/>
<path d="M177 21.5H152V52.5H177V21.5Z" fill="black" fill-opacity="0.1"/>
<path d="M153 21.5H128V52.5H153V21.5Z" fill="black" fill-opacity="0.1"/>
<path d="M128 21.5H4V52.5H128V21.5Z" fill="black" fill-opacity="0.1"/>
<path d="M779.283 7.358C779.927 6.546 780.833 6.14 781.999 6.14C783.166 6.14 784.071 6.546 784.715 7.358C785.359 8.17 785.681 9.514 785.681 11.39C785.681 13.266 785.359 14.61 784.715 15.422C784.071 16.234 783.166 16.64 781.999 16.64C780.833 16.64 779.927 16.234 779.283 15.422C778.639 14.61 778.317 13.266 778.317 11.39C778.317 9.514 778.639 8.17 779.283 7.358ZM780.067 14.708C780.497 15.3893 781.141 15.73 781.999 15.73C782.858 15.73 783.497 15.3893 783.917 14.708C784.347 14.0173 784.561 12.9113 784.561 11.39C784.561 9.86867 784.347 8.76733 783.917 8.086C783.497 7.39533 782.858 7.05 781.999 7.05C781.141 7.05 780.497 7.39533 780.067 8.086C779.647 8.76733 779.437 9.86867 779.437 11.39C779.437 12.9113 779.647 14.0173 780.067 14.708Z" fill="black"/>
<path d="M634.041 10.508C633.323 10.508 632.73 10.7413 632.263 11.208C631.797 11.6747 631.563 12.272 631.563 13C631.563 13.868 631.783 14.5353 632.221 15.002C632.66 15.4687 633.267 15.702 634.041 15.702C634.835 15.702 635.451 15.4687 635.889 15.002C636.328 14.5353 636.547 13.868 636.547 13C636.547 12.2347 636.319 11.628 635.861 11.18C635.413 10.732 634.807 10.508 634.041 10.508ZM634.041 16.64C632.912 16.64 632.025 16.2993 631.381 15.618C630.747 14.9367 630.429 13.9567 630.429 12.678C630.429 10.7833 630.887 9.25733 631.801 8.1C632.725 6.94267 633.995 6.28933 635.609 6.14L635.805 7.078C633.659 7.32067 632.296 8.52933 631.717 10.704L631.731 10.718C632.375 9.99933 633.225 9.64 634.279 9.64C635.315 9.64 636.137 9.94333 636.743 10.55C637.359 11.1473 637.667 11.964 637.667 13C637.667 14.1107 637.336 14.9973 636.673 15.66C636.011 16.3133 635.133 16.64 634.041 16.64Z" fill="black"/>
<path d="M606.251 6.28H612.831V7.218C611.217 9.86867 609.868 12.9627 608.785 16.5H607.609C608.683 13.1213 610.064 10.0367 611.753 7.246V7.218H606.251V6.28Z" fill="black"/>
<path d="M505.686 16.5V7.624H505.658L502.9 10.172L502.466 9.262L505.686 6.28H506.806V16.5H505.686ZM514.368 16.5V7.624H514.34L511.582 10.172L511.148 9.262L514.368 6.28H515.488V16.5H514.368Z" fill="black"/>
<path d="M481.186 16.5V7.624H481.158L478.4 10.172L477.966 9.262L481.186 6.28H482.306V16.5H481.186ZM489.63 7.092C488.706 7.092 487.782 7.414 486.858 8.058L486.522 7.162C487.474 6.48067 488.557 6.14 489.77 6.14C490.769 6.14 491.543 6.39667 492.094 6.91C492.645 7.414 492.92 8.12333 492.92 9.038C492.92 9.95267 492.589 10.8767 491.926 11.81C491.263 12.7433 490.022 13.9847 488.202 15.534V15.562H492.962V16.5H486.662V15.562C488.65 13.9193 489.999 12.6407 490.708 11.726C491.417 10.802 491.772 9.934 491.772 9.122C491.772 8.45933 491.59 7.95533 491.226 7.61C490.862 7.26467 490.33 7.092 489.63 7.092Z" fill="black"/>
<path d="M431.686 16.5V7.624H431.658L428.9 10.172L428.466 9.262L431.686 6.28H432.806V16.5H431.686ZM441.11 13.21V7.918H441.082L437.358 13.182V13.21H441.11ZM442.216 13.21H443.952V14.12H442.216V16.5H441.11V14.12H436.21V13.21L441.11 6.28H442.216V13.21Z" fill="black"/>
<path d="M407.686 16.5V7.624H407.658L404.9 10.172L404.466 9.262L407.686 6.28H408.806V16.5H407.686ZM419.168 7.218H414.744L414.548 10.522H414.576C415.127 10.1953 415.747 10.032 416.438 10.032C417.437 10.032 418.211 10.3027 418.762 10.844C419.313 11.3853 419.588 12.1507 419.588 13.14C419.588 14.2787 419.266 15.1467 418.622 15.744C417.987 16.3413 417.054 16.64 415.822 16.64C414.87 16.64 413.993 16.416 413.19 15.968L413.47 15.044C414.254 15.4827 415.038 15.702 415.822 15.702C417.586 15.702 418.468 14.848 418.468 13.14C418.468 12.4213 418.277 11.8753 417.894 11.502C417.511 11.1193 416.961 10.928 416.242 10.928C415.505 10.928 414.893 11.1427 414.408 11.572H413.428L413.736 6.28H419.168V7.218Z" fill="black"/>
<path d="M308.686 16.5V7.624H308.658L305.9 10.172L305.466 9.262L308.686 6.28H309.806V16.5H308.686ZM317.298 6.14C318.437 6.14 319.323 6.48067 319.958 7.162C320.593 7.834 320.91 8.79067 320.91 10.032C320.91 11.9827 320.439 13.532 319.496 14.68C318.563 15.828 317.261 16.4813 315.59 16.64L315.394 15.702C316.533 15.5807 317.447 15.2213 318.138 14.624C318.829 14.0173 319.323 13.1633 319.622 12.062L319.608 12.048C318.955 12.776 318.105 13.14 317.06 13.14C316.024 13.14 315.198 12.8367 314.582 12.23C313.975 11.614 313.672 10.774 313.672 9.71C313.672 8.62733 314.003 7.764 314.666 7.12C315.329 6.46667 316.206 6.14 317.298 6.14ZM317.298 7.078C316.505 7.078 315.889 7.30667 315.45 7.764C315.011 8.22133 314.792 8.87 314.792 9.71C314.792 10.5127 315.016 11.1427 315.464 11.6C315.921 12.048 316.533 12.272 317.298 12.272C318.017 12.272 318.609 12.034 319.076 11.558C319.543 11.082 319.776 10.466 319.776 9.71C319.776 8.87933 319.557 8.23533 319.118 7.778C318.679 7.31133 318.073 7.078 317.298 7.078Z" fill="black"/>
<path d="M283.448 7.092C282.524 7.092 281.6 7.414 280.676 8.058L280.34 7.162C281.292 6.48067 282.375 6.14 283.588 6.14C284.587 6.14 285.362 6.39667 285.912 6.91C286.463 7.414 286.738 8.12333 286.738 9.038C286.738 9.95267 286.407 10.8767 285.744 11.81C285.082 12.7433 283.84 13.9847 282.02 15.534V15.562H286.78V16.5H280.48V15.562C282.468 13.9193 283.817 12.6407 284.526 11.726C285.236 10.802 285.59 9.934 285.59 9.122C285.59 8.45933 285.408 7.95533 285.044 7.61C284.68 7.26467 284.148 7.092 283.448 7.092ZM289.624 7.358C290.268 6.546 291.173 6.14 292.34 6.14C293.507 6.14 294.412 6.546 295.056 7.358C295.7 8.17 296.022 9.514 296.022 11.39C296.022 13.266 295.7 14.61 295.056 15.422C294.412 16.234 293.507 16.64 292.34 16.64C291.173 16.64 290.268 16.234 289.624 15.422C288.98 14.61 288.658 13.266 288.658 11.39C288.658 9.514 288.98 8.17 289.624 7.358ZM290.408 14.708C290.837 15.3893 291.481 15.73 292.34 15.73C293.199 15.73 293.838 15.3893 294.258 14.708C294.687 14.0173 294.902 12.9113 294.902 11.39C294.902 9.86867 294.687 8.76733 294.258 8.086C293.838 7.39533 293.199 7.05 292.34 7.05C291.481 7.05 290.837 7.39533 290.408 8.086C289.988 8.76733 289.778 9.86867 289.778 11.39C289.778 12.9113 289.988 14.0173 290.408 14.708Z" fill="black"/>
<path d="M184.448 7.092C183.524 7.092 182.6 7.414 181.676 8.058L181.34 7.162C182.292 6.48067 183.375 6.14 184.588 6.14C185.587 6.14 186.362 6.39667 186.912 6.91C187.463 7.414 187.738 8.12333 187.738 9.038C187.738 9.95267 187.407 10.8767 186.744 11.81C186.082 12.7433 184.84 13.9847 183.02 15.534V15.562H187.78V16.5H181.48V15.562C183.468 13.9193 184.817 12.6407 185.526 11.726C186.236 10.802 186.59 9.934 186.59 9.122C186.59 8.45933 186.408 7.95533 186.044 7.61C185.68 7.26467 185.148 7.092 184.448 7.092ZM194.11 13.21V7.918H194.082L190.358 13.182V13.21H194.11ZM195.216 13.21H196.952V14.12H195.216V16.5H194.11V14.12H189.21V13.21L194.11 6.28H195.216V13.21Z" fill="black"/>
<path d="M158.948 7.092C158.024 7.092 157.1 7.414 156.176 8.058L155.84 7.162C156.792 6.48067 157.875 6.14 159.088 6.14C160.087 6.14 160.862 6.39667 161.412 6.91C161.963 7.414 162.238 8.12333 162.238 9.038C162.238 9.95267 161.907 10.8767 161.244 11.81C160.582 12.7433 159.34 13.9847 157.52 15.534V15.562H162.28V16.5H155.98V15.562C157.968 13.9193 159.317 12.6407 160.026 11.726C160.736 10.802 161.09 9.934 161.09 9.122C161.09 8.45933 160.908 7.95533 160.544 7.61C160.18 7.26467 159.648 7.092 158.948 7.092ZM170.668 7.218H166.244L166.048 10.522H166.076C166.627 10.1953 167.247 10.032 167.938 10.032C168.937 10.032 169.711 10.3027 170.262 10.844C170.813 11.3853 171.088 12.1507 171.088 13.14C171.088 14.2787 170.766 15.1467 170.122 15.744C169.487 16.3413 168.554 16.64 167.322 16.64C166.37 16.64 165.493 16.416 164.69 15.968L164.97 15.044C165.754 15.4827 166.538 15.702 167.322 15.702C169.086 15.702 169.968 14.848 169.968 13.14C169.968 12.4213 169.777 11.8753 169.394 11.502C169.011 11.1193 168.461 10.928 167.742 10.928C167.005 10.928 166.393 11.1427 165.908 11.572H164.928L165.236 6.28H170.668V7.218Z" fill="black"/>
<path d="M135.448 7.092C134.524 7.092 133.6 7.414 132.676 8.058L132.34 7.162C133.292 6.48067 134.375 6.14 135.588 6.14C136.587 6.14 137.362 6.39667 137.912 6.91C138.463 7.414 138.738 8.12333 138.738 9.038C138.738 9.95267 138.407 10.8767 137.744 11.81C137.082 12.7433 135.84 13.9847 134.02 15.534V15.562H138.78V16.5H132.48V15.562C134.468 13.9193 135.817 12.6407 136.526 11.726C137.236 10.802 137.59 9.934 137.59 9.122C137.59 8.45933 137.408 7.95533 137.044 7.61C136.68 7.26467 136.148 7.092 135.448 7.092ZM144.382 10.508C143.663 10.508 143.071 10.7413 142.604 11.208C142.137 11.6747 141.904 12.272 141.904 13C141.904 13.868 142.123 14.5353 142.562 15.002C143.001 15.4687 143.607 15.702 144.382 15.702C145.175 15.702 145.791 15.4687 146.23 15.002C146.669 14.5353 146.888 13.868 146.888 13C146.888 12.2347 146.659 11.628 146.202 11.18C145.754 10.732 145.147 10.508 144.382 10.508ZM144.382 16.64C143.253 16.64 142.366 16.2993 141.722 15.618C141.087 14.9367 140.77 13.9567 140.77 12.678C140.77 10.7833 141.227 9.25733 142.142 8.1C143.066 6.94267 144.335 6.28933 145.95 6.14L146.146 7.078C143.999 7.32067 142.637 8.52933 142.058 10.704L142.072 10.718C142.716 9.99933 143.565 9.64 144.62 9.64C145.656 9.64 146.477 9.94333 147.084 10.55C147.7 11.1473 148.008 11.964 148.008 13C148.008 14.1107 147.677 14.9973 147.014 15.66C146.351 16.3133 145.474 16.64 144.382 16.64Z" fill="black"/>
<path d="M109.948 7.092C109.024 7.092 108.1 7.414 107.176 8.058L106.84 7.162C107.792 6.48067 108.875 6.14 110.088 6.14C111.087 6.14 111.862 6.39667 112.412 6.91C112.963 7.414 113.238 8.12333 113.238 9.038C113.238 9.95267 112.907 10.8767 112.244 11.81C111.582 12.7433 110.34 13.9847 108.52 15.534V15.562H113.28V16.5H106.98V15.562C108.968 13.9193 110.317 12.6407 111.026 11.726C111.736 10.802 112.09 9.934 112.09 9.122C112.09 8.45933 111.908 7.95533 111.544 7.61C111.18 7.26467 110.648 7.092 109.948 7.092ZM115.592 6.28H122.172V7.218C120.557 9.86867 119.209 12.9627 118.126 16.5H116.95C118.023 13.1213 119.405 10.0367 121.094 7.246V7.218H115.592V6.28Z" fill="black"/>
<path d="M8.50836 6.28H14.6404V7.218L11.2944 10.508V10.536H11.7144C12.7037 10.536 13.4597 10.774 13.9824 11.25C14.5144 11.726 14.7804 12.4167 14.7804 13.322C14.7804 14.386 14.463 15.2073 13.8284 15.786C13.203 16.3553 12.307 16.64 11.1404 16.64C10.1324 16.64 9.24569 16.3973 8.48036 15.912L8.81636 15.002C9.60036 15.4687 10.375 15.702 11.1404 15.702C11.9617 15.702 12.587 15.5013 13.0164 15.1C13.4457 14.6987 13.6604 14.106 13.6604 13.322C13.6604 12.6593 13.4364 12.1693 12.9884 11.852C12.5497 11.5253 11.845 11.362 10.8744 11.362H9.85236V10.494L13.1984 7.246V7.218H8.50836V6.28ZM20.368 16.5V7.624H20.34L17.582 10.172L17.148 9.262L20.368 6.28H21.488V16.5H20.368Z" fill="black"/>
<path d="M690.039 36.704C689.619 36.1813 689.041 35.92 688.303 35.92C687.566 35.92 686.983 36.1813 686.553 36.704C686.133 37.2173 685.923 37.936 685.923 38.86C685.923 39.784 686.133 40.5073 686.553 41.03C686.983 41.5433 687.566 41.8 688.303 41.8C689.041 41.8 689.619 41.5433 690.039 41.03C690.469 40.5073 690.683 39.784 690.683 38.86C690.683 37.936 690.469 37.2173 690.039 36.704ZM690.795 41.618C690.17 42.2993 689.339 42.64 688.303 42.64C687.267 42.64 686.437 42.2993 685.811 41.618C685.186 40.9367 684.873 40.0173 684.873 38.86C684.873 37.7027 685.186 36.7833 685.811 36.102C686.437 35.4207 687.267 35.08 688.303 35.08C689.339 35.08 690.17 35.4207 690.795 36.102C691.421 36.7833 691.733 37.7027 691.733 38.86C691.733 40.0173 691.421 40.9367 690.795 41.618ZM696.75 42.64C695.695 42.64 694.911 42.2153 694.398 41.366H694.37V45.58H693.348V35.22H694.328L694.342 36.452H694.37C694.883 35.5373 695.677 35.08 696.75 35.08C697.665 35.08 698.383 35.4067 698.906 36.06C699.429 36.704 699.69 37.6373 699.69 38.86C699.69 40.0547 699.419 40.9833 698.878 41.646C698.346 42.3087 697.637 42.64 696.75 42.64ZM698.682 38.86C698.682 37.908 698.491 37.18 698.108 36.676C697.735 36.172 697.207 35.92 696.526 35.92C695.882 35.92 695.359 36.172 694.958 36.676C694.566 37.18 694.37 37.8753 694.37 38.762V38.958C694.37 39.8633 694.571 40.5633 694.972 41.058C695.373 41.5527 695.891 41.8 696.526 41.8C697.189 41.8 697.711 41.548 698.094 41.044C698.486 40.5307 698.682 39.8027 698.682 38.86ZM704.702 35.934C703.881 35.934 703.241 36.1907 702.784 36.704C702.327 37.208 702.098 37.9267 702.098 38.86C702.098 39.756 702.336 40.47 702.812 41.002C703.297 41.534 703.927 41.8 704.702 41.8C705.355 41.8 705.981 41.6413 706.578 41.324L706.858 42.15C706.158 42.4767 705.425 42.64 704.66 42.64C703.577 42.64 702.7 42.2993 702.028 41.618C701.356 40.9273 701.02 40.008 701.02 38.86C701.02 37.6747 701.342 36.7507 701.986 36.088C702.63 35.416 703.521 35.08 704.66 35.08C705.425 35.08 706.158 35.2433 706.858 35.57L706.578 36.424C705.953 36.0973 705.327 35.934 704.702 35.934ZM713.487 36.704C713.067 36.1813 712.488 35.92 711.751 35.92C711.013 35.92 710.43 36.1813 710.001 36.704C709.581 37.2173 709.371 37.936 709.371 38.86C709.371 39.784 709.581 40.5073 710.001 41.03C710.43 41.5433 711.013 41.8 711.751 41.8C712.488 41.8 713.067 41.5433 713.487 41.03C713.916 40.5073 714.131 39.784 714.131 38.86C714.131 37.936 713.916 37.2173 713.487 36.704ZM714.243 41.618C713.617 42.2993 712.787 42.64 711.751 42.64C710.715 42.64 709.884 42.2993 709.259 41.618C708.633 40.9367 708.321 40.0173 708.321 38.86C708.321 37.7027 708.633 36.7833 709.259 36.102C709.884 35.4207 710.715 35.08 711.751 35.08C712.787 35.08 713.617 35.4207 714.243 36.102C714.868 36.7833 715.181 37.7027 715.181 38.86C715.181 40.0173 714.868 40.9367 714.243 41.618ZM718.094 36.69C717.711 37.194 717.52 37.9173 717.52 38.86C717.52 39.8027 717.716 40.5307 718.108 41.044C718.5 41.548 719.027 41.8 719.69 41.8C720.325 41.8 720.838 41.5527 721.23 41.058C721.631 40.5633 721.832 39.8633 721.832 38.958V38.762C721.832 37.8753 721.631 37.18 721.23 36.676C720.838 36.172 720.325 35.92 719.69 35.92C719.009 35.92 718.477 36.1767 718.094 36.69ZM716.512 38.86C716.512 37.6373 716.773 36.704 717.296 36.06C717.819 35.4067 718.537 35.08 719.452 35.08C720.507 35.08 721.291 35.5233 721.804 36.41H721.832V32H722.854V42.5H721.874L721.86 41.268H721.832C721.319 42.1827 720.525 42.64 719.452 42.64C718.556 42.64 717.842 42.3133 717.31 41.66C716.778 40.9973 716.512 40.064 716.512 38.86ZM725.586 39.252C725.604 40.0453 725.847 40.6707 726.314 41.128C726.78 41.5853 727.387 41.814 728.134 41.814C728.852 41.814 729.566 41.6273 730.276 41.254L730.556 42.052C729.772 42.444 728.932 42.64 728.036 42.64C726.99 42.64 726.146 42.2993 725.502 41.618C724.858 40.9367 724.536 40.0173 724.536 38.86C724.536 37.684 724.834 36.76 725.432 36.088C726.038 35.416 726.86 35.08 727.896 35.08C728.904 35.08 729.683 35.402 730.234 36.046C730.794 36.6807 731.074 37.5953 731.074 38.79C731.074 38.9113 731.064 39.0653 731.046 39.252H725.586ZM725.586 38.44H730.066C730.056 37.628 729.86 37.0027 729.478 36.564C729.095 36.1253 728.568 35.906 727.896 35.906C727.196 35.906 726.64 36.13 726.23 36.578C725.828 37.0167 725.614 37.6373 725.586 38.44Z" fill="black"/>
<path d="M554.468 35.22H555.462L555.49 36.774H555.518C556.339 35.6447 557.497 35.08 558.99 35.08V35.962C557.954 35.962 557.114 36.2467 556.47 36.816C555.835 37.3853 555.518 38.1227 555.518 39.028V42.5H554.468V35.22ZM561.7 36.69C561.318 37.194 561.126 37.9173 561.126 38.86C561.126 39.8027 561.322 40.5307 561.714 41.044C562.106 41.548 562.634 41.8 563.296 41.8C563.931 41.8 564.444 41.5527 564.836 41.058C565.238 40.5633 565.438 39.8633 565.438 38.958V38.762C565.438 37.8753 565.238 37.18 564.836 36.676C564.444 36.172 563.931 35.92 563.296 35.92C562.615 35.92 562.083 36.1767 561.7 36.69ZM560.118 38.86C560.118 37.6373 560.38 36.704 560.902 36.06C561.425 35.4067 562.144 35.08 563.058 35.08C564.113 35.08 564.897 35.5233 565.41 36.41H565.438V32H566.46V42.5H565.48L565.466 41.268H565.438C564.925 42.1827 564.132 42.64 563.058 42.64C562.162 42.64 561.448 42.3133 560.916 41.66C560.384 40.9973 560.118 40.064 560.118 38.86Z" fill="black"/>
<path d="M438.883 35.5H440.801V34.562C440.801 32.9473 441.576 32.14 443.125 32.14C443.555 32.14 443.993 32.21 444.441 32.35L444.217 33.19C443.872 33.05 443.541 32.98 443.223 32.98C442.719 32.98 442.36 33.1013 442.145 33.344C441.94 33.5773 441.837 33.9833 441.837 34.562V35.5H444.343V36.34H441.837V42.5H440.801V36.34H438.883V35.5ZM446.978 35.22V39.742C446.978 40.4887 447.1 41.0113 447.342 41.31C447.594 41.6087 448.01 41.758 448.588 41.758C449.13 41.758 449.62 41.4967 450.058 40.974C450.506 40.4513 450.73 39.8307 450.73 39.112V35.22H451.752V42.5H450.772L450.758 41.198H450.73C450.45 41.646 450.091 42.0007 449.652 42.262C449.223 42.514 448.756 42.64 448.252 42.64C447.468 42.64 446.89 42.4207 446.516 41.982C446.152 41.534 445.97 40.82 445.97 39.84V35.22H446.978ZM453.847 35.22H454.827L454.841 36.522H454.869C455.149 36.074 455.504 35.724 455.933 35.472C456.372 35.2107 456.843 35.08 457.347 35.08C458.168 35.08 458.775 35.3367 459.167 35.85C459.568 36.354 459.769 37.1567 459.769 38.258V42.5H458.761V38.342C458.761 37.4367 458.63 36.8113 458.369 36.466C458.108 36.1113 457.66 35.934 457.025 35.934C456.484 35.934 455.989 36.2047 455.541 36.746C455.093 37.278 454.869 37.8987 454.869 38.608V42.5H453.847V35.22ZM464.996 35.934C464.175 35.934 463.535 36.1907 463.078 36.704C462.621 37.208 462.392 37.9267 462.392 38.86C462.392 39.756 462.63 40.47 463.106 41.002C463.591 41.534 464.221 41.8 464.996 41.8C465.649 41.8 466.275 41.6413 466.872 41.324L467.152 42.15C466.452 42.4767 465.719 42.64 464.954 42.64C463.871 42.64 462.994 42.2993 462.322 41.618C461.65 40.9273 461.314 40.008 461.314 38.86C461.314 37.6747 461.636 36.7507 462.28 36.088C462.924 35.416 463.815 35.08 464.954 35.08C465.719 35.08 466.452 35.2433 467.152 35.57L466.872 36.424C466.247 36.0973 465.621 35.934 464.996 35.934ZM471.415 32.84V35.5H474.173V36.34H471.415V40.162C471.415 40.8153 471.503 41.254 471.681 41.478C471.858 41.6927 472.189 41.8 472.675 41.8C473.104 41.8 473.515 41.7207 473.907 41.562L474.075 42.388C473.599 42.556 473.085 42.64 472.535 42.64C471.741 42.64 471.181 42.472 470.855 42.136C470.528 41.7907 470.365 41.198 470.365 40.358V36.34H468.755V35.5H470.365V32.84H471.415ZM476.395 32.28H482.527V33.218L479.181 36.508V36.536H479.601C480.59 36.536 481.346 36.774 481.869 37.25C482.401 37.726 482.667 38.4167 482.667 39.322C482.667 40.386 482.35 41.2073 481.715 41.786C481.09 42.3553 480.194 42.64 479.027 42.64C478.019 42.64 477.132 42.3973 476.367 41.912L476.703 41.002C477.487 41.4687 478.262 41.702 479.027 41.702C479.848 41.702 480.474 41.5013 480.903 41.1C481.332 40.6987 481.547 40.106 481.547 39.322C481.547 38.6593 481.323 38.1693 480.875 37.852C480.436 37.5253 479.732 37.362 478.761 37.362H477.739V36.494L481.085 33.246V33.218H476.395V32.28Z" fill="black"/>
<path d="M352.201 35.22H353.195L353.223 36.774H353.251C354.073 35.6447 355.23 35.08 356.723 35.08V35.962C355.687 35.962 354.847 36.2467 354.203 36.816C353.569 37.3853 353.251 38.1227 353.251 39.028V42.5H352.201V35.22ZM360.68 35.08C361.566 35.08 362.388 35.2667 363.144 35.64L362.92 36.466C362.201 36.102 361.454 35.92 360.68 35.92C360.138 35.92 359.723 36.018 359.434 36.214C359.154 36.41 359.014 36.6853 359.014 37.04C359.014 37.376 359.135 37.642 359.378 37.838C359.63 38.034 360.082 38.188 360.736 38.3C361.688 38.4587 362.369 38.72 362.78 39.084C363.2 39.448 363.41 39.9473 363.41 40.582C363.41 41.2167 363.167 41.7207 362.682 42.094C362.206 42.458 361.538 42.64 360.68 42.64C359.681 42.64 358.785 42.4067 357.992 41.94L358.23 41.114C358.995 41.5713 359.812 41.8 360.68 41.8C361.221 41.8 361.636 41.6973 361.926 41.492C362.215 41.2773 362.36 40.974 362.36 40.582C362.36 40.2087 362.229 39.9193 361.968 39.714C361.716 39.5087 361.268 39.35 360.624 39.238C359.7 39.0793 359.028 38.8273 358.608 38.482C358.197 38.1273 357.992 37.6467 357.992 37.04C357.992 36.4427 358.225 35.9667 358.692 35.612C359.168 35.2573 359.83 35.08 360.68 35.08ZM368.535 42.5V33.624H368.507L365.749 36.172L365.315 35.262L368.535 32.28H369.655V42.5H368.535Z" fill="black"/>
<path d="M227.701 35.22H228.695L228.723 36.774H228.751C229.573 35.6447 230.73 35.08 232.223 35.08V35.962C231.187 35.962 230.347 36.2467 229.703 36.816C229.069 37.3853 228.751 38.1227 228.751 39.028V42.5H227.701V35.22ZM236.18 35.08C237.066 35.08 237.888 35.2667 238.644 35.64L238.42 36.466C237.701 36.102 236.954 35.92 236.18 35.92C235.638 35.92 235.223 36.018 234.934 36.214C234.654 36.41 234.514 36.6853 234.514 37.04C234.514 37.376 234.635 37.642 234.878 37.838C235.13 38.034 235.582 38.188 236.236 38.3C237.188 38.4587 237.869 38.72 238.28 39.084C238.7 39.448 238.91 39.9473 238.91 40.582C238.91 41.2167 238.667 41.7207 238.182 42.094C237.706 42.458 237.038 42.64 236.18 42.64C235.181 42.64 234.285 42.4067 233.492 41.94L233.73 41.114C234.495 41.5713 235.312 41.8 236.18 41.8C236.721 41.8 237.136 41.6973 237.426 41.492C237.715 41.2773 237.86 40.974 237.86 40.582C237.86 40.2087 237.729 39.9193 237.468 39.714C237.216 39.5087 236.768 39.35 236.124 39.238C235.2 39.0793 234.528 38.8273 234.108 38.482C233.697 38.1273 233.492 37.6467 233.492 37.04C233.492 36.4427 233.725 35.9667 234.192 35.612C234.668 35.2573 235.33 35.08 236.18 35.08ZM243.797 33.092C242.873 33.092 241.949 33.414 241.025 34.058L240.689 33.162C241.641 32.4807 242.724 32.14 243.937 32.14C244.936 32.14 245.71 32.3967 246.261 32.91C246.812 33.414 247.087 34.1233 247.087 35.038C247.087 35.9527 246.756 36.8767 246.093 37.81C245.43 38.7433 244.189 39.9847 242.369 41.534V41.562H247.129V42.5H240.829V41.562C242.817 39.9193 244.166 38.6407 244.875 37.726C245.584 36.802 245.939 35.934 245.939 35.122C245.939 34.4593 245.757 33.9553 245.393 33.61C245.029 33.2647 244.497 33.092 243.797 33.092Z" fill="black"/>
<path d="M159.732 35.22H160.726L160.754 36.774H160.782C161.603 35.6447 162.76 35.08 164.254 35.08V35.962C163.218 35.962 162.378 36.2467 161.734 36.816C161.099 37.3853 160.782 38.1227 160.782 39.028V42.5H159.732V35.22ZM166.635 42.5V32H167.713V42.5H166.635Z" fill="black"/>
<path d="M135.362 35.08C136.38 35.08 137.108 35.29 137.546 35.71C137.985 36.13 138.204 36.8207 138.204 37.782V40.54C138.204 41.2027 138.274 41.856 138.414 42.5H137.434C137.36 42.136 137.313 41.7067 137.294 41.212H137.266C137.014 41.66 136.65 42.01 136.174 42.262C135.698 42.514 135.162 42.64 134.564 42.64C133.892 42.64 133.356 42.4533 132.954 42.08C132.553 41.6973 132.352 41.184 132.352 40.54C132.352 39.728 132.707 39.084 133.416 38.608C134.126 38.1227 135.134 37.88 136.44 37.88H137.182V37.81C137.182 37.1007 137.047 36.6107 136.776 36.34C136.515 36.06 136.044 35.92 135.362 35.92C134.485 35.92 133.668 36.1347 132.912 36.564L132.73 35.738C133.533 35.2993 134.41 35.08 135.362 35.08ZM133.36 40.498C133.36 40.918 133.491 41.2493 133.752 41.492C134.014 41.7253 134.364 41.842 134.802 41.842C135.446 41.842 136.002 41.6133 136.468 41.156C136.944 40.6893 137.182 40.12 137.182 39.448V38.664H136.44C135.46 38.664 134.7 38.832 134.158 39.168C133.626 39.4947 133.36 39.938 133.36 40.498ZM141.534 36.69C141.152 37.194 140.96 37.9173 140.96 38.86C140.96 39.8027 141.156 40.5307 141.548 41.044C141.94 41.548 142.468 41.8 143.13 41.8C143.765 41.8 144.278 41.5527 144.67 41.058C145.072 40.5633 145.272 39.8633 145.272 38.958V38.762C145.272 37.8753 145.076 37.18 144.684 36.676C144.292 36.172 143.774 35.92 143.13 35.92C142.449 35.92 141.917 36.1767 141.534 36.69ZM139.952 38.86C139.952 37.6373 140.214 36.704 140.736 36.06C141.259 35.4067 141.978 35.08 142.892 35.08C143.966 35.08 144.759 35.5373 145.272 36.452H145.3L145.314 35.22H146.294V45.58H145.272V41.366H145.244C144.731 42.2153 143.947 42.64 142.892 42.64C142.006 42.64 141.292 42.3087 140.75 41.646C140.218 40.9833 139.952 40.0547 139.952 38.86Z" fill="black"/>
<path d="M42.3833 35.5H44.3013V34.562C44.3013 32.9473 45.0759 32.14 46.6253 32.14C47.0546 32.14 47.4933 32.21 47.9413 32.35L47.7173 33.19C47.3719 33.05 47.0406 32.98 46.7233 32.98C46.2193 32.98 45.8599 33.1013 45.6453 33.344C45.4399 33.5773 45.3373 33.9833 45.3373 34.562V35.5H47.8433V36.34H45.3373V42.5H44.3013V36.34H42.3833V35.5ZM50.4782 35.22V39.742C50.4782 40.4887 50.5996 41.0113 50.8422 41.31C51.0942 41.6087 51.5096 41.758 52.0882 41.758C52.6296 41.758 53.1196 41.4967 53.5582 40.974C54.0062 40.4513 54.2302 39.8307 54.2302 39.112V35.22H55.2522V42.5H54.2722L54.2582 41.198H54.2302C53.9502 41.646 53.5909 42.0007 53.1522 42.262C52.7229 42.514 52.2562 42.64 51.7522 42.64C50.9682 42.64 50.3896 42.4207 50.0162 41.982C49.6522 41.534 49.4702 40.82 49.4702 39.84V35.22H50.4782ZM57.3469 35.22H58.3269L58.3409 36.522H58.3689C58.6489 36.074 59.0035 35.724 59.4329 35.472C59.8715 35.2107 60.3429 35.08 60.8469 35.08C61.6682 35.08 62.2749 35.3367 62.6669 35.85C63.0682 36.354 63.2689 37.1567 63.2689 38.258V42.5H62.2609V38.342C62.2609 37.4367 62.1302 36.8113 61.8689 36.466C61.6075 36.1113 61.1595 35.934 60.5249 35.934C59.9835 35.934 59.4889 36.2047 59.0409 36.746C58.5929 37.278 58.3689 37.8987 58.3689 38.608V42.5H57.3469V35.22ZM68.4959 35.934C67.6746 35.934 67.0352 36.1907 66.5779 36.704C66.1206 37.208 65.8919 37.9267 65.8919 38.86C65.8919 39.756 66.1299 40.47 66.6059 41.002C67.0912 41.534 67.7212 41.8 68.4959 41.8C69.1492 41.8 69.7746 41.6413 70.3719 41.324L70.6519 42.15C69.9519 42.4767 69.2192 42.64 68.4539 42.64C67.3712 42.64 66.4939 42.2993 65.8219 41.618C65.1499 40.9273 64.8139 40.008 64.8139 38.86C64.8139 37.6747 65.1359 36.7507 65.7799 36.088C66.4239 35.416 67.3152 35.08 68.4539 35.08C69.2192 35.08 69.9519 35.2433 70.6519 35.57L70.3719 36.424C69.7466 36.0973 69.1212 35.934 68.4959 35.934ZM74.9147 32.84V35.5H77.6727V36.34H74.9147V40.162C74.9147 40.8153 75.0034 41.254 75.1807 41.478C75.358 41.6927 75.6894 41.8 76.1747 41.8C76.604 41.8 77.0147 41.7207 77.4067 41.562L77.5747 42.388C77.0987 42.556 76.5854 42.64 76.0347 42.64C75.2414 42.64 74.6814 42.472 74.3547 42.136C74.028 41.7907 73.8647 41.198 73.8647 40.358V36.34H72.2547V35.5H73.8647V32.84H74.9147ZM85.8731 33.218H81.4491L81.2531 36.522H81.2811C81.8317 36.1953 82.4524 36.032 83.1431 36.032C84.1417 36.032 84.9164 36.3027 85.4671 36.844C86.0177 37.3853 86.2931 38.1507 86.2931 39.14C86.2931 40.2787 85.9711 41.1467 85.3271 41.744C84.6924 42.3413 83.7591 42.64 82.5271 42.64C81.5751 42.64 80.6977 42.416 79.8951 41.968L80.1751 41.044C80.9591 41.4827 81.7431 41.702 82.5271 41.702C84.2911 41.702 85.1731 40.848 85.1731 39.14C85.1731 38.4213 84.9817 37.8753 84.5991 37.502C84.2164 37.1193 83.6657 36.928 82.9471 36.928C82.2097 36.928 81.5984 37.1427 81.1131 37.572H80.1331L80.4411 32.28H85.8731V33.218Z" fill="black"/>
<path d="M705.251 56.28H711.831V57.218C710.217 59.8687 708.868 62.9627 707.785 66.5H706.609C707.683 63.1213 709.064 60.0367 710.753 57.246V57.218H705.251V56.28Z" fill="black"/>
<path d="M692.091 80.5L695.829 70.28H697.089L700.813 80.5H699.623L698.587 77.518H694.275L693.253 80.5H692.091ZM694.583 76.622H698.279L696.445 71.288H696.417L694.583 76.622ZM702.498 80.5V70.28H703.632L707.272 76.44H707.3L710.94 70.28H712.116V80.5H710.996V72.156H710.968L707.804 77.462H706.768L703.604 72.156H703.576V80.5H702.498ZM722.468 79.212C721.563 80.164 720.359 80.64 718.856 80.64C717.353 80.64 716.145 80.164 715.23 79.212C714.315 78.2507 713.858 76.9767 713.858 75.39C713.858 73.8033 714.315 72.534 715.23 71.582C716.145 70.6207 717.353 70.14 718.856 70.14C720.359 70.14 721.563 70.6207 722.468 71.582C723.383 72.534 723.84 73.8033 723.84 75.39C723.84 76.9767 723.383 78.2507 722.468 79.212ZM718.856 79.702C720.013 79.702 720.942 79.3147 721.642 78.54C722.351 77.756 722.706 76.706 722.706 75.39C722.706 74.074 722.351 73.0287 721.642 72.254C720.942 71.47 720.013 71.078 718.856 71.078C717.689 71.078 716.751 71.47 716.042 72.254C715.342 73.0287 714.992 74.074 714.992 75.39C714.992 76.706 715.342 77.756 716.042 78.54C716.751 79.3147 717.689 79.702 718.856 79.702Z" fill="black"/>
<path d="M692.091 94.5L695.829 84.28H697.089L700.813 94.5H699.623L698.587 91.518H694.275L693.253 94.5H692.091ZM694.583 90.622H698.279L696.445 85.288H696.417L694.583 90.622ZM702.498 94.5V84.28H703.632L707.272 90.44H707.3L710.94 84.28H712.116V94.5H710.996V86.156H710.968L707.804 91.462H706.768L703.604 86.156H703.576V94.5H702.498ZM722.468 93.212C721.563 94.164 720.359 94.64 718.856 94.64C717.353 94.64 716.145 94.164 715.23 93.212C714.315 92.2507 713.858 90.9767 713.858 89.39C713.858 87.8033 714.315 86.534 715.23 85.582C716.145 84.6207 717.353 84.14 718.856 84.14C720.359 84.14 721.563 84.6207 722.468 85.582C723.383 86.534 723.84 87.8033 723.84 89.39C723.84 90.9767 723.383 92.2507 722.468 93.212ZM718.856 93.702C720.013 93.702 720.942 93.3147 721.642 92.54C722.351 91.756 722.706 90.706 722.706 89.39C722.706 88.074 722.351 87.0287 721.642 86.254C720.942 85.47 720.013 85.078 718.856 85.078C717.689 85.078 716.751 85.47 716.042 86.254C715.342 87.0287 714.992 88.074 714.992 89.39C714.992 90.706 715.342 91.756 716.042 92.54C716.751 93.3147 717.689 93.702 718.856 93.702Z" fill="black"/>
<path d="M562.827 57.218H558.403L558.207 60.522H558.235C558.786 60.1953 559.407 60.032 560.097 60.032C561.096 60.032 561.871 60.3027 562.421 60.844C562.972 61.3853 563.247 62.1507 563.247 63.14C563.247 64.2787 562.925 65.1467 562.281 65.744C561.647 66.3413 560.713 66.64 559.481 66.64C558.529 66.64 557.652 66.416 556.849 65.968L557.129 65.044C557.913 65.4827 558.697 65.702 559.481 65.702C561.245 65.702 562.127 64.848 562.127 63.14C562.127 62.4213 561.936 61.8753 561.553 61.502C561.171 61.1193 560.62 60.928 559.901 60.928C559.164 60.928 558.553 61.1427 558.067 61.572H557.087L557.395 56.28H562.827V57.218Z" fill="black"/>
<path d="M547.399 74.69C547.016 75.194 546.825 75.9173 546.825 76.86C546.825 77.8027 547.021 78.5307 547.413 79.044C547.805 79.548 548.332 79.8 548.995 79.8C549.629 79.8 550.143 79.5527 550.535 79.058C550.936 78.5633 551.137 77.8633 551.137 76.958V76.762C551.137 75.8753 550.936 75.18 550.535 74.676C550.143 74.172 549.629 73.92 548.995 73.92C548.313 73.92 547.781 74.1767 547.399 74.69ZM545.817 76.86C545.817 75.6373 546.078 74.704 546.601 74.06C547.123 73.4067 547.842 73.08 548.757 73.08C549.811 73.08 550.595 73.5233 551.109 74.41H551.137V70H552.159V80.5H551.179L551.165 79.268H551.137C550.623 80.1827 549.83 80.64 548.757 80.64C547.861 80.64 547.147 80.3133 546.615 79.66C546.083 78.9973 545.817 78.064 545.817 76.86ZM554.89 77.252C554.909 78.0453 555.152 78.6707 555.618 79.128C556.085 79.5853 556.692 79.814 557.438 79.814C558.157 79.814 558.871 79.6273 559.58 79.254L559.86 80.052C559.076 80.444 558.236 80.64 557.34 80.64C556.295 80.64 555.45 80.2993 554.806 79.618C554.162 78.9367 553.84 78.0173 553.84 76.86C553.84 75.684 554.139 74.76 554.736 74.088C555.343 73.416 556.164 73.08 557.2 73.08C558.208 73.08 558.988 73.402 559.538 74.046C560.098 74.6807 560.378 75.5953 560.378 76.79C560.378 76.9113 560.369 77.0653 560.35 77.252H554.89ZM554.89 76.44H559.37C559.361 75.628 559.165 75.0027 558.782 74.564C558.4 74.1253 557.872 73.906 557.2 73.906C556.5 73.906 555.945 74.13 555.534 74.578C555.133 75.0167 554.918 75.6373 554.89 76.44ZM564.449 73.08C565.336 73.08 566.157 73.2667 566.913 73.64L566.689 74.466C565.971 74.102 565.224 73.92 564.449 73.92C563.908 73.92 563.493 74.018 563.203 74.214C562.923 74.41 562.783 74.6853 562.783 75.04C562.783 75.376 562.905 75.642 563.147 75.838C563.399 76.034 563.852 76.188 564.505 76.3C565.457 76.4587 566.139 76.72 566.549 77.084C566.969 77.448 567.179 77.9473 567.179 78.582C567.179 79.2167 566.937 79.7207 566.451 80.094C565.975 80.458 565.308 80.64 564.449 80.64C563.451 80.64 562.555 80.4067 561.761 79.94L561.999 79.114C562.765 79.5713 563.581 79.8 564.449 79.8C564.991 79.8 565.406 79.6973 565.695 79.492C565.985 79.2773 566.129 78.974 566.129 78.582C566.129 78.2087 565.999 77.9193 565.737 77.714C565.485 77.5087 565.037 77.35 564.393 77.238C563.469 77.0793 562.797 76.8273 562.377 76.482C561.967 76.1273 561.761 75.6467 561.761 75.04C561.761 74.4427 561.995 73.9667 562.461 73.612C562.937 73.2573 563.6 73.08 564.449 73.08ZM571.023 70.84V73.5H573.781V74.34H571.023V78.162C571.023 78.8153 571.112 79.254 571.289 79.478C571.466 79.6927 571.798 79.8 572.283 79.8C572.712 79.8 573.123 79.7207 573.515 79.562L573.683 80.388C573.207 80.556 572.694 80.64 572.143 80.64C571.35 80.64 570.79 80.472 570.463 80.136C570.136 79.7907 569.973 79.198 569.973 78.358V74.34H568.363V73.5H569.973V70.84H571.023Z" fill="black"/>
<path d="M547.399 88.69C547.016 89.194 546.825 89.9173 546.825 90.86C546.825 91.8027 547.021 92.5307 547.413 93.044C547.805 93.548 548.332 93.8 548.995 93.8C549.629 93.8 550.143 93.5527 550.535 93.058C550.936 92.5633 551.137 91.8633 551.137 90.958V90.762C551.137 89.8753 550.936 89.18 550.535 88.676C550.143 88.172 549.629 87.92 548.995 87.92C548.313 87.92 547.781 88.1767 547.399 88.69ZM545.817 90.86C545.817 89.6373 546.078 88.704 546.601 88.06C547.123 87.4067 547.842 87.08 548.757 87.08C549.811 87.08 550.595 87.5233 551.109 88.41H551.137V84H552.159V94.5H551.179L551.165 93.268H551.137C550.623 94.1827 549.83 94.64 548.757 94.64C547.861 94.64 547.147 94.3133 546.615 93.66C546.083 92.9973 545.817 92.064 545.817 90.86ZM554.89 91.252C554.909 92.0453 555.152 92.6707 555.618 93.128C556.085 93.5853 556.692 93.814 557.438 93.814C558.157 93.814 558.871 93.6273 559.58 93.254L559.86 94.052C559.076 94.444 558.236 94.64 557.34 94.64C556.295 94.64 555.45 94.2993 554.806 93.618C554.162 92.9367 553.84 92.0173 553.84 90.86C553.84 89.684 554.139 88.76 554.736 88.088C555.343 87.416 556.164 87.08 557.2 87.08C558.208 87.08 558.988 87.402 559.538 88.046C560.098 88.6807 560.378 89.5953 560.378 90.79C560.378 90.9113 560.369 91.0653 560.35 91.252H554.89ZM554.89 90.44H559.37C559.361 89.628 559.165 89.0027 558.782 88.564C558.4 88.1253 557.872 87.906 557.2 87.906C556.5 87.906 555.945 88.13 555.534 88.578C555.133 89.0167 554.918 89.6373 554.89 90.44ZM564.449 87.08C565.336 87.08 566.157 87.2667 566.913 87.64L566.689 88.466C565.971 88.102 565.224 87.92 564.449 87.92C563.908 87.92 563.493 88.018 563.203 88.214C562.923 88.41 562.783 88.6853 562.783 89.04C562.783 89.376 562.905 89.642 563.147 89.838C563.399 90.034 563.852 90.188 564.505 90.3C565.457 90.4587 566.139 90.72 566.549 91.084C566.969 91.448 567.179 91.9473 567.179 92.582C567.179 93.2167 566.937 93.7207 566.451 94.094C565.975 94.458 565.308 94.64 564.449 94.64C563.451 94.64 562.555 94.4067 561.761 93.94L561.999 93.114C562.765 93.5713 563.581 93.8 564.449 93.8C564.991 93.8 565.406 93.6973 565.695 93.492C565.985 93.2773 566.129 92.974 566.129 92.582C566.129 92.2087 565.999 91.9193 565.737 91.714C565.485 91.5087 565.037 91.35 564.393 91.238C563.469 91.0793 562.797 90.8273 562.377 90.482C561.967 90.1273 561.761 89.6467 561.761 89.04C561.761 88.4427 561.995 87.9667 562.461 87.612C562.937 87.2573 563.6 87.08 564.449 87.08ZM571.023 84.84V87.5H573.781V88.34H571.023V92.162C571.023 92.8153 571.112 93.254 571.289 93.478C571.466 93.6927 571.798 93.8 572.283 93.8C572.712 93.8 573.123 93.7207 573.515 93.562L573.683 94.388C573.207 94.556 572.694 94.64 572.143 94.64C571.35 94.64 570.79 94.472 570.463 94.136C570.136 93.7907 569.973 93.198 569.973 92.358V88.34H568.363V87.5H569.973V84.84H571.023Z" fill="black"/>
<path d="M457.849 56.28H463.981V57.218L460.635 60.508V60.536H461.055C462.045 60.536 462.801 60.774 463.323 61.25C463.855 61.726 464.121 62.4167 464.121 63.322C464.121 64.386 463.804 65.2073 463.169 65.786C462.544 66.3553 461.648 66.64 460.481 66.64C459.473 66.64 458.587 66.3973 457.821 65.912L458.157 65.002C458.941 65.4687 459.716 65.702 460.481 65.702C461.303 65.702 461.928 65.5013 462.357 65.1C462.787 64.6987 463.001 64.106 463.001 63.322C463.001 62.6593 462.777 62.1693 462.329 61.852C461.891 61.5253 461.186 61.362 460.215 61.362H459.193V60.494L462.539 57.246V57.218H457.849V56.28Z" fill="black"/>
<path d="M443.33 73.22L444.94 79.576H444.968L446.522 73.22H447.964L449.518 79.576H449.546L451.156 73.22H452.262L450.19 80.5H448.79L447.236 74.242H447.208L445.654 80.5H444.254L442.182 73.22H443.33ZM454.496 71.54V70H455.574V71.54H454.496ZM454.496 80.5V73.22H455.574V80.5H454.496ZM459.391 74.69C459.008 75.194 458.817 75.9173 458.817 76.86C458.817 77.8027 459.013 78.5307 459.405 79.044C459.797 79.548 460.324 79.8 460.987 79.8C461.621 79.8 462.135 79.5527 462.527 79.058C462.928 78.5633 463.129 77.8633 463.129 76.958V76.762C463.129 75.8753 462.928 75.18 462.527 74.676C462.135 74.172 461.621 73.92 460.987 73.92C460.305 73.92 459.773 74.1767 459.391 74.69ZM457.809 76.86C457.809 75.6373 458.07 74.704 458.593 74.06C459.115 73.4067 459.834 73.08 460.749 73.08C461.803 73.08 462.587 73.5233 463.101 74.41H463.129V70H464.151V80.5H463.171L463.157 79.268H463.129C462.615 80.1827 461.822 80.64 460.749 80.64C459.853 80.64 459.139 80.3133 458.607 79.66C458.075 78.9973 457.809 78.064 457.809 76.86ZM468.632 70.84V73.5H471.39V74.34H468.632V78.162C468.632 78.8153 468.721 79.254 468.898 79.478C469.076 79.6927 469.407 79.8 469.892 79.8C470.322 79.8 470.732 79.7207 471.124 79.562L471.292 80.388C470.816 80.556 470.303 80.64 469.752 80.64C468.959 80.64 468.399 80.472 468.072 80.136C467.746 79.7907 467.582 79.198 467.582 78.358V74.34H465.972V73.5H467.582V70.84H468.632ZM473.543 70H474.565V74.466H474.593C475.209 73.542 476.026 73.08 477.043 73.08C477.864 73.08 478.471 73.3367 478.863 73.85C479.264 74.354 479.465 75.1567 479.465 76.258V80.5H478.457V76.342C478.457 75.4367 478.326 74.8113 478.065 74.466C477.804 74.1113 477.356 73.934 476.721 73.934C476.161 73.934 475.662 74.2093 475.223 74.76C474.784 75.3013 474.565 75.9173 474.565 76.608V80.5H473.543V70Z" fill="black"/>
<path d="M443.33 87.22L444.94 93.576H444.968L446.522 87.22H447.964L449.518 93.576H449.546L451.156 87.22H452.262L450.19 94.5H448.79L447.236 88.242H447.208L445.654 94.5H444.254L442.182 87.22H443.33ZM454.496 85.54V84H455.574V85.54H454.496ZM454.496 94.5V87.22H455.574V94.5H454.496ZM459.391 88.69C459.008 89.194 458.817 89.9173 458.817 90.86C458.817 91.8027 459.013 92.5307 459.405 93.044C459.797 93.548 460.324 93.8 460.987 93.8C461.621 93.8 462.135 93.5527 462.527 93.058C462.928 92.5633 463.129 91.8633 463.129 90.958V90.762C463.129 89.8753 462.928 89.18 462.527 88.676C462.135 88.172 461.621 87.92 460.987 87.92C460.305 87.92 459.773 88.1767 459.391 88.69ZM457.809 90.86C457.809 89.6373 458.07 88.704 458.593 88.06C459.115 87.4067 459.834 87.08 460.749 87.08C461.803 87.08 462.587 87.5233 463.101 88.41H463.129V84H464.151V94.5H463.171L463.157 93.268H463.129C462.615 94.1827 461.822 94.64 460.749 94.64C459.853 94.64 459.139 94.3133 458.607 93.66C458.075 92.9973 457.809 92.064 457.809 90.86ZM468.632 84.84V87.5H471.39V88.34H468.632V92.162C468.632 92.8153 468.721 93.254 468.898 93.478C469.076 93.6927 469.407 93.8 469.892 93.8C470.322 93.8 470.732 93.7207 471.124 93.562L471.292 94.388C470.816 94.556 470.303 94.64 469.752 94.64C468.959 94.64 468.399 94.472 468.072 94.136C467.746 93.7907 467.582 93.198 467.582 92.358V88.34H465.972V87.5H467.582V84.84H468.632ZM473.543 84H474.565V88.466H474.593C475.209 87.542 476.026 87.08 477.043 87.08C477.864 87.08 478.471 87.3367 478.863 87.85C479.264 88.354 479.465 89.1567 479.465 90.258V94.5H478.457V90.342C478.457 89.4367 478.326 88.8113 478.065 88.466C477.804 88.1113 477.356 87.934 476.721 87.934C476.161 87.934 475.662 88.2093 475.223 88.76C474.784 89.3013 474.565 89.9173 474.565 90.608V94.5H473.543V84Z" fill="black"/>
<path d="M364.827 57.218H360.403L360.207 60.522H360.235C360.786 60.1953 361.407 60.032 362.097 60.032C363.096 60.032 363.871 60.3027 364.421 60.844C364.972 61.3853 365.247 62.1507 365.247 63.14C365.247 64.2787 364.925 65.1467 364.281 65.744C363.647 66.3413 362.713 66.64 361.481 66.64C360.529 66.64 359.652 66.416 358.849 65.968L359.129 65.044C359.913 65.4827 360.697 65.702 361.481 65.702C363.245 65.702 364.127 64.848 364.127 63.14C364.127 62.4213 363.936 61.8753 363.553 61.502C363.171 61.1193 362.62 60.928 361.901 60.928C361.164 60.928 360.553 61.1427 360.067 61.572H359.087L359.395 56.28H364.827V57.218Z" fill="black"/>
<path d="M350.609 73.08C351.627 73.08 352.355 73.29 352.793 73.71C353.232 74.13 353.451 74.8207 353.451 75.782V78.54C353.451 79.2027 353.521 79.856 353.661 80.5H352.681C352.607 80.136 352.56 79.7067 352.541 79.212H352.513C352.261 79.66 351.897 80.01 351.421 80.262C350.945 80.514 350.409 80.64 349.811 80.64C349.139 80.64 348.603 80.4533 348.201 80.08C347.8 79.6973 347.599 79.184 347.599 78.54C347.599 77.728 347.954 77.084 348.663 76.608C349.373 76.1227 350.381 75.88 351.687 75.88H352.429V75.81C352.429 75.1007 352.294 74.6107 352.023 74.34C351.762 74.06 351.291 73.92 350.609 73.92C349.732 73.92 348.915 74.1347 348.159 74.564L347.977 73.738C348.78 73.2993 349.657 73.08 350.609 73.08ZM348.607 78.498C348.607 78.918 348.738 79.2493 348.999 79.492C349.261 79.7253 349.611 79.842 350.049 79.842C350.693 79.842 351.249 79.6133 351.715 79.156C352.191 78.6893 352.429 78.12 352.429 77.448V76.664H351.687C350.707 76.664 349.947 76.832 349.405 77.168C348.873 77.4947 348.607 77.938 348.607 78.498ZM356.781 74.69C356.399 75.194 356.207 75.9173 356.207 76.86C356.207 77.8027 356.403 78.5307 356.795 79.044C357.187 79.548 357.715 79.8 358.377 79.8C359.012 79.8 359.525 79.5527 359.917 79.058C360.319 78.5633 360.519 77.8633 360.519 76.958V76.762C360.519 75.8753 360.319 75.18 359.917 74.676C359.525 74.172 359.012 73.92 358.377 73.92C357.696 73.92 357.164 74.1767 356.781 74.69ZM355.199 76.86C355.199 75.6373 355.461 74.704 355.983 74.06C356.506 73.4067 357.225 73.08 358.139 73.08C359.194 73.08 359.978 73.5233 360.491 74.41H360.519V70H361.541V80.5H360.561L360.547 79.268H360.519C360.006 80.1827 359.213 80.64 358.139 80.64C357.243 80.64 356.529 80.3133 355.997 79.66C355.465 78.9973 355.199 78.064 355.199 76.86ZM364.875 74.69C364.492 75.194 364.301 75.9173 364.301 76.86C364.301 77.8027 364.497 78.5307 364.889 79.044C365.281 79.548 365.808 79.8 366.471 79.8C367.106 79.8 367.619 79.5527 368.011 79.058C368.412 78.5633 368.613 77.8633 368.613 76.958V76.762C368.613 75.8753 368.412 75.18 368.011 74.676C367.619 74.172 367.106 73.92 366.471 73.92C365.79 73.92 365.258 74.1767 364.875 74.69ZM363.293 76.86C363.293 75.6373 363.554 74.704 364.077 74.06C364.6 73.4067 365.318 73.08 366.233 73.08C367.288 73.08 368.072 73.5233 368.585 74.41H368.613V70H369.635V80.5H368.655L368.641 79.268H368.613C368.1 80.1827 367.306 80.64 366.233 80.64C365.337 80.64 364.623 80.3133 364.091 79.66C363.559 78.9973 363.293 78.064 363.293 76.86ZM371.807 73.22H372.801L372.829 74.774H372.857C373.678 73.6447 374.836 73.08 376.329 73.08V73.962C375.293 73.962 374.453 74.2467 373.809 74.816C373.174 75.3853 372.857 76.1227 372.857 77.028V80.5H371.807V73.22Z" fill="black"/>
<path d="M350.609 87.08C351.627 87.08 352.355 87.29 352.793 87.71C353.232 88.13 353.451 88.8207 353.451 89.782V92.54C353.451 93.2027 353.521 93.856 353.661 94.5H352.681C352.607 94.136 352.56 93.7067 352.541 93.212H352.513C352.261 93.66 351.897 94.01 351.421 94.262C350.945 94.514 350.409 94.64 349.811 94.64C349.139 94.64 348.603 94.4533 348.201 94.08C347.8 93.6973 347.599 93.184 347.599 92.54C347.599 91.728 347.954 91.084 348.663 90.608C349.373 90.1227 350.381 89.88 351.687 89.88H352.429V89.81C352.429 89.1007 352.294 88.6107 352.023 88.34C351.762 88.06 351.291 87.92 350.609 87.92C349.732 87.92 348.915 88.1347 348.159 88.564L347.977 87.738C348.78 87.2993 349.657 87.08 350.609 87.08ZM348.607 92.498C348.607 92.918 348.738 93.2493 348.999 93.492C349.261 93.7253 349.611 93.842 350.049 93.842C350.693 93.842 351.249 93.6133 351.715 93.156C352.191 92.6893 352.429 92.12 352.429 91.448V90.664H351.687C350.707 90.664 349.947 90.832 349.405 91.168C348.873 91.4947 348.607 91.938 348.607 92.498ZM356.781 88.69C356.399 89.194 356.207 89.9173 356.207 90.86C356.207 91.8027 356.403 92.5307 356.795 93.044C357.187 93.548 357.715 93.8 358.377 93.8C359.012 93.8 359.525 93.5527 359.917 93.058C360.319 92.5633 360.519 91.8633 360.519 90.958V90.762C360.519 89.8753 360.319 89.18 359.917 88.676C359.525 88.172 359.012 87.92 358.377 87.92C357.696 87.92 357.164 88.1767 356.781 88.69ZM355.199 90.86C355.199 89.6373 355.461 88.704 355.983 88.06C356.506 87.4067 357.225 87.08 358.139 87.08C359.194 87.08 359.978 87.5233 360.491 88.41H360.519V84H361.541V94.5H360.561L360.547 93.268H360.519C360.006 94.1827 359.213 94.64 358.139 94.64C357.243 94.64 356.529 94.3133 355.997 93.66C355.465 92.9973 355.199 92.064 355.199 90.86ZM364.875 88.69C364.492 89.194 364.301 89.9173 364.301 90.86C364.301 91.8027 364.497 92.5307 364.889 93.044C365.281 93.548 365.808 93.8 366.471 93.8C367.106 93.8 367.619 93.5527 368.011 93.058C368.412 92.5633 368.613 91.8633 368.613 90.958V90.762C368.613 89.8753 368.412 89.18 368.011 88.676C367.619 88.172 367.106 87.92 366.471 87.92C365.79 87.92 365.258 88.1767 364.875 88.69ZM363.293 90.86C363.293 89.6373 363.554 88.704 364.077 88.06C364.6 87.4067 365.318 87.08 366.233 87.08C367.288 87.08 368.072 87.5233 368.585 88.41H368.613V84H369.635V94.5H368.655L368.641 93.268H368.613C368.1 94.1827 367.306 94.64 366.233 94.64C365.337 94.64 364.623 94.3133 364.091 93.66C363.559 92.9973 363.293 92.064 363.293 90.86ZM371.807 87.22H372.801L372.829 88.774H372.857C373.678 87.6447 374.836 87.08 376.329 87.08V87.962C375.293 87.962 374.453 88.2467 373.809 88.816C373.174 89.3853 372.857 90.1227 372.857 91.028V94.5H371.807V87.22Z" fill="black"/>
<path d="M240.827 57.218H236.403L236.207 60.522H236.235C236.786 60.1953 237.407 60.032 238.097 60.032C239.096 60.032 239.871 60.3027 240.421 60.844C240.972 61.3853 241.247 62.1507 241.247 63.14C241.247 64.2787 240.925 65.1467 240.281 65.744C239.647 66.3413 238.713 66.64 237.481 66.64C236.529 66.64 235.652 66.416 234.849 65.968L235.129 65.044C235.913 65.4827 236.697 65.702 237.481 65.702C239.245 65.702 240.127 64.848 240.127 63.14C240.127 62.4213 239.936 61.8753 239.553 61.502C239.171 61.1193 238.62 60.928 237.901 60.928C237.164 60.928 236.553 61.1427 236.067 61.572H235.087L235.395 56.28H240.827V57.218Z" fill="black"/>
<path d="M235.283 71.358C235.927 70.546 236.833 70.14 237.999 70.14C239.166 70.14 240.071 70.546 240.715 71.358C241.359 72.17 241.681 73.514 241.681 75.39C241.681 77.266 241.359 78.61 240.715 79.422C240.071 80.234 239.166 80.64 237.999 80.64C236.833 80.64 235.927 80.234 235.283 79.422C234.639 78.61 234.317 77.266 234.317 75.39C234.317 73.514 234.639 72.17 235.283 71.358ZM236.067 78.708C236.497 79.3893 237.141 79.73 237.999 79.73C238.858 79.73 239.497 79.3893 239.917 78.708C240.347 78.0173 240.561 76.9113 240.561 75.39C240.561 73.8687 240.347 72.7673 239.917 72.086C239.497 71.3953 238.858 71.05 237.999 71.05C237.141 71.05 236.497 71.3953 236.067 72.086C235.647 72.7673 235.437 73.8687 235.437 75.39C235.437 76.9113 235.647 78.0173 236.067 78.708Z" fill="black"/>
<path d="M231.3 87.08C232.186 87.08 233.008 87.2667 233.764 87.64L233.54 88.466C232.821 88.102 232.074 87.92 231.3 87.92C230.758 87.92 230.343 88.018 230.054 88.214C229.774 88.41 229.634 88.6853 229.634 89.04C229.634 89.376 229.755 89.642 229.998 89.838C230.25 90.034 230.702 90.188 231.356 90.3C232.308 90.4587 232.989 90.72 233.4 91.084C233.82 91.448 234.03 91.9473 234.03 92.582C234.03 93.2167 233.787 93.7207 233.302 94.094C232.826 94.458 232.158 94.64 231.3 94.64C230.301 94.64 229.405 94.4067 228.612 93.94L228.85 93.114C229.615 93.5713 230.432 93.8 231.3 93.8C231.841 93.8 232.256 93.6973 232.546 93.492C232.835 93.2773 232.98 92.974 232.98 92.582C232.98 92.2087 232.849 91.9193 232.588 91.714C232.336 91.5087 231.888 91.35 231.244 91.238C230.32 91.0793 229.648 90.8273 229.228 90.482C228.817 90.1273 228.612 89.6467 228.612 89.04C228.612 88.4427 228.845 87.9667 229.312 87.612C229.788 87.2573 230.45 87.08 231.3 87.08ZM235.837 87.22H236.831L236.859 88.774H236.887C237.708 87.6447 238.866 87.08 240.359 87.08V87.962C239.323 87.962 238.483 88.2467 237.839 88.816C237.204 89.3853 236.887 90.1227 236.887 91.028V94.5H235.837V87.22ZM245.099 87.934C244.278 87.934 243.639 88.1907 243.181 88.704C242.724 89.208 242.495 89.9267 242.495 90.86C242.495 91.756 242.733 92.47 243.209 93.002C243.695 93.534 244.325 93.8 245.099 93.8C245.753 93.8 246.378 93.6413 246.975 93.324L247.255 94.15C246.555 94.4767 245.823 94.64 245.057 94.64C243.975 94.64 243.097 94.2993 242.425 93.618C241.753 92.9273 241.417 92.008 241.417 90.86C241.417 89.6747 241.739 88.7507 242.383 88.088C243.027 87.416 243.919 87.08 245.057 87.08C245.823 87.08 246.555 87.2433 247.255 87.57L246.975 88.424C246.35 88.0973 245.725 87.934 245.099 87.934Z" fill="black"/>
<path d="M164.027 66.5V57.624H163.999L161.241 60.172L160.807 59.262L164.027 56.28H165.147V66.5H164.027Z" fill="black"/>
<path d="M140.027 66.5V57.624H139.999L137.241 60.172L136.807 59.262L140.027 56.28H141.147V66.5H140.027Z" fill="black"/>
<path d="M129.987 74.704C129.567 74.1813 128.988 73.92 128.251 73.92C127.513 73.92 126.93 74.1813 126.501 74.704C126.081 75.2173 125.871 75.936 125.871 76.86C125.871 77.784 126.081 78.5073 126.501 79.03C126.93 79.5433 127.513 79.8 128.251 79.8C128.988 79.8 129.567 79.5433 129.987 79.03C130.416 78.5073 130.631 77.784 130.631 76.86C130.631 75.936 130.416 75.2173 129.987 74.704ZM130.743 79.618C130.117 80.2993 129.287 80.64 128.251 80.64C127.215 80.64 126.384 80.2993 125.759 79.618C125.133 78.9367 124.821 78.0173 124.821 76.86C124.821 75.7027 125.133 74.7833 125.759 74.102C126.384 73.4207 127.215 73.08 128.251 73.08C129.287 73.08 130.117 73.4207 130.743 74.102C131.368 74.7833 131.681 75.7027 131.681 76.86C131.681 78.0173 131.368 78.9367 130.743 79.618ZM133.295 73.22H134.289L134.317 74.774H134.345C135.166 73.6447 136.324 73.08 137.817 73.08V73.962C136.781 73.962 135.941 74.2467 135.297 74.816C134.662 75.3853 134.345 76.1227 134.345 77.028V80.5H133.295V73.22ZM140.527 74.69C140.145 75.194 139.953 75.9173 139.953 76.86C139.953 77.8027 140.149 78.5307 140.541 79.044C140.933 79.548 141.461 79.8 142.123 79.8C142.758 79.8 143.271 79.5527 143.663 79.058C144.065 78.5633 144.265 77.8633 144.265 76.958V76.762C144.265 75.8753 144.065 75.18 143.663 74.676C143.271 74.172 142.758 73.92 142.123 73.92C141.442 73.92 140.91 74.1767 140.527 74.69ZM138.945 76.86C138.945 75.6373 139.207 74.704 139.729 74.06C140.252 73.4067 140.971 73.08 141.885 73.08C142.94 73.08 143.724 73.5233 144.237 74.41H144.265V70H145.287V80.5H144.307L144.293 79.268H144.265C143.752 80.1827 142.959 80.64 141.885 80.64C140.989 80.64 140.275 80.3133 139.743 79.66C139.211 78.9973 138.945 78.064 138.945 76.86ZM148.019 77.252C148.038 78.0453 148.281 78.6707 148.747 79.128C149.214 79.5853 149.821 79.814 150.567 79.814C151.286 79.814 152 79.6273 152.709 79.254L152.989 80.052C152.205 80.444 151.365 80.64 150.469 80.64C149.424 80.64 148.579 80.2993 147.935 79.618C147.291 78.9367 146.969 78.0173 146.969 76.86C146.969 75.684 147.268 74.76 147.865 74.088C148.472 73.416 149.293 73.08 150.329 73.08C151.337 73.08 152.117 73.402 152.667 74.046C153.227 74.6807 153.507 75.5953 153.507 76.79C153.507 76.9113 153.498 77.0653 153.479 77.252H148.019ZM148.019 76.44H152.499C152.49 75.628 152.294 75.0027 151.911 74.564C151.529 74.1253 151.001 73.906 150.329 73.906C149.629 73.906 149.074 74.13 148.663 74.578C148.262 75.0167 148.047 75.6373 148.019 76.44ZM155.17 73.22H156.164L156.192 74.774H156.22C157.041 73.6447 158.199 73.08 159.692 73.08V73.962C158.656 73.962 157.816 74.2467 157.172 74.816C156.537 75.3853 156.22 76.1227 156.22 77.028V80.5H155.17V73.22ZM162.074 71.54V70H163.152V71.54H162.074ZM162.074 80.5V73.22H163.152V80.5H162.074ZM165.807 73.22H166.787L166.801 74.522H166.829C167.109 74.074 167.464 73.724 167.893 73.472C168.332 73.2107 168.803 73.08 169.307 73.08C170.128 73.08 170.735 73.3367 171.127 73.85C171.528 74.354 171.729 75.1567 171.729 76.258V80.5H170.721V76.342C170.721 75.4367 170.59 74.8113 170.329 74.466C170.068 74.1113 169.62 73.934 168.985 73.934C168.444 73.934 167.949 74.2047 167.501 74.746C167.053 75.278 166.829 75.8987 166.829 76.608V80.5H165.807V73.22ZM174.352 76.72C174.352 77.588 174.543 78.274 174.926 78.778C175.318 79.2727 175.831 79.52 176.466 79.52C177.11 79.52 177.637 79.2773 178.048 78.792C178.459 78.3067 178.664 77.6393 178.664 76.79V76.65C178.664 75.81 178.459 75.1473 178.048 74.662C177.637 74.1673 177.11 73.92 176.466 73.92C175.803 73.92 175.285 74.1627 174.912 74.648C174.539 75.124 174.352 75.8147 174.352 76.72ZM173.344 76.72C173.344 75.5533 173.601 74.6573 174.114 74.032C174.627 73.3973 175.337 73.08 176.242 73.08C177.334 73.08 178.141 73.5327 178.664 74.438H178.692L178.706 73.22H179.686V79.898C179.686 82.446 178.552 83.72 176.284 83.72C175.491 83.72 174.735 83.5707 174.016 83.272L174.254 82.446C174.917 82.7353 175.593 82.88 176.284 82.88C177.105 82.88 177.707 82.6513 178.09 82.194C178.473 81.7367 178.664 80.9853 178.664 79.94V79.044H178.636C178.132 79.9213 177.334 80.36 176.242 80.36C175.393 80.36 174.697 80.0333 174.156 79.38C173.615 78.7173 173.344 77.8307 173.344 76.72Z" fill="black"/>
<path d="M129.987 88.704C129.567 88.1813 128.988 87.92 128.251 87.92C127.513 87.92 126.93 88.1813 126.501 88.704C126.081 89.2173 125.871 89.936 125.871 90.86C125.871 91.784 126.081 92.5073 126.501 93.03C126.93 93.5433 127.513 93.8 128.251 93.8C128.988 93.8 129.567 93.5433 129.987 93.03C130.416 92.5073 130.631 91.784 130.631 90.86C130.631 89.936 130.416 89.2173 129.987 88.704ZM130.743 93.618C130.117 94.2993 129.287 94.64 128.251 94.64C127.215 94.64 126.384 94.2993 125.759 93.618C125.133 92.9367 124.821 92.0173 124.821 90.86C124.821 89.7027 125.133 88.7833 125.759 88.102C126.384 87.4207 127.215 87.08 128.251 87.08C129.287 87.08 130.117 87.4207 130.743 88.102C131.368 88.7833 131.681 89.7027 131.681 90.86C131.681 92.0173 131.368 92.9367 130.743 93.618ZM133.295 87.22H134.289L134.317 88.774H134.345C135.166 87.6447 136.324 87.08 137.817 87.08V87.962C136.781 87.962 135.941 88.2467 135.297 88.816C134.662 89.3853 134.345 90.1227 134.345 91.028V94.5H133.295V87.22ZM140.527 88.69C140.145 89.194 139.953 89.9173 139.953 90.86C139.953 91.8027 140.149 92.5307 140.541 93.044C140.933 93.548 141.461 93.8 142.123 93.8C142.758 93.8 143.271 93.5527 143.663 93.058C144.065 92.5633 144.265 91.8633 144.265 90.958V90.762C144.265 89.8753 144.065 89.18 143.663 88.676C143.271 88.172 142.758 87.92 142.123 87.92C141.442 87.92 140.91 88.1767 140.527 88.69ZM138.945 90.86C138.945 89.6373 139.207 88.704 139.729 88.06C140.252 87.4067 140.971 87.08 141.885 87.08C142.94 87.08 143.724 87.5233 144.237 88.41H144.265V84H145.287V94.5H144.307L144.293 93.268H144.265C143.752 94.1827 142.959 94.64 141.885 94.64C140.989 94.64 140.275 94.3133 139.743 93.66C139.211 92.9973 138.945 92.064 138.945 90.86ZM148.019 91.252C148.038 92.0453 148.281 92.6707 148.747 93.128C149.214 93.5853 149.821 93.814 150.567 93.814C151.286 93.814 152 93.6273 152.709 93.254L152.989 94.052C152.205 94.444 151.365 94.64 150.469 94.64C149.424 94.64 148.579 94.2993 147.935 93.618C147.291 92.9367 146.969 92.0173 146.969 90.86C146.969 89.684 147.268 88.76 147.865 88.088C148.472 87.416 149.293 87.08 150.329 87.08C151.337 87.08 152.117 87.402 152.667 88.046C153.227 88.6807 153.507 89.5953 153.507 90.79C153.507 90.9113 153.498 91.0653 153.479 91.252H148.019ZM148.019 90.44H152.499C152.49 89.628 152.294 89.0027 151.911 88.564C151.529 88.1253 151.001 87.906 150.329 87.906C149.629 87.906 149.074 88.13 148.663 88.578C148.262 89.0167 148.047 89.6373 148.019 90.44ZM155.17 87.22H156.164L156.192 88.774H156.22C157.041 87.6447 158.199 87.08 159.692 87.08V87.962C158.656 87.962 157.816 88.2467 157.172 88.816C156.537 89.3853 156.22 90.1227 156.22 91.028V94.5H155.17V87.22ZM162.074 85.54V84H163.152V85.54H162.074ZM162.074 94.5V87.22H163.152V94.5H162.074ZM165.807 87.22H166.787L166.801 88.522H166.829C167.109 88.074 167.464 87.724 167.893 87.472C168.332 87.2107 168.803 87.08 169.307 87.08C170.128 87.08 170.735 87.3367 171.127 87.85C171.528 88.354 171.729 89.1567 171.729 90.258V94.5H170.721V90.342C170.721 89.4367 170.59 88.8113 170.329 88.466C170.068 88.1113 169.62 87.934 168.985 87.934C168.444 87.934 167.949 88.2047 167.501 88.746C167.053 89.278 166.829 89.8987 166.829 90.608V94.5H165.807V87.22ZM174.352 90.72C174.352 91.588 174.543 92.274 174.926 92.778C175.318 93.2727 175.831 93.52 176.466 93.52C177.11 93.52 177.637 93.2773 178.048 92.792C178.459 92.3067 178.664 91.6393 178.664 90.79V90.65C178.664 89.81 178.459 89.1473 178.048 88.662C177.637 88.1673 177.11 87.92 176.466 87.92C175.803 87.92 175.285 88.1627 174.912 88.648C174.539 89.124 174.352 89.8147 174.352 90.72ZM173.344 90.72C173.344 89.5533 173.601 88.6573 174.114 88.032C174.627 87.3973 175.337 87.08 176.242 87.08C177.334 87.08 178.141 87.5327 178.664 88.438H178.692L178.706 87.22H179.686V93.898C179.686 96.446 178.552 97.72 176.284 97.72C175.491 97.72 174.735 97.5707 174.016 97.272L174.254 96.446C174.917 96.7353 175.593 96.88 176.284 96.88C177.105 96.88 177.707 96.6513 178.09 96.194C178.473 95.7367 178.664 94.9853 178.664 93.94V93.044H178.636C178.132 93.9213 177.334 94.36 176.242 94.36C175.393 94.36 174.697 94.0333 174.156 93.38C173.615 92.7173 173.344 91.8307 173.344 90.72Z" fill="black"/>
<path d="M67.8272 57.218H63.4032L63.2072 60.522H63.2352C63.7858 60.1953 64.4065 60.032 65.0972 60.032C66.0958 60.032 66.8705 60.3027 67.4212 60.844C67.9718 61.3853 68.2472 62.1507 68.2472 63.14C68.2472 64.2787 67.9252 65.1467 67.2812 65.744C66.6465 66.3413 65.7132 66.64 64.4812 66.64C63.5292 66.64 62.6518 66.416 61.8492 65.968L62.1292 65.044C62.9132 65.4827 63.6972 65.702 64.4812 65.702C66.2452 65.702 67.1272 64.848 67.1272 63.14C67.1272 62.4213 66.9358 61.8753 66.5532 61.502C66.1705 61.1193 65.6198 60.928 64.9012 60.928C64.1638 60.928 63.5525 61.1427 63.0672 61.572H62.0872L62.3952 56.28H67.8272V57.218Z" fill="black"/>
<path d="M42.7563 70.28V79.548H47.7543V80.5H41.5943V70.28H42.7563ZM49.7838 80.5V70.35C50.5958 70.21 51.4684 70.14 52.4018 70.14C53.7084 70.14 54.6931 70.3827 55.3558 70.868C56.0278 71.344 56.3638 72.0253 56.3638 72.912C56.3638 73.6213 56.1724 74.214 55.7897 74.69C55.4071 75.166 54.8658 75.4927 54.1658 75.67V75.698C54.5858 75.922 55.0011 76.5287 55.4118 77.518L56.6438 80.5H55.4818L54.2778 77.546C53.9978 76.874 53.7318 76.4587 53.4798 76.3C53.2371 76.132 52.7518 76.048 52.0238 76.048H50.9038V80.5H49.7838ZM50.9038 75.152H52.0238C53.1344 75.152 53.9511 74.9747 54.4738 74.62C54.9964 74.256 55.2578 73.7193 55.2578 73.01C55.2578 71.7033 54.2731 71.05 52.3038 71.05C51.8091 71.05 51.3424 71.092 50.9038 71.176V75.152ZM58.6054 80.5V78.54H59.9074V80.5H58.6054ZM62.1843 70.28L64.2423 79.296H64.2703L66.3703 70.28H67.8263L69.9263 79.296H69.9543L72.0123 70.28H73.1183L70.6123 80.5H69.1983L67.0983 71.484H67.0703L64.9563 80.5H63.5563L61.0363 70.28H62.1843ZM79.3824 70.28L74.5524 81.06H73.4744L78.2904 70.28H79.3824ZM83.7344 71.078C83.2491 71.078 82.7964 71.12 82.3764 71.204V79.576C82.7964 79.66 83.2491 79.702 83.7344 79.702C86.5624 79.702 87.9764 78.218 87.9764 75.25C87.9764 73.8687 87.6171 72.828 86.8984 72.128C86.1797 71.428 85.1251 71.078 83.7344 71.078ZM89.0544 75.25C89.0544 77.014 88.5971 78.3533 87.6824 79.268C86.7677 80.1827 85.4517 80.64 83.7344 80.64C82.9037 80.64 82.0777 80.5653 81.2564 80.416V70.364C82.0964 70.2147 82.9224 70.14 83.7344 70.14C85.4424 70.14 86.7537 70.5833 87.6684 71.47C88.5924 72.3473 89.0544 73.6073 89.0544 75.25Z" fill="black"/>
<path d="M44.1147 85.05C43.4707 85.05 42.9713 85.1947 42.6167 85.484C42.262 85.764 42.0847 86.156 42.0847 86.66C42.0847 87.5653 42.7473 88.2187 44.0727 88.62C45.23 88.956 46.0513 89.376 46.5367 89.88C47.0313 90.384 47.2787 91.0373 47.2787 91.84C47.2787 92.7453 46.994 93.4407 46.4247 93.926C45.8647 94.402 45.062 94.64 44.0167 94.64C42.8593 94.64 41.8327 94.346 40.9367 93.758L41.2727 92.834C42.0847 93.4127 42.9993 93.702 44.0167 93.702C44.7073 93.702 45.2347 93.5433 45.5987 93.226C45.972 92.9087 46.1587 92.4467 46.1587 91.84C46.1587 91.28 46 90.8367 45.6827 90.51C45.3747 90.174 44.8287 89.8847 44.0447 89.642C42.0007 89.0353 40.9787 88.0413 40.9787 86.66C40.9787 85.8947 41.254 85.2833 41.8047 84.826C42.3647 84.3687 43.1347 84.14 44.1147 84.14C45.1693 84.14 46.1493 84.3593 47.0547 84.798L46.7747 85.666C45.9627 85.2553 45.076 85.05 44.1147 85.05ZM53.7254 85.078C52.4934 85.078 51.5087 85.47 50.7714 86.254C50.0434 87.0287 49.6794 88.074 49.6794 89.39C49.6794 90.706 50.0527 91.756 50.7994 92.54C51.5554 93.3147 52.5307 93.702 53.7254 93.702C54.696 93.702 55.5967 93.436 56.4274 92.904L56.8054 93.744C55.8907 94.3413 54.8314 94.64 53.6274 94.64C52.0874 94.64 50.8554 94.164 49.9314 93.212C49.0074 92.26 48.5454 90.986 48.5454 89.39C48.5454 87.7753 49.0027 86.4967 49.9174 85.554C50.832 84.6113 52.0687 84.14 53.6274 84.14C54.8314 84.14 55.8907 84.4387 56.8054 85.036L56.4274 85.876C55.606 85.344 54.7054 85.078 53.7254 85.078ZM58.913 94.5V92.54H60.215V94.5H58.913ZM62.4919 84.28L64.5499 93.296H64.5779L66.6779 84.28H68.1339L70.2339 93.296H70.2619L72.3199 84.28H73.4259L70.9199 94.5H69.5059L67.4059 85.484H67.3779L65.2639 94.5H63.8639L61.3439 84.28H62.4919ZM79.69 84.28L74.86 95.06H73.782L78.598 84.28H79.69ZM84.042 85.078C83.5567 85.078 83.104 85.12 82.684 85.204V93.576C83.104 93.66 83.5567 93.702 84.042 93.702C86.87 93.702 88.284 92.218 88.284 89.25C88.284 87.8687 87.9247 86.828 87.206 86.128C86.4874 85.428 85.4327 85.078 84.042 85.078ZM89.362 89.25C89.362 91.014 88.9047 92.3533 87.99 93.268C87.0754 94.1827 85.7594 94.64 84.042 94.64C83.2114 94.64 82.3854 94.5653 81.564 94.416V84.364C82.404 84.2147 83.23 84.14 84.042 84.14C85.75 84.14 87.0614 84.5833 87.976 85.47C88.9 86.3473 89.362 87.6073 89.362 89.25Z" fill="black"/>
</g>
<defs>
<clipPath id="clip0_1_133">
<rect width="800" height="98" fill="white"/>
</clipPath>
</defs>
</svg>
