<svg width="800" height="98" viewBox="0 0 800 98" fill="none" xmlns="http://www.w3.org/2000/svg">
<g clip-path="url(#clip0_1_2)">
<path d="M4.5 21.5H795.5" stroke="black" stroke-linecap="round"/>
<path d="M4.5 21.5V52.5" stroke="black" stroke-linecap="round"/>
<path d="M4.5 52.5H795.5" stroke="black" stroke-linecap="round"/>
<path d="M795.5 21.5V52.5" stroke="black" stroke-linecap="round"/>
<path d="M770.5 21.5V24.5" stroke="black" stroke-linecap="round"/>
<path d="M770.5 52.5V49.5" stroke="black" stroke-linecap="round"/>
<path d="M746.5 21.5V24.5" stroke="black" stroke-linecap="round"/>
<path d="M746.5 52.5V49.5" stroke="black" stroke-linecap="round"/>
<path d="M721.5 21.5V24.5" stroke="black" stroke-linecap="round"/>
<path d="M721.5 52.5V49.5" stroke="black" stroke-linecap="round"/>
<path d="M696.5 21.5V24.5" stroke="black" stroke-linecap="round"/>
<path d="M696.5 52.5V49.5" stroke="black" stroke-linecap="round"/>
<path d="M671.5 21.5V24.5" stroke="black" stroke-linecap="round"/>
<path d="M671.5 52.5V49.5" stroke="black" stroke-linecap="round"/>
<path d="M647.5 21.5V24.5" stroke="black" stroke-linecap="round"/>
<path d="M647.5 52.5V49.5" stroke="black" stroke-linecap="round"/>
<path d="M622.5 21.5V52.5" stroke="black" stroke-linecap="round"/>
<path d="M597.5 21.5V24.5" stroke="black" stroke-linecap="round"/>
<path d="M597.5 52.5V49.5" stroke="black" stroke-linecap="round"/>
<path d="M573.5 21.5V24.5" stroke="black" stroke-linecap="round"/>
<path d="M573.5 52.5V49.5" stroke="black" stroke-linecap="round"/>
<path d="M548.5 21.5V24.5" stroke="black" stroke-linecap="round"/>
<path d="M548.5 52.5V49.5" stroke="black" stroke-linecap="round"/>
<path d="M523.5 21.5V24.5" stroke="black" stroke-linecap="round"/>
<path d="M523.5 52.5V49.5" stroke="black" stroke-linecap="round"/>
<path d="M498.5 21.5V52.5" stroke="black" stroke-linecap="round"/>
<path d="M474.5 21.5V24.5" stroke="black" stroke-linecap="round"/>
<path d="M474.5 52.5V49.5" stroke="black" stroke-linecap="round"/>
<path d="M449.5 21.5V24.5" stroke="black" stroke-linecap="round"/>
<path d="M449.5 52.5V49.5" stroke="black" stroke-linecap="round"/>
<path d="M424.5 21.5V52.5" stroke="black" stroke-linecap="round"/>
<path d="M400.5 21.5V24.5" stroke="black" stroke-linecap="round"/>
<path d="M400.5 52.5V49.5" stroke="black" stroke-linecap="round"/>
<path d="M375.5 21.5V24.5" stroke="black" stroke-linecap="round"/>
<path d="M375.5 52.5V49.5" stroke="black" stroke-linecap="round"/>
<path d="M350.5 21.5V24.5" stroke="black" stroke-linecap="round"/>
<path d="M350.5 52.5V49.5" stroke="black" stroke-linecap="round"/>
<path d="M325.5 21.5V24.5" stroke="black" stroke-linecap="round"/>
<path d="M325.5 52.5V49.5" stroke="black" stroke-linecap="round"/>
<path d="M301.5 21.5V52.5" stroke="black" stroke-linecap="round"/>
<path d="M276.5 21.5V24.5" stroke="black" stroke-linecap="round"/>
<path d="M276.5 52.5V49.5" stroke="black" stroke-linecap="round"/>
<path d="M251.5 21.5V24.5" stroke="black" stroke-linecap="round"/>
<path d="M251.5 52.5V49.5" stroke="black" stroke-linecap="round"/>
<path d="M226.5 21.5V24.5" stroke="black" stroke-linecap="round"/>
<path d="M226.5 52.5V49.5" stroke="black" stroke-linecap="round"/>
<path d="M202.5 21.5V24.5" stroke="black" stroke-linecap="round"/>
<path d="M202.5 52.5V49.5" stroke="black" stroke-linecap="round"/>
<path d="M177.5 21.5V52.5" stroke="black" stroke-linecap="round"/>
<path d="M152.5 21.5V52.5" stroke="black" stroke-linecap="round"/>
<path d="M128.5 21.5V52.5" stroke="black" stroke-linecap="round"/>
<path d="M103.5 21.5V24.5" stroke="black" stroke-linecap="round"/>
<path d="M103.5 52.5V49.5" stroke="black" stroke-linecap="round"/>
<path d="M78.5 21.5V24.5" stroke="black" stroke-linecap="round"/>
<path d="M78.5 52.5V49.5" stroke="black" stroke-linecap="round"/>
<path d="M53.5 21.5V24.5" stroke="black" stroke-linecap="round"/>
<path d="M53.5 52.5V49.5" stroke="black" stroke-linecap="round"/>
<path d="M29.5 21.5V24.5" stroke="black" stroke-linecap="round"/>
<path d="M29.5 52.5V49.5" stroke="black" stroke-linecap="round"/>
<path d="M779.783 7.358C780.427 6.546 781.333 6.14 782.499 6.14C783.666 6.14 784.571 6.546 785.215 7.358C785.859 8.17 786.181 9.514 786.181 11.39C786.181 13.266 785.859 14.61 785.215 15.422C784.571 16.234 783.666 16.64 782.499 16.64C781.333 16.64 780.427 16.234 779.783 15.422C779.139 14.61 778.817 13.266 778.817 11.39C778.817 9.514 779.139 8.17 779.783 7.358ZM780.567 14.708C780.997 15.3893 781.641 15.73 782.499 15.73C783.358 15.73 783.997 15.3893 784.417 14.708C784.847 14.0173 785.061 12.9113 785.061 11.39C785.061 9.86867 784.847 8.76733 784.417 8.086C783.997 7.39533 783.358 7.05 782.499 7.05C781.641 7.05 780.997 7.39533 780.567 8.086C780.147 8.76733 779.937 9.86867 779.937 11.39C779.937 12.9113 780.147 14.0173 780.567 14.708Z" fill="black"/>
<path d="M634.541 10.508C633.823 10.508 633.23 10.7413 632.763 11.208C632.297 11.6747 632.063 12.272 632.063 13C632.063 13.868 632.283 14.5353 632.721 15.002C633.16 15.4687 633.767 15.702 634.541 15.702C635.335 15.702 635.951 15.4687 636.389 15.002C636.828 14.5353 637.047 13.868 637.047 13C637.047 12.2347 636.819 11.628 636.361 11.18C635.913 10.732 635.307 10.508 634.541 10.508ZM634.541 16.64C633.412 16.64 632.525 16.2993 631.881 15.618C631.247 14.9367 630.929 13.9567 630.929 12.678C630.929 10.7833 631.387 9.25733 632.301 8.1C633.225 6.94267 634.495 6.28933 636.109 6.14L636.305 7.078C634.159 7.32067 632.796 8.52933 632.217 10.704L632.231 10.718C632.875 9.99933 633.725 9.64 634.779 9.64C635.815 9.64 636.637 9.94333 637.243 10.55C637.859 11.1473 638.167 11.964 638.167 13C638.167 14.1107 637.836 14.9973 637.173 15.66C636.511 16.3133 635.633 16.64 634.541 16.64Z" fill="black"/>
<path d="M606.751 6.28H613.331V7.218C611.717 9.86867 610.368 12.9627 609.285 16.5H608.109C609.183 13.1213 610.564 10.0367 612.253 7.246V7.218H606.751V6.28Z" fill="black"/>
<path d="M506.186 16.5V7.624H506.158L503.4 10.172L502.966 9.262L506.186 6.28H507.306V16.5H506.186ZM514.868 16.5V7.624H514.84L512.082 10.172L511.648 9.262L514.868 6.28H515.988V16.5H514.868Z" fill="black"/>
<path d="M481.686 16.5V7.624H481.658L478.9 10.172L478.466 9.262L481.686 6.28H482.806V16.5H481.686ZM490.13 7.092C489.206 7.092 488.282 7.414 487.358 8.058L487.022 7.162C487.974 6.48067 489.057 6.14 490.27 6.14C491.269 6.14 492.043 6.39667 492.594 6.91C493.145 7.414 493.42 8.12333 493.42 9.038C493.42 9.95267 493.089 10.8767 492.426 11.81C491.763 12.7433 490.522 13.9847 488.702 15.534V15.562H493.462V16.5H487.162V15.562C489.15 13.9193 490.499 12.6407 491.208 11.726C491.917 10.802 492.272 9.934 492.272 9.122C492.272 8.45933 492.09 7.95533 491.726 7.61C491.362 7.26467 490.83 7.092 490.13 7.092Z" fill="black"/>
<path d="M432.186 16.5V7.624H432.158L429.4 10.172L428.966 9.262L432.186 6.28H433.306V16.5H432.186ZM441.61 13.21V7.918H441.582L437.858 13.182V13.21H441.61ZM442.716 13.21H444.452V14.12H442.716V16.5H441.61V14.12H436.71V13.21L441.61 6.28H442.716V13.21Z" fill="black"/>
<path d="M408.186 16.5V7.624H408.158L405.4 10.172L404.966 9.262L408.186 6.28H409.306V16.5H408.186ZM419.668 7.218H415.244L415.048 10.522H415.076C415.627 10.1953 416.247 10.032 416.938 10.032C417.937 10.032 418.711 10.3027 419.262 10.844C419.813 11.3853 420.088 12.1507 420.088 13.14C420.088 14.2787 419.766 15.1467 419.122 15.744C418.487 16.3413 417.554 16.64 416.322 16.64C415.37 16.64 414.493 16.416 413.69 15.968L413.97 15.044C414.754 15.4827 415.538 15.702 416.322 15.702C418.086 15.702 418.968 14.848 418.968 13.14C418.968 12.4213 418.777 11.8753 418.394 11.502C418.011 11.1193 417.461 10.928 416.742 10.928C416.005 10.928 415.393 11.1427 414.908 11.572H413.928L414.236 6.28H419.668V7.218Z" fill="black"/>
<path d="M309.186 16.5V7.624H309.158L306.4 10.172L305.966 9.262L309.186 6.28H310.306V16.5H309.186ZM317.798 6.14C318.937 6.14 319.823 6.48067 320.458 7.162C321.093 7.834 321.41 8.79067 321.41 10.032C321.41 11.9827 320.939 13.532 319.996 14.68C319.063 15.828 317.761 16.4813 316.09 16.64L315.894 15.702C317.033 15.5807 317.947 15.2213 318.638 14.624C319.329 14.0173 319.823 13.1633 320.122 12.062L320.108 12.048C319.455 12.776 318.605 13.14 317.56 13.14C316.524 13.14 315.698 12.8367 315.082 12.23C314.475 11.614 314.172 10.774 314.172 9.71C314.172 8.62733 314.503 7.764 315.166 7.12C315.829 6.46667 316.706 6.14 317.798 6.14ZM317.798 7.078C317.005 7.078 316.389 7.30667 315.95 7.764C315.511 8.22133 315.292 8.87 315.292 9.71C315.292 10.5127 315.516 11.1427 315.964 11.6C316.421 12.048 317.033 12.272 317.798 12.272C318.517 12.272 319.109 12.034 319.576 11.558C320.043 11.082 320.276 10.466 320.276 9.71C320.276 8.87933 320.057 8.23533 319.618 7.778C319.179 7.31133 318.573 7.078 317.798 7.078Z" fill="black"/>
<path d="M283.948 7.092C283.024 7.092 282.1 7.414 281.176 8.058L280.84 7.162C281.792 6.48067 282.875 6.14 284.088 6.14C285.087 6.14 285.862 6.39667 286.412 6.91C286.963 7.414 287.238 8.12333 287.238 9.038C287.238 9.95267 286.907 10.8767 286.244 11.81C285.582 12.7433 284.34 13.9847 282.52 15.534V15.562H287.28V16.5H280.98V15.562C282.968 13.9193 284.317 12.6407 285.026 11.726C285.736 10.802 286.09 9.934 286.09 9.122C286.09 8.45933 285.908 7.95533 285.544 7.61C285.18 7.26467 284.648 7.092 283.948 7.092ZM290.124 7.358C290.768 6.546 291.673 6.14 292.84 6.14C294.007 6.14 294.912 6.546 295.556 7.358C296.2 8.17 296.522 9.514 296.522 11.39C296.522 13.266 296.2 14.61 295.556 15.422C294.912 16.234 294.007 16.64 292.84 16.64C291.673 16.64 290.768 16.234 290.124 15.422C289.48 14.61 289.158 13.266 289.158 11.39C289.158 9.514 289.48 8.17 290.124 7.358ZM290.908 14.708C291.337 15.3893 291.981 15.73 292.84 15.73C293.699 15.73 294.338 15.3893 294.758 14.708C295.187 14.0173 295.402 12.9113 295.402 11.39C295.402 9.86867 295.187 8.76733 294.758 8.086C294.338 7.39533 293.699 7.05 292.84 7.05C291.981 7.05 291.337 7.39533 290.908 8.086C290.488 8.76733 290.278 9.86867 290.278 11.39C290.278 12.9113 290.488 14.0173 290.908 14.708Z" fill="black"/>
<path d="M184.948 7.092C184.024 7.092 183.1 7.414 182.176 8.058L181.84 7.162C182.792 6.48067 183.875 6.14 185.088 6.14C186.087 6.14 186.862 6.39667 187.412 6.91C187.963 7.414 188.238 8.12333 188.238 9.038C188.238 9.95267 187.907 10.8767 187.244 11.81C186.582 12.7433 185.34 13.9847 183.52 15.534V15.562H188.28V16.5H181.98V15.562C183.968 13.9193 185.317 12.6407 186.026 11.726C186.736 10.802 187.09 9.934 187.09 9.122C187.09 8.45933 186.908 7.95533 186.544 7.61C186.18 7.26467 185.648 7.092 184.948 7.092ZM194.61 13.21V7.918H194.582L190.858 13.182V13.21H194.61ZM195.716 13.21H197.452V14.12H195.716V16.5H194.61V14.12H189.71V13.21L194.61 6.28H195.716V13.21Z" fill="black"/>
<path d="M159.448 7.092C158.524 7.092 157.6 7.414 156.676 8.058L156.34 7.162C157.292 6.48067 158.375 6.14 159.588 6.14C160.587 6.14 161.362 6.39667 161.912 6.91C162.463 7.414 162.738 8.12333 162.738 9.038C162.738 9.95267 162.407 10.8767 161.744 11.81C161.082 12.7433 159.84 13.9847 158.02 15.534V15.562H162.78V16.5H156.48V15.562C158.468 13.9193 159.817 12.6407 160.526 11.726C161.236 10.802 161.59 9.934 161.59 9.122C161.59 8.45933 161.408 7.95533 161.044 7.61C160.68 7.26467 160.148 7.092 159.448 7.092ZM171.168 7.218H166.744L166.548 10.522H166.576C167.127 10.1953 167.747 10.032 168.438 10.032C169.437 10.032 170.211 10.3027 170.762 10.844C171.313 11.3853 171.588 12.1507 171.588 13.14C171.588 14.2787 171.266 15.1467 170.622 15.744C169.987 16.3413 169.054 16.64 167.822 16.64C166.87 16.64 165.993 16.416 165.19 15.968L165.47 15.044C166.254 15.4827 167.038 15.702 167.822 15.702C169.586 15.702 170.468 14.848 170.468 13.14C170.468 12.4213 170.277 11.8753 169.894 11.502C169.511 11.1193 168.961 10.928 168.242 10.928C167.505 10.928 166.893 11.1427 166.408 11.572H165.428L165.736 6.28H171.168V7.218Z" fill="black"/>
<path d="M135.948 7.092C135.024 7.092 134.1 7.414 133.176 8.058L132.84 7.162C133.792 6.48067 134.875 6.14 136.088 6.14C137.087 6.14 137.862 6.39667 138.412 6.91C138.963 7.414 139.238 8.12333 139.238 9.038C139.238 9.95267 138.907 10.8767 138.244 11.81C137.582 12.7433 136.34 13.9847 134.52 15.534V15.562H139.28V16.5H132.98V15.562C134.968 13.9193 136.317 12.6407 137.026 11.726C137.736 10.802 138.09 9.934 138.09 9.122C138.09 8.45933 137.908 7.95533 137.544 7.61C137.18 7.26467 136.648 7.092 135.948 7.092ZM144.882 10.508C144.163 10.508 143.571 10.7413 143.104 11.208C142.637 11.6747 142.404 12.272 142.404 13C142.404 13.868 142.623 14.5353 143.062 15.002C143.501 15.4687 144.107 15.702 144.882 15.702C145.675 15.702 146.291 15.4687 146.73 15.002C147.169 14.5353 147.388 13.868 147.388 13C147.388 12.2347 147.159 11.628 146.702 11.18C146.254 10.732 145.647 10.508 144.882 10.508ZM144.882 16.64C143.753 16.64 142.866 16.2993 142.222 15.618C141.587 14.9367 141.27 13.9567 141.27 12.678C141.27 10.7833 141.727 9.25733 142.642 8.1C143.566 6.94267 144.835 6.28933 146.45 6.14L146.646 7.078C144.499 7.32067 143.137 8.52933 142.558 10.704L142.572 10.718C143.216 9.99933 144.065 9.64 145.12 9.64C146.156 9.64 146.977 9.94333 147.584 10.55C148.2 11.1473 148.508 11.964 148.508 13C148.508 14.1107 148.177 14.9973 147.514 15.66C146.851 16.3133 145.974 16.64 144.882 16.64Z" fill="black"/>
<path d="M110.448 7.092C109.524 7.092 108.6 7.414 107.676 8.058L107.34 7.162C108.292 6.48067 109.375 6.14 110.588 6.14C111.587 6.14 112.362 6.39667 112.912 6.91C113.463 7.414 113.738 8.12333 113.738 9.038C113.738 9.95267 113.407 10.8767 112.744 11.81C112.082 12.7433 110.84 13.9847 109.02 15.534V15.562H113.78V16.5H107.48V15.562C109.468 13.9193 110.817 12.6407 111.526 11.726C112.236 10.802 112.59 9.934 112.59 9.122C112.59 8.45933 112.408 7.95533 112.044 7.61C111.68 7.26467 111.148 7.092 110.448 7.092ZM116.092 6.28H122.672V7.218C121.057 9.86867 119.709 12.9627 118.626 16.5H117.45C118.523 13.1213 119.905 10.0367 121.594 7.246V7.218H116.092V6.28Z" fill="black"/>
<path d="M9.00836 6.28H15.1404V7.218L11.7944 10.508V10.536H12.2144C13.2037 10.536 13.9597 10.774 14.4824 11.25C15.0144 11.726 15.2804 12.4167 15.2804 13.322C15.2804 14.386 14.963 15.2073 14.3284 15.786C13.703 16.3553 12.807 16.64 11.6404 16.64C10.6324 16.64 9.74569 16.3973 8.98036 15.912L9.31636 15.002C10.1004 15.4687 10.875 15.702 11.6404 15.702C12.4617 15.702 13.087 15.5013 13.5164 15.1C13.9457 14.6987 14.1604 14.106 14.1604 13.322C14.1604 12.6593 13.9364 12.1693 13.4884 11.852C13.0497 11.5253 12.345 11.362 11.3744 11.362H10.3524V10.494L13.6984 7.246V7.218H9.00836V6.28ZM20.868 16.5V7.624H20.84L18.082 10.172L17.648 9.262L20.868 6.28H21.988V16.5H20.868Z" fill="black"/>
<path d="M690.539 36.704C690.119 36.1813 689.541 35.92 688.803 35.92C688.066 35.92 687.483 36.1813 687.053 36.704C686.633 37.2173 686.423 37.936 686.423 38.86C686.423 39.784 686.633 40.5073 687.053 41.03C687.483 41.5433 688.066 41.8 688.803 41.8C689.541 41.8 690.119 41.5433 690.539 41.03C690.969 40.5073 691.183 39.784 691.183 38.86C691.183 37.936 690.969 37.2173 690.539 36.704ZM691.295 41.618C690.67 42.2993 689.839 42.64 688.803 42.64C687.767 42.64 686.937 42.2993 686.311 41.618C685.686 40.9367 685.373 40.0173 685.373 38.86C685.373 37.7027 685.686 36.7833 686.311 36.102C686.937 35.4207 687.767 35.08 688.803 35.08C689.839 35.08 690.67 35.4207 691.295 36.102C691.921 36.7833 692.233 37.7027 692.233 38.86C692.233 40.0173 691.921 40.9367 691.295 41.618ZM697.25 42.64C696.195 42.64 695.411 42.2153 694.898 41.366H694.87V45.58H693.848V35.22H694.828L694.842 36.452H694.87C695.383 35.5373 696.177 35.08 697.25 35.08C698.165 35.08 698.883 35.4067 699.406 36.06C699.929 36.704 700.19 37.6373 700.19 38.86C700.19 40.0547 699.919 40.9833 699.378 41.646C698.846 42.3087 698.137 42.64 697.25 42.64ZM699.182 38.86C699.182 37.908 698.991 37.18 698.608 36.676C698.235 36.172 697.707 35.92 697.026 35.92C696.382 35.92 695.859 36.172 695.458 36.676C695.066 37.18 694.87 37.8753 694.87 38.762V38.958C694.87 39.8633 695.071 40.5633 695.472 41.058C695.873 41.5527 696.391 41.8 697.026 41.8C697.689 41.8 698.211 41.548 698.594 41.044C698.986 40.5307 699.182 39.8027 699.182 38.86ZM705.202 35.934C704.381 35.934 703.741 36.1907 703.284 36.704C702.827 37.208 702.598 37.9267 702.598 38.86C702.598 39.756 702.836 40.47 703.312 41.002C703.797 41.534 704.427 41.8 705.202 41.8C705.855 41.8 706.481 41.6413 707.078 41.324L707.358 42.15C706.658 42.4767 705.925 42.64 705.16 42.64C704.077 42.64 703.2 42.2993 702.528 41.618C701.856 40.9273 701.52 40.008 701.52 38.86C701.52 37.6747 701.842 36.7507 702.486 36.088C703.13 35.416 704.021 35.08 705.16 35.08C705.925 35.08 706.658 35.2433 707.358 35.57L707.078 36.424C706.453 36.0973 705.827 35.934 705.202 35.934ZM713.987 36.704C713.567 36.1813 712.988 35.92 712.251 35.92C711.513 35.92 710.93 36.1813 710.501 36.704C710.081 37.2173 709.871 37.936 709.871 38.86C709.871 39.784 710.081 40.5073 710.501 41.03C710.93 41.5433 711.513 41.8 712.251 41.8C712.988 41.8 713.567 41.5433 713.987 41.03C714.416 40.5073 714.631 39.784 714.631 38.86C714.631 37.936 714.416 37.2173 713.987 36.704ZM714.743 41.618C714.117 42.2993 713.287 42.64 712.251 42.64C711.215 42.64 710.384 42.2993 709.759 41.618C709.133 40.9367 708.821 40.0173 708.821 38.86C708.821 37.7027 709.133 36.7833 709.759 36.102C710.384 35.4207 711.215 35.08 712.251 35.08C713.287 35.08 714.117 35.4207 714.743 36.102C715.368 36.7833 715.681 37.7027 715.681 38.86C715.681 40.0173 715.368 40.9367 714.743 41.618ZM718.594 36.69C718.211 37.194 718.02 37.9173 718.02 38.86C718.02 39.8027 718.216 40.5307 718.608 41.044C719 41.548 719.527 41.8 720.19 41.8C720.825 41.8 721.338 41.5527 721.73 41.058C722.131 40.5633 722.332 39.8633 722.332 38.958V38.762C722.332 37.8753 722.131 37.18 721.73 36.676C721.338 36.172 720.825 35.92 720.19 35.92C719.509 35.92 718.977 36.1767 718.594 36.69ZM717.012 38.86C717.012 37.6373 717.273 36.704 717.796 36.06C718.319 35.4067 719.037 35.08 719.952 35.08C721.007 35.08 721.791 35.5233 722.304 36.41H722.332V32H723.354V42.5H722.374L722.36 41.268H722.332C721.819 42.1827 721.025 42.64 719.952 42.64C719.056 42.64 718.342 42.3133 717.81 41.66C717.278 40.9973 717.012 40.064 717.012 38.86ZM726.086 39.252C726.104 40.0453 726.347 40.6707 726.814 41.128C727.28 41.5853 727.887 41.814 728.634 41.814C729.352 41.814 730.066 41.6273 730.776 41.254L731.056 42.052C730.272 42.444 729.432 42.64 728.536 42.64C727.49 42.64 726.646 42.2993 726.002 41.618C725.358 40.9367 725.036 40.0173 725.036 38.86C725.036 37.684 725.334 36.76 725.932 36.088C726.538 35.416 727.36 35.08 728.396 35.08C729.404 35.08 730.183 35.402 730.734 36.046C731.294 36.6807 731.574 37.5953 731.574 38.79C731.574 38.9113 731.564 39.0653 731.546 39.252H726.086ZM726.086 38.44H730.566C730.556 37.628 730.36 37.0027 729.978 36.564C729.595 36.1253 729.068 35.906 728.396 35.906C727.696 35.906 727.14 36.13 726.73 36.578C726.328 37.0167 726.114 37.6373 726.086 38.44Z" fill="black"/>
<path d="M554.968 35.22H555.962L555.99 36.774H556.018C556.839 35.6447 557.997 35.08 559.49 35.08V35.962C558.454 35.962 557.614 36.2467 556.97 36.816C556.335 37.3853 556.018 38.1227 556.018 39.028V42.5H554.968V35.22ZM562.2 36.69C561.818 37.194 561.626 37.9173 561.626 38.86C561.626 39.8027 561.822 40.5307 562.214 41.044C562.606 41.548 563.134 41.8 563.796 41.8C564.431 41.8 564.944 41.5527 565.336 41.058C565.738 40.5633 565.938 39.8633 565.938 38.958V38.762C565.938 37.8753 565.738 37.18 565.336 36.676C564.944 36.172 564.431 35.92 563.796 35.92C563.115 35.92 562.583 36.1767 562.2 36.69ZM560.618 38.86C560.618 37.6373 560.88 36.704 561.402 36.06C561.925 35.4067 562.644 35.08 563.558 35.08C564.613 35.08 565.397 35.5233 565.91 36.41H565.938V32H566.96V42.5H565.98L565.966 41.268H565.938C565.425 42.1827 564.632 42.64 563.558 42.64C562.662 42.64 561.948 42.3133 561.416 41.66C560.884 40.9973 560.618 40.064 560.618 38.86Z" fill="black"/>
<path d="M439.383 35.5H441.301V34.562C441.301 32.9473 442.076 32.14 443.625 32.14C444.055 32.14 444.493 32.21 444.941 32.35L444.717 33.19C444.372 33.05 444.041 32.98 443.723 32.98C443.219 32.98 442.86 33.1013 442.645 33.344C442.44 33.5773 442.337 33.9833 442.337 34.562V35.5H444.843V36.34H442.337V42.5H441.301V36.34H439.383V35.5ZM447.478 35.22V39.742C447.478 40.4887 447.6 41.0113 447.842 41.31C448.094 41.6087 448.51 41.758 449.088 41.758C449.63 41.758 450.12 41.4967 450.558 40.974C451.006 40.4513 451.23 39.8307 451.23 39.112V35.22H452.252V42.5H451.272L451.258 41.198H451.23C450.95 41.646 450.591 42.0007 450.152 42.262C449.723 42.514 449.256 42.64 448.752 42.64C447.968 42.64 447.39 42.4207 447.016 41.982C446.652 41.534 446.47 40.82 446.47 39.84V35.22H447.478ZM454.347 35.22H455.327L455.341 36.522H455.369C455.649 36.074 456.004 35.724 456.433 35.472C456.872 35.2107 457.343 35.08 457.847 35.08C458.668 35.08 459.275 35.3367 459.667 35.85C460.068 36.354 460.269 37.1567 460.269 38.258V42.5H459.261V38.342C459.261 37.4367 459.13 36.8113 458.869 36.466C458.608 36.1113 458.16 35.934 457.525 35.934C456.984 35.934 456.489 36.2047 456.041 36.746C455.593 37.278 455.369 37.8987 455.369 38.608V42.5H454.347V35.22ZM465.496 35.934C464.675 35.934 464.035 36.1907 463.578 36.704C463.121 37.208 462.892 37.9267 462.892 38.86C462.892 39.756 463.13 40.47 463.606 41.002C464.091 41.534 464.721 41.8 465.496 41.8C466.149 41.8 466.775 41.6413 467.372 41.324L467.652 42.15C466.952 42.4767 466.219 42.64 465.454 42.64C464.371 42.64 463.494 42.2993 462.822 41.618C462.15 40.9273 461.814 40.008 461.814 38.86C461.814 37.6747 462.136 36.7507 462.78 36.088C463.424 35.416 464.315 35.08 465.454 35.08C466.219 35.08 466.952 35.2433 467.652 35.57L467.372 36.424C466.747 36.0973 466.121 35.934 465.496 35.934ZM471.915 32.84V35.5H474.673V36.34H471.915V40.162C471.915 40.8153 472.003 41.254 472.181 41.478C472.358 41.6927 472.689 41.8 473.175 41.8C473.604 41.8 474.015 41.7207 474.407 41.562L474.575 42.388C474.099 42.556 473.585 42.64 473.035 42.64C472.241 42.64 471.681 42.472 471.355 42.136C471.028 41.7907 470.865 41.198 470.865 40.358V36.34H469.255V35.5H470.865V32.84H471.915ZM476.895 32.28H483.027V33.218L479.681 36.508V36.536H480.101C481.09 36.536 481.846 36.774 482.369 37.25C482.901 37.726 483.167 38.4167 483.167 39.322C483.167 40.386 482.85 41.2073 482.215 41.786C481.59 42.3553 480.694 42.64 479.527 42.64C478.519 42.64 477.632 42.3973 476.867 41.912L477.203 41.002C477.987 41.4687 478.762 41.702 479.527 41.702C480.348 41.702 480.974 41.5013 481.403 41.1C481.832 40.6987 482.047 40.106 482.047 39.322C482.047 38.6593 481.823 38.1693 481.375 37.852C480.936 37.5253 480.232 37.362 479.261 37.362H478.239V36.494L481.585 33.246V33.218H476.895V32.28Z" fill="black"/>
<path d="M352.701 35.22H353.695L353.723 36.774H353.751C354.573 35.6447 355.73 35.08 357.223 35.08V35.962C356.187 35.962 355.347 36.2467 354.703 36.816C354.069 37.3853 353.751 38.1227 353.751 39.028V42.5H352.701V35.22ZM361.18 35.08C362.066 35.08 362.888 35.2667 363.644 35.64L363.42 36.466C362.701 36.102 361.954 35.92 361.18 35.92C360.638 35.92 360.223 36.018 359.934 36.214C359.654 36.41 359.514 36.6853 359.514 37.04C359.514 37.376 359.635 37.642 359.878 37.838C360.13 38.034 360.582 38.188 361.236 38.3C362.188 38.4587 362.869 38.72 363.28 39.084C363.7 39.448 363.91 39.9473 363.91 40.582C363.91 41.2167 363.667 41.7207 363.182 42.094C362.706 42.458 362.038 42.64 361.18 42.64C360.181 42.64 359.285 42.4067 358.492 41.94L358.73 41.114C359.495 41.5713 360.312 41.8 361.18 41.8C361.721 41.8 362.136 41.6973 362.426 41.492C362.715 41.2773 362.86 40.974 362.86 40.582C362.86 40.2087 362.729 39.9193 362.468 39.714C362.216 39.5087 361.768 39.35 361.124 39.238C360.2 39.0793 359.528 38.8273 359.108 38.482C358.697 38.1273 358.492 37.6467 358.492 37.04C358.492 36.4427 358.725 35.9667 359.192 35.612C359.668 35.2573 360.33 35.08 361.18 35.08ZM369.035 42.5V33.624H369.007L366.249 36.172L365.815 35.262L369.035 32.28H370.155V42.5H369.035Z" fill="black"/>
<path d="M228.201 35.22H229.195L229.223 36.774H229.251C230.073 35.6447 231.23 35.08 232.723 35.08V35.962C231.687 35.962 230.847 36.2467 230.203 36.816C229.569 37.3853 229.251 38.1227 229.251 39.028V42.5H228.201V35.22ZM236.68 35.08C237.566 35.08 238.388 35.2667 239.144 35.64L238.92 36.466C238.201 36.102 237.454 35.92 236.68 35.92C236.138 35.92 235.723 36.018 235.434 36.214C235.154 36.41 235.014 36.6853 235.014 37.04C235.014 37.376 235.135 37.642 235.378 37.838C235.63 38.034 236.082 38.188 236.736 38.3C237.688 38.4587 238.369 38.72 238.78 39.084C239.2 39.448 239.41 39.9473 239.41 40.582C239.41 41.2167 239.167 41.7207 238.682 42.094C238.206 42.458 237.538 42.64 236.68 42.64C235.681 42.64 234.785 42.4067 233.992 41.94L234.23 41.114C234.995 41.5713 235.812 41.8 236.68 41.8C237.221 41.8 237.636 41.6973 237.926 41.492C238.215 41.2773 238.36 40.974 238.36 40.582C238.36 40.2087 238.229 39.9193 237.968 39.714C237.716 39.5087 237.268 39.35 236.624 39.238C235.7 39.0793 235.028 38.8273 234.608 38.482C234.197 38.1273 233.992 37.6467 233.992 37.04C233.992 36.4427 234.225 35.9667 234.692 35.612C235.168 35.2573 235.83 35.08 236.68 35.08ZM244.297 33.092C243.373 33.092 242.449 33.414 241.525 34.058L241.189 33.162C242.141 32.4807 243.224 32.14 244.437 32.14C245.436 32.14 246.21 32.3967 246.761 32.91C247.312 33.414 247.587 34.1233 247.587 35.038C247.587 35.9527 247.256 36.8767 246.593 37.81C245.93 38.7433 244.689 39.9847 242.869 41.534V41.562H247.629V42.5H241.329V41.562C243.317 39.9193 244.666 38.6407 245.375 37.726C246.084 36.802 246.439 35.934 246.439 35.122C246.439 34.4593 246.257 33.9553 245.893 33.61C245.529 33.2647 244.997 33.092 244.297 33.092Z" fill="black"/>
<path d="M160.232 35.22H161.226L161.254 36.774H161.282C162.103 35.6447 163.26 35.08 164.754 35.08V35.962C163.718 35.962 162.878 36.2467 162.234 36.816C161.599 37.3853 161.282 38.1227 161.282 39.028V42.5H160.232V35.22ZM167.135 42.5V32H168.213V42.5H167.135Z" fill="black"/>
<path d="M135.862 35.08C136.88 35.08 137.608 35.29 138.046 35.71C138.485 36.13 138.704 36.8207 138.704 37.782V40.54C138.704 41.2027 138.774 41.856 138.914 42.5H137.934C137.86 42.136 137.813 41.7067 137.794 41.212H137.766C137.514 41.66 137.15 42.01 136.674 42.262C136.198 42.514 135.662 42.64 135.064 42.64C134.392 42.64 133.856 42.4533 133.454 42.08C133.053 41.6973 132.852 41.184 132.852 40.54C132.852 39.728 133.207 39.084 133.916 38.608C134.626 38.1227 135.634 37.88 136.94 37.88H137.682V37.81C137.682 37.1007 137.547 36.6107 137.276 36.34C137.015 36.06 136.544 35.92 135.862 35.92C134.985 35.92 134.168 36.1347 133.412 36.564L133.23 35.738C134.033 35.2993 134.91 35.08 135.862 35.08ZM133.86 40.498C133.86 40.918 133.991 41.2493 134.252 41.492C134.514 41.7253 134.864 41.842 135.302 41.842C135.946 41.842 136.502 41.6133 136.968 41.156C137.444 40.6893 137.682 40.12 137.682 39.448V38.664H136.94C135.96 38.664 135.2 38.832 134.658 39.168C134.126 39.4947 133.86 39.938 133.86 40.498ZM142.034 36.69C141.652 37.194 141.46 37.9173 141.46 38.86C141.46 39.8027 141.656 40.5307 142.048 41.044C142.44 41.548 142.968 41.8 143.63 41.8C144.265 41.8 144.778 41.5527 145.17 41.058C145.572 40.5633 145.772 39.8633 145.772 38.958V38.762C145.772 37.8753 145.576 37.18 145.184 36.676C144.792 36.172 144.274 35.92 143.63 35.92C142.949 35.92 142.417 36.1767 142.034 36.69ZM140.452 38.86C140.452 37.6373 140.714 36.704 141.236 36.06C141.759 35.4067 142.478 35.08 143.392 35.08C144.466 35.08 145.259 35.5373 145.772 36.452H145.8L145.814 35.22H146.794V45.58H145.772V41.366H145.744C145.231 42.2153 144.447 42.64 143.392 42.64C142.506 42.64 141.792 42.3087 141.25 41.646C140.718 40.9833 140.452 40.0547 140.452 38.86Z" fill="black"/>
<path d="M42.8833 35.5H44.8013V34.562C44.8013 32.9473 45.5759 32.14 47.1253 32.14C47.5546 32.14 47.9933 32.21 48.4413 32.35L48.2173 33.19C47.8719 33.05 47.5406 32.98 47.2233 32.98C46.7193 32.98 46.3599 33.1013 46.1453 33.344C45.9399 33.5773 45.8373 33.9833 45.8373 34.562V35.5H48.3433V36.34H45.8373V42.5H44.8013V36.34H42.8833V35.5ZM50.9782 35.22V39.742C50.9782 40.4887 51.0996 41.0113 51.3422 41.31C51.5942 41.6087 52.0096 41.758 52.5882 41.758C53.1296 41.758 53.6196 41.4967 54.0582 40.974C54.5062 40.4513 54.7302 39.8307 54.7302 39.112V35.22H55.7522V42.5H54.7722L54.7582 41.198H54.7302C54.4502 41.646 54.0909 42.0007 53.6522 42.262C53.2229 42.514 52.7562 42.64 52.2522 42.64C51.4682 42.64 50.8896 42.4207 50.5162 41.982C50.1522 41.534 49.9702 40.82 49.9702 39.84V35.22H50.9782ZM57.8469 35.22H58.8269L58.8409 36.522H58.8689C59.1489 36.074 59.5035 35.724 59.9329 35.472C60.3715 35.2107 60.8429 35.08 61.3469 35.08C62.1682 35.08 62.7749 35.3367 63.1669 35.85C63.5682 36.354 63.7689 37.1567 63.7689 38.258V42.5H62.7609V38.342C62.7609 37.4367 62.6302 36.8113 62.3689 36.466C62.1075 36.1113 61.6595 35.934 61.0249 35.934C60.4835 35.934 59.9889 36.2047 59.5409 36.746C59.0929 37.278 58.8689 37.8987 58.8689 38.608V42.5H57.8469V35.22ZM68.9959 35.934C68.1746 35.934 67.5352 36.1907 67.0779 36.704C66.6206 37.208 66.3919 37.9267 66.3919 38.86C66.3919 39.756 66.6299 40.47 67.1059 41.002C67.5912 41.534 68.2212 41.8 68.9959 41.8C69.6492 41.8 70.2746 41.6413 70.8719 41.324L71.1519 42.15C70.4519 42.4767 69.7192 42.64 68.9539 42.64C67.8712 42.64 66.9939 42.2993 66.3219 41.618C65.6499 40.9273 65.3139 40.008 65.3139 38.86C65.3139 37.6747 65.6359 36.7507 66.2799 36.088C66.9239 35.416 67.8152 35.08 68.9539 35.08C69.7192 35.08 70.4519 35.2433 71.1519 35.57L70.8719 36.424C70.2466 36.0973 69.6212 35.934 68.9959 35.934ZM75.4147 32.84V35.5H78.1727V36.34H75.4147V40.162C75.4147 40.8153 75.5034 41.254 75.6807 41.478C75.858 41.6927 76.1894 41.8 76.6747 41.8C77.104 41.8 77.5147 41.7207 77.9067 41.562L78.0747 42.388C77.5987 42.556 77.0854 42.64 76.5347 42.64C75.7414 42.64 75.1814 42.472 74.8547 42.136C74.528 41.7907 74.3647 41.198 74.3647 40.358V36.34H72.7547V35.5H74.3647V32.84H75.4147ZM86.3731 33.218H81.9491L81.7531 36.522H81.7811C82.3317 36.1953 82.9524 36.032 83.6431 36.032C84.6417 36.032 85.4164 36.3027 85.9671 36.844C86.5177 37.3853 86.7931 38.1507 86.7931 39.14C86.7931 40.2787 86.4711 41.1467 85.8271 41.744C85.1924 42.3413 84.2591 42.64 83.0271 42.64C82.0751 42.64 81.1977 42.416 80.3951 41.968L80.6751 41.044C81.4591 41.4827 82.2431 41.702 83.0271 41.702C84.7911 41.702 85.6731 40.848 85.6731 39.14C85.6731 38.4213 85.4817 37.8753 85.0991 37.502C84.7164 37.1193 84.1657 36.928 83.4471 36.928C82.7097 36.928 82.0984 37.1427 81.6131 37.572H80.6331L80.9411 32.28H86.3731V33.218Z" fill="black"/>
<path d="M705.751 56.28H712.331V57.218C710.717 59.8687 709.368 62.9627 708.285 66.5H707.109C708.183 63.1213 709.564 60.0367 711.253 57.246V57.218H705.751V56.28Z" fill="black"/>
<path d="M692.591 80.5L696.329 70.28H697.589L701.313 80.5H700.123L699.087 77.518H694.775L693.753 80.5H692.591ZM695.083 76.622H698.779L696.945 71.288H696.917L695.083 76.622ZM702.998 80.5V70.28H704.132L707.772 76.44H707.8L711.44 70.28H712.616V80.5H711.496V72.156H711.468L708.304 77.462H707.268L704.104 72.156H704.076V80.5H702.998ZM722.968 79.212C722.063 80.164 720.859 80.64 719.356 80.64C717.853 80.64 716.645 80.164 715.73 79.212C714.815 78.2507 714.358 76.9767 714.358 75.39C714.358 73.8033 714.815 72.534 715.73 71.582C716.645 70.6207 717.853 70.14 719.356 70.14C720.859 70.14 722.063 70.6207 722.968 71.582C723.883 72.534 724.34 73.8033 724.34 75.39C724.34 76.9767 723.883 78.2507 722.968 79.212ZM719.356 79.702C720.513 79.702 721.442 79.3147 722.142 78.54C722.851 77.756 723.206 76.706 723.206 75.39C723.206 74.074 722.851 73.0287 722.142 72.254C721.442 71.47 720.513 71.078 719.356 71.078C718.189 71.078 717.251 71.47 716.542 72.254C715.842 73.0287 715.492 74.074 715.492 75.39C715.492 76.706 715.842 77.756 716.542 78.54C717.251 79.3147 718.189 79.702 719.356 79.702Z" fill="black"/>
<path d="M692.591 94.5L696.329 84.28H697.589L701.313 94.5H700.123L699.087 91.518H694.775L693.753 94.5H692.591ZM695.083 90.622H698.779L696.945 85.288H696.917L695.083 90.622ZM702.998 94.5V84.28H704.132L707.772 90.44H707.8L711.44 84.28H712.616V94.5H711.496V86.156H711.468L708.304 91.462H707.268L704.104 86.156H704.076V94.5H702.998ZM722.968 93.212C722.063 94.164 720.859 94.64 719.356 94.64C717.853 94.64 716.645 94.164 715.73 93.212C714.815 92.2507 714.358 90.9767 714.358 89.39C714.358 87.8033 714.815 86.534 715.73 85.582C716.645 84.6207 717.853 84.14 719.356 84.14C720.859 84.14 722.063 84.6207 722.968 85.582C723.883 86.534 724.34 87.8033 724.34 89.39C724.34 90.9767 723.883 92.2507 722.968 93.212ZM719.356 93.702C720.513 93.702 721.442 93.3147 722.142 92.54C722.851 91.756 723.206 90.706 723.206 89.39C723.206 88.074 722.851 87.0287 722.142 86.254C721.442 85.47 720.513 85.078 719.356 85.078C718.189 85.078 717.251 85.47 716.542 86.254C715.842 87.0287 715.492 88.074 715.492 89.39C715.492 90.706 715.842 91.756 716.542 92.54C717.251 93.3147 718.189 93.702 719.356 93.702Z" fill="black"/>
<path d="M563.327 57.218H558.903L558.707 60.522H558.735C559.286 60.1953 559.907 60.032 560.597 60.032C561.596 60.032 562.371 60.3027 562.921 60.844C563.472 61.3853 563.747 62.1507 563.747 63.14C563.747 64.2787 563.425 65.1467 562.781 65.744C562.147 66.3413 561.213 66.64 559.981 66.64C559.029 66.64 558.152 66.416 557.349 65.968L557.629 65.044C558.413 65.4827 559.197 65.702 559.981 65.702C561.745 65.702 562.627 64.848 562.627 63.14C562.627 62.4213 562.436 61.8753 562.053 61.502C561.671 61.1193 561.12 60.928 560.401 60.928C559.664 60.928 559.053 61.1427 558.567 61.572H557.587L557.895 56.28H563.327V57.218Z" fill="black"/>
<path d="M547.899 74.69C547.516 75.194 547.325 75.9173 547.325 76.86C547.325 77.8027 547.521 78.5307 547.913 79.044C548.305 79.548 548.832 79.8 549.495 79.8C550.129 79.8 550.643 79.5527 551.035 79.058C551.436 78.5633 551.637 77.8633 551.637 76.958V76.762C551.637 75.8753 551.436 75.18 551.035 74.676C550.643 74.172 550.129 73.92 549.495 73.92C548.813 73.92 548.281 74.1767 547.899 74.69ZM546.317 76.86C546.317 75.6373 546.578 74.704 547.101 74.06C547.623 73.4067 548.342 73.08 549.257 73.08C550.311 73.08 551.095 73.5233 551.609 74.41H551.637V70H552.659V80.5H551.679L551.665 79.268H551.637C551.123 80.1827 550.33 80.64 549.257 80.64C548.361 80.64 547.647 80.3133 547.115 79.66C546.583 78.9973 546.317 78.064 546.317 76.86ZM555.39 77.252C555.409 78.0453 555.652 78.6707 556.118 79.128C556.585 79.5853 557.192 79.814 557.938 79.814C558.657 79.814 559.371 79.6273 560.08 79.254L560.36 80.052C559.576 80.444 558.736 80.64 557.84 80.64C556.795 80.64 555.95 80.2993 555.306 79.618C554.662 78.9367 554.34 78.0173 554.34 76.86C554.34 75.684 554.639 74.76 555.236 74.088C555.843 73.416 556.664 73.08 557.7 73.08C558.708 73.08 559.488 73.402 560.038 74.046C560.598 74.6807 560.878 75.5953 560.878 76.79C560.878 76.9113 560.869 77.0653 560.85 77.252H555.39ZM555.39 76.44H559.87C559.861 75.628 559.665 75.0027 559.282 74.564C558.9 74.1253 558.372 73.906 557.7 73.906C557 73.906 556.445 74.13 556.034 74.578C555.633 75.0167 555.418 75.6373 555.39 76.44ZM564.949 73.08C565.836 73.08 566.657 73.2667 567.413 73.64L567.189 74.466C566.471 74.102 565.724 73.92 564.949 73.92C564.408 73.92 563.993 74.018 563.703 74.214C563.423 74.41 563.283 74.6853 563.283 75.04C563.283 75.376 563.405 75.642 563.647 75.838C563.899 76.034 564.352 76.188 565.005 76.3C565.957 76.4587 566.639 76.72 567.049 77.084C567.469 77.448 567.679 77.9473 567.679 78.582C567.679 79.2167 567.437 79.7207 566.951 80.094C566.475 80.458 565.808 80.64 564.949 80.64C563.951 80.64 563.055 80.4067 562.261 79.94L562.499 79.114C563.265 79.5713 564.081 79.8 564.949 79.8C565.491 79.8 565.906 79.6973 566.195 79.492C566.485 79.2773 566.629 78.974 566.629 78.582C566.629 78.2087 566.499 77.9193 566.237 77.714C565.985 77.5087 565.537 77.35 564.893 77.238C563.969 77.0793 563.297 76.8273 562.877 76.482C562.467 76.1273 562.261 75.6467 562.261 75.04C562.261 74.4427 562.495 73.9667 562.961 73.612C563.437 73.2573 564.1 73.08 564.949 73.08ZM571.523 70.84V73.5H574.281V74.34H571.523V78.162C571.523 78.8153 571.612 79.254 571.789 79.478C571.966 79.6927 572.298 79.8 572.783 79.8C573.212 79.8 573.623 79.7207 574.015 79.562L574.183 80.388C573.707 80.556 573.194 80.64 572.643 80.64C571.85 80.64 571.29 80.472 570.963 80.136C570.636 79.7907 570.473 79.198 570.473 78.358V74.34H568.863V73.5H570.473V70.84H571.523Z" fill="black"/>
<path d="M547.899 88.69C547.516 89.194 547.325 89.9173 547.325 90.86C547.325 91.8027 547.521 92.5307 547.913 93.044C548.305 93.548 548.832 93.8 549.495 93.8C550.129 93.8 550.643 93.5527 551.035 93.058C551.436 92.5633 551.637 91.8633 551.637 90.958V90.762C551.637 89.8753 551.436 89.18 551.035 88.676C550.643 88.172 550.129 87.92 549.495 87.92C548.813 87.92 548.281 88.1767 547.899 88.69ZM546.317 90.86C546.317 89.6373 546.578 88.704 547.101 88.06C547.623 87.4067 548.342 87.08 549.257 87.08C550.311 87.08 551.095 87.5233 551.609 88.41H551.637V84H552.659V94.5H551.679L551.665 93.268H551.637C551.123 94.1827 550.33 94.64 549.257 94.64C548.361 94.64 547.647 94.3133 547.115 93.66C546.583 92.9973 546.317 92.064 546.317 90.86ZM555.39 91.252C555.409 92.0453 555.652 92.6707 556.118 93.128C556.585 93.5853 557.192 93.814 557.938 93.814C558.657 93.814 559.371 93.6273 560.08 93.254L560.36 94.052C559.576 94.444 558.736 94.64 557.84 94.64C556.795 94.64 555.95 94.2993 555.306 93.618C554.662 92.9367 554.34 92.0173 554.34 90.86C554.34 89.684 554.639 88.76 555.236 88.088C555.843 87.416 556.664 87.08 557.7 87.08C558.708 87.08 559.488 87.402 560.038 88.046C560.598 88.6807 560.878 89.5953 560.878 90.79C560.878 90.9113 560.869 91.0653 560.85 91.252H555.39ZM555.39 90.44H559.87C559.861 89.628 559.665 89.0027 559.282 88.564C558.9 88.1253 558.372 87.906 557.7 87.906C557 87.906 556.445 88.13 556.034 88.578C555.633 89.0167 555.418 89.6373 555.39 90.44ZM564.949 87.08C565.836 87.08 566.657 87.2667 567.413 87.64L567.189 88.466C566.471 88.102 565.724 87.92 564.949 87.92C564.408 87.92 563.993 88.018 563.703 88.214C563.423 88.41 563.283 88.6853 563.283 89.04C563.283 89.376 563.405 89.642 563.647 89.838C563.899 90.034 564.352 90.188 565.005 90.3C565.957 90.4587 566.639 90.72 567.049 91.084C567.469 91.448 567.679 91.9473 567.679 92.582C567.679 93.2167 567.437 93.7207 566.951 94.094C566.475 94.458 565.808 94.64 564.949 94.64C563.951 94.64 563.055 94.4067 562.261 93.94L562.499 93.114C563.265 93.5713 564.081 93.8 564.949 93.8C565.491 93.8 565.906 93.6973 566.195 93.492C566.485 93.2773 566.629 92.974 566.629 92.582C566.629 92.2087 566.499 91.9193 566.237 91.714C565.985 91.5087 565.537 91.35 564.893 91.238C563.969 91.0793 563.297 90.8273 562.877 90.482C562.467 90.1273 562.261 89.6467 562.261 89.04C562.261 88.4427 562.495 87.9667 562.961 87.612C563.437 87.2573 564.1 87.08 564.949 87.08ZM571.523 84.84V87.5H574.281V88.34H571.523V92.162C571.523 92.8153 571.612 93.254 571.789 93.478C571.966 93.6927 572.298 93.8 572.783 93.8C573.212 93.8 573.623 93.7207 574.015 93.562L574.183 94.388C573.707 94.556 573.194 94.64 572.643 94.64C571.85 94.64 571.29 94.472 570.963 94.136C570.636 93.7907 570.473 93.198 570.473 92.358V88.34H568.863V87.5H570.473V84.84H571.523Z" fill="black"/>
<path d="M458.349 56.28H464.481V57.218L461.135 60.508V60.536H461.555C462.545 60.536 463.301 60.774 463.823 61.25C464.355 61.726 464.621 62.4167 464.621 63.322C464.621 64.386 464.304 65.2073 463.669 65.786C463.044 66.3553 462.148 66.64 460.981 66.64C459.973 66.64 459.087 66.3973 458.321 65.912L458.657 65.002C459.441 65.4687 460.216 65.702 460.981 65.702C461.803 65.702 462.428 65.5013 462.857 65.1C463.287 64.6987 463.501 64.106 463.501 63.322C463.501 62.6593 463.277 62.1693 462.829 61.852C462.391 61.5253 461.686 61.362 460.715 61.362H459.693V60.494L463.039 57.246V57.218H458.349V56.28Z" fill="black"/>
<path d="M443.83 73.22L445.44 79.576H445.468L447.022 73.22H448.464L450.018 79.576H450.046L451.656 73.22H452.762L450.69 80.5H449.29L447.736 74.242H447.708L446.154 80.5H444.754L442.682 73.22H443.83ZM454.996 71.54V70H456.074V71.54H454.996ZM454.996 80.5V73.22H456.074V80.5H454.996ZM459.891 74.69C459.508 75.194 459.317 75.9173 459.317 76.86C459.317 77.8027 459.513 78.5307 459.905 79.044C460.297 79.548 460.824 79.8 461.487 79.8C462.121 79.8 462.635 79.5527 463.027 79.058C463.428 78.5633 463.629 77.8633 463.629 76.958V76.762C463.629 75.8753 463.428 75.18 463.027 74.676C462.635 74.172 462.121 73.92 461.487 73.92C460.805 73.92 460.273 74.1767 459.891 74.69ZM458.309 76.86C458.309 75.6373 458.57 74.704 459.093 74.06C459.615 73.4067 460.334 73.08 461.249 73.08C462.303 73.08 463.087 73.5233 463.601 74.41H463.629V70H464.651V80.5H463.671L463.657 79.268H463.629C463.115 80.1827 462.322 80.64 461.249 80.64C460.353 80.64 459.639 80.3133 459.107 79.66C458.575 78.9973 458.309 78.064 458.309 76.86ZM469.132 70.84V73.5H471.89V74.34H469.132V78.162C469.132 78.8153 469.221 79.254 469.398 79.478C469.576 79.6927 469.907 79.8 470.392 79.8C470.822 79.8 471.232 79.7207 471.624 79.562L471.792 80.388C471.316 80.556 470.803 80.64 470.252 80.64C469.459 80.64 468.899 80.472 468.572 80.136C468.246 79.7907 468.082 79.198 468.082 78.358V74.34H466.472V73.5H468.082V70.84H469.132ZM474.043 70H475.065V74.466H475.093C475.709 73.542 476.526 73.08 477.543 73.08C478.364 73.08 478.971 73.3367 479.363 73.85C479.764 74.354 479.965 75.1567 479.965 76.258V80.5H478.957V76.342C478.957 75.4367 478.826 74.8113 478.565 74.466C478.304 74.1113 477.856 73.934 477.221 73.934C476.661 73.934 476.162 74.2093 475.723 74.76C475.284 75.3013 475.065 75.9173 475.065 76.608V80.5H474.043V70Z" fill="black"/>
<path d="M443.83 87.22L445.44 93.576H445.468L447.022 87.22H448.464L450.018 93.576H450.046L451.656 87.22H452.762L450.69 94.5H449.29L447.736 88.242H447.708L446.154 94.5H444.754L442.682 87.22H443.83ZM454.996 85.54V84H456.074V85.54H454.996ZM454.996 94.5V87.22H456.074V94.5H454.996ZM459.891 88.69C459.508 89.194 459.317 89.9173 459.317 90.86C459.317 91.8027 459.513 92.5307 459.905 93.044C460.297 93.548 460.824 93.8 461.487 93.8C462.121 93.8 462.635 93.5527 463.027 93.058C463.428 92.5633 463.629 91.8633 463.629 90.958V90.762C463.629 89.8753 463.428 89.18 463.027 88.676C462.635 88.172 462.121 87.92 461.487 87.92C460.805 87.92 460.273 88.1767 459.891 88.69ZM458.309 90.86C458.309 89.6373 458.57 88.704 459.093 88.06C459.615 87.4067 460.334 87.08 461.249 87.08C462.303 87.08 463.087 87.5233 463.601 88.41H463.629V84H464.651V94.5H463.671L463.657 93.268H463.629C463.115 94.1827 462.322 94.64 461.249 94.64C460.353 94.64 459.639 94.3133 459.107 93.66C458.575 92.9973 458.309 92.064 458.309 90.86ZM469.132 84.84V87.5H471.89V88.34H469.132V92.162C469.132 92.8153 469.221 93.254 469.398 93.478C469.576 93.6927 469.907 93.8 470.392 93.8C470.822 93.8 471.232 93.7207 471.624 93.562L471.792 94.388C471.316 94.556 470.803 94.64 470.252 94.64C469.459 94.64 468.899 94.472 468.572 94.136C468.246 93.7907 468.082 93.198 468.082 92.358V88.34H466.472V87.5H468.082V84.84H469.132ZM474.043 84H475.065V88.466H475.093C475.709 87.542 476.526 87.08 477.543 87.08C478.364 87.08 478.971 87.3367 479.363 87.85C479.764 88.354 479.965 89.1567 479.965 90.258V94.5H478.957V90.342C478.957 89.4367 478.826 88.8113 478.565 88.466C478.304 88.1113 477.856 87.934 477.221 87.934C476.661 87.934 476.162 88.2093 475.723 88.76C475.284 89.3013 475.065 89.9173 475.065 90.608V94.5H474.043V84Z" fill="black"/>
<path d="M365.327 57.218H360.903L360.707 60.522H360.735C361.286 60.1953 361.907 60.032 362.597 60.032C363.596 60.032 364.371 60.3027 364.921 60.844C365.472 61.3853 365.747 62.1507 365.747 63.14C365.747 64.2787 365.425 65.1467 364.781 65.744C364.147 66.3413 363.213 66.64 361.981 66.64C361.029 66.64 360.152 66.416 359.349 65.968L359.629 65.044C360.413 65.4827 361.197 65.702 361.981 65.702C363.745 65.702 364.627 64.848 364.627 63.14C364.627 62.4213 364.436 61.8753 364.053 61.502C363.671 61.1193 363.12 60.928 362.401 60.928C361.664 60.928 361.053 61.1427 360.567 61.572H359.587L359.895 56.28H365.327V57.218Z" fill="black"/>
<path d="M351.109 73.08C352.127 73.08 352.855 73.29 353.293 73.71C353.732 74.13 353.951 74.8207 353.951 75.782V78.54C353.951 79.2027 354.021 79.856 354.161 80.5H353.181C353.107 80.136 353.06 79.7067 353.041 79.212H353.013C352.761 79.66 352.397 80.01 351.921 80.262C351.445 80.514 350.909 80.64 350.311 80.64C349.639 80.64 349.103 80.4533 348.701 80.08C348.3 79.6973 348.099 79.184 348.099 78.54C348.099 77.728 348.454 77.084 349.163 76.608C349.873 76.1227 350.881 75.88 352.187 75.88H352.929V75.81C352.929 75.1007 352.794 74.6107 352.523 74.34C352.262 74.06 351.791 73.92 351.109 73.92C350.232 73.92 349.415 74.1347 348.659 74.564L348.477 73.738C349.28 73.2993 350.157 73.08 351.109 73.08ZM349.107 78.498C349.107 78.918 349.238 79.2493 349.499 79.492C349.761 79.7253 350.111 79.842 350.549 79.842C351.193 79.842 351.749 79.6133 352.215 79.156C352.691 78.6893 352.929 78.12 352.929 77.448V76.664H352.187C351.207 76.664 350.447 76.832 349.905 77.168C349.373 77.4947 349.107 77.938 349.107 78.498ZM357.281 74.69C356.899 75.194 356.707 75.9173 356.707 76.86C356.707 77.8027 356.903 78.5307 357.295 79.044C357.687 79.548 358.215 79.8 358.877 79.8C359.512 79.8 360.025 79.5527 360.417 79.058C360.819 78.5633 361.019 77.8633 361.019 76.958V76.762C361.019 75.8753 360.819 75.18 360.417 74.676C360.025 74.172 359.512 73.92 358.877 73.92C358.196 73.92 357.664 74.1767 357.281 74.69ZM355.699 76.86C355.699 75.6373 355.961 74.704 356.483 74.06C357.006 73.4067 357.725 73.08 358.639 73.08C359.694 73.08 360.478 73.5233 360.991 74.41H361.019V70H362.041V80.5H361.061L361.047 79.268H361.019C360.506 80.1827 359.713 80.64 358.639 80.64C357.743 80.64 357.029 80.3133 356.497 79.66C355.965 78.9973 355.699 78.064 355.699 76.86ZM365.375 74.69C364.992 75.194 364.801 75.9173 364.801 76.86C364.801 77.8027 364.997 78.5307 365.389 79.044C365.781 79.548 366.308 79.8 366.971 79.8C367.606 79.8 368.119 79.5527 368.511 79.058C368.912 78.5633 369.113 77.8633 369.113 76.958V76.762C369.113 75.8753 368.912 75.18 368.511 74.676C368.119 74.172 367.606 73.92 366.971 73.92C366.29 73.92 365.758 74.1767 365.375 74.69ZM363.793 76.86C363.793 75.6373 364.054 74.704 364.577 74.06C365.1 73.4067 365.818 73.08 366.733 73.08C367.788 73.08 368.572 73.5233 369.085 74.41H369.113V70H370.135V80.5H369.155L369.141 79.268H369.113C368.6 80.1827 367.806 80.64 366.733 80.64C365.837 80.64 365.123 80.3133 364.591 79.66C364.059 78.9973 363.793 78.064 363.793 76.86ZM372.307 73.22H373.301L373.329 74.774H373.357C374.178 73.6447 375.336 73.08 376.829 73.08V73.962C375.793 73.962 374.953 74.2467 374.309 74.816C373.674 75.3853 373.357 76.1227 373.357 77.028V80.5H372.307V73.22Z" fill="black"/>
<path d="M351.109 87.08C352.127 87.08 352.855 87.29 353.293 87.71C353.732 88.13 353.951 88.8207 353.951 89.782V92.54C353.951 93.2027 354.021 93.856 354.161 94.5H353.181C353.107 94.136 353.06 93.7067 353.041 93.212H353.013C352.761 93.66 352.397 94.01 351.921 94.262C351.445 94.514 350.909 94.64 350.311 94.64C349.639 94.64 349.103 94.4533 348.701 94.08C348.3 93.6973 348.099 93.184 348.099 92.54C348.099 91.728 348.454 91.084 349.163 90.608C349.873 90.1227 350.881 89.88 352.187 89.88H352.929V89.81C352.929 89.1007 352.794 88.6107 352.523 88.34C352.262 88.06 351.791 87.92 351.109 87.92C350.232 87.92 349.415 88.1347 348.659 88.564L348.477 87.738C349.28 87.2993 350.157 87.08 351.109 87.08ZM349.107 92.498C349.107 92.918 349.238 93.2493 349.499 93.492C349.761 93.7253 350.111 93.842 350.549 93.842C351.193 93.842 351.749 93.6133 352.215 93.156C352.691 92.6893 352.929 92.12 352.929 91.448V90.664H352.187C351.207 90.664 350.447 90.832 349.905 91.168C349.373 91.4947 349.107 91.938 349.107 92.498ZM357.281 88.69C356.899 89.194 356.707 89.9173 356.707 90.86C356.707 91.8027 356.903 92.5307 357.295 93.044C357.687 93.548 358.215 93.8 358.877 93.8C359.512 93.8 360.025 93.5527 360.417 93.058C360.819 92.5633 361.019 91.8633 361.019 90.958V90.762C361.019 89.8753 360.819 89.18 360.417 88.676C360.025 88.172 359.512 87.92 358.877 87.92C358.196 87.92 357.664 88.1767 357.281 88.69ZM355.699 90.86C355.699 89.6373 355.961 88.704 356.483 88.06C357.006 87.4067 357.725 87.08 358.639 87.08C359.694 87.08 360.478 87.5233 360.991 88.41H361.019V84H362.041V94.5H361.061L361.047 93.268H361.019C360.506 94.1827 359.713 94.64 358.639 94.64C357.743 94.64 357.029 94.3133 356.497 93.66C355.965 92.9973 355.699 92.064 355.699 90.86ZM365.375 88.69C364.992 89.194 364.801 89.9173 364.801 90.86C364.801 91.8027 364.997 92.5307 365.389 93.044C365.781 93.548 366.308 93.8 366.971 93.8C367.606 93.8 368.119 93.5527 368.511 93.058C368.912 92.5633 369.113 91.8633 369.113 90.958V90.762C369.113 89.8753 368.912 89.18 368.511 88.676C368.119 88.172 367.606 87.92 366.971 87.92C366.29 87.92 365.758 88.1767 365.375 88.69ZM363.793 90.86C363.793 89.6373 364.054 88.704 364.577 88.06C365.1 87.4067 365.818 87.08 366.733 87.08C367.788 87.08 368.572 87.5233 369.085 88.41H369.113V84H370.135V94.5H369.155L369.141 93.268H369.113C368.6 94.1827 367.806 94.64 366.733 94.64C365.837 94.64 365.123 94.3133 364.591 93.66C364.059 92.9973 363.793 92.064 363.793 90.86ZM372.307 87.22H373.301L373.329 88.774H373.357C374.178 87.6447 375.336 87.08 376.829 87.08V87.962C375.793 87.962 374.953 88.2467 374.309 88.816C373.674 89.3853 373.357 90.1227 373.357 91.028V94.5H372.307V87.22Z" fill="black"/>
<path d="M241.327 57.218H236.903L236.707 60.522H236.735C237.286 60.1953 237.907 60.032 238.597 60.032C239.596 60.032 240.371 60.3027 240.921 60.844C241.472 61.3853 241.747 62.1507 241.747 63.14C241.747 64.2787 241.425 65.1467 240.781 65.744C240.147 66.3413 239.213 66.64 237.981 66.64C237.029 66.64 236.152 66.416 235.349 65.968L235.629 65.044C236.413 65.4827 237.197 65.702 237.981 65.702C239.745 65.702 240.627 64.848 240.627 63.14C240.627 62.4213 240.436 61.8753 240.053 61.502C239.671 61.1193 239.12 60.928 238.401 60.928C237.664 60.928 237.053 61.1427 236.567 61.572H235.587L235.895 56.28H241.327V57.218Z" fill="black"/>
<path d="M235.783 71.358C236.427 70.546 237.333 70.14 238.499 70.14C239.666 70.14 240.571 70.546 241.215 71.358C241.859 72.17 242.181 73.514 242.181 75.39C242.181 77.266 241.859 78.61 241.215 79.422C240.571 80.234 239.666 80.64 238.499 80.64C237.333 80.64 236.427 80.234 235.783 79.422C235.139 78.61 234.817 77.266 234.817 75.39C234.817 73.514 235.139 72.17 235.783 71.358ZM236.567 78.708C236.997 79.3893 237.641 79.73 238.499 79.73C239.358 79.73 239.997 79.3893 240.417 78.708C240.847 78.0173 241.061 76.9113 241.061 75.39C241.061 73.8687 240.847 72.7673 240.417 72.086C239.997 71.3953 239.358 71.05 238.499 71.05C237.641 71.05 236.997 71.3953 236.567 72.086C236.147 72.7673 235.937 73.8687 235.937 75.39C235.937 76.9113 236.147 78.0173 236.567 78.708Z" fill="black"/>
<path d="M231.8 87.08C232.686 87.08 233.508 87.2667 234.264 87.64L234.04 88.466C233.321 88.102 232.574 87.92 231.8 87.92C231.258 87.92 230.843 88.018 230.554 88.214C230.274 88.41 230.134 88.6853 230.134 89.04C230.134 89.376 230.255 89.642 230.498 89.838C230.75 90.034 231.202 90.188 231.856 90.3C232.808 90.4587 233.489 90.72 233.9 91.084C234.32 91.448 234.53 91.9473 234.53 92.582C234.53 93.2167 234.287 93.7207 233.802 94.094C233.326 94.458 232.658 94.64 231.8 94.64C230.801 94.64 229.905 94.4067 229.112 93.94L229.35 93.114C230.115 93.5713 230.932 93.8 231.8 93.8C232.341 93.8 232.756 93.6973 233.046 93.492C233.335 93.2773 233.48 92.974 233.48 92.582C233.48 92.2087 233.349 91.9193 233.088 91.714C232.836 91.5087 232.388 91.35 231.744 91.238C230.82 91.0793 230.148 90.8273 229.728 90.482C229.317 90.1273 229.112 89.6467 229.112 89.04C229.112 88.4427 229.345 87.9667 229.812 87.612C230.288 87.2573 230.95 87.08 231.8 87.08ZM236.337 87.22H237.331L237.359 88.774H237.387C238.208 87.6447 239.366 87.08 240.859 87.08V87.962C239.823 87.962 238.983 88.2467 238.339 88.816C237.704 89.3853 237.387 90.1227 237.387 91.028V94.5H236.337V87.22ZM245.599 87.934C244.778 87.934 244.139 88.1907 243.681 88.704C243.224 89.208 242.995 89.9267 242.995 90.86C242.995 91.756 243.233 92.47 243.709 93.002C244.195 93.534 244.825 93.8 245.599 93.8C246.253 93.8 246.878 93.6413 247.475 93.324L247.755 94.15C247.055 94.4767 246.323 94.64 245.557 94.64C244.475 94.64 243.597 94.2993 242.925 93.618C242.253 92.9273 241.917 92.008 241.917 90.86C241.917 89.6747 242.239 88.7507 242.883 88.088C243.527 87.416 244.419 87.08 245.557 87.08C246.323 87.08 247.055 87.2433 247.755 87.57L247.475 88.424C246.85 88.0973 246.225 87.934 245.599 87.934Z" fill="black"/>
<path d="M164.527 66.5V57.624H164.499L161.741 60.172L161.307 59.262L164.527 56.28H165.647V66.5H164.527Z" fill="black"/>
<path d="M140.527 66.5V57.624H140.499L137.741 60.172L137.307 59.262L140.527 56.28H141.647V66.5H140.527Z" fill="black"/>
<path d="M129.987 74.704C129.567 74.1813 128.988 73.92 128.251 73.92C127.513 73.92 126.93 74.1813 126.501 74.704C126.081 75.2173 125.871 75.936 125.871 76.86C125.871 77.784 126.081 78.5073 126.501 79.03C126.93 79.5433 127.513 79.8 128.251 79.8C128.988 79.8 129.567 79.5433 129.987 79.03C130.416 78.5073 130.631 77.784 130.631 76.86C130.631 75.936 130.416 75.2173 129.987 74.704ZM130.743 79.618C130.117 80.2993 129.287 80.64 128.251 80.64C127.215 80.64 126.384 80.2993 125.759 79.618C125.133 78.9367 124.821 78.0173 124.821 76.86C124.821 75.7027 125.133 74.7833 125.759 74.102C126.384 73.4207 127.215 73.08 128.251 73.08C129.287 73.08 130.117 73.4207 130.743 74.102C131.368 74.7833 131.681 75.7027 131.681 76.86C131.681 78.0173 131.368 78.9367 130.743 79.618ZM133.295 73.22H134.289L134.317 74.774H134.345C135.166 73.6447 136.324 73.08 137.817 73.08V73.962C136.781 73.962 135.941 74.2467 135.297 74.816C134.662 75.3853 134.345 76.1227 134.345 77.028V80.5H133.295V73.22ZM140.527 74.69C140.145 75.194 139.953 75.9173 139.953 76.86C139.953 77.8027 140.149 78.5307 140.541 79.044C140.933 79.548 141.461 79.8 142.123 79.8C142.758 79.8 143.271 79.5527 143.663 79.058C144.065 78.5633 144.265 77.8633 144.265 76.958V76.762C144.265 75.8753 144.065 75.18 143.663 74.676C143.271 74.172 142.758 73.92 142.123 73.92C141.442 73.92 140.91 74.1767 140.527 74.69ZM138.945 76.86C138.945 75.6373 139.207 74.704 139.729 74.06C140.252 73.4067 140.971 73.08 141.885 73.08C142.94 73.08 143.724 73.5233 144.237 74.41H144.265V70H145.287V80.5H144.307L144.293 79.268H144.265C143.752 80.1827 142.959 80.64 141.885 80.64C140.989 80.64 140.275 80.3133 139.743 79.66C139.211 78.9973 138.945 78.064 138.945 76.86ZM148.019 77.252C148.038 78.0453 148.281 78.6707 148.747 79.128C149.214 79.5853 149.821 79.814 150.567 79.814C151.286 79.814 152 79.6273 152.709 79.254L152.989 80.052C152.205 80.444 151.365 80.64 150.469 80.64C149.424 80.64 148.579 80.2993 147.935 79.618C147.291 78.9367 146.969 78.0173 146.969 76.86C146.969 75.684 147.268 74.76 147.865 74.088C148.472 73.416 149.293 73.08 150.329 73.08C151.337 73.08 152.117 73.402 152.667 74.046C153.227 74.6807 153.507 75.5953 153.507 76.79C153.507 76.9113 153.498 77.0653 153.479 77.252H148.019ZM148.019 76.44H152.499C152.49 75.628 152.294 75.0027 151.911 74.564C151.529 74.1253 151.001 73.906 150.329 73.906C149.629 73.906 149.074 74.13 148.663 74.578C148.262 75.0167 148.047 75.6373 148.019 76.44ZM155.17 73.22H156.164L156.192 74.774H156.22C157.041 73.6447 158.199 73.08 159.692 73.08V73.962C158.656 73.962 157.816 74.2467 157.172 74.816C156.537 75.3853 156.22 76.1227 156.22 77.028V80.5H155.17V73.22ZM162.074 71.54V70H163.152V71.54H162.074ZM162.074 80.5V73.22H163.152V80.5H162.074ZM165.807 73.22H166.787L166.801 74.522H166.829C167.109 74.074 167.464 73.724 167.893 73.472C168.332 73.2107 168.803 73.08 169.307 73.08C170.128 73.08 170.735 73.3367 171.127 73.85C171.528 74.354 171.729 75.1567 171.729 76.258V80.5H170.721V76.342C170.721 75.4367 170.59 74.8113 170.329 74.466C170.068 74.1113 169.62 73.934 168.985 73.934C168.444 73.934 167.949 74.2047 167.501 74.746C167.053 75.278 166.829 75.8987 166.829 76.608V80.5H165.807V73.22ZM174.352 76.72C174.352 77.588 174.543 78.274 174.926 78.778C175.318 79.2727 175.831 79.52 176.466 79.52C177.11 79.52 177.637 79.2773 178.048 78.792C178.459 78.3067 178.664 77.6393 178.664 76.79V76.65C178.664 75.81 178.459 75.1473 178.048 74.662C177.637 74.1673 177.11 73.92 176.466 73.92C175.803 73.92 175.285 74.1627 174.912 74.648C174.539 75.124 174.352 75.8147 174.352 76.72ZM173.344 76.72C173.344 75.5533 173.601 74.6573 174.114 74.032C174.627 73.3973 175.337 73.08 176.242 73.08C177.334 73.08 178.141 73.5327 178.664 74.438H178.692L178.706 73.22H179.686V79.898C179.686 82.446 178.552 83.72 176.284 83.72C175.491 83.72 174.735 83.5707 174.016 83.272L174.254 82.446C174.917 82.7353 175.593 82.88 176.284 82.88C177.105 82.88 177.707 82.6513 178.09 82.194C178.473 81.7367 178.664 80.9853 178.664 79.94V79.044H178.636C178.132 79.9213 177.334 80.36 176.242 80.36C175.393 80.36 174.697 80.0333 174.156 79.38C173.615 78.7173 173.344 77.8307 173.344 76.72Z" fill="black"/>
<path d="M129.987 88.704C129.567 88.1813 128.988 87.92 128.251 87.92C127.513 87.92 126.93 88.1813 126.501 88.704C126.081 89.2173 125.871 89.936 125.871 90.86C125.871 91.784 126.081 92.5073 126.501 93.03C126.93 93.5433 127.513 93.8 128.251 93.8C128.988 93.8 129.567 93.5433 129.987 93.03C130.416 92.5073 130.631 91.784 130.631 90.86C130.631 89.936 130.416 89.2173 129.987 88.704ZM130.743 93.618C130.117 94.2993 129.287 94.64 128.251 94.64C127.215 94.64 126.384 94.2993 125.759 93.618C125.133 92.9367 124.821 92.0173 124.821 90.86C124.821 89.7027 125.133 88.7833 125.759 88.102C126.384 87.4207 127.215 87.08 128.251 87.08C129.287 87.08 130.117 87.4207 130.743 88.102C131.368 88.7833 131.681 89.7027 131.681 90.86C131.681 92.0173 131.368 92.9367 130.743 93.618ZM133.295 87.22H134.289L134.317 88.774H134.345C135.166 87.6447 136.324 87.08 137.817 87.08V87.962C136.781 87.962 135.941 88.2467 135.297 88.816C134.662 89.3853 134.345 90.1227 134.345 91.028V94.5H133.295V87.22ZM140.527 88.69C140.145 89.194 139.953 89.9173 139.953 90.86C139.953 91.8027 140.149 92.5307 140.541 93.044C140.933 93.548 141.461 93.8 142.123 93.8C142.758 93.8 143.271 93.5527 143.663 93.058C144.065 92.5633 144.265 91.8633 144.265 90.958V90.762C144.265 89.8753 144.065 89.18 143.663 88.676C143.271 88.172 142.758 87.92 142.123 87.92C141.442 87.92 140.91 88.1767 140.527 88.69ZM138.945 90.86C138.945 89.6373 139.207 88.704 139.729 88.06C140.252 87.4067 140.971 87.08 141.885 87.08C142.94 87.08 143.724 87.5233 144.237 88.41H144.265V84H145.287V94.5H144.307L144.293 93.268H144.265C143.752 94.1827 142.959 94.64 141.885 94.64C140.989 94.64 140.275 94.3133 139.743 93.66C139.211 92.9973 138.945 92.064 138.945 90.86ZM148.019 91.252C148.038 92.0453 148.281 92.6707 148.747 93.128C149.214 93.5853 149.821 93.814 150.567 93.814C151.286 93.814 152 93.6273 152.709 93.254L152.989 94.052C152.205 94.444 151.365 94.64 150.469 94.64C149.424 94.64 148.579 94.2993 147.935 93.618C147.291 92.9367 146.969 92.0173 146.969 90.86C146.969 89.684 147.268 88.76 147.865 88.088C148.472 87.416 149.293 87.08 150.329 87.08C151.337 87.08 152.117 87.402 152.667 88.046C153.227 88.6807 153.507 89.5953 153.507 90.79C153.507 90.9113 153.498 91.0653 153.479 91.252H148.019ZM148.019 90.44H152.499C152.49 89.628 152.294 89.0027 151.911 88.564C151.529 88.1253 151.001 87.906 150.329 87.906C149.629 87.906 149.074 88.13 148.663 88.578C148.262 89.0167 148.047 89.6373 148.019 90.44ZM155.17 87.22H156.164L156.192 88.774H156.22C157.041 87.6447 158.199 87.08 159.692 87.08V87.962C158.656 87.962 157.816 88.2467 157.172 88.816C156.537 89.3853 156.22 90.1227 156.22 91.028V94.5H155.17V87.22ZM162.074 85.54V84H163.152V85.54H162.074ZM162.074 94.5V87.22H163.152V94.5H162.074ZM165.807 87.22H166.787L166.801 88.522H166.829C167.109 88.074 167.464 87.724 167.893 87.472C168.332 87.2107 168.803 87.08 169.307 87.08C170.128 87.08 170.735 87.3367 171.127 87.85C171.528 88.354 171.729 89.1567 171.729 90.258V94.5H170.721V90.342C170.721 89.4367 170.59 88.8113 170.329 88.466C170.068 88.1113 169.62 87.934 168.985 87.934C168.444 87.934 167.949 88.2047 167.501 88.746C167.053 89.278 166.829 89.8987 166.829 90.608V94.5H165.807V87.22ZM174.352 90.72C174.352 91.588 174.543 92.274 174.926 92.778C175.318 93.2727 175.831 93.52 176.466 93.52C177.11 93.52 177.637 93.2773 178.048 92.792C178.459 92.3067 178.664 91.6393 178.664 90.79V90.65C178.664 89.81 178.459 89.1473 178.048 88.662C177.637 88.1673 177.11 87.92 176.466 87.92C175.803 87.92 175.285 88.1627 174.912 88.648C174.539 89.124 174.352 89.8147 174.352 90.72ZM173.344 90.72C173.344 89.5533 173.601 88.6573 174.114 88.032C174.627 87.3973 175.337 87.08 176.242 87.08C177.334 87.08 178.141 87.5327 178.664 88.438H178.692L178.706 87.22H179.686V93.898C179.686 96.446 178.552 97.72 176.284 97.72C175.491 97.72 174.735 97.5707 174.016 97.272L174.254 96.446C174.917 96.7353 175.593 96.88 176.284 96.88C177.105 96.88 177.707 96.6513 178.09 96.194C178.473 95.7367 178.664 94.9853 178.664 93.94V93.044H178.636C178.132 93.9213 177.334 94.36 176.242 94.36C175.393 94.36 174.697 94.0333 174.156 93.38C173.615 92.7173 173.344 91.8307 173.344 90.72Z" fill="black"/>
<path d="M68.3272 57.218H63.9032L63.7072 60.522H63.7352C64.2858 60.1953 64.9065 60.032 65.5972 60.032C66.5958 60.032 67.3705 60.3027 67.9212 60.844C68.4718 61.3853 68.7472 62.1507 68.7472 63.14C68.7472 64.2787 68.4252 65.1467 67.7812 65.744C67.1465 66.3413 66.2132 66.64 64.9812 66.64C64.0292 66.64 63.1518 66.416 62.3492 65.968L62.6292 65.044C63.4132 65.4827 64.1972 65.702 64.9812 65.702C66.7452 65.702 67.6272 64.848 67.6272 63.14C67.6272 62.4213 67.4358 61.8753 67.0532 61.502C66.6705 61.1193 66.1198 60.928 65.4012 60.928C64.6638 60.928 64.0525 61.1427 63.5672 61.572H62.5872L62.8952 56.28H68.3272V57.218Z" fill="black"/>
<path d="M43.2563 70.28V79.548H48.2543V80.5H42.0943V70.28H43.2563ZM50.2838 80.5V70.35C51.0958 70.21 51.9684 70.14 52.9018 70.14C54.2084 70.14 55.1931 70.3827 55.8558 70.868C56.5278 71.344 56.8638 72.0253 56.8638 72.912C56.8638 73.6213 56.6724 74.214 56.2897 74.69C55.9071 75.166 55.3658 75.4927 54.6658 75.67V75.698C55.0858 75.922 55.5011 76.5287 55.9118 77.518L57.1438 80.5H55.9818L54.7778 77.546C54.4978 76.874 54.2318 76.4587 53.9798 76.3C53.7371 76.132 53.2518 76.048 52.5238 76.048H51.4038V80.5H50.2838ZM51.4038 75.152H52.5238C53.6344 75.152 54.4511 74.9747 54.9738 74.62C55.4964 74.256 55.7578 73.7193 55.7578 73.01C55.7578 71.7033 54.7731 71.05 52.8038 71.05C52.3091 71.05 51.8424 71.092 51.4038 71.176V75.152ZM59.1054 80.5V78.54H60.4074V80.5H59.1054ZM62.6843 70.28L64.7423 79.296H64.7703L66.8703 70.28H68.3263L70.4263 79.296H70.4543L72.5123 70.28H73.6183L71.1123 80.5H69.6983L67.5983 71.484H67.5703L65.4563 80.5H64.0563L61.5363 70.28H62.6843ZM79.8824 70.28L75.0524 81.06H73.9744L78.7904 70.28H79.8824ZM84.2344 71.078C83.7491 71.078 83.2964 71.12 82.8764 71.204V79.576C83.2964 79.66 83.7491 79.702 84.2344 79.702C87.0624 79.702 88.4764 78.218 88.4764 75.25C88.4764 73.8687 88.1171 72.828 87.3984 72.128C86.6797 71.428 85.6251 71.078 84.2344 71.078ZM89.5544 75.25C89.5544 77.014 89.0971 78.3533 88.1824 79.268C87.2677 80.1827 85.9517 80.64 84.2344 80.64C83.4037 80.64 82.5777 80.5653 81.7564 80.416V70.364C82.5964 70.2147 83.4224 70.14 84.2344 70.14C85.9424 70.14 87.2537 70.5833 88.1684 71.47C89.0924 72.3473 89.5544 73.6073 89.5544 75.25Z" fill="black"/>
<path d="M44.6147 85.05C43.9707 85.05 43.4713 85.1947 43.1167 85.484C42.762 85.764 42.5847 86.156 42.5847 86.66C42.5847 87.5653 43.2473 88.2187 44.5727 88.62C45.73 88.956 46.5513 89.376 47.0367 89.88C47.5313 90.384 47.7787 91.0373 47.7787 91.84C47.7787 92.7453 47.494 93.4407 46.9247 93.926C46.3647 94.402 45.562 94.64 44.5167 94.64C43.3593 94.64 42.3327 94.346 41.4367 93.758L41.7727 92.834C42.5847 93.4127 43.4993 93.702 44.5167 93.702C45.2073 93.702 45.7347 93.5433 46.0987 93.226C46.472 92.9087 46.6587 92.4467 46.6587 91.84C46.6587 91.28 46.5 90.8367 46.1827 90.51C45.8747 90.174 45.3287 89.8847 44.5447 89.642C42.5007 89.0353 41.4787 88.0413 41.4787 86.66C41.4787 85.8947 41.754 85.2833 42.3047 84.826C42.8647 84.3687 43.6347 84.14 44.6147 84.14C45.6693 84.14 46.6493 84.3593 47.5547 84.798L47.2747 85.666C46.4627 85.2553 45.576 85.05 44.6147 85.05ZM54.2254 85.078C52.9934 85.078 52.0087 85.47 51.2714 86.254C50.5434 87.0287 50.1794 88.074 50.1794 89.39C50.1794 90.706 50.5527 91.756 51.2994 92.54C52.0554 93.3147 53.0307 93.702 54.2254 93.702C55.196 93.702 56.0967 93.436 56.9274 92.904L57.3054 93.744C56.3907 94.3413 55.3314 94.64 54.1274 94.64C52.5874 94.64 51.3554 94.164 50.4314 93.212C49.5074 92.26 49.0454 90.986 49.0454 89.39C49.0454 87.7753 49.5027 86.4967 50.4174 85.554C51.332 84.6113 52.5687 84.14 54.1274 84.14C55.3314 84.14 56.3907 84.4387 57.3054 85.036L56.9274 85.876C56.106 85.344 55.2054 85.078 54.2254 85.078ZM59.413 94.5V92.54H60.715V94.5H59.413ZM62.9919 84.28L65.0499 93.296H65.0779L67.1779 84.28H68.6339L70.7339 93.296H70.7619L72.8199 84.28H73.9259L71.4199 94.5H70.0059L67.9059 85.484H67.8779L65.7639 94.5H64.3639L61.8439 84.28H62.9919ZM80.19 84.28L75.36 95.06H74.282L79.098 84.28H80.19ZM84.542 85.078C84.0567 85.078 83.604 85.12 83.184 85.204V93.576C83.604 93.66 84.0567 93.702 84.542 93.702C87.37 93.702 88.784 92.218 88.784 89.25C88.784 87.8687 88.4247 86.828 87.706 86.128C86.9874 85.428 85.9327 85.078 84.542 85.078ZM89.862 89.25C89.862 91.014 89.4047 92.3533 88.49 93.268C87.5754 94.1827 86.2594 94.64 84.542 94.64C83.7114 94.64 82.8854 94.5653 82.064 94.416V84.364C82.904 84.2147 83.73 84.14 84.542 84.14C86.25 84.14 87.5614 84.5833 88.476 85.47C89.4 86.3473 89.862 87.6073 89.862 89.25Z" fill="black"/>
</g>
<defs>
<clipPath id="clip0_1_2">
<rect width="800" height="98" fill="white"/>
</clipPath>
</defs>
</svg>
