<svg xmlns="http://www.w3.org/2000/svg" width="800" height="84" fill="none"><g clip-path="url(#a)"><path stroke="#E3E3E3" stroke-linecap="round" d="M4.5 21.5h791M4.5 21.5v31M4.5 52.5h791M795.5 21.5v31M770.5 21.5v3M770.5 52.5v-3M746.5 21.5v3M746.5 52.5v-3M721.5 21.5v3M721.5 52.5v-3M696.5 21.5v3M696.5 52.5v-3M671.5 21.5v3M671.5 52.5v-3M647.5 21.5v3M647.5 52.5v-3M622.5 21.5v31M597.5 21.5v3M597.5 52.5v-3M573.5 21.5v3M573.5 52.5v-3M548.5 21.5v3M548.5 52.5v-3M523.5 21.5v3M523.5 52.5v-3M498.5 21.5v31M474.5 21.5v3M474.5 52.5v-3M449.5 21.5v3M449.5 52.5v-3M424.5 21.5v31M400.5 21.5v3M400.5 52.5v-3M375.5 21.5v3M375.5 52.5v-3M350.5 21.5v3M350.5 52.5v-3M325.5 21.5v3M325.5 52.5v-3M301.5 21.5v31M276.5 21.5v3M276.5 52.5v-3M251.5 21.5v3M251.5 52.5v-3M226.5 21.5v3M226.5 52.5v-3M202.5 21.5v3M202.5 52.5v-3M177.5 21.5v31M152.5 21.5v3M152.5 52.5v-3M128.5 21.5v3M128.5 52.5v-3M103.5 21.5v3M103.5 52.5v-3M78.5 21.5v3M78.5 52.5v-3M53.5 21.5v3M53.5 52.5v-3M29.5 21.5v3M29.5 52.5v-3"/><path fill="#E3E3E3" d="M782.485 6.14q3.696 0 3.696 5.25t-3.696 5.25q-1.75 0-2.716-1.218t-.966-4.032.966-4.032 2.716-1.218m-1.932 8.568q.645 1.022 1.932 1.022 1.288 0 1.932-1.022.644-1.036.644-3.318t-.644-3.304q-.644-1.035-1.932-1.036-1.287 0-1.932 1.036-.63 1.022-.63 3.304t.63 3.318M634.541 10.508q-1.077 0-1.778.7-.7.7-.7 1.792 0 1.302.658 2.002.659.7 1.82.7 1.191 0 1.848-.7.658-.7.658-2.002 0-1.148-.686-1.82-.671-.672-1.82-.672m0 6.132q-1.694 0-2.66-1.022-.952-1.021-.952-2.94 0-2.842 1.372-4.578 1.387-1.735 3.808-1.96l.196.938q-3.22.364-4.088 3.626l.014.014q.966-1.078 2.548-1.078 1.554 0 2.464.91.924.896.924 2.45 0 1.665-.994 2.66-.994.98-2.632.98M606.751 6.28h6.58v.938q-2.45 4.018-4.06 9.282h-1.162q1.625-5.11 4.13-9.254v-.028h-5.488zM506.172 16.5V7.624h-.028l-2.758 2.548-.434-.91 3.22-2.982h1.12V16.5zm8.682 0V7.624h-.028l-2.758 2.548-.434-.91 3.22-2.982h1.12V16.5zM481.672 16.5V7.624h-.028l-2.758 2.548-.434-.91 3.22-2.982h1.12V16.5zm8.458-9.408q-1.386 0-2.772.966l-.336-.896q1.428-1.022 3.248-1.022 1.498 0 2.324.77.826.756.826 2.128t-.994 2.772-3.724 3.724v.028h4.76v.938h-6.3v-.938q2.982-2.464 4.032-3.836 1.064-1.386 1.064-2.604 0-.994-.546-1.512-.532-.518-1.582-.518M432.172 16.5V7.624h-.028l-2.758 2.548-.434-.91 3.22-2.982h1.12V16.5zm9.438-3.29V7.918h-.028l-3.724 5.264v.028zm1.106 0h1.736v.91h-1.736v2.38h-1.106v-2.38h-4.9v-.91l4.9-6.93h1.106zM408.172 16.5V7.624h-.028l-2.758 2.548-.434-.91 3.22-2.982h1.12V16.5zm11.496-9.282h-4.424l-.196 3.304h.028a3.6 3.6 0 0 1 1.862-.49q1.498 0 2.324.812t.826 2.296q0 1.709-.966 2.604-.952.896-2.8.896a5.3 5.3 0 0 1-2.632-.672l.28-.924q1.176.658 2.352.658 2.646 0 2.646-2.562 0-1.078-.574-1.638-.574-.574-1.652-.574-1.106 0-1.834.644h-.98l.308-5.292h5.432zM309.172 16.5V7.624h-.028l-2.758 2.548-.434-.91 3.22-2.982h1.12V16.5zm8.612-10.36q1.708 0 2.66 1.022.966 1.008.966 2.87 0 2.925-1.414 4.648-1.4 1.722-3.906 1.96l-.196-.938q1.708-.181 2.744-1.078 1.036-.91 1.484-2.562l-.028-.014q-.98 1.092-2.548 1.092-1.554 0-2.464-.91-.91-.924-.91-2.52 0-1.624.98-2.59.994-.98 2.632-.98m0 .938q-1.19 0-1.848.686-.644.686-.644 1.946 0 1.204.672 1.89.672.672 1.82.672 1.078 0 1.778-.714t.7-1.848q0-1.246-.658-1.932-.658-.7-1.82-.7M283.948 7.092q-1.386 0-2.772.966l-.336-.896q1.428-1.022 3.248-1.022 1.499 0 2.324.77.826.756.826 2.128t-.994 2.772-3.724 3.724v.028h4.76v.938h-6.3v-.938q2.982-2.464 4.032-3.836 1.065-1.386 1.064-2.604 0-.994-.546-1.512-.531-.518-1.582-.518m8.878-.952q3.696 0 3.696 5.25t-3.696 5.25q-1.75 0-2.716-1.218t-.966-4.032.966-4.032 2.716-1.218m-1.932 8.568q.643 1.022 1.932 1.022t1.932-1.022q.644-1.036.644-3.318t-.644-3.304q-.643-1.035-1.932-1.036-1.288 0-1.932 1.036-.63 1.022-.63 3.304t.63 3.318M184.948 7.092q-1.386 0-2.772.966l-.336-.896q1.428-1.022 3.248-1.022 1.499 0 2.324.77.826.756.826 2.128t-.994 2.772-3.724 3.724v.028h4.76v.938h-6.3v-.938q2.982-2.464 4.032-3.836 1.065-1.386 1.064-2.604 0-.994-.546-1.512-.531-.518-1.582-.518m9.662 6.118V7.918h-.028l-3.724 5.264v.028zm1.106 0h1.736v.91h-1.736v2.38h-1.106v-2.38h-4.9v-.91l4.9-6.93h1.106zM159.448 7.092q-1.386 0-2.772.966l-.336-.896q1.428-1.022 3.248-1.022 1.499 0 2.324.77.826.756.826 2.128t-.994 2.772-3.724 3.724v.028h4.76v.938h-6.3v-.938q2.982-2.464 4.032-3.836 1.065-1.386 1.064-2.604 0-.994-.546-1.512-.532-.518-1.582-.518m11.72.126h-4.424l-.196 3.304h.028a3.6 3.6 0 0 1 1.862-.49q1.498 0 2.324.812t.826 2.296q0 1.709-.966 2.604-.952.896-2.8.896a5.3 5.3 0 0 1-2.632-.672l.28-.924q1.176.658 2.352.658 2.646 0 2.646-2.562 0-1.078-.574-1.638-.574-.574-1.652-.574-1.106 0-1.834.644h-.98l.308-5.292h5.432zM9.008 6.28h6.132v.938l-3.36 3.29v.028h.434q1.485 0 2.268.714.798.714.798 2.072 0 1.596-.952 2.464-.937.854-2.688.854-1.511 0-2.66-.728l.336-.91q1.176.7 2.324.7 1.233 0 1.876-.602.645-.602.644-1.778 0-.994-.672-1.47-.657-.49-2.114-.49h-1.022v-.868l3.346-3.248v-.028h-4.69zM20.854 16.5V7.624h-.028l-2.758 2.548-.434-.91 3.22-2.982h1.12V16.5zM690.526 36.704q-.63-.784-1.736-.784-1.107 0-1.75.784-.63.77-.63 2.156t.63 2.17q.643.77 1.75.77t1.736-.77q.644-.784.644-2.17t-.644-2.156m.756 4.914q-.938 1.022-2.492 1.022t-2.492-1.022-.938-2.758.938-2.758 2.492-1.022 2.492 1.022.938 2.758-.938 2.758m5.954 1.022q-1.581 0-2.352-1.274h-.028v4.214h-1.022V35.22h.98l.014 1.232h.028q.77-1.372 2.38-1.372 1.373 0 2.156.98.784.966.784 2.8 0 1.792-.812 2.786-.798.994-2.128.994m1.932-3.78q0-1.428-.574-2.184-.56-.756-1.582-.756-.966 0-1.568.756-.588.757-.588 2.086v.196q0 1.358.602 2.1.603.742 1.554.742.995 0 1.568-.756.588-.77.588-2.184m6.02-2.926q-1.231 0-1.918.77-.686.756-.686 2.156 0 1.344.714 2.142.729.798 1.89.798.98 0 1.876-.476l.28.826q-1.05.49-2.198.49-1.623 0-2.632-1.022-1.008-1.035-1.008-2.758 0-1.778.966-2.772.966-1.008 2.674-1.008 1.149 0 2.198.49l-.28.854q-.937-.49-1.876-.49m8.799.77q-.63-.784-1.736-.784-1.107 0-1.75.784-.63.77-.63 2.156t.63 2.17q.643.77 1.75.77t1.736-.77q.644-.784.644-2.17t-.644-2.156m.756 4.914q-.939 1.022-2.492 1.022-1.554 0-2.492-1.022-.938-1.021-.938-2.758 0-1.736.938-2.758t2.492-1.022 2.492 1.022.938 2.758-.938 2.758m3.851-4.928q-.574.756-.574 2.17t.588 2.184q.588.756 1.582.756a1.87 1.87 0 0 0 1.54-.742q.602-.742.602-2.1v-.196q0-1.33-.602-2.086-.588-.756-1.54-.756-1.021 0-1.596.77m-1.582 2.17q0-1.834.784-2.8.784-.98 2.156-.98 1.582 0 2.352 1.33h.028V32h1.022v10.5h-.98l-.014-1.232h-.028q-.77 1.372-2.38 1.372-1.344 0-2.142-.98-.798-.994-.798-2.8m9.074.392q.027 1.19.728 1.876.7.686 1.82.686 1.077 0 2.142-.56l.28.798a5.56 5.56 0 0 1-2.52.588q-1.568 0-2.534-1.022-.966-1.021-.966-2.758 0-1.764.896-2.772.91-1.008 2.464-1.008 1.512 0 2.338.966.84.953.84 2.744 0 .181-.028.462zm0-.812h4.48q-.015-1.218-.588-1.876-.574-.658-1.582-.658-1.05 0-1.666.672-.602.659-.644 1.862M554.968 35.22h.994l.028 1.554h.028q1.232-1.695 3.472-1.694v.882q-1.554 0-2.52.854-.952.855-.952 2.212V42.5h-1.05zm7.232 1.47q-.573.756-.574 2.17 0 1.414.588 2.184.588.756 1.582.756a1.87 1.87 0 0 0 1.54-.742q.602-.742.602-2.1v-.196q0-1.33-.602-2.086-.588-.756-1.54-.756-1.022 0-1.596.77m-1.582 2.17q0-1.834.784-2.8.785-.98 2.156-.98 1.583 0 2.352 1.33h.028V32h1.022v10.5h-.98l-.014-1.232h-.028q-.77 1.372-2.38 1.372-1.344 0-2.142-.98-.798-.994-.798-2.8M439.363 35.5h1.918v-.938q0-2.422 2.324-2.422a4.4 4.4 0 0 1 1.316.21l-.224.84a2.7 2.7 0 0 0-.994-.21q-.757 0-1.078.364-.308.35-.308 1.218v.938h2.506v.84h-2.506v6.16h-1.036v-6.16h-1.918zm8.108-.28v4.522q0 1.12.364 1.568.379.448 1.246.448.813 0 1.47-.784.672-.784.672-1.862V35.22h1.022v7.28h-.98l-.014-1.302h-.028q-.42.672-1.078 1.064a2.7 2.7 0 0 1-1.4.378q-1.176 0-1.736-.658-.546-.672-.546-2.142v-4.62zm6.869 0h.98l.014 1.302h.028q.42-.672 1.064-1.05.658-.392 1.414-.392 1.232 0 1.82.77.602.756.602 2.408V42.5h-1.008v-4.158q0-1.357-.392-1.876-.392-.532-1.344-.532-.812 0-1.484.812a2.8 2.8 0 0 0-.672 1.862V42.5h-1.022zm11.149.714q-1.232 0-1.918.77-.686.756-.686 2.156 0 1.344.714 2.142.728.798 1.89.798.98 0 1.876-.476l.28.826q-1.05.49-2.198.49-1.624 0-2.632-1.022-1.008-1.035-1.008-2.758 0-1.778.966-2.772.966-1.008 2.674-1.008 1.148 0 2.198.49l-.28.854q-.938-.49-1.876-.49m6.433-3.094v2.66h2.758v.84h-2.758v3.822q0 .98.266 1.316.265.322.994.322.644 0 1.232-.238l.168.826q-.715.252-1.54.252-1.191 0-1.68-.504-.49-.518-.49-1.778V36.34h-1.61v-.84h1.61v-2.66zm4.994-.56h6.132v.938l-3.36 3.29v.028h.434q1.483 0 2.268.714.798.714.798 2.072 0 1.596-.952 2.464-.939.855-2.688.854-1.512 0-2.66-.728l.336-.91q1.175.7 2.324.7 1.231 0 1.876-.602t.644-1.778q0-.995-.672-1.47-.659-.49-2.114-.49h-1.022v-.868l3.346-3.248v-.028h-4.69zM352.695 35.22h.994l.028 1.554h.028q1.231-1.695 3.472-1.694v.882q-1.554 0-2.52.854-.952.855-.952 2.212V42.5h-1.05zm8.478-.14q1.33 0 2.464.56l-.224.826a4.9 4.9 0 0 0-2.24-.546q-.812 0-1.246.294a.95.95 0 0 0-.42.826q0 .504.364.798.378.294 1.358.462 1.428.238 2.044.784.63.546.63 1.498 0 .953-.728 1.512-.714.546-2.002.546-1.499 0-2.688-.7l.238-.826a4.7 4.7 0 0 0 2.45.686q.812 0 1.246-.308.434-.322.434-.91 0-.56-.392-.868-.378-.308-1.344-.476-1.386-.238-2.016-.756-.616-.532-.616-1.442 0-.896.7-1.428.714-.532 1.988-.532m7.855 7.42v-8.876H369l-2.758 2.548-.434-.91 3.22-2.982h1.12V42.5zM228.195 35.22h.994l.028 1.554h.028q1.231-1.695 3.472-1.694v.882q-1.554 0-2.52.854-.952.855-.952 2.212V42.5h-1.05zm8.478-.14q1.33 0 2.464.56l-.224.826a4.9 4.9 0 0 0-2.24-.546q-.812 0-1.246.294a.95.95 0 0 0-.42.826q0 .504.364.798.378.294 1.358.462 1.428.238 2.044.784.63.546.63 1.498 0 .953-.728 1.512-.714.546-2.002.546-1.499 0-2.688-.7l.238-.826a4.7 4.7 0 0 0 2.45.686q.812 0 1.246-.308.434-.322.434-.91 0-.56-.392-.868-.378-.308-1.344-.476-1.386-.238-2.016-.756-.616-.532-.616-1.442 0-.896.7-1.428.714-.532 1.988-.532m7.631-1.988q-1.386 0-2.772.966l-.336-.896q1.427-1.022 3.248-1.022 1.497 0 2.324.77.826.756.826 2.128t-.994 2.772-3.724 3.724v.028h4.76v.938h-6.3v-.938q2.982-2.464 4.032-3.836 1.064-1.386 1.064-2.604 0-.995-.546-1.512-.532-.518-1.582-.518M67.863 35.5h1.918v-.938q0-2.422 2.324-2.422.644 0 1.316.21l-.224.84a2.6 2.6 0 0 0-.994-.21q-.757 0-1.078.364-.309.35-.308 1.218v.938h2.506v.84h-2.506v6.16H69.78v-6.16h-1.918zm8.108-.28v4.522q0 1.12.364 1.568.379.448 1.246.448.813 0 1.47-.784.672-.784.672-1.862V35.22h1.022v7.28h-.98l-.014-1.302h-.028q-.42.672-1.078 1.064-.644.378-1.4.378-1.175 0-1.736-.658-.546-.672-.546-2.142v-4.62zm6.869 0h.98l.014 1.302h.028q.42-.672 1.064-1.05.658-.392 1.414-.392 1.232 0 1.82.77.602.756.602 2.408V42.5h-1.008v-4.158q0-1.357-.392-1.876-.392-.532-1.344-.532-.812 0-1.484.812a2.8 2.8 0 0 0-.672 1.862V42.5H82.84zm11.15.714q-1.233 0-1.919.77-.686.756-.686 2.156 0 1.344.714 2.142.727.798 1.89.798.98 0 1.876-.476l.28.826q-1.05.49-2.198.49-1.624 0-2.632-1.022-1.008-1.035-1.008-2.758 0-1.778.966-2.772.966-1.008 2.674-1.008 1.148 0 2.198.49l-.28.854q-.937-.49-1.876-.49m6.432-3.094v2.66h2.758v.84h-2.758v3.822q0 .98.266 1.316.265.322.994.322.644 0 1.232-.238l.168.826q-.714.252-1.54.252-1.191 0-1.68-.504-.49-.518-.49-1.778V36.34h-1.61v-.84h1.61v-2.66zm4.896-.56h6.58v.938q-2.45 4.019-4.06 9.282h-1.162q1.623-5.11 4.13-9.254v-.028h-5.488zM705.751 56.28h6.58v.938q-2.45 4.019-4.06 9.282h-1.162q1.625-5.11 4.13-9.254v-.028h-5.488zM685.419 71.05q-.966 0-1.498.434-.532.42-.532 1.176 0 1.358 1.988 1.96 1.737.504 2.464 1.26.742.756.742 1.96 0 1.357-.854 2.086-.84.714-2.408.714-1.736 0-3.08-.882l.336-.924a4.6 4.6 0 0 0 2.744.868q1.036 0 1.582-.476.56-.476.56-1.386 0-.84-.476-1.33-.462-.504-1.638-.868-3.066-.91-3.066-2.982 0-1.148.826-1.834.84-.686 2.31-.686a6.65 6.65 0 0 1 2.94.658l-.28.868a5.8 5.8 0 0 0-2.66-.616m5.183-.77 2.954 4.956h.028l2.968-4.956h1.274l-3.682 5.894V80.5h-1.176v-4.326l-3.682-5.894zm10.895.77q-.966 0-1.498.434-.532.42-.532 1.176 0 1.358 1.988 1.96 1.737.504 2.464 1.26.742.756.742 1.96 0 1.357-.854 2.086-.84.714-2.408.714-1.736 0-3.08-.882l.336-.924a4.6 4.6 0 0 0 2.744.868q1.036 0 1.582-.476.56-.476.56-1.386 0-.84-.476-1.33-.462-.504-1.638-.868-3.066-.91-3.066-2.982 0-1.148.826-1.834.84-.686 2.31-.686a6.65 6.65 0 0 1 2.94.658l-.28.868a5.8 5.8 0 0 0-2.66-.616m4.574-.77h7.462v.952h-3.164V80.5h-1.12v-9.268h-3.178zm10.617.938v3.332h4.578v.896h-4.578v4.116h4.858v.938h-5.978V70.28h5.978v.938zm7.097 9.282V70.28h1.134l3.64 6.16h.028l3.64-6.16h1.176V80.5h-1.12v-8.344h-.028l-3.164 5.306h-1.036l-3.164-5.306h-.028V80.5zM563.327 57.218h-4.424l-.196 3.304h.028a3.6 3.6 0 0 1 1.862-.49q1.499 0 2.324.812.826.812.826 2.296 0 1.709-.966 2.604-.952.896-2.8.896a5.3 5.3 0 0 1-2.632-.672l.28-.924q1.176.658 2.352.658 2.646 0 2.646-2.562 0-1.079-.574-1.638-.573-.574-1.652-.574-1.105 0-1.834.644h-.98l.308-5.292h5.432zM560.485 70.14q3.696 0 3.696 5.25t-3.696 5.25q-1.75 0-2.716-1.218t-.966-4.032.966-4.032 2.716-1.218m-1.932 8.568q.645 1.022 1.932 1.022 1.288 0 1.932-1.022.644-1.036.644-3.318t-.644-3.304q-.644-1.036-1.932-1.036t-1.932 1.036q-.63 1.022-.63 3.304t.63 3.318M458.349 56.28h6.132v.938l-3.36 3.29v.028h.434q1.485 0 2.268.714.798.714.798 2.072 0 1.596-.952 2.464-.937.855-2.688.854-1.511 0-2.66-.728l.336-.91q1.176.7 2.324.7 1.233 0 1.876-.602.645-.602.644-1.778 0-.994-.672-1.47-.657-.49-2.114-.49h-1.022v-.868l3.346-3.248v-.028h-4.69zM447.077 70.364q1.456-.225 2.842-.224 1.903 0 2.884.812.994.798.994 2.296 0 1.624-.994 2.464t-2.884.84q-.924 0-1.722-.084V80.5h-1.12zm1.12 5.18q.811.112 1.638.112 1.385 0 2.114-.602.742-.601.742-1.722t-.728-1.694q-.714-.588-2.128-.588a10 10 0 0 0-1.638.14zm7.274 4.956V70.35q1.218-.21 2.618-.21 1.96 0 2.954.728 1.008.714 1.008 2.044 0 1.065-.574 1.778-.573.714-1.624.98v.028q.63.335 1.246 1.82l1.232 2.982h-1.162l-1.204-2.954q-.42-1.008-.798-1.246-.363-.252-1.456-.252h-1.12V80.5zm1.12-5.348h1.12q1.667 0 2.45-.532.784-.546.784-1.61 0-1.96-2.954-1.96-.741 0-1.4.126zm7.982 5.348V70.28h1.218V80.5zm4.527-10.22 3.164 9.114h.028l3.164-9.114h1.162l-3.724 10.22h-1.26l-3.738-10.22zM365.327 57.218h-4.424l-.196 3.304h.028a3.6 3.6 0 0 1 1.862-.49q1.499 0 2.324.812.826.812.826 2.296 0 1.709-.966 2.604-.951.896-2.8.896a5.3 5.3 0 0 1-2.632-.672l.28-.924q1.176.658 2.352.658 2.646 0 2.646-2.562 0-1.079-.574-1.638-.573-.574-1.652-.574-1.105 0-1.834.644h-.98l.308-5.292h5.432zM344.709 73.22l2.268 6.65h.028l2.254-6.65h1.12l-2.688 7.28h-1.442l-2.688-7.28zm9.729-.14q1.525 0 2.184.63.658.63.658 2.072v2.758a9.2 9.2 0 0 0 .21 1.96h-.98a8 8 0 0 1-.14-1.288h-.028a2.64 2.64 0 0 1-1.092 1.05 3.4 3.4 0 0 1-1.61.378q-1.008 0-1.61-.56-.602-.574-.602-1.54 0-1.218 1.064-1.932 1.063-.728 3.024-.728h.742v-.07q0-1.065-.406-1.47-.393-.42-1.414-.42-1.317 0-2.45.644l-.182-.826a5.4 5.4 0 0 1 2.632-.658m-2.002 5.418q0 .63.392.994.392.35 1.05.35.966 0 1.666-.686a2.3 2.3 0 0 0 .714-1.708v-.784h-.742q-1.47 0-2.282.504-.798.49-.798 1.33m8.173-3.808q-.573.756-.574 2.17 0 1.414.588 2.184.589.756 1.582.756a1.87 1.87 0 0 0 1.54-.742q.602-.742.602-2.1v-.196q0-1.33-.602-2.086-.588-.756-1.54-.756-1.021 0-1.596.77m-1.582 2.17q0-1.834.784-2.8.785-.98 2.156-.98 1.582 0 2.352 1.33h.028V70h1.022v10.5h-.98l-.014-1.232h-.028q-.77 1.372-2.38 1.372-1.344 0-2.142-.98-.798-.994-.798-2.8m9.676-2.17q-.573.756-.574 2.17 0 1.414.588 2.184.589.756 1.582.756a1.87 1.87 0 0 0 1.54-.742q.602-.742.602-2.1v-.196q0-1.33-.602-2.086-.588-.756-1.54-.756-1.022 0-1.596.77m-1.582 2.17q0-1.834.784-2.8.785-.98 2.156-.98 1.582 0 2.352 1.33h.028V70h1.022v10.5h-.98l-.014-1.232h-.028q-.77 1.372-2.38 1.372-1.344 0-2.142-.98-.798-.994-.798-2.8m8.514-3.64h.994l.028 1.554h.028q1.232-1.694 3.472-1.694v.882q-1.554 0-2.52.854-.952.855-.952 2.212V80.5h-1.05zM241.327 57.218h-4.424l-.196 3.304h.028a3.6 3.6 0 0 1 1.862-.49q1.499 0 2.324.812.826.812.826 2.296 0 1.709-.966 2.604-.952.896-2.8.896a5.3 5.3 0 0 1-2.632-.672l.28-.924q1.176.658 2.352.658 2.646 0 2.646-2.562 0-1.079-.574-1.638-.573-.574-1.652-.574-1.105 0-1.834.644h-.98l.308-5.292h5.432zM229.271 73.08q1.525 0 2.184.63.657.63.658 2.072v2.758a9.2 9.2 0 0 0 .21 1.96h-.98a8 8 0 0 1-.14-1.288h-.028a2.64 2.64 0 0 1-1.092 1.05 3.4 3.4 0 0 1-1.61.378q-1.008 0-1.61-.56-.602-.574-.602-1.54 0-1.218 1.064-1.932 1.064-.728 3.024-.728h.742v-.07q0-1.065-.406-1.47-.393-.42-1.414-.42-1.316 0-2.45.644l-.182-.826a5.4 5.4 0 0 1 2.632-.658m-2.002 5.418q0 .63.392.994.392.35 1.05.35.966 0 1.666-.686a2.3 2.3 0 0 0 .714-1.708v-.784h-.742q-1.47 0-2.282.504-.798.49-.798 1.33m9.283-5.418a5.5 5.5 0 0 1 2.464.56l-.224.826a4.9 4.9 0 0 0-2.24-.546q-.813 0-1.246.294a.95.95 0 0 0-.42.826q0 .504.364.798.378.294 1.358.462 1.428.238 2.044.784.63.546.63 1.498 0 .953-.728 1.512-.714.546-2.002.546-1.499 0-2.688-.7l.238-.826a4.7 4.7 0 0 0 2.45.686q.811 0 1.246-.308.434-.322.434-.91 0-.56-.392-.868-.378-.308-1.344-.476-1.386-.238-2.016-.756-.616-.532-.616-1.442 0-.895.7-1.428.714-.532 1.988-.532m5.111-1.54V70h1.078v1.54zm0 8.96v-7.28h1.078v7.28zm4.895-5.81q-.574.756-.574 2.17t.588 2.184q.588.756 1.582.756.951 0 1.54-.742.602-.742.602-2.1v-.196q0-1.33-.602-2.086a1.86 1.86 0 0 0-1.54-.756q-1.023 0-1.596.77m-1.582 2.17q0-1.834.784-2.8.783-.98 2.156-.98 1.581 0 2.352 1.33h.028V70h1.022v10.5h-.98l-.014-1.232h-.028q-.77 1.372-2.38 1.372-1.344 0-2.142-.98-.798-.994-.798-2.8M87.751 56.28h6.58v.938q-2.45 4.019-4.06 9.282H89.11q1.625-5.11 4.13-9.254v-.028h-5.488zM52.006 71.05q-.966 0-1.498.434-.532.42-.532 1.176 0 1.358 1.988 1.96 1.737.504 2.464 1.26.742.756.742 1.96 0 1.357-.854 2.086-.84.714-2.408.714-1.736 0-3.08-.882l.336-.924a4.6 4.6 0 0 0 2.744.868q1.035 0 1.582-.476.56-.476.56-1.386 0-.84-.476-1.33-.462-.504-1.638-.868-3.066-.91-3.066-2.982 0-1.148.826-1.834.84-.686 2.31-.686 1.582 0 2.94.658l-.28.868a5.8 5.8 0 0 0-2.66-.616m11.036.168h-4.718v3.472h4.438v.896h-4.438V80.5h-1.12V70.28h5.838zm3.293 0v3.332h4.578v.896h-4.578v4.116h4.858v.938h-5.978V70.28h5.978v.938zm7.097 9.282V70.28h1.162l5.32 8.4h.028v-8.4h1.092V80.5h-1.148l-5.32-8.4h-.028v8.4zm14.53-9.422q-1.847 0-2.953 1.176-1.092 1.162-1.092 3.136t1.12 3.15q1.134 1.162 2.926 1.162 1.455 0 2.702-.798l.378.84q-1.372.896-3.178.896-2.31 0-3.696-1.428t-1.386-3.822q0-2.422 1.372-3.836 1.371-1.414 3.71-1.414 1.806 0 3.178.896l-.378.84a4.9 4.9 0 0 0-2.702-.798m6.305.14v3.332h4.578v.896h-4.578v4.116h4.858v.938h-5.978V70.28h5.978v.938zm7.237 9.282v-1.96h1.302v1.96zm2.784-10.22 3.164 9.114h.028l3.164-9.114h1.162l-3.724 10.22h-1.26l-3.738-10.22zm9.203 10.22V70.28h1.134l3.64 6.16h.028l3.64-6.16h1.176V80.5h-1.12v-8.344h-.028l-3.164 5.306h-1.036l-3.164-5.306h-.028V80.5zm11.304 0 3.738-10.22h1.26l3.724 10.22h-1.19l-1.036-2.982h-4.312l-1.022 2.982zm2.492-3.878h3.696l-1.834-5.334h-.028z"/></g><defs><clipPath id="a"><path fill="#fff" d="M0 0h800v84H0z"/></clipPath></defs></svg>