<svg xmlns="http://www.w3.org/2000/svg" width="1480" height="92" version="1.0"><path d="M121.309 15.68V2.54h1.458l4.68 7.92h.036l4.68-7.92h1.512v13.14h-1.44V4.952h-.036l-4.068 6.822h-1.332l-4.068-6.822h-.036V15.68Zm16.47-13.14 3.276 5.472h.036l3.294-5.472h1.62l-4.032 6.48 4.122 6.66h-1.692l-3.348-5.652h-.036l-3.366 5.652h-1.638l4.122-6.66-4.032-6.48zm12.15 0v11.916h6.426v1.224h-7.92V2.54Zm10.476 1.206V8.03h5.886v1.152h-5.886v5.292h6.246v1.206h-7.686V2.54h7.686v1.206zm9.126 11.934V2.54h1.494l6.84 10.8h.036V2.54h1.404v13.14h-1.476l-6.84-10.8h-.036v10.8Zm12.744-4.644V9.884h5.346v1.152Zm12.384 4.644V4.268h-.036l-3.546 3.276-.558-1.17 4.14-3.834h1.44v13.14Z" aria-label="MXLEN-1" style="font-size:18px;font-family:&quot;M PLUS 1p&quot;,MPLUS1p-Regular,monospace;dominant-baseline:middle;text-anchor:middle;fill:#1c1e21"/><path d="M1039.73 3.584q-1.782 0-3.564 1.242l-.432-1.152q1.836-1.314 4.176-1.314 1.926 0 2.988.99 1.062.972 1.062 2.736t-1.278 3.564-4.788 4.788v.036h6.12v1.206h-8.1v-1.206q3.834-3.168 5.184-4.932 1.368-1.782 1.368-3.348 0-1.278-.702-1.944-.684-.666-2.034-.666" aria-label="2" style="font-size:18px;font-family:&quot;M PLUS 1p&quot;,MPLUS1p-Regular,monospace;dominant-baseline:middle;text-anchor:middle;fill:#1c1e21"/><path d="M1080.018 15.68V4.268h-.036l-3.546 3.276-.558-1.17 4.14-3.834h1.44v13.14Z" aria-label="1" style="font-size:18px;font-family:&quot;M PLUS 1p&quot;,MPLUS1p-Regular,monospace;dominant-baseline:middle;text-anchor:middle;fill:#1c1e21"/><path d="M1359.982 2.36q4.752 0 4.752 6.75t-4.752 6.75q-2.25 0-3.492-1.566t-1.242-5.184 1.242-5.184 3.492-1.566m-2.484 11.016q.828 1.314 2.484 1.314t2.484-1.314q.828-1.332.828-4.266t-.828-4.248q-.828-1.332-2.484-1.332t-2.484 1.332q-.81 1.314-.81 4.248t.81 4.266" aria-label="0" style="font-size:18px;font-family:&quot;M PLUS 1p&quot;,MPLUS1p-Regular,monospace;dominant-baseline:middle;text-anchor:middle;fill:#1c1e21"/><path stroke="#1C1E21" d="M100 21h480M100 56h480M100 21v35"/><path d="M422.172 32.03q-.936 0-1.746.162v4.338h1.206q3.924 0 3.924-2.304 0-1.116-.81-1.656t-2.574-.54m5.328 8.37q0 3.96-5.148 3.96-1.692 0-3.366-.288V31.148q1.584-.288 3.186-.288 4.734 0 4.734 3.186 0 1.116-.72 1.908t-1.98 1.062v.036q1.584.234 2.43 1.116.864.882.864 2.232m-1.404-.126q0-1.332-1.062-1.962-1.044-.63-3.402-.63h-1.206v5.346q.882.162 1.926.162 3.744 0 3.744-2.916m2.664 3.906 4.806-13.14h1.62l4.788 13.14h-1.53l-1.332-3.834h-5.544l-1.314 3.834zm3.204-4.986h4.752l-2.358-6.858h-.036zm13.266-7.164q-1.242 0-1.926.558-.684.54-.684 1.512 0 1.746 2.556 2.52 2.232.648 3.168 1.62.954.972.954 2.52 0 1.746-1.098 2.682-1.08.918-3.096.918-2.232 0-3.96-1.134l.432-1.188q1.566 1.116 3.528 1.116 1.332 0 2.034-.612.72-.612.72-1.782 0-1.08-.612-1.71-.594-.648-2.106-1.116-3.942-1.17-3.942-3.834 0-1.476 1.062-2.358 1.08-.882 2.97-.882 2.034 0 3.78.846l-.36 1.116q-1.566-.792-3.42-.792m8.118.216v4.284h5.886v1.152h-5.886v5.292h6.246v1.206h-7.686V31.04h7.686v1.206zm10.98-.846v14.22h3.546v1.08h-4.86V30.32h4.86v1.08zm6.606 12.78V31.04h1.458l4.68 7.92h.036l4.68-7.92h1.512v13.14h-1.44V33.452h-.036l-4.068 6.822h-1.332l-4.068-6.822h-.036V44.18Zm16.47-13.14 3.276 5.472h.036l3.294-5.472h1.62l-4.032 6.48 4.122 6.66h-1.692l-3.348-5.652h-.036l-3.366 5.652h-1.638l4.122-6.66-4.032-6.48zm12.15 0v11.916h6.426v1.224h-7.92V31.04Zm10.476 1.206v4.284h5.886v1.152h-5.886v5.292h6.246v1.206h-7.686V31.04h7.686v1.206zm9.126 11.934V31.04h1.494l6.84 10.8h.036v-10.8h1.404v13.14h-1.476l-6.84-10.8h-.036v10.8zm12.744-4.644v-1.152h5.346v1.152zm12.384 4.644V32.768h-.036l-3.546 3.276-.558-1.17 4.14-3.834h1.44v13.14zm7.992-6.966v-2.52h1.674v2.52zm0 6.966v-2.52h1.674v2.52zm9.414-12.096q-1.782 0-3.564 1.242l-.432-1.152q1.836-1.314 4.176-1.314 1.926 0 2.988.99 1.062.972 1.062 2.736t-1.278 3.564-4.788 4.788v.036h6.12v1.206h-8.1v-1.206q3.834-3.168 5.184-4.932 1.368-1.782 1.368-3.348 0-1.278-.702-1.944-.684-.666-2.034-.666m10.926-.684h-3.546v-1.08h4.86V46.7h-4.86v-1.08h3.546z" aria-label="BASE[MXLEN-1:2]" style="font-size:18px;font-family:&quot;M PLUS 1p&quot;,MPLUS1p-Regular,monospace;dominant-baseline:middle;text-anchor:end;fill:#1c1e21"/><path stroke="#1C1E21" d="M580 21h480M580 56h480M1060 21v35"/><path d="M589.549 45.204h-2.21q-1.124-1.318-1.67-2.713-.538-1.394-.538-3.053 0-1.658.539-3.052.545-1.395 1.67-2.713h2.209v.17q-.475.428-.908.972-.428.54-.797 1.266-.352.697-.574 1.547-.217.85-.217 1.81 0 1.002.21 1.817.217.814.58 1.54.352.692.792 1.255.445.568.914.984zm14.127-11.139-2.35 8.725h-2.49l-1.565-5.684-1.523 5.684h-2.49l-2.35-8.725h2.35l1.342 6.006 1.605-6.006h2.244l1.53 6.006 1.406-6.006zm9.562 8.725h-2.326l-.603-1.764h-3.235l-.603 1.764h-2.268l3.223-8.725h2.59zm-3.474-3.363-1.073-3.13-1.072 3.13zm9.62-2.69q0-.328-.134-.562-.135-.235-.463-.37-.228-.093-.533-.11-.305-.024-.71-.024h-.814v2.35h.692q.539 0 .902-.053.364-.053.61-.24.234-.182.34-.399.11-.223.11-.592m3.51 6.053h-2.748l-2.378-3.2h-1.038v3.2h-2.238v-8.725h3.774q.773 0 1.33.088.556.088 1.043.381.492.293.779.762.293.463.293 1.166 0 .967-.451 1.576-.446.61-1.278 1.014zm7.278 0h-6.293v-8.725h2.25v7.038h4.043zm5.63-3.352q0 1.659-.544 3.053-.54 1.395-1.664 2.713h-2.21v-.17q.47-.416.915-.978t.79-1.26q.364-.727.575-1.541.217-.815.217-1.817 0-.96-.223-1.81-.217-.85-.568-1.547-.37-.727-.803-1.266-.428-.544-.902-.972v-.17h2.209q1.125 1.318 1.664 2.713.545 1.394.545 3.052" aria-label="(WARL)" style="font-weight:700;dominant-baseline:middle;fill:#1c1e21"/><path stroke="#1C1E21" d="M1060 21h160M1060 56h160M1060 21v35"/><path d="M1164.988 44.18V31.04h1.458l4.68 7.92h.036l4.68-7.92h1.512v13.14h-1.44V33.452h-.036l-4.068 6.822h-1.332l-4.068-6.822h-.036V44.18Zm25.686-1.656q-1.746 1.836-4.644 1.836t-4.662-1.836q-1.764-1.854-1.764-4.914t1.764-4.896q1.764-1.854 4.662-1.854t4.644 1.854q1.764 1.836 1.764 4.896t-1.764 4.914m-4.644.63q2.232 0 3.582-1.494 1.368-1.512 1.368-4.05t-1.368-4.032q-1.35-1.512-3.582-1.512-2.25 0-3.618 1.512-1.35 1.494-1.35 4.032t1.35 4.05q1.368 1.494 3.618 1.494m11.844-11.088q-.936 0-1.746.162v10.764q.81.162 1.746.162 5.454 0 5.454-5.724 0-2.664-1.386-4.014t-4.068-1.35m6.84 5.364q0 3.402-1.764 5.166t-5.076 1.764q-1.602 0-3.186-.288V31.148q1.62-.288 3.186-.288 3.294 0 5.058 1.71 1.782 1.692 1.782 4.86m3.69-5.184v4.284h5.886v1.152h-5.886v5.292h6.246v1.206h-7.686V31.04h7.686v1.206z" aria-label="MODE" style="font-size:18px;font-family:&quot;M PLUS 1p&quot;,MPLUS1p-Regular,monospace;dominant-baseline:middle;text-anchor:end;fill:#1c1e21"/><path stroke="#1C1E21" d="M1220 21h160M1220 56h160M1380 21v35"/><path d="M1229.549 45.204h-2.21q-1.124-1.318-1.67-2.713-.538-1.394-.538-3.053 0-1.658.539-3.052.545-1.395 1.67-2.713h2.209v.17q-.475.428-.908.972-.428.54-.797 1.266-.352.697-.575 1.547-.216.85-.216 1.81 0 1.002.21 1.817.218.814.58 1.54.352.692.792 1.255.445.568.914.984zm14.127-11.139-2.35 8.725h-2.49l-1.564-5.684-1.524 5.684h-2.49l-2.35-8.725h2.35l1.342 6.006 1.605-6.006h2.244l1.53 6.006 1.406-6.006zm9.562 8.725h-2.326l-.603-1.764h-3.235l-.603 1.764h-2.268l3.223-8.725h2.59zm-3.474-3.363-1.073-3.13-1.072 3.13zm9.62-2.69q0-.328-.134-.562-.135-.235-.463-.37-.228-.093-.533-.11-.305-.024-.71-.024h-.814v2.35h.692q.539 0 .902-.053t.61-.24q.234-.182.34-.399.11-.223.11-.592m3.51 6.053h-2.747l-2.38-3.2h-1.036v3.2h-2.239v-8.725h3.774q.773 0 1.33.088.556.088 1.043.381.492.293.779.762.293.463.293 1.166 0 .967-.451 1.576-.446.61-1.278 1.014zm7.278 0h-6.293v-8.725h2.25v7.038h4.043zm5.63-3.352q0 1.659-.544 3.053-.54 1.395-1.664 2.713h-2.21v-.17q.47-.416.915-.978t.79-1.26q.364-.727.575-1.541.217-.815.217-1.817 0-.96-.223-1.81-.217-.85-.568-1.547-.37-.727-.803-1.266-.428-.544-.902-.972v-.17h2.209q1.125 1.318 1.664 2.713.545 1.394.545 3.052" aria-label="(WARL)" style="font-weight:700;dominant-baseline:middle;fill:#1c1e21"/><path d="M541.309 79.18V66.04h1.458l4.68 7.92h.036l4.68-7.92h1.512v13.14h-1.44V68.452h-.036l-4.068 6.822h-1.332l-4.068-6.822h-.036V79.18Zm16.47-13.14 3.276 5.472h.036l3.294-5.472h1.62l-4.032 6.48 4.122 6.66h-1.692l-3.348-5.652h-.036l-3.366 5.652h-1.638l4.122-6.66-4.032-6.48zm12.15 0v11.916h6.426v1.224h-7.92V66.04Zm10.476 1.206v4.284h5.886v1.152h-5.886v5.292h6.246v1.206h-7.686V66.04h7.686v1.206zm9.126 11.934V66.04h1.494l6.84 10.8h.036v-10.8h1.404v13.14h-1.476l-6.84-10.8h-.036v10.8zm12.744-4.644v-1.152h5.346v1.152zm12.096-7.452q-1.782 0-3.564 1.242l-.432-1.152q1.836-1.314 4.176-1.314 1.926 0 2.988.99 1.062.972 1.062 2.736t-1.278 3.564-4.788 4.788v.036h6.12v1.206h-8.1v-1.206q3.834-3.168 5.184-4.932 1.368-1.782 1.368-3.348 0-1.278-.702-1.944-.684-.666-2.034-.666" aria-label="MXLEN-2" style="font-size:18px;font-family:&quot;M PLUS 1p&quot;,MPLUS1p-Regular,monospace;dominant-baseline:middle;text-anchor:middle;fill:#1c1e21"/><path d="M1219.73 67.084q-1.782 0-3.564 1.242l-.432-1.152q1.836-1.314 4.176-1.314 1.926 0 2.988.99 1.062.972 1.062 2.736t-1.278 3.564-4.788 4.788v.036h6.12v1.206h-8.1v-1.206q3.834-3.168 5.184-4.932 1.368-1.782 1.368-3.348 0-1.278-.702-1.944-.684-.666-2.034-.666" aria-label="2" style="font-size:18px;font-family:&quot;M PLUS 1p&quot;,MPLUS1p-Regular,monospace;dominant-baseline:middle;text-anchor:middle;fill:#1c1e21"/></svg>