<svg xmlns="http://www.w3.org/2000/svg" width="1480" height="122" version="1.0"><path d="M106.04 28.24V10.72h1.944l6.24 10.56h.048l6.24-10.56h2.016v17.52h-1.92V13.936h-.048l-5.424 9.096h-1.776l-5.424-9.096h-.048V28.24ZM128 10.72l4.368 7.296h.048l4.392-7.296h2.16l-5.376 8.64 5.496 8.88h-2.256l-4.464-7.536h-.048l-4.488 7.536h-2.184l5.496-8.88-5.376-8.64zm16.2 0v15.888h8.568v1.632h-10.56V10.72Zm13.968 1.608v5.712h7.848v1.536h-7.848v7.056h8.328v1.608h-10.248V10.72h10.248v1.608zm12.168 15.912V10.72h1.992l9.12 14.4h.048v-14.4h1.872v17.52H181.4l-9.12-14.4h-.048v14.4zm16.992-6.192v-1.536h7.128v1.536zm16.512 6.192V13.024h-.048l-4.728 4.368-.744-1.56 5.52-5.112h1.92v17.52z" aria-label="MXLEN-1" style="font-size:24px;font-family:&quot;M PLUS 1p&quot;,MPLUS1p-Regular,monospace;dominant-baseline:middle;fill:#1c1e21"/><path d="M1368.536 10.48q6.336 0 6.336 9t-6.336 9q-3 0-4.656-2.088t-1.656-6.912 1.656-6.912 4.656-2.088m-3.312 14.688q1.104 1.752 3.312 1.752t3.312-1.752q1.104-1.776 1.104-5.688t-1.104-5.664q-1.104-1.776-3.312-1.776t-3.312 1.776q-1.08 1.752-1.08 5.664t1.08 5.688" aria-label="0" style="font-size:24px;font-family:&quot;M PLUS 1p&quot;,MPLUS1p-Regular,monospace;dominant-baseline:middle;text-anchor:end;fill:#1c1e21"/><path stroke="#1C1E21" d="M100 41h1280M100 81h1280M1380 41v40M100 41v40"/><path d="M712.256 55.76h1.68l.024 2.064h.048q1.32-2.304 3.288-2.304 2.4 0 3.36 2.4h.048q1.272-2.4 3.624-2.4 1.944 0 2.856 1.152.912 1.128.912 3.648v7.92h-1.728V60.8q0-2.184-.552-3-.552-.84-1.872-.84-1.152 0-2.016 1.152t-.864 2.808v7.32h-1.728V60.8q0-2.16-.576-3-.552-.84-1.872-.84-1.08 0-1.992 1.272-.888 1.248-.888 3v7.008h-1.752zm20.28 6.912q.048 2.04 1.248 3.216t3.12 1.176q1.848 0 3.672-.96l.48 1.368q-2.016 1.008-4.32 1.008-2.688 0-4.344-1.752T730.736 62q0-3.024 1.536-4.752 1.56-1.728 4.224-1.728 2.592 0 4.008 1.656 1.44 1.632 1.44 4.704 0 .312-.048.792zm0-1.392h7.68q-.024-2.088-1.008-3.216t-2.712-1.128q-1.8 0-2.856 1.152-1.032 1.128-1.104 3.192m18.12 7.2q-2.712 0-4.032-2.184h-.048v7.224h-1.752V55.76h1.68l.024 2.112h.048q1.32-2.352 4.08-2.352 2.352 0 3.696 1.68 1.344 1.656 1.344 4.8 0 3.072-1.392 4.776-1.368 1.704-3.648 1.704m3.312-6.48q0-2.448-.984-3.744-.96-1.296-2.712-1.296-1.656 0-2.688 1.296-1.008 1.296-1.008 3.576v.336q0 2.328 1.032 3.6t2.664 1.272q1.704 0 2.688-1.296 1.008-1.32 1.008-3.744m10.32-5.016q-2.112 0-3.288 1.32-1.176 1.296-1.176 3.696 0 2.304 1.224 3.672 1.248 1.368 3.24 1.368 1.68 0 3.216-.816l.48 1.416q-1.8.84-3.768.84-2.784 0-4.512-1.752-1.728-1.776-1.728-4.728 0-3.048 1.656-4.752 1.656-1.728 4.584-1.728 1.968 0 3.768.84l-.48 1.464q-1.608-.84-3.216-.84" aria-label="mepc" style="font-size:24px;font-family:&quot;M PLUS 1p&quot;,MPLUS1p-Regular,monospace;dominant-baseline:middle;text-anchor:middle;fill:#1c1e21"/><path d="M701.336 108.24V90.72h1.944l6.24 10.56h.048l6.24-10.56h2.016v17.52h-1.92V93.936h-.048l-5.424 9.096h-1.776l-5.424-9.096h-.048v14.304zm21.96-17.52 4.368 7.296h.048l4.392-7.296h2.16l-5.376 8.64 5.496 8.88h-2.256l-4.464-7.536h-.048l-4.488 7.536h-2.184l5.496-8.88-5.376-8.64zm16.2 0v15.888h8.568v1.632h-10.56V90.72Zm13.968 1.608v5.712h7.848v1.536h-7.848v7.056h8.328v1.608h-10.248V90.72h10.248v1.608zm12.168 15.912V90.72h1.992l9.12 14.4h.048v-14.4h1.872v17.52h-1.968l-9.12-14.4h-.048v14.4z" aria-label="MXLEN" style="font-size:24px;font-family:&quot;M PLUS 1p&quot;,MPLUS1p-Regular,monospace;dominant-baseline:middle;text-anchor:middle;fill:#1c1e21"/></svg>