<svg xmlns="http://www.w3.org/2000/svg" width="800" height="92" version="1.0"><path d="M21.02 20.12v-8.76h.972l3.12 5.28h.024l3.12-5.28h1.008v8.76h-.96v-7.152h-.024l-2.712 4.548h-.888l-2.712-4.548h-.024v7.152zM32 11.36l2.184 3.648h.024l2.196-3.648h1.08l-2.688 4.32 2.748 4.44h-1.128l-2.232-3.768h-.024l-2.244 3.768h-1.092l2.748-4.44-2.688-4.32zm8.1 0v7.944h4.284v.816h-5.28v-8.76zm6.984.804v2.856h3.924v.768h-3.924v3.528h4.164v.804h-5.124v-8.76h5.124v.804zm6.084 7.956v-8.76h.996l4.56 7.2h.024v-7.2h.936v8.76H58.7l-4.56-7.2h-.024v7.2zm8.496-3.096v-.768h3.564v.768zm8.256 3.096v-7.608h-.024l-2.364 2.184-.372-.78 2.76-2.556h.96v8.76z" aria-label="MXLEN-1" style="font-size:12px;font-family:&quot;M PLUS 1p&quot;,MPLUS1p-Regular,monospace;dominant-baseline:middle;fill:#1c1e21"/><path d="M776.268 11.24q3.168 0 3.168 4.5t-3.168 4.5q-1.5 0-2.328-1.044t-.828-3.456.828-3.456 2.328-1.044m-1.656 7.344q.552.876 1.656.876t1.656-.876q.552-.888.552-2.844t-.552-2.832q-.552-.888-1.656-.888t-1.656.888q-.54.876-.54 2.832t.54 2.844" aria-label="0" style="font-size:12px;font-family:&quot;M PLUS 1p&quot;,MPLUS1p-Regular,monospace;dominant-baseline:middle;text-anchor:end;fill:#1c1e21"/><path stroke="#1C1E21" d="M16 31h768M16 61h768M784 31v30M16 31v30"/><path d="M386.128 43.88h.84l.012 1.032h.024q.66-1.152 1.644-1.152 1.2 0 1.68 1.2h.024q.636-1.2 1.812-1.2.972 0 1.428.576.456.564.456 1.824v3.96h-.864V46.4q0-1.092-.276-1.5-.276-.42-.936-.42-.576 0-1.008.576t-.432 1.404v3.66h-.864V46.4q0-1.08-.288-1.5-.276-.42-.936-.42-.54 0-.996.636-.444.624-.444 1.5v3.504h-.876zm10.14 3.456q.024 1.02.624 1.608t1.56.588q.924 0 1.836-.48l.24.684q-1.008.504-2.16.504-1.344 0-2.172-.876T395.368 47q0-1.512.768-2.376.78-.864 2.112-.864 1.296 0 2.004.828.72.816.72 2.352 0 .156-.024.396zm0-.696h3.84q-.012-1.044-.504-1.608t-1.356-.564q-.9 0-1.428.576-.516.564-.552 1.596m9.06 3.6q-1.356 0-2.016-1.092h-.024v3.612h-.876v-8.88h.84l.012 1.056h.024q.66-1.176 2.04-1.176 1.176 0 1.848.84.672.828.672 2.4 0 1.536-.696 2.388-.684.852-1.824.852m1.656-3.24q0-1.224-.492-1.872-.48-.648-1.356-.648-.828 0-1.344.648-.504.648-.504 1.788v.168q0 1.164.516 1.8t1.332.636q.852 0 1.344-.648.504-.66.504-1.872m5.16-2.508q-1.056 0-1.644.66-.588.648-.588 1.848 0 1.152.612 1.836.624.684 1.62.684.84 0 1.608-.408l.24.708q-.9.42-1.884.42-1.392 0-2.256-.876-.864-.888-.864-2.364 0-1.524.828-2.376.828-.864 2.292-.864.984 0 1.884.42l-.24.732q-.804-.42-1.608-.42" aria-label="mepc" style="font-size:12px;font-family:&quot;M PLUS 1p&quot;,MPLUS1p-Regular,monospace;dominant-baseline:middle;text-anchor:middle;fill:#1c1e21"/><path d="M380.668 80.12v-8.76h.972l3.12 5.28h.024l3.12-5.28h1.008v8.76h-.96v-7.152h-.024l-2.712 4.548h-.888l-2.712-4.548h-.024v7.152zm10.98-8.76 2.184 3.648h.024l2.196-3.648h1.08l-2.688 4.32 2.748 4.44h-1.128l-2.232-3.768h-.024l-2.244 3.768h-1.092l2.748-4.44-2.688-4.32zm8.1 0v7.944h4.284v.816h-5.28v-8.76zm6.984.804v2.856h3.924v.768h-3.924v3.528h4.164v.804h-5.124v-8.76h5.124v.804zm6.084 7.956v-8.76h.996l4.56 7.2h.024v-7.2h.936v8.76h-.984l-4.56-7.2h-.024v7.2z" aria-label="MXLEN" style="font-size:12px;font-family:&quot;M PLUS 1p&quot;,MPLUS1p-Regular,monospace;dominant-baseline:middle;text-anchor:middle;fill:#1c1e21"/></svg>