<svg xmlns="http://www.w3.org/2000/svg" width="1480" height="122" version="1.0"><path d="M106.04 28.24V10.72h1.944l6.24 10.56h.048l6.24-10.56h2.016v17.52h-1.92V13.936h-.048l-5.424 9.096h-1.776l-5.424-9.096h-.048V28.24ZM128 10.72l4.368 7.296h.048l4.392-7.296h2.16l-5.376 8.64 5.496 8.88h-2.256l-4.464-7.536h-.048l-4.488 7.536h-2.184l5.496-8.88-5.376-8.64zm16.2 0v15.888h8.568v1.632h-10.56V10.72Zm13.968 1.608v5.712h7.848v1.536h-7.848v7.056h8.328v1.608h-10.248V10.72h10.248v1.608zm12.168 15.912V10.72h1.992l9.12 14.4h.048v-14.4h1.872v17.52H181.4l-9.12-14.4h-.048v14.4zm16.992-6.192v-1.536h7.128v1.536zm16.512 6.192V13.024h-.048l-4.728 4.368-.744-1.56 5.52-5.112h1.92v17.52z" aria-label="MXLEN-1" style="font-size:24px;font-family:&quot;M PLUS 1p&quot;,MPLUS1p-Regular,monospace;dominant-baseline:middle;fill:#1c1e21"/><path d="M1368.536 10.48q6.336 0 6.336 9t-6.336 9q-3 0-4.656-2.088t-1.656-6.912 1.656-6.912 4.656-2.088m-3.312 14.688q1.104 1.752 3.312 1.752t3.312-1.752q1.104-1.776 1.104-5.688t-1.104-5.664q-1.104-1.776-3.312-1.776t-3.312 1.776q-1.08 1.752-1.08 5.664t1.08 5.688" aria-label="0" style="font-size:24px;font-family:&quot;M PLUS 1p&quot;,MPLUS1p-Regular,monospace;dominant-baseline:middle;text-anchor:end;fill:#1c1e21"/><path stroke="#1C1E21" d="M100 41h680M100 81h680M100 41v40"/><path d="M660.08 68.24V50.72h2.088v17.52zm6.648-12.48h1.68l.024 2.232h.048q.72-1.152 1.824-1.8 1.128-.672 2.424-.672 2.112 0 3.12 1.32 1.032 1.296 1.032 4.128v7.272h-1.728v-7.128q0-2.328-.672-3.216-.672-.912-2.304-.912-1.392 0-2.544 1.392-1.152 1.368-1.152 3.192v6.672h-1.752zm17.112-4.08v4.56h4.728v1.44h-4.728v6.552q0 1.68.456 2.256.456.552 1.704.552 1.104 0 2.112-.408l.288 1.416q-1.224.432-2.64.432-2.04 0-2.88-.864-.84-.888-.84-3.048V57.68h-2.76v-1.44h2.76v-4.56zm9.048 10.992q.048 2.04 1.248 3.216t3.12 1.176q1.848 0 3.672-.96l.48 1.368q-2.016 1.008-4.32 1.008-2.688 0-4.344-1.752T691.088 62q0-3.024 1.536-4.752 1.56-1.728 4.224-1.728 2.592 0 4.008 1.656 1.44 1.632 1.44 4.704 0 .312-.048.792zm0-1.392h7.68q-.024-2.088-1.008-3.216t-2.712-1.128q-1.8 0-2.856 1.152-1.032 1.128-1.104 3.192m12.288-5.52h1.704l.048 2.664h.048q2.112-2.904 5.952-2.904v1.512q-2.664 0-4.32 1.464-1.632 1.464-1.632 3.792v5.952h-1.8zm10.872 0h1.704l.048 2.664h.048q2.112-2.904 5.952-2.904v1.512q-2.664 0-4.32 1.464-1.632 1.464-1.632 3.792v5.952h-1.8zm12.48 0v7.752q0 1.92.624 2.688.648.768 2.136.768 1.392 0 2.52-1.344 1.152-1.344 1.152-3.192V55.76h1.752v12.48h-1.68l-.024-2.232h-.048q-.72 1.152-1.848 1.824-1.104.648-2.4.648-2.016 0-2.976-1.128-.936-1.152-.936-3.672v-7.92zm17.616 12.72q-2.712 0-4.032-2.184h-.048v7.224h-1.752V55.76h1.68l.024 2.112h.048q1.32-2.352 4.08-2.352 2.352 0 3.696 1.68 1.344 1.656 1.344 4.8 0 3.072-1.392 4.776-1.368 1.704-3.648 1.704m3.312-6.48q0-2.448-.984-3.744-.96-1.296-2.712-1.296-1.656 0-2.688 1.296-1.008 1.296-1.008 3.576v.336q0 2.328 1.032 3.6t2.664 1.272q1.704 0 2.688-1.296 1.008-1.32 1.008-3.744m8.328-10.32v4.56h4.728v1.44h-4.728v6.552q0 1.68.456 2.256.456.552 1.704.552 1.104 0 2.112-.408l.288 1.416q-1.224.432-2.64.432-2.04 0-2.88-.864-.84-.888-.84-3.048V57.68h-2.76v-1.44h2.76v-4.56zM770 55.52q2.28 0 4.224.96l-.384 1.416q-1.848-.936-3.84-.936-1.392 0-2.136.504-.72.504-.72 1.416 0 .864.624 1.368.648.504 2.328.792 2.448.408 3.504 1.344 1.08.936 1.08 2.568t-1.248 2.592q-1.224.936-3.432.936-2.568 0-4.608-1.2l.408-1.416q1.968 1.176 4.2 1.176 1.392 0 2.136-.528.744-.552.744-1.56 0-.96-.672-1.488-.648-.528-2.304-.816-2.376-.408-3.456-1.296-1.056-.912-1.056-2.472 0-1.536 1.2-2.448 1.224-.912 3.408-.912" aria-label="Interrupts" style="font-size:24px;font-family:&quot;M PLUS 1p&quot;,MPLUS1p-Regular,monospace;dominant-baseline:middle;text-anchor:end;fill:#1c1e21"/><path stroke="#1C1E21" d="M780 41h600M780 81h600M1380 41v40"/><path d="M789.549 67.704h-2.21q-1.124-1.318-1.67-2.713-.538-1.394-.538-3.053 0-1.658.539-3.052.545-1.395 1.67-2.713h2.209v.17q-.475.428-.908.972-.428.54-.797 1.266-.352.697-.574 1.547-.217.85-.217 1.81 0 1.002.21 1.817.217.814.58 1.54.352.692.792 1.255.445.568.914.984zm14.127-11.139-2.35 8.725h-2.49l-1.565-5.684-1.523 5.684h-2.49l-2.35-8.725h2.35l1.342 6.006 1.605-6.006h2.244l1.53 6.006 1.406-6.006zm9.562 8.725h-2.326l-.603-1.764h-3.235l-.603 1.764h-2.268l3.223-8.725h2.59zm-3.474-3.363-1.073-3.13-1.072 3.13zm9.62-2.69q0-.328-.134-.562-.135-.235-.463-.37-.228-.093-.533-.11-.305-.024-.71-.024h-.814v2.35h.692q.539 0 .902-.053.364-.053.61-.24.234-.182.34-.399.11-.223.11-.592m3.51 6.053h-2.748l-2.378-3.2h-1.038v3.2h-2.238v-8.725h3.774q.773 0 1.33.088.556.088 1.043.381.492.293.779.762.293.463.293 1.166 0 .967-.451 1.576-.446.61-1.278 1.014zm7.278 0h-6.293v-8.725h2.25v7.038h4.043zm5.63-3.352q0 1.659-.544 3.053-.54 1.395-1.664 2.713h-2.21v-.17q.47-.416.915-.978t.79-1.26q.364-.727.575-1.541.217-.815.217-1.817 0-.96-.223-1.81-.217-.85-.568-1.547-.37-.727-.803-1.266-.428-.544-.902-.972v-.17h2.209q1.125 1.318 1.664 2.713.545 1.394.545 3.052" aria-label="(WARL)" style="font-weight:700;dominant-baseline:middle;fill:#1c1e21"/><path d="M701.336 108.24V90.72h1.944l6.24 10.56h.048l6.24-10.56h2.016v17.52h-1.92V93.936h-.048l-5.424 9.096h-1.776l-5.424-9.096h-.048v14.304zm21.96-17.52 4.368 7.296h.048l4.392-7.296h2.16l-5.376 8.64 5.496 8.88h-2.256l-4.464-7.536h-.048l-4.488 7.536h-2.184l5.496-8.88-5.376-8.64zm16.2 0v15.888h8.568v1.632h-10.56V90.72Zm13.968 1.608v5.712h7.848v1.536h-7.848v7.056h8.328v1.608h-10.248V90.72h10.248v1.608zm12.168 15.912V90.72h1.992l9.12 14.4h.048v-14.4h1.872v17.52h-1.968l-9.12-14.4h-.048v14.4z" aria-label="MXLEN" style="font-size:24px;font-family:&quot;M PLUS 1p&quot;,MPLUS1p-Regular,monospace;dominant-baseline:middle;text-anchor:middle;fill:#1c1e21"/></svg>