<svg xmlns="http://www.w3.org/2000/svg" width="800" height="88" version="1.0"><path d="M26.206 17.12V8.36h.972l3.12 5.28h.024l3.12-5.28h1.008v8.76h-.96V9.968h-.024l-2.712 4.548h-.888l-2.712-4.548h-.024v7.152Zm10.98-8.76 2.184 3.648h.024L41.59 8.36h1.08l-2.688 4.32 2.748 4.44h-1.128l-2.232-3.768h-.024l-2.244 3.768H36.01l2.748-4.44-2.688-4.32zm8.1 0v7.944h4.284v.816h-5.28V8.36Zm6.984.804v2.856h3.924v.768H52.27v3.528h4.164v.804H51.31V8.36h5.124v.804zm6.084 7.956V8.36h.996l4.56 7.2h.024v-7.2h.936v8.76h-.984l-4.56-7.2h-.024v7.2Zm8.496-3.096v-.768h3.564v.768zm8.256 3.096V9.512h-.024l-2.364 2.184-.372-.78 2.76-2.556h.96v8.76Z" aria-label="MXLEN-1" style="font-size:12px;font-family:&quot;M PLUS 1p&quot;,MPLUS1p-Regular,monospace;dominant-baseline:middle;text-anchor:middle;fill:#1c1e21"/><path d="M771.988 8.24q3.168 0 3.168 4.5t-3.168 4.5q-1.5 0-2.328-1.044t-.828-3.456.828-3.456 2.328-1.044m-1.656 7.344q.552.876 1.656.876t1.656-.876q.552-.888.552-2.844t-.552-2.832q-.552-.888-1.656-.888t-1.656.888q-.54.876-.54 2.832t.54 2.844" aria-label="0" style="font-size:12px;font-family:&quot;M PLUS 1p&quot;,MPLUS1p-Regular,monospace;dominant-baseline:middle;text-anchor:middle;fill:#1c1e21"/><path stroke="#1C1E21" d="M16 27h768M16 57h768M784 27v30M16 27v30"/><path d="M384.706 39.88h.84l.012 1.032h.024q.66-1.152 1.644-1.152 1.2 0 1.68 1.2h.024q.636-1.2 1.812-1.2.972 0 1.428.576.456.564.456 1.824v3.96h-.864V42.4q0-1.092-.276-1.5-.276-.42-.936-.42-.576 0-1.008.576t-.432 1.404v3.66h-.864V42.4q0-1.08-.288-1.5-.276-.42-.936-.42-.54 0-.996.636-.444.624-.444 1.5v3.504h-.876zm11.4-2.04v2.28h2.364v.72h-2.364v3.276q0 .84.228 1.128.228.276.852.276.552 0 1.056-.204l.144.708q-.612.216-1.32.216-1.02 0-1.44-.432-.42-.444-.42-1.524V40.84h-1.38v-.72h1.38v-2.28zm4.668 2.04 1.944 5.7h.024l1.932-5.7h.96l-2.304 6.24h-1.236l-2.304-6.24zm8.34-.12q1.308 0 1.872.54t.564 1.776v2.364q0 .852.18 1.68h-.84q-.096-.468-.12-1.104h-.024q-.324.576-.936.9t-1.38.324q-.864 0-1.38-.48-.516-.492-.516-1.32 0-1.044.912-1.656.912-.624 2.592-.624h.636v-.06q0-.912-.348-1.26-.336-.36-1.212-.36-1.128 0-2.1.552l-.156-.708q1.032-.564 2.256-.564m-1.716 4.644q0 .54.336.852.336.3.9.3.828 0 1.428-.588.612-.6.612-1.464v-.672h-.636q-1.26 0-1.956.432-.684.42-.684 1.14m6.492 1.716v-9h.924v9z" aria-label="mtval" style="font-size:12px;font-family:&quot;M PLUS 1p&quot;,MPLUS1p-Regular,monospace;dominant-baseline:middle;text-anchor:middle;fill:#1c1e21"/><path d="M380.668 76.12v-8.76h.972l3.12 5.28h.024l3.12-5.28h1.008v8.76h-.96v-7.152h-.024l-2.712 4.548h-.888l-2.712-4.548h-.024v7.152zm10.98-8.76 2.184 3.648h.024l2.196-3.648h1.08l-2.688 4.32 2.748 4.44h-1.128l-2.232-3.768h-.024l-2.244 3.768h-1.092l2.748-4.44-2.688-4.32zm8.1 0v7.944h4.284v.816h-5.28v-8.76zm6.984.804v2.856h3.924v.768h-3.924v3.528h4.164v.804h-5.124v-8.76h5.124v.804zm6.084 7.956v-8.76h.996l4.56 7.2h.024v-7.2h.936v8.76h-.984l-4.56-7.2h-.024v7.2z" aria-label="MXLEN" style="font-size:12px;font-family:&quot;M PLUS 1p&quot;,MPLUS1p-Regular,monospace;dominant-baseline:middle;text-anchor:middle;fill:#1c1e21"/></svg>