<svg xmlns="http://www.w3.org/2000/svg" width="1680" height="108" version="1.0"><path d="M208.412 20.24V2.72h1.944l6.24 10.56h.048l6.24-10.56h2.016v17.52h-1.92V5.936h-.048l-5.424 9.096h-1.776l-5.424-9.096h-.048V20.24Zm21.96-17.52 4.368 7.296h.048l4.392-7.296h2.16l-5.376 8.64 5.496 8.88h-2.256l-4.464-7.536h-.048l-4.488 7.536h-2.184l5.496-8.88-5.376-8.64zm16.2 0v15.888h8.568v1.632h-10.56V2.72Zm13.968 1.608v5.712h7.848v1.536h-7.848v7.056h8.328v1.608H258.62V2.72h10.248v1.608zm12.168 15.912V2.72h1.992l9.12 14.4h.048V2.72h1.872v17.52h-1.968l-9.12-14.4h-.048v14.4Zm16.992-6.192v-1.536h7.128v1.536zm16.512 6.192V5.024h-.048l-4.728 4.368-.744-1.56 5.52-5.112h1.92v17.52Z" aria-label="MXLEN-1" style="font-size:24px;font-family:&quot;M PLUS 1p&quot;,MPLUS1p-Regular,monospace;dominant-baseline:middle;text-anchor:middle;fill:#1c1e21"/><path d="M1459.976 2.48q6.336 0 6.336 9t-6.336 9q-3 0-4.656-2.088t-1.656-6.912 1.656-6.912 4.656-2.088m-3.312 14.688q1.104 1.752 3.312 1.752t3.312-1.752q1.104-1.776 1.104-5.688t-1.104-5.664q-1.104-1.776-3.312-1.776t-3.312 1.776q-1.08 1.752-1.08 5.664t1.08 5.688" aria-label="0" style="font-size:24px;font-family:&quot;M PLUS 1p&quot;,MPLUS1p-Regular,monospace;dominant-baseline:middle;text-anchor:middle;fill:#1c1e21"/><path stroke="#1C1E21" d="M200 27h1280M200 67h1280M1480 27v40M200 27v40"/><path d="M809.412 41.76h1.68l.024 2.064h.048q1.32-2.304 3.288-2.304 2.4 0 3.36 2.4h.048q1.272-2.4 3.624-2.4 1.944 0 2.856 1.152.912 1.128.912 3.648v7.92h-1.728V46.8q0-2.184-.552-3-.552-.84-1.872-.84-1.152 0-2.016 1.152t-.864 2.808v7.32h-1.728V46.8q0-2.16-.576-3-.552-.84-1.872-.84-1.08 0-1.992 1.272-.888 1.248-.888 3v7.008h-1.752zm22.8-4.08v4.56h4.728v1.44h-4.728v6.552q0 1.68.456 2.256.456.552 1.704.552 1.104 0 2.112-.408l.288 1.416q-1.224.432-2.64.432-2.04 0-2.88-.864-.84-.888-.84-3.048V43.68h-2.76v-1.44h2.76v-4.56zm9.336 4.08 3.888 11.4h.048l3.864-11.4h1.92l-4.608 12.48h-2.472l-4.608-12.48zm16.68-.24q2.616 0 3.744 1.08t1.128 3.552v4.728q0 1.704.36 3.36h-1.68q-.192-.936-.24-2.208h-.048q-.648 1.152-1.872 1.8t-2.76.648q-1.728 0-2.76-.96-1.032-.984-1.032-2.64 0-2.088 1.824-3.312 1.824-1.248 5.184-1.248h1.272v-.12q0-1.824-.696-2.52-.672-.72-2.424-.72-2.256 0-4.2 1.104l-.312-1.416q2.064-1.128 4.512-1.128m-3.432 9.288q0 1.08.672 1.704.672.6 1.8.6 1.656 0 2.856-1.176 1.224-1.2 1.224-2.928v-1.344h-1.272q-2.52 0-3.912.864-1.368.84-1.368 2.28m12.984 3.432v-18h1.848v18z" aria-label="mtval" style="font-size:24px;font-family:&quot;M PLUS 1p&quot;,MPLUS1p-Regular,monospace;dominant-baseline:middle;text-anchor:middle;fill:#1c1e21"/><path d="M801.336 94.24V76.72h1.944l6.24 10.56h.048l6.24-10.56h2.016v17.52h-1.92V79.936h-.048l-5.424 9.096h-1.776l-5.424-9.096h-.048V94.24Zm21.96-17.52 4.368 7.296h.048l4.392-7.296h2.16l-5.376 8.64 5.496 8.88h-2.256l-4.464-7.536h-.048l-4.488 7.536h-2.184l5.496-8.88-5.376-8.64zm16.2 0v15.888h8.568v1.632h-10.56V76.72Zm13.968 1.608v5.712h7.848v1.536h-7.848v7.056h8.328v1.608h-10.248V76.72h10.248v1.608zm12.168 15.912V76.72h1.992l9.12 14.4h.048v-14.4h1.872v17.52h-1.968l-9.12-14.4h-.048v14.4z" aria-label="MXLEN" style="font-size:24px;font-family:&quot;M PLUS 1p&quot;,MPLUS1p-Regular,monospace;dominant-baseline:middle;text-anchor:middle;fill:#1c1e21"/></svg>