<svg xmlns="http://www.w3.org/2000/svg" width="800" height="82" version="1.0"><path d="M32.655 13.34V6.77h.729l2.34 3.96h.018l2.34-3.96h.756v6.57h-.72V7.976H38.1l-2.034 3.411H35.4l-2.034-3.411h-.018v5.364Zm8.235-6.57 1.638 2.736h.018l1.647-2.736h.81l-2.016 3.24 2.06 3.33h-.845l-1.674-2.826h-.018l-1.683 2.826h-.82l2.062-3.33-2.016-3.24zm6.075 0v5.958h3.212v.612h-3.96V6.77Zm5.237.603v2.142h2.943v.576h-2.943v2.646h3.123v.603h-3.843V6.77h3.843v.603zm4.563 5.967V6.77h.747l3.42 5.4h.018v-5.4h.702v6.57h-.738l-3.42-5.4h-.018v5.4Zm6.372-2.322v-.576h2.673v.576zm6.192 2.322V7.634h-.018l-1.773 1.638-.279-.585 2.07-1.917h.72v6.57Z" aria-label="MXLEN-1" style="font-size:9px;font-family:&quot;M PLUS 1p&quot;,MPLUS1p-Regular,monospace;dominant-baseline:middle;text-anchor:middle;fill:#1c1e21"/><path d="M579.865 7.292q-.891 0-1.782.621l-.216-.576q.918-.657 2.088-.657.963 0 1.494.495.531.486.531 1.368t-.639 1.782-2.394 2.394v.018h3.06v.603h-4.05v-.603q1.917-1.584 2.592-2.466.684-.891.684-1.674 0-.639-.351-.972-.342-.333-1.017-.333" aria-label="2" style="font-size:9px;font-family:&quot;M PLUS 1p&quot;,MPLUS1p-Regular,monospace;dominant-baseline:middle;text-anchor:middle;fill:#1c1e21"/><path d="M604.009 13.34V7.634h-.018l-1.773 1.638-.279-.585 2.07-1.917h.72v6.57Z" aria-label="1" style="font-size:9px;font-family:&quot;M PLUS 1p&quot;,MPLUS1p-Regular,monospace;dominant-baseline:middle;text-anchor:middle;fill:#1c1e21"/><path d="M771.991 6.68q2.376 0 2.376 3.375t-2.376 3.375q-1.125 0-1.746-.783t-.621-2.592.621-2.592 1.746-.783m-1.242 5.508q.414.657 1.242.657t1.242-.657q.414-.666.414-2.133t-.414-2.124q-.414-.666-1.242-.666t-1.242.666q-.405.657-.405 2.124t.405 2.133" aria-label="0" style="font-size:9px;font-family:&quot;M PLUS 1p&quot;,MPLUS1p-Regular,monospace;dominant-baseline:middle;text-anchor:middle;fill:#1c1e21"/><path stroke="#1C1E21" d="M16 21h288M16 51h288M16 21v30"/><path d="M197.448 32.02q-.624 0-1.164.108v2.892h.804q2.616 0 2.616-1.536 0-.744-.54-1.104t-1.716-.36M201 37.6q0 2.64-3.432 2.64-1.128 0-2.244-.192v-8.616q1.056-.192 2.124-.192 3.156 0 3.156 2.124 0 .744-.48 1.272t-1.32.708v.024q1.056.156 1.62.744.576.588.576 1.488m-.936-.084q0-.888-.708-1.308-.696-.42-2.268-.42h-.804v3.564q.588.108 1.284.108 2.496 0 2.496-1.944m1.776 2.604 3.204-8.76h1.08l3.192 8.76h-1.02l-.888-2.556h-3.696l-.876 2.556zm2.136-3.324h3.168l-1.572-4.572h-.024zm8.844-4.776q-.828 0-1.284.372-.456.36-.456 1.008 0 1.164 1.704 1.68 1.488.432 2.112 1.08.636.648.636 1.68 0 1.164-.732 1.788-.72.612-2.064.612-1.488 0-2.64-.756l.288-.792q1.044.744 2.352.744.888 0 1.356-.408.48-.408.48-1.188 0-.72-.408-1.14-.396-.432-1.404-.744-2.628-.78-2.628-2.556 0-.984.708-1.572.72-.588 1.98-.588 1.356 0 2.52.564l-.24.744q-1.044-.528-2.28-.528m5.412.144v2.856h3.924v.768h-3.924v3.528h4.164v.804h-5.124v-8.76h5.124v.804zm7.32-.564v9.48h2.364v.72h-3.24V30.88h3.24v.72zm4.404 8.52v-8.76h.972l3.12 5.28h.024l3.12-5.28h1.008v8.76h-.96v-7.152h-.024l-2.712 4.548h-.888l-2.712-4.548h-.024v7.152zm10.98-8.76 2.184 3.648h.024l2.196-3.648h1.08l-2.688 4.32 2.748 4.44h-1.128l-2.232-3.768h-.024l-2.244 3.768h-1.092l2.748-4.44-2.688-4.32zm8.1 0v7.944h4.284v.816h-5.28v-8.76zm6.984.804v2.856h3.924v.768h-3.924v3.528h4.164v.804h-5.124v-8.76h5.124v.804zm6.084 7.956v-8.76h.996l4.56 7.2h.024v-7.2h.936v8.76h-.984l-4.56-7.2h-.024v7.2zm8.496-3.096v-.768h3.564v.768zm8.256 3.096v-7.608h-.024l-2.364 2.184-.372-.78 2.76-2.556h.96v8.76zm5.328-4.644v-1.68h1.116v1.68zm0 4.644v-1.68h1.116v1.68zm6.276-8.064q-1.188 0-2.376.828l-.288-.768q1.224-.876 2.784-.876 1.284 0 1.992.66.708.648.708 1.824t-.852 2.376-3.192 3.192v.024h4.08v.804h-5.4v-.804q2.556-2.112 3.456-3.288.912-1.188.912-2.232 0-.852-.468-1.296-.456-.444-1.356-.444m7.284-.456h-2.364v-.72h3.24V41.8h-3.24v-.72h2.364z" aria-label="BASE[MXLEN-1:2]" style="font-size:12px;font-family:&quot;M PLUS 1p&quot;,MPLUS1p-Regular,monospace;dominant-baseline:middle;text-anchor:end;fill:#1c1e21"/><path stroke="#1C1E21" d="M304 21h288M304 51h288M592 21v30"/><path d="M313.549 42.704h-2.21q-1.124-1.318-1.67-2.713-.538-1.394-.538-3.053 0-1.658.539-3.052.545-1.395 1.67-2.713h2.209v.17q-.475.428-.908.972-.428.54-.797 1.266-.352.697-.574 1.547-.217.85-.217 1.81 0 1.002.21 1.817.217.814.58 1.54.352.692.792 1.255.445.568.914.984zm14.127-11.139-2.35 8.725h-2.49l-1.565-5.684-1.523 5.684h-2.49l-2.35-8.725h2.35l1.342 6.006 1.605-6.006h2.244l1.53 6.006 1.406-6.006zm9.562 8.725h-2.326l-.603-1.764h-3.235l-.603 1.764h-2.268l3.223-8.725h2.59zm-3.474-3.363-1.073-3.13-1.072 3.13zm9.62-2.69q0-.328-.134-.562-.135-.235-.463-.37-.228-.093-.533-.11-.305-.024-.71-.024h-.814v2.35h.692q.539 0 .902-.053.364-.053.61-.24.234-.182.34-.399.11-.223.11-.592m3.51 6.053h-2.748l-2.378-3.2h-1.038v3.2h-2.238v-8.725h3.774q.773 0 1.33.088.556.088 1.043.381.492.293.779.762.293.463.293 1.166 0 .967-.451 1.576-.446.61-1.278 1.014zm7.278 0h-6.293v-8.725h2.25v7.038h4.043zm5.63-3.352q0 1.659-.544 3.053-.54 1.395-1.664 2.713h-2.21v-.17q.47-.416.915-.978t.79-1.26q.364-.727.575-1.541.217-.815.217-1.817 0-.96-.223-1.81-.217-.85-.568-1.547-.37-.727-.803-1.266-.428-.544-.902-.972v-.17h2.209q1.125 1.318 1.664 2.713.545 1.394.545 3.052" aria-label="(WARL)" style="font-weight:700;dominant-baseline:middle;fill:#1c1e21"/><path stroke="#1C1E21" d="M592 21h96M592 51h96M592 21v30"/><path d="M649.992 40.12v-8.76h.972l3.12 5.28h.024l3.12-5.28h1.008v8.76h-.96v-7.152h-.024l-2.712 4.548h-.888l-2.712-4.548h-.024v7.152zm17.124-1.104q-1.164 1.224-3.096 1.224t-3.108-1.224q-1.176-1.236-1.176-3.276t1.176-3.264q1.176-1.236 3.108-1.236t3.096 1.236q1.176 1.224 1.176 3.264t-1.176 3.276m-3.096.42q1.488 0 2.388-.996.912-1.008.912-2.7t-.912-2.688q-.9-1.008-2.388-1.008-1.5 0-2.412 1.008-.9.996-.9 2.688t.9 2.7q.912.996 2.412.996m7.896-7.392q-.624 0-1.164.108v7.176q.54.108 1.164.108 3.636 0 3.636-3.816 0-1.776-.924-2.676t-2.712-.9m4.56 3.576q0 2.268-1.176 3.444t-3.384 1.176q-1.068 0-2.124-.192v-8.616q1.08-.192 2.124-.192 2.196 0 3.372 1.14 1.188 1.128 1.188 3.24m2.46-3.456v2.856h3.924v.768h-3.924v3.528h4.164v.804h-5.124v-8.76h5.124v.804z" aria-label="MODE" style="font-size:12px;font-family:&quot;M PLUS 1p&quot;,MPLUS1p-Regular,monospace;dominant-baseline:middle;text-anchor:end;fill:#1c1e21"/><path stroke="#1C1E21" d="M688 21h96M688 51h96M784 21v30"/><path d="M697.549 42.704h-2.21q-1.124-1.318-1.67-2.713-.538-1.394-.538-3.053 0-1.658.539-3.052.545-1.395 1.67-2.713h2.209v.17q-.475.428-.908.972-.428.54-.797 1.266-.352.697-.574 1.547-.217.85-.217 1.81 0 1.002.21 1.817.217.814.58 1.54.352.692.792 1.255.445.568.914.984zm14.127-11.139-2.35 8.725h-2.49l-1.565-5.684-1.523 5.684h-2.49l-2.35-8.725h2.35l1.342 6.006 1.605-6.006h2.244l1.53 6.006 1.406-6.006zm9.562 8.725h-2.326l-.603-1.764h-3.235l-.603 1.764h-2.268l3.223-8.725h2.59zm-3.474-3.363-1.073-3.13-1.072 3.13zm9.62-2.69q0-.328-.134-.562-.135-.235-.463-.37-.228-.093-.533-.11-.305-.024-.71-.024h-.814v2.35h.692q.539 0 .902-.053.364-.053.61-.24.234-.182.34-.399.11-.223.11-.592m3.51 6.053h-2.748l-2.378-3.2h-1.038v3.2h-2.238v-8.725h3.774q.773 0 1.33.088.556.088 1.043.381.492.293.779.762.293.463.293 1.166 0 .967-.451 1.576-.446.61-1.278 1.014zm7.278 0h-6.293v-8.725h2.25v7.038h4.043zm5.63-3.352q0 1.659-.544 3.053-.54 1.395-1.664 2.713h-2.21v-.17q.47-.416.915-.978t.79-1.26q.364-.727.575-1.541.217-.815.217-1.817 0-.96-.223-1.81-.217-.85-.568-1.547-.37-.727-.803-1.266-.428-.544-.902-.972v-.17h2.209q1.125 1.318 1.664 2.713.545 1.394.545 3.052" aria-label="(WARL)" style="font-weight:700;dominant-baseline:middle;fill:#1c1e21"/><path d="M278.206 70.12v-8.76h.972l3.12 5.28h.024l3.12-5.28h1.008v8.76h-.96v-7.152h-.024l-2.712 4.548h-.888l-2.712-4.548h-.024v7.152zm10.98-8.76 2.184 3.648h.024l2.196-3.648h1.08l-2.688 4.32 2.748 4.44h-1.128l-2.232-3.768h-.024l-2.244 3.768h-1.092l2.748-4.44-2.688-4.32zm8.1 0v7.944h4.284v.816h-5.28v-8.76zm6.984.804v2.856h3.924v.768h-3.924v3.528h4.164v.804h-5.124v-8.76h5.124v.804zm6.084 7.956v-8.76h.996l4.56 7.2h.024v-7.2h.936v8.76h-.984l-4.56-7.2h-.024v7.2zm8.496-3.096v-.768h3.564v.768zm8.064-4.968q-1.188 0-2.376.828l-.288-.768q1.224-.876 2.784-.876 1.284 0 1.992.66.708.648.708 1.824t-.852 2.376-3.192 3.192v.024h4.08v.804h-5.4v-.804q2.556-2.112 3.456-3.288.912-1.188.912-2.232 0-.852-.468-1.296-.456-.444-1.356-.444" aria-label="MXLEN-2" style="font-size:12px;font-family:&quot;M PLUS 1p&quot;,MPLUS1p-Regular,monospace;dominant-baseline:middle;text-anchor:middle;fill:#1c1e21"/><path d="M687.82 62.056q-1.188 0-2.376.828l-.288-.768q1.224-.876 2.784-.876 1.284 0 1.992.66.708.648.708 1.824t-.852 2.376-3.192 3.192v.024h4.08v.804h-5.4v-.804q2.556-2.112 3.456-3.288.912-1.188.912-2.232 0-.852-.468-1.296-.456-.444-1.356-.444" aria-label="2" style="font-size:12px;font-family:&quot;M PLUS 1p&quot;,MPLUS1p-Regular,monospace;dominant-baseline:middle;text-anchor:middle;fill:#1c1e21"/></svg>