<svg xmlns="http://www.w3.org/2000/svg" xmlns:xlink="http://www.w3.org/1999/xlink" width="594" height="340"><defs><path id="c" d="M3.453 0h1.23v-8.758h3.11v-1.105H.343v1.105h3.11Zm0 0"/><path id="d" d="M3.7.137c1.55 0 2.714-.93 2.945-2.106l.015-.07H5.488l-.02.062c-.202.61-.84 1.059-1.741 1.059-1.266 0-2.07-.852-2.098-2.316h5.117v-.438c0-2.133-1.18-3.574-3.121-3.574s-3.2 1.512-3.2 3.71v.009C.426-1.293 1.657.137 3.7.137m-.083-6.332c1.04 0 1.805.652 1.922 2.03H1.65c.128-1.323.937-2.03 1.968-2.03m0 0"/><path id="e" d="M3.297.137c1.586 0 2.762-.875 2.762-2.121v-.004c0-1.012-.52-1.582-1.957-1.93l-1.13-.273c-.784-.192-1.105-.528-1.105-1.012v-.008c0-.629.531-1.043 1.395-1.043.883 0 1.406.457 1.504 1.149l.007.046h1.133l-.008-.09C5.813-6.335 4.82-7.245 3.262-7.245c-1.54 0-2.614.867-2.614 2.09v.008c0 1.027.653 1.648 1.993 1.968l1.125.274c.808.199 1.074.484 1.074 1v.004c0 .644-.574 1.047-1.54 1.047-.968 0-1.495-.418-1.64-1.13l-.012-.066H.457l.008.063C.609-.718 1.62.137 3.297.137m0 0"/><path id="f" d="M3.082.137c.234 0 .488-.028.637-.047v-.965c-.102.008-.239.027-.383.027-.637 0-.969-.21-.969-.972v-4.305H3.72v-.984H2.367v-1.922h-1.23v1.922H.097v.984h1.04v4.313c0 1.359.64 1.949 1.945 1.949m0 0"/><path id="h" d="M.957 0h1.23v-3.52h2.286c1.851 0 3.164-1.308 3.164-3.18v-.015c0-1.87-1.313-3.148-3.164-3.148H.957Zm3.2-8.77c1.41 0 2.222.77 2.222 2.07v.013c0 1.3-.813 2.074-2.223 2.074H2.188V-8.77Zm0 0"/><path id="i" d="M5.129.164c2.793 0 4.539-1.96 4.539-5.094v-.011c0-3.125-1.75-5.086-4.54-5.086-2.796 0-4.554 1.96-4.554 5.086v.011C.574-1.797 2.324.164 5.13.164m0-1.137c-2.024 0-3.297-1.53-3.297-3.957v-.011c0-2.43 1.277-3.954 3.297-3.954 2.008 0 3.281 1.532 3.281 3.954v.011c0 2.407-1.254 3.957-3.281 3.957m0 0"/><path id="j" d="M5.078.164c2.067 0 3.645-1.223 4.02-3.11l.015-.07H7.867l-.02.063c-.429 1.297-1.386 1.98-2.769 1.98-1.96 0-3.238-1.562-3.238-3.964v-.004c0-2.403 1.27-3.954 3.238-3.954 1.39 0 2.36.7 2.742 1.895l.047.148h1.246l-.015-.066c-.375-1.867-1.97-3.11-4.02-3.11-2.746 0-4.504 1.981-4.504 5.087v.003C.574-1.832 2.34.165 5.078.165m0 0"/><path id="k" d="M.172 0h1.293l.996-2.824h3.973L7.43 0h1.293L5.059-9.863H3.844Zm4.266-8.387h.027L6.063-3.87H2.836Zm0 0"/><path id="l" d="M1.504-5.195a.774.774 0 0 0 .781-.782.77.77 0 0 0-.781-.777.767.767 0 0 0-.777.777c0 .438.34.782.777.782m0 5.293a.774.774 0 0 0 .781-.782.774.774 0 0 0-.781-.78.77.77 0 0 0-.777.78c0 .438.34.782.777.782m0 0"/><path id="m" d="M.836 0h1.187v-9.863H.836Zm0 0"/><path id="n" d="M3.719.137c1.96 0 3.289-1.422 3.289-3.692v-.015c0-2.27-1.332-3.676-3.297-3.676C1.75-7.246.426-5.832.426-3.57v.015C.426-1.293 1.742.137 3.719.137m.008-1.055c-1.258 0-2.086-.96-2.086-2.637v-.015c0-1.66.836-2.625 2.07-2.625 1.258 0 2.078.957 2.078 2.625v.015c0 1.668-.812 2.637-2.062 2.637m0 0"/><path id="o" d="M2.18 0h1.21l1.602-5.504h.028L6.625 0h1.21l1.981-7.11H8.641L7.219-1.327H7.19L5.578-7.11H4.43L2.824-1.33h-.027l-1.422-5.78H.191Zm0 0"/><path id="p" d="M3.445.137c1.02 0 1.813-.512 2.258-1.34h.027V0h1.188v-9.863H5.73v3.941h-.027c-.445-.82-1.273-1.324-2.277-1.324-1.785 0-3 1.441-3 3.684v.007c0 2.243 1.203 3.692 3.02 3.692M3.68-.918c-1.258 0-2.04-1.004-2.04-2.637v-.007c0-1.622.782-2.633 2.04-2.633 1.195 0 2.054 1.047 2.054 2.633v.007c0 1.594-.851 2.637-2.054 2.637m0 0"/><path id="q" d="M3.242 2.395h.996c-.984-1.145-1.73-3.852-1.73-6.133 0-2.285.746-4.985 1.73-6.125h-.996C1.906-8.168 1.301-6.172 1.301-3.738c0 2.433.605 4.441 1.941 6.133m0 0"/><path id="r" d="M5.094.164c2.633 0 4.183-1.578 4.183-4.246v-.938H5.266v1.082h2.78v.176c0 1.657-1.202 2.79-2.952 2.79-2.012 0-3.262-1.532-3.262-4.012v-.008c0-2.434 1.23-3.903 3.262-3.903 1.386 0 2.343.72 2.8 1.97l.028.073h1.293L9.18-6.98c-.457-1.743-1.817-3.047-4.086-3.047-2.754 0-4.52 1.953-4.52 5.035v.008C.574-1.84 2.34.164 5.094.164m0 0"/><path id="s" d="M.773 0h1.188v-4.184c0-1.21.734-2.011 1.855-2.011 1.094 0 1.633.636 1.633 1.793V0h1.188v-4.613c0-1.621-.903-2.633-2.461-2.633-1.078 0-1.805.484-2.188 1.148h-.027v-1.011H.773Zm0 0"/><path id="t" d="M.773 0h1.188v-4.39c0-1.079.601-1.723 1.527-1.723.285 0 .54.035.633.07v-1.156c-.094-.012-.273-.047-.476-.047-.801 0-1.415.52-1.657 1.34h-.027V-7.11H.773Zm0 0"/><path id="u" d="M1.441-8.312a.744.744 0 0 0 .746-.747.74.74 0 0 0-.746-.746.74.74 0 0 0-.742.746c0 .41.332.746.742.746M.848 0h1.191v-7.11H.848Zm0 0"/><path id="v" d="M3.719.137c1.605 0 2.777-1.047 2.969-2.399l.003-.05H5.523l-.011.054c-.2.793-.82 1.34-1.793 1.34-1.23 0-2.078-.977-2.078-2.629v-.008c0-1.613.828-2.64 2.066-2.64 1.043 0 1.617.629 1.797 1.34l.012.054H6.68l-.008-.054C6.523-6.07 5.477-7.246 3.707-7.246 1.73-7.246.426-5.812.426-3.57v.007c0 2.262 1.277 3.7 3.293 3.7m0 0"/><path id="w" d="M.957 0h1.23v-3.902h2.36L6.66 0h1.442L5.816-4.094c1.23-.39 1.985-1.449 1.985-2.816v-.016c0-1.777-1.246-2.937-3.145-2.937H.957Zm1.23-4.992V-8.77h2.305c1.266 0 2.035.696 2.035 1.872v.015c0 1.207-.715 1.89-1.98 1.89Zm0 0"/><path id="x" d="M3.809 0h1.214L8.66-9.863H7.371L4.43-1.477h-.028L1.465-9.863H.172Zm0 0"/><path id="y" d="M.773 2.395h1.188v-3.586h.027C2.434-.371 3.262.137 4.266.137c1.785 0 3-1.442 3-3.684v-.008c0-2.242-1.203-3.691-3.02-3.691-1.02 0-1.812.512-2.258 1.34h-.027V-7.11H.773ZM4.012-.918c-1.196 0-2.055-1.043-2.055-2.629v-.008c0-1.593.852-2.64 2.055-2.64 1.258 0 2.039 1.008 2.039 2.64v.008c0 1.617-.781 2.629-2.04 2.629m0 0"/><path id="z" d="M2.852.137c.949 0 1.804-.512 2.222-1.293h.028V0h1.187v-4.914c0-1.422-1.05-2.332-2.734-2.332-1.676 0-2.692.941-2.797 2.113l-.004.074h1.148l.012-.062c.137-.637.711-1.074 1.629-1.074.988 0 1.559.527 1.559 1.394v.598l-2.04.113C1.43-3.992.485-3.234.485-2.023v.011c0 1.293.954 2.149 2.368 2.149M1.703-2.012v-.011c0-.664.547-1.086 1.496-1.141l1.903-.117v.582c0 1.031-.864 1.804-1.985 1.804-.855 0-1.414-.433-1.414-1.117m0 0"/><path id="A" d="M.773 0h1.188v-4.457c0-.992.684-1.738 1.629-1.738.883 0 1.457.57 1.457 1.43V0h1.187v-4.52c0-.968.664-1.675 1.606-1.675.937 0 1.476.582 1.476 1.558V0h1.192v-4.91c0-1.414-.91-2.336-2.317-2.336-1 0-1.832.512-2.23 1.367h-.027c-.309-.867-1.024-1.367-1.997-1.367-.914 0-1.624.473-1.949 1.176h-.027v-1.04H.773Zm0 0"/><path id="B" d="M1.273 2.395c1.332-1.692 1.942-3.7 1.942-6.133 0-2.434-.61-4.43-1.942-6.125h-1c.985 1.14 1.73 3.84 1.73 6.125 0 2.281-.745 4.988-1.73 6.133Zm0 0"/><path id="C" d="M.836 0h1.187v-4.148c0-1.211.73-2.047 1.832-2.047 1.11 0 1.766.761 1.766 2.047V0H6.81v-4.355c0-1.723-1.032-2.891-2.543-2.891-1.059 0-1.832.473-2.215 1.27h-.028v-3.887H.836Zm0 0"/><path id="D" d="M4.238.164c2.27 0 3.63-1.96 3.63-5.094v-.011c0-3.133-1.36-5.086-3.63-5.086S.621-8.074.621-4.941v.011C.621-1.797 1.97.164 4.238.164m0-1.074C2.734-.91 1.86-2.453 1.86-4.93v-.011c0-2.477.875-4.008 2.38-4.008 1.503 0 2.394 1.531 2.394 4.008v.011c0 2.477-.89 4.02-2.395 4.02m0 0"/><path id="E" d="M2.996 0h1.16l2.297-7.902h.027L8.777 0h1.164l2.684-9.863H11.34L9.352-1.766h-.028L7.09-9.863H5.844L3.609-1.766h-.027L1.594-9.863H.309Zm0 0"/><path id="F" d="M1.41 2.395h2.965v-.926H2.559V-8.934h1.816v-.93H1.41Zm0 0"/><path id="G" d="M.219 0h1.32l1.715-2.707h.027L4.984 0h1.32L3.938-3.602l2.399-3.507H5.012L3.324-4.445h-.027L1.586-7.11H.262L2.64-3.555Zm0 0"/><path id="H" d="M3.105 2.395V-9.863H.137v.93h1.82V1.468H.137v.926Zm0 0"/><path id="I" d="M5.73 2.395h1.188V-7.11H5.73v1.203h-.027c-.437-.785-1.23-1.328-2.238-1.328C1.66-7.234.425-5.79.425-3.57v.007C.426-1.328 1.649.126 3.438.126c1.02 0 1.84-.5 2.266-1.281h.027ZM3.7-.93c-1.266 0-2.06-1.004-2.06-2.632v-.008c0-1.59.794-2.61 2.06-2.61 1.202 0 2.03 1.032 2.03 2.61v.007C5.73-1.968 4.91-.93 3.7-.93m0 0"/><path id="J" d="M.848-5.14h6.77v-1.11H.847Zm0 3.382h6.77v-1.105H.847Zm0 0"/><path id="K" d="M3.316 0h1.188v-9.863H3.3L.676-7.977v1.235L3.289-8.56h.027Zm0 0"/><path id="L" d="M4.309.137c1.816 0 3.02-1.45 3.02-3.692v-.007c0-2.243-1.216-3.684-3-3.684-1.005 0-1.833.504-2.278 1.324h-.028v-3.941H.836V0h1.187v-1.203h.028c.445.828 1.238 1.34 2.258 1.34M4.074-.918c-1.203 0-2.058-1.043-2.058-2.637v-.007c0-1.586.863-2.633 2.058-2.633 1.258 0 2.04 1.011 2.04 2.633v.007c0 1.633-.782 2.637-2.04 2.637m0 0"/><path id="M" d="M1.457 2.395c1.285 0 1.906-.59 2.414-1.95l2.774-7.554h-1.25l-1.97 5.918h-.027L1.438-7.11H.163L2.804.008 2.66.41c-.289.809-.703 1-1.457 1-.144 0-.281-.023-.383-.043v.973c.153.027.403.055.637.055m0 0"/><path id="N" d="M1.156 0h1.188v-6.125h1.449v-.984H2.332v-.868c0-.707.328-1.039.984-1.039.184 0 .368.004.512.028v-.965A5 5 0 0 0 3.105-10c-1.312 0-1.949.648-1.949 2.016v.875H.164v.984h.992Zm0 0"/><path id="O" d="M.621 0h5.305v-.984H2.004v-.02l3.902-5.238v-.867H.63v.984h3.926v.02L.62-.848Zm0 0"/></defs><path fill="none" stroke="#AC8E68" stroke-miterlimit="10" stroke-width="2" d="M116 71.027v43.633"/><path fill="none" stroke="#5E5CE6" stroke-miterlimit="10" stroke-width="2" d="M118 71.027v43.633"/><path fill="#AC8E68" stroke="#AC8E68" stroke-miterlimit="10" stroke-width="2" d="m120.5 114.281-3.5 10-3.5-10Zm0 0"/><path fill="none" stroke="#FF453A" stroke-miterlimit="10" stroke-width="2" d="M165.926 128.715c64.793-14.578 179.07-40.29 249.613-56.16"/><path fill="#FF453A" stroke="#FF453A" stroke-miterlimit="10" stroke-width="2" d="m414.703 69.156 10.524 1.219-8.989 5.61Zm0 0"/><path fill="none" stroke="#5E5CE6" stroke-miterlimit="10" stroke-width="2" d="M477 71.027v43.633"/><path fill="#5E5CE6" stroke="#5E5CE6" stroke-miterlimit="10" stroke-width="2" d="m480.5 114.281-3.5 10-3.5-10Zm0 0"/><path fill="none" stroke="#5E5CE6" stroke-miterlimit="10" stroke-width="2" d="M462.758 71.023c-12.723 12.004-30.465 31.54-37.957 52.875-4.66 13.274-4.66 18.38 0 31.653 5.851 16.668 17.965 32.238 29.047 43.976"/><path fill="#5E5CE6" stroke="#5E5CE6" stroke-miterlimit="10" stroke-width="2" d="m456.016 196.746 4.601 9.543-9.55-4.59Zm0 0"/><path fill="none" stroke="#5E5CE6" stroke-miterlimit="10" stroke-width="2" d="M462.758 71.023c-12.723 12.004-30.465 31.54-37.957 52.875-16.586 47.243-16.586 65.41 0 112.653 5.851 16.668 17.965 32.238 29.047 43.976"/><path fill="#5E5CE6" stroke="#5E5CE6" stroke-miterlimit="10" stroke-width="2" d="m456.016 277.746 4.601 9.543-9.55-4.59Zm0 0"/><path fill="none" stroke="#FF453A" stroke-miterlimit="10" stroke-width="2" d="M477 152.027v43.633"/><path fill="#FF453A" stroke="#FF453A" stroke-miterlimit="10" stroke-width="2" d="m480.5 195.281-3.5 10-3.5-10Zm0 0"/><path fill="none" stroke="#5E5CE6" stroke-miterlimit="10" stroke-width="2" d="M477 233.027v43.633"/><path fill="#5E5CE6" stroke="#5E5CE6" stroke-miterlimit="10" stroke-width="2" d="m480.5 276.281-3.5 10-3.5-10Zm0 0"/><path fill="none" stroke="#FF9F0A" stroke-miterlimit="10" stroke-width="2" d="M458.402 289.172c-58.765-39.668-240.804-162.543-312.222-210.75"/><path fill="#FF9F0A" stroke="#FF9F0A" stroke-miterlimit="10" stroke-width="2" d="m144.543 81.54-6.332-8.497 10.246 2.691Zm0 0"/><g fill="none" stroke="#1b1b1d" stroke-linecap="round" stroke-linejoin="round" stroke-width="2"><use xlink:href="#c" x="125.25" y="331.648"/><use xlink:href="#d" x="131.25" y="331.648"/><use xlink:href="#e" x="138.75" y="331.648"/><use xlink:href="#f" x="145.5" y="331.648"/><use xlink:href="#g" x="150" y="331.648"/><use xlink:href="#h" x="153" y="331.648"/><use xlink:href="#h" x="161.25" y="331.648"/><use xlink:href="#i" x="169.5" y="331.648"/><use xlink:href="#j" x="180" y="331.648"/><use xlink:href="#k" x="189.75" y="331.648"/><use xlink:href="#l" x="198.75" y="331.648"/><use xlink:href="#g" x="201.75" y="331.648"/><use xlink:href="#k" x="204.75" y="331.648"/><use xlink:href="#m" x="213.75" y="331.648"/><use xlink:href="#m" x="216.75" y="331.648"/><use xlink:href="#n" x="219.75" y="331.648"/><use xlink:href="#o" x="227.25" y="331.648"/><use xlink:href="#d" x="237" y="331.648"/><use xlink:href="#p" x="244.5" y="331.648"/><use xlink:href="#g" x="252" y="331.648"/><use xlink:href="#q" x="255" y="331.648"/><use xlink:href="#r" x="259.5" y="331.648"/><use xlink:href="#d" x="269.25" y="331.648"/><use xlink:href="#s" x="276.75" y="331.648"/><use xlink:href="#d" x="284.25" y="331.648"/><use xlink:href="#t" x="291.75" y="331.648"/><use xlink:href="#u" x="296.25" y="331.648"/><use xlink:href="#v" x="299.25" y="331.648"/><use xlink:href="#q" x="306" y="331.648"/><use xlink:href="#w" x="310.5" y="331.648"/><use xlink:href="#u" x="318.75" y="331.648"/><use xlink:href="#e" x="321.75" y="331.648"/><use xlink:href="#v" x="328.5" y="331.648"/><use xlink:href="#g" x="335.25" y="331.648"/><use xlink:href="#x" x="338.25" y="331.648"/><use xlink:href="#g" x="347.25" y="331.648"/><use xlink:href="#y" x="350.25" y="331.648"/><use xlink:href="#z" x="357.75" y="331.648"/><use xlink:href="#t" x="364.5" y="331.648"/><use xlink:href="#f" x="369" y="331.648"/><use xlink:href="#u" x="373.5" y="331.648"/><use xlink:href="#z" x="376.5" y="331.648"/><use xlink:href="#m" x="383.25" y="331.648"/><use xlink:href="#g" x="386.25" y="331.648"/><use xlink:href="#n" x="389.25" y="331.648"/><use xlink:href="#t" x="396.75" y="331.648"/><use xlink:href="#p" x="400.5" y="331.648"/><use xlink:href="#d" x="408" y="331.648"/><use xlink:href="#t" x="415.5" y="331.648"/><use xlink:href="#g" x="420" y="331.648"/><use xlink:href="#A" x="423" y="331.648"/><use xlink:href="#n" x="434.25" y="331.648"/><use xlink:href="#p" x="441.75" y="331.648"/><use xlink:href="#d" x="449.25" y="331.648"/><use xlink:href="#m" x="456.75" y="331.648"/><use xlink:href="#B" x="459.75" y="331.648"/><use xlink:href="#B" x="464.25" y="331.648"/></g><g fill="#E3E3E3"><use xlink:href="#c" x="125.25" y="331.648"/><use xlink:href="#d" x="131.25" y="331.648"/><use xlink:href="#e" x="138.75" y="331.648"/><use xlink:href="#f" x="145.5" y="331.648"/><use xlink:href="#g" x="150" y="331.648"/><use xlink:href="#h" x="153" y="331.648"/><use xlink:href="#h" x="161.25" y="331.648"/><use xlink:href="#i" x="169.5" y="331.648"/><use xlink:href="#j" x="180" y="331.648"/><use xlink:href="#k" x="189.75" y="331.648"/><use xlink:href="#l" x="198.75" y="331.648"/><use xlink:href="#g" x="201.75" y="331.648"/><use xlink:href="#k" x="204.75" y="331.648"/><use xlink:href="#m" x="213.75" y="331.648"/><use xlink:href="#m" x="216.75" y="331.648"/><use xlink:href="#n" x="219.75" y="331.648"/><use xlink:href="#o" x="227.25" y="331.648"/><use xlink:href="#d" x="237" y="331.648"/><use xlink:href="#p" x="244.5" y="331.648"/><use xlink:href="#g" x="252" y="331.648"/><use xlink:href="#q" x="255" y="331.648"/><use xlink:href="#r" x="259.5" y="331.648"/><use xlink:href="#d" x="269.25" y="331.648"/><use xlink:href="#s" x="276.75" y="331.648"/><use xlink:href="#d" x="284.25" y="331.648"/><use xlink:href="#t" x="291.75" y="331.648"/><use xlink:href="#u" x="296.25" y="331.648"/><use xlink:href="#v" x="299.25" y="331.648"/><use xlink:href="#q" x="306" y="331.648"/><use xlink:href="#w" x="310.5" y="331.648"/><use xlink:href="#u" x="318.75" y="331.648"/><use xlink:href="#e" x="321.75" y="331.648"/><use xlink:href="#v" x="328.5" y="331.648"/><use xlink:href="#g" x="335.25" y="331.648"/><use xlink:href="#x" x="338.25" y="331.648"/><use xlink:href="#g" x="347.25" y="331.648"/><use xlink:href="#y" x="350.25" y="331.648"/><use xlink:href="#z" x="357.75" y="331.648"/><use xlink:href="#t" x="364.5" y="331.648"/><use xlink:href="#f" x="369" y="331.648"/><use xlink:href="#u" x="373.5" y="331.648"/><use xlink:href="#z" x="376.5" y="331.648"/><use xlink:href="#m" x="383.25" y="331.648"/><use xlink:href="#g" x="386.25" y="331.648"/><use xlink:href="#n" x="389.25" y="331.648"/><use xlink:href="#t" x="396.75" y="331.648"/><use xlink:href="#p" x="400.5" y="331.648"/><use xlink:href="#d" x="408" y="331.648"/><use xlink:href="#t" x="415.5" y="331.648"/><use xlink:href="#g" x="420" y="331.648"/><use xlink:href="#A" x="423" y="331.648"/><use xlink:href="#n" x="434.25" y="331.648"/><use xlink:href="#p" x="441.75" y="331.648"/><use xlink:href="#d" x="449.25" y="331.648"/><use xlink:href="#m" x="456.75" y="331.648"/><use xlink:href="#B" x="459.75" y="331.648"/><use xlink:href="#B" x="464.25" y="331.648"/></g><g fill="none" stroke="#1b1b1d" stroke-linecap="round" stroke-linejoin="round" stroke-width="2"><use xlink:href="#c" x="90.75" y="14.801"/><use xlink:href="#C" x="99" y="14.801"/><use xlink:href="#t" x="106.5" y="14.801"/><use xlink:href="#d" x="110.25" y="14.801"/><use xlink:href="#z" x="117.75" y="14.801"/><use xlink:href="#p" x="124.5" y="14.801"/><use xlink:href="#g" x="132" y="14.801"/><use xlink:href="#D" x="135" y="14.801"/></g><g fill="#E3E3E3"><use xlink:href="#c" x="90.75" y="14.801"/><use xlink:href="#C" x="99" y="14.801"/><use xlink:href="#t" x="106.5" y="14.801"/><use xlink:href="#d" x="110.25" y="14.801"/><use xlink:href="#z" x="117.75" y="14.801"/><use xlink:href="#p" x="124.5" y="14.801"/><use xlink:href="#g" x="132" y="14.801"/><use xlink:href="#D" x="135" y="14.801"/></g><g fill="none" stroke="#1b1b1d" stroke-linecap="round" stroke-linejoin="round" stroke-width="2"><use xlink:href="#z" x="85.5" y="63.398"/><use xlink:href="#l" x="92.25" y="63.398"/><use xlink:href="#g" x="95.25" y="63.398"/><use xlink:href="#E" x="98.25" y="63.398"/><use xlink:href="#F" x="111" y="63.398"/><use xlink:href="#G" x="115.5" y="63.398"/><use xlink:href="#H" x="122.25" y="63.398"/><use xlink:href="#I" x="126.75" y="63.398"/><use xlink:href="#J" x="134.25" y="63.398"/><use xlink:href="#K" x="142.5" y="63.398"/></g><g fill="#E3E3E3"><use xlink:href="#z" x="85.5" y="63.398"/><use xlink:href="#l" x="92.25" y="63.398"/><use xlink:href="#g" x="95.25" y="63.398"/><use xlink:href="#E" x="98.25" y="63.398"/><use xlink:href="#F" x="111" y="63.398"/><use xlink:href="#G" x="115.5" y="63.398"/><use xlink:href="#H" x="122.25" y="63.398"/><use xlink:href="#I" x="126.75" y="63.398"/><use xlink:href="#J" x="134.25" y="63.398"/><use xlink:href="#K" x="142.5" y="63.398"/></g><g fill="none" stroke="#1b1b1d" stroke-linecap="round" stroke-linejoin="round" stroke-width="2"><use xlink:href="#L" x="85.125" y="144.398"/><use xlink:href="#l" x="92.625" y="144.398"/><use xlink:href="#g" x="95.625" y="144.398"/><use xlink:href="#E" x="98.625" y="144.398"/><use xlink:href="#F" x="111.375" y="144.398"/><use xlink:href="#M" x="115.875" y="144.398"/><use xlink:href="#H" x="122.625" y="144.398"/><use xlink:href="#I" x="127.125" y="144.398"/><use xlink:href="#J" x="134.625" y="144.398"/><use xlink:href="#K" x="142.875" y="144.398"/></g><g fill="#E3E3E3"><use xlink:href="#L" x="85.125" y="144.398"/><use xlink:href="#l" x="92.625" y="144.398"/><use xlink:href="#g" x="95.625" y="144.398"/><use xlink:href="#E" x="98.625" y="144.398"/><use xlink:href="#F" x="111.375" y="144.398"/><use xlink:href="#M" x="115.875" y="144.398"/><use xlink:href="#H" x="122.625" y="144.398"/><use xlink:href="#I" x="127.125" y="144.398"/><use xlink:href="#J" x="134.625" y="144.398"/><use xlink:href="#K" x="142.875" y="144.398"/></g><g fill="none" stroke="#1b1b1d" stroke-linecap="round" stroke-linejoin="round" stroke-width="2"><use xlink:href="#N" x="61.5" y="94.395"/><use xlink:href="#d" x="65.25" y="94.395"/><use xlink:href="#s" x="72.75" y="94.395"/><use xlink:href="#v" x="80.25" y="94.395"/><use xlink:href="#d" x="87" y="94.395"/></g><g fill="#AC8E68"><use xlink:href="#N" x="61.5" y="94.395"/><use xlink:href="#d" x="65.25" y="94.395"/><use xlink:href="#s" x="72.75" y="94.395"/><use xlink:href="#v" x="80.25" y="94.395"/><use xlink:href="#d" x="87" y="94.395"/></g><g fill="none" stroke="#1b1b1d" stroke-linecap="round" stroke-linejoin="round" stroke-width="2"><use xlink:href="#y" x="94.5" y="94.395"/><use xlink:href="#y" x="102" y="94.395"/><use xlink:href="#n" x="109.5" y="94.395"/></g><g fill="#5E5CE6"><use xlink:href="#y" x="94.5" y="94.395"/><use xlink:href="#y" x="102" y="94.395"/><use xlink:href="#n" x="109.5" y="94.395"/></g><g fill="none" stroke="#1b1b1d" stroke-linecap="round" stroke-linejoin="round" stroke-width="2"><use xlink:href="#v" x="447.75" y="63.398"/><use xlink:href="#l" x="454.5" y="63.398"/><use xlink:href="#g" x="457.5" y="63.398"/><use xlink:href="#w" x="460.5" y="63.398"/><use xlink:href="#F" x="468.75" y="63.398"/><use xlink:href="#M" x="473.25" y="63.398"/><use xlink:href="#H" x="480" y="63.398"/><use xlink:href="#I" x="484.5" y="63.398"/><use xlink:href="#J" x="492" y="63.398"/><use xlink:href="#K" x="500.25" y="63.398"/></g><g fill="#E3E3E3"><use xlink:href="#v" x="447.75" y="63.398"/><use xlink:href="#l" x="454.5" y="63.398"/><use xlink:href="#g" x="457.5" y="63.398"/><use xlink:href="#w" x="460.5" y="63.398"/><use xlink:href="#F" x="468.75" y="63.398"/><use xlink:href="#M" x="473.25" y="63.398"/><use xlink:href="#H" x="480" y="63.398"/><use xlink:href="#I" x="484.5" y="63.398"/><use xlink:href="#J" x="492" y="63.398"/><use xlink:href="#K" x="500.25" y="63.398"/></g><g fill="none" stroke="#1b1b1d" stroke-linecap="round" stroke-linejoin="round" stroke-width="2"><use xlink:href="#t" x="287.844" y="95.309"/><use xlink:href="#N" x="292.344" y="95.309"/></g><g fill="#FF453A"><use xlink:href="#t" x="287.844" y="95.309"/><use xlink:href="#N" x="292.344" y="95.309"/></g><g fill="none" stroke="#1b1b1d" stroke-linecap="round" stroke-linejoin="round" stroke-width="2"><use xlink:href="#c" x="451.875" y="14.801"/><use xlink:href="#C" x="460.125" y="14.801"/><use xlink:href="#t" x="467.625" y="14.801"/><use xlink:href="#d" x="471.375" y="14.801"/><use xlink:href="#z" x="478.875" y="14.801"/><use xlink:href="#p" x="485.625" y="14.801"/><use xlink:href="#g" x="493.125" y="14.801"/><use xlink:href="#K" x="496.125" y="14.801"/></g><g fill="#E3E3E3"><use xlink:href="#c" x="451.875" y="14.801"/><use xlink:href="#C" x="460.125" y="14.801"/><use xlink:href="#t" x="467.625" y="14.801"/><use xlink:href="#d" x="471.375" y="14.801"/><use xlink:href="#z" x="478.875" y="14.801"/><use xlink:href="#p" x="485.625" y="14.801"/><use xlink:href="#g" x="493.125" y="14.801"/><use xlink:href="#K" x="496.125" y="14.801"/></g><g fill="none" stroke="#1b1b1d" stroke-linecap="round" stroke-linejoin="round" stroke-width="2"><use xlink:href="#p" x="445.125" y="144.398"/><use xlink:href="#l" x="452.625" y="144.398"/><use xlink:href="#g" x="455.625" y="144.398"/><use xlink:href="#E" x="458.625" y="144.398"/><use xlink:href="#F" x="471.375" y="144.398"/><use xlink:href="#O" x="475.875" y="144.398"/><use xlink:href="#H" x="482.625" y="144.398"/><use xlink:href="#I" x="487.125" y="144.398"/><use xlink:href="#J" x="494.625" y="144.398"/><use xlink:href="#K" x="502.875" y="144.398"/></g><g fill="#E3E3E3"><use xlink:href="#p" x="445.125" y="144.398"/><use xlink:href="#l" x="452.625" y="144.398"/><use xlink:href="#g" x="455.625" y="144.398"/><use xlink:href="#E" x="458.625" y="144.398"/><use xlink:href="#F" x="471.375" y="144.398"/><use xlink:href="#O" x="475.875" y="144.398"/><use xlink:href="#H" x="482.625" y="144.398"/><use xlink:href="#I" x="487.125" y="144.398"/><use xlink:href="#J" x="494.625" y="144.398"/><use xlink:href="#K" x="502.875" y="144.398"/></g><g fill="none" stroke="#1b1b1d" stroke-linecap="round" stroke-linejoin="round" stroke-width="2"><use xlink:href="#v" x="435.75" y="94.395"/><use xlink:href="#f" x="442.5" y="94.395"/><use xlink:href="#t" x="447" y="94.395"/><use xlink:href="#m" x="451.5" y="94.395"/></g><g fill="#5E5CE6"><use xlink:href="#v" x="435.75" y="94.395"/><use xlink:href="#f" x="442.5" y="94.395"/><use xlink:href="#t" x="447" y="94.395"/><use xlink:href="#m" x="451.5" y="94.395"/></g><g fill="none" stroke="#1b1b1d" stroke-linecap="round" stroke-linejoin="round" stroke-width="2"><use xlink:href="#y" x="454.5" y="94.395"/><use xlink:href="#y" x="462" y="94.395"/><use xlink:href="#n" x="469.5" y="94.395"/></g><g fill="#5E5CE6"><use xlink:href="#y" x="454.5" y="94.395"/><use xlink:href="#y" x="462" y="94.395"/><use xlink:href="#n" x="469.5" y="94.395"/></g><g fill="none" stroke="#1b1b1d" stroke-linecap="round" stroke-linejoin="round" stroke-width="2"><use xlink:href="#d" x="447.375" y="225.398"/><use xlink:href="#l" x="454.875" y="225.398"/><use xlink:href="#g" x="457.875" y="225.398"/><use xlink:href="#w" x="460.875" y="225.398"/><use xlink:href="#F" x="469.125" y="225.398"/><use xlink:href="#O" x="473.625" y="225.398"/><use xlink:href="#H" x="480.375" y="225.398"/><use xlink:href="#I" x="484.875" y="225.398"/><use xlink:href="#J" x="492.375" y="225.398"/><use xlink:href="#K" x="500.625" y="225.398"/></g><g fill="#E3E3E3"><use xlink:href="#d" x="447.375" y="225.398"/><use xlink:href="#l" x="454.875" y="225.398"/><use xlink:href="#g" x="457.875" y="225.398"/><use xlink:href="#w" x="460.875" y="225.398"/><use xlink:href="#F" x="469.125" y="225.398"/><use xlink:href="#O" x="473.625" y="225.398"/><use xlink:href="#H" x="480.375" y="225.398"/><use xlink:href="#I" x="484.875" y="225.398"/><use xlink:href="#J" x="492.375" y="225.398"/><use xlink:href="#K" x="500.625" y="225.398"/></g><g fill="none" stroke="#1b1b1d" stroke-linecap="round" stroke-linejoin="round" stroke-width="2"><use xlink:href="#v" x="406.086" y="151.699"/><use xlink:href="#f" x="412.836" y="151.699"/><use xlink:href="#t" x="417.336" y="151.699"/><use xlink:href="#m" x="421.836" y="151.699"/></g><g fill="#5E5CE6"><use xlink:href="#v" x="406.086" y="151.699"/><use xlink:href="#f" x="412.836" y="151.699"/><use xlink:href="#t" x="417.336" y="151.699"/><use xlink:href="#m" x="421.836" y="151.699"/></g><g fill="none" stroke="#1b1b1d" stroke-linecap="round" stroke-linejoin="round" stroke-width="2"><use xlink:href="#N" x="447.75" y="306.398"/><use xlink:href="#l" x="452.25" y="306.398"/><use xlink:href="#g" x="455.25" y="306.398"/><use xlink:href="#w" x="458.25" y="306.398"/><use xlink:href="#F" x="466.5" y="306.398"/><use xlink:href="#G" x="471" y="306.398"/><use xlink:href="#H" x="477.75" y="306.398"/><use xlink:href="#I" x="482.25" y="306.398"/><use xlink:href="#J" x="489.75" y="306.398"/><use xlink:href="#D" x="498" y="306.398"/></g><g fill="#E3E3E3"><use xlink:href="#N" x="447.75" y="306.398"/><use xlink:href="#l" x="452.25" y="306.398"/><use xlink:href="#g" x="455.25" y="306.398"/><use xlink:href="#w" x="458.25" y="306.398"/><use xlink:href="#F" x="466.5" y="306.398"/><use xlink:href="#G" x="471" y="306.398"/><use xlink:href="#H" x="477.75" y="306.398"/><use xlink:href="#I" x="482.25" y="306.398"/><use xlink:href="#J" x="489.75" y="306.398"/><use xlink:href="#D" x="498" y="306.398"/></g><g fill="none" stroke="#1b1b1d" stroke-linecap="round" stroke-linejoin="round" stroke-width="2"><use xlink:href="#v" x="393.609" y="176.273"/><use xlink:href="#f" x="400.359" y="176.273"/><use xlink:href="#t" x="404.859" y="176.273"/><use xlink:href="#m" x="409.359" y="176.273"/></g><g fill="#5E5CE6"><use xlink:href="#v" x="393.609" y="176.273"/><use xlink:href="#f" x="400.359" y="176.273"/><use xlink:href="#t" x="404.859" y="176.273"/><use xlink:href="#m" x="409.359" y="176.273"/></g><g fill="none" stroke="#1b1b1d" stroke-linecap="round" stroke-linejoin="round" stroke-width="2"><use xlink:href="#t" x="468" y="176.395"/><use xlink:href="#N" x="472.5" y="176.395"/></g><g fill="#FF453A"><use xlink:href="#t" x="468" y="176.395"/><use xlink:href="#N" x="472.5" y="176.395"/></g><g fill="none" stroke="#1b1b1d" stroke-linecap="round" stroke-linejoin="round" stroke-width="2"><use xlink:href="#z" x="428.25" y="256.395"/><use xlink:href="#p" x="435" y="256.395"/><use xlink:href="#p" x="442.5" y="256.395"/><use xlink:href="#t" x="450" y="256.395"/></g><g fill="#5E5CE6"><use xlink:href="#z" x="428.25" y="256.395"/><use xlink:href="#p" x="435" y="256.395"/><use xlink:href="#p" x="442.5" y="256.395"/><use xlink:href="#t" x="450" y="256.395"/></g><g fill="none" stroke="#1b1b1d" stroke-linecap="round" stroke-linejoin="round" stroke-width="2"><use xlink:href="#y" x="454.5" y="256.395"/><use xlink:href="#y" x="462" y="256.395"/><use xlink:href="#n" x="469.5" y="256.395"/></g><g fill="#5E5CE6"><use xlink:href="#y" x="454.5" y="256.395"/><use xlink:href="#y" x="462" y="256.395"/><use xlink:href="#n" x="469.5" y="256.395"/></g><g fill="none" stroke="#1b1b1d" stroke-linecap="round" stroke-linejoin="round" stroke-width="2"><use xlink:href="#N" x="288.25" y="176.445"/><use xlink:href="#t" x="292.75" y="176.445"/></g><g fill="#FF9F0A"><use xlink:href="#N" x="288.25" y="176.445"/><use xlink:href="#t" x="292.75" y="176.445"/></g></svg>