<svg xmlns="http://www.w3.org/2000/svg" xmlns:xlink="http://www.w3.org/1999/xlink" width="858" height="552"><defs><path id="c" d="M3.715.195c1.832 0 2.855-1.57 2.855-4.422 0-2.843-1.023-4.414-2.855-4.414-1.84 0-2.856 1.57-2.856 4.414C.86-1.375 1.875.195 3.715.195M1.887-4.227c0-2.296.633-3.5 1.828-3.5.797 0 1.348.54 1.62 1.586L1.93-3.293a11 11 0 0 1-.043-.934M3.715-.719c-.797 0-1.34-.539-1.617-1.578l3.398-2.871q.042.439.043.941c0 2.293-.629 3.508-1.824 3.508m0 0"/><path id="d" d="M3.734-2.45 5.332 0h1.152L4.297-3.223l2.172-3.136H5.352L3.773-3.95h-.082L2.11-6.36H.93l2.2 3.18L.949 0h1.102l1.605-2.45Zm0 0"/><path id="e" d="M3.738.188c1.758 0 2.977-1.008 2.977-2.45 0-1.066-.7-1.941-1.723-2.156v-.094c.86-.238 1.383-.96 1.383-1.879 0-1.32-1.094-2.25-2.637-2.25s-2.644.93-2.644 2.25c0 .918.535 1.645 1.383 1.88v.093c-1.04.254-1.72 1.106-1.72 2.156C.758-.82 1.98.188 3.739.188m0-5.051c-.98 0-1.629-.574-1.629-1.442 0-.86.649-1.437 1.63-1.437s1.62.578 1.62 1.437c0 .867-.64 1.442-1.62 1.442m0 4.152c-1.148 0-1.941-.664-1.941-1.633s.793-1.633 1.941-1.633 1.942.664 1.942 1.633S4.887-.71 3.738-.71m0 0"/><path id="f" d="M1.016-6.078v.039h.992v-.04c0-.991.648-1.644 1.617-1.644.984 0 1.625.598 1.625 1.504 0 .672-.258 1.121-1.328 2.32L1.062-.714V0H6.41v-.937H2.54v-.102L4.53-3.203C5.875-4.676 6.273-5.38 6.273-6.258c0-1.414-1.062-2.375-2.617-2.375-1.539 0-2.64 1.07-2.64 2.555m0 0"/><path id="g" d="M6.902 0v-.906H4.523v-7.547H3.508L.992-6.82v1.101L3.41-7.28h.094v6.375H1.008V0Zm0 0"/><path id="h" d="M3.313.105c.906 0 1.574-.375 1.902-1.078h.113V0h.977v-8.852H5.289v3.477h-.101C4.91-6.07 4.23-6.461 3.313-6.461 1.84-6.46.878-5.402.878-3.773v1.183c0 1.637.96 2.695 2.434 2.695m.289-.91c-1.047 0-1.72-.754-1.72-1.925v-.915c0-1.171.673-1.921 1.72-1.921s1.718.75 1.718 1.921v.915c0 1.175-.672 1.925-1.718 1.925m0 0"/><path id="i" d="M4.7 0h.94v-1.79h1.298v-.905h-1.29v-2.403h-.937v2.414H1.937v-.074L4.77-8.453H3.715L.844-2.625v.836h3.855Zm0 0"/><path id="k" d="M2.188-9.258V.805h3.097V0H3.152v-8.453h2.121v-.805Zm0 0"/><path id="l" d="M5.285-9.258h-3.09v.805h2.118V0H2.188v.805h3.097Zm0 0"/><path id="m" d="M6.61-2.71c0-1.544-1.114-2.688-2.618-2.688-.539 0-1.148.253-1.402.593l-.09-.047c.043-.093.02-.07.277-.433l2.309-3.168H3.898c-.062.086-1.82 2.547-1.894 2.676C1.195-4.602.859-3.703.859-2.711.86-1.03 2.063.176 3.727.176c1.675 0 2.882-1.215 2.882-2.887M3.733-.743c-1.062 0-1.87-.836-1.87-1.918 0-1.09.808-1.922 1.87-1.922S5.61-3.75 5.61-2.66c0 1.082-.812 1.918-1.875 1.918m0 0"/><path id="n" d="M3.64.172c1.715 0 2.883-1.164 2.883-2.875 0-1.664-1.093-2.828-2.656-2.828-.742 0-1.347.265-1.765.765h-.094l.234-2.757h3.813v-.93H1.43L1-3.68h.98c.333-.597.961-.945 1.715-.945 1.086 0 1.82.79 1.82 1.945 0 1.149-.726 1.918-1.82 1.918-.988 0-1.742-.61-1.836-1.496h-1C.95-.805 2.063.172 3.641.172m0 0"/><path id="o" d="M1.68 0H2.78l3.793-7.5v-.953H.93v.922h4.59v.078Zm0 0"/><path id="p" d="M2.68-3.922h.965c1.171 0 1.918.629 1.918 1.613 0 .957-.723 1.551-1.883 1.551-1.055 0-1.805-.586-1.899-1.484H.805C.879-.785 2.039.176 3.71.176 5.398.176 6.6-.852 6.6-2.285c0-1.152-.663-1.945-1.788-2.09v-.094c.906-.226 1.437-.953 1.437-1.968 0-1.286-1.078-2.196-2.586-2.196-1.566 0-2.598.91-2.695 2.375h.988c.082-.906.715-1.465 1.664-1.465.957 0 1.59.567 1.59 1.43 0 .887-.664 1.504-1.613 1.504H2.68Zm0 0"/><path id="q" d="M.82-5.742c0 1.547 1.11 2.683 2.618 2.683.535 0 1.132-.253 1.382-.59l.09.047c-.05.094-.094.168-.285.43L2.32 0h1.184a205 205 0 0 0 1.894-2.68C6.227-3.883 6.57-4.78 6.57-5.742c0-1.688-1.203-2.89-2.875-2.89C2.027-8.633.82-7.419.82-5.743m2.871-1.969c1.067 0 1.875.832 1.875 1.914 0 1.094-.808 1.922-1.875 1.922-1.058 0-1.87-.828-1.87-1.922 0-1.082.812-1.914 1.87-1.914m0 0"/><path id="r" d="M3.063.11c.93 0 1.617-.38 1.921-1.06h.102v.958h.95v-4.356c0-1.324-.856-2.086-2.348-2.086-1.305 0-2.29.7-2.407 1.715h.98c.165-.543.68-.851 1.41-.851.888 0 1.376.437 1.376 1.234v.574l-1.75.09c-1.445.074-2.254.742-2.254 1.867 0 1.157.809 1.914 2.02 1.914m.289-.872c-.805 0-1.301-.41-1.301-1.078 0-.66.469-1.043 1.36-1.082L5.046-3v.75c0 .852-.734 1.488-1.695 1.488m0 0"/><path id="s" d="M4.11.105c1.468 0 2.43-1.058 2.43-2.695v-1.183c0-1.63-.962-2.688-2.43-2.688-.923 0-1.594.39-1.876 1.086h-.109v-3.477H1.113V0h.98v-.973h.11C2.531-.27 3.2.105 4.11.105m-.298-.91c-1.039 0-1.71-.75-1.71-1.925v-.915c0-1.171.671-1.921 1.71-1.921 1.055 0 1.727.75 1.727 1.921v.915c0 1.171-.672 1.925-1.726 1.925m0 0"/><path id="t" d="M6.36-4.375C6.194-5.684 5.233-6.48 3.827-6.48c-1.73 0-2.738 1.058-2.738 2.882v.832C1.09-.946 2.098.117 3.828.117 5.234.117 6.2-.672 6.36-1.969h-.984C5.25-1.242 4.629-.78 3.809-.78c-1.106 0-1.723-.75-1.723-2.114v-.574c0-1.367.617-2.12 1.723-2.12.82 0 1.441.468 1.566 1.214Zm0 0"/><path id="u" d="M5.426-1.64c-.176.554-.77.898-1.57.898-1.083 0-1.778-.75-1.778-1.918v-.258H6.41v-.621c0-1.84-.973-2.938-2.625-2.938-1.617 0-2.691 1.102-2.691 2.782v.953c0 1.812 1.015 2.86 2.761 2.86 1.336 0 2.344-.712 2.536-1.759ZM3.78-5.618c1.024 0 1.645.73 1.645 1.945H2.078c0-1.219.64-1.945 1.703-1.945m0 0"/></defs><path fill="none" stroke="#48484A" stroke-miterlimit="10" d="M12 429V12h834v417ZM12 540v-84h204v84Zm0 0"/><path fill="#FF375F" fill-opacity=".176" stroke="#636366" stroke-miterlimit="10" d="M29 54V29h85v25Zm0 0"/><g fill="#E3E3E3"><use xlink:href="#c" x="34" y="45.398"/><use xlink:href="#d" x="41.5" y="45.398"/><use xlink:href="#e" x="49" y="45.398"/><use xlink:href="#c" x="56.5" y="45.398"/><use xlink:href="#f" x="64" y="45.398"/><use xlink:href="#g" x="71.5" y="45.398"/><use xlink:href="#e" x="79" y="45.398"/><use xlink:href="#h" x="86.5" y="45.398"/><use xlink:href="#i" x="94" y="45.398"/><use xlink:href="#e" x="101.5" y="45.398"/></g><path fill="#30D158" fill-opacity=".176" stroke="#636366" stroke-miterlimit="10" d="M114 54V29h85v25Zm0 0"/><g fill="#E3E3E3"><use xlink:href="#c" x="119" y="45.398"/><use xlink:href="#d" x="126.5" y="45.398"/><use xlink:href="#c" x="134" y="45.398"/><use xlink:href="#c" x="141.5" y="45.398"/><use xlink:href="#c" x="149" y="45.398"/><use xlink:href="#c" x="156.5" y="45.398"/><use xlink:href="#c" x="164" y="45.398"/><use xlink:href="#c" x="171.5" y="45.398"/><use xlink:href="#c" x="179" y="45.398"/><use xlink:href="#c" x="186.5" y="45.398"/></g><path fill="#0A84FF" fill-opacity=".176" stroke="#636366" stroke-miterlimit="10" d="M29 79V54h85v25Zm0 0"/><g fill="#E3E3E3"><use xlink:href="#j" x="79" y="70.398"/><use xlink:href="#k" x="86.5" y="70.398"/><use xlink:href="#c" x="94" y="70.398"/><use xlink:href="#l" x="101.5" y="70.398"/></g><path fill="#30D158" fill-opacity=".176" stroke="#636366" stroke-miterlimit="10" d="M114 79V54h85v25Zm0 0"/><use xlink:href="#j" x="186.5" y="70.398" fill="#E3E3E3"/><path fill="#FF375F" fill-opacity=".176" stroke="#636366" stroke-miterlimit="10" d="M29 165v-25h85v25Zm0 0"/><g fill="#E3E3E3"><use xlink:href="#c" x="34" y="156.398"/><use xlink:href="#d" x="41.5" y="156.398"/><use xlink:href="#e" x="49" y="156.398"/><use xlink:href="#c" x="56.5" y="156.398"/><use xlink:href="#f" x="64" y="156.398"/><use xlink:href="#g" x="71.5" y="156.398"/><use xlink:href="#e" x="79" y="156.398"/><use xlink:href="#h" x="86.5" y="156.398"/><use xlink:href="#m" x="94" y="156.398"/><use xlink:href="#e" x="101.5" y="156.398"/></g><path fill="#30D158" fill-opacity=".176" stroke="#636366" stroke-miterlimit="10" d="M114 165v-25h85v25Zm0 0"/><g fill="#E3E3E3"><use xlink:href="#c" x="119" y="156.398"/><use xlink:href="#d" x="126.5" y="156.398"/><use xlink:href="#e" x="134" y="156.398"/><use xlink:href="#c" x="141.5" y="156.398"/><use xlink:href="#f" x="149" y="156.398"/><use xlink:href="#g" x="156.5" y="156.398"/><use xlink:href="#e" x="164" y="156.398"/><use xlink:href="#h" x="171.5" y="156.398"/><use xlink:href="#m" x="179" y="156.398"/><use xlink:href="#c" x="186.5" y="156.398"/></g><path fill="#0A84FF" fill-opacity=".176" stroke="#636366" stroke-miterlimit="10" d="M29 190v-25h85v25Zm0 0"/><g fill="#E3E3E3"><use xlink:href="#j" x="79" y="181.398"/><use xlink:href="#k" x="86.5" y="181.398"/><use xlink:href="#i" x="94" y="181.398"/><use xlink:href="#l" x="101.5" y="181.398"/></g><path fill="#30D158" fill-opacity=".176" stroke="#636366" stroke-miterlimit="10" d="M114 190v-25h85v25Zm0 0"/><use xlink:href="#j" x="186.5" y="181.398" fill="#E3E3E3"/><path fill="#FF375F" fill-opacity=".176" stroke="#636366" stroke-miterlimit="10" d="M239 54V29h85v25Zm0 0"/><g fill="#E3E3E3"><use xlink:href="#c" x="244" y="45.398"/><use xlink:href="#d" x="251.5" y="45.398"/><use xlink:href="#e" x="259" y="45.398"/><use xlink:href="#c" x="266.5" y="45.398"/><use xlink:href="#f" x="274" y="45.398"/><use xlink:href="#g" x="281.5" y="45.398"/><use xlink:href="#e" x="289" y="45.398"/><use xlink:href="#h" x="296.5" y="45.398"/><use xlink:href="#n" x="304" y="45.398"/><use xlink:href="#c" x="311.5" y="45.398"/></g><path fill="#30D158" fill-opacity=".176" stroke="#636366" stroke-miterlimit="10" d="M324 54V29h85v25Zm0 0"/><g fill="#E3E3E3"><use xlink:href="#c" x="329" y="45.398"/><use xlink:href="#d" x="336.5" y="45.398"/><use xlink:href="#e" x="344" y="45.398"/><use xlink:href="#c" x="351.5" y="45.398"/><use xlink:href="#f" x="359" y="45.398"/><use xlink:href="#g" x="366.5" y="45.398"/><use xlink:href="#e" x="374" y="45.398"/><use xlink:href="#h" x="381.5" y="45.398"/><use xlink:href="#i" x="389" y="45.398"/><use xlink:href="#e" x="396.5" y="45.398"/></g><path fill="#0A84FF" fill-opacity=".176" stroke="#636366" stroke-miterlimit="10" d="M239 79V54h85v25Zm0 0"/><g fill="#E3E3E3"><use xlink:href="#j" x="289" y="70.398"/><use xlink:href="#k" x="296.5" y="70.398"/><use xlink:href="#g" x="304" y="70.398"/><use xlink:href="#l" x="311.5" y="70.398"/></g><path fill="#30D158" fill-opacity=".176" stroke="#636366" stroke-miterlimit="10" d="M324 79V54h85v25Zm0 0"/><use xlink:href="#j" x="396.5" y="70.398" fill="#E3E3E3"/><path fill="none" stroke="#0A84FF" stroke-miterlimit="10" d="M230.055 54h-10.836"/><path fill="#0A84FF" stroke="#0A84FF" stroke-miterlimit="10" d="m219.219 57.5-10-3.5 10-3.5Zm0 0"/><path fill="#FF375F" fill-opacity=".176" stroke="#636366" stroke-miterlimit="10" d="M239 165v-25h85v25Zm0 0"/><g fill="#E3E3E3"><use xlink:href="#c" x="244" y="156.398"/><use xlink:href="#d" x="251.5" y="156.398"/><use xlink:href="#e" x="259" y="156.398"/><use xlink:href="#c" x="266.5" y="156.398"/><use xlink:href="#f" x="274" y="156.398"/><use xlink:href="#g" x="281.5" y="156.398"/><use xlink:href="#e" x="289" y="156.398"/><use xlink:href="#h" x="296.5" y="156.398"/><use xlink:href="#o" x="304" y="156.398"/><use xlink:href="#c" x="311.5" y="156.398"/></g><path fill="#30D158" fill-opacity=".176" stroke="#636366" stroke-miterlimit="10" d="M324 165v-25h85v25Zm0 0"/><g fill="#E3E3E3"><use xlink:href="#c" x="329" y="156.398"/><use xlink:href="#d" x="336.5" y="156.398"/><use xlink:href="#e" x="344" y="156.398"/><use xlink:href="#c" x="351.5" y="156.398"/><use xlink:href="#f" x="359" y="156.398"/><use xlink:href="#g" x="366.5" y="156.398"/><use xlink:href="#e" x="374" y="156.398"/><use xlink:href="#h" x="381.5" y="156.398"/><use xlink:href="#m" x="389" y="156.398"/><use xlink:href="#e" x="396.5" y="156.398"/></g><path fill="#0A84FF" fill-opacity=".176" stroke="#636366" stroke-miterlimit="10" d="M239 190v-25h85v25Zm0 0"/><g fill="#E3E3E3"><use xlink:href="#j" x="289" y="181.398"/><use xlink:href="#k" x="296.5" y="181.398"/><use xlink:href="#n" x="304" y="181.398"/><use xlink:href="#l" x="311.5" y="181.398"/></g><path fill="#30D158" fill-opacity=".176" stroke="#636366" stroke-miterlimit="10" d="M324 190v-25h85v25Zm0 0"/><use xlink:href="#j" x="396.5" y="181.398" fill="#E3E3E3"/><path fill="#FF375F" fill-opacity=".176" stroke="#636366" stroke-miterlimit="10" d="M449 54V29h85v25Zm0 0"/><g fill="#E3E3E3"><use xlink:href="#c" x="454" y="45.398"/><use xlink:href="#d" x="461.5" y="45.398"/><use xlink:href="#e" x="469" y="45.398"/><use xlink:href="#c" x="476.5" y="45.398"/><use xlink:href="#f" x="484" y="45.398"/><use xlink:href="#g" x="491.5" y="45.398"/><use xlink:href="#e" x="499" y="45.398"/><use xlink:href="#h" x="506.5" y="45.398"/><use xlink:href="#n" x="514" y="45.398"/><use xlink:href="#e" x="521.5" y="45.398"/></g><path fill="#30D158" fill-opacity=".176" stroke="#636366" stroke-miterlimit="10" d="M534 54V29h85v25Zm0 0"/><g fill="#E3E3E3"><use xlink:href="#c" x="539" y="45.398"/><use xlink:href="#d" x="546.5" y="45.398"/><use xlink:href="#e" x="554" y="45.398"/><use xlink:href="#c" x="561.5" y="45.398"/><use xlink:href="#f" x="569" y="45.398"/><use xlink:href="#g" x="576.5" y="45.398"/><use xlink:href="#e" x="584" y="45.398"/><use xlink:href="#h" x="591.5" y="45.398"/><use xlink:href="#n" x="599" y="45.398"/><use xlink:href="#c" x="606.5" y="45.398"/></g><path fill="#0A84FF" fill-opacity=".176" stroke="#636366" stroke-miterlimit="10" d="M449 79V54h85v25Zm0 0"/><g fill="#E3E3E3"><use xlink:href="#j" x="499" y="70.398"/><use xlink:href="#k" x="506.5" y="70.398"/><use xlink:href="#f" x="514" y="70.398"/><use xlink:href="#l" x="521.5" y="70.398"/></g><path fill="#30D158" fill-opacity=".176" stroke="#636366" stroke-miterlimit="10" d="M534 79V54h85v25Zm0 0"/><use xlink:href="#j" x="606.5" y="70.398" fill="#E3E3E3"/><path fill="none" stroke="#0A84FF" stroke-miterlimit="10" d="M440.055 54h-10.836"/><path fill="#0A84FF" stroke="#0A84FF" stroke-miterlimit="10" d="m429.219 57.5-10-3.5 10-3.5Zm0 0"/><path fill="#FF375F" fill-opacity=".176" stroke="#636366" stroke-miterlimit="10" d="M449 165v-25h85v25Zm0 0"/><g fill="#E3E3E3"><use xlink:href="#c" x="454" y="156.398"/><use xlink:href="#d" x="461.5" y="156.398"/><use xlink:href="#e" x="469" y="156.398"/><use xlink:href="#c" x="476.5" y="156.398"/><use xlink:href="#f" x="484" y="156.398"/><use xlink:href="#g" x="491.5" y="156.398"/><use xlink:href="#e" x="499" y="156.398"/><use xlink:href="#h" x="506.5" y="156.398"/><use xlink:href="#o" x="514" y="156.398"/><use xlink:href="#e" x="521.5" y="156.398"/></g><path fill="#30D158" fill-opacity=".176" stroke="#636366" stroke-miterlimit="10" d="M534 165v-25h85v25Zm0 0"/><g fill="#E3E3E3"><use xlink:href="#c" x="539" y="156.398"/><use xlink:href="#d" x="546.5" y="156.398"/><use xlink:href="#e" x="554" y="156.398"/><use xlink:href="#c" x="561.5" y="156.398"/><use xlink:href="#f" x="569" y="156.398"/><use xlink:href="#g" x="576.5" y="156.398"/><use xlink:href="#e" x="584" y="156.398"/><use xlink:href="#h" x="591.5" y="156.398"/><use xlink:href="#o" x="599" y="156.398"/><use xlink:href="#c" x="606.5" y="156.398"/></g><path fill="#0A84FF" fill-opacity=".176" stroke="#636366" stroke-miterlimit="10" d="M449 190v-25h85v25Zm0 0"/><g fill="#E3E3E3"><use xlink:href="#j" x="499" y="181.398"/><use xlink:href="#k" x="506.5" y="181.398"/><use xlink:href="#m" x="514" y="181.398"/><use xlink:href="#l" x="521.5" y="181.398"/></g><path fill="#30D158" fill-opacity=".176" stroke="#636366" stroke-miterlimit="10" d="M534 190v-25h85v25Zm0 0"/><use xlink:href="#j" x="606.5" y="181.398" fill="#E3E3E3"/><path fill="#FF375F" fill-opacity=".176" stroke="#636366" stroke-miterlimit="10" d="M659 54V29h85v25Zm0 0"/><g fill="#E3E3E3"><use xlink:href="#c" x="664" y="45.398"/><use xlink:href="#d" x="671.5" y="45.398"/><use xlink:href="#e" x="679" y="45.398"/><use xlink:href="#c" x="686.5" y="45.398"/><use xlink:href="#f" x="694" y="45.398"/><use xlink:href="#g" x="701.5" y="45.398"/><use xlink:href="#e" x="709" y="45.398"/><use xlink:href="#h" x="716.5" y="45.398"/><use xlink:href="#m" x="724" y="45.398"/><use xlink:href="#c" x="731.5" y="45.398"/></g><path fill="#30D158" fill-opacity=".176" stroke="#636366" stroke-miterlimit="10" d="M744 54V29h85v25Zm0 0"/><g fill="#E3E3E3"><use xlink:href="#c" x="749" y="45.398"/><use xlink:href="#d" x="756.5" y="45.398"/><use xlink:href="#e" x="764" y="45.398"/><use xlink:href="#c" x="771.5" y="45.398"/><use xlink:href="#f" x="779" y="45.398"/><use xlink:href="#g" x="786.5" y="45.398"/><use xlink:href="#e" x="794" y="45.398"/><use xlink:href="#h" x="801.5" y="45.398"/><use xlink:href="#n" x="809" y="45.398"/><use xlink:href="#e" x="816.5" y="45.398"/></g><path fill="#0A84FF" fill-opacity=".176" stroke="#636366" stroke-miterlimit="10" d="M659 79V54h85v25Zm0 0"/><g fill="#E3E3E3"><use xlink:href="#j" x="709" y="70.398"/><use xlink:href="#k" x="716.5" y="70.398"/><use xlink:href="#p" x="724" y="70.398"/><use xlink:href="#l" x="731.5" y="70.398"/></g><path fill="#30D158" fill-opacity=".176" stroke="#636366" stroke-miterlimit="10" d="M744 79V54h85v25Zm0 0"/><use xlink:href="#j" x="816.5" y="70.398" fill="#E3E3E3"/><path fill="none" stroke="#0A84FF" stroke-miterlimit="10" d="M650.055 54h-10.836"/><path fill="#0A84FF" stroke="#0A84FF" stroke-miterlimit="10" d="m639.219 57.5-10-3.5 10-3.5Zm0 0"/><path fill="#FF375F" fill-opacity=".176" stroke="#636366" stroke-miterlimit="10" d="M659 165v-25h85v25Zm0 0"/><g fill="#E3E3E3"><use xlink:href="#c" x="664" y="156.398"/><use xlink:href="#d" x="671.5" y="156.398"/><use xlink:href="#e" x="679" y="156.398"/><use xlink:href="#c" x="686.5" y="156.398"/><use xlink:href="#f" x="694" y="156.398"/><use xlink:href="#g" x="701.5" y="156.398"/><use xlink:href="#e" x="709" y="156.398"/><use xlink:href="#h" x="716.5" y="156.398"/><use xlink:href="#e" x="724" y="156.398"/><use xlink:href="#c" x="731.5" y="156.398"/></g><path fill="#30D158" fill-opacity=".176" stroke="#636366" stroke-miterlimit="10" d="M744 165v-25h85v25Zm0 0"/><g fill="#E3E3E3"><use xlink:href="#c" x="749" y="156.398"/><use xlink:href="#d" x="756.5" y="156.398"/><use xlink:href="#e" x="764" y="156.398"/><use xlink:href="#c" x="771.5" y="156.398"/><use xlink:href="#f" x="779" y="156.398"/><use xlink:href="#g" x="786.5" y="156.398"/><use xlink:href="#e" x="794" y="156.398"/><use xlink:href="#h" x="801.5" y="156.398"/><use xlink:href="#o" x="809" y="156.398"/><use xlink:href="#e" x="816.5" y="156.398"/></g><path fill="#0A84FF" fill-opacity=".176" stroke="#636366" stroke-miterlimit="10" d="M659 190v-25h85v25Zm0 0"/><g fill="#E3E3E3"><use xlink:href="#j" x="709" y="181.398"/><use xlink:href="#k" x="716.5" y="181.398"/><use xlink:href="#o" x="724" y="181.398"/><use xlink:href="#l" x="731.5" y="181.398"/></g><path fill="#30D158" fill-opacity=".176" stroke="#636366" stroke-miterlimit="10" d="M744 190v-25h85v25Zm0 0"/><use xlink:href="#j" x="816.5" y="181.398" fill="#E3E3E3"/><path fill="none" stroke="#0A84FF" stroke-miterlimit="10" d="M145.332 131.133V109h567.336v-9.594"/><path fill="#0A84FF" stroke="#0A84FF" stroke-miterlimit="10" d="m709.168 99.406 3.5-10 3.5 10Zm0 0"/><path fill="#FF375F" fill-opacity=".176" stroke="#636366" stroke-miterlimit="10" d="M29 276v-25h85v25Zm0 0"/><g fill="#E3E3E3"><use xlink:href="#c" x="34" y="267.398"/><use xlink:href="#d" x="41.5" y="267.398"/><use xlink:href="#e" x="49" y="267.398"/><use xlink:href="#c" x="56.5" y="267.398"/><use xlink:href="#f" x="64" y="267.398"/><use xlink:href="#g" x="71.5" y="267.398"/><use xlink:href="#e" x="79" y="267.398"/><use xlink:href="#h" x="86.5" y="267.398"/><use xlink:href="#e" x="94" y="267.398"/><use xlink:href="#e" x="101.5" y="267.398"/></g><path fill="#30D158" fill-opacity=".176" stroke="#636366" stroke-miterlimit="10" d="M114 276v-25h85v25Zm0 0"/><g fill="#E3E3E3"><use xlink:href="#c" x="119" y="267.398"/><use xlink:href="#d" x="126.5" y="267.398"/><use xlink:href="#e" x="134" y="267.398"/><use xlink:href="#c" x="141.5" y="267.398"/><use xlink:href="#f" x="149" y="267.398"/><use xlink:href="#g" x="156.5" y="267.398"/><use xlink:href="#e" x="164" y="267.398"/><use xlink:href="#h" x="171.5" y="267.398"/><use xlink:href="#e" x="179" y="267.398"/><use xlink:href="#c" x="186.5" y="267.398"/></g><path fill="#0A84FF" fill-opacity=".176" stroke="#636366" stroke-miterlimit="10" d="M29 301v-25h85v25Zm0 0"/><g fill="#E3E3E3"><use xlink:href="#j" x="79" y="292.398"/><use xlink:href="#k" x="86.5" y="292.398"/><use xlink:href="#e" x="94" y="292.398"/><use xlink:href="#l" x="101.5" y="292.398"/></g><path fill="#30D158" fill-opacity=".176" stroke="#636366" stroke-miterlimit="10" d="M114 301v-25h85v25Zm0 0"/><use xlink:href="#j" x="186.5" y="292.398" fill="#E3E3E3"/><path fill="none" stroke="#0A84FF" stroke-miterlimit="10" d="M230.055 165h-10.836"/><path fill="#0A84FF" stroke="#0A84FF" stroke-miterlimit="10" d="m219.219 168.5-10-3.5 10-3.5Zm0 0"/><path fill="#FF375F" fill-opacity=".176" stroke="#636366" stroke-miterlimit="10" d="M239 276v-25h85v25Zm0 0"/><g fill="#E3E3E3"><use xlink:href="#c" x="244" y="267.398"/><use xlink:href="#d" x="251.5" y="267.398"/><use xlink:href="#e" x="259" y="267.398"/><use xlink:href="#c" x="266.5" y="267.398"/><use xlink:href="#f" x="274" y="267.398"/><use xlink:href="#g" x="281.5" y="267.398"/><use xlink:href="#e" x="289" y="267.398"/><use xlink:href="#h" x="296.5" y="267.398"/><use xlink:href="#q" x="304" y="267.398"/><use xlink:href="#c" x="311.5" y="267.398"/></g><path fill="#30D158" fill-opacity=".176" stroke="#636366" stroke-miterlimit="10" d="M324 276v-25h85v25Zm0 0"/><g fill="#E3E3E3"><use xlink:href="#c" x="329" y="267.398"/><use xlink:href="#d" x="336.5" y="267.398"/><use xlink:href="#e" x="344" y="267.398"/><use xlink:href="#c" x="351.5" y="267.398"/><use xlink:href="#f" x="359" y="267.398"/><use xlink:href="#g" x="366.5" y="267.398"/><use xlink:href="#e" x="374" y="267.398"/><use xlink:href="#h" x="381.5" y="267.398"/><use xlink:href="#e" x="389" y="267.398"/><use xlink:href="#e" x="396.5" y="267.398"/></g><path fill="#0A84FF" fill-opacity=".176" stroke="#636366" stroke-miterlimit="10" d="M239 301v-25h85v25Zm0 0"/><g fill="#E3E3E3"><use xlink:href="#j" x="289" y="292.398"/><use xlink:href="#k" x="296.5" y="292.398"/><use xlink:href="#q" x="304" y="292.398"/><use xlink:href="#l" x="311.5" y="292.398"/></g><path fill="#30D158" fill-opacity=".176" stroke="#636366" stroke-miterlimit="10" d="M324 301v-25h85v25Zm0 0"/><use xlink:href="#j" x="396.5" y="292.398" fill="#E3E3E3"/><path fill="none" stroke="#0A84FF" stroke-miterlimit="10" d="M440.055 165h-10.836"/><path fill="#0A84FF" stroke="#0A84FF" stroke-miterlimit="10" d="m429.219 168.5-10-3.5 10-3.5Zm0 0"/><path fill="#FF375F" fill-opacity=".176" stroke="#636366" stroke-miterlimit="10" d="M449 276v-25h85v25Zm0 0"/><g fill="#E3E3E3"><use xlink:href="#c" x="454" y="267.398"/><use xlink:href="#d" x="461.5" y="267.398"/><use xlink:href="#e" x="469" y="267.398"/><use xlink:href="#c" x="476.5" y="267.398"/><use xlink:href="#f" x="484" y="267.398"/><use xlink:href="#g" x="491.5" y="267.398"/><use xlink:href="#e" x="499" y="267.398"/><use xlink:href="#h" x="506.5" y="267.398"/><use xlink:href="#q" x="514" y="267.398"/><use xlink:href="#e" x="521.5" y="267.398"/></g><path fill="#30D158" fill-opacity=".176" stroke="#636366" stroke-miterlimit="10" d="M534 276v-25h85v25Zm0 0"/><g fill="#E3E3E3"><use xlink:href="#c" x="539" y="267.398"/><use xlink:href="#d" x="546.5" y="267.398"/><use xlink:href="#e" x="554" y="267.398"/><use xlink:href="#c" x="561.5" y="267.398"/><use xlink:href="#f" x="569" y="267.398"/><use xlink:href="#g" x="576.5" y="267.398"/><use xlink:href="#e" x="584" y="267.398"/><use xlink:href="#h" x="591.5" y="267.398"/><use xlink:href="#q" x="599" y="267.398"/><use xlink:href="#c" x="606.5" y="267.398"/></g><path fill="#0A84FF" fill-opacity=".176" stroke="#636366" stroke-miterlimit="10" d="M449 301v-25h85v25Zm0 0"/><g fill="#E3E3E3"><use xlink:href="#k" x="499" y="292.398"/><use xlink:href="#g" x="506.5" y="292.398"/><use xlink:href="#c" x="514" y="292.398"/><use xlink:href="#l" x="521.5" y="292.398"/></g><path fill="#30D158" fill-opacity=".176" stroke="#636366" stroke-miterlimit="10" d="M534 301v-25h85v25Zm0 0"/><use xlink:href="#j" x="606.5" y="292.398" fill="#E3E3E3"/><path fill="none" stroke="#0A84FF" stroke-miterlimit="10" d="M650.055 165h-10.836"/><path fill="#0A84FF" stroke="#0A84FF" stroke-miterlimit="10" d="m639.219 168.5-10-3.5 10-3.5Zm0 0"/><path fill="#FF375F" fill-opacity=".176" stroke="#636366" stroke-miterlimit="10" d="M659 276v-25h85v25Zm0 0"/><g fill="#E3E3E3"><use xlink:href="#c" x="664" y="267.398"/><use xlink:href="#d" x="671.5" y="267.398"/><use xlink:href="#e" x="679" y="267.398"/><use xlink:href="#c" x="686.5" y="267.398"/><use xlink:href="#f" x="694" y="267.398"/><use xlink:href="#g" x="701.5" y="267.398"/><use xlink:href="#e" x="709" y="267.398"/><use xlink:href="#h" x="716.5" y="267.398"/><use xlink:href="#r" x="724" y="267.398"/><use xlink:href="#c" x="731.5" y="267.398"/></g><path fill="#30D158" fill-opacity=".176" stroke="#636366" stroke-miterlimit="10" d="M744 276v-25h85v25Zm0 0"/><g fill="#E3E3E3"><use xlink:href="#c" x="749" y="267.398"/><use xlink:href="#d" x="756.5" y="267.398"/><use xlink:href="#e" x="764" y="267.398"/><use xlink:href="#c" x="771.5" y="267.398"/><use xlink:href="#f" x="779" y="267.398"/><use xlink:href="#g" x="786.5" y="267.398"/><use xlink:href="#e" x="794" y="267.398"/><use xlink:href="#h" x="801.5" y="267.398"/><use xlink:href="#q" x="809" y="267.398"/><use xlink:href="#e" x="816.5" y="267.398"/></g><path fill="#0A84FF" fill-opacity=".176" stroke="#636366" stroke-miterlimit="10" d="M659 301v-25h85v25Zm0 0"/><g fill="#E3E3E3"><use xlink:href="#k" x="709" y="292.398"/><use xlink:href="#g" x="716.5" y="292.398"/><use xlink:href="#g" x="724" y="292.398"/><use xlink:href="#l" x="731.5" y="292.398"/></g><path fill="#30D158" fill-opacity=".176" stroke="#636366" stroke-miterlimit="10" d="M744 301v-25h85v25Zm0 0"/><use xlink:href="#j" x="816.5" y="292.398" fill="#E3E3E3"/><path fill="none" stroke="#0A84FF" stroke-miterlimit="10" d="M145.332 242.133V220h567.336v-9.594"/><path fill="#0A84FF" stroke="#0A84FF" stroke-miterlimit="10" d="m709.168 210.406 3.5-10 3.5 10Zm0 0"/><path fill="#FF375F" fill-opacity=".176" stroke="#636366" stroke-miterlimit="10" d="M29 387v-25h85v25Zm0 0"/><g fill="#E3E3E3"><use xlink:href="#c" x="34" y="378.398"/><use xlink:href="#d" x="41.5" y="378.398"/><use xlink:href="#e" x="49" y="378.398"/><use xlink:href="#c" x="56.5" y="378.398"/><use xlink:href="#f" x="64" y="378.398"/><use xlink:href="#g" x="71.5" y="378.398"/><use xlink:href="#e" x="79" y="378.398"/><use xlink:href="#h" x="86.5" y="378.398"/><use xlink:href="#r" x="94" y="378.398"/><use xlink:href="#e" x="101.5" y="378.398"/></g><path fill="#30D158" fill-opacity=".176" stroke="#636366" stroke-miterlimit="10" d="M114 387v-25h85v25Zm0 0"/><g fill="#E3E3E3"><use xlink:href="#c" x="119" y="378.398"/><use xlink:href="#d" x="126.5" y="378.398"/><use xlink:href="#e" x="134" y="378.398"/><use xlink:href="#c" x="141.5" y="378.398"/><use xlink:href="#f" x="149" y="378.398"/><use xlink:href="#g" x="156.5" y="378.398"/><use xlink:href="#e" x="164" y="378.398"/><use xlink:href="#h" x="171.5" y="378.398"/><use xlink:href="#r" x="179" y="378.398"/><use xlink:href="#c" x="186.5" y="378.398"/></g><path fill="#0A84FF" fill-opacity=".176" stroke="#636366" stroke-miterlimit="10" d="M29 412v-25h85v25Zm0 0"/><g fill="#E3E3E3"><use xlink:href="#k" x="79" y="403.398"/><use xlink:href="#g" x="86.5" y="403.398"/><use xlink:href="#f" x="94" y="403.398"/><use xlink:href="#l" x="101.5" y="403.398"/></g><path fill="#30D158" fill-opacity=".176" stroke="#636366" stroke-miterlimit="10" d="M114 412v-25h85v25Zm0 0"/><use xlink:href="#j" x="186.5" y="403.398" fill="#E3E3E3"/><path fill="none" stroke="#0A84FF" stroke-miterlimit="10" d="M230.055 276h-10.836"/><path fill="#0A84FF" stroke="#0A84FF" stroke-miterlimit="10" d="m219.219 279.5-10-3.5 10-3.5Zm0 0"/><path fill="#FF375F" fill-opacity=".176" stroke="#636366" stroke-miterlimit="10" d="M239 387v-25h85v25Zm0 0"/><g fill="#E3E3E3"><use xlink:href="#c" x="244" y="378.398"/><use xlink:href="#d" x="251.5" y="378.398"/><use xlink:href="#e" x="259" y="378.398"/><use xlink:href="#c" x="266.5" y="378.398"/><use xlink:href="#f" x="274" y="378.398"/><use xlink:href="#g" x="281.5" y="378.398"/><use xlink:href="#e" x="289" y="378.398"/><use xlink:href="#h" x="296.5" y="378.398"/><use xlink:href="#s" x="304" y="378.398"/><use xlink:href="#c" x="311.5" y="378.398"/></g><path fill="#30D158" fill-opacity=".176" stroke="#636366" stroke-miterlimit="10" d="M324 387v-25h85v25Zm0 0"/><g fill="#E3E3E3"><use xlink:href="#c" x="329" y="378.398"/><use xlink:href="#d" x="336.5" y="378.398"/><use xlink:href="#e" x="344" y="378.398"/><use xlink:href="#c" x="351.5" y="378.398"/><use xlink:href="#f" x="359" y="378.398"/><use xlink:href="#g" x="366.5" y="378.398"/><use xlink:href="#e" x="374" y="378.398"/><use xlink:href="#h" x="381.5" y="378.398"/><use xlink:href="#r" x="389" y="378.398"/><use xlink:href="#e" x="396.5" y="378.398"/></g><path fill="#0A84FF" fill-opacity=".176" stroke="#636366" stroke-miterlimit="10" d="M239 412v-25h85v25Zm0 0"/><g fill="#E3E3E3"><use xlink:href="#k" x="289" y="403.398"/><use xlink:href="#g" x="296.5" y="403.398"/><use xlink:href="#p" x="304" y="403.398"/><use xlink:href="#l" x="311.5" y="403.398"/></g><path fill="#30D158" fill-opacity=".176" stroke="#636366" stroke-miterlimit="10" d="M324 412v-25h85v25Zm0 0"/><use xlink:href="#j" x="396.5" y="403.398" fill="#E3E3E3"/><path fill="none" stroke="#0A84FF" stroke-miterlimit="10" d="M440.055 276h-10.836"/><path fill="#0A84FF" stroke="#0A84FF" stroke-miterlimit="10" d="m429.219 279.5-10-3.5 10-3.5Zm0 0"/><path fill="#FF375F" fill-opacity=".176" stroke="#636366" stroke-miterlimit="10" d="M449 387v-25h85v25Zm0 0"/><g fill="#E3E3E3"><use xlink:href="#c" x="454" y="378.398"/><use xlink:href="#d" x="461.5" y="378.398"/><use xlink:href="#e" x="469" y="378.398"/><use xlink:href="#c" x="476.5" y="378.398"/><use xlink:href="#f" x="484" y="378.398"/><use xlink:href="#g" x="491.5" y="378.398"/><use xlink:href="#e" x="499" y="378.398"/><use xlink:href="#h" x="506.5" y="378.398"/><use xlink:href="#s" x="514" y="378.398"/><use xlink:href="#e" x="521.5" y="378.398"/></g><path fill="#30D158" fill-opacity=".176" stroke="#636366" stroke-miterlimit="10" d="M534 387v-25h85v25Zm0 0"/><g fill="#E3E3E3"><use xlink:href="#c" x="539" y="378.398"/><use xlink:href="#d" x="546.5" y="378.398"/><use xlink:href="#e" x="554" y="378.398"/><use xlink:href="#c" x="561.5" y="378.398"/><use xlink:href="#f" x="569" y="378.398"/><use xlink:href="#g" x="576.5" y="378.398"/><use xlink:href="#e" x="584" y="378.398"/><use xlink:href="#h" x="591.5" y="378.398"/><use xlink:href="#s" x="599" y="378.398"/><use xlink:href="#c" x="606.5" y="378.398"/></g><path fill="#0A84FF" fill-opacity=".176" stroke="#636366" stroke-miterlimit="10" d="M449 412v-25h85v25Zm0 0"/><g fill="#E3E3E3"><use xlink:href="#k" x="499" y="403.398"/><use xlink:href="#g" x="506.5" y="403.398"/><use xlink:href="#i" x="514" y="403.398"/><use xlink:href="#l" x="521.5" y="403.398"/></g><path fill="#30D158" fill-opacity=".176" stroke="#636366" stroke-miterlimit="10" d="M534 412v-25h85v25Zm0 0"/><use xlink:href="#j" x="606.5" y="403.398" fill="#E3E3E3"/><path fill="none" stroke="#0A84FF" stroke-miterlimit="10" d="M650.055 276h-10.836"/><path fill="#0A84FF" stroke="#0A84FF" stroke-miterlimit="10" d="m639.219 279.5-10-3.5 10-3.5Zm0 0"/><path fill="#FF375F" fill-opacity=".176" stroke="#636366" stroke-miterlimit="10" d="M659 387v-25h85v25Zm0 0"/><g fill="#E3E3E3"><use xlink:href="#c" x="664" y="378.398"/><use xlink:href="#d" x="671.5" y="378.398"/><use xlink:href="#e" x="679" y="378.398"/><use xlink:href="#c" x="686.5" y="378.398"/><use xlink:href="#f" x="694" y="378.398"/><use xlink:href="#g" x="701.5" y="378.398"/><use xlink:href="#e" x="709" y="378.398"/><use xlink:href="#h" x="716.5" y="378.398"/><use xlink:href="#t" x="724" y="378.398"/><use xlink:href="#c" x="731.5" y="378.398"/></g><path fill="#30D158" fill-opacity=".176" stroke="#636366" stroke-miterlimit="10" d="M744 387v-25h85v25Zm0 0"/><g fill="#E3E3E3"><use xlink:href="#c" x="749" y="378.398"/><use xlink:href="#d" x="756.5" y="378.398"/><use xlink:href="#e" x="764" y="378.398"/><use xlink:href="#c" x="771.5" y="378.398"/><use xlink:href="#f" x="779" y="378.398"/><use xlink:href="#g" x="786.5" y="378.398"/><use xlink:href="#e" x="794" y="378.398"/><use xlink:href="#h" x="801.5" y="378.398"/><use xlink:href="#s" x="809" y="378.398"/><use xlink:href="#e" x="816.5" y="378.398"/></g><path fill="#0A84FF" fill-opacity=".176" stroke="#636366" stroke-miterlimit="10" d="M659 412v-25h85v25Zm0 0"/><g fill="#E3E3E3"><use xlink:href="#k" x="709" y="403.398"/><use xlink:href="#g" x="716.5" y="403.398"/><use xlink:href="#n" x="724" y="403.398"/><use xlink:href="#l" x="731.5" y="403.398"/></g><path fill="#30D158" fill-opacity=".176" stroke="#636366" stroke-miterlimit="10" d="M744 412v-25h85v25Zm0 0"/><use xlink:href="#j" x="816.5" y="403.398" fill="#E3E3E3"/><path fill="none" stroke="#0A84FF" stroke-miterlimit="10" d="M145.332 353.133V331h567.336v-9.594"/><path fill="#0A84FF" stroke="#0A84FF" stroke-miterlimit="10" d="m709.168 321.406 3.5-10 3.5 10Zm0 0"/><path fill="#FF375F" fill-opacity=".176" stroke="#636366" stroke-miterlimit="10" d="M29 498v-25h85v25Zm0 0"/><g fill="#E3E3E3"><use xlink:href="#c" x="34" y="489.398"/><use xlink:href="#d" x="41.5" y="489.398"/><use xlink:href="#e" x="49" y="489.398"/><use xlink:href="#c" x="56.5" y="489.398"/><use xlink:href="#f" x="64" y="489.398"/><use xlink:href="#g" x="71.5" y="489.398"/><use xlink:href="#e" x="79" y="489.398"/><use xlink:href="#u" x="86.5" y="489.398"/><use xlink:href="#f" x="94" y="489.398"/><use xlink:href="#c" x="101.5" y="489.398"/></g><path fill="#30D158" fill-opacity=".176" stroke="#636366" stroke-miterlimit="10" d="M114 498v-25h85v25Zm0 0"/><g fill="#E3E3E3"><use xlink:href="#c" x="119" y="489.398"/><use xlink:href="#d" x="126.5" y="489.398"/><use xlink:href="#e" x="134" y="489.398"/><use xlink:href="#c" x="141.5" y="489.398"/><use xlink:href="#f" x="149" y="489.398"/><use xlink:href="#g" x="156.5" y="489.398"/><use xlink:href="#e" x="164" y="489.398"/><use xlink:href="#h" x="171.5" y="489.398"/><use xlink:href="#t" x="179" y="489.398"/><use xlink:href="#c" x="186.5" y="489.398"/></g><path fill="#0A84FF" fill-opacity=".176" stroke="#636366" stroke-miterlimit="10" d="M29 523v-25h85v25Zm0 0"/><g fill="#E3E3E3"><use xlink:href="#k" x="86.5" y="514.398"/><use xlink:href="#c" x="94" y="514.398"/><use xlink:href="#l" x="101.5" y="514.398"/></g><path fill="#30D158" fill-opacity=".176" stroke="#636366" stroke-miterlimit="10" d="M114 523v-25h85v25Zm0 0"/><use xlink:href="#j" x="186.5" y="514.398" fill="#E3E3E3"/><path fill="none" stroke="#0A84FF" stroke-miterlimit="10" d="M230.055 387h-10.836"/><path fill="#0A84FF" stroke="#0A84FF" stroke-miterlimit="10" d="m219.219 390.5-10-3.5 10-3.5Zm0 0"/><path fill="none" stroke="#0A84FF" stroke-miterlimit="10" d="M440.055 387h-10.836"/><path fill="#0A84FF" stroke="#0A84FF" stroke-miterlimit="10" d="m429.219 390.5-10-3.5 10-3.5Zm0 0"/><path fill="none" stroke="#0A84FF" stroke-miterlimit="10" d="M650.055 387h-10.836"/><path fill="#0A84FF" stroke="#0A84FF" stroke-miterlimit="10" d="m639.219 390.5-10-3.5 10-3.5Zm0 0"/><path fill="none" stroke="#0A84FF" stroke-miterlimit="10" d="M207.977 498H744v-65.578"/><path fill="#0A84FF" stroke="#0A84FF" stroke-miterlimit="10" d="m740.5 432.422 3.5-10 3.5 10Zm0 0"/></svg>