<svg xmlns="http://www.w3.org/2000/svg" width="800" height="92" version="1.0"><path d="M38.206 20.12v-8.76h.972l3.12 5.28h.024l3.12-5.28h1.008v8.76h-.96v-7.152h-.024l-2.712 4.548h-.888l-2.712-4.548h-.024v7.152zm10.98-8.76 2.184 3.648h.024l2.196-3.648h1.08l-2.688 4.32 2.748 4.44h-1.128l-2.232-3.768h-.024l-2.244 3.768H48.01l2.748-4.44-2.688-4.32zm8.1 0v7.944h4.284v.816h-5.28v-8.76zm6.984.804v2.856h3.924v.768H64.27v3.528h4.164v.804H63.31v-8.76h5.124v.804zm6.084 7.956v-8.76h.996l4.56 7.2h.024v-7.2h.936v8.76h-.984l-4.56-7.2h-.024v7.2zm8.496-3.096v-.768h3.564v.768zm8.256 3.096v-7.608h-.024l-2.364 2.184-.372-.78 2.76-2.556h.96v8.76z" aria-label="MXLEN-1" style="font-size:12px;font-family:&quot;M PLUS 1p&quot;,MPLUS1p-Regular,monospace;dominant-baseline:middle;text-anchor:middle;fill:#e3e3e3"/><path d="M117.02 20.12v-8.76h.972l3.12 5.28h.024l3.12-5.28h1.008v8.76h-.96v-7.152h-.024l-2.712 4.548h-.888l-2.712-4.548h-.024v7.152zM128 11.36l2.184 3.648h.024l2.196-3.648h1.08l-2.688 4.32 2.748 4.44h-1.128l-2.232-3.768h-.024l-2.244 3.768h-1.092l2.748-4.44-2.688-4.32zm8.1 0v7.944h4.284v.816h-5.28v-8.76zm6.984.804v2.856h3.924v.768h-3.924v3.528h4.164v.804h-5.124v-8.76h5.124v.804zm6.084 7.956v-8.76h.996l4.56 7.2h.024v-7.2h.936v8.76h-.984l-4.56-7.2h-.024v7.2zm8.496-3.096v-.768h3.564v.768zm8.064-4.968q-1.188 0-2.376.828l-.288-.768q1.224-.876 2.784-.876 1.284 0 1.992.66.708.648.708 1.824t-.852 2.376-3.192 3.192v.024h4.08v.804h-5.4v-.804q2.556-2.112 3.456-3.288.912-1.188.912-2.232 0-.852-.468-1.296-.456-.444-1.356-.444" aria-label="MXLEN-2" style="font-size:12px;font-family:&quot;M PLUS 1p&quot;,MPLUS1p-Regular,monospace;dominant-baseline:middle;fill:#e3e3e3"/><path d="M776.268 11.24q3.168 0 3.168 4.5t-3.168 4.5q-1.5 0-2.328-1.044t-.828-3.456.828-3.456 2.328-1.044m-1.656 7.344q.552.876 1.656.876t1.656-.876q.552-.888.552-2.844t-.552-2.832q-.552-.888-1.656-.888t-1.656.888q-.54.876-.54 2.832t.54 2.844" aria-label="0" style="font-size:12px;font-family:&quot;M PLUS 1p&quot;,MPLUS1p-Regular,monospace;dominant-baseline:middle;text-anchor:end;fill:#e3e3e3"/><path stroke="#E3E3E3" d="M16 31h96M16 61h96M112 31v30M16 31v30"/><path d="M38.632 50.12v-8.76h1.044v8.76zm3.324-6.24h.84l.012 1.116h.024q.36-.576.912-.9.564-.336 1.212-.336 1.056 0 1.56.66.516.648.516 2.064v3.636h-.864v-3.564q0-1.164-.336-1.608-.336-.456-1.152-.456-.696 0-1.272.696-.576.684-.576 1.596v3.336h-.876zm8.556-2.04v2.28h2.364v.72h-2.364v3.276q0 .84.228 1.128.228.276.852.276.552 0 1.056-.204l.144.708q-.612.216-1.32.216-1.02 0-1.44-.432-.42-.444-.42-1.524V44.84h-1.38v-.72h1.38v-2.28zm4.524 5.496q.024 1.02.624 1.608t1.56.588q.924 0 1.836-.48l.24.684q-1.008.504-2.16.504-1.344 0-2.172-.876T54.136 47q0-1.512.768-2.376.78-.864 2.112-.864 1.296 0 2.004.828.72.816.72 2.352 0 .156-.024.396zm0-.696h3.84q-.012-1.044-.504-1.608t-1.356-.564q-.9 0-1.428.576-.516.564-.552 1.596m6.144-2.76h.852l.024 1.332h.024q1.056-1.452 2.976-1.452v.756q-1.332 0-2.16.732-.816.732-.816 1.896v2.976h-.9zm5.436 0h.852l.024 1.332h.024q1.056-1.452 2.976-1.452v.756q-1.332 0-2.16.732-.816.732-.816 1.896v2.976h-.9zm6.24 0v3.876q0 .96.312 1.344.324.384 1.068.384.696 0 1.26-.672.576-.672.576-1.596V43.88h.876v6.24h-.84l-.012-1.116h-.024q-.36.576-.924.912-.552.324-1.2.324-1.008 0-1.488-.564-.468-.576-.468-1.836v-3.96zm8.808 6.36q-1.356 0-2.016-1.092h-.024v3.612h-.876v-8.88h.84l.012 1.056h.024q.66-1.176 2.04-1.176 1.176 0 1.848.84.672.828.672 2.4 0 1.536-.696 2.388-.684.852-1.824.852M83.32 47q0-1.224-.492-1.872-.48-.648-1.356-.648-.828 0-1.344.648-.504.648-.504 1.788v.168q0 1.164.516 1.8t1.332.636q.852 0 1.344-.648.504-.66.504-1.872m4.164-5.16v2.28h2.364v.72h-2.364v3.276q0 .84.228 1.128.228.276.852.276.552 0 1.056-.204l.144.708q-.612.216-1.32.216-1.02 0-1.44-.432-.42-.444-.42-1.524V44.84h-1.38v-.72h1.38v-2.28z" aria-label="Interrupt" style="font-size:12px;font-family:&quot;M PLUS 1p&quot;,MPLUS1p-Regular,monospace;dominant-baseline:middle;text-anchor:middle;fill:#e3e3e3"/><path stroke="#E3E3E3" d="M112 31h360M112 61h360M112 31v30"/><path d="M381.372 42.164v2.856h3.924v.768h-3.924v3.528h4.164v.804h-5.124v-8.76h5.124v.804zm6.636 1.716 1.632 2.484h.024l1.632-2.484h.996l-2.124 3.072 2.184 3.168h-1.032l-1.692-2.592h-.024l-1.68 2.592h-1.008l2.196-3.168-2.136-3.072zm8.28.612q-1.056 0-1.644.66-.588.648-.588 1.848 0 1.152.612 1.836.624.684 1.62.684.84 0 1.608-.408l.24.708q-.9.42-1.884.42-1.392 0-2.256-.876-.864-.888-.864-2.364 0-1.524.828-2.376.828-.864 2.292-.864.984 0 1.884.42l-.24.732q-.804-.42-1.608-.42m4.008 2.844q.024 1.02.624 1.608t1.56.588q.924 0 1.836-.48l.24.684q-1.008.504-2.16.504-1.344 0-2.172-.876T399.396 47q0-1.512.768-2.376.78-.864 2.112-.864 1.296 0 2.004.828.72.816.72 2.352 0 .156-.024.396zm0-.696h3.84q-.012-1.044-.504-1.608t-1.356-.564q-.9 0-1.428.576-.516.564-.552 1.596m9.06 3.6q-1.356 0-2.016-1.092h-.024v3.612h-.876v-8.88h.84l.012 1.056h.024q.66-1.176 2.04-1.176 1.176 0 1.848.84.672.828.672 2.4 0 1.536-.696 2.388-.684.852-1.824.852m1.656-3.24q0-1.224-.492-1.872-.48-.648-1.356-.648-.828 0-1.344.648-.504.648-.504 1.788v.168q0 1.164.516 1.8t1.332.636q.852 0 1.344-.648.504-.66.504-1.872m4.164-5.16v2.28h2.364v.72h-2.364v3.276q0 .84.228 1.128.228.276.852.276.552 0 1.056-.204l.144.708q-.612.216-1.32.216-1.02 0-1.44-.432-.42-.444-.42-1.524V44.84h-1.38v-.72h1.38v-2.28zm4.644.6v-1.32h.924v1.32zm0 7.68v-6.24h.924v6.24zm7.212-4.968q-.54-.672-1.488-.672t-1.5.672q-.54.66-.54 1.848t.54 1.86q.552.66 1.5.66t1.488-.66q.552-.672.552-1.86t-.552-1.848m.648 4.212q-.804.876-2.136.876t-2.136-.876-.804-2.364.804-2.364 2.136-.876 2.136.876.804 2.364-.804 2.364m2.184-5.484h.84l.012 1.116h.024q.36-.576.912-.9.564-.336 1.212-.336 1.056 0 1.56.66.516.648.516 2.064v3.636h-.864v-3.564q0-1.164-.336-1.608-.336-.456-1.152-.456-.696 0-1.272.696-.576.684-.576 1.596v3.336h-.876zm14.316-1.836q-1.584 0-2.532 1.008-.936.996-.936 2.688t.96 2.7q.972.996 2.508.996 1.248 0 2.316-.684l.324.72q-1.176.768-2.724.768-1.98 0-3.168-1.224t-1.188-3.276q0-2.076 1.176-3.288t3.18-1.212q1.548 0 2.724.768l-.324.72q-1.068-.684-2.316-.684m8.208 3.108q-.54-.672-1.488-.672t-1.5.672q-.54.66-.54 1.848t.54 1.86q.552.66 1.5.66t1.488-.66q.552-.672.552-1.86t-.552-1.848m.648 4.212q-.804.876-2.136.876t-2.136-.876T447.96 47t.804-2.364 2.136-.876 2.136.876.804 2.364-.804 2.364m3.3-4.224q-.492.648-.492 1.86t.504 1.872q.504.648 1.356.648.816 0 1.32-.636.516-.636.516-1.8v-.168q0-1.14-.516-1.788-.504-.648-1.32-.648-.876 0-1.368.66M454.98 47q0-1.572.672-2.4.672-.84 1.848-.84 1.356 0 2.016 1.14h.024v-3.78h.876v9h-.84l-.012-1.056h-.024q-.66 1.176-2.04 1.176-1.152 0-1.836-.84-.684-.852-.684-2.4m7.776.336q.024 1.02.624 1.608t1.56.588q.924 0 1.836-.48l.24.684q-1.008.504-2.16.504-1.344 0-2.172-.876T461.856 47q0-1.512.768-2.376.78-.864 2.112-.864 1.296 0 2.004.828.72.816.72 2.352 0 .156-.024.396zm0-.696h3.84q-.012-1.044-.504-1.608t-1.356-.564q-.9 0-1.428.576-.516.564-.552 1.596" aria-label="Exception Code" style="font-size:12px;font-family:&quot;M PLUS 1p&quot;,MPLUS1p-Regular,monospace;dominant-baseline:middle;text-anchor:end;fill:#e3e3e3"/><path stroke="#E3E3E3" d="M472 31h312M472 61h312M784 31v30"/><path d="M481.549 52.704h-2.21q-1.124-1.318-1.67-2.713-.538-1.394-.538-3.053 0-1.658.539-3.052.545-1.395 1.67-2.713h2.209v.17q-.475.428-.908.972-.428.54-.797 1.266-.352.697-.574 1.547-.217.85-.217 1.81 0 1.002.21 1.817.217.814.58 1.54.352.692.792 1.255.445.568.914.984zm14.127-11.139-2.35 8.725h-2.49l-1.565-5.684-1.523 5.684h-2.49l-2.35-8.725h2.35l1.342 6.006 1.605-6.006h2.244l1.53 6.006 1.406-6.006zm7.793 8.725h-6.293v-8.725h2.25v7.038h4.043zm6.246-6.053q0-.328-.135-.562t-.463-.37q-.228-.093-.533-.11-.305-.024-.709-.024h-.814v2.35h.691q.539 0 .902-.053.364-.053.61-.24.234-.182.34-.399.11-.223.11-.592m3.51 6.053h-2.748l-2.38-3.2h-1.036v3.2h-2.239v-8.725h3.774q.773 0 1.33.088.556.088 1.043.381.492.293.78.762.292.463.292 1.166 0 .967-.451 1.576-.445.61-1.277 1.014zm7.277 0h-6.293v-8.725h2.25v7.038h4.043zm5.63-3.352q0 1.659-.544 3.053-.54 1.395-1.664 2.713h-2.21v-.17q.47-.416.915-.978t.79-1.26q.364-.727.575-1.541.217-.815.217-1.817 0-.96-.223-1.81-.217-.85-.568-1.547-.37-.727-.803-1.266-.428-.544-.902-.972v-.17h2.209q1.125 1.318 1.664 2.713.545 1.394.545 3.052" aria-label="(WLRL)" style="font-weight:700;dominant-baseline:middle;fill:#e3e3e3"/><path d="M64.012 80.12v-7.608h-.024l-2.364 2.184-.372-.78 2.76-2.556h.96v8.76z" aria-label="1" style="font-size:12px;font-family:&quot;M PLUS 1p&quot;,MPLUS1p-Regular,monospace;dominant-baseline:middle;text-anchor:middle;fill:#e3e3e3"/><path d="M422.206 80.12v-8.76h.972l3.12 5.28h.024l3.12-5.28h1.008v8.76h-.96v-7.152h-.024l-2.712 4.548h-.888l-2.712-4.548h-.024v7.152zm10.98-8.76 2.184 3.648h.024l2.196-3.648h1.08l-2.688 4.32 2.748 4.44h-1.128l-2.232-3.768h-.024l-2.244 3.768h-1.092l2.748-4.44-2.688-4.32zm8.1 0v7.944h4.284v.816h-5.28v-8.76zm6.984.804v2.856h3.924v.768h-3.924v3.528h4.164v.804h-5.124v-8.76h5.124v.804zm6.084 7.956v-8.76h.996l4.56 7.2h.024v-7.2h.936v8.76h-.984l-4.56-7.2h-.024v7.2zm8.496-3.096v-.768h3.564v.768zm8.256 3.096v-7.608h-.024l-2.364 2.184-.372-.78 2.76-2.556h.96v8.76z" aria-label="MXLEN-1" style="font-size:12px;font-family:&quot;M PLUS 1p&quot;,MPLUS1p-Regular,monospace;dominant-baseline:middle;text-anchor:middle;fill:#e3e3e3"/></svg>