<svg xmlns="http://www.w3.org/2000/svg" xmlns:xlink="http://www.w3.org/1999/xlink" width="384" height="245"><defs><path id="c" d="M.957 0h5.988v-1.11H2.188v-8.753H.956Zm0 0"/><path id="d" d="M1.441-8.312a.744.744 0 0 0 .746-.747.74.74 0 0 0-.746-.746.74.74 0 0 0-.742.746c0 .41.332.746.742.746M.848 0h1.191v-7.11H.848Zm0 0"/><path id="e" d="M3.082.137c.234 0 .488-.028.637-.047v-.965c-.102.008-.239.027-.383.027-.637 0-.969-.21-.969-.972v-4.305H3.72v-.984H2.367v-1.922h-1.23v1.922H.097v.984h1.04v4.313c0 1.359.64 1.949 1.945 1.949m0 0"/><path id="f" d="M.773 0h1.188v-4.457c0-.992.684-1.738 1.629-1.738.883 0 1.457.57 1.457 1.43V0h1.187v-4.52c0-.968.664-1.675 1.606-1.675.937 0 1.476.582 1.476 1.558V0h1.192v-4.91c0-1.414-.91-2.336-2.317-2.336-1 0-1.832.512-2.23 1.367h-.027c-.309-.867-1.024-1.367-1.997-1.367-.914 0-1.624.473-1.949 1.176h-.027v-1.04H.773Zm0 0"/><path id="g" d="M3.2.137c1.081 0 1.804-.485 2.187-1.149h.027V0h1.191v-7.11h-1.19v4.184c0 1.211-.731 2.008-1.852 2.008-1.094 0-1.633-.633-1.633-1.789v-4.402H.738v4.613C.738-.875 1.641.137 3.2.137m0 0"/><path id="h" d="M3.297.137c1.586 0 2.762-.875 2.762-2.121v-.004c0-1.012-.52-1.582-1.957-1.93l-1.13-.273c-.784-.192-1.105-.528-1.105-1.012v-.008c0-.629.531-1.043 1.395-1.043.883 0 1.406.457 1.504 1.149l.007.046h1.133l-.008-.09C5.813-6.335 4.82-7.245 3.262-7.245c-1.54 0-2.614.867-2.614 2.09v.008c0 1.027.653 1.648 1.993 1.968l1.125.274c.808.199 1.074.484 1.074 1v.004c0 .644-.574 1.047-1.54 1.047-.968 0-1.495-.418-1.64-1.13l-.012-.066H.457l.008.063C.609-.718 1.62.137 3.297.137m0 0"/><path id="j" d="M3.7.137c1.55 0 2.714-.93 2.945-2.106l.015-.07H5.488l-.02.062c-.202.61-.84 1.059-1.741 1.059-1.266 0-2.07-.852-2.098-2.316h5.117v-.438c0-2.133-1.18-3.574-3.121-3.574s-3.2 1.512-3.2 3.71v.009C.426-1.293 1.657.137 3.7.137m-.083-6.332c1.04 0 1.805.652 1.922 2.03H1.65c.128-1.323.937-2.03 1.968-2.03m0 0"/><path id="k" d="M.957 0h1.23v-3.902h2.36L6.66 0h1.442L5.816-4.094c1.23-.39 1.985-1.449 1.985-2.816v-.016c0-1.777-1.246-2.937-3.145-2.937H.957Zm1.23-4.992V-8.77h2.305c1.266 0 2.035.696 2.035 1.872v.015c0 1.207-.715 1.89-1.98 1.89Zm0 0"/><path id="l" d="M4.184.164c2.257 0 3.644-1.11 3.644-2.86v-.003c0-1.504-.848-2.324-2.871-2.77l-1.094-.238c-1.285-.281-1.879-.79-1.879-1.594v-.008c0-.949.86-1.578 2.18-1.586 1.25 0 2.09.594 2.242 1.602l.012.094h1.23l-.003-.102c-.11-1.613-1.52-2.726-3.446-2.726-2.031 0-3.469 1.132-3.472 2.754v.007c0 1.442.902 2.309 2.828 2.735l1.093.238c1.356.3 1.922.785 1.922 1.652v.008c0 1.02-.894 1.66-2.316 1.66-1.43 0-2.387-.605-2.531-1.597l-.012-.098H.48l.003.098C.61-.883 2.051.164 4.184.164m0 0"/><path id="m" d="M2.996 0h1.16l2.297-7.902h.027L8.777 0h1.164l2.684-9.863H11.34L9.352-1.766h-.028L7.09-9.863H5.844L3.609-1.766h-.027L1.594-9.863H.309Zm0 0"/><path id="n" d="M3.242 2.395h.996c-.984-1.145-1.73-3.852-1.73-6.133 0-2.285.746-4.985 1.73-6.125h-.996C1.906-8.168 1.301-6.172 1.301-3.738c0 2.433.605 4.441 1.941 6.133m0 0"/><path id="o" d="M3.719.137c1.96 0 3.289-1.422 3.289-3.692v-.015c0-2.27-1.332-3.676-3.297-3.676C1.75-7.246.426-5.832.426-3.57v.015C.426-1.293 1.742.137 3.719.137m.008-1.055c-1.258 0-2.086-.96-2.086-2.637v-.015c0-1.66.836-2.625 2.07-2.625 1.258 0 2.078.957 2.078 2.625v.015c0 1.668-.812 2.637-2.062 2.637m0 0"/><path id="p" d="M3.719.137c1.605 0 2.777-1.047 2.969-2.399l.003-.05H5.523l-.011.054c-.2.793-.82 1.34-1.793 1.34-1.23 0-2.078-.977-2.078-2.629v-.008c0-1.613.828-2.64 2.066-2.64 1.043 0 1.617.629 1.797 1.34l.012.054H6.68l-.008-.054C6.523-6.07 5.477-7.246 3.707-7.246 1.73-7.246.426-5.812.426-3.57v.007c0 2.262 1.277 3.7 3.293 3.7m0 0"/><path id="q" d="M.773 2.395h1.188v-3.586h.027C2.434-.371 3.262.137 4.266.137c1.785 0 3-1.442 3-3.684v-.008c0-2.242-1.203-3.691-3.02-3.691-1.02 0-1.812.512-2.258 1.34h-.027V-7.11H.773ZM4.012-.918c-1.196 0-2.055-1.043-2.055-2.629v-.008c0-1.593.852-2.64 2.055-2.64 1.258 0 2.039 1.008 2.039 2.64v.008c0 1.617-.781 2.629-2.04 2.629m0 0"/><path id="r" d="M.773 0h1.188v-4.39c0-1.079.601-1.723 1.527-1.723.285 0 .54.035.633.07v-1.156c-.094-.012-.273-.047-.476-.047-.801 0-1.415.52-1.657 1.34h-.027V-7.11H.773Zm0 0"/><path id="s" d="M3.445.137c1.02 0 1.813-.512 2.258-1.34h.027V0h1.188v-9.863H5.73v3.941h-.027c-.445-.82-1.273-1.324-2.277-1.324-1.785 0-3 1.441-3 3.684v.007c0 2.243 1.203 3.692 3.02 3.692M3.68-.918c-1.258 0-2.04-1.004-2.04-2.637v-.007c0-1.622.782-2.633 2.04-2.633 1.195 0 2.054 1.047 2.054 2.633v.007c0 1.594-.851 2.637-2.054 2.637m0 0"/><path id="t" d="M1.273 2.395c1.332-1.692 1.942-3.7 1.942-6.133 0-2.434-.61-4.43-1.942-6.125h-1c.985 1.14 1.73 3.84 1.73 6.125 0 2.281-.745 4.988-1.73 6.133Zm0 0"/><path id="u" d="M1.504.098a.774.774 0 0 0 .781-.782.774.774 0 0 0-.781-.78.77.77 0 0 0-.777.78c0 .438.34.782.777.782m0 0"/><path id="v" d="M2.852.137c.949 0 1.804-.512 2.222-1.293h.028V0h1.187v-4.914c0-1.422-1.05-2.332-2.734-2.332-1.676 0-2.692.941-2.797 2.113l-.004.074h1.148l.012-.062c.137-.637.711-1.074 1.629-1.074.988 0 1.559.527 1.559 1.394v.598l-2.04.113C1.43-3.992.485-3.234.485-2.023v.011c0 1.293.954 2.149 2.368 2.149M1.703-2.012v-.011c0-.664.547-1.086 1.496-1.141l1.903-.117v.582c0 1.031-.864 1.804-1.985 1.804-.855 0-1.414-.433-1.414-1.117m0 0"/><path id="w" d="M1.504-5.195a.774.774 0 0 0 .781-.782.77.77 0 0 0-.781-.777.767.767 0 0 0-.777.777c0 .438.34.782.777.782m0 5.293a.774.774 0 0 0 .781-.782.774.774 0 0 0-.781-.78.77.77 0 0 0-.777.78c0 .438.34.782.777.782m0 0"/><path id="x" d="M.219 0h1.32l1.715-2.707h.027L4.984 0h1.32L3.938-3.602l2.399-3.507H5.012L3.324-4.445h-.027L1.586-7.11H.262L2.64-3.555Zm0 0"/><path id="y" d="M.848-5.14h6.77v-1.11H.847Zm0 3.382h6.77v-1.105H.847Zm0 0"/><path id="z" d="M3.316 0h1.188v-9.863H3.3L.676-7.977v1.235L3.289-8.56h.027Zm0 0"/><path id="A" d="M1.457 2.395c1.285 0 1.906-.59 2.414-1.95l2.774-7.554h-1.25l-1.97 5.918h-.027L1.438-7.11H.163L2.804.008 2.66.41c-.289.809-.703 1-1.457 1-.144 0-.281-.023-.383-.043v.973c.153.027.403.055.637.055m0 0"/><path id="B" d="M1.156 0h1.188v-6.125h1.449v-.984H2.332v-.868c0-.707.328-1.039.984-1.039.184 0 .368.004.512.028v-.965A5 5 0 0 0 3.105-10c-1.312 0-1.949.648-1.949 2.016v.875H.164v.984h.992Zm0 0"/><path id="C" d="M.773 0h1.188v-4.184c0-1.21.734-2.011 1.855-2.011 1.094 0 1.633.636 1.633 1.793V0h1.188v-4.613c0-1.621-.903-2.633-2.461-2.633-1.078 0-1.805.484-2.188 1.148h-.027v-1.011H.773Zm0 0"/><path id="D" d="M3.781 2.531c1.926 0 3.137-1.082 3.137-2.73v-6.91H5.73v1.203h-.027c-.437-.793-1.23-1.34-2.238-1.34-1.805 0-3.04 1.434-3.04 3.644v.004C.426-1.375 1.649.07 3.438.07c1.02 0 1.84-.508 2.266-1.293h.027v.907c0 1.101-.71 1.793-1.964 1.793-.97 0-1.645-.313-1.871-.829L1.867.59H.672l.012.058c.234 1.055 1.34 1.883 3.097 1.883M3.7-.984c-1.265 0-2.058-1-2.058-2.614v-.004c0-1.582.793-2.593 2.058-2.593 1.203 0 2.031 1.027 2.031 2.593v.004c0 1.582-.82 2.614-2.03 2.614m0 0"/><path id="E" d="M.621 0h5.305v-.984H2.004v-.02l3.902-5.238v-.867H.63v.984h3.926v.02L.62-.848Zm0 0"/><path id="F" d="M2.777 0h1.215l2.613-7.11H5.367L3.398-1.265h-.027l-1.96-5.843H.155Zm0 0"/><path id="G" d="M.836 0h1.187v-4.148c0-1.211.73-2.047 1.832-2.047 1.11 0 1.766.761 1.766 2.047V0H6.81v-4.355c0-1.723-1.032-2.891-2.543-2.891-1.059 0-1.832.473-2.215 1.27h-.028v-3.887H.836Zm0 0"/><path id="H" d="M.867 0H2.06v-2.68l.664-.636L5.359 0h1.383l-3.18-4.04 3.083-3.07H5.203L2.086-3.972h-.027v-5.89H.867Zm0 0"/><path id="I" d="M4.238.164c2.27 0 3.63-1.96 3.63-5.094v-.011c0-3.133-1.36-5.086-3.63-5.086S.621-8.074.621-4.941v.011C.621-1.797 1.97.164 4.238.164m0-1.074C2.734-.91 1.86-2.453 1.86-4.93v-.011c0-2.477.875-4.008 2.38-4.008 1.503 0 2.394 1.531 2.394 4.008v.011c0 2.477-.89 4.02-2.395 4.02m0 0"/></defs><path fill="none" stroke="#34C759" stroke-miterlimit="10" stroke-width="2" d="M54.5 25.117v26.867"/><path fill="none" stroke="#5856D6" stroke-miterlimit="10" stroke-width="2" d="M56.5 25.117v26.867"/><path fill="#34C759" stroke="#34C759" stroke-miterlimit="10" stroke-width="2" d="m59 51.941-3.5 10-3.5-10Zm0 0"/><path fill="none" stroke="#FF3B30" stroke-miterlimit="10" stroke-width="2" d="M83.266 64.93c21.812-9.817 52.472-23.61 76.824-34.57"/><path fill="#FF3B30" stroke="#FF3B30" stroke-miterlimit="10" stroke-width="2" d="m158.504 27.234 10.555-.91-7.68 7.293Zm0 0"/><path fill="none" stroke="#5856D6" stroke-miterlimit="10" stroke-width="2" d="M199.5 25.117v26.867"/><path fill="#5856D6" stroke="#5856D6" stroke-miterlimit="10" stroke-width="2" d="m203 51.941-3.5 10-3.5-10Zm0 0"/><path fill="none" stroke="#8E8E93" stroke-miterlimit="10" stroke-width="2" d="M199.5 89.918v26.867"/><path fill="#8E8E93" stroke="#8E8E93" stroke-miterlimit="10" stroke-width="2" d="m203 116.742-3.5 10-3.5-10Zm0 0"/><path fill="none" stroke="#5856D6" stroke-miterlimit="10" stroke-width="2" d="M199.5 154.719v26.867"/><path fill="#5856D6" stroke="#5856D6" stroke-miterlimit="10" stroke-width="2" d="m203 181.543-3.5 10-3.5-10Zm0 0"/><path fill="none" stroke="#FF9500" stroke-miterlimit="10" stroke-width="2" d="M187.457 194.676c-9.066-9.59-21.531-23.438-31.156-36.625-29.442-40.328-28.16-56.125-57.602-96.45-6.77-9.273-14.941-18.87-22.347-27.09"/><path fill="#FF9500" stroke="#FF9500" stroke-miterlimit="10" stroke-width="2" d="m73.809 36.918-4.211-9.723 9.355 4.973Zm0 0"/><path fill="none" stroke="#FF3B30" stroke-miterlimit="10" stroke-width="2" d="M303.77 100.887c-16.133-3.63-34.989-7.875-52.2-11.746"/><path fill="#FF3B30" stroke="#FF3B30" stroke-miterlimit="10" stroke-width="2" d="M251.043 92.61 242.055 87l10.523-1.219Zm0 0"/><path fill="none" stroke="#FF3B30" stroke-miterlimit="10" stroke-width="2" d="m303.77 118.766-52.2 11.742"/><path fill="#FF3B30" stroke="#FF3B30" stroke-miterlimit="10" stroke-width="2" d="m252.578 133.871-10.523-1.219 8.988-5.613Zm0 0"/><g fill="none" stroke="#FFF" stroke-linecap="round" stroke-linejoin="round" stroke-width="2"><use xlink:href="#c" x="79.25" y="236.949"/><use xlink:href="#d" x="86.75" y="236.949"/><use xlink:href="#e" x="89.75" y="236.949"/><use xlink:href="#f" x="94.25" y="236.949"/><use xlink:href="#g" x="105.5" y="236.949"/><use xlink:href="#h" x="113" y="236.949"/><use xlink:href="#i" x="119.75" y="236.949"/><use xlink:href="#e" x="122.75" y="236.949"/><use xlink:href="#j" x="126.5" y="236.949"/><use xlink:href="#h" x="134" y="236.949"/><use xlink:href="#e" x="140.75" y="236.949"/><use xlink:href="#i" x="145.25" y="236.949"/><use xlink:href="#k" x="148.25" y="236.949"/><use xlink:href="#l" x="156.5" y="236.949"/><use xlink:href="#m" x="164.75" y="236.949"/><use xlink:href="#i" x="177.5" y="236.949"/><use xlink:href="#n" x="180.5" y="236.949"/><use xlink:href="#o" x="185" y="236.949"/><use xlink:href="#g" x="192.5" y="236.949"/><use xlink:href="#e" x="200" y="236.949"/><use xlink:href="#p" x="203.75" y="236.949"/><use xlink:href="#o" x="210.5" y="236.949"/><use xlink:href="#f" x="218" y="236.949"/><use xlink:href="#j" x="229.25" y="236.949"/><use xlink:href="#i" x="236.75" y="236.949"/><use xlink:href="#q" x="239.75" y="236.949"/><use xlink:href="#j" x="247.25" y="236.949"/><use xlink:href="#r" x="254.75" y="236.949"/><use xlink:href="#f" x="259.25" y="236.949"/><use xlink:href="#d" x="270.5" y="236.949"/><use xlink:href="#e" x="273.5" y="236.949"/><use xlink:href="#e" x="278" y="236.949"/><use xlink:href="#j" x="281.75" y="236.949"/><use xlink:href="#s" x="289.25" y="236.949"/><use xlink:href="#t" x="296.75" y="236.949"/><use xlink:href="#u" x="301.25" y="236.949"/></g><g fill="#1C1E21"><use xlink:href="#c" x="79.25" y="236.949"/><use xlink:href="#d" x="86.75" y="236.949"/><use xlink:href="#e" x="89.75" y="236.949"/><use xlink:href="#f" x="94.25" y="236.949"/><use xlink:href="#g" x="105.5" y="236.949"/><use xlink:href="#h" x="113" y="236.949"/><use xlink:href="#i" x="119.75" y="236.949"/><use xlink:href="#e" x="122.75" y="236.949"/><use xlink:href="#j" x="126.5" y="236.949"/><use xlink:href="#h" x="134" y="236.949"/><use xlink:href="#e" x="140.75" y="236.949"/><use xlink:href="#i" x="145.25" y="236.949"/><use xlink:href="#k" x="148.25" y="236.949"/><use xlink:href="#l" x="156.5" y="236.949"/><use xlink:href="#m" x="164.75" y="236.949"/><use xlink:href="#i" x="177.5" y="236.949"/><use xlink:href="#n" x="180.5" y="236.949"/><use xlink:href="#o" x="185" y="236.949"/><use xlink:href="#g" x="192.5" y="236.949"/><use xlink:href="#e" x="200" y="236.949"/><use xlink:href="#p" x="203.75" y="236.949"/><use xlink:href="#o" x="210.5" y="236.949"/><use xlink:href="#f" x="218" y="236.949"/><use xlink:href="#j" x="229.25" y="236.949"/><use xlink:href="#i" x="236.75" y="236.949"/><use xlink:href="#q" x="239.75" y="236.949"/><use xlink:href="#j" x="247.25" y="236.949"/><use xlink:href="#r" x="254.75" y="236.949"/><use xlink:href="#f" x="259.25" y="236.949"/><use xlink:href="#d" x="270.5" y="236.949"/><use xlink:href="#e" x="273.5" y="236.949"/><use xlink:href="#e" x="278" y="236.949"/><use xlink:href="#j" x="281.75" y="236.949"/><use xlink:href="#s" x="289.25" y="236.949"/><use xlink:href="#t" x="296.75" y="236.949"/><use xlink:href="#u" x="301.25" y="236.949"/></g><g fill="none" stroke="#FFF" stroke-linecap="round" stroke-linejoin="round" stroke-width="2"><use xlink:href="#v" x="32.625" y="17.301"/><use xlink:href="#w" x="39.375" y="17.301"/><use xlink:href="#i" x="42.375" y="17.301"/><use xlink:href="#m" x="45.375" y="17.301"/><use xlink:href="#x" x="58.125" y="17.301"/><use xlink:href="#y" x="64.125" y="17.301"/><use xlink:href="#z" x="72.375" y="17.301"/></g><g fill="#1C1E21"><use xlink:href="#v" x="32.625" y="17.301"/><use xlink:href="#w" x="39.375" y="17.301"/><use xlink:href="#i" x="42.375" y="17.301"/><use xlink:href="#m" x="45.375" y="17.301"/><use xlink:href="#x" x="58.125" y="17.301"/><use xlink:href="#y" x="64.125" y="17.301"/><use xlink:href="#z" x="72.375" y="17.301"/></g><g fill="none" stroke="#FFF" stroke-linecap="round" stroke-linejoin="round" stroke-width="2"><use xlink:href="#p" x="32.25" y="82.102"/><use xlink:href="#w" x="39" y="82.102"/><use xlink:href="#i" x="42" y="82.102"/><use xlink:href="#m" x="45" y="82.102"/><use xlink:href="#A" x="57.75" y="82.102"/><use xlink:href="#y" x="64.5" y="82.102"/><use xlink:href="#z" x="72.75" y="82.102"/></g><g fill="#1C1E21"><use xlink:href="#p" x="32.25" y="82.102"/><use xlink:href="#w" x="39" y="82.102"/><use xlink:href="#i" x="42" y="82.102"/><use xlink:href="#m" x="45" y="82.102"/><use xlink:href="#A" x="57.75" y="82.102"/><use xlink:href="#y" x="64.5" y="82.102"/><use xlink:href="#z" x="72.75" y="82.102"/></g><g fill="none" stroke="#FFF" stroke-linecap="round" stroke-linejoin="round" stroke-width="2"><use xlink:href="#B" y="40.457"/><use xlink:href="#j" x="3.75" y="40.457"/><use xlink:href="#C" x="11.25" y="40.457"/><use xlink:href="#p" x="18.75" y="40.457"/><use xlink:href="#j" x="25.5" y="40.457"/></g><g fill="#34C759"><use xlink:href="#B" y="40.457"/><use xlink:href="#j" x="3.75" y="40.457"/><use xlink:href="#C" x="11.25" y="40.457"/><use xlink:href="#p" x="18.75" y="40.457"/><use xlink:href="#j" x="25.5" y="40.457"/></g><g fill="none" stroke="#FFF" stroke-linecap="round" stroke-linejoin="round" stroke-width="2"><use xlink:href="#q" x="33" y="40.457"/><use xlink:href="#q" x="40.5" y="40.457"/><use xlink:href="#o" x="48" y="40.457"/></g><g fill="#5856D6"><use xlink:href="#q" x="33" y="40.457"/><use xlink:href="#q" x="40.5" y="40.457"/><use xlink:href="#o" x="48" y="40.457"/></g><g fill="none" stroke="#FFF" stroke-linecap="round" stroke-linejoin="round" stroke-width="2"><use xlink:href="#s" x="178.125" y="17.301"/><use xlink:href="#w" x="185.625" y="17.301"/><use xlink:href="#i" x="188.625" y="17.301"/><use xlink:href="#k" x="191.625" y="17.301"/><use xlink:href="#A" x="199.875" y="17.301"/><use xlink:href="#y" x="206.625" y="17.301"/><use xlink:href="#z" x="214.875" y="17.301"/></g><g fill="#1C1E21"><use xlink:href="#s" x="178.125" y="17.301"/><use xlink:href="#w" x="185.625" y="17.301"/><use xlink:href="#i" x="188.625" y="17.301"/><use xlink:href="#k" x="191.625" y="17.301"/><use xlink:href="#A" x="199.875" y="17.301"/><use xlink:href="#y" x="206.625" y="17.301"/><use xlink:href="#z" x="214.875" y="17.301"/></g><g fill="none" stroke="#FFF" stroke-linecap="round" stroke-linejoin="round" stroke-width="2"><use xlink:href="#r" x="118.672" y="40.996"/><use xlink:href="#B" x="123.172" y="40.996"/></g><g fill="#FF3B30"><use xlink:href="#r" x="118.672" y="40.996"/><use xlink:href="#B" x="123.172" y="40.996"/></g><g fill="none" stroke="#FFF" stroke-linecap="round" stroke-linejoin="round" stroke-width="2"><use xlink:href="#D" x="178.125" y="82.102"/><use xlink:href="#w" x="185.625" y="82.102"/><use xlink:href="#i" x="188.625" y="82.102"/><use xlink:href="#k" x="191.625" y="82.102"/><use xlink:href="#E" x="199.875" y="82.102"/><use xlink:href="#y" x="205.875" y="82.102"/><use xlink:href="#F" x="214.125" y="82.102"/></g><g fill="#1C1E21"><use xlink:href="#D" x="178.125" y="82.102"/><use xlink:href="#w" x="185.625" y="82.102"/><use xlink:href="#i" x="188.625" y="82.102"/><use xlink:href="#k" x="191.625" y="82.102"/><use xlink:href="#E" x="199.875" y="82.102"/><use xlink:href="#y" x="205.875" y="82.102"/><use xlink:href="#F" x="214.125" y="82.102"/></g><g fill="none" stroke="#FFF" stroke-linecap="round" stroke-linejoin="round" stroke-width="2"><use xlink:href="#v" x="150.75" y="40.457"/><use xlink:href="#s" x="157.5" y="40.457"/><use xlink:href="#s" x="165" y="40.457"/><use xlink:href="#r" x="172.5" y="40.457"/></g><g fill="#5856D6"><use xlink:href="#v" x="150.75" y="40.457"/><use xlink:href="#s" x="157.5" y="40.457"/><use xlink:href="#s" x="165" y="40.457"/><use xlink:href="#r" x="172.5" y="40.457"/></g><g fill="none" stroke="#FFF" stroke-linecap="round" stroke-linejoin="round" stroke-width="2"><use xlink:href="#q" x="177" y="40.457"/><use xlink:href="#q" x="184.5" y="40.457"/><use xlink:href="#o" x="192" y="40.457"/></g><g fill="#5856D6"><use xlink:href="#q" x="177" y="40.457"/><use xlink:href="#q" x="184.5" y="40.457"/><use xlink:href="#o" x="192" y="40.457"/></g><g fill="none" stroke="#FFF" stroke-linecap="round" stroke-linejoin="round" stroke-width="2"><use xlink:href="#G" x="178.125" y="146.898"/><use xlink:href="#w" x="185.625" y="146.898"/><use xlink:href="#i" x="188.625" y="146.898"/><use xlink:href="#k" x="191.625" y="146.898"/><use xlink:href="#E" x="199.875" y="146.898"/><use xlink:href="#y" x="205.875" y="146.898"/><use xlink:href="#F" x="214.125" y="146.898"/></g><g fill="#1C1E21"><use xlink:href="#G" x="178.125" y="146.898"/><use xlink:href="#w" x="185.625" y="146.898"/><use xlink:href="#i" x="188.625" y="146.898"/><use xlink:href="#k" x="191.625" y="146.898"/><use xlink:href="#E" x="199.875" y="146.898"/><use xlink:href="#y" x="205.875" y="146.898"/><use xlink:href="#F" x="214.125" y="146.898"/></g><g fill="none" stroke="#FFF" stroke-linecap="round" stroke-linejoin="round" stroke-width="2"><use xlink:href="#q" x="184.5" y="106.258"/><use xlink:href="#o" x="192" y="106.258"/></g><g fill="#8E8E93"><use xlink:href="#q" x="184.5" y="106.258"/><use xlink:href="#o" x="192" y="106.258"/></g><g fill="none" stroke="#FFF" stroke-linecap="round" stroke-linejoin="round" stroke-width="2"><use xlink:href="#H" x="177.75" y="211.699"/><use xlink:href="#w" x="184.5" y="211.699"/><use xlink:href="#i" x="187.5" y="211.699"/><use xlink:href="#k" x="190.5" y="211.699"/><use xlink:href="#x" x="198.75" y="211.699"/><use xlink:href="#y" x="204.75" y="211.699"/><use xlink:href="#I" x="213" y="211.699"/></g><g fill="#1C1E21"><use xlink:href="#H" x="177.75" y="211.699"/><use xlink:href="#w" x="184.5" y="211.699"/><use xlink:href="#i" x="187.5" y="211.699"/><use xlink:href="#k" x="190.5" y="211.699"/><use xlink:href="#x" x="198.75" y="211.699"/><use xlink:href="#y" x="204.75" y="211.699"/><use xlink:href="#I" x="213" y="211.699"/></g><g fill="none" stroke="#FFF" stroke-linecap="round" stroke-linejoin="round" stroke-width="2"><use xlink:href="#v" x="150.75" y="170.059"/><use xlink:href="#s" x="157.5" y="170.059"/><use xlink:href="#s" x="165" y="170.059"/><use xlink:href="#r" x="172.5" y="170.059"/></g><g fill="#5856D6"><use xlink:href="#v" x="150.75" y="170.059"/><use xlink:href="#s" x="157.5" y="170.059"/><use xlink:href="#s" x="165" y="170.059"/><use xlink:href="#r" x="172.5" y="170.059"/></g><g fill="none" stroke="#FFF" stroke-linecap="round" stroke-linejoin="round" stroke-width="2"><use xlink:href="#q" x="177" y="170.059"/><use xlink:href="#q" x="184.5" y="170.059"/><use xlink:href="#o" x="192" y="170.059"/></g><g fill="#5856D6"><use xlink:href="#q" x="177" y="170.059"/><use xlink:href="#q" x="184.5" y="170.059"/><use xlink:href="#o" x="192" y="170.059"/></g><g fill="none" stroke="#FFF" stroke-linecap="round" stroke-linejoin="round" stroke-width="2"><use xlink:href="#B" x="118.5" y="105.875"/><use xlink:href="#r" x="123" y="105.875"/></g><g fill="#FF9500"><use xlink:href="#B" x="118.5" y="105.875"/><use xlink:href="#r" x="123" y="105.875"/></g><g fill="none" stroke="#FFF" stroke-linecap="round" stroke-linejoin="round" stroke-width="2"><use xlink:href="#i" x="325.125" y="114.5"/><use xlink:href="#m" x="328.125" y="114.5"/><use xlink:href="#E" x="340.875" y="114.5"/><use xlink:href="#y" x="346.875" y="114.5"/><use xlink:href="#F" x="355.125" y="114.5"/></g><g fill="#1C1E21"><use xlink:href="#i" x="325.125" y="114.5"/><use xlink:href="#m" x="328.125" y="114.5"/><use xlink:href="#E" x="340.875" y="114.5"/><use xlink:href="#y" x="346.875" y="114.5"/><use xlink:href="#F" x="355.125" y="114.5"/></g><g fill="none" stroke="#FFF" stroke-linecap="round" stroke-linejoin="round" stroke-width="2"><use xlink:href="#r" x="262.813" y="89.746"/><use xlink:href="#B" x="267.313" y="89.746"/></g><g fill="#FF3B30"><use xlink:href="#r" x="262.813" y="89.746"/><use xlink:href="#B" x="267.313" y="89.746"/></g><g fill="none" stroke="#FFF" stroke-linecap="round" stroke-linejoin="round" stroke-width="2"><use xlink:href="#r" x="262.813" y="122.004"/><use xlink:href="#B" x="267.313" y="122.004"/></g><g fill="#FF3B30"><use xlink:href="#r" x="262.813" y="122.004"/><use xlink:href="#B" x="267.313" y="122.004"/></g></svg>