<svg xmlns="http://www.w3.org/2000/svg" xmlns:xlink="http://www.w3.org/1999/xlink" width="654" height="340"><defs><path id="c" d="M3.453 0h1.23v-8.758h3.11v-1.105H.343v1.105h3.11Zm0 0"/><path id="d" d="M3.7.137c1.55 0 2.714-.93 2.945-2.106l.015-.07H5.488l-.02.062c-.202.61-.84 1.059-1.741 1.059-1.266 0-2.07-.852-2.098-2.316h5.117v-.438c0-2.133-1.18-3.574-3.121-3.574s-3.2 1.512-3.2 3.71v.009C.426-1.293 1.657.137 3.7.137m-.083-6.332c1.04 0 1.805.652 1.922 2.03H1.65c.128-1.323.937-2.03 1.968-2.03m0 0"/><path id="e" d="M3.297.137c1.586 0 2.762-.875 2.762-2.121v-.004c0-1.012-.52-1.582-1.957-1.93l-1.13-.273c-.784-.192-1.105-.528-1.105-1.012v-.008c0-.629.531-1.043 1.395-1.043.883 0 1.406.457 1.504 1.149l.007.046h1.133l-.008-.09C5.813-6.335 4.82-7.245 3.262-7.245c-1.54 0-2.614.867-2.614 2.09v.008c0 1.027.653 1.648 1.993 1.968l1.125.274c.808.199 1.074.484 1.074 1v.004c0 .644-.574 1.047-1.54 1.047-.968 0-1.495-.418-1.64-1.13l-.012-.066H.457l.008.063C.609-.718 1.62.137 3.297.137m0 0"/><path id="f" d="M3.082.137c.234 0 .488-.028.637-.047v-.965c-.102.008-.239.027-.383.027-.637 0-.969-.21-.969-.972v-4.305H3.72v-.984H2.367v-1.922h-1.23v1.922H.097v.984h1.04v4.313c0 1.359.64 1.949 1.945 1.949m0 0"/><path id="h" d="M.957 0h1.23v-9.863H.958Zm0 0"/><path id="i" d="M4.184.164c2.257 0 3.644-1.11 3.644-2.86v-.003c0-1.504-.848-2.324-2.871-2.77l-1.094-.238c-1.285-.281-1.879-.79-1.879-1.594v-.008c0-.949.86-1.578 2.18-1.586 1.25 0 2.09.594 2.242 1.602l.012.094h1.23l-.003-.102c-.11-1.613-1.52-2.726-3.446-2.726-2.031 0-3.469 1.132-3.472 2.754v.007c0 1.442.902 2.309 2.828 2.735l1.093.238c1.356.3 1.922.785 1.922 1.652v.008c0 1.02-.894 1.66-2.316 1.66-1.43 0-2.387-.605-2.531-1.597l-.012-.098H.48l.003.098C.61-.883 2.051.164 4.184.164m0 0"/><path id="j" d="M.172 0h1.293l.996-2.824h3.973L7.43 0h1.293L5.059-9.863H3.844Zm4.266-8.387h.027L6.063-3.87H2.836Zm0 0"/><path id="k" d="M4.238.164c2.27 0 3.63-1.96 3.63-5.094v-.011c0-3.133-1.36-5.086-3.63-5.086S.621-8.074.621-4.941v.011C.621-1.797 1.97.164 4.238.164m0-1.074C2.734-.91 1.86-2.453 1.86-4.93v-.011c0-2.477.875-4.008 2.38-4.008 1.503 0 2.394 1.531 2.394 4.008v.011c0 2.477-.89 4.02-2.395 4.02m0 0"/><path id="l" d="M4.121.164c1.977 0 3.426-1.219 3.426-2.863v-.016c0-1.402-.977-2.297-2.414-2.418v-.027c1.23-.262 2.094-1.094 2.094-2.313v-.011c0-1.5-1.239-2.543-3.118-2.543-1.847 0-3.117 1.07-3.273 2.68l-.008.066h1.184l.004-.067c.105-1 .93-1.613 2.093-1.613 1.204 0 1.88.594 1.88 1.625v.016c0 .984-.821 1.707-1.997 1.707H2.81v1.039h1.238c1.383 0 2.25.676 2.25 1.886v.016c0 1.043-.883 1.77-2.176 1.77-1.312 0-2.2-.672-2.3-1.641l-.008-.07H.629l.008.082C.766-.973 2.086.164 4.12.164m0 0"/><path id="m" d="M.766-3.445H3.68v2.828h1.105v-2.828h2.918v-1.11H4.785v-2.828H3.68v2.828H.766Zm0 0"/><path id="n" d="M.957 0h1.148v-7.621h.043L5.297 0h1.039l3.152-7.621h.043V0h1.149v-9.863H9.258L5.84-1.551h-.043L2.379-9.863H.957Zm0 0"/><path id="o" d="M.957 0h1.23v-3.52h2.286c1.851 0 3.164-1.308 3.164-3.18v-.015c0-1.87-1.313-3.148-3.164-3.148H.957Zm3.2-8.77c1.41 0 2.222.77 2.222 2.07v.013c0 1.3-.813 2.074-2.223 2.074H2.188V-8.77Zm0 0"/><path id="p" d="M.957 0h5.988v-1.11H2.188v-8.753H.956Zm0 0"/><path id="q" d="M.957 0H7.07v-1.11H2.188V-4.5h4.628v-1.094H2.188v-3.164H7.07v-1.105H.957Zm0 0"/><path id="r" d="M1.504-5.195a.774.774 0 0 0 .781-.782.77.77 0 0 0-.781-.777.767.767 0 0 0-.777.777c0 .438.34.782.777.782m0 5.293a.774.774 0 0 0 .781-.782.774.774 0 0 0-.781-.78.77.77 0 0 0-.777.78c0 .438.34.782.777.782m0 0"/><path id="s" d="M.957 0h1.23v-3.902h2.36L6.66 0h1.442L5.816-4.094c1.23-.39 1.985-1.449 1.985-2.816v-.016c0-1.777-1.246-2.937-3.145-2.937H.957Zm1.23-4.992V-8.77h2.305c1.266 0 2.035.696 2.035 1.872v.015c0 1.207-.715 1.89-1.98 1.89Zm0 0"/><path id="t" d="M5.73 2.395h1.188V-7.11H5.73v1.203h-.027c-.437-.785-1.23-1.328-2.238-1.328C1.66-7.234.425-5.79.425-3.57v.007C.426-1.328 1.649.126 3.438.126c1.02 0 1.84-.5 2.266-1.281h.027ZM3.7-.93c-1.266 0-2.06-1.004-2.06-2.632v-.008c0-1.59.794-2.61 2.06-2.61 1.202 0 2.03 1.032 2.03 2.61v.007C5.73-1.968 4.91-.93 3.7-.93m0 0"/><path id="u" d="M3.2.137c1.081 0 1.804-.485 2.187-1.149h.027V0h1.191v-7.11h-1.19v4.184c0 1.211-.731 2.008-1.852 2.008-1.094 0-1.633-.633-1.633-1.789v-4.402H.738v4.613C.738-.875 1.641.137 3.2.137m0 0"/><path id="v" d="M1.441-8.312a.744.744 0 0 0 .746-.747.74.74 0 0 0-.746-.746.74.74 0 0 0-.742.746c0 .41.332.746.742.746M.848 0h1.191v-7.11H.848Zm0 0"/><path id="w" d="M.773 0h1.188v-4.39c0-1.079.601-1.723 1.527-1.723.285 0 .54.035.633.07v-1.156c-.094-.012-.273-.047-.476-.047-.801 0-1.415.52-1.657 1.34h-.027V-7.11H.773Zm0 0"/><path id="x" d="M3.445.137c1.02 0 1.813-.512 2.258-1.34h.027V0h1.188v-9.863H5.73v3.941h-.027c-.445-.82-1.273-1.324-2.277-1.324-1.785 0-3 1.441-3 3.684v.007c0 2.243 1.203 3.692 3.02 3.692M3.68-.918c-1.258 0-2.04-1.004-2.04-2.637v-.007c0-1.622.782-2.633 2.04-2.633 1.195 0 2.054 1.047 2.054 2.633v.007c0 1.594-.851 2.637-2.054 2.637m0 0"/><path id="y" d="M3.242 2.395h.996c-.984-1.145-1.73-3.852-1.73-6.133 0-2.285.746-4.985 1.73-6.125h-.996C1.906-8.168 1.301-6.172 1.301-3.738c0 2.433.605 4.441 1.941 6.133m0 0"/><path id="z" d="M5.094.164c2.633 0 4.183-1.578 4.183-4.246v-.938H5.266v1.082h2.78v.176c0 1.657-1.202 2.79-2.952 2.79-2.012 0-3.262-1.532-3.262-4.012v-.008c0-2.434 1.23-3.903 3.262-3.903 1.386 0 2.343.72 2.8 1.97l.028.073h1.293L9.18-6.98c-.457-1.743-1.817-3.047-4.086-3.047-2.754 0-4.52 1.953-4.52 5.035v.008C.574-1.84 2.34.164 5.094.164m0 0"/><path id="A" d="M.773 0h1.188v-4.184c0-1.21.734-2.011 1.855-2.011 1.094 0 1.633.636 1.633 1.793V0h1.188v-4.613c0-1.621-.903-2.633-2.461-2.633-1.078 0-1.805.484-2.188 1.148h-.027v-1.011H.773Zm0 0"/><path id="B" d="M3.719.137c1.605 0 2.777-1.047 2.969-2.399l.003-.05H5.523l-.011.054c-.2.793-.82 1.34-1.793 1.34-1.23 0-2.078-.977-2.078-2.629v-.008c0-1.613.828-2.64 2.066-2.64 1.043 0 1.617.629 1.797 1.34l.012.054H6.68l-.008-.054C6.523-6.07 5.477-7.246 3.707-7.246 1.73-7.246.426-5.812.426-3.57v.007c0 2.262 1.277 3.7 3.293 3.7m0 0"/><path id="C" d="M3.809 0h1.214L8.66-9.863H7.371L4.43-1.477h-.028L1.465-9.863H.172Zm0 0"/><path id="D" d="M.773 2.395h1.188v-3.586h.027C2.434-.371 3.262.137 4.266.137c1.785 0 3-1.442 3-3.684v-.008c0-2.242-1.203-3.691-3.02-3.691-1.02 0-1.812.512-2.258 1.34h-.027V-7.11H.773ZM4.012-.918c-1.196 0-2.055-1.043-2.055-2.629v-.008c0-1.593.852-2.64 2.055-2.64 1.258 0 2.039 1.008 2.039 2.64v.008c0 1.617-.781 2.629-2.04 2.629m0 0"/><path id="E" d="M2.852.137c.949 0 1.804-.512 2.222-1.293h.028V0h1.187v-4.914c0-1.422-1.05-2.332-2.734-2.332-1.676 0-2.692.941-2.797 2.113l-.004.074h1.148l.012-.062c.137-.637.711-1.074 1.629-1.074.988 0 1.559.527 1.559 1.394v.598l-2.04.113C1.43-3.992.485-3.234.485-2.023v.011c0 1.293.954 2.149 2.368 2.149M1.703-2.012v-.011c0-.664.547-1.086 1.496-1.141l1.903-.117v.582c0 1.031-.864 1.804-1.985 1.804-.855 0-1.414-.433-1.414-1.117m0 0"/><path id="F" d="M.836 0h1.187v-9.863H.836Zm0 0"/><path id="G" d="M3.719.137c1.96 0 3.289-1.422 3.289-3.692v-.015c0-2.27-1.332-3.676-3.297-3.676C1.75-7.246.426-5.832.426-3.57v.015C.426-1.293 1.742.137 3.719.137m.008-1.055c-1.258 0-2.086-.96-2.086-2.637v-.015c0-1.66.836-2.625 2.07-2.625 1.258 0 2.078.957 2.078 2.625v.015c0 1.668-.812 2.637-2.062 2.637m0 0"/><path id="H" d="M.773 0h1.188v-4.457c0-.992.684-1.738 1.629-1.738.883 0 1.457.57 1.457 1.43V0h1.187v-4.52c0-.968.664-1.675 1.606-1.675.937 0 1.476.582 1.476 1.558V0h1.192v-4.91c0-1.414-.91-2.336-2.317-2.336-1 0-1.832.512-2.23 1.367h-.027c-.309-.867-1.024-1.367-1.997-1.367-.914 0-1.624.473-1.949 1.176h-.027v-1.04H.773Zm0 0"/><path id="I" d="M1.273 2.395c1.332-1.692 1.942-3.7 1.942-6.133 0-2.434-.61-4.43-1.942-6.125h-1c.985 1.14 1.73 3.84 1.73 6.125 0 2.281-.745 4.988-1.73 6.133Zm0 0"/><path id="J" d="M.836 0h1.187v-4.148c0-1.211.73-2.047 1.832-2.047 1.11 0 1.766.761 1.766 2.047V0H6.81v-4.355c0-1.723-1.032-2.891-2.543-2.891-1.059 0-1.832.473-2.215 1.27h-.028v-3.887H.836Zm0 0"/><path id="K" d="M2.996 0h1.16l2.297-7.902h.027L8.777 0h1.164l2.684-9.863H11.34L9.352-1.766h-.028L7.09-9.863H5.844L3.609-1.766h-.027L1.594-9.863H.309Zm0 0"/><path id="L" d="M2.387-5.45h.832l-.067-1.585 1.297.828.426-.645-1.437-.757 1.437-.75-.426-.645-1.297.828.067-1.578h-.832l.066 1.578-1.297-.828-.426.645 1.45.757-1.45.766.426.64 1.297-.824Zm0 0"/><path id="M" d="M1.41 2.395h2.965v-.926H2.559V-8.934h1.816v-.93H1.41Zm0 0"/><path id="N" d="M.867 0H2.06v-2.68l.664-.636L5.359 0h1.383l-3.18-4.04 3.083-3.07H5.203L2.086-3.972h-.027v-5.89H.867Zm0 0"/><path id="O" d="M3.105 2.395V-9.863H.137v.93h1.82V1.468H.137v.926Zm0 0"/><path id="P" d="M2.18 0h1.21l1.602-5.504h.028L6.625 0h1.21l1.981-7.11H8.641L7.219-1.327H7.19L5.578-7.11H4.43L2.824-1.33h-.027l-1.422-5.78H.191Zm0 0"/><path id="Q" d="M7.617-4.64.847-7.235v1.082l5.778 2.16L.848-1.824v1.05l6.77-2.59Zm0 0"/><path id="R" d="M3.316 0h1.188v-9.863H3.3L.676-7.977v1.235L3.289-8.56h.027Zm0 0"/><path id="S" d="M4.309.137c1.816 0 3.02-1.45 3.02-3.692v-.007c0-2.243-1.216-3.684-3-3.684-1.005 0-1.833.504-2.278 1.324h-.028v-3.941H.836V0h1.187v-1.203h.028c.445.828 1.238 1.34 2.258 1.34M4.074-.918c-1.203 0-2.058-1.043-2.058-2.637v-.007c0-1.586.863-2.633 2.058-2.633 1.258 0 2.04 1.011 2.04 2.633v.007c0 1.633-.782 2.637-2.04 2.637m0 0"/><path id="T" d="M.848-5.14h6.77v-1.11H.847Zm0 3.382h6.77v-1.105H.847Zm0 0"/><path id="U" d="M1.156 0h1.188v-6.125h1.449v-.984H2.332v-.868c0-.707.328-1.039.984-1.039.184 0 .368.004.512.028v-.965A5 5 0 0 0 3.105-10c-1.312 0-1.949.648-1.949 2.016v.875H.164v.984h.992Zm0 0"/><path id="V" d="M3.781 2.531c1.926 0 3.137-1.082 3.137-2.73v-6.91H5.73v1.203h-.027c-.437-.793-1.23-1.34-2.238-1.34-1.805 0-3.04 1.434-3.04 3.644v.004C.426-1.375 1.649.07 3.438.07c1.02 0 1.84-.508 2.266-1.293h.027v.907c0 1.101-.71 1.793-1.964 1.793-.97 0-1.645-.313-1.871-.829L1.867.59H.672l.012.058c.234 1.055 1.34 1.883 3.097 1.883M3.7-.984c-1.265 0-2.058-1-2.058-2.614v-.004c0-1.582.793-2.593 2.058-2.593 1.203 0 2.031 1.027 2.031 2.593v.004c0 1.582-.82 2.614-2.03 2.614m0 0"/><path id="W" d="M.8 0H7.31v-1.094h-4.82v-.027l2.343-2.406C6.645-5.38 7.145-6.195 7.145-7.273v-.016c0-1.543-1.305-2.738-3.09-2.738-1.84 0-3.317 1.261-3.317 2.972v.04H1.93v-.032c0-1.062.914-1.91 2.144-1.91 1.074 0 1.832.727 1.84 1.73v.016c0 .82-.309 1.352-1.64 2.738L.8-.848Zm0 0"/></defs><path fill="none" stroke="#5856D6" stroke-miterlimit="10" stroke-width="2" d="M147 71.027v43.633"/><path fill="#5856D6" stroke="#5856D6" stroke-miterlimit="10" stroke-width="2" d="m150.5 114.281-3.5 10-3.5-10Zm0 0"/><path fill="none" stroke="#007AFF" stroke-miterlimit="10" stroke-width="2" d="M157.46 72.277c10.977 12.137 26.673 32.094 32.833 52.22 14.855 47.187 14.855 64.269 0 111.456-4.727 15.379-15.094 30.805-24.54 42.516"/><path fill="none" stroke="#FF9500" stroke-miterlimit="10" stroke-width="2" d="M158.945 70.938c11.063 12.238 26.758 32.199 33.254 52.96 14.95 47.786 14.95 64.868 0 112.653-4.972 15.898-15.34 31.324-24.89 43.172"/><path fill="none" stroke="#FF3B30" stroke-miterlimit="10" stroke-width="2" d="M160.43 69.598c11.152 12.343 26.847 32.3 33.68 53.707 15.038 48.379 15.038 65.46 0 113.843-5.223 16.415-15.59 31.84-25.243 43.832"/><path fill="#007AFF" stroke="#007AFF" stroke-miterlimit="10" stroke-width="2" d="m170.07 281.883-9.16 5.328 3.836-9.875Zm0 0"/><path fill="none" stroke="#FF9500" stroke-miterlimit="10" stroke-width="2" d="M146 152.027v43.633"/><path fill="none" stroke="#5856D6" stroke-miterlimit="10" stroke-width="2" d="M148 152.027v43.633"/><path fill="#FF9500" stroke="#FF9500" stroke-miterlimit="10" stroke-width="2" d="m150.5 195.281-3.5 10-3.5-10Zm0 0"/><path fill="none" stroke="#FF9500" stroke-miterlimit="10" stroke-width="2" d="M188.648 149.098c65.301 14.691 191.774 43.148 264.106 59.422"/><path fill="#FF9500" stroke="#FF9500" stroke-miterlimit="10" stroke-width="2" d="m453.23 205.04 8.989 5.608-10.524 1.22Zm0 0"/><path fill="none" stroke="#5856D6" stroke-miterlimit="10" stroke-width="2" d="M147 233.027v43.633"/><path fill="#5856D6" stroke="#5856D6" stroke-miterlimit="10" stroke-width="2" d="m150.5 276.281-3.5 10-3.5-10Zm0 0"/><path fill="none" stroke="#FF3B30" stroke-miterlimit="10" stroke-width="2" d="M188.648 211.355c65.301-14.695 191.774-43.152 264.106-59.425"/><path fill="#FF3B30" stroke="#FF3B30" stroke-miterlimit="10" stroke-width="2" d="m451.695 148.582 10.524 1.219-8.989 5.61Zm0 0"/><path fill="none" stroke="#007AFF" stroke-miterlimit="10" stroke-width="2" d="M188.648 220.727h263.657"/><path fill="#007AFF" stroke="#007AFF" stroke-miterlimit="10" stroke-width="2" d="m452.145 217.227 10 3.5-10 3.5Zm0 0"/><path fill="none" stroke="#007AFF" stroke-miterlimit="10" stroke-width="2" d="M166.715 290.828c58.77-39.668 240.805-162.543 312.226-210.75"/><path fill="none" stroke="#FF9500" stroke-miterlimit="10" stroke-width="2" d="M165.598 289.172c58.765-39.668 240.804-162.543 312.222-210.75"/><path fill="none" stroke="#FF3B30" stroke-miterlimit="10" stroke-width="2" d="M164.477 287.516c58.77-39.668 240.808-162.543 312.226-210.754"/><path fill="#007AFF" stroke="#007AFF" stroke-miterlimit="10" stroke-width="2" d="m475.543 75.734 10.246-2.691-6.332 8.496Zm0 0"/><path fill="none" stroke="#5856D6" stroke-miterlimit="10" stroke-width="2" d="M507 71.027v43.633"/><path fill="#5856D6" stroke="#5856D6" stroke-miterlimit="10" stroke-width="2" d="m510.5 114.281-3.5 10-3.5-10Zm0 0"/><path fill="none" stroke="#007AFF" stroke-miterlimit="10" stroke-width="2" d="M517.46 72.277c10.977 12.137 26.673 32.094 32.833 52.22 14.855 47.187 14.855 64.269 0 111.456-4.727 15.379-15.094 30.805-24.54 42.516"/><path fill="none" stroke="#FF9500" stroke-miterlimit="10" stroke-width="2" d="M518.945 70.938c11.063 12.238 26.758 32.199 33.254 52.96 14.95 47.786 14.95 64.868 0 112.653-4.972 15.898-15.34 31.324-24.89 43.172"/><path fill="none" stroke="#FF3B30" stroke-miterlimit="10" stroke-width="2" d="M520.43 69.598c11.152 12.343 26.847 32.3 33.68 53.707 15.038 48.379 15.038 65.46 0 113.843-5.223 16.415-15.59 31.84-25.243 43.832"/><path fill="#007AFF" stroke="#007AFF" stroke-miterlimit="10" stroke-width="2" d="m530.07 281.883-9.16 5.328 3.836-9.875Zm0 0"/><path fill="none" stroke="#FF9500" stroke-miterlimit="10" stroke-width="2" d="M506 152.027v43.633"/><path fill="none" stroke="#5856D6" stroke-miterlimit="10" stroke-width="2" d="M508 152.027v43.633"/><path fill="#FF9500" stroke="#FF9500" stroke-miterlimit="10" stroke-width="2" d="m510.5 195.281-3.5 10-3.5-10Zm0 0"/><path fill="none" stroke="#5856D6" stroke-miterlimit="10" stroke-width="2" d="M507 233.027v43.633"/><path fill="#5856D6" stroke="#5856D6" stroke-miterlimit="10" stroke-width="2" d="m510.5 276.281-3.5 10-3.5-10Zm0 0"/><g fill="none" stroke="#FFF" stroke-linecap="round" stroke-linejoin="round" stroke-width="2"><use xlink:href="#c" x="129.75" y="331.648"/><use xlink:href="#d" x="135.75" y="331.648"/><use xlink:href="#e" x="143.25" y="331.648"/><use xlink:href="#f" x="150" y="331.648"/><use xlink:href="#g" x="154.5" y="331.648"/><use xlink:href="#h" x="157.5" y="331.648"/><use xlink:href="#i" x="160.5" y="331.648"/><use xlink:href="#j" x="168.75" y="331.648"/><use xlink:href="#k" x="177.75" y="331.648"/><use xlink:href="#l" x="186" y="331.648"/><use xlink:href="#m" x="194.25" y="331.648"/><use xlink:href="#i" x="202.5" y="331.648"/><use xlink:href="#h" x="210.75" y="331.648"/><use xlink:href="#n" x="213.75" y="331.648"/><use xlink:href="#o" x="225.75" y="331.648"/><use xlink:href="#p" x="234" y="331.648"/><use xlink:href="#q" x="241.5" y="331.648"/><use xlink:href="#r" x="249" y="331.648"/><use xlink:href="#g" x="252" y="331.648"/><use xlink:href="#s" x="255" y="331.648"/><use xlink:href="#d" x="263.25" y="331.648"/><use xlink:href="#t" x="270.75" y="331.648"/><use xlink:href="#u" x="278.25" y="331.648"/><use xlink:href="#v" x="285.75" y="331.648"/><use xlink:href="#w" x="288.75" y="331.648"/><use xlink:href="#d" x="292.5" y="331.648"/><use xlink:href="#x" x="300" y="331.648"/><use xlink:href="#g" x="307.5" y="331.648"/><use xlink:href="#y" x="310.5" y="331.648"/><use xlink:href="#z" x="315" y="331.648"/><use xlink:href="#d" x="324.75" y="331.648"/><use xlink:href="#A" x="332.25" y="331.648"/><use xlink:href="#d" x="339.75" y="331.648"/><use xlink:href="#w" x="347.25" y="331.648"/><use xlink:href="#v" x="351.75" y="331.648"/><use xlink:href="#B" x="354.75" y="331.648"/><use xlink:href="#y" x="361.5" y="331.648"/><use xlink:href="#s" x="366" y="331.648"/><use xlink:href="#v" x="374.25" y="331.648"/><use xlink:href="#e" x="377.25" y="331.648"/><use xlink:href="#B" x="384" y="331.648"/><use xlink:href="#g" x="390.75" y="331.648"/><use xlink:href="#C" x="393.75" y="331.648"/><use xlink:href="#g" x="402.75" y="331.648"/><use xlink:href="#D" x="405.75" y="331.648"/><use xlink:href="#E" x="413.25" y="331.648"/><use xlink:href="#w" x="420" y="331.648"/><use xlink:href="#f" x="424.5" y="331.648"/><use xlink:href="#v" x="429" y="331.648"/><use xlink:href="#E" x="432" y="331.648"/><use xlink:href="#F" x="438.75" y="331.648"/><use xlink:href="#g" x="441.75" y="331.648"/><use xlink:href="#G" x="444.75" y="331.648"/><use xlink:href="#w" x="452.25" y="331.648"/><use xlink:href="#x" x="456" y="331.648"/><use xlink:href="#d" x="463.5" y="331.648"/><use xlink:href="#w" x="471" y="331.648"/><use xlink:href="#g" x="475.5" y="331.648"/><use xlink:href="#H" x="478.5" y="331.648"/><use xlink:href="#G" x="489.75" y="331.648"/><use xlink:href="#x" x="497.25" y="331.648"/><use xlink:href="#d" x="504.75" y="331.648"/><use xlink:href="#F" x="512.25" y="331.648"/><use xlink:href="#I" x="515.25" y="331.648"/><use xlink:href="#I" x="519.75" y="331.648"/></g><g fill="#1C1E21"><use xlink:href="#c" x="129.75" y="331.648"/><use xlink:href="#d" x="135.75" y="331.648"/><use xlink:href="#e" x="143.25" y="331.648"/><use xlink:href="#f" x="150" y="331.648"/><use xlink:href="#g" x="154.5" y="331.648"/><use xlink:href="#h" x="157.5" y="331.648"/><use xlink:href="#i" x="160.5" y="331.648"/><use xlink:href="#j" x="168.75" y="331.648"/><use xlink:href="#k" x="177.75" y="331.648"/><use xlink:href="#l" x="186" y="331.648"/><use xlink:href="#m" x="194.25" y="331.648"/><use xlink:href="#i" x="202.5" y="331.648"/><use xlink:href="#h" x="210.75" y="331.648"/><use xlink:href="#n" x="213.75" y="331.648"/><use xlink:href="#o" x="225.75" y="331.648"/><use xlink:href="#p" x="234" y="331.648"/><use xlink:href="#q" x="241.5" y="331.648"/><use xlink:href="#r" x="249" y="331.648"/><use xlink:href="#g" x="252" y="331.648"/><use xlink:href="#s" x="255" y="331.648"/><use xlink:href="#d" x="263.25" y="331.648"/><use xlink:href="#t" x="270.75" y="331.648"/><use xlink:href="#u" x="278.25" y="331.648"/><use xlink:href="#v" x="285.75" y="331.648"/><use xlink:href="#w" x="288.75" y="331.648"/><use xlink:href="#d" x="292.5" y="331.648"/><use xlink:href="#x" x="300" y="331.648"/><use xlink:href="#g" x="307.5" y="331.648"/><use xlink:href="#y" x="310.5" y="331.648"/><use xlink:href="#z" x="315" y="331.648"/><use xlink:href="#d" x="324.75" y="331.648"/><use xlink:href="#A" x="332.25" y="331.648"/><use xlink:href="#d" x="339.75" y="331.648"/><use xlink:href="#w" x="347.25" y="331.648"/><use xlink:href="#v" x="351.75" y="331.648"/><use xlink:href="#B" x="354.75" y="331.648"/><use xlink:href="#y" x="361.5" y="331.648"/><use xlink:href="#s" x="366" y="331.648"/><use xlink:href="#v" x="374.25" y="331.648"/><use xlink:href="#e" x="377.25" y="331.648"/><use xlink:href="#B" x="384" y="331.648"/><use xlink:href="#g" x="390.75" y="331.648"/><use xlink:href="#C" x="393.75" y="331.648"/><use xlink:href="#g" x="402.75" y="331.648"/><use xlink:href="#D" x="405.75" y="331.648"/><use xlink:href="#E" x="413.25" y="331.648"/><use xlink:href="#w" x="420" y="331.648"/><use xlink:href="#f" x="424.5" y="331.648"/><use xlink:href="#v" x="429" y="331.648"/><use xlink:href="#E" x="432" y="331.648"/><use xlink:href="#F" x="438.75" y="331.648"/><use xlink:href="#g" x="441.75" y="331.648"/><use xlink:href="#G" x="444.75" y="331.648"/><use xlink:href="#w" x="452.25" y="331.648"/><use xlink:href="#x" x="456" y="331.648"/><use xlink:href="#d" x="463.5" y="331.648"/><use xlink:href="#w" x="471" y="331.648"/><use xlink:href="#g" x="475.5" y="331.648"/><use xlink:href="#H" x="478.5" y="331.648"/><use xlink:href="#G" x="489.75" y="331.648"/><use xlink:href="#x" x="497.25" y="331.648"/><use xlink:href="#d" x="504.75" y="331.648"/><use xlink:href="#F" x="512.25" y="331.648"/><use xlink:href="#I" x="515.25" y="331.648"/><use xlink:href="#I" x="519.75" y="331.648"/></g><g fill="none" stroke="#FFF" stroke-linecap="round" stroke-linejoin="round" stroke-width="2"><use xlink:href="#c" x="120.75" y="14.801"/><use xlink:href="#J" x="129" y="14.801"/><use xlink:href="#w" x="136.5" y="14.801"/><use xlink:href="#d" x="140.25" y="14.801"/><use xlink:href="#E" x="147.75" y="14.801"/><use xlink:href="#x" x="154.5" y="14.801"/><use xlink:href="#g" x="162" y="14.801"/><use xlink:href="#k" x="165" y="14.801"/></g><g fill="#1C1E21"><use xlink:href="#c" x="120.75" y="14.801"/><use xlink:href="#J" x="129" y="14.801"/><use xlink:href="#w" x="136.5" y="14.801"/><use xlink:href="#d" x="140.25" y="14.801"/><use xlink:href="#E" x="147.75" y="14.801"/><use xlink:href="#x" x="154.5" y="14.801"/><use xlink:href="#g" x="162" y="14.801"/><use xlink:href="#k" x="165" y="14.801"/></g><g fill="none" stroke="#FFF" stroke-linecap="round" stroke-linejoin="round" stroke-width="2"><use xlink:href="#E" x="68.25" y="63.398"/><use xlink:href="#r" x="75" y="63.398"/><use xlink:href="#g" x="78" y="63.398"/><use xlink:href="#s" x="81" y="63.398"/><use xlink:href="#n" x="89.25" y="63.398"/><use xlink:href="#K" x="101.25" y="63.398"/><use xlink:href="#y" x="114" y="63.398"/><use xlink:href="#j" x="118.5" y="63.398"/><use xlink:href="#B" x="127.5" y="63.398"/><use xlink:href="#t" x="134.25" y="63.398"/><use xlink:href="#L" x="141.75" y="63.398"/><use xlink:href="#I" x="147" y="63.398"/><use xlink:href="#M" x="151.5" y="63.398"/><use xlink:href="#F" x="156" y="63.398"/><use xlink:href="#G" x="159" y="63.398"/><use xlink:href="#B" x="166.5" y="63.398"/><use xlink:href="#N" x="173.25" y="63.398"/><use xlink:href="#O" x="180" y="63.398"/><use xlink:href="#P" x="184.5" y="63.398"/><use xlink:href="#y" x="194.25" y="63.398"/><use xlink:href="#k" x="198.75" y="63.398"/><use xlink:href="#Q" x="207" y="63.398"/><use xlink:href="#R" x="215.25" y="63.398"/><use xlink:href="#I" x="221.25" y="63.398"/></g><g fill="#1C1E21"><use xlink:href="#E" x="68.25" y="63.398"/><use xlink:href="#r" x="75" y="63.398"/><use xlink:href="#g" x="78" y="63.398"/><use xlink:href="#s" x="81" y="63.398"/><use xlink:href="#n" x="89.25" y="63.398"/><use xlink:href="#K" x="101.25" y="63.398"/><use xlink:href="#y" x="114" y="63.398"/><use xlink:href="#j" x="118.5" y="63.398"/><use xlink:href="#B" x="127.5" y="63.398"/><use xlink:href="#t" x="134.25" y="63.398"/><use xlink:href="#L" x="141.75" y="63.398"/><use xlink:href="#I" x="147" y="63.398"/><use xlink:href="#M" x="151.5" y="63.398"/><use xlink:href="#F" x="156" y="63.398"/><use xlink:href="#G" x="159" y="63.398"/><use xlink:href="#B" x="166.5" y="63.398"/><use xlink:href="#N" x="173.25" y="63.398"/><use xlink:href="#O" x="180" y="63.398"/><use xlink:href="#P" x="184.5" y="63.398"/><use xlink:href="#y" x="194.25" y="63.398"/><use xlink:href="#k" x="198.75" y="63.398"/><use xlink:href="#Q" x="207" y="63.398"/><use xlink:href="#R" x="215.25" y="63.398"/><use xlink:href="#I" x="221.25" y="63.398"/></g><g fill="none" stroke="#FFF" stroke-linecap="round" stroke-linejoin="round" stroke-width="2"><use xlink:href="#S" x="120" y="144.398"/><use xlink:href="#r" x="127.5" y="144.398"/><use xlink:href="#g" x="130.5" y="144.398"/><use xlink:href="#s" x="133.5" y="144.398"/><use xlink:href="#M" x="141.75" y="144.398"/><use xlink:href="#E" x="146.25" y="144.398"/><use xlink:href="#O" x="153" y="144.398"/><use xlink:href="#T" x="157.5" y="144.398"/><use xlink:href="#k" x="165.75" y="144.398"/></g><g fill="#1C1E21"><use xlink:href="#S" x="120" y="144.398"/><use xlink:href="#r" x="127.5" y="144.398"/><use xlink:href="#g" x="130.5" y="144.398"/><use xlink:href="#s" x="133.5" y="144.398"/><use xlink:href="#M" x="141.75" y="144.398"/><use xlink:href="#E" x="146.25" y="144.398"/><use xlink:href="#O" x="153" y="144.398"/><use xlink:href="#T" x="157.5" y="144.398"/><use xlink:href="#k" x="165.75" y="144.398"/></g><g fill="none" stroke="#FFF" stroke-linecap="round" stroke-linejoin="round" stroke-width="2"><use xlink:href="#D" x="124.5" y="95.395"/><use xlink:href="#D" x="132" y="95.395"/><use xlink:href="#G" x="139.5" y="95.395"/></g><g fill="#5856D6"><use xlink:href="#D" x="124.5" y="95.395"/><use xlink:href="#D" x="132" y="95.395"/><use xlink:href="#G" x="139.5" y="95.395"/></g><g fill="none" stroke="#FFF" stroke-linecap="round" stroke-linejoin="round" stroke-width="2"><use xlink:href="#x" x="70.125" y="306.398"/><use xlink:href="#r" x="77.625" y="306.398"/><use xlink:href="#g" x="80.625" y="306.398"/><use xlink:href="#s" x="83.625" y="306.398"/><use xlink:href="#n" x="91.875" y="306.398"/><use xlink:href="#K" x="103.875" y="306.398"/><use xlink:href="#y" x="116.625" y="306.398"/><use xlink:href="#s" x="121.125" y="306.398"/><use xlink:href="#d" x="129.375" y="306.398"/><use xlink:href="#F" x="136.875" y="306.398"/><use xlink:href="#L" x="139.875" y="306.398"/><use xlink:href="#I" x="145.125" y="306.398"/><use xlink:href="#M" x="149.625" y="306.398"/><use xlink:href="#F" x="154.125" y="306.398"/><use xlink:href="#G" x="157.125" y="306.398"/><use xlink:href="#B" x="164.625" y="306.398"/><use xlink:href="#N" x="171.375" y="306.398"/><use xlink:href="#O" x="178.125" y="306.398"/><use xlink:href="#P" x="182.625" y="306.398"/><use xlink:href="#y" x="192.375" y="306.398"/><use xlink:href="#R" x="196.875" y="306.398"/><use xlink:href="#Q" x="202.875" y="306.398"/><use xlink:href="#k" x="211.125" y="306.398"/><use xlink:href="#I" x="219.375" y="306.398"/></g><g fill="#1C1E21"><use xlink:href="#x" x="70.125" y="306.398"/><use xlink:href="#r" x="77.625" y="306.398"/><use xlink:href="#g" x="80.625" y="306.398"/><use xlink:href="#s" x="83.625" y="306.398"/><use xlink:href="#n" x="91.875" y="306.398"/><use xlink:href="#K" x="103.875" y="306.398"/><use xlink:href="#y" x="116.625" y="306.398"/><use xlink:href="#s" x="121.125" y="306.398"/><use xlink:href="#d" x="129.375" y="306.398"/><use xlink:href="#F" x="136.875" y="306.398"/><use xlink:href="#L" x="139.875" y="306.398"/><use xlink:href="#I" x="145.125" y="306.398"/><use xlink:href="#M" x="149.625" y="306.398"/><use xlink:href="#F" x="154.125" y="306.398"/><use xlink:href="#G" x="157.125" y="306.398"/><use xlink:href="#B" x="164.625" y="306.398"/><use xlink:href="#N" x="171.375" y="306.398"/><use xlink:href="#O" x="178.125" y="306.398"/><use xlink:href="#P" x="182.625" y="306.398"/><use xlink:href="#y" x="192.375" y="306.398"/><use xlink:href="#R" x="196.875" y="306.398"/><use xlink:href="#Q" x="202.875" y="306.398"/><use xlink:href="#k" x="211.125" y="306.398"/><use xlink:href="#I" x="219.375" y="306.398"/></g><g fill="none" stroke="#FFF" stroke-linecap="round" stroke-linejoin="round" stroke-width="2"><use xlink:href="#B" x="171.16" y="175.273"/><use xlink:href="#G" x="177.91" y="175.273"/></g><g fill="#007AFF"><use xlink:href="#B" x="171.16" y="175.273"/><use xlink:href="#G" x="177.91" y="175.273"/></g><g fill="none" stroke="#FFF" stroke-linecap="round" stroke-linejoin="round" stroke-width="2"><use xlink:href="#U" x="185.41" y="175.273"/><use xlink:href="#w" x="189.91" y="175.273"/></g><g fill="#FF9500"><use xlink:href="#U" x="185.41" y="175.273"/><use xlink:href="#w" x="189.91" y="175.273"/></g><g fill="none" stroke="#FFF" stroke-linecap="round" stroke-linejoin="round" stroke-width="2"><use xlink:href="#w" x="194.41" y="175.273"/><use xlink:href="#U" x="198.91" y="175.273"/></g><g fill="#FF3B30"><use xlink:href="#w" x="194.41" y="175.273"/><use xlink:href="#U" x="198.91" y="175.273"/></g><g fill="none" stroke="#FFF" stroke-linecap="round" stroke-linejoin="round" stroke-width="2"><use xlink:href="#B" x="119.25" y="225.398"/><use xlink:href="#r" x="126" y="225.398"/><use xlink:href="#g" x="129" y="225.398"/><use xlink:href="#K" x="132" y="225.398"/><use xlink:href="#M" x="144.75" y="225.398"/><use xlink:href="#E" x="149.25" y="225.398"/><use xlink:href="#O" x="156" y="225.398"/><use xlink:href="#T" x="160.5" y="225.398"/><use xlink:href="#R" x="168.75" y="225.398"/></g><g fill="#1C1E21"><use xlink:href="#B" x="119.25" y="225.398"/><use xlink:href="#r" x="126" y="225.398"/><use xlink:href="#g" x="129" y="225.398"/><use xlink:href="#K" x="132" y="225.398"/><use xlink:href="#M" x="144.75" y="225.398"/><use xlink:href="#E" x="149.25" y="225.398"/><use xlink:href="#O" x="156" y="225.398"/><use xlink:href="#T" x="160.5" y="225.398"/><use xlink:href="#R" x="168.75" y="225.398"/></g><g fill="none" stroke="#FFF" stroke-linecap="round" stroke-linejoin="round" stroke-width="2"><use xlink:href="#x" x="90.75" y="175.395"/><use xlink:href="#E" x="98.25" y="175.395"/><use xlink:href="#f" x="105" y="175.395"/><use xlink:href="#E" x="108.75" y="175.395"/></g><g fill="#5856D6"><use xlink:href="#x" x="90.75" y="175.395"/><use xlink:href="#E" x="98.25" y="175.395"/><use xlink:href="#f" x="105" y="175.395"/><use xlink:href="#E" x="108.75" y="175.395"/></g><g fill="none" stroke="#FFF" stroke-linecap="round" stroke-linejoin="round" stroke-width="2"><use xlink:href="#U" x="115.5" y="175.395"/><use xlink:href="#w" x="120" y="175.395"/></g><g fill="#FF9500"><use xlink:href="#U" x="115.5" y="175.395"/><use xlink:href="#w" x="120" y="175.395"/></g><g fill="none" stroke="#FFF" stroke-linecap="round" stroke-linejoin="round" stroke-width="2"><use xlink:href="#D" x="124.5" y="175.395"/><use xlink:href="#D" x="132" y="175.395"/><use xlink:href="#G" x="139.5" y="175.395"/></g><g fill="#5856D6"><use xlink:href="#D" x="124.5" y="175.395"/><use xlink:href="#D" x="132" y="175.395"/><use xlink:href="#G" x="139.5" y="175.395"/></g><g fill="none" stroke="#FFF" stroke-linecap="round" stroke-linejoin="round" stroke-width="2"><use xlink:href="#V" x="477.75" y="225.398"/><use xlink:href="#r" x="485.25" y="225.398"/><use xlink:href="#g" x="488.25" y="225.398"/><use xlink:href="#K" x="491.25" y="225.398"/><use xlink:href="#M" x="504" y="225.398"/><use xlink:href="#E" x="508.5" y="225.398"/><use xlink:href="#O" x="515.25" y="225.398"/><use xlink:href="#T" x="519.75" y="225.398"/><use xlink:href="#W" x="528" y="225.398"/></g><g fill="#1C1E21"><use xlink:href="#V" x="477.75" y="225.398"/><use xlink:href="#r" x="485.25" y="225.398"/><use xlink:href="#g" x="488.25" y="225.398"/><use xlink:href="#K" x="491.25" y="225.398"/><use xlink:href="#M" x="504" y="225.398"/><use xlink:href="#E" x="508.5" y="225.398"/><use xlink:href="#O" x="515.25" y="225.398"/><use xlink:href="#T" x="519.75" y="225.398"/><use xlink:href="#W" x="528" y="225.398"/></g><g fill="none" stroke="#FFF" stroke-linecap="round" stroke-linejoin="round" stroke-width="2"><use xlink:href="#U" x="317.652" y="176.195"/><use xlink:href="#w" x="322.152" y="176.195"/></g><g fill="#FF9500"><use xlink:href="#U" x="317.652" y="176.195"/><use xlink:href="#w" x="322.152" y="176.195"/></g><g fill="none" stroke="#FFF" stroke-linecap="round" stroke-linejoin="round" stroke-width="2"><use xlink:href="#D" x="124.5" y="257.395"/><use xlink:href="#D" x="132" y="257.395"/><use xlink:href="#G" x="139.5" y="257.395"/></g><g fill="#5856D6"><use xlink:href="#D" x="124.5" y="257.395"/><use xlink:href="#D" x="132" y="257.395"/><use xlink:href="#G" x="139.5" y="257.395"/></g><g fill="none" stroke="#FFF" stroke-linecap="round" stroke-linejoin="round" stroke-width="2"><use xlink:href="#U" x="482.625" y="144.398"/><use xlink:href="#r" x="487.125" y="144.398"/><use xlink:href="#g" x="490.125" y="144.398"/><use xlink:href="#s" x="493.125" y="144.398"/><use xlink:href="#M" x="501.375" y="144.398"/><use xlink:href="#E" x="505.875" y="144.398"/><use xlink:href="#O" x="512.625" y="144.398"/><use xlink:href="#T" x="517.125" y="144.398"/><use xlink:href="#R" x="525.375" y="144.398"/></g><g fill="#1C1E21"><use xlink:href="#U" x="482.625" y="144.398"/><use xlink:href="#r" x="487.125" y="144.398"/><use xlink:href="#g" x="490.125" y="144.398"/><use xlink:href="#s" x="493.125" y="144.398"/><use xlink:href="#M" x="501.375" y="144.398"/><use xlink:href="#E" x="505.875" y="144.398"/><use xlink:href="#O" x="512.625" y="144.398"/><use xlink:href="#T" x="517.125" y="144.398"/><use xlink:href="#R" x="525.375" y="144.398"/></g><g fill="none" stroke="#FFF" stroke-linecap="round" stroke-linejoin="round" stroke-width="2"><use xlink:href="#w" x="317.652" y="193.602"/><use xlink:href="#U" x="322.152" y="193.602"/></g><g fill="#FF3B30"><use xlink:href="#w" x="317.652" y="193.602"/><use xlink:href="#U" x="322.152" y="193.602"/></g><g fill="none" stroke="#FFF" stroke-linecap="round" stroke-linejoin="round" stroke-width="2"><use xlink:href="#B" x="312.652" y="216.773"/><use xlink:href="#G" x="319.402" y="216.773"/></g><g fill="#007AFF"><use xlink:href="#B" x="312.652" y="216.773"/><use xlink:href="#G" x="319.402" y="216.773"/></g><g fill="none" stroke="#FFF" stroke-linecap="round" stroke-linejoin="round" stroke-width="2"><use xlink:href="#d" x="427.875" y="63.398"/><use xlink:href="#r" x="435.375" y="63.398"/><use xlink:href="#g" x="438.375" y="63.398"/><use xlink:href="#s" x="441.375" y="63.398"/><use xlink:href="#n" x="449.625" y="63.398"/><use xlink:href="#K" x="461.625" y="63.398"/><use xlink:href="#y" x="474.375" y="63.398"/><use xlink:href="#j" x="478.875" y="63.398"/><use xlink:href="#B" x="487.875" y="63.398"/><use xlink:href="#t" x="494.625" y="63.398"/><use xlink:href="#L" x="502.125" y="63.398"/><use xlink:href="#I" x="507.375" y="63.398"/><use xlink:href="#M" x="511.875" y="63.398"/><use xlink:href="#F" x="516.375" y="63.398"/><use xlink:href="#G" x="519.375" y="63.398"/><use xlink:href="#B" x="526.875" y="63.398"/><use xlink:href="#N" x="533.625" y="63.398"/><use xlink:href="#O" x="540.375" y="63.398"/><use xlink:href="#P" x="544.875" y="63.398"/><use xlink:href="#y" x="554.625" y="63.398"/><use xlink:href="#k" x="559.125" y="63.398"/><use xlink:href="#Q" x="567.375" y="63.398"/><use xlink:href="#R" x="575.625" y="63.398"/><use xlink:href="#I" x="581.625" y="63.398"/></g><g fill="#1C1E21"><use xlink:href="#d" x="427.875" y="63.398"/><use xlink:href="#r" x="435.375" y="63.398"/><use xlink:href="#g" x="438.375" y="63.398"/><use xlink:href="#s" x="441.375" y="63.398"/><use xlink:href="#n" x="449.625" y="63.398"/><use xlink:href="#K" x="461.625" y="63.398"/><use xlink:href="#y" x="474.375" y="63.398"/><use xlink:href="#j" x="478.875" y="63.398"/><use xlink:href="#B" x="487.875" y="63.398"/><use xlink:href="#t" x="494.625" y="63.398"/><use xlink:href="#L" x="502.125" y="63.398"/><use xlink:href="#I" x="507.375" y="63.398"/><use xlink:href="#M" x="511.875" y="63.398"/><use xlink:href="#F" x="516.375" y="63.398"/><use xlink:href="#G" x="519.375" y="63.398"/><use xlink:href="#B" x="526.875" y="63.398"/><use xlink:href="#N" x="533.625" y="63.398"/><use xlink:href="#O" x="540.375" y="63.398"/><use xlink:href="#P" x="544.875" y="63.398"/><use xlink:href="#y" x="554.625" y="63.398"/><use xlink:href="#k" x="559.125" y="63.398"/><use xlink:href="#Q" x="567.375" y="63.398"/><use xlink:href="#R" x="575.625" y="63.398"/><use xlink:href="#I" x="581.625" y="63.398"/></g><g fill="none" stroke="#FFF" stroke-linecap="round" stroke-linejoin="round" stroke-width="2"><use xlink:href="#B" x="326.75" y="175.445"/><use xlink:href="#G" x="333.5" y="175.445"/></g><g fill="#007AFF"><use xlink:href="#B" x="326.75" y="175.445"/><use xlink:href="#G" x="333.5" y="175.445"/></g><g fill="none" stroke="#FFF" stroke-linecap="round" stroke-linejoin="round" stroke-width="2"><use xlink:href="#U" x="341" y="175.445"/><use xlink:href="#w" x="345.5" y="175.445"/></g><g fill="#FF9500"><use xlink:href="#U" x="341" y="175.445"/><use xlink:href="#w" x="345.5" y="175.445"/></g><g fill="none" stroke="#FFF" stroke-linecap="round" stroke-linejoin="round" stroke-width="2"><use xlink:href="#w" x="350" y="175.445"/><use xlink:href="#U" x="354.5" y="175.445"/></g><g fill="#FF3B30"><use xlink:href="#w" x="350" y="175.445"/><use xlink:href="#U" x="354.5" y="175.445"/></g><g fill="none" stroke="#FFF" stroke-linecap="round" stroke-linejoin="round" stroke-width="2"><use xlink:href="#c" x="481.875" y="14.801"/><use xlink:href="#J" x="490.125" y="14.801"/><use xlink:href="#w" x="497.625" y="14.801"/><use xlink:href="#d" x="501.375" y="14.801"/><use xlink:href="#E" x="508.875" y="14.801"/><use xlink:href="#x" x="515.625" y="14.801"/><use xlink:href="#g" x="523.125" y="14.801"/><use xlink:href="#R" x="526.125" y="14.801"/></g><g fill="#1C1E21"><use xlink:href="#c" x="481.875" y="14.801"/><use xlink:href="#J" x="490.125" y="14.801"/><use xlink:href="#w" x="497.625" y="14.801"/><use xlink:href="#d" x="501.375" y="14.801"/><use xlink:href="#E" x="508.875" y="14.801"/><use xlink:href="#x" x="515.625" y="14.801"/><use xlink:href="#g" x="523.125" y="14.801"/><use xlink:href="#R" x="526.125" y="14.801"/></g><g fill="none" stroke="#FFF" stroke-linecap="round" stroke-linejoin="round" stroke-width="2"><use xlink:href="#D" x="484.5" y="95.395"/><use xlink:href="#D" x="492" y="95.395"/><use xlink:href="#G" x="499.5" y="95.395"/></g><g fill="#5856D6"><use xlink:href="#D" x="484.5" y="95.395"/><use xlink:href="#D" x="492" y="95.395"/><use xlink:href="#G" x="499.5" y="95.395"/></g><g fill="none" stroke="#FFF" stroke-linecap="round" stroke-linejoin="round" stroke-width="2"><use xlink:href="#J" x="430.125" y="306.398"/><use xlink:href="#r" x="437.625" y="306.398"/><use xlink:href="#g" x="440.625" y="306.398"/><use xlink:href="#s" x="443.625" y="306.398"/><use xlink:href="#n" x="451.875" y="306.398"/><use xlink:href="#K" x="463.875" y="306.398"/><use xlink:href="#y" x="476.625" y="306.398"/><use xlink:href="#s" x="481.125" y="306.398"/><use xlink:href="#d" x="489.375" y="306.398"/><use xlink:href="#F" x="496.875" y="306.398"/><use xlink:href="#L" x="499.875" y="306.398"/><use xlink:href="#I" x="505.125" y="306.398"/><use xlink:href="#M" x="509.625" y="306.398"/><use xlink:href="#F" x="514.125" y="306.398"/><use xlink:href="#G" x="517.125" y="306.398"/><use xlink:href="#B" x="524.625" y="306.398"/><use xlink:href="#N" x="531.375" y="306.398"/><use xlink:href="#O" x="538.125" y="306.398"/><use xlink:href="#P" x="542.625" y="306.398"/><use xlink:href="#y" x="552.375" y="306.398"/><use xlink:href="#R" x="556.875" y="306.398"/><use xlink:href="#Q" x="562.875" y="306.398"/><use xlink:href="#k" x="571.125" y="306.398"/><use xlink:href="#I" x="579.375" y="306.398"/></g><g fill="#1C1E21"><use xlink:href="#J" x="430.125" y="306.398"/><use xlink:href="#r" x="437.625" y="306.398"/><use xlink:href="#g" x="440.625" y="306.398"/><use xlink:href="#s" x="443.625" y="306.398"/><use xlink:href="#n" x="451.875" y="306.398"/><use xlink:href="#K" x="463.875" y="306.398"/><use xlink:href="#y" x="476.625" y="306.398"/><use xlink:href="#s" x="481.125" y="306.398"/><use xlink:href="#d" x="489.375" y="306.398"/><use xlink:href="#F" x="496.875" y="306.398"/><use xlink:href="#L" x="499.875" y="306.398"/><use xlink:href="#I" x="505.125" y="306.398"/><use xlink:href="#M" x="509.625" y="306.398"/><use xlink:href="#F" x="514.125" y="306.398"/><use xlink:href="#G" x="517.125" y="306.398"/><use xlink:href="#B" x="524.625" y="306.398"/><use xlink:href="#N" x="531.375" y="306.398"/><use xlink:href="#O" x="538.125" y="306.398"/><use xlink:href="#P" x="542.625" y="306.398"/><use xlink:href="#y" x="552.375" y="306.398"/><use xlink:href="#R" x="556.875" y="306.398"/><use xlink:href="#Q" x="562.875" y="306.398"/><use xlink:href="#k" x="571.125" y="306.398"/><use xlink:href="#I" x="579.375" y="306.398"/></g><g fill="none" stroke="#FFF" stroke-linecap="round" stroke-linejoin="round" stroke-width="2"><use xlink:href="#B" x="531.16" y="175.273"/><use xlink:href="#G" x="537.91" y="175.273"/></g><g fill="#007AFF"><use xlink:href="#B" x="531.16" y="175.273"/><use xlink:href="#G" x="537.91" y="175.273"/></g><g fill="none" stroke="#FFF" stroke-linecap="round" stroke-linejoin="round" stroke-width="2"><use xlink:href="#U" x="545.41" y="175.273"/><use xlink:href="#w" x="549.91" y="175.273"/></g><g fill="#FF9500"><use xlink:href="#U" x="545.41" y="175.273"/><use xlink:href="#w" x="549.91" y="175.273"/></g><g fill="none" stroke="#FFF" stroke-linecap="round" stroke-linejoin="round" stroke-width="2"><use xlink:href="#w" x="554.41" y="175.273"/><use xlink:href="#U" x="558.91" y="175.273"/></g><g fill="#FF3B30"><use xlink:href="#w" x="554.41" y="175.273"/><use xlink:href="#U" x="558.91" y="175.273"/></g><g fill="none" stroke="#FFF" stroke-linecap="round" stroke-linejoin="round" stroke-width="2"><use xlink:href="#x" x="450.75" y="175.395"/><use xlink:href="#E" x="458.25" y="175.395"/><use xlink:href="#f" x="465" y="175.395"/><use xlink:href="#E" x="468.75" y="175.395"/></g><g fill="#5856D6"><use xlink:href="#x" x="450.75" y="175.395"/><use xlink:href="#E" x="458.25" y="175.395"/><use xlink:href="#f" x="465" y="175.395"/><use xlink:href="#E" x="468.75" y="175.395"/></g><g fill="none" stroke="#FFF" stroke-linecap="round" stroke-linejoin="round" stroke-width="2"><use xlink:href="#U" x="475.5" y="175.395"/><use xlink:href="#w" x="480" y="175.395"/></g><g fill="#FF9500"><use xlink:href="#U" x="475.5" y="175.395"/><use xlink:href="#w" x="480" y="175.395"/></g><g fill="none" stroke="#FFF" stroke-linecap="round" stroke-linejoin="round" stroke-width="2"><use xlink:href="#D" x="484.5" y="175.395"/><use xlink:href="#D" x="492" y="175.395"/><use xlink:href="#G" x="499.5" y="175.395"/></g><g fill="#5856D6"><use xlink:href="#D" x="484.5" y="175.395"/><use xlink:href="#D" x="492" y="175.395"/><use xlink:href="#G" x="499.5" y="175.395"/></g><g fill="none" stroke="#FFF" stroke-linecap="round" stroke-linejoin="round" stroke-width="2"><use xlink:href="#D" x="484.5" y="257.395"/><use xlink:href="#D" x="492" y="257.395"/><use xlink:href="#G" x="499.5" y="257.395"/></g><g fill="#5856D6"><use xlink:href="#D" x="484.5" y="257.395"/><use xlink:href="#D" x="492" y="257.395"/><use xlink:href="#G" x="499.5" y="257.395"/></g></svg>