<svg xmlns="http://www.w3.org/2000/svg" xmlns:xlink="http://www.w3.org/1999/xlink" width="594" height="421"><defs><path id="c" d="M3.453 0h1.23v-8.758h3.11v-1.105H.343v1.105h3.11Zm0 0"/><path id="d" d="M3.7.137c1.55 0 2.714-.93 2.945-2.106l.015-.07H5.488l-.02.062c-.202.61-.84 1.059-1.741 1.059-1.266 0-2.07-.852-2.098-2.316h5.117v-.438c0-2.133-1.18-3.574-3.121-3.574s-3.2 1.512-3.2 3.71v.009C.426-1.293 1.657.137 3.7.137m-.083-6.332c1.04 0 1.805.652 1.922 2.03H1.65c.128-1.323.937-2.03 1.968-2.03m0 0"/><path id="e" d="M3.297.137c1.586 0 2.762-.875 2.762-2.121v-.004c0-1.012-.52-1.582-1.957-1.93l-1.13-.273c-.784-.192-1.105-.528-1.105-1.012v-.008c0-.629.531-1.043 1.395-1.043.883 0 1.406.457 1.504 1.149l.007.046h1.133l-.008-.09C5.813-6.335 4.82-7.245 3.262-7.245c-1.54 0-2.614.867-2.614 2.09v.008c0 1.027.653 1.648 1.993 1.968l1.125.274c.808.199 1.074.484 1.074 1v.004c0 .644-.574 1.047-1.54 1.047-.968 0-1.495-.418-1.64-1.13l-.012-.066H.457l.008.063C.609-.718 1.62.137 3.297.137m0 0"/><path id="f" d="M3.082.137c.234 0 .488-.028.637-.047v-.965c-.102.008-.239.027-.383.027-.637 0-.969-.21-.969-.972v-4.305H3.72v-.984H2.367v-1.922h-1.23v1.922H.097v.984h1.04v4.313c0 1.359.64 1.949 1.945 1.949m0 0"/><path id="h" d="M.957 0h1.23v-9.863H.958Zm0 0"/><path id="i" d="M4.184.164c2.257 0 3.644-1.11 3.644-2.86v-.003c0-1.504-.848-2.324-2.871-2.77l-1.094-.238c-1.285-.281-1.879-.79-1.879-1.594v-.008c0-.949.86-1.578 2.18-1.586 1.25 0 2.09.594 2.242 1.602l.012.094h1.23l-.003-.102c-.11-1.613-1.52-2.726-3.446-2.726-2.031 0-3.469 1.132-3.472 2.754v.007c0 1.442.902 2.309 2.828 2.735l1.093.238c1.356.3 1.922.785 1.922 1.652v.008c0 1.02-.894 1.66-2.316 1.66-1.43 0-2.387-.605-2.531-1.597l-.012-.098H.48l.003.098C.61-.883 2.051.164 4.184.164m0 0"/><path id="j" d="M.172 0h1.293l.996-2.824h3.973L7.43 0h1.293L5.059-9.863H3.844Zm4.266-8.387h.027L6.063-3.87H2.836Zm0 0"/><path id="k" d="M3.316 0h1.188v-9.863H3.3L.676-7.977v1.235L3.289-8.56h.027Zm0 0"/><path id="l" d="M4.191.164C6.242.164 7.7-1.219 7.703-3.19v-.016c0-1.895-1.367-3.266-3.258-3.266-.957 0-1.777.356-2.242 1.016h-.027l.332-3.313h4.637v-1.093H1.496L.992-4.238h1.086c.129-.227.29-.418.465-.582.437-.395 1.012-.594 1.684-.594 1.304 0 2.242.93 2.246 2.226v.016c0 1.324-.93 2.254-2.27 2.254-1.18 0-2.055-.742-2.18-1.723l-.007-.054H.809l.003.078C.958-1.012 2.306.164 4.193.164m0 0"/><path id="m" d="M1.504-5.195a.774.774 0 0 0 .781-.782.77.77 0 0 0-.781-.777.767.767 0 0 0-.777.777c0 .438.34.782.777.782m0 5.293a.774.774 0 0 0 .781-.782.774.774 0 0 0-.781-.78.77.77 0 0 0-.777.78c0 .438.34.782.777.782m0 0"/><path id="n" d="M.836 0h1.187v-9.863H.836Zm0 0"/><path id="o" d="M3.719.137c1.96 0 3.289-1.422 3.289-3.692v-.015c0-2.27-1.332-3.676-3.297-3.676C1.75-7.246.426-5.832.426-3.57v.015C.426-1.293 1.742.137 3.719.137m.008-1.055c-1.258 0-2.086-.96-2.086-2.637v-.015c0-1.66.836-2.625 2.07-2.625 1.258 0 2.078.957 2.078 2.625v.015c0 1.668-.812 2.637-2.062 2.637m0 0"/><path id="p" d="M2.18 0h1.21l1.602-5.504h.028L6.625 0h1.21l1.981-7.11H8.641L7.219-1.327H7.19L5.578-7.11H4.43L2.824-1.33h-.027l-1.422-5.78H.191Zm0 0"/><path id="q" d="M3.445.137c1.02 0 1.813-.512 2.258-1.34h.027V0h1.188v-9.863H5.73v3.941h-.027c-.445-.82-1.273-1.324-2.277-1.324-1.785 0-3 1.441-3 3.684v.007c0 2.243 1.203 3.692 3.02 3.692M3.68-.918c-1.258 0-2.04-1.004-2.04-2.637v-.007c0-1.622.782-2.633 2.04-2.633 1.195 0 2.054 1.047 2.054 2.633v.007c0 1.594-.851 2.637-2.054 2.637m0 0"/><path id="r" d="M3.242 2.395h.996c-.984-1.145-1.73-3.852-1.73-6.133 0-2.285.746-4.985 1.73-6.125h-.996C1.906-8.168 1.301-6.172 1.301-3.738c0 2.433.605 4.441 1.941 6.133m0 0"/><path id="s" d="M5.094.164c2.633 0 4.183-1.578 4.183-4.246v-.938H5.266v1.082h2.78v.176c0 1.657-1.202 2.79-2.952 2.79-2.012 0-3.262-1.532-3.262-4.012v-.008c0-2.434 1.23-3.903 3.262-3.903 1.386 0 2.343.72 2.8 1.97l.028.073h1.293L9.18-6.98c-.457-1.743-1.817-3.047-4.086-3.047-2.754 0-4.52 1.953-4.52 5.035v.008C.574-1.84 2.34.164 5.094.164m0 0"/><path id="t" d="M.773 0h1.188v-4.184c0-1.21.734-2.011 1.855-2.011 1.094 0 1.633.636 1.633 1.793V0h1.188v-4.613c0-1.621-.903-2.633-2.461-2.633-1.078 0-1.805.484-2.188 1.148h-.027v-1.011H.773Zm0 0"/><path id="u" d="M.773 0h1.188v-4.39c0-1.079.601-1.723 1.527-1.723.285 0 .54.035.633.07v-1.156c-.094-.012-.273-.047-.476-.047-.801 0-1.415.52-1.657 1.34h-.027V-7.11H.773Zm0 0"/><path id="v" d="M1.441-8.312a.744.744 0 0 0 .746-.747.74.74 0 0 0-.746-.746.74.74 0 0 0-.742.746c0 .41.332.746.742.746M.848 0h1.191v-7.11H.848Zm0 0"/><path id="w" d="M3.719.137c1.605 0 2.777-1.047 2.969-2.399l.003-.05H5.523l-.011.054c-.2.793-.82 1.34-1.793 1.34-1.23 0-2.078-.977-2.078-2.629v-.008c0-1.613.828-2.64 2.066-2.64 1.043 0 1.617.629 1.797 1.34l.012.054H6.68l-.008-.054C6.523-6.07 5.477-7.246 3.707-7.246 1.73-7.246.426-5.812.426-3.57v.007c0 2.262 1.277 3.7 3.293 3.7m0 0"/><path id="x" d="M.957 0h1.23v-3.902h2.36L6.66 0h1.442L5.816-4.094c1.23-.39 1.985-1.449 1.985-2.816v-.016c0-1.777-1.246-2.937-3.145-2.937H.957Zm1.23-4.992V-8.77h2.305c1.266 0 2.035.696 2.035 1.872v.015c0 1.207-.715 1.89-1.98 1.89Zm0 0"/><path id="y" d="M3.809 0h1.214L8.66-9.863H7.371L4.43-1.477h-.028L1.465-9.863H.172Zm0 0"/><path id="z" d="M.773 2.395h1.188v-3.586h.027C2.434-.371 3.262.137 4.266.137c1.785 0 3-1.442 3-3.684v-.008c0-2.242-1.203-3.691-3.02-3.691-1.02 0-1.812.512-2.258 1.34h-.027V-7.11H.773ZM4.012-.918c-1.196 0-2.055-1.043-2.055-2.629v-.008c0-1.593.852-2.64 2.055-2.64 1.258 0 2.039 1.008 2.039 2.64v.008c0 1.617-.781 2.629-2.04 2.629m0 0"/><path id="A" d="M2.852.137c.949 0 1.804-.512 2.222-1.293h.028V0h1.187v-4.914c0-1.422-1.05-2.332-2.734-2.332-1.676 0-2.692.941-2.797 2.113l-.004.074h1.148l.012-.062c.137-.637.711-1.074 1.629-1.074.988 0 1.559.527 1.559 1.394v.598l-2.04.113C1.43-3.992.485-3.234.485-2.023v.011c0 1.293.954 2.149 2.368 2.149M1.703-2.012v-.011c0-.664.547-1.086 1.496-1.141l1.903-.117v.582c0 1.031-.864 1.804-1.985 1.804-.855 0-1.414-.433-1.414-1.117m0 0"/><path id="B" d="M.773 0h1.188v-4.457c0-.992.684-1.738 1.629-1.738.883 0 1.457.57 1.457 1.43V0h1.187v-4.52c0-.968.664-1.675 1.606-1.675.937 0 1.476.582 1.476 1.558V0h1.192v-4.91c0-1.414-.91-2.336-2.317-2.336-1 0-1.832.512-2.23 1.367h-.027c-.309-.867-1.024-1.367-1.997-1.367-.914 0-1.624.473-1.949 1.176h-.027v-1.04H.773Zm0 0"/><path id="C" d="M1.273 2.395c1.332-1.692 1.942-3.7 1.942-6.133 0-2.434-.61-4.43-1.942-6.125h-1c.985 1.14 1.73 3.84 1.73 6.125 0 2.281-.745 4.988-1.73 6.133Zm0 0"/><path id="D" d="M.836 0h1.187v-4.148c0-1.211.73-2.047 1.832-2.047 1.11 0 1.766.761 1.766 2.047V0H6.81v-4.355c0-1.723-1.032-2.891-2.543-2.891-1.059 0-1.832.473-2.215 1.27h-.028v-3.887H.836Zm0 0"/><path id="E" d="M4.238.164c2.27 0 3.63-1.96 3.63-5.094v-.011c0-3.133-1.36-5.086-3.63-5.086S.621-8.074.621-4.941v.011C.621-1.797 1.97.164 4.238.164m0-1.074C2.734-.91 1.86-2.453 1.86-4.93v-.011c0-2.477.875-4.008 2.38-4.008 1.503 0 2.394 1.531 2.394 4.008v.011c0 2.477-.89 4.02-2.395 4.02m0 0"/><path id="F" d="M2.996 0h1.16l2.297-7.902h.027L8.777 0h1.164l2.684-9.863H11.34L9.352-1.766h-.028L7.09-9.863H5.844L3.609-1.766h-.027L1.594-9.863H.309Zm0 0"/><path id="G" d="M1.41 2.395h2.965v-.926H2.559V-8.934h1.816v-.93H1.41Zm0 0"/><path id="H" d="M.219 0h1.32l1.715-2.707h.027L4.984 0h1.32L3.938-3.602l2.399-3.507H5.012L3.324-4.445h-.027L1.586-7.11H.262L2.64-3.555Zm0 0"/><path id="I" d="M3.105 2.395V-9.863H.137v.93h1.82V1.468H.137v.926Zm0 0"/><path id="J" d="M.848-5.14h6.77v-1.11H.847Zm0 3.382h6.77v-1.105H.847Zm0 0"/><path id="K" d="M4.121.164c1.977 0 3.426-1.219 3.426-2.863v-.016c0-1.402-.977-2.297-2.414-2.418v-.027c1.23-.262 2.094-1.094 2.094-2.313v-.011c0-1.5-1.239-2.543-3.118-2.543-1.847 0-3.117 1.07-3.273 2.68l-.008.066h1.184l.004-.067c.105-1 .93-1.613 2.093-1.613 1.204 0 1.88.594 1.88 1.625v.016c0 .984-.821 1.707-1.997 1.707H2.81v1.039h1.238c1.383 0 2.25.676 2.25 1.886v.016c0 1.043-.883 1.77-2.176 1.77-1.312 0-2.2-.672-2.3-1.641l-.008-.07H.629l.008.082C.766-.973 2.086.164 4.12.164m0 0"/><path id="L" d="M4.309.137c1.816 0 3.02-1.45 3.02-3.692v-.007c0-2.243-1.216-3.684-3-3.684-1.005 0-1.833.504-2.278 1.324h-.028v-3.941H.836V0h1.187v-1.203h.028c.445.828 1.238 1.34 2.258 1.34M4.074-.918c-1.203 0-2.058-1.043-2.058-2.637v-.007c0-1.586.863-2.633 2.058-2.633 1.258 0 2.04 1.011 2.04 2.633v.007c0 1.633-.782 2.637-2.04 2.637m0 0"/><path id="M" d="M1.457 2.395c1.285 0 1.906-.59 2.414-1.95l2.774-7.554h-1.25l-1.97 5.918h-.027L1.438-7.11H.163L2.804.008 2.66.41c-.289.809-.703 1-1.457 1-.144 0-.281-.023-.383-.043v.973c.153.027.403.055.637.055m0 0"/><path id="N" d="M1.156 0h1.188v-6.125h1.449v-.984H2.332v-.868c0-.707.328-1.039.984-1.039.184 0 .368.004.512.028v-.965A5 5 0 0 0 3.105-10c-1.312 0-1.949.648-1.949 2.016v.875H.164v.984h.992Zm0 0"/><path id="O" d="M.621 0h5.305v-.984H2.004v-.02l3.902-5.238v-.867H.63v.984h3.926v.02L.62-.848Zm0 0"/><path id="P" d="M.8 0H7.31v-1.094h-4.82v-.027l2.343-2.406C6.645-5.38 7.145-6.195 7.145-7.273v-.016c0-1.543-1.305-2.738-3.09-2.738-1.84 0-3.317 1.261-3.317 2.972v.04H1.93v-.032c0-1.062.914-1.91 2.144-1.91 1.074 0 1.832.727 1.84 1.73v.016c0 .82-.309 1.352-1.64 2.738L.8-.848Zm0 0"/><path id="Q" d="M3.781 2.531c1.926 0 3.137-1.082 3.137-2.73v-6.91H5.73v1.203h-.027c-.437-.793-1.23-1.34-2.238-1.34-1.805 0-3.04 1.434-3.04 3.644v.004C.426-1.375 1.649.07 3.438.07c1.02 0 1.84-.508 2.266-1.293h.027v.907c0 1.101-.71 1.793-1.964 1.793-.97 0-1.645-.313-1.871-.829L1.867.59H.672l.012.058c.234 1.055 1.34 1.883 3.097 1.883M3.7-.984c-1.265 0-2.058-1-2.058-2.614v-.004c0-1.582.793-2.593 2.058-2.593 1.203 0 2.031 1.027 2.031 2.593v.004c0 1.582-.82 2.614-2.03 2.614m0 0"/></defs><path fill="none" stroke="#AC8E68" stroke-miterlimit="10" stroke-width="2" d="M116 71.027v43.633"/><path fill="none" stroke="#5E5CE6" stroke-miterlimit="10" stroke-width="2" d="M118 71.027v43.633"/><path fill="#AC8E68" stroke="#AC8E68" stroke-miterlimit="10" stroke-width="2" d="m120.5 114.281-3.5 10-3.5-10Zm0 0"/><path fill="none" stroke="#FF453A" stroke-miterlimit="10" stroke-width="2" d="M158.648 130.355C223.95 115.66 350.422 87.203 422.754 70.93"/><path fill="#FF453A" stroke="#FF453A" stroke-miterlimit="10" stroke-width="2" d="m421.695 67.582 10.524 1.219-8.989 5.61Zm0 0"/><path fill="none" stroke="#5E5CE6" stroke-miterlimit="10" stroke-width="2" d="M477 71.027v43.633"/><path fill="#5E5CE6" stroke="#5E5CE6" stroke-miterlimit="10" stroke-width="2" d="m480.5 114.281-3.5 10-3.5-10Zm0 0"/><path fill="none" stroke="#0A84FF" stroke-miterlimit="10" stroke-width="2" d="M476 152.027v43.633"/><path fill="none" stroke="#5E5CE6" stroke-miterlimit="10" stroke-width="2" d="M478 152.027v43.633"/><path fill="#0A84FF" stroke="#0A84FF" stroke-miterlimit="10" stroke-width="2" d="m480.5 195.281-3.5 10-3.5-10Zm0 0"/><path fill="none" stroke="#FF453A" stroke-miterlimit="10" stroke-width="2" d="M477 233.027v43.633"/><path fill="#FF453A" stroke="#FF453A" stroke-miterlimit="10" stroke-width="2" d="m480.5 276.281-3.5 10-3.5-10Zm0 0"/><path fill="none" stroke="#5E5CE6" stroke-miterlimit="10" stroke-width="2" d="M477 314.027v43.633"/><path fill="#5E5CE6" stroke="#5E5CE6" stroke-miterlimit="10" stroke-width="2" d="m480.5 357.281-3.5 10-3.5-10Zm0 0"/><path fill="none" stroke="#FF9F0A" stroke-miterlimit="10" stroke-width="2" d="M463.328 370.418 140.16 79.57"/><path fill="#FF9F0A" stroke="#FF9F0A" stroke-miterlimit="10" stroke-width="2" d="m138.027 82.36-5.09-9.294 9.774 4.09Zm0 0"/><g fill="none" stroke="#1b1b1d" stroke-linecap="round" stroke-linejoin="round" stroke-width="2"><use xlink:href="#c" x="131.25" y="412.648"/><use xlink:href="#d" x="137.25" y="412.648"/><use xlink:href="#e" x="144.75" y="412.648"/><use xlink:href="#f" x="151.5" y="412.648"/><use xlink:href="#g" x="156" y="412.648"/><use xlink:href="#h" x="159" y="412.648"/><use xlink:href="#i" x="162" y="412.648"/><use xlink:href="#j" x="170.25" y="412.648"/><use xlink:href="#k" x="178.5" y="412.648"/><use xlink:href="#l" x="184.5" y="412.648"/><use xlink:href="#m" x="192.75" y="412.648"/><use xlink:href="#g" x="195.75" y="412.648"/><use xlink:href="#j" x="198.75" y="412.648"/><use xlink:href="#n" x="207.75" y="412.648"/><use xlink:href="#n" x="210.75" y="412.648"/><use xlink:href="#o" x="213.75" y="412.648"/><use xlink:href="#p" x="221.25" y="412.648"/><use xlink:href="#d" x="231" y="412.648"/><use xlink:href="#q" x="238.5" y="412.648"/><use xlink:href="#g" x="246" y="412.648"/><use xlink:href="#r" x="249" y="412.648"/><use xlink:href="#s" x="253.5" y="412.648"/><use xlink:href="#d" x="263.25" y="412.648"/><use xlink:href="#t" x="270.75" y="412.648"/><use xlink:href="#d" x="278.25" y="412.648"/><use xlink:href="#u" x="285.75" y="412.648"/><use xlink:href="#v" x="290.25" y="412.648"/><use xlink:href="#w" x="293.25" y="412.648"/><use xlink:href="#r" x="300" y="412.648"/><use xlink:href="#x" x="304.5" y="412.648"/><use xlink:href="#v" x="312.75" y="412.648"/><use xlink:href="#e" x="315.75" y="412.648"/><use xlink:href="#w" x="322.5" y="412.648"/><use xlink:href="#g" x="329.25" y="412.648"/><use xlink:href="#y" x="332.25" y="412.648"/><use xlink:href="#g" x="341.25" y="412.648"/><use xlink:href="#z" x="344.25" y="412.648"/><use xlink:href="#A" x="351.75" y="412.648"/><use xlink:href="#u" x="358.5" y="412.648"/><use xlink:href="#f" x="363" y="412.648"/><use xlink:href="#v" x="367.5" y="412.648"/><use xlink:href="#A" x="370.5" y="412.648"/><use xlink:href="#n" x="377.25" y="412.648"/><use xlink:href="#g" x="380.25" y="412.648"/><use xlink:href="#o" x="383.25" y="412.648"/><use xlink:href="#u" x="390.75" y="412.648"/><use xlink:href="#q" x="394.5" y="412.648"/><use xlink:href="#d" x="402" y="412.648"/><use xlink:href="#u" x="409.5" y="412.648"/><use xlink:href="#g" x="414" y="412.648"/><use xlink:href="#B" x="417" y="412.648"/><use xlink:href="#o" x="428.25" y="412.648"/><use xlink:href="#q" x="435.75" y="412.648"/><use xlink:href="#d" x="443.25" y="412.648"/><use xlink:href="#n" x="450.75" y="412.648"/><use xlink:href="#C" x="453.75" y="412.648"/><use xlink:href="#C" x="458.25" y="412.648"/></g><g fill="#E3E3E3"><use xlink:href="#c" x="131.25" y="412.648"/><use xlink:href="#d" x="137.25" y="412.648"/><use xlink:href="#e" x="144.75" y="412.648"/><use xlink:href="#f" x="151.5" y="412.648"/><use xlink:href="#g" x="156" y="412.648"/><use xlink:href="#h" x="159" y="412.648"/><use xlink:href="#i" x="162" y="412.648"/><use xlink:href="#j" x="170.25" y="412.648"/><use xlink:href="#k" x="178.5" y="412.648"/><use xlink:href="#l" x="184.5" y="412.648"/><use xlink:href="#m" x="192.75" y="412.648"/><use xlink:href="#g" x="195.75" y="412.648"/><use xlink:href="#j" x="198.75" y="412.648"/><use xlink:href="#n" x="207.75" y="412.648"/><use xlink:href="#n" x="210.75" y="412.648"/><use xlink:href="#o" x="213.75" y="412.648"/><use xlink:href="#p" x="221.25" y="412.648"/><use xlink:href="#d" x="231" y="412.648"/><use xlink:href="#q" x="238.5" y="412.648"/><use xlink:href="#g" x="246" y="412.648"/><use xlink:href="#r" x="249" y="412.648"/><use xlink:href="#s" x="253.5" y="412.648"/><use xlink:href="#d" x="263.25" y="412.648"/><use xlink:href="#t" x="270.75" y="412.648"/><use xlink:href="#d" x="278.25" y="412.648"/><use xlink:href="#u" x="285.75" y="412.648"/><use xlink:href="#v" x="290.25" y="412.648"/><use xlink:href="#w" x="293.25" y="412.648"/><use xlink:href="#r" x="300" y="412.648"/><use xlink:href="#x" x="304.5" y="412.648"/><use xlink:href="#v" x="312.75" y="412.648"/><use xlink:href="#e" x="315.75" y="412.648"/><use xlink:href="#w" x="322.5" y="412.648"/><use xlink:href="#g" x="329.25" y="412.648"/><use xlink:href="#y" x="332.25" y="412.648"/><use xlink:href="#g" x="341.25" y="412.648"/><use xlink:href="#z" x="344.25" y="412.648"/><use xlink:href="#A" x="351.75" y="412.648"/><use xlink:href="#u" x="358.5" y="412.648"/><use xlink:href="#f" x="363" y="412.648"/><use xlink:href="#v" x="367.5" y="412.648"/><use xlink:href="#A" x="370.5" y="412.648"/><use xlink:href="#n" x="377.25" y="412.648"/><use xlink:href="#g" x="380.25" y="412.648"/><use xlink:href="#o" x="383.25" y="412.648"/><use xlink:href="#u" x="390.75" y="412.648"/><use xlink:href="#q" x="394.5" y="412.648"/><use xlink:href="#d" x="402" y="412.648"/><use xlink:href="#u" x="409.5" y="412.648"/><use xlink:href="#g" x="414" y="412.648"/><use xlink:href="#B" x="417" y="412.648"/><use xlink:href="#o" x="428.25" y="412.648"/><use xlink:href="#q" x="435.75" y="412.648"/><use xlink:href="#d" x="443.25" y="412.648"/><use xlink:href="#n" x="450.75" y="412.648"/><use xlink:href="#C" x="453.75" y="412.648"/><use xlink:href="#C" x="458.25" y="412.648"/></g><g fill="none" stroke="#1b1b1d" stroke-linecap="round" stroke-linejoin="round" stroke-width="2"><use xlink:href="#c" x="90.75" y="14.801"/><use xlink:href="#D" x="99" y="14.801"/><use xlink:href="#u" x="106.5" y="14.801"/><use xlink:href="#d" x="110.25" y="14.801"/><use xlink:href="#A" x="117.75" y="14.801"/><use xlink:href="#q" x="124.5" y="14.801"/><use xlink:href="#g" x="132" y="14.801"/><use xlink:href="#E" x="135" y="14.801"/></g><g fill="#E3E3E3"><use xlink:href="#c" x="90.75" y="14.801"/><use xlink:href="#D" x="99" y="14.801"/><use xlink:href="#u" x="106.5" y="14.801"/><use xlink:href="#d" x="110.25" y="14.801"/><use xlink:href="#A" x="117.75" y="14.801"/><use xlink:href="#q" x="124.5" y="14.801"/><use xlink:href="#g" x="132" y="14.801"/><use xlink:href="#E" x="135" y="14.801"/></g><g fill="none" stroke="#1b1b1d" stroke-linecap="round" stroke-linejoin="round" stroke-width="2"><use xlink:href="#A" x="88.125" y="63.398"/><use xlink:href="#m" x="94.875" y="63.398"/><use xlink:href="#g" x="97.875" y="63.398"/><use xlink:href="#F" x="100.875" y="63.398"/><use xlink:href="#G" x="113.625" y="63.398"/><use xlink:href="#H" x="118.125" y="63.398"/><use xlink:href="#I" x="124.875" y="63.398"/><use xlink:href="#J" x="129.375" y="63.398"/><use xlink:href="#K" x="137.625" y="63.398"/></g><g fill="#E3E3E3"><use xlink:href="#A" x="88.125" y="63.398"/><use xlink:href="#m" x="94.875" y="63.398"/><use xlink:href="#g" x="97.875" y="63.398"/><use xlink:href="#F" x="100.875" y="63.398"/><use xlink:href="#G" x="113.625" y="63.398"/><use xlink:href="#H" x="118.125" y="63.398"/><use xlink:href="#I" x="124.875" y="63.398"/><use xlink:href="#J" x="129.375" y="63.398"/><use xlink:href="#K" x="137.625" y="63.398"/></g><g fill="none" stroke="#1b1b1d" stroke-linecap="round" stroke-linejoin="round" stroke-width="2"><use xlink:href="#L" x="88.875" y="144.398"/><use xlink:href="#m" x="96.375" y="144.398"/><use xlink:href="#g" x="99.375" y="144.398"/><use xlink:href="#F" x="102.375" y="144.398"/><use xlink:href="#G" x="115.125" y="144.398"/><use xlink:href="#M" x="119.625" y="144.398"/><use xlink:href="#I" x="126.375" y="144.398"/><use xlink:href="#J" x="130.875" y="144.398"/><use xlink:href="#k" x="139.125" y="144.398"/></g><g fill="#E3E3E3"><use xlink:href="#L" x="88.875" y="144.398"/><use xlink:href="#m" x="96.375" y="144.398"/><use xlink:href="#g" x="99.375" y="144.398"/><use xlink:href="#F" x="102.375" y="144.398"/><use xlink:href="#G" x="115.125" y="144.398"/><use xlink:href="#M" x="119.625" y="144.398"/><use xlink:href="#I" x="126.375" y="144.398"/><use xlink:href="#J" x="130.875" y="144.398"/><use xlink:href="#k" x="139.125" y="144.398"/></g><g fill="none" stroke="#1b1b1d" stroke-linecap="round" stroke-linejoin="round" stroke-width="2"><use xlink:href="#N" x="61.5" y="94.395"/><use xlink:href="#d" x="65.25" y="94.395"/><use xlink:href="#t" x="72.75" y="94.395"/><use xlink:href="#w" x="80.25" y="94.395"/><use xlink:href="#d" x="87" y="94.395"/></g><g fill="#AC8E68"><use xlink:href="#N" x="61.5" y="94.395"/><use xlink:href="#d" x="65.25" y="94.395"/><use xlink:href="#t" x="72.75" y="94.395"/><use xlink:href="#w" x="80.25" y="94.395"/><use xlink:href="#d" x="87" y="94.395"/></g><g fill="none" stroke="#1b1b1d" stroke-linecap="round" stroke-linejoin="round" stroke-width="2"><use xlink:href="#z" x="94.5" y="94.395"/><use xlink:href="#z" x="102" y="94.395"/><use xlink:href="#o" x="109.5" y="94.395"/></g><g fill="#5E5CE6"><use xlink:href="#z" x="94.5" y="94.395"/><use xlink:href="#z" x="102" y="94.395"/><use xlink:href="#o" x="109.5" y="94.395"/></g><g fill="none" stroke="#1b1b1d" stroke-linecap="round" stroke-linejoin="round" stroke-width="2"><use xlink:href="#w" x="451.5" y="63.398"/><use xlink:href="#m" x="458.25" y="63.398"/><use xlink:href="#g" x="461.25" y="63.398"/><use xlink:href="#x" x="464.25" y="63.398"/><use xlink:href="#G" x="472.5" y="63.398"/><use xlink:href="#M" x="477" y="63.398"/><use xlink:href="#I" x="483.75" y="63.398"/><use xlink:href="#J" x="488.25" y="63.398"/><use xlink:href="#k" x="496.5" y="63.398"/></g><g fill="#E3E3E3"><use xlink:href="#w" x="451.5" y="63.398"/><use xlink:href="#m" x="458.25" y="63.398"/><use xlink:href="#g" x="461.25" y="63.398"/><use xlink:href="#x" x="464.25" y="63.398"/><use xlink:href="#G" x="472.5" y="63.398"/><use xlink:href="#M" x="477" y="63.398"/><use xlink:href="#I" x="483.75" y="63.398"/><use xlink:href="#J" x="488.25" y="63.398"/><use xlink:href="#k" x="496.5" y="63.398"/></g><g fill="none" stroke="#1b1b1d" stroke-linecap="round" stroke-linejoin="round" stroke-width="2"><use xlink:href="#u" x="287.652" y="95.352"/><use xlink:href="#N" x="292.152" y="95.352"/></g><g fill="#FF453A"><use xlink:href="#u" x="287.652" y="95.352"/><use xlink:href="#N" x="292.152" y="95.352"/></g><g fill="none" stroke="#1b1b1d" stroke-linecap="round" stroke-linejoin="round" stroke-width="2"><use xlink:href="#c" x="451.875" y="14.801"/><use xlink:href="#D" x="460.125" y="14.801"/><use xlink:href="#u" x="467.625" y="14.801"/><use xlink:href="#d" x="471.375" y="14.801"/><use xlink:href="#A" x="478.875" y="14.801"/><use xlink:href="#q" x="485.625" y="14.801"/><use xlink:href="#g" x="493.125" y="14.801"/><use xlink:href="#k" x="496.125" y="14.801"/></g><g fill="#E3E3E3"><use xlink:href="#c" x="451.875" y="14.801"/><use xlink:href="#D" x="460.125" y="14.801"/><use xlink:href="#u" x="467.625" y="14.801"/><use xlink:href="#d" x="471.375" y="14.801"/><use xlink:href="#A" x="478.875" y="14.801"/><use xlink:href="#q" x="485.625" y="14.801"/><use xlink:href="#g" x="493.125" y="14.801"/><use xlink:href="#k" x="496.125" y="14.801"/></g><g fill="none" stroke="#1b1b1d" stroke-linecap="round" stroke-linejoin="round" stroke-width="2"><use xlink:href="#q" x="448.875" y="144.398"/><use xlink:href="#m" x="456.375" y="144.398"/><use xlink:href="#g" x="459.375" y="144.398"/><use xlink:href="#F" x="462.375" y="144.398"/><use xlink:href="#G" x="475.125" y="144.398"/><use xlink:href="#O" x="479.625" y="144.398"/><use xlink:href="#I" x="486.375" y="144.398"/><use xlink:href="#J" x="490.875" y="144.398"/><use xlink:href="#k" x="499.125" y="144.398"/></g><g fill="#E3E3E3"><use xlink:href="#q" x="448.875" y="144.398"/><use xlink:href="#m" x="456.375" y="144.398"/><use xlink:href="#g" x="459.375" y="144.398"/><use xlink:href="#F" x="462.375" y="144.398"/><use xlink:href="#G" x="475.125" y="144.398"/><use xlink:href="#O" x="479.625" y="144.398"/><use xlink:href="#I" x="486.375" y="144.398"/><use xlink:href="#J" x="490.875" y="144.398"/><use xlink:href="#k" x="499.125" y="144.398"/></g><g fill="none" stroke="#1b1b1d" stroke-linecap="round" stroke-linejoin="round" stroke-width="2"><use xlink:href="#q" x="429.75" y="94.395"/><use xlink:href="#A" x="437.25" y="94.395"/><use xlink:href="#f" x="444" y="94.395"/><use xlink:href="#A" x="447.75" y="94.395"/></g><g fill="#5E5CE6"><use xlink:href="#q" x="429.75" y="94.395"/><use xlink:href="#A" x="437.25" y="94.395"/><use xlink:href="#f" x="444" y="94.395"/><use xlink:href="#A" x="447.75" y="94.395"/></g><g fill="none" stroke="#1b1b1d" stroke-linecap="round" stroke-linejoin="round" stroke-width="2"><use xlink:href="#z" x="454.5" y="94.395"/><use xlink:href="#z" x="462" y="94.395"/><use xlink:href="#o" x="469.5" y="94.395"/></g><g fill="#5E5CE6"><use xlink:href="#z" x="454.5" y="94.395"/><use xlink:href="#z" x="462" y="94.395"/><use xlink:href="#o" x="469.5" y="94.395"/></g><g fill="none" stroke="#1b1b1d" stroke-linecap="round" stroke-linejoin="round" stroke-width="2"><use xlink:href="#d" x="447.75" y="225.398"/><use xlink:href="#m" x="455.25" y="225.398"/><use xlink:href="#g" x="458.25" y="225.398"/><use xlink:href="#F" x="461.25" y="225.398"/><use xlink:href="#G" x="474" y="225.398"/><use xlink:href="#O" x="478.5" y="225.398"/><use xlink:href="#I" x="485.25" y="225.398"/><use xlink:href="#J" x="489.75" y="225.398"/><use xlink:href="#P" x="498" y="225.398"/></g><g fill="#E3E3E3"><use xlink:href="#d" x="447.75" y="225.398"/><use xlink:href="#m" x="455.25" y="225.398"/><use xlink:href="#g" x="458.25" y="225.398"/><use xlink:href="#F" x="461.25" y="225.398"/><use xlink:href="#G" x="474" y="225.398"/><use xlink:href="#O" x="478.5" y="225.398"/><use xlink:href="#I" x="485.25" y="225.398"/><use xlink:href="#J" x="489.75" y="225.398"/><use xlink:href="#P" x="498" y="225.398"/></g><g fill="none" stroke="#1b1b1d" stroke-linecap="round" stroke-linejoin="round" stroke-width="2"><use xlink:href="#w" x="440.25" y="175.395"/><use xlink:href="#o" x="447" y="175.395"/></g><g fill="#0A84FF"><use xlink:href="#w" x="440.25" y="175.395"/><use xlink:href="#o" x="447" y="175.395"/></g><g fill="none" stroke="#1b1b1d" stroke-linecap="round" stroke-linejoin="round" stroke-width="2"><use xlink:href="#z" x="454.5" y="175.395"/><use xlink:href="#z" x="462" y="175.395"/><use xlink:href="#o" x="469.5" y="175.395"/></g><g fill="#5E5CE6"><use xlink:href="#z" x="454.5" y="175.395"/><use xlink:href="#z" x="462" y="175.395"/><use xlink:href="#o" x="469.5" y="175.395"/></g><g fill="none" stroke="#1b1b1d" stroke-linecap="round" stroke-linejoin="round" stroke-width="2"><use xlink:href="#N" x="451.5" y="306.398"/><use xlink:href="#m" x="456" y="306.398"/><use xlink:href="#g" x="459" y="306.398"/><use xlink:href="#x" x="462" y="306.398"/><use xlink:href="#G" x="470.25" y="306.398"/><use xlink:href="#O" x="474.75" y="306.398"/><use xlink:href="#I" x="481.5" y="306.398"/><use xlink:href="#J" x="486" y="306.398"/><use xlink:href="#P" x="494.25" y="306.398"/></g><g fill="#E3E3E3"><use xlink:href="#N" x="451.5" y="306.398"/><use xlink:href="#m" x="456" y="306.398"/><use xlink:href="#g" x="459" y="306.398"/><use xlink:href="#x" x="462" y="306.398"/><use xlink:href="#G" x="470.25" y="306.398"/><use xlink:href="#O" x="474.75" y="306.398"/><use xlink:href="#I" x="481.5" y="306.398"/><use xlink:href="#J" x="486" y="306.398"/><use xlink:href="#P" x="494.25" y="306.398"/></g><g fill="none" stroke="#1b1b1d" stroke-linecap="round" stroke-linejoin="round" stroke-width="2"><use xlink:href="#u" x="468" y="257.395"/><use xlink:href="#N" x="472.5" y="257.395"/></g><g fill="#FF453A"><use xlink:href="#u" x="468" y="257.395"/><use xlink:href="#N" x="472.5" y="257.395"/></g><g fill="none" stroke="#1b1b1d" stroke-linecap="round" stroke-linejoin="round" stroke-width="2"><use xlink:href="#Q" x="450" y="387.398"/><use xlink:href="#m" x="457.5" y="387.398"/><use xlink:href="#g" x="460.5" y="387.398"/><use xlink:href="#x" x="463.5" y="387.398"/><use xlink:href="#G" x="471.75" y="387.398"/><use xlink:href="#H" x="476.25" y="387.398"/><use xlink:href="#I" x="483" y="387.398"/><use xlink:href="#J" x="487.5" y="387.398"/><use xlink:href="#E" x="495.75" y="387.398"/></g><g fill="#E3E3E3"><use xlink:href="#Q" x="450" y="387.398"/><use xlink:href="#m" x="457.5" y="387.398"/><use xlink:href="#g" x="460.5" y="387.398"/><use xlink:href="#x" x="463.5" y="387.398"/><use xlink:href="#G" x="471.75" y="387.398"/><use xlink:href="#H" x="476.25" y="387.398"/><use xlink:href="#I" x="483" y="387.398"/><use xlink:href="#J" x="487.5" y="387.398"/><use xlink:href="#E" x="495.75" y="387.398"/></g><g fill="none" stroke="#1b1b1d" stroke-linecap="round" stroke-linejoin="round" stroke-width="2"><use xlink:href="#A" x="428.25" y="337.395"/><use xlink:href="#q" x="435" y="337.395"/><use xlink:href="#q" x="442.5" y="337.395"/><use xlink:href="#u" x="450" y="337.395"/></g><g fill="#5E5CE6"><use xlink:href="#A" x="428.25" y="337.395"/><use xlink:href="#q" x="435" y="337.395"/><use xlink:href="#q" x="442.5" y="337.395"/><use xlink:href="#u" x="450" y="337.395"/></g><g fill="none" stroke="#1b1b1d" stroke-linecap="round" stroke-linejoin="round" stroke-width="2"><use xlink:href="#z" x="454.5" y="337.395"/><use xlink:href="#z" x="462" y="337.395"/><use xlink:href="#o" x="469.5" y="337.395"/></g><g fill="#5E5CE6"><use xlink:href="#z" x="454.5" y="337.395"/><use xlink:href="#z" x="462" y="337.395"/><use xlink:href="#o" x="469.5" y="337.395"/></g><g fill="none" stroke="#1b1b1d" stroke-linecap="round" stroke-linejoin="round" stroke-width="2"><use xlink:href="#N" x="288.125" y="216.887"/><use xlink:href="#u" x="292.625" y="216.887"/></g><g fill="#FF9F0A"><use xlink:href="#N" x="288.125" y="216.887"/><use xlink:href="#u" x="292.625" y="216.887"/></g></svg>