<svg xmlns="http://www.w3.org/2000/svg" xmlns:xlink="http://www.w3.org/1999/xlink" width="358" height="294"><defs><path id="c" d="M.172 0h1.293l.996-2.824h3.973L7.43 0h1.293L5.059-9.863H3.844Zm4.266-8.387h.027L6.063-3.87H2.836Zm0 0"/><path id="e" d="M3.297.137c1.586 0 2.762-.875 2.762-2.121v-.004c0-1.012-.52-1.582-1.957-1.93l-1.13-.273c-.784-.192-1.105-.528-1.105-1.012v-.008c0-.629.531-1.043 1.395-1.043.883 0 1.406.457 1.504 1.149l.007.046h1.133l-.008-.09C5.813-6.335 4.82-7.245 3.262-7.245c-1.54 0-2.614.867-2.614 2.09v.008c0 1.027.653 1.648 1.993 1.968l1.125.274c.808.199 1.074.484 1.074 1v.004c0 .644-.574 1.047-1.54 1.047-.968 0-1.495-.418-1.64-1.13l-.012-.066H.457l.008.063C.609-.718 1.62.137 3.297.137m0 0"/><path id="f" d="M2.852.137c.949 0 1.804-.512 2.222-1.293h.028V0h1.187v-4.914c0-1.422-1.05-2.332-2.734-2.332-1.676 0-2.692.941-2.797 2.113l-.004.074h1.148l.012-.062c.137-.637.711-1.074 1.629-1.074.988 0 1.559.527 1.559 1.394v.598l-2.04.113C1.43-3.992.485-3.234.485-2.023v.011c0 1.293.954 2.149 2.368 2.149M1.703-2.012v-.011c0-.664.547-1.086 1.496-1.141l1.903-.117v.582c0 1.031-.864 1.804-1.985 1.804-.855 0-1.414-.433-1.414-1.117m0 0"/><path id="g" d="M.773 0h1.188v-4.457c0-.992.684-1.738 1.629-1.738.883 0 1.457.57 1.457 1.43V0h1.187v-4.52c0-.968.664-1.675 1.606-1.675.937 0 1.476.582 1.476 1.558V0h1.192v-4.91c0-1.414-.91-2.336-2.317-2.336-1 0-1.832.512-2.23 1.367h-.027c-.309-.867-1.024-1.367-1.997-1.367-.914 0-1.624.473-1.949 1.176h-.027v-1.04H.773Zm0 0"/><path id="h" d="M.773 2.395h1.188v-3.586h.027C2.434-.371 3.262.137 4.266.137c1.785 0 3-1.442 3-3.684v-.008c0-2.242-1.203-3.691-3.02-3.691-1.02 0-1.812.512-2.258 1.34h-.027V-7.11H.773ZM4.012-.918c-1.196 0-2.055-1.043-2.055-2.629v-.008c0-1.593.852-2.64 2.055-2.64 1.258 0 2.039 1.008 2.039 2.64v.008c0 1.617-.781 2.629-2.04 2.629m0 0"/><path id="i" d="M.836 0h1.187v-9.863H.836Zm0 0"/><path id="j" d="M3.7.137c1.55 0 2.714-.93 2.945-2.106l.015-.07H5.488l-.02.062c-.202.61-.84 1.059-1.741 1.059-1.266 0-2.07-.852-2.098-2.316h5.117v-.438c0-2.133-1.18-3.574-3.121-3.574s-3.2 1.512-3.2 3.71v.009C.426-1.293 1.657.137 3.7.137m-.083-6.332c1.04 0 1.805.652 1.922 2.03H1.65c.128-1.323.937-2.03 1.968-2.03m0 0"/><path id="k" d="M1.441-8.312a.744.744 0 0 0 .746-.747.74.74 0 0 0-.746-.746.74.74 0 0 0-.742.746c0 .41.332.746.742.746M.848 0h1.191v-7.11H.848Zm0 0"/><path id="l" d="M3.082.137c.234 0 .488-.028.637-.047v-.965c-.102.008-.239.027-.383.027-.637 0-.969-.21-.969-.972v-4.305H3.72v-.984H2.367v-1.922h-1.23v1.922H.097v.984h1.04v4.313c0 1.359.64 1.949 1.945 1.949m0 0"/><path id="m" d="M3.2.137c1.081 0 1.804-.485 2.187-1.149h.027V0h1.191v-7.11h-1.19v4.184c0 1.211-.731 2.008-1.852 2.008-1.094 0-1.633-.633-1.633-1.789v-4.402H.738v4.613C.738-.875 1.641.137 3.2.137m0 0"/><path id="n" d="M.773 0h1.188v-4.184c0-1.21.734-2.011 1.855-2.011 1.094 0 1.633.636 1.633 1.793V0h1.188v-4.613c0-1.621-.903-2.633-2.461-2.633-1.078 0-1.805.484-2.188 1.148h-.027v-1.011H.773Zm0 0"/><path id="o" d="M3.445.137c1.02 0 1.813-.512 2.258-1.34h.027V0h1.188v-9.863H5.73v3.941h-.027c-.445-.82-1.273-1.324-2.277-1.324-1.785 0-3 1.441-3 3.684v.007c0 2.243 1.203 3.692 3.02 3.692M3.68-.918c-1.258 0-2.04-1.004-2.04-2.637v-.007c0-1.622.782-2.633 2.04-2.633 1.195 0 2.054 1.047 2.054 2.633v.007c0 1.594-.851 2.637-2.054 2.637m0 0"/><path id="p" d="M3.719.137c1.96 0 3.289-1.422 3.289-3.692v-.015c0-2.27-1.332-3.676-3.297-3.676C1.75-7.246.426-5.832.426-3.57v.015C.426-1.293 1.742.137 3.719.137m.008-1.055c-1.258 0-2.086-.96-2.086-2.637v-.015c0-1.66.836-2.625 2.07-2.625 1.258 0 2.078.957 2.078 2.625v.015c0 1.668-.812 2.637-2.062 2.637m0 0"/><path id="q" d="M1.156 0h1.188v-6.125h1.449v-.984H2.332v-.868c0-.707.328-1.039.984-1.039.184 0 .368.004.512.028v-.965A5 5 0 0 0 3.105-10c-1.312 0-1.949.648-1.949 2.016v.875H.164v.984h.992Zm0 0"/><path id="r" d="M.773 0h1.188v-4.39c0-1.079.601-1.723 1.527-1.723.285 0 .54.035.633.07v-1.156c-.094-.012-.273-.047-.476-.047-.801 0-1.415.52-1.657 1.34h-.027V-7.11H.773Zm0 0"/><path id="s" d="M4.309.137c1.816 0 3.02-1.45 3.02-3.692v-.007c0-2.243-1.216-3.684-3-3.684-1.005 0-1.833.504-2.278 1.324h-.028v-3.941H.836V0h1.187v-1.203h.028c.445.828 1.238 1.34 2.258 1.34M4.074-.918c-1.203 0-2.058-1.043-2.058-2.637v-.007c0-1.586.863-2.633 2.058-2.633 1.258 0 2.04 1.011 2.04 2.633v.007c0 1.633-.782 2.637-2.04 2.637m0 0"/><path id="t" d="M.219 0h1.32l1.715-2.707h.027L4.984 0h1.32L3.938-3.602l2.399-3.507H5.012L3.324-4.445h-.027L1.586-7.11H.262L2.64-3.555Zm0 0"/><path id="u" d="M3.719.137c1.605 0 2.777-1.047 2.969-2.399l.003-.05H5.523l-.011.054c-.2.793-.82 1.34-1.793 1.34-1.23 0-2.078-.977-2.078-2.629v-.008c0-1.613.828-2.64 2.066-2.64 1.043 0 1.617.629 1.797 1.34l.012.054H6.68l-.008-.054C6.523-6.07 5.477-7.246 3.707-7.246 1.73-7.246.426-5.812.426-3.57v.007c0 2.262 1.277 3.7 3.293 3.7m0 0"/><path id="v" d="M3.242 2.395h.996c-.984-1.145-1.73-3.852-1.73-6.133 0-2.285.746-4.985 1.73-6.125h-.996C1.906-8.168 1.301-6.172 1.301-3.738c0 2.433.605 4.441 1.941 6.133m0 0"/><path id="w" d="M4.238.164c2.27 0 3.63-1.96 3.63-5.094v-.011c0-3.133-1.36-5.086-3.63-5.086S.621-8.074.621-4.941v.011C.621-1.797 1.97.164 4.238.164m0-1.074C2.734-.91 1.86-2.453 1.86-4.93v-.011c0-2.477.875-4.008 2.38-4.008 1.503 0 2.394 1.531 2.394 4.008v.011c0 2.477-.89 4.02-2.395 4.02m0 0"/><path id="x" d="M.813-3.445h4.375v-1.11H.813Zm0 0"/><path id="y" d="M3.316 0h1.188v-9.863H3.3L.676-7.977v1.235L3.289-8.56h.027Zm0 0"/><path id="z" d="M1.273 2.395c1.332-1.692 1.942-3.7 1.942-6.133 0-2.434-.61-4.43-1.942-6.125h-1c.985 1.14 1.73 3.84 1.73 6.125 0 2.281-.745 4.988-1.73 6.133Zm0 0"/><path id="A" d="M1.504.098a.774.774 0 0 0 .781-.782.774.774 0 0 0-.781-.78.77.77 0 0 0-.777.78c0 .438.34.782.777.782m0 0"/><path id="B" d="M1.504-5.195a.774.774 0 0 0 .781-.782.77.77 0 0 0-.781-.777.767.767 0 0 0-.777.777c0 .438.34.782.777.782m0 5.293a.774.774 0 0 0 .781-.782.774.774 0 0 0-.781-.78.77.77 0 0 0-.777.78c0 .438.34.782.777.782m0 0"/><path id="C" d="M.957 0h1.23v-3.902h2.36L6.66 0h1.442L5.816-4.094c1.23-.39 1.985-1.449 1.985-2.816v-.016c0-1.777-1.246-2.937-3.145-2.937H.957Zm1.23-4.992V-8.77h2.305c1.266 0 2.035.696 2.035 1.872v.015c0 1.207-.715 1.89-1.98 1.89Zm0 0"/><path id="D" d="M.848-5.14h6.77v-1.11H.847Zm0 3.382h6.77v-1.105H.847Zm0 0"/><path id="E" d="M.621 0h5.305v-.984H2.004v-.02l3.902-5.238v-.867H.63v.984h3.926v.02L.62-.848Zm0 0"/><path id="F" d="M2.387-5.45h.832l-.067-1.585 1.297.828.426-.645-1.437-.757 1.437-.75-.426-.645-1.297.828.067-1.578h-.832l.066 1.578-1.297-.828-.426.645 1.45.757-1.45.766.426.64 1.297-.824Zm0 0"/><path id="G" d="M2.996 0h1.16l2.297-7.902h.027L8.777 0h1.164l2.684-9.863H11.34L9.352-1.766h-.028L7.09-9.863H5.844L3.609-1.766h-.027L1.594-9.863H.309Zm0 0"/><path id="H" d="M1.457 2.395c1.285 0 1.906-.59 2.414-1.95l2.774-7.554h-1.25l-1.97 5.918h-.027L1.438-7.11H.163L2.804.008 2.66.41c-.289.809-.703 1-1.457 1-.144 0-.281-.023-.383-.043v.973c.153.027.403.055.637.055m0 0"/></defs><path fill="none" stroke="#8E8E93" stroke-miterlimit="10" stroke-width="2" d="M101.898 24.926v43.633"/><path fill="#8E8E93" stroke="#8E8E93" stroke-miterlimit="10" stroke-width="2" d="m105.398 68.18-3.5 10-3.5-10Zm0 0"/><path fill="none" stroke="#5E5CE6" stroke-miterlimit="10" stroke-width="2" d="M87.922 24.98C75.442 37.023 58.035 56.586 50.699 77.8c-4.597 13.294-4.597 18.356 0 31.65 5.672 16.41 17.371 31.827 28.156 43.546"/><path fill="#5E5CE6" stroke="#5E5CE6" stroke-miterlimit="10" stroke-width="2" d="m81.32 150.508 4.485 9.597-9.493-4.703Zm0 0"/><path fill="none" stroke="#5E5CE6" stroke-miterlimit="10" stroke-width="2" d="M101.898 105.926v43.633"/><path fill="#5E5CE6" stroke="#5E5CE6" stroke-miterlimit="10" stroke-width="2" d="m105.398 149.18-3.5 10-3.5-10Zm0 0"/><path fill="none" stroke="#5E5CE6" stroke-miterlimit="10" stroke-width="2" d="M101.898 186.926v43.633"/><path fill="#5E5CE6" stroke="#5E5CE6" stroke-miterlimit="10" stroke-width="2" d="m105.398 230.18-3.5 10-3.5-10Zm0 0"/><path fill="none" stroke="#FF453A" stroke-miterlimit="10" stroke-width="2" d="M112.906 243.242 298.488 34.461"/><path fill="#FF453A" stroke="#FF453A" stroke-miterlimit="10" stroke-width="2" d="m295.64 32.395 9.262-5.149-4.03 9.8Zm0 0"/><path fill="none" stroke="#5E5CE6" stroke-miterlimit="10" stroke-width="2" d="M317.898 24.926v43.633"/><path fill="#5E5CE6" stroke="#5E5CE6" stroke-miterlimit="10" stroke-width="2" d="m321.398 68.18-3.5 10-3.5-10Zm0 0"/><path fill="none" stroke="#FF453A" stroke-miterlimit="10" stroke-width="2" d="M284.621 81.145c-36.785-13.793-96.254-36.094-137.305-51.489"/><path fill="#FF453A" stroke="#FF453A" stroke-miterlimit="10" stroke-width="2" d="m146.18 32.969-8.133-6.79 10.594.235Zm0 0"/><g fill="none" stroke="#1b1b1d" stroke-linecap="round" stroke-linejoin="round" stroke-width="2"><use xlink:href="#c" x="13.574" y="285.551"/><use xlink:href="#d" x="22.574" y="285.551"/><use xlink:href="#e" x="25.574" y="285.551"/><use xlink:href="#f" x="32.324" y="285.551"/><use xlink:href="#g" x="39.074" y="285.551"/><use xlink:href="#h" x="50.324" y="285.551"/><use xlink:href="#i" x="57.824" y="285.551"/><use xlink:href="#j" x="60.824" y="285.551"/><use xlink:href="#d" x="68.324" y="285.551"/><use xlink:href="#i" x="71.324" y="285.551"/><use xlink:href="#k" x="74.324" y="285.551"/><use xlink:href="#l" x="77.324" y="285.551"/><use xlink:href="#g" x="81.824" y="285.551"/><use xlink:href="#m" x="93.074" y="285.551"/><use xlink:href="#e" x="100.574" y="285.551"/><use xlink:href="#d" x="107.324" y="285.551"/><use xlink:href="#l" x="110.324" y="285.551"/><use xlink:href="#j" x="114.074" y="285.551"/><use xlink:href="#e" x="121.574" y="285.551"/><use xlink:href="#l" x="128.324" y="285.551"/><use xlink:href="#d" x="132.824" y="285.551"/><use xlink:href="#f" x="135.824" y="285.551"/><use xlink:href="#n" x="142.574" y="285.551"/><use xlink:href="#o" x="150.074" y="285.551"/><use xlink:href="#d" x="157.574" y="285.551"/><use xlink:href="#p" x="160.574" y="285.551"/><use xlink:href="#n" x="168.074" y="285.551"/><use xlink:href="#j" x="175.574" y="285.551"/><use xlink:href="#d" x="183.074" y="285.551"/><use xlink:href="#q" x="186.074" y="285.551"/><use xlink:href="#p" x="189.824" y="285.551"/><use xlink:href="#r" x="197.324" y="285.551"/><use xlink:href="#s" x="201.824" y="285.551"/><use xlink:href="#k" x="209.324" y="285.551"/><use xlink:href="#o" x="212.324" y="285.551"/><use xlink:href="#o" x="219.824" y="285.551"/><use xlink:href="#j" x="227.324" y="285.551"/><use xlink:href="#n" x="234.824" y="285.551"/><use xlink:href="#d" x="242.324" y="285.551"/><use xlink:href="#j" x="245.324" y="285.551"/><use xlink:href="#t" x="252.074" y="285.551"/><use xlink:href="#j" x="258.824" y="285.551"/><use xlink:href="#u" x="266.324" y="285.551"/><use xlink:href="#m" x="273.074" y="285.551"/><use xlink:href="#l" x="280.574" y="285.551"/><use xlink:href="#k" x="285.074" y="285.551"/><use xlink:href="#p" x="288.074" y="285.551"/><use xlink:href="#n" x="295.574" y="285.551"/><use xlink:href="#d" x="303.074" y="285.551"/><use xlink:href="#v" x="306.074" y="285.551"/><use xlink:href="#f" x="310.574" y="285.551"/><use xlink:href="#w" x="317.324" y="285.551"/><use xlink:href="#x" x="325.574" y="285.551"/><use xlink:href="#y" x="330.824" y="285.551"/><use xlink:href="#z" x="336.824" y="285.551"/><use xlink:href="#A" x="341.324" y="285.551"/></g><g fill="#E3E3E3"><use xlink:href="#c" x="13.574" y="285.551"/><use xlink:href="#d" x="22.574" y="285.551"/><use xlink:href="#e" x="25.574" y="285.551"/><use xlink:href="#f" x="32.324" y="285.551"/><use xlink:href="#g" x="39.074" y="285.551"/><use xlink:href="#h" x="50.324" y="285.551"/><use xlink:href="#i" x="57.824" y="285.551"/><use xlink:href="#j" x="60.824" y="285.551"/><use xlink:href="#d" x="68.324" y="285.551"/><use xlink:href="#i" x="71.324" y="285.551"/><use xlink:href="#k" x="74.324" y="285.551"/><use xlink:href="#l" x="77.324" y="285.551"/><use xlink:href="#g" x="81.824" y="285.551"/><use xlink:href="#m" x="93.074" y="285.551"/><use xlink:href="#e" x="100.574" y="285.551"/><use xlink:href="#d" x="107.324" y="285.551"/><use xlink:href="#l" x="110.324" y="285.551"/><use xlink:href="#j" x="114.074" y="285.551"/><use xlink:href="#e" x="121.574" y="285.551"/><use xlink:href="#l" x="128.324" y="285.551"/><use xlink:href="#d" x="132.824" y="285.551"/><use xlink:href="#f" x="135.824" y="285.551"/><use xlink:href="#n" x="142.574" y="285.551"/><use xlink:href="#o" x="150.074" y="285.551"/><use xlink:href="#d" x="157.574" y="285.551"/><use xlink:href="#p" x="160.574" y="285.551"/><use xlink:href="#n" x="168.074" y="285.551"/><use xlink:href="#j" x="175.574" y="285.551"/><use xlink:href="#d" x="183.074" y="285.551"/><use xlink:href="#q" x="186.074" y="285.551"/><use xlink:href="#p" x="189.824" y="285.551"/><use xlink:href="#r" x="197.324" y="285.551"/><use xlink:href="#s" x="201.824" y="285.551"/><use xlink:href="#k" x="209.324" y="285.551"/><use xlink:href="#o" x="212.324" y="285.551"/><use xlink:href="#o" x="219.824" y="285.551"/><use xlink:href="#j" x="227.324" y="285.551"/><use xlink:href="#n" x="234.824" y="285.551"/><use xlink:href="#d" x="242.324" y="285.551"/><use xlink:href="#j" x="245.324" y="285.551"/><use xlink:href="#t" x="252.074" y="285.551"/><use xlink:href="#j" x="258.824" y="285.551"/><use xlink:href="#u" x="266.324" y="285.551"/><use xlink:href="#m" x="273.074" y="285.551"/><use xlink:href="#l" x="280.574" y="285.551"/><use xlink:href="#k" x="285.074" y="285.551"/><use xlink:href="#p" x="288.074" y="285.551"/><use xlink:href="#n" x="295.574" y="285.551"/><use xlink:href="#d" x="303.074" y="285.551"/><use xlink:href="#v" x="306.074" y="285.551"/><use xlink:href="#f" x="310.574" y="285.551"/><use xlink:href="#w" x="317.324" y="285.551"/><use xlink:href="#x" x="325.574" y="285.551"/><use xlink:href="#y" x="330.824" y="285.551"/><use xlink:href="#z" x="336.824" y="285.551"/><use xlink:href="#A" x="341.324" y="285.551"/></g><g fill="none" stroke="#1b1b1d" stroke-linecap="round" stroke-linejoin="round" stroke-width="2"><use xlink:href="#f" x="80.148" y="17.301"/><use xlink:href="#B" x="86.898" y="17.301"/><use xlink:href="#d" x="89.898" y="17.301"/><use xlink:href="#C" x="92.898" y="17.301"/><use xlink:href="#t" x="101.148" y="17.301"/><use xlink:href="#D" x="107.148" y="17.301"/><use xlink:href="#w" x="115.398" y="17.301"/></g><g fill="#E3E3E3"><use xlink:href="#f" x="80.148" y="17.301"/><use xlink:href="#B" x="86.898" y="17.301"/><use xlink:href="#d" x="89.898" y="17.301"/><use xlink:href="#C" x="92.898" y="17.301"/><use xlink:href="#t" x="101.148" y="17.301"/><use xlink:href="#D" x="107.148" y="17.301"/><use xlink:href="#w" x="115.398" y="17.301"/></g><g fill="none" stroke="#1b1b1d" stroke-linecap="round" stroke-linejoin="round" stroke-width="2"><use xlink:href="#s" x="76.773" y="98.301"/><use xlink:href="#B" x="84.273" y="98.301"/><use xlink:href="#d" x="87.273" y="98.301"/><use xlink:href="#C" x="90.273" y="98.301"/><use xlink:href="#E" x="98.523" y="98.301"/><use xlink:href="#F" x="105.273" y="98.301"/><use xlink:href="#D" x="110.523" y="98.301"/><use xlink:href="#w" x="118.773" y="98.301"/></g><g fill="#E3E3E3"><use xlink:href="#s" x="76.773" y="98.301"/><use xlink:href="#B" x="84.273" y="98.301"/><use xlink:href="#d" x="87.273" y="98.301"/><use xlink:href="#C" x="90.273" y="98.301"/><use xlink:href="#E" x="98.523" y="98.301"/><use xlink:href="#F" x="105.273" y="98.301"/><use xlink:href="#D" x="110.523" y="98.301"/><use xlink:href="#w" x="118.773" y="98.301"/></g><g fill="none" stroke="#1b1b1d" stroke-linecap="round" stroke-linejoin="round" stroke-width="2"><use xlink:href="#h" x="86.898" y="49.297"/><use xlink:href="#p" x="94.398" y="49.297"/></g><g fill="#8E8E93"><use xlink:href="#h" x="86.898" y="49.297"/><use xlink:href="#p" x="94.398" y="49.297"/></g><g fill="none" stroke="#1b1b1d" stroke-linecap="round" stroke-linejoin="round" stroke-width="2"><use xlink:href="#u" x="74.898" y="179.301"/><use xlink:href="#B" x="81.648" y="179.301"/><use xlink:href="#d" x="84.648" y="179.301"/><use xlink:href="#G" x="87.648" y="179.301"/><use xlink:href="#E" x="100.398" y="179.301"/><use xlink:href="#F" x="107.148" y="179.301"/><use xlink:href="#D" x="112.398" y="179.301"/><use xlink:href="#w" x="120.648" y="179.301"/></g><g fill="#E3E3E3"><use xlink:href="#u" x="74.898" y="179.301"/><use xlink:href="#B" x="81.648" y="179.301"/><use xlink:href="#d" x="84.648" y="179.301"/><use xlink:href="#G" x="87.648" y="179.301"/><use xlink:href="#E" x="100.398" y="179.301"/><use xlink:href="#F" x="107.148" y="179.301"/><use xlink:href="#D" x="112.398" y="179.301"/><use xlink:href="#w" x="120.648" y="179.301"/></g><g fill="none" stroke="#1b1b1d" stroke-linecap="round" stroke-linejoin="round" stroke-width="2"><use xlink:href="#o" y="88.676"/><use xlink:href="#f" x="7.5" y="88.676"/><use xlink:href="#l" x="14.25" y="88.676"/><use xlink:href="#f" x="18" y="88.676"/></g><g fill="#5E5CE6"><use xlink:href="#o" y="88.676"/><use xlink:href="#f" x="7.5" y="88.676"/><use xlink:href="#l" x="14.25" y="88.676"/><use xlink:href="#f" x="18" y="88.676"/></g><g fill="none" stroke="#1b1b1d" stroke-linecap="round" stroke-linejoin="round" stroke-width="2"><use xlink:href="#h" x="24.75" y="88.676"/><use xlink:href="#h" x="32.25" y="88.676"/><use xlink:href="#p" x="39.75" y="88.676"/></g><g fill="#5E5CE6"><use xlink:href="#h" x="24.75" y="88.676"/><use xlink:href="#h" x="32.25" y="88.676"/><use xlink:href="#p" x="39.75" y="88.676"/></g><g fill="none" stroke="#1b1b1d" stroke-linecap="round" stroke-linejoin="round" stroke-width="2"><use xlink:href="#h" x="79.398" y="130.297"/><use xlink:href="#h" x="86.898" y="130.297"/><use xlink:href="#p" x="94.398" y="130.297"/></g><g fill="#5E5CE6"><use xlink:href="#h" x="79.398" y="130.297"/><use xlink:href="#h" x="86.898" y="130.297"/><use xlink:href="#p" x="94.398" y="130.297"/></g><g fill="none" stroke="#1b1b1d" stroke-linecap="round" stroke-linejoin="round" stroke-width="2"><use xlink:href="#o" x="77.148" y="260.301"/><use xlink:href="#B" x="84.648" y="260.301"/><use xlink:href="#d" x="87.648" y="260.301"/><use xlink:href="#G" x="90.648" y="260.301"/><use xlink:href="#H" x="103.398" y="260.301"/><use xlink:href="#D" x="110.148" y="260.301"/><use xlink:href="#w" x="118.398" y="260.301"/></g><g fill="#E3E3E3"><use xlink:href="#o" x="77.148" y="260.301"/><use xlink:href="#B" x="84.648" y="260.301"/><use xlink:href="#d" x="87.648" y="260.301"/><use xlink:href="#G" x="90.648" y="260.301"/><use xlink:href="#H" x="103.398" y="260.301"/><use xlink:href="#D" x="110.148" y="260.301"/><use xlink:href="#w" x="118.398" y="260.301"/></g><g fill="none" stroke="#1b1b1d" stroke-linecap="round" stroke-linejoin="round" stroke-width="2"><use xlink:href="#o" x="54.648" y="210.297"/><use xlink:href="#f" x="62.148" y="210.297"/><use xlink:href="#l" x="68.898" y="210.297"/><use xlink:href="#f" x="72.648" y="210.297"/></g><g fill="#5E5CE6"><use xlink:href="#o" x="54.648" y="210.297"/><use xlink:href="#f" x="62.148" y="210.297"/><use xlink:href="#l" x="68.898" y="210.297"/><use xlink:href="#f" x="72.648" y="210.297"/></g><g fill="none" stroke="#1b1b1d" stroke-linecap="round" stroke-linejoin="round" stroke-width="2"><use xlink:href="#h" x="79.398" y="210.297"/><use xlink:href="#h" x="86.898" y="210.297"/><use xlink:href="#p" x="94.398" y="210.297"/></g><g fill="#5E5CE6"><use xlink:href="#h" x="79.398" y="210.297"/><use xlink:href="#h" x="86.898" y="210.297"/><use xlink:href="#p" x="94.398" y="210.297"/></g><g fill="none" stroke="#1b1b1d" stroke-linecap="round" stroke-linejoin="round" stroke-width="2"><use xlink:href="#j" x="295.398" y="17.301"/><use xlink:href="#B" x="302.898" y="17.301"/><use xlink:href="#d" x="305.898" y="17.301"/><use xlink:href="#C" x="308.898" y="17.301"/><use xlink:href="#H" x="317.148" y="17.301"/><use xlink:href="#D" x="323.898" y="17.301"/><use xlink:href="#w" x="332.148" y="17.301"/></g><g fill="#E3E3E3"><use xlink:href="#j" x="295.398" y="17.301"/><use xlink:href="#B" x="302.898" y="17.301"/><use xlink:href="#d" x="305.898" y="17.301"/><use xlink:href="#C" x="308.898" y="17.301"/><use xlink:href="#H" x="317.148" y="17.301"/><use xlink:href="#D" x="323.898" y="17.301"/><use xlink:href="#w" x="332.148" y="17.301"/></g><g fill="none" stroke="#1b1b1d" stroke-linecap="round" stroke-linejoin="round" stroke-width="2"><use xlink:href="#r" x="200.832" y="130.25"/><use xlink:href="#q" x="205.332" y="130.25"/></g><g fill="#FF453A"><use xlink:href="#r" x="200.832" y="130.25"/><use xlink:href="#q" x="205.332" y="130.25"/></g><g fill="none" stroke="#1b1b1d" stroke-linecap="round" stroke-linejoin="round" stroke-width="2"><use xlink:href="#q" x="295.023" y="98.301"/><use xlink:href="#B" x="299.523" y="98.301"/><use xlink:href="#d" x="302.523" y="98.301"/><use xlink:href="#G" x="305.523" y="98.301"/><use xlink:href="#t" x="318.273" y="98.301"/><use xlink:href="#D" x="324.273" y="98.301"/><use xlink:href="#w" x="332.523" y="98.301"/></g><g fill="#E3E3E3"><use xlink:href="#q" x="295.023" y="98.301"/><use xlink:href="#B" x="299.523" y="98.301"/><use xlink:href="#d" x="302.523" y="98.301"/><use xlink:href="#G" x="305.523" y="98.301"/><use xlink:href="#t" x="318.273" y="98.301"/><use xlink:href="#D" x="324.273" y="98.301"/><use xlink:href="#w" x="332.523" y="98.301"/></g><g fill="none" stroke="#1b1b1d" stroke-linecap="round" stroke-linejoin="round" stroke-width="2"><use xlink:href="#o" x="270.648" y="48.297"/><use xlink:href="#f" x="278.148" y="48.297"/><use xlink:href="#l" x="284.898" y="48.297"/><use xlink:href="#f" x="288.648" y="48.297"/></g><g fill="#5E5CE6"><use xlink:href="#o" x="270.648" y="48.297"/><use xlink:href="#f" x="278.148" y="48.297"/><use xlink:href="#l" x="284.898" y="48.297"/><use xlink:href="#f" x="288.648" y="48.297"/></g><g fill="none" stroke="#1b1b1d" stroke-linecap="round" stroke-linejoin="round" stroke-width="2"><use xlink:href="#h" x="295.398" y="48.297"/><use xlink:href="#h" x="302.898" y="48.297"/><use xlink:href="#p" x="310.398" y="48.297"/></g><g fill="#5E5CE6"><use xlink:href="#h" x="295.398" y="48.297"/><use xlink:href="#h" x="302.898" y="48.297"/><use xlink:href="#p" x="310.398" y="48.297"/></g><g fill="none" stroke="#1b1b1d" stroke-linecap="round" stroke-linejoin="round" stroke-width="2"><use xlink:href="#r" x="201.063" y="49.238"/><use xlink:href="#q" x="205.563" y="49.238"/></g><g fill="#FF453A"><use xlink:href="#r" x="201.063" y="49.238"/><use xlink:href="#q" x="205.563" y="49.238"/></g></svg>